<?xml version="1.0" encoding="us-ascii" standalone="no"?><svg xmlns="http://www.w3.org/2000/svg" xmlns:xlink="http://www.w3.org/1999/xlink" contentStyleType="text/css" height="1131px" preserveAspectRatio="none" style="width:1525px;height:1131px;background:#FFFFFF;" version="1.1" viewBox="0 0 1525 1131" width="1525px" zoomAndPan="magnify"><defs/><g><text fill="#000000" font-family="sans-serif" font-size="14" font-weight="bold" lengthAdjust="spacing" textLength="394" x="564" y="34.5332">Activity Diagram - Pengunjung Mengakses Landing Page</text><ellipse cx="1012.75" cy="58.6094" fill="#222222" rx="10" ry="10" style="stroke:#222222;stroke-width:1.0;"/><rect fill="none" height="139.7969" style="stroke:#000000;stroke-width:1.5;" width="225" x="900.25" y="78.6094"/><path d="M1075.25,78.6094 L1075.25,89.2188 L1065.25,99.2188 L900.25,99.2188 " fill="none" style="stroke:#000000;stroke-width:1.5;"/><text fill="#000000" font-family="sans-serif" font-size="14" lengthAdjust="spacing" textLength="165" x="903.25" y="94.1426">Pengunjung / Calon Siswa</text><rect fill="#F1F1F1" height="35.0938" rx="12.5" ry="12.5" style="stroke:#181818;stroke-width:0.5;" width="122" x="951.75" y="116.2188"/><text fill="#000000" font-family="sans-serif" font-size="12" lengthAdjust="spacing" textLength="102" x="961.75" y="138.6758">Membuka browser</text><rect fill="#F1F1F1" height="35.0938" rx="12.5" ry="12.5" style="stroke:#181818;stroke-width:0.5;" width="205" x="910.25" y="171.3125"/><text fill="#000000" font-family="sans-serif" font-size="12" lengthAdjust="spacing" textLength="185" x="920.25" y="193.7695">Mengakses website Bimbel Orion</text><rect fill="none" height="139.7969" style="stroke:#000000;stroke-width:1.5;" width="251" x="887.25" y="228.4063"/><path d="M939.25,228.4063 L939.25,239.0156 L929.25,249.0156 L887.25,249.0156 " fill="none" style="stroke:#000000;stroke-width:1.5;"/><text fill="#000000" font-family="sans-serif" font-size="14" lengthAdjust="spacing" textLength="42" x="890.25" y="243.9395">Sistem</text><rect fill="#F1F1F1" height="35.0938" rx="12.5" ry="12.5" style="stroke:#181818;stroke-width:0.5;" width="231" x="897.25" y="266.0156"/><text fill="#000000" font-family="sans-serif" font-size="12" lengthAdjust="spacing" textLength="211" x="907.25" y="288.4727">Menerima permintaan halaman utama</text><rect fill="#F1F1F1" height="35.0938" rx="12.5" ry="12.5" style="stroke:#181818;stroke-width:0.5;" width="191" x="917.25" y="321.1094"/><text fill="#000000" font-family="sans-serif" font-size="12" lengthAdjust="spacing" textLength="171" x="927.25" y="343.5664">Memuat halaman landing page</text><polygon fill="#F1F1F1" points="939.75,388.2031,1085.75,388.2031,1097.75,400.2031,1085.75,412.2031,939.75,412.2031,927.75,400.2031,939.75,388.2031" style="stroke:#181818;stroke-width:0.5;"/><text fill="#000000" font-family="sans-serif" font-size="11" lengthAdjust="spacing" textLength="146" x="939.75" y="404.7041">Landing page berhasil dimuat?</text><text fill="#000000" font-family="sans-serif" font-size="11" lengthAdjust="spacing" textLength="14" x="913.75" y="397.7861">Ya</text><text fill="#000000" font-family="sans-serif" font-size="11" lengthAdjust="spacing" textLength="25" x="1097.75" y="397.7861">Tidak</text><rect fill="none" height="192.9844" style="stroke:#000000;stroke-width:1.5;" width="231" x="516.5" y="422.2031"/><path d="M568.5,422.2031 L568.5,432.8125 L558.5,442.8125 L516.5,442.8125 " fill="none" style="stroke:#000000;stroke-width:1.5;"/><text fill="#000000" font-family="sans-serif" font-size="14" lengthAdjust="spacing" textLength="42" x="519.5" y="437.7363">Sistem</text><rect fill="#F1F1F1" height="35.0938" rx="12.5" ry="12.5" style="stroke:#181818;stroke-width:0.5;" width="169" x="547.5" y="459.8125"/><text fill="#000000" font-family="sans-serif" font-size="12" lengthAdjust="spacing" textLength="149" x="557.5" y="482.2695">Menampilkan landing page</text><rect fill="#F1F1F1" height="65.2813" rx="12.5" ry="12.5" style="stroke:#181818;stroke-width:0.5;" width="211" x="526.5" y="529.9063"/><text fill="#000000" font-family="sans-serif" font-size="12" lengthAdjust="spacing" textLength="191" x="536.5" y="552.3633">Menampilkan navbar, hero section,</text><text fill="#000000" font-family="sans-serif" font-size="12" lengthAdjust="spacing" textLength="154" x="536.5" y="567.457">informasi layanan, program,</text><text fill="#000000" font-family="sans-serif" font-size="12" lengthAdjust="spacing" textLength="132" x="536.5" y="582.5508">tombol Daftar dan Login</text><rect fill="none" height="139.7969" style="stroke:#000000;stroke-width:1.5;" width="240" x="512" y="650.1875"/><path d="M687,650.1875 L687,660.7969 L677,670.7969 L512,670.7969 " fill="none" style="stroke:#000000;stroke-width:1.5;"/><text fill="#000000" font-family="sans-serif" font-size="14" lengthAdjust="spacing" textLength="165" x="515" y="665.7207">Pengunjung / Calon Siswa</text><rect fill="#F1F1F1" height="35.0938" rx="12.5" ry="12.5" style="stroke:#181818;stroke-width:0.5;" width="220" x="522" y="687.7969"/><text fill="#000000" font-family="sans-serif" font-size="12" lengthAdjust="spacing" textLength="200" x="532" y="710.2539">Melihat informasi pada landing page</text><rect fill="#F1F1F1" height="35.0938" rx="12.5" ry="12.5" style="stroke:#181818;stroke-width:0.5;" width="166" x="549" y="742.8906"/><text fill="#000000" font-family="sans-serif" font-size="12" lengthAdjust="spacing" textLength="146" x="559" y="765.3477">Memilih aksi yang tersedia</text><polygon fill="#F1F1F1" points="95.5,809.9844,178.5,809.9844,190.5,821.9844,178.5,833.9844,95.5,833.9844,83.5,821.9844,95.5,809.9844" style="stroke:#181818;stroke-width:0.5;"/><text fill="#000000" font-family="sans-serif" font-size="11" lengthAdjust="spacing" textLength="49" x="141" y="845.4033">Klik Daftar</text><text fill="#000000" font-family="sans-serif" font-size="11" lengthAdjust="spacing" textLength="83" x="95.5" y="826.4854">Aksi yang dipilih?</text><rect fill="none" height="160.9609" style="stroke:#000000;stroke-width:1.5;" width="252" x="11" y="867.8203"/><path d="M63,867.8203 L63,878.4297 L53,888.4297 L11,888.4297 " fill="none" style="stroke:#000000;stroke-width:1.5;"/><text fill="#000000" font-family="sans-serif" font-size="14" lengthAdjust="spacing" textLength="42" x="14" y="883.3535">Sistem</text><rect fill="#F1F1F1" height="35.0938" rx="12.5" ry="12.5" style="stroke:#181818;stroke-width:0.5;" width="232" x="21" y="905.4297"/><text fill="#000000" font-family="sans-serif" font-size="12" lengthAdjust="spacing" textLength="212" x="31" y="927.8867">Mengarahkan ke halaman pendaftaran</text><rect fill="#F1F1F1" height="35.0938" rx="12.5" ry="12.5" style="stroke:#181818;stroke-width:0.5;" width="227" x="23.5" y="975.5234"/><text fill="#000000" font-family="sans-serif" font-size="12" lengthAdjust="spacing" textLength="207" x="33.5" y="997.9805">Menampilkan form pendaftaran siswa</text><polygon fill="#F1F1F1" points="357,809.9844,402,809.9844,414,821.9844,402,833.9844,357,833.9844,345,821.9844,357,809.9844" style="stroke:#181818;stroke-width:0.5;"/><text fill="#000000" font-family="sans-serif" font-size="11" lengthAdjust="spacing" textLength="45" x="357" y="826.4854">Klik Login</text><rect fill="none" height="162.7969" style="stroke:#000000;stroke-width:1.5;" width="213" x="273" y="853.9844"/><path d="M325,853.9844 L325,864.5938 L315,874.5938 L273,874.5938 " fill="none" style="stroke:#000000;stroke-width:1.5;"/><text fill="#000000" font-family="sans-serif" font-size="14" lengthAdjust="spacing" textLength="42" x="276" y="869.5176">Sistem</text><rect fill="#F1F1F1" height="35.0938" rx="12.5" ry="12.5" style="stroke:#181818;stroke-width:0.5;" width="193" x="283" y="891.5938"/><text fill="#000000" font-family="sans-serif" font-size="12" lengthAdjust="spacing" textLength="173" x="293" y="914.0508">Mengarahkan ke halaman login</text><rect fill="#F1F1F1" height="35.0938" rx="12.5" ry="12.5" style="stroke:#181818;stroke-width:0.5;" width="152" x="303.5" y="961.6875"/><text fill="#000000" font-family="sans-serif" font-size="12" lengthAdjust="spacing" textLength="132" x="313.5" y="984.1445">Menampilkan form login</text><polygon fill="#F1F1F1" points="577.5,809.9844,689.5,809.9844,701.5,821.9844,689.5,833.9844,577.5,833.9844,565.5,821.9844,577.5,809.9844" style="stroke:#181818;stroke-width:0.5;"/><text fill="#000000" font-family="sans-serif" font-size="11" lengthAdjust="spacing" textLength="112" x="577.5" y="826.4854">Lihat Informasi / Kontak</text><rect fill="none" height="92.7031" style="stroke:#000000;stroke-width:1.5;" width="275" x="496" y="853.9844"/><path d="M548,853.9844 L548,864.5938 L538,874.5938 L496,874.5938 " fill="none" style="stroke:#000000;stroke-width:1.5;"/><text fill="#000000" font-family="sans-serif" font-size="14" lengthAdjust="spacing" textLength="42" x="499" y="869.5176">Sistem</text><rect fill="#F1F1F1" height="35.0938" rx="12.5" ry="12.5" style="stroke:#181818;stroke-width:0.5;" width="255" x="506" y="891.5938"/><text fill="#000000" font-family="sans-serif" font-size="12" lengthAdjust="spacing" textLength="235" x="516" y="914.0508">Menampilkan bagian informasi yang dipilih</text><polygon fill="#F1F1F1" points="858.5,809.9844,980.5,809.9844,992.5,821.9844,980.5,833.9844,858.5,833.9844,846.5,821.9844,858.5,809.9844" style="stroke:#181818;stroke-width:0.5;"/><text fill="#000000" font-family="sans-serif" font-size="11" lengthAdjust="spacing" textLength="122" x="858.5" y="826.4854">Syarat / Kebijakan Privasi</text><text fill="#000000" font-family="sans-serif" font-size="11" lengthAdjust="spacing" textLength="84" x="992.5" y="819.5674">Tidak memilih aksi</text><rect fill="none" height="92.7031" style="stroke:#000000;stroke-width:1.5;" width="277" x="781" y="853.9844"/><path d="M833,853.9844 L833,864.5938 L823,874.5938 L781,874.5938 " fill="none" style="stroke:#000000;stroke-width:1.5;"/><text fill="#000000" font-family="sans-serif" font-size="14" lengthAdjust="spacing" textLength="42" x="784" y="869.5176">Sistem</text><rect fill="#F1F1F1" height="35.0938" rx="12.5" ry="12.5" style="stroke:#181818;stroke-width:0.5;" width="257" x="791" y="891.5938"/><text fill="#000000" font-family="sans-serif" font-size="12" lengthAdjust="spacing" textLength="237" x="801" y="914.0508">Menampilkan halaman informasi kebijakan</text><rect fill="none" height="107.7969" style="stroke:#000000;stroke-width:1.5;" width="185" x="1078" y="891.4023"/><path d="M1253,891.4023 L1253,902.0117 L1243,912.0117 L1078,912.0117 " fill="none" style="stroke:#000000;stroke-width:1.5;"/><text fill="#000000" font-family="sans-serif" font-size="14" lengthAdjust="spacing" textLength="165" x="1081" y="906.9355">Pengunjung / Calon Siswa</text><rect fill="#F1F1F1" height="50.1875" rx="12.5" ry="12.5" style="stroke:#181818;stroke-width:0.5;" width="162" x="1089.5" y="929.0117"/><text fill="#000000" font-family="sans-serif" font-size="12" lengthAdjust="spacing" textLength="142" x="1099.5" y="951.4688">Tetap membaca halaman</text><text fill="#000000" font-family="sans-serif" font-size="12" lengthAdjust="spacing" textLength="122" x="1099.5" y="966.5625">atau menutup website</text><rect fill="none" height="107.7969" style="stroke:#000000;stroke-width:1.5;" width="241" x="1273" y="422.2031"/><path d="M1325,422.2031 L1325,432.8125 L1315,442.8125 L1273,442.8125 " fill="none" style="stroke:#000000;stroke-width:1.5;"/><text fill="#000000" font-family="sans-serif" font-size="14" lengthAdjust="spacing" textLength="42" x="1276" y="437.7363">Sistem</text><rect fill="#F1F1F1" height="50.1875" rx="12.5" ry="12.5" style="stroke:#181818;stroke-width:0.5;" width="221" x="1283" y="459.8125"/><text fill="#000000" font-family="sans-serif" font-size="12" lengthAdjust="spacing" textLength="201" x="1293" y="482.2695">Menampilkan halaman gagal dimuat</text><text fill="#000000" font-family="sans-serif" font-size="12" lengthAdjust="spacing" textLength="140" x="1293" y="497.3633">atau koneksi bermasalah</text><rect fill="none" height="107.7969" style="stroke:#000000;stroke-width:1.5;" width="185" x="1301" y="565"/><path d="M1476,565 L1476,575.6094 L1466,585.6094 L1301,585.6094 " fill="none" style="stroke:#000000;stroke-width:1.5;"/><text fill="#000000" font-family="sans-serif" font-size="14" lengthAdjust="spacing" textLength="165" x="1304" y="580.5332">Pengunjung / Calon Siswa</text><rect fill="#F1F1F1" height="50.1875" rx="12.5" ry="12.5" style="stroke:#181818;stroke-width:0.5;" width="150" x="1318.5" y="602.6094"/><text fill="#000000" font-family="sans-serif" font-size="12" lengthAdjust="spacing" textLength="130" x="1328.5" y="625.0664">Memuat ulang halaman</text><text fill="#000000" font-family="sans-serif" font-size="12" lengthAdjust="spacing" textLength="122" x="1328.5" y="640.1602">atau menutup website</text><polygon fill="#F1F1F1" points="1012.75,1054.7813,1024.75,1066.7813,1012.75,1078.7813,1000.75,1066.7813,1012.75,1054.7813" style="stroke:#181818;stroke-width:0.5;"/><ellipse cx="1012.75" cy="1109.7813" fill="none" rx="11" ry="11" style="stroke:#222222;stroke-width:1.0;"/><ellipse cx="1012.75" cy="1109.7813" fill="#222222" rx="6" ry="6" style="stroke:#222222;stroke-width:1.0;"/><line style="stroke:#181818;stroke-width:1.0;" x1="1012.75" x2="1012.75" y1="151.3125" y2="171.3125"/><polygon fill="#181818" points="1008.75,161.3125,1012.75,171.3125,1016.75,161.3125,1012.75,165.3125" style="stroke:#181818;stroke-width:1.0;"/><line style="stroke:#181818;stroke-width:1.0;" x1="1012.75" x2="1012.75" y1="68.6094" y2="116.2188"/><polygon fill="#181818" points="1008.75,106.2188,1012.75,116.2188,1016.75,106.2188,1012.75,110.2188" style="stroke:#181818;stroke-width:1.0;"/><line style="stroke:#181818;stroke-width:1.0;" x1="1012.75" x2="1012.75" y1="301.1094" y2="321.1094"/><polygon fill="#181818" points="1008.75,311.1094,1012.75,321.1094,1016.75,311.1094,1012.75,315.1094" style="stroke:#181818;stroke-width:1.0;"/><line style="stroke:#181818;stroke-width:1.0;" x1="1012.75" x2="1012.75" y1="206.4063" y2="266.0156"/><polygon fill="#181818" points="1008.75,256.0156,1012.75,266.0156,1016.75,256.0156,1012.75,260.0156" style="stroke:#181818;stroke-width:1.0;"/><line style="stroke:#181818;stroke-width:1.0;" x1="632" x2="632" y1="494.9063" y2="529.9063"/><polygon fill="#181818" points="628,519.9063,632,529.9063,636,519.9063,632,523.9063" style="stroke:#181818;stroke-width:1.0;"/><line style="stroke:#181818;stroke-width:1.0;" x1="632" x2="632" y1="722.8906" y2="742.8906"/><polygon fill="#181818" points="628,732.8906,632,742.8906,636,732.8906,632,736.8906" style="stroke:#181818;stroke-width:1.0;"/><line style="stroke:#181818;stroke-width:1.0;" x1="632" x2="632" y1="595.1875" y2="687.7969"/><polygon fill="#181818" points="628,677.7969,632,687.7969,636,677.7969,632,681.7969" style="stroke:#181818;stroke-width:1.0;"/><line style="stroke:#181818;stroke-width:1.0;" x1="137" x2="137" y1="940.5234" y2="975.5234"/><polygon fill="#181818" points="133,965.5234,137,975.5234,141,965.5234,137,969.5234" style="stroke:#181818;stroke-width:1.0;"/><line style="stroke:#181818;stroke-width:1.0;" x1="379.5" x2="379.5" y1="926.6875" y2="961.6875"/><polygon fill="#181818" points="375.5,951.6875,379.5,961.6875,383.5,951.6875,379.5,955.6875" style="stroke:#181818;stroke-width:1.0;"/><line style="stroke:#181818;stroke-width:1.0;" x1="137" x2="137" y1="833.9844" y2="905.4297"/><polygon fill="#181818" points="133,895.4297,137,905.4297,141,895.4297,137,899.4297" style="stroke:#181818;stroke-width:1.0;"/><line style="stroke:#181818;stroke-width:1.0;" x1="137" x2="137" y1="1010.6172" y2="1048.7813"/><polygon fill="#181818" points="133,1038.7813,137,1048.7813,141,1038.7813,137,1042.7813" style="stroke:#181818;stroke-width:1.0;"/><line style="stroke:#181818;stroke-width:1.0;" x1="379.5" x2="379.5" y1="833.9844" y2="891.5938"/><polygon fill="#181818" points="375.5,881.5938,379.5,891.5938,383.5,881.5938,379.5,885.5938" style="stroke:#181818;stroke-width:1.0;"/><line style="stroke:#181818;stroke-width:1.0;" x1="379.5" x2="379.5" y1="996.7813" y2="1048.7813"/><polygon fill="#181818" points="375.5,1038.7813,379.5,1048.7813,383.5,1038.7813,379.5,1042.7813" style="stroke:#181818;stroke-width:1.0;"/><line style="stroke:#181818;stroke-width:1.0;" x1="633.5" x2="633.5" y1="833.9844" y2="891.5938"/><polygon fill="#181818" points="629.5,881.5938,633.5,891.5938,637.5,881.5938,633.5,885.5938" style="stroke:#181818;stroke-width:1.0;"/><line style="stroke:#181818;stroke-width:1.0;" x1="633.5" x2="633.5" y1="926.6875" y2="1048.7813"/><polygon fill="#181818" points="629.5,1038.7813,633.5,1048.7813,637.5,1038.7813,633.5,1042.7813" style="stroke:#181818;stroke-width:1.0;"/><line style="stroke:#181818;stroke-width:1.0;" x1="919.5" x2="919.5" y1="833.9844" y2="891.5938"/><polygon fill="#181818" points="915.5,881.5938,919.5,891.5938,923.5,881.5938,919.5,885.5938" style="stroke:#181818;stroke-width:1.0;"/><line style="stroke:#181818;stroke-width:1.0;" x1="919.5" x2="919.5" y1="926.6875" y2="1048.7813"/><polygon fill="#181818" points="915.5,1038.7813,919.5,1048.7813,923.5,1038.7813,919.5,1042.7813" style="stroke:#181818;stroke-width:1.0;"/><line style="stroke:#181818;stroke-width:1.0;" x1="190.5" x2="345" y1="821.9844" y2="821.9844"/><polygon fill="#181818" points="335,817.9844,345,821.9844,335,825.9844,339,821.9844" style="stroke:#181818;stroke-width:1.0;"/><line style="stroke:#181818;stroke-width:1.0;" x1="414" x2="565.5" y1="821.9844" y2="821.9844"/><polygon fill="#181818" points="555.5,817.9844,565.5,821.9844,555.5,825.9844,559.5,821.9844" style="stroke:#181818;stroke-width:1.0;"/><line style="stroke:#181818;stroke-width:1.0;" x1="701.5" x2="846.5" y1="821.9844" y2="821.9844"/><polygon fill="#181818" points="836.5,817.9844,846.5,821.9844,836.5,825.9844,840.5,821.9844" style="stroke:#181818;stroke-width:1.0;"/><line style="stroke:#181818;stroke-width:1.0;" x1="632" x2="632" y1="777.9844" y2="794.9844"/><line style="stroke:#181818;stroke-width:1.0;" x1="632" x2="137" y1="794.9844" y2="794.9844"/><line style="stroke:#181818;stroke-width:1.0;" x1="137" x2="137" y1="794.9844" y2="809.9844"/><polygon fill="#181818" points="133,799.9844,137,809.9844,141,799.9844,137,803.9844" style="stroke:#181818;stroke-width:1.0;"/><line style="stroke:#181818;stroke-width:1.0;" x1="992.5" x2="1170.5" y1="821.9844" y2="821.9844"/><line style="stroke:#181818;stroke-width:1.0;" x1="1170.5" x2="1170.5" y1="821.9844" y2="929.0117"/><polygon fill="#181818" points="1166.5,919.0117,1170.5,929.0117,1174.5,919.0117,1170.5,923.0117" style="stroke:#181818;stroke-width:1.0;"/><line style="stroke:#181818;stroke-width:1.0;" x1="1170.5" x2="1170.5" y1="979.1992" y2="1048.7813"/><polygon fill="#181818" points="1166.5,1038.7813,1170.5,1048.7813,1174.5,1038.7813,1170.5,1042.7813" style="stroke:#181818;stroke-width:1.0;"/><line style="stroke:#181818;stroke-width:1.0;" x1="137" x2="1170.5" y1="1048.7813" y2="1048.7813"/><line style="stroke:#181818;stroke-width:1.0;" x1="1393.5" x2="1393.5" y1="510" y2="602.6094"/><polygon fill="#181818" points="1389.5,592.6094,1393.5,602.6094,1397.5,592.6094,1393.5,596.6094" style="stroke:#181818;stroke-width:1.0;"/><line style="stroke:#181818;stroke-width:1.0;" x1="927.75" x2="632" y1="400.2031" y2="400.2031"/><line style="stroke:#181818;stroke-width:1.0;" x1="632" x2="632" y1="400.2031" y2="459.8125"/><polygon fill="#181818" points="628,449.8125,632,459.8125,636,449.8125,632,453.8125" style="stroke:#181818;stroke-width:1.0;"/><line style="stroke:#181818;stroke-width:1.0;" x1="1097.75" x2="1393.5" y1="400.2031" y2="400.2031"/><line style="stroke:#181818;stroke-width:1.0;" x1="1393.5" x2="1393.5" y1="400.2031" y2="459.8125"/><polygon fill="#181818" points="1389.5,449.8125,1393.5,459.8125,1397.5,449.8125,1393.5,453.8125" style="stroke:#181818;stroke-width:1.0;"/><line style="stroke:#181818;stroke-width:1.0;" x1="632" x2="632" y1="1048.7813" y2="1066.7813"/><line style="stroke:#181818;stroke-width:1.0;" x1="632" x2="1000.75" y1="1066.7813" y2="1066.7813"/><polygon fill="#181818" points="990.75,1062.7813,1000.75,1066.7813,990.75,1070.7813,994.75,1066.7813" style="stroke:#181818;stroke-width:1.0;"/><line style="stroke:#181818;stroke-width:1.0;" x1="1393.5" x2="1393.5" y1="652.7969" y2="1066.7813"/><line style="stroke:#181818;stroke-width:1.0;" x1="1393.5" x2="1024.75" y1="1066.7813" y2="1066.7813"/><polygon fill="#181818" points="1034.75,1062.7813,1024.75,1066.7813,1034.75,1070.7813,1030.75,1066.7813" style="stroke:#181818;stroke-width:1.0;"/><line style="stroke:#181818;stroke-width:1.0;" x1="1012.75" x2="1012.75" y1="356.2031" y2="388.2031"/><polygon fill="#181818" points="1008.75,378.2031,1012.75,388.2031,1016.75,378.2031,1012.75,382.2031" style="stroke:#181818;stroke-width:1.0;"/><line style="stroke:#181818;stroke-width:1.0;" x1="1012.75" x2="1012.75" y1="1078.7813" y2="1098.7813"/><polygon fill="#181818" points="1008.75,1088.7813,1012.75,1098.7813,1016.75,1088.7813,1012.75,1092.7813" style="stroke:#181818;stroke-width:1.0;"/><!--SRC=[dLHDRzim3BthLn0z9K26tfV3qAsNeIaMeBtiICUCpLfVaEG4mP3_FigE7GTfrtONow2eznuVAILEck1katZ7wG3tZ5L00rzWJRPgxKjhAtYKNsmYHLYXBLaYQwn8gPWm9AMyV3cnit0pENGBFr1Bx8dZ7c_WZmBu-aYcQ1k48hXzfB3iOmFudeh8YU0xcu8q_0e2kLJ72m91IsH6E4k13OAdODWcH0irQZIojacM4u5fCOqR-bI2bn8wTDx2R3K9Ga6XniWQIiudlyqXrMHXzXldWlU6c5uE6i-wkMAvshQuAp0ieARW8D8cuoqKswqBHgZb-04jsWNuu78_5YevKpWDzxWLqw4KZ9Mhs6PigU52rh-Rq2dHN8ibPpwF9RwksR3aWZI8GIHLa2X4AXb7ucpVtRXTiiy7HiyUD3SdqVCEyatxXb48M6U76XexvicM7GBQvIHrD3CNCKs2cAljKu_o9Hqfg-oqTAxzjnGzUFwwYCdsb7ZLkVrpTFiM7fnCQ_CX6ID3WHNBScxQrF1hqgU3w4-PYmf-mOom3hoJWv-Z7Ke_ypO3u2Kfp9wvn0RCP6QkgDwRJI5_feG-enIumO5UOS9MWhPDhHzUYWc_JEvMgOcCZr_LeS0AAnpkV4_NE4jvikL1aC8bhUwd_hEthNj_MftRzLuvHtKg9IRd_m80]--></g></svg>