<?xml version="1.0" encoding="us-ascii" standalone="no"?><svg xmlns="http://www.w3.org/2000/svg" xmlns:xlink="http://www.w3.org/1999/xlink" contentStyleType="text/css" height="4056px" preserveAspectRatio="none" style="width:550px;height:4056px;background:#FFFFFF;" version="1.1" viewBox="0 0 550 4056" width="550px" zoomAndPan="magnify"><defs/><g><text fill="#000000" font-family="sans-serif" font-size="14" font-weight="bold" lengthAdjust="spacing" textLength="378" x="84.5" y="34.5332">Activity Diagram - Calon Siswa Melakukan Pendaftaran</text><ellipse cx="159.5" cy="58.6094" fill="#222222" rx="10" ry="10" style="stroke:#222222;stroke-width:1.0;"/><rect fill="none" height="139.7969" style="stroke:#000000;stroke-width:1.5;" width="185" x="67" y="79.1855"/><path d="M242,79.1855 L242,89.7949 L232,99.7949 L67,99.7949 " fill="none" style="stroke:#000000;stroke-width:1.5;"/><text fill="#000000" font-family="sans-serif" font-size="14" lengthAdjust="spacing" textLength="165" x="70" y="94.7188">Pengunjung / Calon Siswa</text><rect fill="#F1F1F1" height="35.0938" rx="12.5" ry="12.5" style="stroke:#181818;stroke-width:0.5;" width="159" x="80" y="116.7949"/><text fill="#000000" font-family="sans-serif" font-size="12" lengthAdjust="spacing" textLength="139" x="90" y="139.252">Mengakses landing page</text><rect fill="#F1F1F1" height="35.0938" rx="12.5" ry="12.5" style="stroke:#181818;stroke-width:0.5;" width="117" x="101" y="171.8887"/><text fill="#000000" font-family="sans-serif" font-size="12" lengthAdjust="spacing" textLength="97" x="111" y="194.3457">Klik tombol Daftar</text><rect fill="none" height="154.8906" style="stroke:#000000;stroke-width:1.5;" width="235" x="42" y="228.9824"/><path d="M94,228.9824 L94,239.5918 L84,249.5918 L42,249.5918 " fill="none" style="stroke:#000000;stroke-width:1.5;"/><text fill="#000000" font-family="sans-serif" font-size="14" lengthAdjust="spacing" textLength="42" x="45" y="244.5156">Sistem</text><rect fill="#F1F1F1" height="35.0938" rx="12.5" ry="12.5" style="stroke:#181818;stroke-width:0.5;" width="215" x="52" y="266.5918"/><text fill="#000000" font-family="sans-serif" font-size="12" lengthAdjust="spacing" textLength="195" x="62" y="289.0488">Menampilkan halaman pendaftaran</text><rect fill="#F1F1F1" height="50.1875" rx="12.5" ry="12.5" style="stroke:#181818;stroke-width:0.5;" width="196" x="61.5" y="321.6855"/><text fill="#000000" font-family="sans-serif" font-size="12" lengthAdjust="spacing" textLength="171" x="71.5" y="344.1426">Menampilkan form pendaftaran</text><text fill="#000000" font-family="sans-serif" font-size="12" lengthAdjust="spacing" textLength="176" x="71.5" y="359.2363">beserta pilihan program / mapel</text><rect fill="none" height="360.1719" style="stroke:#000000;stroke-width:1.5;" width="232" x="43.5" y="393.873"/><path d="M218.5,393.873 L218.5,404.4824 L208.5,414.4824 L43.5,414.4824 " fill="none" style="stroke:#000000;stroke-width:1.5;"/><text fill="#000000" font-family="sans-serif" font-size="14" lengthAdjust="spacing" textLength="165" x="46.5" y="409.4063">Pengunjung / Calon Siswa</text><rect fill="#F1F1F1" height="35.0938" rx="12.5" ry="12.5" style="stroke:#181818;stroke-width:0.5;" width="131" x="94" y="431.4824"/><text fill="#000000" font-family="sans-serif" font-size="12" lengthAdjust="spacing" textLength="111" x="104" y="453.9395">Mengisi data pribadi</text><rect fill="#F1F1F1" height="35.0938" rx="12.5" ry="12.5" style="stroke:#181818;stroke-width:0.5;" width="147" x="86" y="486.5762"/><text fill="#000000" font-family="sans-serif" font-size="12" lengthAdjust="spacing" textLength="127" x="96" y="509.0332">Mengisi data akademik</text><rect fill="#F1F1F1" height="35.0938" rx="12.5" ry="12.5" style="stroke:#181818;stroke-width:0.5;" width="115" x="102" y="541.6699"/><text fill="#000000" font-family="sans-serif" font-size="12" lengthAdjust="spacing" textLength="95" x="112" y="564.127">Mengisi data wali</text><rect fill="#F1F1F1" height="35.0938" rx="12.5" ry="12.5" style="stroke:#181818;stroke-width:0.5;" width="157" x="81" y="596.7637"/><text fill="#000000" font-family="sans-serif" font-size="12" lengthAdjust="spacing" textLength="137" x="91" y="619.2207">Memilih program / mapel</text><rect fill="#F1F1F1" height="35.0938" rx="12.5" ry="12.5" style="stroke:#181818;stroke-width:0.5;" width="212" x="53.5" y="651.8574"/><text fill="#000000" font-family="sans-serif" font-size="12" lengthAdjust="spacing" textLength="192" x="63.5" y="674.3145">Mengisi catatan tambahan bila ada</text><rect fill="#F1F1F1" height="35.0938" rx="12.5" ry="12.5" style="stroke:#181818;stroke-width:0.5;" width="197" x="61" y="706.9512"/><text fill="#000000" font-family="sans-serif" font-size="12" lengthAdjust="spacing" textLength="177" x="71" y="729.4082">Klik tombol Simpan Pendaftaran</text><rect fill="none" height="84.7031" style="stroke:#000000;stroke-width:1.5;" width="236" x="41.5" y="764.0449"/><path d="M93.5,764.0449 L93.5,774.6543 L83.5,784.6543 L41.5,784.6543 " fill="none" style="stroke:#000000;stroke-width:1.5;"/><text fill="#000000" font-family="sans-serif" font-size="14" lengthAdjust="spacing" textLength="42" x="44.5" y="779.5781">Sistem</text><rect fill="#F1F1F1" height="35.0938" rx="12.5" ry="12.5" style="stroke:#181818;stroke-width:0.5;" width="216" x="51.5" y="801.6543"/><text fill="#000000" font-family="sans-serif" font-size="12" lengthAdjust="spacing" textLength="196" x="61.5" y="824.1113">Memeriksa permintaan pendaftaran</text><rect fill="none" height="84.7031" style="stroke:#000000;stroke-width:1.5;" width="297" x="11" y="915.667"/><path d="M63,915.667 L63,926.2764 L53,936.2764 L11,936.2764 " fill="none" style="stroke:#000000;stroke-width:1.5;"/><text fill="#000000" font-family="sans-serif" font-size="14" lengthAdjust="spacing" textLength="42" x="14" y="931.2002">Sistem</text><rect fill="#F1F1F1" height="35.0938" rx="12.5" ry="12.5" style="stroke:#181818;stroke-width:0.5;" width="277" x="21" y="953.2764"/><text fill="#000000" font-family="sans-serif" font-size="12" lengthAdjust="spacing" textLength="257" x="31" y="975.7334">Menampilkan pesan terlalu banyak permintaan</text><rect fill="none" height="99.7969" style="stroke:#000000;stroke-width:1.5;" width="185" x="67" y="1010.9463"/><path d="M242,1010.9463 L242,1021.5557 L232,1031.5557 L67,1031.5557 " fill="none" style="stroke:#000000;stroke-width:1.5;"/><text fill="#000000" font-family="sans-serif" font-size="14" lengthAdjust="spacing" textLength="165" x="70" y="1026.4795">Pengunjung / Calon Siswa</text><rect fill="#F1F1F1" height="50.1875" rx="12.5" ry="12.5" style="stroke:#181818;stroke-width:0.5;" width="161" x="79" y="1048.5557"/><text fill="#000000" font-family="sans-serif" font-size="12" lengthAdjust="spacing" textLength="141" x="89" y="1071.0127">Menunggu beberapa saat</text><text fill="#000000" font-family="sans-serif" font-size="12" lengthAdjust="spacing" textLength="127" x="89" y="1086.1064">sebelum mencoba lagi</text><ellipse cx="159.5" cy="1141.7432" fill="none" rx="11" ry="11" style="stroke:#222222;stroke-width:1.0;"/><ellipse cx="159.5" cy="1141.7432" fill="#222222" rx="6" ry="6" style="stroke:#222222;stroke-width:1.0;"/><polygon fill="#F1F1F1" points="93.5,868.748,225.5,868.748,237.5,880.748,225.5,892.748,93.5,892.748,81.5,880.748,93.5,868.748" style="stroke:#181818;stroke-width:0.5;"/><text fill="#000000" font-family="sans-serif" font-size="11" lengthAdjust="spacing" textLength="14" x="163.5" y="904.167">Ya</text><text fill="#000000" font-family="sans-serif" font-size="11" lengthAdjust="spacing" textLength="132" x="93.5" y="885.249">Terlalu banyak permintaan?</text><text fill="#000000" font-family="sans-serif" font-size="11" lengthAdjust="spacing" textLength="25" x="237.5" y="878.3311">Tidak</text><rect fill="none" height="84.7031" style="stroke:#000000;stroke-width:1.5;" width="205" x="57" y="1184.7432"/><path d="M109,1184.7432 L109,1195.3525 L99,1205.3525 L57,1205.3525 " fill="none" style="stroke:#000000;stroke-width:1.5;"/><text fill="#000000" font-family="sans-serif" font-size="14" lengthAdjust="spacing" textLength="42" x="60" y="1200.2764">Sistem</text><rect fill="#F1F1F1" height="35.0938" rx="12.5" ry="12.5" style="stroke:#181818;stroke-width:0.5;" width="185" x="67" y="1222.3525"/><text fill="#000000" font-family="sans-serif" font-size="12" lengthAdjust="spacing" textLength="165" x="77" y="1244.8096">Memvalidasi data pendaftaran</text><rect fill="none" height="162.4844" style="stroke:#000000;stroke-width:1.5;" width="258" x="30.5" y="1336.3652"/><path d="M82.5,1336.3652 L82.5,1346.9746 L72.5,1356.9746 L30.5,1356.9746 " fill="none" style="stroke:#000000;stroke-width:1.5;"/><text fill="#000000" font-family="sans-serif" font-size="14" lengthAdjust="spacing" textLength="42" x="33.5" y="1351.8984">Sistem</text><rect fill="#F1F1F1" height="50.1875" rx="12.5" ry="12.5" style="stroke:#181818;stroke-width:0.5;" width="152" x="83.5" y="1373.9746"/><text fill="#000000" font-family="sans-serif" font-size="12" lengthAdjust="spacing" textLength="112" x="93.5" y="1396.4316">Menampilkan pesan</text><text fill="#000000" font-family="sans-serif" font-size="12" lengthAdjust="spacing" textLength="132" x="93.5" y="1411.5254">"Semua field wajib diisi"</text><rect fill="#F1F1F1" height="35.0938" rx="12.5" ry="12.5" style="stroke:#181818;stroke-width:0.5;" width="238" x="40.5" y="1444.1621"/><text fill="#000000" font-family="sans-serif" font-size="12" lengthAdjust="spacing" textLength="218" x="50.5" y="1466.6191">Menampilkan kembali form pendaftaran</text><rect fill="none" height="84.7031" style="stroke:#000000;stroke-width:1.5;" width="203" x="58" y="1509.2559"/><path d="M233,1509.2559 L233,1519.8652 L223,1529.8652 L58,1529.8652 " fill="none" style="stroke:#000000;stroke-width:1.5;"/><text fill="#000000" font-family="sans-serif" font-size="14" lengthAdjust="spacing" textLength="165" x="61" y="1524.7891">Pengunjung / Calon Siswa</text><rect fill="#F1F1F1" height="35.0938" rx="12.5" ry="12.5" style="stroke:#181818;stroke-width:0.5;" width="183" x="68" y="1546.8652"/><text fill="#000000" font-family="sans-serif" font-size="12" lengthAdjust="spacing" textLength="163" x="78" y="1569.3223">Melengkapi data yang kosong</text><ellipse cx="159.5" cy="1624.959" fill="none" rx="11" ry="11" style="stroke:#222222;stroke-width:1.0;"/><ellipse cx="159.5" cy="1624.959" fill="#222222" rx="6" ry="6" style="stroke:#222222;stroke-width:1.0;"/><polygon fill="#F1F1F1" points="111,1289.4463,208,1289.4463,220,1301.4463,208,1313.4463,111,1313.4463,99,1301.4463,111,1289.4463" style="stroke:#181818;stroke-width:0.5;"/><text fill="#000000" font-family="sans-serif" font-size="11" lengthAdjust="spacing" textLength="25" x="163.5" y="1324.8652">Tidak</text><text fill="#000000" font-family="sans-serif" font-size="11" lengthAdjust="spacing" textLength="97" x="111" y="1305.9473">Data wajib lengkap?</text><text fill="#000000" font-family="sans-serif" font-size="11" lengthAdjust="spacing" textLength="14" x="220" y="1299.0293">Ya</text><rect fill="none" height="205.8125" style="stroke:#000000;stroke-width:1.5;" width="496" x="18" y="1724.8779"/><path d="M70,1724.8779 L70,1735.4873 L60,1745.4873 L18,1745.4873 " fill="none" style="stroke:#000000;stroke-width:1.5;"/><text fill="#000000" font-family="sans-serif" font-size="14" lengthAdjust="spacing" textLength="42" x="21" y="1740.4111">Sistem</text><path d="M311,1755.4873 L311,1805.542 L291,1809.542 L311,1813.542 L311,1863.5967 A0,0 0 0 0 311,1863.5967 L504,1863.5967 A0,0 0 0 0 504,1863.5967 L504,1765.4873 L494,1755.4873 L311,1755.4873 A0,0 0 0 0 311,1755.4873 " fill="#FEFFDD" style="stroke:#181818;stroke-width:0.5;"/><path d="M494,1755.4873 L494,1765.4873 L504,1765.4873 L494,1755.4873 " fill="#FEFFDD" style="stroke:#181818;stroke-width:0.5;"/><text fill="#000000" font-family="sans-serif" font-size="13" lengthAdjust="spacing" textLength="45" x="317" y="1773.9824">Contoh:</text><text fill="#000000" font-family="sans-serif" font-size="13" lengthAdjust="spacing" textLength="145" x="317" y="1790.334">- Format email tidak valid</text><text fill="#000000" font-family="sans-serif" font-size="13" lengthAdjust="spacing" textLength="172" x="317" y="1806.6855">- Format nomor HP tidak valid</text><text fill="#000000" font-family="sans-serif" font-size="13" lengthAdjust="spacing" textLength="130" x="317" y="1823.0371">- Nama terlalu panjang</text><text fill="#000000" font-family="sans-serif" font-size="13" lengthAdjust="spacing" textLength="137" x="317" y="1839.3887">- Alamat terlalu panjang</text><text fill="#000000" font-family="sans-serif" font-size="13" lengthAdjust="spacing" textLength="113" x="317" y="1855.7402">- Jenjang tidak valid</text><rect fill="#F1F1F1" height="35.0938" rx="12.5" ry="12.5" style="stroke:#181818;stroke-width:0.5;" width="263" x="28" y="1791.9951"/><text fill="#000000" font-family="sans-serif" font-size="12" lengthAdjust="spacing" textLength="243" x="38" y="1814.4521">Menampilkan pesan error sesuai kesalahan</text><rect fill="#F1F1F1" height="35.0938" rx="12.5" ry="12.5" style="stroke:#181818;stroke-width:0.5;" width="238" x="40.5" y="1883.5967"/><text fill="#000000" font-family="sans-serif" font-size="12" lengthAdjust="spacing" textLength="218" x="50.5" y="1906.0537">Menampilkan kembali form pendaftaran</text><rect fill="none" height="84.7031" style="stroke:#000000;stroke-width:1.5;" width="207" x="56" y="1940.6904"/><path d="M231,1940.6904 L231,1951.2998 L221,1961.2998 L56,1961.2998 " fill="none" style="stroke:#000000;stroke-width:1.5;"/><text fill="#000000" font-family="sans-serif" font-size="14" lengthAdjust="spacing" textLength="165" x="59" y="1956.2236">Pengunjung / Calon Siswa</text><rect fill="#F1F1F1" height="35.0938" rx="12.5" ry="12.5" style="stroke:#181818;stroke-width:0.5;" width="187" x="66" y="1978.2998"/><text fill="#000000" font-family="sans-serif" font-size="12" lengthAdjust="spacing" textLength="167" x="76" y="2000.7568">Memperbaiki data pendaftaran</text><ellipse cx="159.5" cy="2056.3936" fill="none" rx="11" ry="11" style="stroke:#222222;stroke-width:1.0;"/><ellipse cx="159.5" cy="2056.3936" fill="#222222" rx="6" ry="6" style="stroke:#222222;stroke-width:1.0;"/><polygon fill="#F1F1F1" points="84.5,1677.959,234.5,1677.959,246.5,1689.959,234.5,1701.959,84.5,1701.959,72.5,1689.959,84.5,1677.959" style="stroke:#181818;stroke-width:0.5;"/><text fill="#000000" font-family="sans-serif" font-size="11" lengthAdjust="spacing" textLength="25" x="163.5" y="1713.3779">Tidak</text><text fill="#000000" font-family="sans-serif" font-size="11" lengthAdjust="spacing" textLength="150" x="84.5" y="1694.46">Format dan panjang data valid?</text><text fill="#000000" font-family="sans-serif" font-size="11" lengthAdjust="spacing" textLength="14" x="246.5" y="1687.542">Ya</text><rect fill="none" height="162.4844" style="stroke:#000000;stroke-width:1.5;" width="287" x="16" y="2156.3125"/><path d="M68,2156.3125 L68,2166.9219 L58,2176.9219 L16,2176.9219 " fill="none" style="stroke:#000000;stroke-width:1.5;"/><text fill="#000000" font-family="sans-serif" font-size="14" lengthAdjust="spacing" textLength="42" x="19" y="2171.8457">Sistem</text><rect fill="#F1F1F1" height="50.1875" rx="12.5" ry="12.5" style="stroke:#181818;stroke-width:0.5;" width="267" x="26" y="2193.9219"/><text fill="#000000" font-family="sans-serif" font-size="12" lengthAdjust="spacing" textLength="247" x="36" y="2216.3789">Menampilkan pesan pilihan mapel tidak valid</text><text fill="#000000" font-family="sans-serif" font-size="12" lengthAdjust="spacing" textLength="148" x="36" y="2231.4727">atau belum memilih mapel</text><rect fill="#F1F1F1" height="35.0938" rx="12.5" ry="12.5" style="stroke:#181818;stroke-width:0.5;" width="238" x="40.5" y="2264.1094"/><text fill="#000000" font-family="sans-serif" font-size="12" lengthAdjust="spacing" textLength="218" x="50.5" y="2286.5664">Menampilkan kembali form pendaftaran</text><rect fill="none" height="84.7031" style="stroke:#000000;stroke-width:1.5;" width="211" x="54" y="2329.2031"/><path d="M229,2329.2031 L229,2339.8125 L219,2349.8125 L54,2349.8125 " fill="none" style="stroke:#000000;stroke-width:1.5;"/><text fill="#000000" font-family="sans-serif" font-size="14" lengthAdjust="spacing" textLength="165" x="57" y="2344.7363">Pengunjung / Calon Siswa</text><rect fill="#F1F1F1" height="35.0938" rx="12.5" ry="12.5" style="stroke:#181818;stroke-width:0.5;" width="191" x="64" y="2366.8125"/><text fill="#000000" font-family="sans-serif" font-size="12" lengthAdjust="spacing" textLength="171" x="74" y="2389.2695">Memilih ulang program / mapel</text><ellipse cx="159.5" cy="2444.9063" fill="none" rx="11" ry="11" style="stroke:#222222;stroke-width:1.0;"/><ellipse cx="159.5" cy="2444.9063" fill="#222222" rx="6" ry="6" style="stroke:#222222;stroke-width:1.0;"/><polygon fill="#F1F1F1" points="80.5,2109.3936,238.5,2109.3936,250.5,2121.3936,238.5,2133.3936,80.5,2133.3936,68.5,2121.3936,80.5,2109.3936" style="stroke:#181818;stroke-width:0.5;"/><text fill="#000000" font-family="sans-serif" font-size="11" lengthAdjust="spacing" textLength="25" x="163.5" y="2144.8125">Tidak</text><text fill="#000000" font-family="sans-serif" font-size="11" lengthAdjust="spacing" textLength="158" x="80.5" y="2125.8945">Program / mapel dipilih dan valid?</text><text fill="#000000" font-family="sans-serif" font-size="11" lengthAdjust="spacing" textLength="14" x="250.5" y="2118.9766">Ya</text><rect fill="none" height="84.7031" style="stroke:#000000;stroke-width:1.5;" width="218" x="50.5" y="2487.9063"/><path d="M102.5,2487.9063 L102.5,2498.5156 L92.5,2508.5156 L50.5,2508.5156 " fill="none" style="stroke:#000000;stroke-width:1.5;"/><text fill="#000000" font-family="sans-serif" font-size="14" lengthAdjust="spacing" textLength="42" x="53.5" y="2503.4395">Sistem</text><rect fill="#F1F1F1" height="35.0938" rx="12.5" ry="12.5" style="stroke:#181818;stroke-width:0.5;" width="198" x="60.5" y="2525.5156"/><text fill="#000000" font-family="sans-serif" font-size="12" lengthAdjust="spacing" textLength="178" x="70.5" y="2547.9727">Memeriksa email dan nomor HP</text><rect fill="none" height="240.1719" style="stroke:#000000;stroke-width:1.5;" width="258" x="30.5" y="2639.5283"/><path d="M82.5,2639.5283 L82.5,2650.1377 L72.5,2660.1377 L30.5,2660.1377 " fill="none" style="stroke:#000000;stroke-width:1.5;"/><text fill="#000000" font-family="sans-serif" font-size="14" lengthAdjust="spacing" textLength="42" x="33.5" y="2655.0615">Sistem</text><rect fill="#F1F1F1" height="65.2813" rx="12.5" ry="12.5" style="stroke:#181818;stroke-width:0.5;" width="206" x="56.5" y="2677.1377"/><text fill="#000000" font-family="sans-serif" font-size="12" lengthAdjust="spacing" textLength="186" x="66.5" y="2699.5947">Menampilkan pesan bahwa email</text><text fill="#000000" font-family="sans-serif" font-size="12" lengthAdjust="spacing" textLength="171" x="66.5" y="2714.6885">atau nomor HP sudah memiliki</text><text fill="#000000" font-family="sans-serif" font-size="12" lengthAdjust="spacing" textLength="91" x="66.5" y="2729.7822">pendaftaran aktif</text><rect fill="#F1F1F1" height="50.1875" rx="12.5" ry="12.5" style="stroke:#181818;stroke-width:0.5;" width="199" x="60" y="2762.4189"/><text fill="#000000" font-family="sans-serif" font-size="12" lengthAdjust="spacing" textLength="179" x="70" y="2784.876">Meminta calon siswa menunggu</text><text fill="#000000" font-family="sans-serif" font-size="12" lengthAdjust="spacing" textLength="86" x="70" y="2799.9697">verifikasi admin</text><rect fill="#F1F1F1" height="35.0938" rx="12.5" ry="12.5" style="stroke:#181818;stroke-width:0.5;" width="238" x="40.5" y="2832.6064"/><text fill="#000000" font-family="sans-serif" font-size="12" lengthAdjust="spacing" textLength="218" x="50.5" y="2855.0635">Menampilkan kembali form pendaftaran</text><ellipse cx="159.5" cy="2910.7002" fill="none" rx="11" ry="11" style="stroke:#222222;stroke-width:1.0;"/><ellipse cx="159.5" cy="2910.7002" fill="#222222" rx="6" ry="6" style="stroke:#222222;stroke-width:1.0;"/><polygon fill="#F1F1F1" points="41.5,2592.6094,277.5,2592.6094,289.5,2604.6094,277.5,2616.6094,41.5,2616.6094,29.5,2604.6094,41.5,2592.6094" style="stroke:#181818;stroke-width:0.5;"/><text fill="#000000" font-family="sans-serif" font-size="11" lengthAdjust="spacing" textLength="14" x="163.5" y="2628.0283">Ya</text><text fill="#000000" font-family="sans-serif" font-size="11" lengthAdjust="spacing" textLength="236" x="41.5" y="2609.1104">Email / nomor HP sudah punya pendaftaran aktif?</text><text fill="#000000" font-family="sans-serif" font-size="11" lengthAdjust="spacing" textLength="25" x="289.5" y="2602.1924">Tidak</text><rect fill="none" height="209.9844" style="stroke:#000000;stroke-width:1.5;" width="258" x="30.5" y="3010.6191"/><path d="M82.5,3010.6191 L82.5,3021.2285 L72.5,3031.2285 L30.5,3031.2285 " fill="none" style="stroke:#000000;stroke-width:1.5;"/><text fill="#000000" font-family="sans-serif" font-size="14" lengthAdjust="spacing" textLength="42" x="33.5" y="3026.1523">Sistem</text><rect fill="#F1F1F1" height="50.1875" rx="12.5" ry="12.5" style="stroke:#181818;stroke-width:0.5;" width="230" x="44.5" y="3048.2285"/><text fill="#000000" font-family="sans-serif" font-size="12" lengthAdjust="spacing" textLength="210" x="54.5" y="3070.6855">Menampilkan pesan harus menunggu</text><text fill="#000000" font-family="sans-serif" font-size="12" lengthAdjust="spacing" textLength="142" x="54.5" y="3085.7793">sebelum mendaftar ulang</text><rect fill="#F1F1F1" height="35.0938" rx="12.5" ry="12.5" style="stroke:#181818;stroke-width:0.5;" width="197" x="61" y="3118.416"/><text fill="#000000" font-family="sans-serif" font-size="12" lengthAdjust="spacing" textLength="177" x="71" y="3140.873">Menampilkan sisa waktu tunggu</text><rect fill="#F1F1F1" height="35.0938" rx="12.5" ry="12.5" style="stroke:#181818;stroke-width:0.5;" width="238" x="40.5" y="3173.5098"/><text fill="#000000" font-family="sans-serif" font-size="12" lengthAdjust="spacing" textLength="218" x="50.5" y="3195.9668">Menampilkan kembali form pendaftaran</text><ellipse cx="159.5" cy="3251.6035" fill="none" rx="11" ry="11" style="stroke:#222222;stroke-width:1.0;"/><ellipse cx="159.5" cy="3251.6035" fill="#222222" rx="6" ry="6" style="stroke:#222222;stroke-width:1.0;"/><polygon fill="#F1F1F1" points="68,2963.7002,251,2963.7002,263,2975.7002,251,2987.7002,68,2987.7002,56,2975.7002,68,2963.7002" style="stroke:#181818;stroke-width:0.5;"/><text fill="#000000" font-family="sans-serif" font-size="11" lengthAdjust="spacing" textLength="14" x="163.5" y="2999.1191">Ya</text><text fill="#000000" font-family="sans-serif" font-size="11" lengthAdjust="spacing" textLength="183" x="68" y="2980.2012">Pernah mendaftar kurang dari 24 jam?</text><text fill="#000000" font-family="sans-serif" font-size="11" lengthAdjust="spacing" textLength="25" x="263" y="2973.2832">Tidak</text><rect fill="none" height="163.2422" style="stroke:#000000;stroke-width:1.5;" width="265" x="27" y="3351.5225"/><path d="M79,3351.5225 L79,3362.1318 L69,3372.1318 L27,3372.1318 " fill="none" style="stroke:#000000;stroke-width:1.5;"/><text fill="#000000" font-family="sans-serif" font-size="14" lengthAdjust="spacing" textLength="42" x="30" y="3367.0557">Sistem</text><rect fill="#F1F1F1" height="50.1875" rx="12.5" ry="12.5" style="stroke:#181818;stroke-width:0.5;" width="245" x="37" y="3389.1318"/><text fill="#000000" font-family="sans-serif" font-size="12" lengthAdjust="spacing" textLength="225" x="47" y="3411.5889">Menampilkan pesan data sudah terdaftar</text><text fill="#000000" font-family="sans-serif" font-size="12" lengthAdjust="spacing" textLength="165" x="47" y="3426.6826">atau meminta pengguna login</text><rect fill="#F1F1F1" height="35.0938" rx="12.5" ry="12.5" style="stroke:#181818;stroke-width:0.5;" width="238" x="40.5" y="3467.6709"/><text fill="#000000" font-family="sans-serif" font-size="12" lengthAdjust="spacing" textLength="218" x="50.5" y="3490.1279">Menampilkan kembali form pendaftaran</text><ellipse cx="159.5" cy="3545.7646" fill="none" rx="11" ry="11" style="stroke:#222222;stroke-width:1.0;"/><ellipse cx="159.5" cy="3545.7646" fill="#222222" rx="6" ry="6" style="stroke:#222222;stroke-width:1.0;"/><polygon fill="#F1F1F1" points="33,3304.6035,286,3304.6035,298,3316.6035,286,3328.6035,33,3328.6035,21,3316.6035,33,3304.6035" style="stroke:#181818;stroke-width:0.5;"/><text fill="#000000" font-family="sans-serif" font-size="11" lengthAdjust="spacing" textLength="14" x="163.5" y="3340.0225">Ya</text><text fill="#000000" font-family="sans-serif" font-size="11" lengthAdjust="spacing" textLength="253" x="33" y="3321.1045">Email / nomor HP sudah terdaftar sebagai akun aktif?</text><text fill="#000000" font-family="sans-serif" font-size="11" lengthAdjust="spacing" textLength="25" x="298" y="3314.1865">Tidak</text><rect fill="none" height="320.1719" style="stroke:#000000;stroke-width:1.5;" width="290" x="14.5" y="3588.7646"/><path d="M66.5,3588.7646 L66.5,3599.374 L56.5,3609.374 L14.5,3609.374 " fill="none" style="stroke:#000000;stroke-width:1.5;"/><text fill="#000000" font-family="sans-serif" font-size="14" lengthAdjust="spacing" textLength="42" x="17.5" y="3604.2979">Sistem</text><rect fill="#F1F1F1" height="35.0938" rx="12.5" ry="12.5" style="stroke:#181818;stroke-width:0.5;" width="179" x="70" y="3626.374"/><text fill="#000000" font-family="sans-serif" font-size="12" lengthAdjust="spacing" textLength="159" x="80" y="3648.8311">Menyimpan data pendaftaran</text><rect fill="#F1F1F1" height="35.0938" rx="12.5" ry="12.5" style="stroke:#181818;stroke-width:0.5;" width="217" x="51" y="3681.4678"/><text fill="#000000" font-family="sans-serif" font-size="12" lengthAdjust="spacing" textLength="197" x="61" y="3703.9248">Menyimpan pilihan program / mapel</text><rect fill="#F1F1F1" height="35.0938" rx="12.5" ry="12.5" style="stroke:#181818;stroke-width:0.5;" width="222" x="48.5" y="3736.5615"/><text fill="#000000" font-family="sans-serif" font-size="12" lengthAdjust="spacing" textLength="202" x="58.5" y="3759.0186">Memberi status pendaftaran pending</text><rect fill="#F1F1F1" height="35.0938" rx="12.5" ry="12.5" style="stroke:#181818;stroke-width:0.5;" width="249" x="35" y="3791.6553"/><text fill="#000000" font-family="sans-serif" font-size="12" lengthAdjust="spacing" textLength="229" x="45" y="3814.1123">Menampilkan pesan pendaftaran berhasil</text><rect fill="#F1F1F1" height="50.1875" rx="12.5" ry="12.5" style="stroke:#181818;stroke-width:0.5;" width="270" x="24.5" y="3846.749"/><text fill="#000000" font-family="sans-serif" font-size="12" lengthAdjust="spacing" textLength="211" x="34.5" y="3869.2061">Memberi informasi bahwa admin akan</text><text fill="#000000" font-family="sans-serif" font-size="12" lengthAdjust="spacing" textLength="250" x="34.5" y="3884.2998">memverifikasi dan menghubungi calon siswa</text><rect fill="none" height="84.7031" style="stroke:#000000;stroke-width:1.5;" width="234" x="42.5" y="3918.9365"/><path d="M217.5,3918.9365 L217.5,3929.5459 L207.5,3939.5459 L42.5,3939.5459 " fill="none" style="stroke:#000000;stroke-width:1.5;"/><text fill="#000000" font-family="sans-serif" font-size="14" lengthAdjust="spacing" textLength="165" x="45.5" y="3934.4697">Pengunjung / Calon Siswa</text><rect fill="#F1F1F1" height="35.0938" rx="12.5" ry="12.5" style="stroke:#181818;stroke-width:0.5;" width="214" x="52.5" y="3956.5459"/><text fill="#000000" font-family="sans-serif" font-size="12" lengthAdjust="spacing" textLength="194" x="62.5" y="3979.0029">Melihat pesan pendaftaran berhasil</text><ellipse cx="159.5" cy="4034.6396" fill="none" rx="11" ry="11" style="stroke:#222222;stroke-width:1.0;"/><ellipse cx="159.5" cy="4034.6396" fill="#222222" rx="6" ry="6" style="stroke:#222222;stroke-width:1.0;"/><line style="stroke:#181818;stroke-width:1.0;" x1="159.5" x2="159.5" y1="151.8887" y2="171.8887"/><polygon fill="#181818" points="155.5,161.8887,159.5,171.8887,163.5,161.8887,159.5,165.8887" style="stroke:#181818;stroke-width:1.0;"/><line style="stroke:#181818;stroke-width:1.0;" x1="159.5" x2="159.5" y1="68.6094" y2="116.7949"/><polygon fill="#181818" points="155.5,106.7949,159.5,116.7949,163.5,106.7949,159.5,110.7949" style="stroke:#181818;stroke-width:1.0;"/><line style="stroke:#181818;stroke-width:1.0;" x1="159.5" x2="159.5" y1="301.6855" y2="321.6855"/><polygon fill="#181818" points="155.5,311.6855,159.5,321.6855,163.5,311.6855,159.5,315.6855" style="stroke:#181818;stroke-width:1.0;"/><line style="stroke:#181818;stroke-width:1.0;" x1="159.5" x2="159.5" y1="206.9824" y2="266.5918"/><polygon fill="#181818" points="155.5,256.5918,159.5,266.5918,163.5,256.5918,159.5,260.5918" style="stroke:#181818;stroke-width:1.0;"/><line style="stroke:#181818;stroke-width:1.0;" x1="159.5" x2="159.5" y1="466.5762" y2="486.5762"/><polygon fill="#181818" points="155.5,476.5762,159.5,486.5762,163.5,476.5762,159.5,480.5762" style="stroke:#181818;stroke-width:1.0;"/><line style="stroke:#181818;stroke-width:1.0;" x1="159.5" x2="159.5" y1="521.6699" y2="541.6699"/><polygon fill="#181818" points="155.5,531.6699,159.5,541.6699,163.5,531.6699,159.5,535.6699" style="stroke:#181818;stroke-width:1.0;"/><line style="stroke:#181818;stroke-width:1.0;" x1="159.5" x2="159.5" y1="576.7637" y2="596.7637"/><polygon fill="#181818" points="155.5,586.7637,159.5,596.7637,163.5,586.7637,159.5,590.7637" style="stroke:#181818;stroke-width:1.0;"/><line style="stroke:#181818;stroke-width:1.0;" x1="159.5" x2="159.5" y1="631.8574" y2="651.8574"/><polygon fill="#181818" points="155.5,641.8574,159.5,651.8574,163.5,641.8574,159.5,645.8574" style="stroke:#181818;stroke-width:1.0;"/><line style="stroke:#181818;stroke-width:1.0;" x1="159.5" x2="159.5" y1="686.9512" y2="706.9512"/><polygon fill="#181818" points="155.5,696.9512,159.5,706.9512,163.5,696.9512,159.5,700.9512" style="stroke:#181818;stroke-width:1.0;"/><line style="stroke:#181818;stroke-width:1.0;" x1="159.5" x2="159.5" y1="371.873" y2="431.4824"/><polygon fill="#181818" points="155.5,421.4824,159.5,431.4824,163.5,421.4824,159.5,425.4824" style="stroke:#181818;stroke-width:1.0;"/><line style="stroke:#181818;stroke-width:1.0;" x1="159.5" x2="159.5" y1="742.0449" y2="801.6543"/><polygon fill="#181818" points="155.5,791.6543,159.5,801.6543,163.5,791.6543,159.5,795.6543" style="stroke:#181818;stroke-width:1.0;"/><line style="stroke:#181818;stroke-width:1.0;" x1="159.5" x2="159.5" y1="988.3701" y2="1048.5557"/><polygon fill="#181818" points="155.5,1038.5557,159.5,1048.5557,163.5,1038.5557,159.5,1042.5557" style="stroke:#181818;stroke-width:1.0;"/><line style="stroke:#181818;stroke-width:1.0;" x1="159.5" x2="159.5" y1="1098.7432" y2="1130.7432"/><polygon fill="#181818" points="155.5,1120.7432,159.5,1130.7432,163.5,1120.7432,159.5,1124.7432" style="stroke:#181818;stroke-width:1.0;"/><line style="stroke:#181818;stroke-width:1.0;" x1="159.5" x2="159.5" y1="892.748" y2="953.2764"/><polygon fill="#181818" points="155.5,943.2764,159.5,953.2764,163.5,943.2764,159.5,947.2764" style="stroke:#181818;stroke-width:1.0;"/><line style="stroke:#181818;stroke-width:1.0;" x1="237.5" x2="318" y1="880.748" y2="880.748"/><polygon fill="#181818" points="314,1016.4932,318,1026.4932,322,1016.4932,318,1020.4932" style="stroke:#181818;stroke-width:1.0;"/><line style="stroke:#181818;stroke-width:1.0;" x1="318" x2="318" y1="880.748" y2="1174.7432"/><line style="stroke:#181818;stroke-width:1.0;" x1="318" x2="159.5" y1="1174.7432" y2="1174.7432"/><line style="stroke:#181818;stroke-width:1.0;" x1="159.5" x2="159.5" y1="1174.7432" y2="1222.3525"/><polygon fill="#181818" points="155.5,1212.3525,159.5,1222.3525,163.5,1212.3525,159.5,1216.3525" style="stroke:#181818;stroke-width:1.0;"/><line style="stroke:#181818;stroke-width:1.0;" x1="159.5" x2="159.5" y1="836.748" y2="868.748"/><polygon fill="#181818" points="155.5,858.748,159.5,868.748,163.5,858.748,159.5,862.748" style="stroke:#181818;stroke-width:1.0;"/><line style="stroke:#181818;stroke-width:1.0;" x1="159.5" x2="159.5" y1="1424.1621" y2="1444.1621"/><polygon fill="#181818" points="155.5,1434.1621,159.5,1444.1621,163.5,1434.1621,159.5,1438.1621" style="stroke:#181818;stroke-width:1.0;"/><line style="stroke:#181818;stroke-width:1.0;" x1="159.5" x2="159.5" y1="1479.2559" y2="1546.8652"/><polygon fill="#181818" points="155.5,1536.8652,159.5,1546.8652,163.5,1536.8652,159.5,1540.8652" style="stroke:#181818;stroke-width:1.0;"/><line style="stroke:#181818;stroke-width:1.0;" x1="159.5" x2="159.5" y1="1581.959" y2="1613.959"/><polygon fill="#181818" points="155.5,1603.959,159.5,1613.959,163.5,1603.959,159.5,1607.959" style="stroke:#181818;stroke-width:1.0;"/><line style="stroke:#181818;stroke-width:1.0;" x1="159.5" x2="159.5" y1="1313.4463" y2="1373.9746"/><polygon fill="#181818" points="155.5,1363.9746,159.5,1373.9746,163.5,1363.9746,159.5,1367.9746" style="stroke:#181818;stroke-width:1.0;"/><line style="stroke:#181818;stroke-width:1.0;" x1="220" x2="298.5" y1="1301.4463" y2="1301.4463"/><polygon fill="#181818" points="294.5,1489.2559,298.5,1499.2559,302.5,1489.2559,298.5,1493.2559" style="stroke:#181818;stroke-width:1.0;"/><line style="stroke:#181818;stroke-width:1.0;" x1="298.5" x2="298.5" y1="1301.4463" y2="1657.959"/><line style="stroke:#181818;stroke-width:1.0;" x1="298.5" x2="159.5" y1="1657.959" y2="1657.959"/><line style="stroke:#181818;stroke-width:1.0;" x1="159.5" x2="159.5" y1="1657.959" y2="1677.959"/><polygon fill="#181818" points="155.5,1667.959,159.5,1677.959,163.5,1667.959,159.5,1671.959" style="stroke:#181818;stroke-width:1.0;"/><line style="stroke:#181818;stroke-width:1.0;" x1="159.5" x2="159.5" y1="1257.4463" y2="1289.4463"/><polygon fill="#181818" points="155.5,1279.4463,159.5,1289.4463,163.5,1279.4463,159.5,1283.4463" style="stroke:#181818;stroke-width:1.0;"/><line style="stroke:#181818;stroke-width:1.0;" x1="159.5" x2="159.5" y1="1827.0889" y2="1883.5967"/><polygon fill="#181818" points="155.5,1873.5967,159.5,1883.5967,163.5,1873.5967,159.5,1877.5967" style="stroke:#181818;stroke-width:1.0;"/><line style="stroke:#181818;stroke-width:1.0;" x1="159.5" x2="159.5" y1="1918.6904" y2="1978.2998"/><polygon fill="#181818" points="155.5,1968.2998,159.5,1978.2998,163.5,1968.2998,159.5,1972.2998" style="stroke:#181818;stroke-width:1.0;"/><line style="stroke:#181818;stroke-width:1.0;" x1="159.5" x2="159.5" y1="2013.3936" y2="2045.3936"/><polygon fill="#181818" points="155.5,2035.3936,159.5,2045.3936,163.5,2035.3936,159.5,2039.3936" style="stroke:#181818;stroke-width:1.0;"/><line style="stroke:#181818;stroke-width:1.0;" x1="159.5" x2="159.5" y1="1701.959" y2="1791.9951"/><polygon fill="#181818" points="155.5,1781.9951,159.5,1791.9951,163.5,1781.9951,159.5,1785.9951" style="stroke:#181818;stroke-width:1.0;"/><line style="stroke:#181818;stroke-width:1.0;" x1="246.5" x2="524" y1="1689.959" y2="1689.959"/><polygon fill="#181818" points="520,1900.1357,524,1910.1357,528,1900.1357,524,1904.1357" style="stroke:#181818;stroke-width:1.0;"/><line style="stroke:#181818;stroke-width:1.0;" x1="524" x2="524" y1="1689.959" y2="2089.3936"/><line style="stroke:#181818;stroke-width:1.0;" x1="524" x2="159.5" y1="2089.3936" y2="2089.3936"/><line style="stroke:#181818;stroke-width:1.0;" x1="159.5" x2="159.5" y1="2089.3936" y2="2109.3936"/><polygon fill="#181818" points="155.5,2099.3936,159.5,2109.3936,163.5,2099.3936,159.5,2103.3936" style="stroke:#181818;stroke-width:1.0;"/><line style="stroke:#181818;stroke-width:1.0;" x1="159.5" x2="159.5" y1="2244.1094" y2="2264.1094"/><polygon fill="#181818" points="155.5,2254.1094,159.5,2264.1094,163.5,2254.1094,159.5,2258.1094" style="stroke:#181818;stroke-width:1.0;"/><line style="stroke:#181818;stroke-width:1.0;" x1="159.5" x2="159.5" y1="2299.2031" y2="2366.8125"/><polygon fill="#181818" points="155.5,2356.8125,159.5,2366.8125,163.5,2356.8125,159.5,2360.8125" style="stroke:#181818;stroke-width:1.0;"/><line style="stroke:#181818;stroke-width:1.0;" x1="159.5" x2="159.5" y1="2401.9063" y2="2433.9063"/><polygon fill="#181818" points="155.5,2423.9063,159.5,2433.9063,163.5,2423.9063,159.5,2427.9063" style="stroke:#181818;stroke-width:1.0;"/><line style="stroke:#181818;stroke-width:1.0;" x1="159.5" x2="159.5" y1="2133.3936" y2="2193.9219"/><polygon fill="#181818" points="155.5,2183.9219,159.5,2193.9219,163.5,2183.9219,159.5,2187.9219" style="stroke:#181818;stroke-width:1.0;"/><line style="stroke:#181818;stroke-width:1.0;" x1="250.5" x2="313" y1="2121.3936" y2="2121.3936"/><polygon fill="#181818" points="309,2309.2031,313,2319.2031,317,2309.2031,313,2313.2031" style="stroke:#181818;stroke-width:1.0;"/><line style="stroke:#181818;stroke-width:1.0;" x1="313" x2="313" y1="2121.3936" y2="2477.9063"/><line style="stroke:#181818;stroke-width:1.0;" x1="313" x2="159.5" y1="2477.9063" y2="2477.9063"/><line style="stroke:#181818;stroke-width:1.0;" x1="159.5" x2="159.5" y1="2477.9063" y2="2525.5156"/><polygon fill="#181818" points="155.5,2515.5156,159.5,2525.5156,163.5,2515.5156,159.5,2519.5156" style="stroke:#181818;stroke-width:1.0;"/><line style="stroke:#181818;stroke-width:1.0;" x1="159.5" x2="159.5" y1="2742.4189" y2="2762.4189"/><polygon fill="#181818" points="155.5,2752.4189,159.5,2762.4189,163.5,2752.4189,159.5,2756.4189" style="stroke:#181818;stroke-width:1.0;"/><line style="stroke:#181818;stroke-width:1.0;" x1="159.5" x2="159.5" y1="2812.6064" y2="2832.6064"/><polygon fill="#181818" points="155.5,2822.6064,159.5,2832.6064,163.5,2822.6064,159.5,2826.6064" style="stroke:#181818;stroke-width:1.0;"/><line style="stroke:#181818;stroke-width:1.0;" x1="159.5" x2="159.5" y1="2867.7002" y2="2899.7002"/><polygon fill="#181818" points="155.5,2889.7002,159.5,2899.7002,163.5,2889.7002,159.5,2893.7002" style="stroke:#181818;stroke-width:1.0;"/><line style="stroke:#181818;stroke-width:1.0;" x1="159.5" x2="159.5" y1="2616.6094" y2="2677.1377"/><polygon fill="#181818" points="155.5,2667.1377,159.5,2677.1377,163.5,2667.1377,159.5,2671.1377" style="stroke:#181818;stroke-width:1.0;"/><line style="stroke:#181818;stroke-width:1.0;" x1="289.5" x2="301.5" y1="2604.6094" y2="2604.6094"/><polygon fill="#181818" points="297.5,2779.1143,301.5,2789.1143,305.5,2779.1143,301.5,2783.1143" style="stroke:#181818;stroke-width:1.0;"/><line style="stroke:#181818;stroke-width:1.0;" x1="301.5" x2="301.5" y1="2604.6094" y2="2943.7002"/><line style="stroke:#181818;stroke-width:1.0;" x1="301.5" x2="159.5" y1="2943.7002" y2="2943.7002"/><line style="stroke:#181818;stroke-width:1.0;" x1="159.5" x2="159.5" y1="2943.7002" y2="2963.7002"/><polygon fill="#181818" points="155.5,2953.7002,159.5,2963.7002,163.5,2953.7002,159.5,2957.7002" style="stroke:#181818;stroke-width:1.0;"/><line style="stroke:#181818;stroke-width:1.0;" x1="159.5" x2="159.5" y1="2560.6094" y2="2592.6094"/><polygon fill="#181818" points="155.5,2582.6094,159.5,2592.6094,163.5,2582.6094,159.5,2586.6094" style="stroke:#181818;stroke-width:1.0;"/><line style="stroke:#181818;stroke-width:1.0;" x1="159.5" x2="159.5" y1="3098.416" y2="3118.416"/><polygon fill="#181818" points="155.5,3108.416,159.5,3118.416,163.5,3108.416,159.5,3112.416" style="stroke:#181818;stroke-width:1.0;"/><line style="stroke:#181818;stroke-width:1.0;" x1="159.5" x2="159.5" y1="3153.5098" y2="3173.5098"/><polygon fill="#181818" points="155.5,3163.5098,159.5,3173.5098,163.5,3163.5098,159.5,3167.5098" style="stroke:#181818;stroke-width:1.0;"/><line style="stroke:#181818;stroke-width:1.0;" x1="159.5" x2="159.5" y1="3208.6035" y2="3240.6035"/><polygon fill="#181818" points="155.5,3230.6035,159.5,3240.6035,163.5,3230.6035,159.5,3234.6035" style="stroke:#181818;stroke-width:1.0;"/><line style="stroke:#181818;stroke-width:1.0;" x1="159.5" x2="159.5" y1="2987.7002" y2="3048.2285"/><polygon fill="#181818" points="155.5,3038.2285,159.5,3048.2285,163.5,3038.2285,159.5,3042.2285" style="stroke:#181818;stroke-width:1.0;"/><line style="stroke:#181818;stroke-width:1.0;" x1="263" x2="298.5" y1="2975.7002" y2="2975.7002"/><polygon fill="#181818" points="294.5,3135.1113,298.5,3145.1113,302.5,3135.1113,298.5,3139.1113" style="stroke:#181818;stroke-width:1.0;"/><line style="stroke:#181818;stroke-width:1.0;" x1="298.5" x2="298.5" y1="2975.7002" y2="3284.6035"/><line style="stroke:#181818;stroke-width:1.0;" x1="298.5" x2="159.5" y1="3284.6035" y2="3284.6035"/><line style="stroke:#181818;stroke-width:1.0;" x1="159.5" x2="159.5" y1="3284.6035" y2="3304.6035"/><polygon fill="#181818" points="155.5,3294.6035,159.5,3304.6035,163.5,3294.6035,159.5,3298.6035" style="stroke:#181818;stroke-width:1.0;"/><line style="stroke:#181818;stroke-width:1.0;" x1="159.5" x2="159.5" y1="3439.3193" y2="3467.6709"/><polygon fill="#181818" points="155.5,3457.6709,159.5,3467.6709,163.5,3457.6709,159.5,3461.6709" style="stroke:#181818;stroke-width:1.0;"/><line style="stroke:#181818;stroke-width:1.0;" x1="159.5" x2="159.5" y1="3502.7646" y2="3534.7646"/><polygon fill="#181818" points="155.5,3524.7646,159.5,3534.7646,163.5,3524.7646,159.5,3528.7646" style="stroke:#181818;stroke-width:1.0;"/><line style="stroke:#181818;stroke-width:1.0;" x1="159.5" x2="159.5" y1="3328.6035" y2="3389.1318"/><polygon fill="#181818" points="155.5,3379.1318,159.5,3389.1318,163.5,3379.1318,159.5,3383.1318" style="stroke:#181818;stroke-width:1.0;"/><line style="stroke:#181818;stroke-width:1.0;" x1="298" x2="310" y1="3316.6035" y2="3316.6035"/><polygon fill="#181818" points="306,3449.3193,310,3459.3193,314,3449.3193,310,3453.3193" style="stroke:#181818;stroke-width:1.0;"/><line style="stroke:#181818;stroke-width:1.0;" x1="310" x2="310" y1="3316.6035" y2="3578.7646"/><line style="stroke:#181818;stroke-width:1.0;" x1="310" x2="159.5" y1="3578.7646" y2="3578.7646"/><line style="stroke:#181818;stroke-width:1.0;" x1="159.5" x2="159.5" y1="3578.7646" y2="3626.374"/><polygon fill="#181818" points="155.5,3616.374,159.5,3626.374,163.5,3616.374,159.5,3620.374" style="stroke:#181818;stroke-width:1.0;"/><line style="stroke:#181818;stroke-width:1.0;" x1="159.5" x2="159.5" y1="3661.4678" y2="3681.4678"/><polygon fill="#181818" points="155.5,3671.4678,159.5,3681.4678,163.5,3671.4678,159.5,3675.4678" style="stroke:#181818;stroke-width:1.0;"/><line style="stroke:#181818;stroke-width:1.0;" x1="159.5" x2="159.5" y1="3716.5615" y2="3736.5615"/><polygon fill="#181818" points="155.5,3726.5615,159.5,3736.5615,163.5,3726.5615,159.5,3730.5615" style="stroke:#181818;stroke-width:1.0;"/><line style="stroke:#181818;stroke-width:1.0;" x1="159.5" x2="159.5" y1="3771.6553" y2="3791.6553"/><polygon fill="#181818" points="155.5,3781.6553,159.5,3791.6553,163.5,3781.6553,159.5,3785.6553" style="stroke:#181818;stroke-width:1.0;"/><line style="stroke:#181818;stroke-width:1.0;" x1="159.5" x2="159.5" y1="3826.749" y2="3846.749"/><polygon fill="#181818" points="155.5,3836.749,159.5,3846.749,163.5,3836.749,159.5,3840.749" style="stroke:#181818;stroke-width:1.0;"/><line style="stroke:#181818;stroke-width:1.0;" x1="159.5" x2="159.5" y1="3896.9365" y2="3956.5459"/><polygon fill="#181818" points="155.5,3946.5459,159.5,3956.5459,163.5,3946.5459,159.5,3950.5459" style="stroke:#181818;stroke-width:1.0;"/><line style="stroke:#181818;stroke-width:1.0;" x1="159.5" x2="159.5" y1="3991.6396" y2="4023.6396"/><polygon fill="#181818" points="155.5,4013.6396,159.5,4023.6396,163.5,4013.6396,159.5,4017.6396" style="stroke:#181818;stroke-width:1.0;"/><!--SRC=[jLPBJzj04BxxLunoWWD2gdeYXmf1gweL5HAzz3Z66tkoBsjt3Oeg_djdTnrY9que42vvQ6RdySsttqwWe0HStWTweB22QyBQeOOpk49b3ToHVqIu4Gfb9z70hJ0LBW8wD4NX-JiKHSkV58YzPsokExFiJ0tdmmWp-5i0NDom6QKN7XIQYjYhnLhCe-cd8Wd1wj8gk4uPviNJA3O72a9l8g5kISMQ6bIe-RlTr3RVzbbOfuSEHIcyS061xTJ4mywcniz1OolKTlB_Q8myGOKnfACIAvhl651Y9JJ9NSiZghM_ZWNjbZCuSSyd0fSSK9SOQoz9SV0ATu2y8zsEX_O2g5euafvR44wJ2RYDAX-c1Ppy5awXwg14iq8vyFvo2g4H1ax-u2b7t9DeQpQjyB6RVJ5ZLq_ZO8UdaSEpiUPeeXGEMmIF60hF_rIdGGjpRqja5jQq3k-3RGkXlE3sg49vMd3Zj3Y8rWEFhSBdkKyWTPsdkwGI51SjiHr1DChtAhoAsPtG7SA2XAhw31KnFMRptHDIC5CKxTo2jq7RDz9tlK9sbTPRKu-XpEX54BvnMWpiphMZMSO3wMY2xqXuW73EEc1jwP2uOS-YqEGE0OmD0XpLJKX_hwm9jhb8ly-Whqve90KXfiw5ZSt6QWx__NR2unUhppDz-mPxqsLKfh37-4DaBBOZCdAfue-Ue-OxLYB9AVfE3_9sh4fCk2IVQR977UPQbNEQ8K1SQRpL-HPdhNnMo8z5A-NgL9pOX3flm_MoncR2HUZMt7fMZQ_9TBuXdUygv4UXOsaSTi8lIg35EqINtu_7lfACx5R63B6aOYVfV8CBgpI_IH4pdxO5tOjlyS2TBaX6WSIA_TumexsgdEWed4b5ziT0TYwBYoFuz1cMgD-1JOEkyvjc1cz7dornOQ8dHY5glWmTX7Jss7tleGUhJ5yPrueroo0lRU_dI1A7hGoPBBeVFjVFNHf-Jsrzt2aVMFzMURUPagw1UUzwbxdBom5nTWmywI75us_AmvrIfu4dHsYOuEE8P6AdaVVvWYNsn_NF58pPu5h4sy-4gfkkPARGy1gzUWEDZOQ35Jx5bTss_m00]--></g></svg>