<?xml version="1.0" encoding="us-ascii" standalone="no"?><svg xmlns="http://www.w3.org/2000/svg" xmlns:xlink="http://www.w3.org/1999/xlink" contentStyleType="text/css" height="2994px" preserveAspectRatio="none" style="width:1829px;height:2994px;background:#FFFFFF;" version="1.1" viewBox="0 0 1829 2994" width="1829px" zoomAndPan="magnify"><defs/><g><text fill="#000000" font-family="sans-serif" font-size="14" font-weight="bold" lengthAdjust="spacing" textLength="430" x="698" y="34.5332">Activity Diagram - Pengguna Login dan Diarahkan Sesuai Role</text><ellipse cx="1102.25" cy="58.6094" fill="#222222" rx="10" ry="10" style="stroke:#222222;stroke-width:1.0;"/><rect fill="none" height="84.7031" style="stroke:#000000;stroke-width:1.5;" width="176" x="1014.25" y="78.6094"/><path d="M1089.25,78.6094 L1089.25,89.2188 L1079.25,99.2188 L1014.25,99.2188 " fill="none" style="stroke:#000000;stroke-width:1.5;"/><text fill="#000000" font-family="sans-serif" font-size="14" lengthAdjust="spacing" textLength="65" x="1017.25" y="94.1426">Pengguna</text><rect fill="#F1F1F1" height="35.0938" rx="12.5" ry="12.5" style="stroke:#181818;stroke-width:0.5;" width="156" x="1024.25" y="116.2188"/><text fill="#000000" font-family="sans-serif" font-size="12" lengthAdjust="spacing" textLength="136" x="1034.25" y="138.6758">Membuka halaman login</text><rect fill="none" height="84.7031" style="stroke:#000000;stroke-width:1.5;" width="172" x="1016.25" y="173.3125"/><path d="M1068.25,173.3125 L1068.25,183.9219 L1058.25,193.9219 L1016.25,193.9219 " fill="none" style="stroke:#000000;stroke-width:1.5;"/><text fill="#000000" font-family="sans-serif" font-size="14" lengthAdjust="spacing" textLength="42" x="1019.25" y="188.8457">Sistem</text><rect fill="#F1F1F1" height="35.0938" rx="12.5" ry="12.5" style="stroke:#181818;stroke-width:0.5;" width="152" x="1026.25" y="210.9219"/><text fill="#000000" font-family="sans-serif" font-size="12" lengthAdjust="spacing" textLength="132" x="1036.25" y="233.3789">Menampilkan form login</text><rect fill="none" height="139.7969" style="stroke:#000000;stroke-width:1.5;" width="199" x="1002.75" y="268.0156"/><path d="M1077.75,268.0156 L1077.75,278.625 L1067.75,288.625 L1002.75,288.625 " fill="none" style="stroke:#000000;stroke-width:1.5;"/><text fill="#000000" font-family="sans-serif" font-size="14" lengthAdjust="spacing" textLength="65" x="1005.75" y="283.5488">Pengguna</text><rect fill="#F1F1F1" height="35.0938" rx="12.5" ry="12.5" style="stroke:#181818;stroke-width:0.5;" width="179" x="1012.75" y="305.625"/><text fill="#000000" font-family="sans-serif" font-size="12" lengthAdjust="spacing" textLength="159" x="1022.75" y="328.082">Mengisi email dan password</text><rect fill="#F1F1F1" height="35.0938" rx="12.5" ry="12.5" style="stroke:#181818;stroke-width:0.5;" width="120" x="1042.25" y="360.7188"/><text fill="#000000" font-family="sans-serif" font-size="12" lengthAdjust="spacing" textLength="100" x="1052.25" y="383.1758">Klik tombol Masuk</text><rect fill="none" height="84.7031" style="stroke:#000000;stroke-width:1.5;" width="197" x="1003.75" y="417.8125"/><path d="M1055.75,417.8125 L1055.75,428.4219 L1045.75,438.4219 L1003.75,438.4219 " fill="none" style="stroke:#000000;stroke-width:1.5;"/><text fill="#000000" font-family="sans-serif" font-size="14" lengthAdjust="spacing" textLength="42" x="1006.75" y="433.3457">Sistem</text><rect fill="#F1F1F1" height="35.0938" rx="12.5" ry="12.5" style="stroke:#181818;stroke-width:0.5;" width="177" x="1013.75" y="455.4219"/><text fill="#000000" font-family="sans-serif" font-size="12" lengthAdjust="spacing" textLength="157" x="1023.75" y="477.8789">Memeriksa permintaan login</text><rect fill="none" height="84.7031" style="stroke:#000000;stroke-width:1.5;" width="297" x="953.75" y="569.4346"/><path d="M1005.75,569.4346 L1005.75,580.0439 L995.75,590.0439 L953.75,590.0439 " fill="none" style="stroke:#000000;stroke-width:1.5;"/><text fill="#000000" font-family="sans-serif" font-size="14" lengthAdjust="spacing" textLength="42" x="956.75" y="584.9678">Sistem</text><rect fill="#F1F1F1" height="35.0938" rx="12.5" ry="12.5" style="stroke:#181818;stroke-width:0.5;" width="277" x="963.75" y="607.0439"/><text fill="#000000" font-family="sans-serif" font-size="12" lengthAdjust="spacing" textLength="257" x="973.75" y="629.501">Menampilkan pesan terlalu banyak permintaan</text><rect fill="none" height="99.7969" style="stroke:#000000;stroke-width:1.5;" width="181" x="1011.75" y="664.1377"/><path d="M1086.75,664.1377 L1086.75,674.7471 L1076.75,684.7471 L1011.75,684.7471 " fill="none" style="stroke:#000000;stroke-width:1.5;"/><text fill="#000000" font-family="sans-serif" font-size="14" lengthAdjust="spacing" textLength="65" x="1014.75" y="679.6709">Pengguna</text><rect fill="#F1F1F1" height="50.1875" rx="12.5" ry="12.5" style="stroke:#181818;stroke-width:0.5;" width="161" x="1021.75" y="701.7471"/><text fill="#000000" font-family="sans-serif" font-size="12" lengthAdjust="spacing" textLength="141" x="1031.75" y="724.2041">Menunggu beberapa saat</text><text fill="#000000" font-family="sans-serif" font-size="12" lengthAdjust="spacing" textLength="127" x="1031.75" y="739.2979">sebelum mencoba lagi</text><ellipse cx="1102.25" cy="794.9346" fill="none" rx="11" ry="11" style="stroke:#222222;stroke-width:1.0;"/><ellipse cx="1102.25" cy="794.9346" fill="#222222" rx="6" ry="6" style="stroke:#222222;stroke-width:1.0;"/><polygon fill="#F1F1F1" points="1036.25,522.5156,1168.25,522.5156,1180.25,534.5156,1168.25,546.5156,1036.25,546.5156,1024.25,534.5156,1036.25,522.5156" style="stroke:#181818;stroke-width:0.5;"/><text fill="#000000" font-family="sans-serif" font-size="11" lengthAdjust="spacing" textLength="14" x="1106.25" y="557.9346">Ya</text><text fill="#000000" font-family="sans-serif" font-size="11" lengthAdjust="spacing" textLength="132" x="1036.25" y="539.0166">Terlalu banyak permintaan?</text><text fill="#000000" font-family="sans-serif" font-size="11" lengthAdjust="spacing" textLength="25" x="1180.25" y="532.0986">Tidak</text><rect fill="none" height="84.7031" style="stroke:#000000;stroke-width:1.5;" width="169" x="1017.75" y="837.9346"/><path d="M1069.75,837.9346 L1069.75,848.5439 L1059.75,858.5439 L1017.75,858.5439 " fill="none" style="stroke:#000000;stroke-width:1.5;"/><text fill="#000000" font-family="sans-serif" font-size="14" lengthAdjust="spacing" textLength="42" x="1020.75" y="853.4678">Sistem</text><rect fill="#F1F1F1" height="35.0938" rx="12.5" ry="12.5" style="stroke:#181818;stroke-width:0.5;" width="149" x="1027.75" y="875.5439"/><text fill="#000000" font-family="sans-serif" font-size="12" lengthAdjust="spacing" textLength="129" x="1037.75" y="898.001">Memvalidasi input login</text><rect fill="none" height="163.2422" style="stroke:#000000;stroke-width:1.5;" width="220" x="992.25" y="989.5566"/><path d="M1044.25,989.5566 L1044.25,1000.166 L1034.25,1010.166 L992.25,1010.166 " fill="none" style="stroke:#000000;stroke-width:1.5;"/><text fill="#000000" font-family="sans-serif" font-size="14" lengthAdjust="spacing" textLength="42" x="995.25" y="1005.0898">Sistem</text><rect fill="#F1F1F1" height="50.1875" rx="12.5" ry="12.5" style="stroke:#181818;stroke-width:0.5;" width="200" x="1002.25" y="1027.166"/><text fill="#000000" font-family="sans-serif" font-size="12" lengthAdjust="spacing" textLength="112" x="1012.25" y="1049.623">Menampilkan pesan</text><text fill="#000000" font-family="sans-serif" font-size="12" lengthAdjust="spacing" textLength="180" x="1012.25" y="1064.7168">"Email dan password wajib diisi"</text><rect fill="#F1F1F1" height="35.0938" rx="12.5" ry="12.5" style="stroke:#181818;stroke-width:0.5;" width="199" x="1002.75" y="1105.7051"/><text fill="#000000" font-family="sans-serif" font-size="12" lengthAdjust="spacing" textLength="179" x="1012.75" y="1128.1621">Menampilkan kembali form login</text><ellipse cx="1102.25" cy="1183.7988" fill="none" rx="11" ry="11" style="stroke:#222222;stroke-width:1.0;"/><ellipse cx="1102.25" cy="1183.7988" fill="#222222" rx="6" ry="6" style="stroke:#222222;stroke-width:1.0;"/><polygon fill="#F1F1F1" points="1039.75,942.6377,1164.75,942.6377,1176.75,954.6377,1164.75,966.6377,1039.75,966.6377,1027.75,954.6377,1039.75,942.6377" style="stroke:#181818;stroke-width:0.5;"/><text fill="#000000" font-family="sans-serif" font-size="11" lengthAdjust="spacing" textLength="25" x="1106.25" y="978.0566">Tidak</text><text fill="#000000" font-family="sans-serif" font-size="11" lengthAdjust="spacing" textLength="125" x="1039.75" y="959.1387">Email dan password diisi?</text><text fill="#000000" font-family="sans-serif" font-size="11" lengthAdjust="spacing" textLength="14" x="1176.75" y="952.2207">Ya</text><rect fill="none" height="163.2422" style="stroke:#000000;stroke-width:1.5;" width="219" x="992.75" y="1283.7178"/><path d="M1044.75,1283.7178 L1044.75,1294.3271 L1034.75,1304.3271 L992.75,1304.3271 " fill="none" style="stroke:#000000;stroke-width:1.5;"/><text fill="#000000" font-family="sans-serif" font-size="14" lengthAdjust="spacing" textLength="42" x="995.75" y="1299.251">Sistem</text><rect fill="#F1F1F1" height="50.1875" rx="12.5" ry="12.5" style="stroke:#181818;stroke-width:0.5;" width="158" x="1023.25" y="1321.3271"/><text fill="#000000" font-family="sans-serif" font-size="12" lengthAdjust="spacing" textLength="112" x="1033.25" y="1343.7842">Menampilkan pesan</text><text fill="#000000" font-family="sans-serif" font-size="12" lengthAdjust="spacing" textLength="138" x="1033.25" y="1358.8779">"Format email tidak valid"</text><rect fill="#F1F1F1" height="35.0938" rx="12.5" ry="12.5" style="stroke:#181818;stroke-width:0.5;" width="199" x="1002.75" y="1399.8662"/><text fill="#000000" font-family="sans-serif" font-size="12" lengthAdjust="spacing" textLength="179" x="1012.75" y="1422.3232">Menampilkan kembali form login</text><ellipse cx="1102.25" cy="1477.96" fill="none" rx="11" ry="11" style="stroke:#222222;stroke-width:1.0;"/><ellipse cx="1102.25" cy="1477.96" fill="#222222" rx="6" ry="6" style="stroke:#222222;stroke-width:1.0;"/><polygon fill="#F1F1F1" points="1056.75,1236.7988,1147.75,1236.7988,1159.75,1248.7988,1147.75,1260.7988,1056.75,1260.7988,1044.75,1248.7988,1056.75,1236.7988" style="stroke:#181818;stroke-width:0.5;"/><text fill="#000000" font-family="sans-serif" font-size="11" lengthAdjust="spacing" textLength="25" x="1106.25" y="1272.2178">Tidak</text><text fill="#000000" font-family="sans-serif" font-size="11" lengthAdjust="spacing" textLength="91" x="1056.75" y="1253.2998">Format email valid?</text><text fill="#000000" font-family="sans-serif" font-size="11" lengthAdjust="spacing" textLength="14" x="1159.75" y="1246.3818">Ya</text><rect fill="none" height="84.7031" style="stroke:#000000;stroke-width:1.5;" width="221" x="991.75" y="1520.96"/><path d="M1043.75,1520.96 L1043.75,1531.5693 L1033.75,1541.5693 L991.75,1541.5693 " fill="none" style="stroke:#000000;stroke-width:1.5;"/><text fill="#000000" font-family="sans-serif" font-size="14" lengthAdjust="spacing" textLength="42" x="994.75" y="1536.4932">Sistem</text><rect fill="#F1F1F1" height="35.0938" rx="12.5" ry="12.5" style="stroke:#181818;stroke-width:0.5;" width="201" x="1001.75" y="1558.5693"/><text fill="#000000" font-family="sans-serif" font-size="12" lengthAdjust="spacing" textLength="181" x="1011.75" y="1581.0264">Memeriksa email pada data user</text><rect fill="none" height="163.2422" style="stroke:#000000;stroke-width:1.5;" width="219" x="992.75" y="1672.582"/><path d="M1044.75,1672.582 L1044.75,1683.1914 L1034.75,1693.1914 L992.75,1693.1914 " fill="none" style="stroke:#000000;stroke-width:1.5;"/><text fill="#000000" font-family="sans-serif" font-size="14" lengthAdjust="spacing" textLength="42" x="995.75" y="1688.1152">Sistem</text><rect fill="#F1F1F1" height="50.1875" rx="12.5" ry="12.5" style="stroke:#181818;stroke-width:0.5;" width="137" x="1033.75" y="1710.1914"/><text fill="#000000" font-family="sans-serif" font-size="12" lengthAdjust="spacing" textLength="112" x="1043.75" y="1732.6484">Menampilkan pesan</text><text fill="#000000" font-family="sans-serif" font-size="12" lengthAdjust="spacing" textLength="117" x="1043.75" y="1747.7422">"Email tidak terdaftar"</text><rect fill="#F1F1F1" height="35.0938" rx="12.5" ry="12.5" style="stroke:#181818;stroke-width:0.5;" width="199" x="1002.75" y="1788.7305"/><text fill="#000000" font-family="sans-serif" font-size="12" lengthAdjust="spacing" textLength="179" x="1012.75" y="1811.1875">Menampilkan kembali form login</text><ellipse cx="1102.25" cy="1866.8242" fill="none" rx="11" ry="11" style="stroke:#222222;stroke-width:1.0;"/><ellipse cx="1102.25" cy="1866.8242" fill="#222222" rx="6" ry="6" style="stroke:#222222;stroke-width:1.0;"/><polygon fill="#F1F1F1" points="1064.75,1625.6631,1139.75,1625.6631,1151.75,1637.6631,1139.75,1649.6631,1064.75,1649.6631,1052.75,1637.6631,1064.75,1625.6631" style="stroke:#181818;stroke-width:0.5;"/><text fill="#000000" font-family="sans-serif" font-size="11" lengthAdjust="spacing" textLength="25" x="1106.25" y="1661.082">Tidak</text><text fill="#000000" font-family="sans-serif" font-size="11" lengthAdjust="spacing" textLength="75" x="1064.75" y="1642.1641">Email terdaftar?</text><text fill="#000000" font-family="sans-serif" font-size="11" lengthAdjust="spacing" textLength="14" x="1151.75" y="1635.2461">Ya</text><rect fill="none" height="209.9844" style="stroke:#000000;stroke-width:1.5;" width="264" x="970.25" y="1966.7432"/><path d="M1022.25,1966.7432 L1022.25,1977.3525 L1012.25,1987.3525 L970.25,1987.3525 " fill="none" style="stroke:#000000;stroke-width:1.5;"/><text fill="#000000" font-family="sans-serif" font-size="14" lengthAdjust="spacing" textLength="42" x="973.25" y="1982.2764">Sistem</text><rect fill="#F1F1F1" height="50.1875" rx="12.5" ry="12.5" style="stroke:#181818;stroke-width:0.5;" width="229" x="987.75" y="2004.3525"/><text fill="#000000" font-family="sans-serif" font-size="12" lengthAdjust="spacing" textLength="188" x="997.75" y="2026.8096">Menampilkan pesan akun terkunci</text><text fill="#000000" font-family="sans-serif" font-size="12" lengthAdjust="spacing" textLength="209" x="997.75" y="2041.9033">karena terlalu banyak percobaan login</text><rect fill="#F1F1F1" height="35.0938" rx="12.5" ry="12.5" style="stroke:#181818;stroke-width:0.5;" width="244" x="980.25" y="2074.54"/><text fill="#000000" font-family="sans-serif" font-size="12" lengthAdjust="spacing" textLength="224" x="990.25" y="2096.9971">Meminta pengguna menghubungi admin</text><rect fill="#F1F1F1" height="35.0938" rx="12.5" ry="12.5" style="stroke:#181818;stroke-width:0.5;" width="199" x="1002.75" y="2129.6338"/><text fill="#000000" font-family="sans-serif" font-size="12" lengthAdjust="spacing" textLength="179" x="1012.75" y="2152.0908">Menampilkan kembali form login</text><ellipse cx="1102.25" cy="2207.7275" fill="none" rx="11" ry="11" style="stroke:#222222;stroke-width:1.0;"/><ellipse cx="1102.25" cy="2207.7275" fill="#222222" rx="6" ry="6" style="stroke:#222222;stroke-width:1.0;"/><polygon fill="#F1F1F1" points="1050.25,1919.8242,1154.25,1919.8242,1166.25,1931.8242,1154.25,1943.8242,1050.25,1943.8242,1038.25,1931.8242,1050.25,1919.8242" style="stroke:#181818;stroke-width:0.5;"/><text fill="#000000" font-family="sans-serif" font-size="11" lengthAdjust="spacing" textLength="14" x="1106.25" y="1955.2432">Ya</text><text fill="#000000" font-family="sans-serif" font-size="11" lengthAdjust="spacing" textLength="104" x="1050.25" y="1936.3252">Status akun terkunci?</text><text fill="#000000" font-family="sans-serif" font-size="11" lengthAdjust="spacing" textLength="25" x="1166.25" y="1929.4072">Tidak</text><rect fill="none" height="84.7031" style="stroke:#000000;stroke-width:1.5;" width="159" x="1022.75" y="2250.7275"/><path d="M1074.75,2250.7275 L1074.75,2261.3369 L1064.75,2271.3369 L1022.75,2271.3369 " fill="none" style="stroke:#000000;stroke-width:1.5;"/><text fill="#000000" font-family="sans-serif" font-size="14" lengthAdjust="spacing" textLength="42" x="1025.75" y="2266.2607">Sistem</text><rect fill="#F1F1F1" height="35.0938" rx="12.5" ry="12.5" style="stroke:#181818;stroke-width:0.5;" width="139" x="1032.75" y="2288.3369"/><text fill="#000000" font-family="sans-serif" font-size="12" lengthAdjust="spacing" textLength="119" x="1042.75" y="2310.7939">Memeriksa password</text><polygon fill="#F1F1F1" points="1058.75,2355.4307,1145.75,2355.4307,1157.75,2367.4307,1145.75,2379.4307,1058.75,2379.4307,1046.75,2367.4307,1058.75,2355.4307" style="stroke:#181818;stroke-width:0.5;"/><text fill="#000000" font-family="sans-serif" font-size="11" lengthAdjust="spacing" textLength="87" x="1058.75" y="2371.9316">Password benar?</text><text fill="#000000" font-family="sans-serif" font-size="11" lengthAdjust="spacing" textLength="14" x="1032.75" y="2365.0137">Ya</text><text fill="#000000" font-family="sans-serif" font-size="11" lengthAdjust="spacing" textLength="25" x="1157.75" y="2365.0137">Tidak</text><rect fill="none" height="209.8906" style="stroke:#000000;stroke-width:1.5;" width="217" x="527" y="2389.4307"/><path d="M579,2389.4307 L579,2400.04 L569,2410.04 L527,2410.04 " fill="none" style="stroke:#000000;stroke-width:1.5;"/><text fill="#000000" font-family="sans-serif" font-size="14" lengthAdjust="spacing" textLength="42" x="530" y="2404.9639">Sistem</text><rect fill="#F1F1F1" height="35.0938" rx="12.5" ry="12.5" style="stroke:#181818;stroke-width:0.5;" width="149" x="561" y="2427.04"/><text fill="#000000" font-family="sans-serif" font-size="12" lengthAdjust="spacing" textLength="129" x="571" y="2449.4971">Mengatur session login</text><rect fill="#F1F1F1" height="35.0938" rx="12.5" ry="12.5" style="stroke:#181818;stroke-width:0.5;" width="197" x="537" y="2482.1338"/><text fill="#000000" font-family="sans-serif" font-size="12" lengthAdjust="spacing" textLength="177" x="547" y="2504.5908">Mereset jumlah percobaan login</text><rect fill="#F1F1F1" height="35.0938" rx="12.5" ry="12.5" style="stroke:#181818;stroke-width:0.5;" width="157" x="557" y="2544.2275"/><text fill="#000000" font-family="sans-serif" font-size="12" lengthAdjust="spacing" textLength="137" x="567" y="2566.6846">Membaca role pengguna</text><polygon fill="#F1F1F1" points="89,2659.3213,167,2659.3213,179,2671.3213,167,2683.3213,89,2683.3213,77,2671.3213,89,2659.3213" style="stroke:#181818;stroke-width:0.5;"/><text fill="#000000" font-family="sans-serif" font-size="11" lengthAdjust="spacing" textLength="30" x="132" y="2694.7402">Admin</text><text fill="#000000" font-family="sans-serif" font-size="11" lengthAdjust="spacing" textLength="78" x="89" y="2675.8223">Role pengguna?</text><rect fill="none" height="92.7031" style="stroke:#000000;stroke-width:1.5;" width="234" x="11" y="2717.1572"/><path d="M63,2717.1572 L63,2727.7666 L53,2737.7666 L11,2737.7666 " fill="none" style="stroke:#000000;stroke-width:1.5;"/><text fill="#000000" font-family="sans-serif" font-size="14" lengthAdjust="spacing" textLength="42" x="14" y="2732.6904">Sistem</text><rect fill="#F1F1F1" height="35.0938" rx="12.5" ry="12.5" style="stroke:#181818;stroke-width:0.5;" width="214" x="21" y="2754.7666"/><text fill="#000000" font-family="sans-serif" font-size="12" lengthAdjust="spacing" textLength="194" x="31" y="2777.2236">Mengarahkan ke Dashboard Admin</text><polygon fill="#F1F1F1" points="356,2659.3213,380,2659.3213,392,2671.3213,380,2683.3213,356,2683.3213,344,2671.3213,356,2659.3213" style="stroke:#181818;stroke-width:0.5;"/><text fill="#000000" font-family="sans-serif" font-size="11" lengthAdjust="spacing" textLength="24" x="356" y="2675.8223">Guru</text><rect fill="none" height="92.7031" style="stroke:#000000;stroke-width:1.5;" width="226" x="255" y="2703.3213"/><path d="M307,2703.3213 L307,2713.9307 L297,2723.9307 L255,2723.9307 " fill="none" style="stroke:#000000;stroke-width:1.5;"/><text fill="#000000" font-family="sans-serif" font-size="14" lengthAdjust="spacing" textLength="42" x="258" y="2718.8545">Sistem</text><rect fill="#F1F1F1" height="35.0938" rx="12.5" ry="12.5" style="stroke:#181818;stroke-width:0.5;" width="206" x="265" y="2740.9307"/><text fill="#000000" font-family="sans-serif" font-size="12" lengthAdjust="spacing" textLength="186" x="275" y="2763.3877">Mengarahkan ke Dashboard Guru</text><polygon fill="#F1F1F1" points="592,2659.3213,623,2659.3213,635,2671.3213,623,2683.3213,592,2683.3213,580,2671.3213,592,2659.3213" style="stroke:#181818;stroke-width:0.5;"/><text fill="#000000" font-family="sans-serif" font-size="11" lengthAdjust="spacing" textLength="31" x="592" y="2675.8223">Siswa</text><rect fill="none" height="92.7031" style="stroke:#000000;stroke-width:1.5;" width="233" x="491" y="2703.3213"/><path d="M543,2703.3213 L543,2713.9307 L533,2723.9307 L491,2723.9307 " fill="none" style="stroke:#000000;stroke-width:1.5;"/><text fill="#000000" font-family="sans-serif" font-size="14" lengthAdjust="spacing" textLength="42" x="494" y="2718.8545">Sistem</text><rect fill="#F1F1F1" height="35.0938" rx="12.5" ry="12.5" style="stroke:#181818;stroke-width:0.5;" width="213" x="501" y="2740.9307"/><text fill="#000000" font-family="sans-serif" font-size="12" lengthAdjust="spacing" textLength="193" x="511" y="2763.3877">Mengarahkan ke Dashboard Siswa</text><polygon fill="#F1F1F1" points="847.5,2659.3213,896.5,2659.3213,908.5,2671.3213,896.5,2683.3213,847.5,2683.3213,835.5,2671.3213,847.5,2659.3213" style="stroke:#181818;stroke-width:0.5;"/><text fill="#000000" font-family="sans-serif" font-size="11" lengthAdjust="spacing" textLength="49" x="847.5" y="2675.8223">Wali Murid</text><text fill="#000000" font-family="sans-serif" font-size="11" lengthAdjust="spacing" textLength="84" x="908.5" y="2668.9043">Role tidak dikenali</text><rect fill="none" height="92.7031" style="stroke:#000000;stroke-width:1.5;" width="256" x="744" y="2703.3213"/><path d="M796,2703.3213 L796,2713.9307 L786,2723.9307 L744,2723.9307 " fill="none" style="stroke:#000000;stroke-width:1.5;"/><text fill="#000000" font-family="sans-serif" font-size="14" lengthAdjust="spacing" textLength="42" x="747" y="2718.8545">Sistem</text><rect fill="#F1F1F1" height="35.0938" rx="12.5" ry="12.5" style="stroke:#181818;stroke-width:0.5;" width="236" x="754" y="2740.9307"/><text fill="#000000" font-family="sans-serif" font-size="12" lengthAdjust="spacing" textLength="216" x="764" y="2763.3877">Mengarahkan ke Dashboard Wali Murid</text><rect fill="none" height="92.7031" style="stroke:#000000;stroke-width:1.5;" width="260" x="1020" y="2713.2393"/><path d="M1072,2713.2393 L1072,2723.8486 L1062,2733.8486 L1020,2733.8486 " fill="none" style="stroke:#000000;stroke-width:1.5;"/><text fill="#000000" font-family="sans-serif" font-size="14" lengthAdjust="spacing" textLength="42" x="1023" y="2728.7725">Sistem</text><rect fill="#F1F1F1" height="35.0938" rx="12.5" ry="12.5" style="stroke:#181818;stroke-width:0.5;" width="240" x="1030" y="2750.8486"/><text fill="#000000" font-family="sans-serif" font-size="12" lengthAdjust="spacing" textLength="220" x="1040" y="2773.3057">Mengarahkan kembali ke halaman login</text><rect fill="none" height="139.7969" style="stroke:#000000;stroke-width:1.5;" width="283" x="1407.5" y="2389.4307"/><path d="M1459.5,2389.4307 L1459.5,2400.04 L1449.5,2410.04 L1407.5,2410.04 " fill="none" style="stroke:#000000;stroke-width:1.5;"/><text fill="#000000" font-family="sans-serif" font-size="14" lengthAdjust="spacing" textLength="42" x="1410.5" y="2404.9639">Sistem</text><rect fill="#F1F1F1" height="35.0938" rx="12.5" ry="12.5" style="stroke:#181818;stroke-width:0.5;" width="249" x="1424.5" y="2427.04"/><text fill="#000000" font-family="sans-serif" font-size="12" lengthAdjust="spacing" textLength="229" x="1434.5" y="2449.4971">Menambah jumlah percobaan login gagal</text><rect fill="#F1F1F1" height="35.0938" rx="12.5" ry="12.5" style="stroke:#181818;stroke-width:0.5;" width="263" x="1417.5" y="2482.1338"/><text fill="#000000" font-family="sans-serif" font-size="12" lengthAdjust="spacing" textLength="243" x="1427.5" y="2504.5908">Menghitung sisa percobaan dari batas 5 kali</text><polygon fill="#F1F1F1" points="1482,2564.2275,1616,2564.2275,1628,2576.2275,1616,2588.2275,1482,2588.2275,1470,2576.2275,1482,2564.2275" style="stroke:#181818;stroke-width:0.5;"/><text fill="#000000" font-family="sans-serif" font-size="11" lengthAdjust="spacing" textLength="134" x="1482" y="2580.7285">Sisa percobaan masih ada?</text><text fill="#000000" font-family="sans-serif" font-size="11" lengthAdjust="spacing" textLength="14" x="1456" y="2573.8105">Ya</text><text fill="#000000" font-family="sans-serif" font-size="11" lengthAdjust="spacing" textLength="25" x="1628" y="2573.8105">Tidak</text><rect fill="none" height="177.8906" style="stroke:#000000;stroke-width:1.5;" width="244" x="1290" y="2598.2275"/><path d="M1342,2598.2275 L1342,2608.8369 L1332,2618.8369 L1290,2618.8369 " fill="none" style="stroke:#000000;stroke-width:1.5;"/><text fill="#000000" font-family="sans-serif" font-size="14" lengthAdjust="spacing" textLength="42" x="1293" y="2613.7607">Sistem</text><rect fill="#F1F1F1" height="50.1875" rx="12.5" ry="12.5" style="stroke:#181818;stroke-width:0.5;" width="224" x="1300" y="2635.8369"/><text fill="#000000" font-family="sans-serif" font-size="12" lengthAdjust="spacing" textLength="204" x="1310" y="2658.2939">Menampilkan pesan password salah</text><text fill="#000000" font-family="sans-serif" font-size="12" lengthAdjust="spacing" textLength="131" x="1310" y="2673.3877">beserta sisa percobaan</text><rect fill="#F1F1F1" height="35.0938" rx="12.5" ry="12.5" style="stroke:#181818;stroke-width:0.5;" width="199" x="1312.5" y="2721.0244"/><text fill="#000000" font-family="sans-serif" font-size="12" lengthAdjust="spacing" textLength="179" x="1322.5" y="2743.4814">Menampilkan kembali form login</text><rect fill="none" height="283.6328" style="stroke:#000000;stroke-width:1.5;" width="264" x="1554" y="2598.2275"/><path d="M1606,2598.2275 L1606,2608.8369 L1596,2618.8369 L1554,2618.8369 " fill="none" style="stroke:#000000;stroke-width:1.5;"/><text fill="#000000" font-family="sans-serif" font-size="14" lengthAdjust="spacing" textLength="42" x="1557" y="2613.7607">Sistem</text><rect fill="#F1F1F1" height="35.0938" rx="12.5" ry="12.5" style="stroke:#181818;stroke-width:0.5;" width="162" x="1605" y="2635.8369"/><text fill="#000000" font-family="sans-serif" font-size="12" lengthAdjust="spacing" textLength="142" x="1615" y="2658.2939">Mengunci akun pengguna</text><rect fill="#F1F1F1" height="35.0938" rx="12.5" ry="12.5" style="stroke:#181818;stroke-width:0.5;" width="208" x="1582" y="2705.9307"/><text fill="#000000" font-family="sans-serif" font-size="12" lengthAdjust="spacing" textLength="188" x="1592" y="2728.3877">Menampilkan pesan akun terkunci</text><rect fill="#F1F1F1" height="35.0938" rx="12.5" ry="12.5" style="stroke:#181818;stroke-width:0.5;" width="244" x="1564" y="2776.0244"/><text fill="#000000" font-family="sans-serif" font-size="12" lengthAdjust="spacing" textLength="224" x="1574" y="2798.4814">Meminta pengguna menghubungi admin</text><rect fill="#F1F1F1" height="35.0938" rx="12.5" ry="12.5" style="stroke:#181818;stroke-width:0.5;" width="199" x="1586.5" y="2831.1182"/><text fill="#000000" font-family="sans-serif" font-size="12" lengthAdjust="spacing" textLength="179" x="1596.5" y="2853.5752">Menampilkan kembali form login</text><polygon fill="#F1F1F1" points="1549,2887.8604,1561,2899.8604,1549,2911.8604,1537,2899.8604,1549,2887.8604" style="stroke:#181818;stroke-width:0.5;"/><polygon fill="#F1F1F1" points="1102.25,2917.8604,1114.25,2929.8604,1102.25,2941.8604,1090.25,2929.8604,1102.25,2917.8604" style="stroke:#181818;stroke-width:0.5;"/><ellipse cx="1102.25" cy="2972.8604" fill="none" rx="11" ry="11" style="stroke:#222222;stroke-width:1.0;"/><ellipse cx="1102.25" cy="2972.8604" fill="#222222" rx="6" ry="6" style="stroke:#222222;stroke-width:1.0;"/><line style="stroke:#181818;stroke-width:1.0;" x1="1102.25" x2="1102.25" y1="68.6094" y2="116.2188"/><polygon fill="#181818" points="1098.25,106.2188,1102.25,116.2188,1106.25,106.2188,1102.25,110.2188" style="stroke:#181818;stroke-width:1.0;"/><line style="stroke:#181818;stroke-width:1.0;" x1="1102.25" x2="1102.25" y1="151.3125" y2="210.9219"/><polygon fill="#181818" points="1098.25,200.9219,1102.25,210.9219,1106.25,200.9219,1102.25,204.9219" style="stroke:#181818;stroke-width:1.0;"/><line style="stroke:#181818;stroke-width:1.0;" x1="1102.25" x2="1102.25" y1="340.7188" y2="360.7188"/><polygon fill="#181818" points="1098.25,350.7188,1102.25,360.7188,1106.25,350.7188,1102.25,354.7188" style="stroke:#181818;stroke-width:1.0;"/><line style="stroke:#181818;stroke-width:1.0;" x1="1102.25" x2="1102.25" y1="246.0156" y2="305.625"/><polygon fill="#181818" points="1098.25,295.625,1102.25,305.625,1106.25,295.625,1102.25,299.625" style="stroke:#181818;stroke-width:1.0;"/><line style="stroke:#181818;stroke-width:1.0;" x1="1102.25" x2="1102.25" y1="395.8125" y2="455.4219"/><polygon fill="#181818" points="1098.25,445.4219,1102.25,455.4219,1106.25,445.4219,1102.25,449.4219" style="stroke:#181818;stroke-width:1.0;"/><line style="stroke:#181818;stroke-width:1.0;" x1="1102.25" x2="1102.25" y1="642.1377" y2="701.7471"/><polygon fill="#181818" points="1098.25,691.7471,1102.25,701.7471,1106.25,691.7471,1102.25,695.7471" style="stroke:#181818;stroke-width:1.0;"/><line style="stroke:#181818;stroke-width:1.0;" x1="1102.25" x2="1102.25" y1="751.9346" y2="783.9346"/><polygon fill="#181818" points="1098.25,773.9346,1102.25,783.9346,1106.25,773.9346,1102.25,777.9346" style="stroke:#181818;stroke-width:1.0;"/><line style="stroke:#181818;stroke-width:1.0;" x1="1102.25" x2="1102.25" y1="546.5156" y2="607.0439"/><polygon fill="#181818" points="1098.25,597.0439,1102.25,607.0439,1106.25,597.0439,1102.25,601.0439" style="stroke:#181818;stroke-width:1.0;"/><line style="stroke:#181818;stroke-width:1.0;" x1="1180.25" x2="1260.75" y1="534.5156" y2="534.5156"/><polygon fill="#181818" points="1256.75,669.6846,1260.75,679.6846,1264.75,669.6846,1260.75,673.6846" style="stroke:#181818;stroke-width:1.0;"/><line style="stroke:#181818;stroke-width:1.0;" x1="1260.75" x2="1260.75" y1="534.5156" y2="827.9346"/><line style="stroke:#181818;stroke-width:1.0;" x1="1260.75" x2="1102.25" y1="827.9346" y2="827.9346"/><line style="stroke:#181818;stroke-width:1.0;" x1="1102.25" x2="1102.25" y1="827.9346" y2="875.5439"/><polygon fill="#181818" points="1098.25,865.5439,1102.25,875.5439,1106.25,865.5439,1102.25,869.5439" style="stroke:#181818;stroke-width:1.0;"/><line style="stroke:#181818;stroke-width:1.0;" x1="1102.25" x2="1102.25" y1="490.5156" y2="522.5156"/><polygon fill="#181818" points="1098.25,512.5156,1102.25,522.5156,1106.25,512.5156,1102.25,516.5156" style="stroke:#181818;stroke-width:1.0;"/><line style="stroke:#181818;stroke-width:1.0;" x1="1102.25" x2="1102.25" y1="1077.3535" y2="1105.7051"/><polygon fill="#181818" points="1098.25,1095.7051,1102.25,1105.7051,1106.25,1095.7051,1102.25,1099.7051" style="stroke:#181818;stroke-width:1.0;"/><line style="stroke:#181818;stroke-width:1.0;" x1="1102.25" x2="1102.25" y1="1140.7988" y2="1172.7988"/><polygon fill="#181818" points="1098.25,1162.7988,1102.25,1172.7988,1106.25,1162.7988,1102.25,1166.7988" style="stroke:#181818;stroke-width:1.0;"/><line style="stroke:#181818;stroke-width:1.0;" x1="1102.25" x2="1102.25" y1="966.6377" y2="1027.166"/><polygon fill="#181818" points="1098.25,1017.166,1102.25,1027.166,1106.25,1017.166,1102.25,1021.166" style="stroke:#181818;stroke-width:1.0;"/><line style="stroke:#181818;stroke-width:1.0;" x1="1176.75" x2="1222.25" y1="954.6377" y2="954.6377"/><polygon fill="#181818" points="1218.25,1087.3535,1222.25,1097.3535,1226.25,1087.3535,1222.25,1091.3535" style="stroke:#181818;stroke-width:1.0;"/><line style="stroke:#181818;stroke-width:1.0;" x1="1222.25" x2="1222.25" y1="954.6377" y2="1216.7988"/><line style="stroke:#181818;stroke-width:1.0;" x1="1222.25" x2="1102.25" y1="1216.7988" y2="1216.7988"/><line style="stroke:#181818;stroke-width:1.0;" x1="1102.25" x2="1102.25" y1="1216.7988" y2="1236.7988"/><polygon fill="#181818" points="1098.25,1226.7988,1102.25,1236.7988,1106.25,1226.7988,1102.25,1230.7988" style="stroke:#181818;stroke-width:1.0;"/><line style="stroke:#181818;stroke-width:1.0;" x1="1102.25" x2="1102.25" y1="910.6377" y2="942.6377"/><polygon fill="#181818" points="1098.25,932.6377,1102.25,942.6377,1106.25,932.6377,1102.25,936.6377" style="stroke:#181818;stroke-width:1.0;"/><line style="stroke:#181818;stroke-width:1.0;" x1="1102.25" x2="1102.25" y1="1371.5146" y2="1399.8662"/><polygon fill="#181818" points="1098.25,1389.8662,1102.25,1399.8662,1106.25,1389.8662,1102.25,1393.8662" style="stroke:#181818;stroke-width:1.0;"/><line style="stroke:#181818;stroke-width:1.0;" x1="1102.25" x2="1102.25" y1="1434.96" y2="1466.96"/><polygon fill="#181818" points="1098.25,1456.96,1102.25,1466.96,1106.25,1456.96,1102.25,1460.96" style="stroke:#181818;stroke-width:1.0;"/><line style="stroke:#181818;stroke-width:1.0;" x1="1102.25" x2="1102.25" y1="1260.7988" y2="1321.3271"/><polygon fill="#181818" points="1098.25,1311.3271,1102.25,1321.3271,1106.25,1311.3271,1102.25,1315.3271" style="stroke:#181818;stroke-width:1.0;"/><line style="stroke:#181818;stroke-width:1.0;" x1="1159.75" x2="1221.75" y1="1248.7988" y2="1248.7988"/><polygon fill="#181818" points="1217.75,1381.5146,1221.75,1391.5146,1225.75,1381.5146,1221.75,1385.5146" style="stroke:#181818;stroke-width:1.0;"/><line style="stroke:#181818;stroke-width:1.0;" x1="1221.75" x2="1221.75" y1="1248.7988" y2="1510.96"/><line style="stroke:#181818;stroke-width:1.0;" x1="1221.75" x2="1102.25" y1="1510.96" y2="1510.96"/><line style="stroke:#181818;stroke-width:1.0;" x1="1102.25" x2="1102.25" y1="1510.96" y2="1558.5693"/><polygon fill="#181818" points="1098.25,1548.5693,1102.25,1558.5693,1106.25,1548.5693,1102.25,1552.5693" style="stroke:#181818;stroke-width:1.0;"/><line style="stroke:#181818;stroke-width:1.0;" x1="1102.25" x2="1102.25" y1="1760.3789" y2="1788.7305"/><polygon fill="#181818" points="1098.25,1778.7305,1102.25,1788.7305,1106.25,1778.7305,1102.25,1782.7305" style="stroke:#181818;stroke-width:1.0;"/><line style="stroke:#181818;stroke-width:1.0;" x1="1102.25" x2="1102.25" y1="1823.8242" y2="1855.8242"/><polygon fill="#181818" points="1098.25,1845.8242,1102.25,1855.8242,1106.25,1845.8242,1102.25,1849.8242" style="stroke:#181818;stroke-width:1.0;"/><line style="stroke:#181818;stroke-width:1.0;" x1="1102.25" x2="1102.25" y1="1649.6631" y2="1710.1914"/><polygon fill="#181818" points="1098.25,1700.1914,1102.25,1710.1914,1106.25,1700.1914,1102.25,1704.1914" style="stroke:#181818;stroke-width:1.0;"/><line style="stroke:#181818;stroke-width:1.0;" x1="1151.75" x2="1221.75" y1="1637.6631" y2="1637.6631"/><polygon fill="#181818" points="1217.75,1770.3789,1221.75,1780.3789,1225.75,1770.3789,1221.75,1774.3789" style="stroke:#181818;stroke-width:1.0;"/><line style="stroke:#181818;stroke-width:1.0;" x1="1221.75" x2="1221.75" y1="1637.6631" y2="1899.8242"/><line style="stroke:#181818;stroke-width:1.0;" x1="1221.75" x2="1102.25" y1="1899.8242" y2="1899.8242"/><line style="stroke:#181818;stroke-width:1.0;" x1="1102.25" x2="1102.25" y1="1899.8242" y2="1919.8242"/><polygon fill="#181818" points="1098.25,1909.8242,1102.25,1919.8242,1106.25,1909.8242,1102.25,1913.8242" style="stroke:#181818;stroke-width:1.0;"/><line style="stroke:#181818;stroke-width:1.0;" x1="1102.25" x2="1102.25" y1="1593.6631" y2="1625.6631"/><polygon fill="#181818" points="1098.25,1615.6631,1102.25,1625.6631,1106.25,1615.6631,1102.25,1619.6631" style="stroke:#181818;stroke-width:1.0;"/><line style="stroke:#181818;stroke-width:1.0;" x1="1102.25" x2="1102.25" y1="2054.54" y2="2074.54"/><polygon fill="#181818" points="1098.25,2064.54,1102.25,2074.54,1106.25,2064.54,1102.25,2068.54" style="stroke:#181818;stroke-width:1.0;"/><line style="stroke:#181818;stroke-width:1.0;" x1="1102.25" x2="1102.25" y1="2109.6338" y2="2129.6338"/><polygon fill="#181818" points="1098.25,2119.6338,1102.25,2129.6338,1106.25,2119.6338,1102.25,2123.6338" style="stroke:#181818;stroke-width:1.0;"/><line style="stroke:#181818;stroke-width:1.0;" x1="1102.25" x2="1102.25" y1="2164.7275" y2="2196.7275"/><polygon fill="#181818" points="1098.25,2186.7275,1102.25,2196.7275,1106.25,2186.7275,1102.25,2190.7275" style="stroke:#181818;stroke-width:1.0;"/><line style="stroke:#181818;stroke-width:1.0;" x1="1102.25" x2="1102.25" y1="1943.8242" y2="2004.3525"/><polygon fill="#181818" points="1098.25,1994.3525,1102.25,2004.3525,1106.25,1994.3525,1102.25,1998.3525" style="stroke:#181818;stroke-width:1.0;"/><line style="stroke:#181818;stroke-width:1.0;" x1="1166.25" x2="1244.25" y1="1931.8242" y2="1931.8242"/><polygon fill="#181818" points="1240.25,2091.2354,1244.25,2101.2354,1248.25,2091.2354,1244.25,2095.2354" style="stroke:#181818;stroke-width:1.0;"/><line style="stroke:#181818;stroke-width:1.0;" x1="1244.25" x2="1244.25" y1="1931.8242" y2="2240.7275"/><line style="stroke:#181818;stroke-width:1.0;" x1="1244.25" x2="1102.25" y1="2240.7275" y2="2240.7275"/><line style="stroke:#181818;stroke-width:1.0;" x1="1102.25" x2="1102.25" y1="2240.7275" y2="2288.3369"/><polygon fill="#181818" points="1098.25,2278.3369,1102.25,2288.3369,1106.25,2278.3369,1102.25,2282.3369" style="stroke:#181818;stroke-width:1.0;"/><line style="stroke:#181818;stroke-width:1.0;" x1="635.5" x2="635.5" y1="2462.1338" y2="2482.1338"/><polygon fill="#181818" points="631.5,2472.1338,635.5,2482.1338,639.5,2472.1338,635.5,2476.1338" style="stroke:#181818;stroke-width:1.0;"/><line style="stroke:#181818;stroke-width:1.0;" x1="635.5" x2="635.5" y1="2517.2275" y2="2544.2275"/><polygon fill="#181818" points="631.5,2534.2275,635.5,2544.2275,639.5,2534.2275,635.5,2538.2275" style="stroke:#181818;stroke-width:1.0;"/><line style="stroke:#181818;stroke-width:1.0;" x1="128" x2="128" y1="2683.3213" y2="2754.7666"/><polygon fill="#181818" points="124,2744.7666,128,2754.7666,132,2744.7666,128,2748.7666" style="stroke:#181818;stroke-width:1.0;"/><line style="stroke:#181818;stroke-width:1.0;" x1="128" x2="128" y1="2789.8604" y2="2869.8604"/><polygon fill="#181818" points="124,2859.8604,128,2869.8604,132,2859.8604,128,2863.8604" style="stroke:#181818;stroke-width:1.0;"/><line style="stroke:#181818;stroke-width:1.0;" x1="368" x2="368" y1="2683.3213" y2="2740.9307"/><polygon fill="#181818" points="364,2730.9307,368,2740.9307,372,2730.9307,368,2734.9307" style="stroke:#181818;stroke-width:1.0;"/><line style="stroke:#181818;stroke-width:1.0;" x1="368" x2="368" y1="2776.0244" y2="2869.8604"/><polygon fill="#181818" points="364,2859.8604,368,2869.8604,372,2859.8604,368,2863.8604" style="stroke:#181818;stroke-width:1.0;"/><line style="stroke:#181818;stroke-width:1.0;" x1="607.5" x2="607.5" y1="2683.3213" y2="2740.9307"/><polygon fill="#181818" points="603.5,2730.9307,607.5,2740.9307,611.5,2730.9307,607.5,2734.9307" style="stroke:#181818;stroke-width:1.0;"/><line style="stroke:#181818;stroke-width:1.0;" x1="607.5" x2="607.5" y1="2776.0244" y2="2869.8604"/><polygon fill="#181818" points="603.5,2859.8604,607.5,2869.8604,611.5,2859.8604,607.5,2863.8604" style="stroke:#181818;stroke-width:1.0;"/><line style="stroke:#181818;stroke-width:1.0;" x1="872" x2="872" y1="2683.3213" y2="2740.9307"/><polygon fill="#181818" points="868,2730.9307,872,2740.9307,876,2730.9307,872,2734.9307" style="stroke:#181818;stroke-width:1.0;"/><line style="stroke:#181818;stroke-width:1.0;" x1="872" x2="872" y1="2776.0244" y2="2869.8604"/><polygon fill="#181818" points="868,2859.8604,872,2869.8604,876,2859.8604,872,2863.8604" style="stroke:#181818;stroke-width:1.0;"/><line style="stroke:#181818;stroke-width:1.0;" x1="179" x2="344" y1="2671.3213" y2="2671.3213"/><polygon fill="#181818" points="334,2667.3213,344,2671.3213,334,2675.3213,338,2671.3213" style="stroke:#181818;stroke-width:1.0;"/><line style="stroke:#181818;stroke-width:1.0;" x1="392" x2="580" y1="2671.3213" y2="2671.3213"/><polygon fill="#181818" points="570,2667.3213,580,2671.3213,570,2675.3213,574,2671.3213" style="stroke:#181818;stroke-width:1.0;"/><line style="stroke:#181818;stroke-width:1.0;" x1="635" x2="835.5" y1="2671.3213" y2="2671.3213"/><polygon fill="#181818" points="825.5,2667.3213,835.5,2671.3213,825.5,2675.3213,829.5,2671.3213" style="stroke:#181818;stroke-width:1.0;"/><line style="stroke:#181818;stroke-width:1.0;" x1="635.5" x2="635.5" y1="2579.3213" y2="2634.3213"/><line style="stroke:#181818;stroke-width:1.0;" x1="635.5" x2="128" y1="2634.3213" y2="2634.3213"/><line style="stroke:#181818;stroke-width:1.0;" x1="128" x2="128" y1="2634.3213" y2="2659.3213"/><polygon fill="#181818" points="124,2649.3213,128,2659.3213,132,2649.3213,128,2653.3213" style="stroke:#181818;stroke-width:1.0;"/><line style="stroke:#181818;stroke-width:1.0;" x1="908.5" x2="1150" y1="2671.3213" y2="2671.3213"/><line style="stroke:#181818;stroke-width:1.0;" x1="1150" x2="1150" y1="2671.3213" y2="2750.8486"/><polygon fill="#181818" points="1146,2740.8486,1150,2750.8486,1154,2740.8486,1150,2744.8486" style="stroke:#181818;stroke-width:1.0;"/><line style="stroke:#181818;stroke-width:1.0;" x1="1150" x2="1150" y1="2785.9424" y2="2869.8604"/><polygon fill="#181818" points="1146,2859.8604,1150,2869.8604,1154,2859.8604,1150,2863.8604" style="stroke:#181818;stroke-width:1.0;"/><line style="stroke:#181818;stroke-width:1.0;" x1="128" x2="1150" y1="2869.8604" y2="2869.8604"/><line style="stroke:#181818;stroke-width:1.0;" x1="1549" x2="1549" y1="2462.1338" y2="2482.1338"/><polygon fill="#181818" points="1545,2472.1338,1549,2482.1338,1553,2472.1338,1549,2476.1338" style="stroke:#181818;stroke-width:1.0;"/><line style="stroke:#181818;stroke-width:1.0;" x1="1412" x2="1412" y1="2686.0244" y2="2721.0244"/><polygon fill="#181818" points="1408,2711.0244,1412,2721.0244,1416,2711.0244,1412,2715.0244" style="stroke:#181818;stroke-width:1.0;"/><line style="stroke:#181818;stroke-width:1.0;" x1="1686" x2="1686" y1="2670.9307" y2="2705.9307"/><polygon fill="#181818" points="1682,2695.9307,1686,2705.9307,1690,2695.9307,1686,2699.9307" style="stroke:#181818;stroke-width:1.0;"/><line style="stroke:#181818;stroke-width:1.0;" x1="1686" x2="1686" y1="2741.0244" y2="2776.0244"/><polygon fill="#181818" points="1682,2766.0244,1686,2776.0244,1690,2766.0244,1686,2770.0244" style="stroke:#181818;stroke-width:1.0;"/><line style="stroke:#181818;stroke-width:1.0;" x1="1686" x2="1686" y1="2811.1182" y2="2831.1182"/><polygon fill="#181818" points="1682,2821.1182,1686,2831.1182,1690,2821.1182,1686,2825.1182" style="stroke:#181818;stroke-width:1.0;"/><line style="stroke:#181818;stroke-width:1.0;" x1="1470" x2="1412" y1="2576.2275" y2="2576.2275"/><line style="stroke:#181818;stroke-width:1.0;" x1="1412" x2="1412" y1="2576.2275" y2="2635.8369"/><polygon fill="#181818" points="1408,2625.8369,1412,2635.8369,1416,2625.8369,1412,2629.8369" style="stroke:#181818;stroke-width:1.0;"/><line style="stroke:#181818;stroke-width:1.0;" x1="1628" x2="1686" y1="2576.2275" y2="2576.2275"/><line style="stroke:#181818;stroke-width:1.0;" x1="1686" x2="1686" y1="2576.2275" y2="2635.8369"/><polygon fill="#181818" points="1682,2625.8369,1686,2635.8369,1690,2625.8369,1686,2629.8369" style="stroke:#181818;stroke-width:1.0;"/><line style="stroke:#181818;stroke-width:1.0;" x1="1412" x2="1412" y1="2756.1182" y2="2899.8604"/><line style="stroke:#181818;stroke-width:1.0;" x1="1412" x2="1537" y1="2899.8604" y2="2899.8604"/><polygon fill="#181818" points="1527,2895.8604,1537,2899.8604,1527,2903.8604,1531,2899.8604" style="stroke:#181818;stroke-width:1.0;"/><line style="stroke:#181818;stroke-width:1.0;" x1="1686" x2="1686" y1="2866.2119" y2="2899.8604"/><line style="stroke:#181818;stroke-width:1.0;" x1="1686" x2="1561" y1="2899.8604" y2="2899.8604"/><polygon fill="#181818" points="1571,2895.8604,1561,2899.8604,1571,2903.8604,1567,2899.8604" style="stroke:#181818;stroke-width:1.0;"/><line style="stroke:#181818;stroke-width:1.0;" x1="1549" x2="1549" y1="2517.2275" y2="2564.2275"/><polygon fill="#181818" points="1545,2554.2275,1549,2564.2275,1553,2554.2275,1549,2558.2275" style="stroke:#181818;stroke-width:1.0;"/><line style="stroke:#181818;stroke-width:1.0;" x1="1046.75" x2="635.5" y1="2367.4307" y2="2367.4307"/><line style="stroke:#181818;stroke-width:1.0;" x1="635.5" x2="635.5" y1="2367.4307" y2="2427.04"/><polygon fill="#181818" points="631.5,2417.04,635.5,2427.04,639.5,2417.04,635.5,2421.04" style="stroke:#181818;stroke-width:1.0;"/><line style="stroke:#181818;stroke-width:1.0;" x1="1157.75" x2="1549" y1="2367.4307" y2="2367.4307"/><line style="stroke:#181818;stroke-width:1.0;" x1="1549" x2="1549" y1="2367.4307" y2="2427.04"/><polygon fill="#181818" points="1545,2417.04,1549,2427.04,1553,2417.04,1549,2421.04" style="stroke:#181818;stroke-width:1.0;"/><line style="stroke:#181818;stroke-width:1.0;" x1="635.5" x2="635.5" y1="2869.8604" y2="2929.8604"/><line style="stroke:#181818;stroke-width:1.0;" x1="635.5" x2="1090.25" y1="2929.8604" y2="2929.8604"/><polygon fill="#181818" points="1080.25,2925.8604,1090.25,2929.8604,1080.25,2933.8604,1084.25,2929.8604" style="stroke:#181818;stroke-width:1.0;"/><line style="stroke:#181818;stroke-width:1.0;" x1="1549" x2="1549" y1="2911.8604" y2="2929.8604"/><line style="stroke:#181818;stroke-width:1.0;" x1="1549" x2="1114.25" y1="2929.8604" y2="2929.8604"/><polygon fill="#181818" points="1124.25,2925.8604,1114.25,2929.8604,1124.25,2933.8604,1120.25,2929.8604" style="stroke:#181818;stroke-width:1.0;"/><line style="stroke:#181818;stroke-width:1.0;" x1="1102.25" x2="1102.25" y1="2323.4307" y2="2355.4307"/><polygon fill="#181818" points="1098.25,2345.4307,1102.25,2355.4307,1106.25,2345.4307,1102.25,2349.4307" style="stroke:#181818;stroke-width:1.0;"/><line style="stroke:#181818;stroke-width:1.0;" x1="1102.25" x2="1102.25" y1="2941.8604" y2="2961.8604"/><polygon fill="#181818" points="1098.25,2951.8604,1102.25,2961.8604,1106.25,2951.8604,1102.25,2955.8604" style="stroke:#181818;stroke-width:1.0;"/><!--SRC=[hLN9Rjj03BthAmYVuaEFlTI78a3Q7je0GLoWw95ZZILc5Wcp90YA_7ivaYnhlDHsdSju6VAHVEJZ10fQmkqgq3E5LxWZh1mQ-00FqbPLj0W_ceeib6ZJfSDQyRUbz1497XijYy87TA4eMZufK6DXjl6TmPy2uDEzD28gX1er6lRM2N5Hl6K-I_91cj73ecb9frZhnfd3BdjXR4MUG1eatINSelSlZIiNwVgx9WMXCQBHS8y-gXCP6Eb8UOHMEaCsO9OuhU7cftGQTGI1zXNLnExp748jBTpynZbZ7GcnKsOhFP_X66OguIq7oylluMBw2uGKqc6Bu153uVcNZWQCjAj686YiQ0FdGzCMKdl9vL29Qbv8MzBwdxmyesPJ9ffi6yCEAL_so8UIk2iP9rd0YmWgPWS2lE0JYJxCRB7lg7ZyEELiaARLzmMdvB-o1OPXWBeototj33eaY3x0_oTyUdBxO2sMo7m5XEYbssaKprk9QnRmE_Udht14lwujou0XUa0LEu7mnugkq5Y6KoXqR750U4ahMyqFM9qQ-NROZIofgew2LKU0fPaOdb_dPUBRBALnimtjVDY8GN1eTmax5PFhm4llaq5UhfDU1dYAHcDzd1E1AmJ7Ry58J5yX7ocrn-dDcDbjeclUOHnDRvFWyEee2NVeQz4WrtcxfJjncMXCmRv55wz0JUxxeEp_WbUWTlxxiB_IMDn7H-KLs5kGFC30Uo_4aXIFXQPBu_IJo_5sdkunK3-lb-qBmRDqUAIWmWhrLaDLJO6r1PxwTtYmBT4H2pMWXu-WECDit9QviU6NgcPnueucJjAmipN6ryOp5NKXM1cELq6UskAG_-45CEtKoDpftgITrM-mgTREsNGJk_Ess2LbT7CmJ4DQQty1]--></g></svg>