<?xml version="1.0" encoding="us-ascii" standalone="no"?><svg xmlns="http://www.w3.org/2000/svg" xmlns:xlink="http://www.w3.org/1999/xlink" contentStyleType="text/css" height="1218px" preserveAspectRatio="none" style="width:905px;height:1218px;background:#FFFFFF;" version="1.1" viewBox="0 0 905 1218" width="905px" zoomAndPan="magnify"><defs/><g><text fill="#000000" font-family="sans-serif" font-size="14" font-weight="bold" lengthAdjust="spacing" textLength="364" x="269" y="34.5332">Activity Diagram - Wali Murid Mengakses Dashboard</text><ellipse cx="549.625" cy="58.6094" fill="#222222" rx="10" ry="10" style="stroke:#222222;stroke-width:1.0;"/><rect fill="none" height="194.8906" style="stroke:#000000;stroke-width:1.5;" width="354" x="372.625" y="78.6094"/><path d="M448.625,78.6094 L448.625,89.2188 L438.625,99.2188 L372.625,99.2188 " fill="none" style="stroke:#000000;stroke-width:1.5;"/><text fill="#000000" font-family="sans-serif" font-size="14" lengthAdjust="spacing" textLength="66" x="375.625" y="94.1426">Wali Murid</text><rect fill="#F1F1F1" height="35.0938" rx="12.5" ry="12.5" style="stroke:#181818;stroke-width:0.5;" width="220" x="439.625" y="116.2188"/><text fill="#000000" font-family="sans-serif" font-size="12" lengthAdjust="spacing" textLength="200" x="449.625" y="138.6758">Wali murid membuka halaman login</text><rect fill="#F1F1F1" height="35.0938" rx="12.5" ry="12.5" style="stroke:#181818;stroke-width:0.5;" width="334" x="382.625" y="171.3125"/><text fill="#000000" font-family="sans-serif" font-size="12" lengthAdjust="spacing" textLength="314" x="392.625" y="193.7695">Wali murid memasukkan email/username dan password</text><rect fill="#F1F1F1" height="35.0938" rx="12.5" ry="12.5" style="stroke:#181818;stroke-width:0.5;" width="175" x="462.125" y="226.4063"/><text fill="#000000" font-family="sans-serif" font-size="12" lengthAdjust="spacing" textLength="155" x="472.125" y="248.8633">Wali murid klik tombol Login</text><rect fill="none" height="84.7031" style="stroke:#000000;stroke-width:1.5;" width="218" x="440.625" y="283.5"/><path d="M492.625,283.5 L492.625,294.1094 L482.625,304.1094 L440.625,304.1094 " fill="none" style="stroke:#000000;stroke-width:1.5;"/><text fill="#000000" font-family="sans-serif" font-size="14" lengthAdjust="spacing" textLength="42" x="443.625" y="299.0332">Sistem</text><rect fill="#F1F1F1" height="35.0938" rx="12.5" ry="12.5" style="stroke:#181818;stroke-width:0.5;" width="198" x="450.625" y="321.1094"/><text fill="#000000" font-family="sans-serif" font-size="12" lengthAdjust="spacing" textLength="178" x="460.625" y="343.5664">Memeriksa data login wali murid</text><polygon fill="#F1F1F1" points="521.125,388.2031,578.125,388.2031,590.125,400.2031,578.125,412.2031,521.125,412.2031,509.125,400.2031,521.125,388.2031" style="stroke:#181818;stroke-width:0.5;"/><text fill="#000000" font-family="sans-serif" font-size="11" lengthAdjust="spacing" textLength="57" x="521.125" y="404.7041">Login valid?</text><text fill="#000000" font-family="sans-serif" font-size="11" lengthAdjust="spacing" textLength="14" x="495.125" y="397.7861">Ya</text><text fill="#000000" font-family="sans-serif" font-size="11" lengthAdjust="spacing" textLength="25" x="590.125" y="397.7861">Tidak</text><rect fill="none" height="231.9844" style="stroke:#000000;stroke-width:1.5;" width="256" x="199.25" y="422.2031"/><path d="M251.25,422.2031 L251.25,432.8125 L241.25,442.8125 L199.25,442.8125 " fill="none" style="stroke:#000000;stroke-width:1.5;"/><text fill="#000000" font-family="sans-serif" font-size="14" lengthAdjust="spacing" textLength="42" x="202.25" y="437.7363">Sistem</text><rect fill="#F1F1F1" height="35.0938" rx="12.5" ry="12.5" style="stroke:#181818;stroke-width:0.5;" width="236" x="209.25" y="459.8125"/><text fill="#000000" font-family="sans-serif" font-size="12" lengthAdjust="spacing" textLength="216" x="219.25" y="482.2695">Mengarahkan ke Dashboard Wali Murid</text><rect fill="#F1F1F1" height="35.0938" rx="12.5" ry="12.5" style="stroke:#181818;stroke-width:0.5;" width="226" x="214.25" y="521.9063"/><text fill="#000000" font-family="sans-serif" font-size="12" lengthAdjust="spacing" textLength="206" x="224.25" y="544.3633">Mengambil data anak yang terhubung</text><rect fill="#F1F1F1" height="50.1875" rx="12.5" ry="12.5" style="stroke:#181818;stroke-width:0.5;" width="210" x="222.25" y="592"/><text fill="#000000" font-family="sans-serif" font-size="12" lengthAdjust="spacing" textLength="190" x="232.25" y="614.457">Mengambil ringkasan jadwal, nilai,</text><text fill="#000000" font-family="sans-serif" font-size="12" lengthAdjust="spacing" textLength="109" x="232.25" y="629.5508">dan kehadiran anak</text><polygon fill="#F1F1F1" points="279.25,674.1875,375.25,674.1875,387.25,686.1875,375.25,698.1875,279.25,698.1875,267.25,686.1875,279.25,674.1875" style="stroke:#181818;stroke-width:0.5;"/><text fill="#000000" font-family="sans-serif" font-size="11" lengthAdjust="spacing" textLength="96" x="279.25" y="690.6885">Data anak tersedia?</text><text fill="#000000" font-family="sans-serif" font-size="11" lengthAdjust="spacing" textLength="14" x="253.25" y="683.7705">Ya</text><text fill="#000000" font-family="sans-serif" font-size="11" lengthAdjust="spacing" textLength="25" x="387.25" y="683.7705">Tidak</text><rect fill="none" height="302.1719" style="stroke:#000000;stroke-width:1.5;" width="239" x="50.5" y="708.1875"/><path d="M102.5,708.1875 L102.5,718.7969 L92.5,728.7969 L50.5,728.7969 " fill="none" style="stroke:#000000;stroke-width:1.5;"/><text fill="#000000" font-family="sans-serif" font-size="14" lengthAdjust="spacing" textLength="42" x="53.5" y="723.7207">Sistem</text><rect fill="#F1F1F1" height="35.0938" rx="12.5" ry="12.5" style="stroke:#181818;stroke-width:0.5;" width="219" x="60.5" y="745.7969"/><text fill="#000000" font-family="sans-serif" font-size="12" lengthAdjust="spacing" textLength="199" x="70.5" y="768.2539">Menampilkan Dashboard Wali Murid</text><rect fill="#F1F1F1" height="35.0938" rx="12.5" ry="12.5" style="stroke:#181818;stroke-width:0.5;" width="210" x="65" y="800.8906"/><text fill="#000000" font-family="sans-serif" font-size="12" lengthAdjust="spacing" textLength="190" x="75" y="823.3477">Menampilkan Ringkasan Keluarga</text><rect fill="#F1F1F1" height="65.2813" rx="12.5" ry="12.5" style="stroke:#181818;stroke-width:0.5;" width="179" x="80.5" y="862.9844"/><text fill="#000000" font-family="sans-serif" font-size="12" lengthAdjust="spacing" textLength="148" x="90.5" y="885.4414">Menampilkan jumlah anak,</text><text fill="#000000" font-family="sans-serif" font-size="12" lengthAdjust="spacing" textLength="159" x="90.5" y="900.5352">total jadwal aktif, nilai terbaik,</text><text fill="#000000" font-family="sans-serif" font-size="12" lengthAdjust="spacing" textLength="105" x="90.5" y="915.6289">dan total kehadiran</text><rect fill="#F1F1F1" height="35.0938" rx="12.5" ry="12.5" style="stroke:#181818;stroke-width:0.5;" width="155" x="92.5" y="963.2656"/><text fill="#000000" font-family="sans-serif" font-size="12" lengthAdjust="spacing" textLength="135" x="102.5" y="985.7227">Menampilkan Profil Anak</text><rect fill="none" height="84.7031" style="stroke:#000000;stroke-width:1.5;" width="318" x="11" y="1020.3594"/><path d="M87,1020.3594 L87,1030.9688 L77,1040.9688 L11,1040.9688 " fill="none" style="stroke:#000000;stroke-width:1.5;"/><text fill="#000000" font-family="sans-serif" font-size="14" lengthAdjust="spacing" textLength="66" x="14" y="1035.8926">Wali Murid</text><rect fill="#F1F1F1" height="35.0938" rx="12.5" ry="12.5" style="stroke:#181818;stroke-width:0.5;" width="298" x="21" y="1057.9688"/><text fill="#000000" font-family="sans-serif" font-size="12" lengthAdjust="spacing" textLength="278" x="31" y="1080.4258">Wali murid melihat ringkasan perkembangan anak</text><rect fill="none" height="139.7969" style="stroke:#000000;stroke-width:1.5;" width="271" x="349" y="708.1875"/><path d="M401,708.1875 L401,718.7969 L391,728.7969 L349,728.7969 " fill="none" style="stroke:#000000;stroke-width:1.5;"/><text fill="#000000" font-family="sans-serif" font-size="14" lengthAdjust="spacing" textLength="42" x="352" y="723.7207">Sistem</text><rect fill="#F1F1F1" height="35.0938" rx="12.5" ry="12.5" style="stroke:#181818;stroke-width:0.5;" width="219" x="375" y="745.7969"/><text fill="#000000" font-family="sans-serif" font-size="12" lengthAdjust="spacing" textLength="199" x="385" y="768.2539">Menampilkan Dashboard Wali Murid</text><rect fill="#F1F1F1" height="35.0938" rx="12.5" ry="12.5" style="stroke:#181818;stroke-width:0.5;" width="251" x="359" y="800.8906"/><text fill="#000000" font-family="sans-serif" font-size="12" lengthAdjust="spacing" textLength="231" x="369" y="823.3477">Menampilkan pesan belum ada data anak</text><rect fill="none" height="107.7969" style="stroke:#000000;stroke-width:1.5;" width="238" x="365.5" y="882.9844"/><path d="M441.5,882.9844 L441.5,893.5938 L431.5,903.5938 L365.5,903.5938 " fill="none" style="stroke:#000000;stroke-width:1.5;"/><text fill="#000000" font-family="sans-serif" font-size="14" lengthAdjust="spacing" textLength="66" x="368.5" y="898.5176">Wali Murid</text><rect fill="#F1F1F1" height="50.1875" rx="12.5" ry="12.5" style="stroke:#181818;stroke-width:0.5;" width="218" x="375.5" y="920.5938"/><text fill="#000000" font-family="sans-serif" font-size="12" lengthAdjust="spacing" textLength="198" x="385.5" y="943.0508">Wali murid melihat informasi bahwa</text><text fill="#000000" font-family="sans-serif" font-size="12" lengthAdjust="spacing" textLength="177" x="385.5" y="958.1445">belum ada anak yang terhubung</text><polygon fill="#F1F1F1" points="327.25,1111.0625,339.25,1123.0625,327.25,1135.0625,315.25,1123.0625,327.25,1111.0625" style="stroke:#181818;stroke-width:0.5;"/><rect fill="none" height="84.7031" style="stroke:#000000;stroke-width:1.5;" width="216" x="664" y="422.2031"/><path d="M716,422.2031 L716,432.8125 L706,442.8125 L664,442.8125 " fill="none" style="stroke:#000000;stroke-width:1.5;"/><text fill="#000000" font-family="sans-serif" font-size="14" lengthAdjust="spacing" textLength="42" x="667" y="437.7363">Sistem</text><rect fill="#F1F1F1" height="35.0938" rx="12.5" ry="12.5" style="stroke:#181818;stroke-width:0.5;" width="196" x="674" y="459.8125"/><text fill="#000000" font-family="sans-serif" font-size="12" lengthAdjust="spacing" textLength="176" x="684" y="482.2695">Menampilkan pesan login gagal</text><rect fill="none" height="92.7031" style="stroke:#000000;stroke-width:1.5;" width="244" x="650" y="541.9063"/><path d="M726,541.9063 L726,552.5156 L716,562.5156 L650,562.5156 " fill="none" style="stroke:#000000;stroke-width:1.5;"/><text fill="#000000" font-family="sans-serif" font-size="14" lengthAdjust="spacing" textLength="66" x="653" y="557.4395">Wali Murid</text><rect fill="#F1F1F1" height="35.0938" rx="12.5" ry="12.5" style="stroke:#181818;stroke-width:0.5;" width="224" x="660" y="579.5156"/><text fill="#000000" font-family="sans-serif" font-size="12" lengthAdjust="spacing" textLength="204" x="670" y="601.9727">Wali murid kembali ke halaman login</text><polygon fill="#F1F1F1" points="549.625,1141.0625,561.625,1153.0625,549.625,1165.0625,537.625,1153.0625,549.625,1141.0625" style="stroke:#181818;stroke-width:0.5;"/><ellipse cx="549.625" cy="1196.0625" fill="none" rx="11" ry="11" style="stroke:#222222;stroke-width:1.0;"/><ellipse cx="549.625" cy="1196.0625" fill="#222222" rx="6" ry="6" style="stroke:#222222;stroke-width:1.0;"/><line style="stroke:#181818;stroke-width:1.0;" x1="549.625" x2="549.625" y1="151.3125" y2="171.3125"/><polygon fill="#181818" points="545.625,161.3125,549.625,171.3125,553.625,161.3125,549.625,165.3125" style="stroke:#181818;stroke-width:1.0;"/><line style="stroke:#181818;stroke-width:1.0;" x1="549.625" x2="549.625" y1="206.4063" y2="226.4063"/><polygon fill="#181818" points="545.625,216.4063,549.625,226.4063,553.625,216.4063,549.625,220.4063" style="stroke:#181818;stroke-width:1.0;"/><line style="stroke:#181818;stroke-width:1.0;" x1="549.625" x2="549.625" y1="68.6094" y2="116.2188"/><polygon fill="#181818" points="545.625,106.2188,549.625,116.2188,553.625,106.2188,549.625,110.2188" style="stroke:#181818;stroke-width:1.0;"/><line style="stroke:#181818;stroke-width:1.0;" x1="549.625" x2="549.625" y1="261.5" y2="321.1094"/><polygon fill="#181818" points="545.625,311.1094,549.625,321.1094,553.625,311.1094,549.625,315.1094" style="stroke:#181818;stroke-width:1.0;"/><line style="stroke:#181818;stroke-width:1.0;" x1="327.25" x2="327.25" y1="494.9063" y2="521.9063"/><polygon fill="#181818" points="323.25,511.9063,327.25,521.9063,331.25,511.9063,327.25,515.9063" style="stroke:#181818;stroke-width:1.0;"/><line style="stroke:#181818;stroke-width:1.0;" x1="327.25" x2="327.25" y1="557" y2="592"/><polygon fill="#181818" points="323.25,582,327.25,592,331.25,582,327.25,586" style="stroke:#181818;stroke-width:1.0;"/><line style="stroke:#181818;stroke-width:1.0;" x1="170" x2="170" y1="780.8906" y2="800.8906"/><polygon fill="#181818" points="166,790.8906,170,800.8906,174,790.8906,170,794.8906" style="stroke:#181818;stroke-width:1.0;"/><line style="stroke:#181818;stroke-width:1.0;" x1="170" x2="170" y1="835.9844" y2="862.9844"/><polygon fill="#181818" points="166,852.9844,170,862.9844,174,852.9844,170,856.9844" style="stroke:#181818;stroke-width:1.0;"/><line style="stroke:#181818;stroke-width:1.0;" x1="170" x2="170" y1="928.2656" y2="963.2656"/><polygon fill="#181818" points="166,953.2656,170,963.2656,174,953.2656,170,957.2656" style="stroke:#181818;stroke-width:1.0;"/><line style="stroke:#181818;stroke-width:1.0;" x1="170" x2="170" y1="998.3594" y2="1057.9688"/><polygon fill="#181818" points="166,1047.9688,170,1057.9688,174,1047.9688,170,1051.9688" style="stroke:#181818;stroke-width:1.0;"/><line style="stroke:#181818;stroke-width:1.0;" x1="484.5" x2="484.5" y1="780.8906" y2="800.8906"/><polygon fill="#181818" points="480.5,790.8906,484.5,800.8906,488.5,790.8906,484.5,794.8906" style="stroke:#181818;stroke-width:1.0;"/><line style="stroke:#181818;stroke-width:1.0;" x1="484.5" x2="484.5" y1="835.9844" y2="920.5938"/><polygon fill="#181818" points="480.5,910.5938,484.5,920.5938,488.5,910.5938,484.5,914.5938" style="stroke:#181818;stroke-width:1.0;"/><line style="stroke:#181818;stroke-width:1.0;" x1="267.25" x2="170" y1="686.1875" y2="686.1875"/><line style="stroke:#181818;stroke-width:1.0;" x1="170" x2="170" y1="686.1875" y2="745.7969"/><polygon fill="#181818" points="166,735.7969,170,745.7969,174,735.7969,170,739.7969" style="stroke:#181818;stroke-width:1.0;"/><line style="stroke:#181818;stroke-width:1.0;" x1="387.25" x2="484.5" y1="686.1875" y2="686.1875"/><line style="stroke:#181818;stroke-width:1.0;" x1="484.5" x2="484.5" y1="686.1875" y2="745.7969"/><polygon fill="#181818" points="480.5,735.7969,484.5,745.7969,488.5,735.7969,484.5,739.7969" style="stroke:#181818;stroke-width:1.0;"/><line style="stroke:#181818;stroke-width:1.0;" x1="170" x2="170" y1="1093.0625" y2="1123.0625"/><line style="stroke:#181818;stroke-width:1.0;" x1="170" x2="315.25" y1="1123.0625" y2="1123.0625"/><polygon fill="#181818" points="305.25,1119.0625,315.25,1123.0625,305.25,1127.0625,309.25,1123.0625" style="stroke:#181818;stroke-width:1.0;"/><line style="stroke:#181818;stroke-width:1.0;" x1="484.5" x2="484.5" y1="970.7813" y2="1123.0625"/><line style="stroke:#181818;stroke-width:1.0;" x1="484.5" x2="339.25" y1="1123.0625" y2="1123.0625"/><polygon fill="#181818" points="349.25,1119.0625,339.25,1123.0625,349.25,1127.0625,345.25,1123.0625" style="stroke:#181818;stroke-width:1.0;"/><line style="stroke:#181818;stroke-width:1.0;" x1="327.25" x2="327.25" y1="642.1875" y2="674.1875"/><polygon fill="#181818" points="323.25,664.1875,327.25,674.1875,331.25,664.1875,327.25,668.1875" style="stroke:#181818;stroke-width:1.0;"/><line style="stroke:#181818;stroke-width:1.0;" x1="772" x2="772" y1="494.9063" y2="579.5156"/><polygon fill="#181818" points="768,569.5156,772,579.5156,776,569.5156,772,573.5156" style="stroke:#181818;stroke-width:1.0;"/><line style="stroke:#181818;stroke-width:1.0;" x1="509.125" x2="327.25" y1="400.2031" y2="400.2031"/><line style="stroke:#181818;stroke-width:1.0;" x1="327.25" x2="327.25" y1="400.2031" y2="459.8125"/><polygon fill="#181818" points="323.25,449.8125,327.25,459.8125,331.25,449.8125,327.25,453.8125" style="stroke:#181818;stroke-width:1.0;"/><line style="stroke:#181818;stroke-width:1.0;" x1="590.125" x2="772" y1="400.2031" y2="400.2031"/><line style="stroke:#181818;stroke-width:1.0;" x1="772" x2="772" y1="400.2031" y2="459.8125"/><polygon fill="#181818" points="768,449.8125,772,459.8125,776,449.8125,772,453.8125" style="stroke:#181818;stroke-width:1.0;"/><line style="stroke:#181818;stroke-width:1.0;" x1="327.25" x2="327.25" y1="1135.0625" y2="1153.0625"/><line style="stroke:#181818;stroke-width:1.0;" x1="327.25" x2="537.625" y1="1153.0625" y2="1153.0625"/><polygon fill="#181818" points="527.625,1149.0625,537.625,1153.0625,527.625,1157.0625,531.625,1153.0625" style="stroke:#181818;stroke-width:1.0;"/><line style="stroke:#181818;stroke-width:1.0;" x1="772" x2="772" y1="614.6094" y2="1153.0625"/><line style="stroke:#181818;stroke-width:1.0;" x1="772" x2="561.625" y1="1153.0625" y2="1153.0625"/><polygon fill="#181818" points="571.625,1149.0625,561.625,1153.0625,571.625,1157.0625,567.625,1153.0625" style="stroke:#181818;stroke-width:1.0;"/><line style="stroke:#181818;stroke-width:1.0;" x1="549.625" x2="549.625" y1="356.2031" y2="388.2031"/><polygon fill="#181818" points="545.625,378.2031,549.625,388.2031,553.625,378.2031,549.625,382.2031" style="stroke:#181818;stroke-width:1.0;"/><line style="stroke:#181818;stroke-width:1.0;" x1="549.625" x2="549.625" y1="1165.0625" y2="1185.0625"/><polygon fill="#181818" points="545.625,1175.0625,549.625,1185.0625,553.625,1175.0625,549.625,1179.0625" style="stroke:#181818;stroke-width:1.0;"/><!--SRC=[lLHDYzim4BthLmnxoa9Axzr3MSYj3PIsK7fyhcHvLbz6aZSi9V-zyiSwSP9wBwK-25kUUVFU6uqoPwleyLVcPyulj6Fe24Vlw0SiqxwBB6cll8P9Aj4EgQa2eXGYPSGiH5jMpXmytPqoxkYteF9y6BRS0EAKgpe3Qc3XuCa6pVxXLXXIPqo9A6zittT9HG-dI9Qj5YaTGfJNUSQoeHnS5Inz7g6F2tRVE6NbPcPxvLHaar1mCqOsT9ZnXcokQJDWqNFv8J_UKswKfyrFt8i1vQ_mKubYMqJJQp7gvDsPjGyNqQvYEnA2Xw4NU4rPnQQhEgzl1aVssY2L4a-GXV-MF5lmLiYXQWF9iRprS6F-SQJUQzlDXKgDf2HZ8V6rsghALpfmBTjUwRhCg_2lC_zFodQ86Yl1JvspQ0RAMv53XfrK4qpcUjBUgwd0PlHW39kTM47_4aDT77sShJgpwyA7wwC-8oxEikK6-Qn7hOgcp45fww8dOw5-LJOfsdnd2VEV6j2gdbXLp7S4YTFf-xSUiAz3BAFDLA4vG9mAhfxqoHKlkHRYofmtv-z2vJZb6XfsCGnlgbhSD7q3orSPwHjtsL5CP5CExHy0]--></g></svg>