<?xml version="1.0" encoding="us-ascii" standalone="no"?><svg xmlns="http://www.w3.org/2000/svg" xmlns:xlink="http://www.w3.org/1999/xlink" contentStyleType="text/css" height="1423px" preserveAspectRatio="none" style="width:1123px;height:1423px;background:#FFFFFF;" version="1.1" viewBox="0 0 1123 1423" width="1123px" zoomAndPan="magnify"><defs/><g><text fill="#000000" font-family="sans-serif" font-size="14" font-weight="bold" lengthAdjust="spacing" textLength="345" x="387.5" y="34.5332">Activity Diagram - Wali Murid Melihat Jadwal Anak</text><ellipse cx="739.125" cy="58.6094" fill="#222222" rx="10" ry="10" style="stroke:#222222;stroke-width:1.0;"/><rect fill="none" height="194.8906" style="stroke:#000000;stroke-width:1.5;" width="354" x="562.125" y="78.6094"/><path d="M638.125,78.6094 L638.125,89.2188 L628.125,99.2188 L562.125,99.2188 " fill="none" style="stroke:#000000;stroke-width:1.5;"/><text fill="#000000" font-family="sans-serif" font-size="14" lengthAdjust="spacing" textLength="66" x="565.125" y="94.1426">Wali Murid</text><rect fill="#F1F1F1" height="35.0938" rx="12.5" ry="12.5" style="stroke:#181818;stroke-width:0.5;" width="220" x="629.125" y="116.2188"/><text fill="#000000" font-family="sans-serif" font-size="12" lengthAdjust="spacing" textLength="200" x="639.125" y="138.6758">Wali murid membuka halaman login</text><rect fill="#F1F1F1" height="35.0938" rx="12.5" ry="12.5" style="stroke:#181818;stroke-width:0.5;" width="334" x="572.125" y="171.3125"/><text fill="#000000" font-family="sans-serif" font-size="12" lengthAdjust="spacing" textLength="314" x="582.125" y="193.7695">Wali murid memasukkan email/username dan password</text><rect fill="#F1F1F1" height="35.0938" rx="12.5" ry="12.5" style="stroke:#181818;stroke-width:0.5;" width="175" x="651.625" y="226.4063"/><text fill="#000000" font-family="sans-serif" font-size="12" lengthAdjust="spacing" textLength="155" x="661.625" y="248.8633">Wali murid klik tombol Login</text><rect fill="none" height="84.7031" style="stroke:#000000;stroke-width:1.5;" width="218" x="630.125" y="283.5"/><path d="M682.125,283.5 L682.125,294.1094 L672.125,304.1094 L630.125,304.1094 " fill="none" style="stroke:#000000;stroke-width:1.5;"/><text fill="#000000" font-family="sans-serif" font-size="14" lengthAdjust="spacing" textLength="42" x="633.125" y="299.0332">Sistem</text><rect fill="#F1F1F1" height="35.0938" rx="12.5" ry="12.5" style="stroke:#181818;stroke-width:0.5;" width="198" x="640.125" y="321.1094"/><text fill="#000000" font-family="sans-serif" font-size="12" lengthAdjust="spacing" textLength="178" x="650.125" y="343.5664">Memeriksa data login wali murid</text><polygon fill="#F1F1F1" points="710.625,388.2031,767.625,388.2031,779.625,400.2031,767.625,412.2031,710.625,412.2031,698.625,400.2031,710.625,388.2031" style="stroke:#181818;stroke-width:0.5;"/><text fill="#000000" font-family="sans-serif" font-size="11" lengthAdjust="spacing" textLength="57" x="710.625" y="404.7041">Login valid?</text><text fill="#000000" font-family="sans-serif" font-size="11" lengthAdjust="spacing" textLength="14" x="684.625" y="397.7861">Ya</text><text fill="#000000" font-family="sans-serif" font-size="11" lengthAdjust="spacing" textLength="25" x="779.625" y="397.7861">Tidak</text><rect fill="none" height="154.7969" style="stroke:#000000;stroke-width:1.5;" width="254" x="361.25" y="422.2031"/><path d="M437.25,422.2031 L437.25,432.8125 L427.25,442.8125 L361.25,442.8125 " fill="none" style="stroke:#000000;stroke-width:1.5;"/><text fill="#000000" font-family="sans-serif" font-size="14" lengthAdjust="spacing" textLength="66" x="364.25" y="437.7363">Wali Murid</text><rect fill="#F1F1F1" height="35.0938" rx="12.5" ry="12.5" style="stroke:#181818;stroke-width:0.5;" width="199" x="388.75" y="459.8125"/><text fill="#000000" font-family="sans-serif" font-size="12" lengthAdjust="spacing" textLength="179" x="398.75" y="482.2695">Wali murid masuk ke dashboard</text><rect fill="#F1F1F1" height="35.0938" rx="12.5" ry="12.5" style="stroke:#181818;stroke-width:0.5;" width="234" x="371.25" y="521.9063"/><text fill="#000000" font-family="sans-serif" font-size="12" lengthAdjust="spacing" textLength="214" x="381.25" y="544.3633">Wali murid memilih menu Jadwal Anak</text><rect fill="none" height="99.7969" style="stroke:#000000;stroke-width:1.5;" width="246" x="365.25" y="612"/><path d="M417.25,612 L417.25,622.6094 L407.25,632.6094 L365.25,632.6094 " fill="none" style="stroke:#000000;stroke-width:1.5;"/><text fill="#000000" font-family="sans-serif" font-size="14" lengthAdjust="spacing" textLength="42" x="368.25" y="627.5332">Sistem</text><rect fill="#F1F1F1" height="50.1875" rx="12.5" ry="12.5" style="stroke:#181818;stroke-width:0.5;" width="226" x="375.25" y="649.6094"/><text fill="#000000" font-family="sans-serif" font-size="12" lengthAdjust="spacing" textLength="206" x="385.25" y="672.0664">Mengambil data anak yang terhubung</text><text fill="#000000" font-family="sans-serif" font-size="12" lengthAdjust="spacing" textLength="102" x="385.25" y="687.1602">dengan wali murid</text><polygon fill="#F1F1F1" points="440.25,731.7969,536.25,731.7969,548.25,743.7969,536.25,755.7969,440.25,755.7969,428.25,743.7969,440.25,731.7969" style="stroke:#181818;stroke-width:0.5;"/><text fill="#000000" font-family="sans-serif" font-size="11" lengthAdjust="spacing" textLength="96" x="440.25" y="748.2979">Data anak tersedia?</text><text fill="#000000" font-family="sans-serif" font-size="11" lengthAdjust="spacing" textLength="14" x="414.25" y="741.3799">Ya</text><text fill="#000000" font-family="sans-serif" font-size="11" lengthAdjust="spacing" textLength="25" x="548.25" y="741.3799">Tidak</text><rect fill="none" height="84.7031" style="stroke:#000000;stroke-width:1.5;" width="248" x="150" y="765.7969"/><path d="M202,765.7969 L202,776.4063 L192,786.4063 L150,786.4063 " fill="none" style="stroke:#000000;stroke-width:1.5;"/><text fill="#000000" font-family="sans-serif" font-size="14" lengthAdjust="spacing" textLength="42" x="153" y="781.3301">Sistem</text><rect fill="#F1F1F1" height="35.0938" rx="12.5" ry="12.5" style="stroke:#181818;stroke-width:0.5;" width="228" x="160" y="803.4063"/><text fill="#000000" font-family="sans-serif" font-size="12" lengthAdjust="spacing" textLength="208" x="170" y="825.8633">Mengambil jadwal belajar setiap anak</text><polygon fill="#F1F1F1" points="219.5,885.5,328.5,885.5,340.5,897.5,328.5,909.5,219.5,909.5,207.5,897.5,219.5,885.5" style="stroke:#181818;stroke-width:0.5;"/><text fill="#000000" font-family="sans-serif" font-size="11" lengthAdjust="spacing" textLength="109" x="219.5" y="902.001">Jadwal anak tersedia?</text><text fill="#000000" font-family="sans-serif" font-size="11" lengthAdjust="spacing" textLength="14" x="193.5" y="895.083">Ya</text><text fill="#000000" font-family="sans-serif" font-size="11" lengthAdjust="spacing" textLength="25" x="340.5" y="895.083">Tidak</text><rect fill="none" height="241.0781" style="stroke:#000000;stroke-width:1.5;" width="238" x="18.5" y="919.5"/><path d="M70.5,919.5 L70.5,930.1094 L60.5,940.1094 L18.5,940.1094 " fill="none" style="stroke:#000000;stroke-width:1.5;"/><text fill="#000000" font-family="sans-serif" font-size="14" lengthAdjust="spacing" textLength="42" x="21.5" y="935.0332">Sistem</text><rect fill="#F1F1F1" height="35.0938" rx="12.5" ry="12.5" style="stroke:#181818;stroke-width:0.5;" width="218" x="28.5" y="957.1094"/><text fill="#000000" font-family="sans-serif" font-size="12" lengthAdjust="spacing" textLength="198" x="38.5" y="979.5664">Menampilkan halaman Jadwal Anak</text><rect fill="#F1F1F1" height="35.0938" rx="12.5" ry="12.5" style="stroke:#181818;stroke-width:0.5;" width="218" x="28.5" y="1027.2031"/><text fill="#000000" font-family="sans-serif" font-size="12" lengthAdjust="spacing" textLength="198" x="38.5" y="1049.6602">Menampilkan daftar jadwal per anak</text><rect fill="#F1F1F1" height="50.1875" rx="12.5" ry="12.5" style="stroke:#181818;stroke-width:0.5;" width="203" x="36" y="1090.3906"/><text fill="#000000" font-family="sans-serif" font-size="12" lengthAdjust="spacing" textLength="183" x="46" y="1112.8477">Menampilkan informasi hari, jam,</text><text fill="#000000" font-family="sans-serif" font-size="12" lengthAdjust="spacing" textLength="138" x="46" y="1127.9414">guru, dan mata pelajaran</text><rect fill="none" height="84.7031" style="stroke:#000000;stroke-width:1.5;" width="253" x="11" y="1195.5781"/><path d="M87,1195.5781 L87,1206.1875 L77,1216.1875 L11,1216.1875 " fill="none" style="stroke:#000000;stroke-width:1.5;"/><text fill="#000000" font-family="sans-serif" font-size="14" lengthAdjust="spacing" textLength="66" x="14" y="1211.1113">Wali Murid</text><rect fill="#F1F1F1" height="35.0938" rx="12.5" ry="12.5" style="stroke:#181818;stroke-width:0.5;" width="233" x="21" y="1233.1875"/><text fill="#000000" font-family="sans-serif" font-size="12" lengthAdjust="spacing" textLength="213" x="31" y="1255.6445">Wali murid melihat jadwal belajar anak</text><rect fill="none" height="155.8906" style="stroke:#000000;stroke-width:1.5;" width="253" x="284" y="919.5"/><path d="M336,919.5 L336,930.1094 L326,940.1094 L284,940.1094 " fill="none" style="stroke:#000000;stroke-width:1.5;"/><text fill="#000000" font-family="sans-serif" font-size="14" lengthAdjust="spacing" textLength="42" x="287" y="935.0332">Sistem</text><rect fill="#F1F1F1" height="35.0938" rx="12.5" ry="12.5" style="stroke:#181818;stroke-width:0.5;" width="218" x="301.5" y="957.1094"/><text fill="#000000" font-family="sans-serif" font-size="12" lengthAdjust="spacing" textLength="198" x="311.5" y="979.5664">Menampilkan halaman Jadwal Anak</text><rect fill="#F1F1F1" height="35.0938" rx="12.5" ry="12.5" style="stroke:#181818;stroke-width:0.5;" width="233" x="294" y="1027.2031"/><text fill="#000000" font-family="sans-serif" font-size="12" lengthAdjust="spacing" textLength="213" x="304" y="1049.6602">Menampilkan pesan belum ada jadwal</text><rect fill="none" height="107.7969" style="stroke:#000000;stroke-width:1.5;" width="238" x="291.5" y="1110.3906"/><path d="M367.5,1110.3906 L367.5,1121 L357.5,1131 L291.5,1131 " fill="none" style="stroke:#000000;stroke-width:1.5;"/><text fill="#000000" font-family="sans-serif" font-size="14" lengthAdjust="spacing" textLength="66" x="294.5" y="1125.9238">Wali Murid</text><rect fill="#F1F1F1" height="50.1875" rx="12.5" ry="12.5" style="stroke:#181818;stroke-width:0.5;" width="218" x="301.5" y="1148"/><text fill="#000000" font-family="sans-serif" font-size="12" lengthAdjust="spacing" textLength="198" x="311.5" y="1170.457">Wali murid melihat informasi bahwa</text><text fill="#000000" font-family="sans-serif" font-size="12" lengthAdjust="spacing" textLength="152" x="311.5" y="1185.5508">jadwal anak belum tersedia</text><polygon fill="#F1F1F1" points="274,1286.2813,286,1298.2813,274,1310.2813,262,1298.2813,274,1286.2813" style="stroke:#181818;stroke-width:0.5;"/><rect fill="none" height="154.7969" style="stroke:#000000;stroke-width:1.5;" width="271" x="567" y="765.7969"/><path d="M619,765.7969 L619,776.4063 L609,786.4063 L567,786.4063 " fill="none" style="stroke:#000000;stroke-width:1.5;"/><text fill="#000000" font-family="sans-serif" font-size="14" lengthAdjust="spacing" textLength="42" x="570" y="781.3301">Sistem</text><rect fill="#F1F1F1" height="35.0938" rx="12.5" ry="12.5" style="stroke:#181818;stroke-width:0.5;" width="218" x="593.5" y="803.4063"/><text fill="#000000" font-family="sans-serif" font-size="12" lengthAdjust="spacing" textLength="198" x="603.5" y="825.8633">Menampilkan halaman Jadwal Anak</text><rect fill="#F1F1F1" height="35.0938" rx="12.5" ry="12.5" style="stroke:#181818;stroke-width:0.5;" width="251" x="577" y="865.5"/><text fill="#000000" font-family="sans-serif" font-size="12" lengthAdjust="spacing" textLength="231" x="587" y="887.957">Menampilkan pesan belum ada data anak</text><rect fill="none" height="107.7969" style="stroke:#000000;stroke-width:1.5;" width="238" x="583.5" y="955.5938"/><path d="M659.5,955.5938 L659.5,966.2031 L649.5,976.2031 L583.5,976.2031 " fill="none" style="stroke:#000000;stroke-width:1.5;"/><text fill="#000000" font-family="sans-serif" font-size="14" lengthAdjust="spacing" textLength="66" x="586.5" y="971.127">Wali Murid</text><rect fill="#F1F1F1" height="50.1875" rx="12.5" ry="12.5" style="stroke:#181818;stroke-width:0.5;" width="218" x="593.5" y="993.2031"/><text fill="#000000" font-family="sans-serif" font-size="12" lengthAdjust="spacing" textLength="198" x="603.5" y="1015.6602">Wali murid melihat informasi bahwa</text><text fill="#000000" font-family="sans-serif" font-size="12" lengthAdjust="spacing" textLength="177" x="603.5" y="1030.7539">belum ada anak yang terhubung</text><polygon fill="#F1F1F1" points="488.25,1316.2813,500.25,1328.2813,488.25,1340.2813,476.25,1328.2813,488.25,1316.2813" style="stroke:#181818;stroke-width:0.5;"/><rect fill="none" height="84.7031" style="stroke:#000000;stroke-width:1.5;" width="216" x="882" y="422.2031"/><path d="M934,422.2031 L934,432.8125 L924,442.8125 L882,442.8125 " fill="none" style="stroke:#000000;stroke-width:1.5;"/><text fill="#000000" font-family="sans-serif" font-size="14" lengthAdjust="spacing" textLength="42" x="885" y="437.7363">Sistem</text><rect fill="#F1F1F1" height="35.0938" rx="12.5" ry="12.5" style="stroke:#181818;stroke-width:0.5;" width="196" x="892" y="459.8125"/><text fill="#000000" font-family="sans-serif" font-size="12" lengthAdjust="spacing" textLength="176" x="902" y="482.2695">Menampilkan pesan login gagal</text><rect fill="none" height="92.7031" style="stroke:#000000;stroke-width:1.5;" width="244" x="868" y="541.9063"/><path d="M944,541.9063 L944,552.5156 L934,562.5156 L868,562.5156 " fill="none" style="stroke:#000000;stroke-width:1.5;"/><text fill="#000000" font-family="sans-serif" font-size="14" lengthAdjust="spacing" textLength="66" x="871" y="557.4395">Wali Murid</text><rect fill="#F1F1F1" height="35.0938" rx="12.5" ry="12.5" style="stroke:#181818;stroke-width:0.5;" width="224" x="878" y="579.5156"/><text fill="#000000" font-family="sans-serif" font-size="12" lengthAdjust="spacing" textLength="204" x="888" y="601.9727">Wali murid kembali ke halaman login</text><polygon fill="#F1F1F1" points="739.125,1346.2813,751.125,1358.2813,739.125,1370.2813,727.125,1358.2813,739.125,1346.2813" style="stroke:#181818;stroke-width:0.5;"/><ellipse cx="739.125" cy="1401.2813" fill="none" rx="11" ry="11" style="stroke:#222222;stroke-width:1.0;"/><ellipse cx="739.125" cy="1401.2813" fill="#222222" rx="6" ry="6" style="stroke:#222222;stroke-width:1.0;"/><line style="stroke:#181818;stroke-width:1.0;" x1="739.125" x2="739.125" y1="151.3125" y2="171.3125"/><polygon fill="#181818" points="735.125,161.3125,739.125,171.3125,743.125,161.3125,739.125,165.3125" style="stroke:#181818;stroke-width:1.0;"/><line style="stroke:#181818;stroke-width:1.0;" x1="739.125" x2="739.125" y1="206.4063" y2="226.4063"/><polygon fill="#181818" points="735.125,216.4063,739.125,226.4063,743.125,216.4063,739.125,220.4063" style="stroke:#181818;stroke-width:1.0;"/><line style="stroke:#181818;stroke-width:1.0;" x1="739.125" x2="739.125" y1="68.6094" y2="116.2188"/><polygon fill="#181818" points="735.125,106.2188,739.125,116.2188,743.125,106.2188,739.125,110.2188" style="stroke:#181818;stroke-width:1.0;"/><line style="stroke:#181818;stroke-width:1.0;" x1="739.125" x2="739.125" y1="261.5" y2="321.1094"/><polygon fill="#181818" points="735.125,311.1094,739.125,321.1094,743.125,311.1094,739.125,315.1094" style="stroke:#181818;stroke-width:1.0;"/><line style="stroke:#181818;stroke-width:1.0;" x1="488.25" x2="488.25" y1="494.9063" y2="521.9063"/><polygon fill="#181818" points="484.25,511.9063,488.25,521.9063,492.25,511.9063,488.25,515.9063" style="stroke:#181818;stroke-width:1.0;"/><line style="stroke:#181818;stroke-width:1.0;" x1="488.25" x2="488.25" y1="557" y2="649.6094"/><polygon fill="#181818" points="484.25,639.6094,488.25,649.6094,492.25,639.6094,488.25,643.6094" style="stroke:#181818;stroke-width:1.0;"/><line style="stroke:#181818;stroke-width:1.0;" x1="137.5" x2="137.5" y1="992.2031" y2="1027.2031"/><polygon fill="#181818" points="133.5,1017.2031,137.5,1027.2031,141.5,1017.2031,137.5,1021.2031" style="stroke:#181818;stroke-width:1.0;"/><line style="stroke:#181818;stroke-width:1.0;" x1="137.5" x2="137.5" y1="1062.2969" y2="1090.3906"/><polygon fill="#181818" points="133.5,1080.3906,137.5,1090.3906,141.5,1080.3906,137.5,1084.3906" style="stroke:#181818;stroke-width:1.0;"/><line style="stroke:#181818;stroke-width:1.0;" x1="137.5" x2="137.5" y1="1140.5781" y2="1233.1875"/><polygon fill="#181818" points="133.5,1223.1875,137.5,1233.1875,141.5,1223.1875,137.5,1227.1875" style="stroke:#181818;stroke-width:1.0;"/><line style="stroke:#181818;stroke-width:1.0;" x1="410.5" x2="410.5" y1="992.2031" y2="1027.2031"/><polygon fill="#181818" points="406.5,1017.2031,410.5,1027.2031,414.5,1017.2031,410.5,1021.2031" style="stroke:#181818;stroke-width:1.0;"/><line style="stroke:#181818;stroke-width:1.0;" x1="410.5" x2="410.5" y1="1062.2969" y2="1148"/><polygon fill="#181818" points="406.5,1138,410.5,1148,414.5,1138,410.5,1142" style="stroke:#181818;stroke-width:1.0;"/><line style="stroke:#181818;stroke-width:1.0;" x1="207.5" x2="137.5" y1="897.5" y2="897.5"/><line style="stroke:#181818;stroke-width:1.0;" x1="137.5" x2="137.5" y1="897.5" y2="957.1094"/><polygon fill="#181818" points="133.5,947.1094,137.5,957.1094,141.5,947.1094,137.5,951.1094" style="stroke:#181818;stroke-width:1.0;"/><line style="stroke:#181818;stroke-width:1.0;" x1="340.5" x2="410.5" y1="897.5" y2="897.5"/><line style="stroke:#181818;stroke-width:1.0;" x1="410.5" x2="410.5" y1="897.5" y2="957.1094"/><polygon fill="#181818" points="406.5,947.1094,410.5,957.1094,414.5,947.1094,410.5,951.1094" style="stroke:#181818;stroke-width:1.0;"/><line style="stroke:#181818;stroke-width:1.0;" x1="137.5" x2="137.5" y1="1268.2813" y2="1298.2813"/><line style="stroke:#181818;stroke-width:1.0;" x1="137.5" x2="262" y1="1298.2813" y2="1298.2813"/><polygon fill="#181818" points="252,1294.2813,262,1298.2813,252,1302.2813,256,1298.2813" style="stroke:#181818;stroke-width:1.0;"/><line style="stroke:#181818;stroke-width:1.0;" x1="410.5" x2="410.5" y1="1198.1875" y2="1298.2813"/><line style="stroke:#181818;stroke-width:1.0;" x1="410.5" x2="286" y1="1298.2813" y2="1298.2813"/><polygon fill="#181818" points="296,1294.2813,286,1298.2813,296,1302.2813,292,1298.2813" style="stroke:#181818;stroke-width:1.0;"/><line style="stroke:#181818;stroke-width:1.0;" x1="274" x2="274" y1="838.5" y2="885.5"/><polygon fill="#181818" points="270,875.5,274,885.5,278,875.5,274,879.5" style="stroke:#181818;stroke-width:1.0;"/><line style="stroke:#181818;stroke-width:1.0;" x1="702.5" x2="702.5" y1="838.5" y2="865.5"/><polygon fill="#181818" points="698.5,855.5,702.5,865.5,706.5,855.5,702.5,859.5" style="stroke:#181818;stroke-width:1.0;"/><line style="stroke:#181818;stroke-width:1.0;" x1="702.5" x2="702.5" y1="900.5938" y2="993.2031"/><polygon fill="#181818" points="698.5,983.2031,702.5,993.2031,706.5,983.2031,702.5,987.2031" style="stroke:#181818;stroke-width:1.0;"/><line style="stroke:#181818;stroke-width:1.0;" x1="428.25" x2="274" y1="743.7969" y2="743.7969"/><line style="stroke:#181818;stroke-width:1.0;" x1="274" x2="274" y1="743.7969" y2="803.4063"/><polygon fill="#181818" points="270,793.4063,274,803.4063,278,793.4063,274,797.4063" style="stroke:#181818;stroke-width:1.0;"/><line style="stroke:#181818;stroke-width:1.0;" x1="548.25" x2="702.5" y1="743.7969" y2="743.7969"/><line style="stroke:#181818;stroke-width:1.0;" x1="702.5" x2="702.5" y1="743.7969" y2="803.4063"/><polygon fill="#181818" points="698.5,793.4063,702.5,803.4063,706.5,793.4063,702.5,797.4063" style="stroke:#181818;stroke-width:1.0;"/><line style="stroke:#181818;stroke-width:1.0;" x1="274" x2="274" y1="1310.2813" y2="1328.2813"/><line style="stroke:#181818;stroke-width:1.0;" x1="274" x2="476.25" y1="1328.2813" y2="1328.2813"/><polygon fill="#181818" points="466.25,1324.2813,476.25,1328.2813,466.25,1332.2813,470.25,1328.2813" style="stroke:#181818;stroke-width:1.0;"/><line style="stroke:#181818;stroke-width:1.0;" x1="702.5" x2="702.5" y1="1043.3906" y2="1328.2813"/><line style="stroke:#181818;stroke-width:1.0;" x1="702.5" x2="500.25" y1="1328.2813" y2="1328.2813"/><polygon fill="#181818" points="510.25,1324.2813,500.25,1328.2813,510.25,1332.2813,506.25,1328.2813" style="stroke:#181818;stroke-width:1.0;"/><line style="stroke:#181818;stroke-width:1.0;" x1="488.25" x2="488.25" y1="699.7969" y2="731.7969"/><polygon fill="#181818" points="484.25,721.7969,488.25,731.7969,492.25,721.7969,488.25,725.7969" style="stroke:#181818;stroke-width:1.0;"/><line style="stroke:#181818;stroke-width:1.0;" x1="990" x2="990" y1="494.9063" y2="579.5156"/><polygon fill="#181818" points="986,569.5156,990,579.5156,994,569.5156,990,573.5156" style="stroke:#181818;stroke-width:1.0;"/><line style="stroke:#181818;stroke-width:1.0;" x1="698.625" x2="488.25" y1="400.2031" y2="400.2031"/><line style="stroke:#181818;stroke-width:1.0;" x1="488.25" x2="488.25" y1="400.2031" y2="459.8125"/><polygon fill="#181818" points="484.25,449.8125,488.25,459.8125,492.25,449.8125,488.25,453.8125" style="stroke:#181818;stroke-width:1.0;"/><line style="stroke:#181818;stroke-width:1.0;" x1="779.625" x2="990" y1="400.2031" y2="400.2031"/><line style="stroke:#181818;stroke-width:1.0;" x1="990" x2="990" y1="400.2031" y2="459.8125"/><polygon fill="#181818" points="986,449.8125,990,459.8125,994,449.8125,990,453.8125" style="stroke:#181818;stroke-width:1.0;"/><line style="stroke:#181818;stroke-width:1.0;" x1="488.25" x2="488.25" y1="1340.2813" y2="1358.2813"/><line style="stroke:#181818;stroke-width:1.0;" x1="488.25" x2="727.125" y1="1358.2813" y2="1358.2813"/><polygon fill="#181818" points="717.125,1354.2813,727.125,1358.2813,717.125,1362.2813,721.125,1358.2813" style="stroke:#181818;stroke-width:1.0;"/><line style="stroke:#181818;stroke-width:1.0;" x1="990" x2="990" y1="614.6094" y2="1358.2813"/><line style="stroke:#181818;stroke-width:1.0;" x1="990" x2="751.125" y1="1358.2813" y2="1358.2813"/><polygon fill="#181818" points="761.125,1354.2813,751.125,1358.2813,761.125,1362.2813,757.125,1358.2813" style="stroke:#181818;stroke-width:1.0;"/><line style="stroke:#181818;stroke-width:1.0;" x1="739.125" x2="739.125" y1="356.2031" y2="388.2031"/><polygon fill="#181818" points="735.125,378.2031,739.125,388.2031,743.125,378.2031,739.125,382.2031" style="stroke:#181818;stroke-width:1.0;"/><line style="stroke:#181818;stroke-width:1.0;" x1="739.125" x2="739.125" y1="1370.2813" y2="1390.2813"/><polygon fill="#181818" points="735.125,1380.2813,739.125,1390.2813,743.125,1380.2813,739.125,1384.2813" style="stroke:#181818;stroke-width:1.0;"/><!--SRC=[lPLDRvj048Rl_8fHJexaglVqK4NAgQfFhHJrE7JNCDuFq7x4YYh-UmSMC1ZYe4gf3vYFdPdtVPWT0WKjuV5te1SAh_14M3Wqy0cUKHCSeYC11wcfn03VK9nHmwD5bMK-e0jPLlEH0bKMxYuHT_0d0_uzTBTCbyH8aqU5KA96WnPqLP3zihOCVLIAL_0PwS_HIsVHI11ygqRlpvKJopYbIK6eJ5vf-9vIDpDrFyW7QKPb1sca8-MHymPCQk0yvkkYwGYxBXUyy0FnzHv2AItiVk5zrcMvQNxXhFK5gZNYoxp2mSKA0MBU_6_Z57bQtImgputrvco19YUTp257molQ0e9qPSoZBJBHBfaxdgHldJ-DeHpbfI2S0HYAtLHofUQKtEHIumaTU1a8wwx61KMlO53H0tXVnoOjWnuqDUcsnuPkN71-CqBWaJj_i59BTwL_DOZiiNBS0CG57Uqvskop8hguxzhQjAZhH0NjFDU4nwQMMs-fj86l-2-5D-ELr5x2xYS9LF-VSIqz7rbcD802UzqVn-NoUd8ipvYT9asNL0ojzoOkA-YO5AsIsxHBjXExIMlSywkRQXEeBP0k1LVcoxJqXC-2pRjpxCfbcjC55aCxDFymYHL_YjehdiKhNwCcwyNwKDL_0G00]--></g></svg>