<?xml version="1.0" encoding="us-ascii" standalone="no"?><svg xmlns="http://www.w3.org/2000/svg" xmlns:xlink="http://www.w3.org/1999/xlink" contentStyleType="text/css" height="1435px" preserveAspectRatio="none" style="width:1143px;height:1435px;background:#FFFFFF;" version="1.1" viewBox="0 0 1143 1435" width="1143px" zoomAndPan="magnify"><defs/><g><text fill="#000000" font-family="sans-serif" font-size="14" font-weight="bold" lengthAdjust="spacing" textLength="327" x="406.5" y="34.5332">Activity Diagram - Wali Murid Melihat Nilai Anak</text><ellipse cx="759.5" cy="58.6094" fill="#222222" rx="10" ry="10" style="stroke:#222222;stroke-width:1.0;"/><rect fill="none" height="194.8906" style="stroke:#000000;stroke-width:1.5;" width="354" x="582.5" y="78.6094"/><path d="M658.5,78.6094 L658.5,89.2188 L648.5,99.2188 L582.5,99.2188 " fill="none" style="stroke:#000000;stroke-width:1.5;"/><text fill="#000000" font-family="sans-serif" font-size="14" lengthAdjust="spacing" textLength="66" x="585.5" y="94.1426">Wali Murid</text><rect fill="#F1F1F1" height="35.0938" rx="12.5" ry="12.5" style="stroke:#181818;stroke-width:0.5;" width="220" x="649.5" y="116.2188"/><text fill="#000000" font-family="sans-serif" font-size="12" lengthAdjust="spacing" textLength="200" x="659.5" y="138.6758">Wali murid membuka halaman login</text><rect fill="#F1F1F1" height="35.0938" rx="12.5" ry="12.5" style="stroke:#181818;stroke-width:0.5;" width="334" x="592.5" y="171.3125"/><text fill="#000000" font-family="sans-serif" font-size="12" lengthAdjust="spacing" textLength="314" x="602.5" y="193.7695">Wali murid memasukkan email/username dan password</text><rect fill="#F1F1F1" height="35.0938" rx="12.5" ry="12.5" style="stroke:#181818;stroke-width:0.5;" width="175" x="672" y="226.4063"/><text fill="#000000" font-family="sans-serif" font-size="12" lengthAdjust="spacing" textLength="155" x="682" y="248.8633">Wali murid klik tombol Login</text><rect fill="none" height="84.7031" style="stroke:#000000;stroke-width:1.5;" width="218" x="650.5" y="283.5"/><path d="M702.5,283.5 L702.5,294.1094 L692.5,304.1094 L650.5,304.1094 " fill="none" style="stroke:#000000;stroke-width:1.5;"/><text fill="#000000" font-family="sans-serif" font-size="14" lengthAdjust="spacing" textLength="42" x="653.5" y="299.0332">Sistem</text><rect fill="#F1F1F1" height="35.0938" rx="12.5" ry="12.5" style="stroke:#181818;stroke-width:0.5;" width="198" x="660.5" y="321.1094"/><text fill="#000000" font-family="sans-serif" font-size="12" lengthAdjust="spacing" textLength="178" x="670.5" y="343.5664">Memeriksa data login wali murid</text><polygon fill="#F1F1F1" points="731,388.2031,788,388.2031,800,400.2031,788,412.2031,731,412.2031,719,400.2031,731,388.2031" style="stroke:#181818;stroke-width:0.5;"/><text fill="#000000" font-family="sans-serif" font-size="11" lengthAdjust="spacing" textLength="57" x="731" y="404.7041">Login valid?</text><text fill="#000000" font-family="sans-serif" font-size="11" lengthAdjust="spacing" textLength="14" x="705" y="397.7861">Ya</text><text fill="#000000" font-family="sans-serif" font-size="11" lengthAdjust="spacing" textLength="25" x="800" y="397.7861">Tidak</text><rect fill="none" height="154.7969" style="stroke:#000000;stroke-width:1.5;" width="240" x="389" y="422.2031"/><path d="M465,422.2031 L465,432.8125 L455,442.8125 L389,442.8125 " fill="none" style="stroke:#000000;stroke-width:1.5;"/><text fill="#000000" font-family="sans-serif" font-size="14" lengthAdjust="spacing" textLength="66" x="392" y="437.7363">Wali Murid</text><rect fill="#F1F1F1" height="35.0938" rx="12.5" ry="12.5" style="stroke:#181818;stroke-width:0.5;" width="199" x="409.5" y="459.8125"/><text fill="#000000" font-family="sans-serif" font-size="12" lengthAdjust="spacing" textLength="179" x="419.5" y="482.2695">Wali murid masuk ke dashboard</text><rect fill="#F1F1F1" height="35.0938" rx="12.5" ry="12.5" style="stroke:#181818;stroke-width:0.5;" width="220" x="399" y="521.9063"/><text fill="#000000" font-family="sans-serif" font-size="12" lengthAdjust="spacing" textLength="200" x="409" y="544.3633">Wali murid memilih menu Nilai Anak</text><rect fill="none" height="99.7969" style="stroke:#000000;stroke-width:1.5;" width="246" x="386" y="612"/><path d="M438,612 L438,622.6094 L428,632.6094 L386,632.6094 " fill="none" style="stroke:#000000;stroke-width:1.5;"/><text fill="#000000" font-family="sans-serif" font-size="14" lengthAdjust="spacing" textLength="42" x="389" y="627.5332">Sistem</text><rect fill="#F1F1F1" height="50.1875" rx="12.5" ry="12.5" style="stroke:#181818;stroke-width:0.5;" width="226" x="396" y="649.6094"/><text fill="#000000" font-family="sans-serif" font-size="12" lengthAdjust="spacing" textLength="206" x="406" y="672.0664">Mengambil data anak yang terhubung</text><text fill="#000000" font-family="sans-serif" font-size="12" lengthAdjust="spacing" textLength="102" x="406" y="687.1602">dengan wali murid</text><polygon fill="#F1F1F1" points="461,731.7969,557,731.7969,569,743.7969,557,755.7969,461,755.7969,449,743.7969,461,731.7969" style="stroke:#181818;stroke-width:0.5;"/><text fill="#000000" font-family="sans-serif" font-size="11" lengthAdjust="spacing" textLength="96" x="461" y="748.2979">Data anak tersedia?</text><text fill="#000000" font-family="sans-serif" font-size="11" lengthAdjust="spacing" textLength="14" x="435" y="741.3799">Ya</text><text fill="#000000" font-family="sans-serif" font-size="11" lengthAdjust="spacing" textLength="25" x="569" y="741.3799">Tidak</text><rect fill="none" height="84.7031" style="stroke:#000000;stroke-width:1.5;" width="221" x="185" y="765.7969"/><path d="M237,765.7969 L237,776.4063 L227,786.4063 L185,786.4063 " fill="none" style="stroke:#000000;stroke-width:1.5;"/><text fill="#000000" font-family="sans-serif" font-size="14" lengthAdjust="spacing" textLength="42" x="188" y="781.3301">Sistem</text><rect fill="#F1F1F1" height="35.0938" rx="12.5" ry="12.5" style="stroke:#181818;stroke-width:0.5;" width="201" x="195" y="803.4063"/><text fill="#000000" font-family="sans-serif" font-size="12" lengthAdjust="spacing" textLength="181" x="205" y="825.8633">Mengambil data nilai setiap anak</text><polygon fill="#F1F1F1" points="249,885.5,342,885.5,354,897.5,342,909.5,249,909.5,237,897.5,249,885.5" style="stroke:#181818;stroke-width:0.5;"/><text fill="#000000" font-family="sans-serif" font-size="11" lengthAdjust="spacing" textLength="93" x="249" y="902.001">Nilai anak tersedia?</text><text fill="#000000" font-family="sans-serif" font-size="11" lengthAdjust="spacing" textLength="14" x="223" y="895.083">Ya</text><text fill="#000000" font-family="sans-serif" font-size="11" lengthAdjust="spacing" textLength="25" x="354" y="895.083">Tidak</text><rect fill="none" height="256.1719" style="stroke:#000000;stroke-width:1.5;" width="235" x="36.5" y="919.5"/><path d="M88.5,919.5 L88.5,930.1094 L78.5,940.1094 L36.5,940.1094 " fill="none" style="stroke:#000000;stroke-width:1.5;"/><text fill="#000000" font-family="sans-serif" font-size="14" lengthAdjust="spacing" textLength="42" x="39.5" y="935.0332">Sistem</text><rect fill="#F1F1F1" height="35.0938" rx="12.5" ry="12.5" style="stroke:#181818;stroke-width:0.5;" width="204" x="52" y="957.1094"/><text fill="#000000" font-family="sans-serif" font-size="12" lengthAdjust="spacing" textLength="184" x="62" y="979.5664">Menampilkan halaman Nilai Anak</text><rect fill="#F1F1F1" height="35.0938" rx="12.5" ry="12.5" style="stroke:#181818;stroke-width:0.5;" width="205" x="51.5" y="1027.2031"/><text fill="#000000" font-family="sans-serif" font-size="12" lengthAdjust="spacing" textLength="185" x="61.5" y="1049.6602">Menampilkan rekap nilai per anak</text><rect fill="#F1F1F1" height="65.2813" rx="12.5" ry="12.5" style="stroke:#181818;stroke-width:0.5;" width="215" x="46.5" y="1090.3906"/><text fill="#000000" font-family="sans-serif" font-size="12" lengthAdjust="spacing" textLength="195" x="56.5" y="1112.8477">Menampilkan informasi pertemuan,</text><text fill="#000000" font-family="sans-serif" font-size="12" lengthAdjust="spacing" textLength="130" x="56.5" y="1127.9414">tipe nilai, predikat, guru,</text><text fill="#000000" font-family="sans-serif" font-size="12" lengthAdjust="spacing" textLength="92" x="56.5" y="1143.0352">dan catatan guru</text><rect fill="none" height="84.7031" style="stroke:#000000;stroke-width:1.5;" width="286" x="11" y="1208.1875"/><path d="M87,1208.1875 L87,1218.7969 L77,1228.7969 L11,1228.7969 " fill="none" style="stroke:#000000;stroke-width:1.5;"/><text fill="#000000" font-family="sans-serif" font-size="14" lengthAdjust="spacing" textLength="66" x="14" y="1223.7207">Wali Murid</text><rect fill="#F1F1F1" height="35.0938" rx="12.5" ry="12.5" style="stroke:#181818;stroke-width:0.5;" width="266" x="21" y="1245.7969"/><text fill="#000000" font-family="sans-serif" font-size="12" lengthAdjust="spacing" textLength="246" x="31" y="1268.2539">Wali murid melihat perkembangan nilai anak</text><rect fill="none" height="155.8906" style="stroke:#000000;stroke-width:1.5;" width="240" x="317" y="919.5"/><path d="M369,919.5 L369,930.1094 L359,940.1094 L317,940.1094 " fill="none" style="stroke:#000000;stroke-width:1.5;"/><text fill="#000000" font-family="sans-serif" font-size="14" lengthAdjust="spacing" textLength="42" x="320" y="935.0332">Sistem</text><rect fill="#F1F1F1" height="35.0938" rx="12.5" ry="12.5" style="stroke:#181818;stroke-width:0.5;" width="204" x="335" y="957.1094"/><text fill="#000000" font-family="sans-serif" font-size="12" lengthAdjust="spacing" textLength="184" x="345" y="979.5664">Menampilkan halaman Nilai Anak</text><rect fill="#F1F1F1" height="35.0938" rx="12.5" ry="12.5" style="stroke:#181818;stroke-width:0.5;" width="220" x="327" y="1027.2031"/><text fill="#000000" font-family="sans-serif" font-size="12" lengthAdjust="spacing" textLength="200" x="337" y="1049.6602">Menampilkan pesan belum ada nilai</text><rect fill="none" height="105.3125" style="stroke:#000000;stroke-width:1.5;" width="238" x="318" y="1110.3906"/><path d="M394,1110.3906 L394,1121 L384,1131 L318,1131 " fill="none" style="stroke:#000000;stroke-width:1.5;"/><text fill="#000000" font-family="sans-serif" font-size="14" lengthAdjust="spacing" textLength="66" x="321" y="1125.9238">Wali Murid</text><rect fill="#F1F1F1" height="50.1875" rx="12.5" ry="12.5" style="stroke:#181818;stroke-width:0.5;" width="218" x="328" y="1148"/><text fill="#000000" font-family="sans-serif" font-size="12" lengthAdjust="spacing" textLength="198" x="338" y="1170.457">Wali murid melihat informasi bahwa</text><text fill="#000000" font-family="sans-serif" font-size="12" lengthAdjust="spacing" textLength="139" x="338" y="1185.5508">nilai anak belum tersedia</text><polygon fill="#F1F1F1" points="295.5,1298.8906,307.5,1310.8906,295.5,1322.8906,283.5,1310.8906,295.5,1298.8906" style="stroke:#181818;stroke-width:0.5;"/><rect fill="none" height="154.7969" style="stroke:#000000;stroke-width:1.5;" width="271" x="587" y="765.7969"/><path d="M639,765.7969 L639,776.4063 L629,786.4063 L587,786.4063 " fill="none" style="stroke:#000000;stroke-width:1.5;"/><text fill="#000000" font-family="sans-serif" font-size="14" lengthAdjust="spacing" textLength="42" x="590" y="781.3301">Sistem</text><rect fill="#F1F1F1" height="35.0938" rx="12.5" ry="12.5" style="stroke:#181818;stroke-width:0.5;" width="204" x="620.5" y="803.4063"/><text fill="#000000" font-family="sans-serif" font-size="12" lengthAdjust="spacing" textLength="184" x="630.5" y="825.8633">Menampilkan halaman Nilai Anak</text><rect fill="#F1F1F1" height="35.0938" rx="12.5" ry="12.5" style="stroke:#181818;stroke-width:0.5;" width="251" x="597" y="865.5"/><text fill="#000000" font-family="sans-serif" font-size="12" lengthAdjust="spacing" textLength="231" x="607" y="887.957">Menampilkan pesan belum ada data anak</text><rect fill="none" height="107.7969" style="stroke:#000000;stroke-width:1.5;" width="238" x="603.5" y="955.5938"/><path d="M679.5,955.5938 L679.5,966.2031 L669.5,976.2031 L603.5,976.2031 " fill="none" style="stroke:#000000;stroke-width:1.5;"/><text fill="#000000" font-family="sans-serif" font-size="14" lengthAdjust="spacing" textLength="66" x="606.5" y="971.127">Wali Murid</text><rect fill="#F1F1F1" height="50.1875" rx="12.5" ry="12.5" style="stroke:#181818;stroke-width:0.5;" width="218" x="613.5" y="993.2031"/><text fill="#000000" font-family="sans-serif" font-size="12" lengthAdjust="spacing" textLength="198" x="623.5" y="1015.6602">Wali murid melihat informasi bahwa</text><text fill="#000000" font-family="sans-serif" font-size="12" lengthAdjust="spacing" textLength="177" x="623.5" y="1030.7539">belum ada anak yang terhubung</text><polygon fill="#F1F1F1" points="509,1328.8906,521,1340.8906,509,1352.8906,497,1340.8906,509,1328.8906" style="stroke:#181818;stroke-width:0.5;"/><rect fill="none" height="84.7031" style="stroke:#000000;stroke-width:1.5;" width="216" x="902" y="422.2031"/><path d="M954,422.2031 L954,432.8125 L944,442.8125 L902,442.8125 " fill="none" style="stroke:#000000;stroke-width:1.5;"/><text fill="#000000" font-family="sans-serif" font-size="14" lengthAdjust="spacing" textLength="42" x="905" y="437.7363">Sistem</text><rect fill="#F1F1F1" height="35.0938" rx="12.5" ry="12.5" style="stroke:#181818;stroke-width:0.5;" width="196" x="912" y="459.8125"/><text fill="#000000" font-family="sans-serif" font-size="12" lengthAdjust="spacing" textLength="176" x="922" y="482.2695">Menampilkan pesan login gagal</text><rect fill="none" height="92.7031" style="stroke:#000000;stroke-width:1.5;" width="244" x="888" y="541.9063"/><path d="M964,541.9063 L964,552.5156 L954,562.5156 L888,562.5156 " fill="none" style="stroke:#000000;stroke-width:1.5;"/><text fill="#000000" font-family="sans-serif" font-size="14" lengthAdjust="spacing" textLength="66" x="891" y="557.4395">Wali Murid</text><rect fill="#F1F1F1" height="35.0938" rx="12.5" ry="12.5" style="stroke:#181818;stroke-width:0.5;" width="224" x="898" y="579.5156"/><text fill="#000000" font-family="sans-serif" font-size="12" lengthAdjust="spacing" textLength="204" x="908" y="601.9727">Wali murid kembali ke halaman login</text><polygon fill="#F1F1F1" points="759.5,1358.8906,771.5,1370.8906,759.5,1382.8906,747.5,1370.8906,759.5,1358.8906" style="stroke:#181818;stroke-width:0.5;"/><ellipse cx="759.5" cy="1413.8906" fill="none" rx="11" ry="11" style="stroke:#222222;stroke-width:1.0;"/><ellipse cx="759.5" cy="1413.8906" fill="#222222" rx="6" ry="6" style="stroke:#222222;stroke-width:1.0;"/><line style="stroke:#181818;stroke-width:1.0;" x1="759.5" x2="759.5" y1="151.3125" y2="171.3125"/><polygon fill="#181818" points="755.5,161.3125,759.5,171.3125,763.5,161.3125,759.5,165.3125" style="stroke:#181818;stroke-width:1.0;"/><line style="stroke:#181818;stroke-width:1.0;" x1="759.5" x2="759.5" y1="206.4063" y2="226.4063"/><polygon fill="#181818" points="755.5,216.4063,759.5,226.4063,763.5,216.4063,759.5,220.4063" style="stroke:#181818;stroke-width:1.0;"/><line style="stroke:#181818;stroke-width:1.0;" x1="759.5" x2="759.5" y1="68.6094" y2="116.2188"/><polygon fill="#181818" points="755.5,106.2188,759.5,116.2188,763.5,106.2188,759.5,110.2188" style="stroke:#181818;stroke-width:1.0;"/><line style="stroke:#181818;stroke-width:1.0;" x1="759.5" x2="759.5" y1="261.5" y2="321.1094"/><polygon fill="#181818" points="755.5,311.1094,759.5,321.1094,763.5,311.1094,759.5,315.1094" style="stroke:#181818;stroke-width:1.0;"/><line style="stroke:#181818;stroke-width:1.0;" x1="509" x2="509" y1="494.9063" y2="521.9063"/><polygon fill="#181818" points="505,511.9063,509,521.9063,513,511.9063,509,515.9063" style="stroke:#181818;stroke-width:1.0;"/><line style="stroke:#181818;stroke-width:1.0;" x1="509" x2="509" y1="557" y2="649.6094"/><polygon fill="#181818" points="505,639.6094,509,649.6094,513,639.6094,509,643.6094" style="stroke:#181818;stroke-width:1.0;"/><line style="stroke:#181818;stroke-width:1.0;" x1="154" x2="154" y1="992.2031" y2="1027.2031"/><polygon fill="#181818" points="150,1017.2031,154,1027.2031,158,1017.2031,154,1021.2031" style="stroke:#181818;stroke-width:1.0;"/><line style="stroke:#181818;stroke-width:1.0;" x1="154" x2="154" y1="1062.2969" y2="1090.3906"/><polygon fill="#181818" points="150,1080.3906,154,1090.3906,158,1080.3906,154,1084.3906" style="stroke:#181818;stroke-width:1.0;"/><line style="stroke:#181818;stroke-width:1.0;" x1="154" x2="154" y1="1155.6719" y2="1245.7969"/><polygon fill="#181818" points="150,1235.7969,154,1245.7969,158,1235.7969,154,1239.7969" style="stroke:#181818;stroke-width:1.0;"/><line style="stroke:#181818;stroke-width:1.0;" x1="437" x2="437" y1="992.2031" y2="1027.2031"/><polygon fill="#181818" points="433,1017.2031,437,1027.2031,441,1017.2031,437,1021.2031" style="stroke:#181818;stroke-width:1.0;"/><line style="stroke:#181818;stroke-width:1.0;" x1="437" x2="437" y1="1062.2969" y2="1148"/><polygon fill="#181818" points="433,1138,437,1148,441,1138,437,1142" style="stroke:#181818;stroke-width:1.0;"/><line style="stroke:#181818;stroke-width:1.0;" x1="237" x2="154" y1="897.5" y2="897.5"/><line style="stroke:#181818;stroke-width:1.0;" x1="154" x2="154" y1="897.5" y2="957.1094"/><polygon fill="#181818" points="150,947.1094,154,957.1094,158,947.1094,154,951.1094" style="stroke:#181818;stroke-width:1.0;"/><line style="stroke:#181818;stroke-width:1.0;" x1="354" x2="437" y1="897.5" y2="897.5"/><line style="stroke:#181818;stroke-width:1.0;" x1="437" x2="437" y1="897.5" y2="957.1094"/><polygon fill="#181818" points="433,947.1094,437,957.1094,441,947.1094,437,951.1094" style="stroke:#181818;stroke-width:1.0;"/><line style="stroke:#181818;stroke-width:1.0;" x1="154" x2="154" y1="1280.8906" y2="1310.8906"/><line style="stroke:#181818;stroke-width:1.0;" x1="154" x2="283.5" y1="1310.8906" y2="1310.8906"/><polygon fill="#181818" points="273.5,1306.8906,283.5,1310.8906,273.5,1314.8906,277.5,1310.8906" style="stroke:#181818;stroke-width:1.0;"/><line style="stroke:#181818;stroke-width:1.0;" x1="437" x2="437" y1="1198.1875" y2="1310.8906"/><line style="stroke:#181818;stroke-width:1.0;" x1="437" x2="307.5" y1="1310.8906" y2="1310.8906"/><polygon fill="#181818" points="317.5,1306.8906,307.5,1310.8906,317.5,1314.8906,313.5,1310.8906" style="stroke:#181818;stroke-width:1.0;"/><line style="stroke:#181818;stroke-width:1.0;" x1="295.5" x2="295.5" y1="838.5" y2="885.5"/><polygon fill="#181818" points="291.5,875.5,295.5,885.5,299.5,875.5,295.5,879.5" style="stroke:#181818;stroke-width:1.0;"/><line style="stroke:#181818;stroke-width:1.0;" x1="722.5" x2="722.5" y1="838.5" y2="865.5"/><polygon fill="#181818" points="718.5,855.5,722.5,865.5,726.5,855.5,722.5,859.5" style="stroke:#181818;stroke-width:1.0;"/><line style="stroke:#181818;stroke-width:1.0;" x1="722.5" x2="722.5" y1="900.5938" y2="993.2031"/><polygon fill="#181818" points="718.5,983.2031,722.5,993.2031,726.5,983.2031,722.5,987.2031" style="stroke:#181818;stroke-width:1.0;"/><line style="stroke:#181818;stroke-width:1.0;" x1="449" x2="295.5" y1="743.7969" y2="743.7969"/><line style="stroke:#181818;stroke-width:1.0;" x1="295.5" x2="295.5" y1="743.7969" y2="803.4063"/><polygon fill="#181818" points="291.5,793.4063,295.5,803.4063,299.5,793.4063,295.5,797.4063" style="stroke:#181818;stroke-width:1.0;"/><line style="stroke:#181818;stroke-width:1.0;" x1="569" x2="722.5" y1="743.7969" y2="743.7969"/><line style="stroke:#181818;stroke-width:1.0;" x1="722.5" x2="722.5" y1="743.7969" y2="803.4063"/><polygon fill="#181818" points="718.5,793.4063,722.5,803.4063,726.5,793.4063,722.5,797.4063" style="stroke:#181818;stroke-width:1.0;"/><line style="stroke:#181818;stroke-width:1.0;" x1="295.5" x2="295.5" y1="1322.8906" y2="1340.8906"/><line style="stroke:#181818;stroke-width:1.0;" x1="295.5" x2="497" y1="1340.8906" y2="1340.8906"/><polygon fill="#181818" points="487,1336.8906,497,1340.8906,487,1344.8906,491,1340.8906" style="stroke:#181818;stroke-width:1.0;"/><line style="stroke:#181818;stroke-width:1.0;" x1="722.5" x2="722.5" y1="1043.3906" y2="1340.8906"/><line style="stroke:#181818;stroke-width:1.0;" x1="722.5" x2="521" y1="1340.8906" y2="1340.8906"/><polygon fill="#181818" points="531,1336.8906,521,1340.8906,531,1344.8906,527,1340.8906" style="stroke:#181818;stroke-width:1.0;"/><line style="stroke:#181818;stroke-width:1.0;" x1="509" x2="509" y1="699.7969" y2="731.7969"/><polygon fill="#181818" points="505,721.7969,509,731.7969,513,721.7969,509,725.7969" style="stroke:#181818;stroke-width:1.0;"/><line style="stroke:#181818;stroke-width:1.0;" x1="1010" x2="1010" y1="494.9063" y2="579.5156"/><polygon fill="#181818" points="1006,569.5156,1010,579.5156,1014,569.5156,1010,573.5156" style="stroke:#181818;stroke-width:1.0;"/><line style="stroke:#181818;stroke-width:1.0;" x1="719" x2="509" y1="400.2031" y2="400.2031"/><line style="stroke:#181818;stroke-width:1.0;" x1="509" x2="509" y1="400.2031" y2="459.8125"/><polygon fill="#181818" points="505,449.8125,509,459.8125,513,449.8125,509,453.8125" style="stroke:#181818;stroke-width:1.0;"/><line style="stroke:#181818;stroke-width:1.0;" x1="800" x2="1010" y1="400.2031" y2="400.2031"/><line style="stroke:#181818;stroke-width:1.0;" x1="1010" x2="1010" y1="400.2031" y2="459.8125"/><polygon fill="#181818" points="1006,449.8125,1010,459.8125,1014,449.8125,1010,453.8125" style="stroke:#181818;stroke-width:1.0;"/><line style="stroke:#181818;stroke-width:1.0;" x1="509" x2="509" y1="1352.8906" y2="1370.8906"/><line style="stroke:#181818;stroke-width:1.0;" x1="509" x2="747.5" y1="1370.8906" y2="1370.8906"/><polygon fill="#181818" points="737.5,1366.8906,747.5,1370.8906,737.5,1374.8906,741.5,1370.8906" style="stroke:#181818;stroke-width:1.0;"/><line style="stroke:#181818;stroke-width:1.0;" x1="1010" x2="1010" y1="614.6094" y2="1370.8906"/><line style="stroke:#181818;stroke-width:1.0;" x1="1010" x2="771.5" y1="1370.8906" y2="1370.8906"/><polygon fill="#181818" points="781.5,1366.8906,771.5,1370.8906,781.5,1374.8906,777.5,1370.8906" style="stroke:#181818;stroke-width:1.0;"/><line style="stroke:#181818;stroke-width:1.0;" x1="759.5" x2="759.5" y1="356.2031" y2="388.2031"/><polygon fill="#181818" points="755.5,378.2031,759.5,388.2031,763.5,378.2031,759.5,382.2031" style="stroke:#181818;stroke-width:1.0;"/><line style="stroke:#181818;stroke-width:1.0;" x1="759.5" x2="759.5" y1="1382.8906" y2="1402.8906"/><polygon fill="#181818" points="755.5,1392.8906,759.5,1402.8906,763.5,1392.8906,759.5,1396.8906" style="stroke:#181818;stroke-width:1.0;"/><!--SRC=[lLMvRjj04EttAmQkP411UgS83BYCqYI0aN9ehiZ17YJsi604-lSCTtb9eYGsCGiUovqtxptE30C5BU7vBT0xXGzu8QmS6lW2hwW9Tj5H2JkfgSO0FqaZmRD59OGFw88GBPyfK6FXOGfuWBy2-7XAIoPX66cAg11gr6ZGWcugij-Mjg6FIl4ElYFzDNhfB1e99I-rwFsXSULbdDAa83IcQ3JyoD374tQ_o0TfHcOxQQGZvP5n0sOsS1ZnKZJjOPEmu9rVbDyV8TJImkOFFeg4SbFyXR9E5wXEYA-B1WSL2muGsyrN6sUEvyt7YyIdkdfjja9JaCxQaAFX0sq5GRew5j5Mekosd0gUmNV2NyPGZlAo93pHFoIxoMI9ZKsAl0o4RSAVNEYp3moozliKLj4OgA1fINVLDTJXkSDN0vnKp3ZJRwKxuxuOGdRVEFxkAO19HRHR4QYL6MOBhMDL2iCMgkZYLdGr_iOk1RvsAwVuCtzMLTzoTULMPaAAEn9J6TZHwVE4mvtKNiBcDvMeFjtuLde-5r970rZs5VJ_d9a-Me7r0SLaJizXACQhNjcIzfdGecshMcQrNJUj6lj_iSbMsRJ6eYdXmgoPfvxPSs7DtPbsfZAFx0ehrDTcu_sXd7g0dtWiB_oOZg8dwqFJ_WC0]--></g></svg>