<?xml version="1.0" encoding="us-ascii" standalone="no"?><svg xmlns="http://www.w3.org/2000/svg" xmlns:xlink="http://www.w3.org/1999/xlink" contentStyleType="text/css" height="1343px" preserveAspectRatio="none" style="width:877px;height:1343px;background:#FFFFFF;" version="1.1" viewBox="0 0 877 1343" width="877px" zoomAndPan="magnify"><defs/><g><text fill="#000000" font-family="sans-serif" font-size="14" font-weight="bold" lengthAdjust="spacing" textLength="353" x="260.5" y="34.5332">Activity Diagram - Wali Murid Melihat Absensi Anak</text><ellipse cx="520.625" cy="58.6094" fill="#222222" rx="10" ry="10" style="stroke:#222222;stroke-width:1.0;"/><rect fill="none" height="194.8906" style="stroke:#000000;stroke-width:1.5;" width="354" x="343.625" y="78.6094"/><path d="M419.625,78.6094 L419.625,89.2188 L409.625,99.2188 L343.625,99.2188 " fill="none" style="stroke:#000000;stroke-width:1.5;"/><text fill="#000000" font-family="sans-serif" font-size="14" lengthAdjust="spacing" textLength="66" x="346.625" y="94.1426">Wali Murid</text><rect fill="#F1F1F1" height="35.0938" rx="12.5" ry="12.5" style="stroke:#181818;stroke-width:0.5;" width="220" x="410.625" y="116.2188"/><text fill="#000000" font-family="sans-serif" font-size="12" lengthAdjust="spacing" textLength="200" x="420.625" y="138.6758">Wali murid membuka halaman login</text><rect fill="#F1F1F1" height="35.0938" rx="12.5" ry="12.5" style="stroke:#181818;stroke-width:0.5;" width="334" x="353.625" y="171.3125"/><text fill="#000000" font-family="sans-serif" font-size="12" lengthAdjust="spacing" textLength="314" x="363.625" y="193.7695">Wali murid memasukkan email/username dan password</text><rect fill="#F1F1F1" height="35.0938" rx="12.5" ry="12.5" style="stroke:#181818;stroke-width:0.5;" width="175" x="433.125" y="226.4063"/><text fill="#000000" font-family="sans-serif" font-size="12" lengthAdjust="spacing" textLength="155" x="443.125" y="248.8633">Wali murid klik tombol Login</text><rect fill="none" height="84.7031" style="stroke:#000000;stroke-width:1.5;" width="218" x="411.625" y="283.5"/><path d="M463.625,283.5 L463.625,294.1094 L453.625,304.1094 L411.625,304.1094 " fill="none" style="stroke:#000000;stroke-width:1.5;"/><text fill="#000000" font-family="sans-serif" font-size="14" lengthAdjust="spacing" textLength="42" x="414.625" y="299.0332">Sistem</text><rect fill="#F1F1F1" height="35.0938" rx="12.5" ry="12.5" style="stroke:#181818;stroke-width:0.5;" width="198" x="421.625" y="321.1094"/><text fill="#000000" font-family="sans-serif" font-size="12" lengthAdjust="spacing" textLength="178" x="431.625" y="343.5664">Memeriksa data login wali murid</text><polygon fill="#F1F1F1" points="492.125,388.2031,549.125,388.2031,561.125,400.2031,549.125,412.2031,492.125,412.2031,480.125,400.2031,492.125,388.2031" style="stroke:#181818;stroke-width:0.5;"/><text fill="#000000" font-family="sans-serif" font-size="11" lengthAdjust="spacing" textLength="57" x="492.125" y="404.7041">Login valid?</text><text fill="#000000" font-family="sans-serif" font-size="11" lengthAdjust="spacing" textLength="14" x="466.125" y="397.7861">Ya</text><text fill="#000000" font-family="sans-serif" font-size="11" lengthAdjust="spacing" textLength="25" x="561.125" y="397.7861">Tidak</text><rect fill="none" height="154.7969" style="stroke:#000000;stroke-width:1.5;" width="260" x="167.25" y="422.2031"/><path d="M243.25,422.2031 L243.25,432.8125 L233.25,442.8125 L167.25,442.8125 " fill="none" style="stroke:#000000;stroke-width:1.5;"/><text fill="#000000" font-family="sans-serif" font-size="14" lengthAdjust="spacing" textLength="66" x="170.25" y="437.7363">Wali Murid</text><rect fill="#F1F1F1" height="35.0938" rx="12.5" ry="12.5" style="stroke:#181818;stroke-width:0.5;" width="199" x="197.75" y="459.8125"/><text fill="#000000" font-family="sans-serif" font-size="12" lengthAdjust="spacing" textLength="179" x="207.75" y="482.2695">Wali murid masuk ke dashboard</text><rect fill="#F1F1F1" height="35.0938" rx="12.5" ry="12.5" style="stroke:#181818;stroke-width:0.5;" width="240" x="177.25" y="521.9063"/><text fill="#000000" font-family="sans-serif" font-size="12" lengthAdjust="spacing" textLength="220" x="187.25" y="544.3633">Wali murid memilih menu Absensi Anak</text><rect fill="none" height="154.8906" style="stroke:#000000;stroke-width:1.5;" width="230" x="182.25" y="612"/><path d="M234.25,612 L234.25,622.6094 L224.25,632.6094 L182.25,632.6094 " fill="none" style="stroke:#000000;stroke-width:1.5;"/><text fill="#000000" font-family="sans-serif" font-size="14" lengthAdjust="spacing" textLength="42" x="185.25" y="627.5332">Sistem</text><rect fill="#F1F1F1" height="50.1875" rx="12.5" ry="12.5" style="stroke:#181818;stroke-width:0.5;" width="210" x="192.25" y="649.6094"/><text fill="#000000" font-family="sans-serif" font-size="12" lengthAdjust="spacing" textLength="180" x="202.25" y="672.0664">Mengambil riwayat absensi anak</text><text fill="#000000" font-family="sans-serif" font-size="12" lengthAdjust="spacing" textLength="190" x="202.25" y="687.1602">yang terhubung dengan wali murid</text><rect fill="#F1F1F1" height="35.0938" rx="12.5" ry="12.5" style="stroke:#181818;stroke-width:0.5;" width="200" x="197.25" y="719.7969"/><text fill="#000000" font-family="sans-serif" font-size="12" lengthAdjust="spacing" textLength="180" x="207.25" y="742.2539">Menghitung ringkasan kehadiran</text><polygon fill="#F1F1F1" points="241.75,786.8906,352.75,786.8906,364.75,798.8906,352.75,810.8906,241.75,810.8906,229.75,798.8906,241.75,786.8906" style="stroke:#181818;stroke-width:0.5;"/><text fill="#000000" font-family="sans-serif" font-size="11" lengthAdjust="spacing" textLength="111" x="241.75" y="803.3916">Data absensi tersedia?</text><text fill="#000000" font-family="sans-serif" font-size="11" lengthAdjust="spacing" textLength="14" x="215.75" y="796.4736">Ya</text><text fill="#000000" font-family="sans-serif" font-size="11" lengthAdjust="spacing" textLength="25" x="364.75" y="796.4736">Tidak</text><rect fill="none" height="315.1719" style="stroke:#000000;stroke-width:1.5;" width="264" x="15" y="820.8906"/><path d="M67,820.8906 L67,831.5 L57,841.5 L15,841.5 " fill="none" style="stroke:#000000;stroke-width:1.5;"/><text fill="#000000" font-family="sans-serif" font-size="14" lengthAdjust="spacing" textLength="42" x="18" y="836.4238">Sistem</text><rect fill="#F1F1F1" height="35.0938" rx="12.5" ry="12.5" style="stroke:#181818;stroke-width:0.5;" width="224" x="35" y="858.5"/><text fill="#000000" font-family="sans-serif" font-size="12" lengthAdjust="spacing" textLength="204" x="45" y="880.957">Menampilkan halaman Absensi Anak</text><rect fill="#F1F1F1" height="50.1875" rx="12.5" ry="12.5" style="stroke:#181818;stroke-width:0.5;" width="229" x="32.5" y="913.5938"/><text fill="#000000" font-family="sans-serif" font-size="12" lengthAdjust="spacing" textLength="209" x="42.5" y="936.0508">Menampilkan ringkasan total absensi,</text><text fill="#000000" font-family="sans-serif" font-size="12" lengthAdjust="spacing" textLength="138" x="42.5" y="951.1445">hadir, izin, sakit, dan alpa</text><rect fill="#F1F1F1" height="35.0938" rx="12.5" ry="12.5" style="stroke:#181818;stroke-width:0.5;" width="244" x="25" y="988.6875"/><text fill="#000000" font-family="sans-serif" font-size="12" lengthAdjust="spacing" textLength="224" x="35" y="1011.1445">Menampilkan riwayat kehadiran per anak</text><rect fill="#F1F1F1" height="65.2813" rx="12.5" ry="12.5" style="stroke:#181818;stroke-width:0.5;" width="223" x="35.5" y="1058.7813"/><text fill="#000000" font-family="sans-serif" font-size="12" lengthAdjust="spacing" textLength="203" x="45.5" y="1081.2383">Menampilkan informasi tanggal, hari,</text><text fill="#000000" font-family="sans-serif" font-size="12" lengthAdjust="spacing" textLength="139" x="45.5" y="1096.332">jam, guru, status, alasan,</text><text fill="#000000" font-family="sans-serif" font-size="12" lengthAdjust="spacing" textLength="92" x="45.5" y="1111.4258">dan catatan guru</text><rect fill="none" height="84.7031" style="stroke:#000000;stroke-width:1.5;" width="272" x="11" y="1146.0625"/><path d="M87,1146.0625 L87,1156.6719 L77,1166.6719 L11,1166.6719 " fill="none" style="stroke:#000000;stroke-width:1.5;"/><text fill="#000000" font-family="sans-serif" font-size="14" lengthAdjust="spacing" textLength="66" x="14" y="1161.5957">Wali Murid</text><rect fill="#F1F1F1" height="35.0938" rx="12.5" ry="12.5" style="stroke:#181818;stroke-width:0.5;" width="252" x="21" y="1183.6719"/><text fill="#000000" font-family="sans-serif" font-size="12" lengthAdjust="spacing" textLength="232" x="31" y="1206.1289">Wali murid melihat riwayat kehadiran anak</text><rect fill="none" height="147.7969" style="stroke:#000000;stroke-width:1.5;" width="289" x="303" y="820.8906"/><path d="M355,820.8906 L355,831.5 L345,841.5 L303,841.5 " fill="none" style="stroke:#000000;stroke-width:1.5;"/><text fill="#000000" font-family="sans-serif" font-size="14" lengthAdjust="spacing" textLength="42" x="306" y="836.4238">Sistem</text><rect fill="#F1F1F1" height="35.0938" rx="12.5" ry="12.5" style="stroke:#181818;stroke-width:0.5;" width="224" x="335.5" y="858.5"/><text fill="#000000" font-family="sans-serif" font-size="12" lengthAdjust="spacing" textLength="204" x="345.5" y="880.957">Menampilkan halaman Absensi Anak</text><rect fill="#F1F1F1" height="35.0938" rx="12.5" ry="12.5" style="stroke:#181818;stroke-width:0.5;" width="269" x="313" y="913.5938"/><text fill="#000000" font-family="sans-serif" font-size="12" lengthAdjust="spacing" textLength="249" x="323" y="936.0508">Menampilkan pesan belum ada data absensi</text><rect fill="none" height="107.7969" style="stroke:#000000;stroke-width:1.5;" width="238" x="328.5" y="993.5938"/><path d="M404.5,993.5938 L404.5,1004.2031 L394.5,1014.2031 L328.5,1014.2031 " fill="none" style="stroke:#000000;stroke-width:1.5;"/><text fill="#000000" font-family="sans-serif" font-size="14" lengthAdjust="spacing" textLength="66" x="331.5" y="1009.127">Wali Murid</text><rect fill="#F1F1F1" height="50.1875" rx="12.5" ry="12.5" style="stroke:#181818;stroke-width:0.5;" width="218" x="338.5" y="1031.2031"/><text fill="#000000" font-family="sans-serif" font-size="12" lengthAdjust="spacing" textLength="198" x="348.5" y="1053.6602">Wali murid melihat informasi bahwa</text><text fill="#000000" font-family="sans-serif" font-size="12" lengthAdjust="spacing" textLength="161" x="348.5" y="1068.7539">absensi anak belum tersedia</text><polygon fill="#F1F1F1" points="297.25,1236.7656,309.25,1248.7656,297.25,1260.7656,285.25,1248.7656,297.25,1236.7656" style="stroke:#181818;stroke-width:0.5;"/><rect fill="none" height="84.7031" style="stroke:#000000;stroke-width:1.5;" width="216" x="636" y="422.2031"/><path d="M688,422.2031 L688,432.8125 L678,442.8125 L636,442.8125 " fill="none" style="stroke:#000000;stroke-width:1.5;"/><text fill="#000000" font-family="sans-serif" font-size="14" lengthAdjust="spacing" textLength="42" x="639" y="437.7363">Sistem</text><rect fill="#F1F1F1" height="35.0938" rx="12.5" ry="12.5" style="stroke:#181818;stroke-width:0.5;" width="196" x="646" y="459.8125"/><text fill="#000000" font-family="sans-serif" font-size="12" lengthAdjust="spacing" textLength="176" x="656" y="482.2695">Menampilkan pesan login gagal</text><rect fill="none" height="92.7031" style="stroke:#000000;stroke-width:1.5;" width="244" x="622" y="541.9063"/><path d="M698,541.9063 L698,552.5156 L688,562.5156 L622,562.5156 " fill="none" style="stroke:#000000;stroke-width:1.5;"/><text fill="#000000" font-family="sans-serif" font-size="14" lengthAdjust="spacing" textLength="66" x="625" y="557.4395">Wali Murid</text><rect fill="#F1F1F1" height="35.0938" rx="12.5" ry="12.5" style="stroke:#181818;stroke-width:0.5;" width="224" x="632" y="579.5156"/><text fill="#000000" font-family="sans-serif" font-size="12" lengthAdjust="spacing" textLength="204" x="642" y="601.9727">Wali murid kembali ke halaman login</text><polygon fill="#F1F1F1" points="520.625,1266.7656,532.625,1278.7656,520.625,1290.7656,508.625,1278.7656,520.625,1266.7656" style="stroke:#181818;stroke-width:0.5;"/><ellipse cx="520.625" cy="1321.7656" fill="none" rx="11" ry="11" style="stroke:#222222;stroke-width:1.0;"/><ellipse cx="520.625" cy="1321.7656" fill="#222222" rx="6" ry="6" style="stroke:#222222;stroke-width:1.0;"/><line style="stroke:#181818;stroke-width:1.0;" x1="520.625" x2="520.625" y1="151.3125" y2="171.3125"/><polygon fill="#181818" points="516.625,161.3125,520.625,171.3125,524.625,161.3125,520.625,165.3125" style="stroke:#181818;stroke-width:1.0;"/><line style="stroke:#181818;stroke-width:1.0;" x1="520.625" x2="520.625" y1="206.4063" y2="226.4063"/><polygon fill="#181818" points="516.625,216.4063,520.625,226.4063,524.625,216.4063,520.625,220.4063" style="stroke:#181818;stroke-width:1.0;"/><line style="stroke:#181818;stroke-width:1.0;" x1="520.625" x2="520.625" y1="68.6094" y2="116.2188"/><polygon fill="#181818" points="516.625,106.2188,520.625,116.2188,524.625,106.2188,520.625,110.2188" style="stroke:#181818;stroke-width:1.0;"/><line style="stroke:#181818;stroke-width:1.0;" x1="520.625" x2="520.625" y1="261.5" y2="321.1094"/><polygon fill="#181818" points="516.625,311.1094,520.625,321.1094,524.625,311.1094,520.625,315.1094" style="stroke:#181818;stroke-width:1.0;"/><line style="stroke:#181818;stroke-width:1.0;" x1="297.25" x2="297.25" y1="494.9063" y2="521.9063"/><polygon fill="#181818" points="293.25,511.9063,297.25,521.9063,301.25,511.9063,297.25,515.9063" style="stroke:#181818;stroke-width:1.0;"/><line style="stroke:#181818;stroke-width:1.0;" x1="297.25" x2="297.25" y1="699.7969" y2="719.7969"/><polygon fill="#181818" points="293.25,709.7969,297.25,719.7969,301.25,709.7969,297.25,713.7969" style="stroke:#181818;stroke-width:1.0;"/><line style="stroke:#181818;stroke-width:1.0;" x1="297.25" x2="297.25" y1="557" y2="649.6094"/><polygon fill="#181818" points="293.25,639.6094,297.25,649.6094,301.25,639.6094,297.25,643.6094" style="stroke:#181818;stroke-width:1.0;"/><line style="stroke:#181818;stroke-width:1.0;" x1="147" x2="147" y1="893.5938" y2="913.5938"/><polygon fill="#181818" points="143,903.5938,147,913.5938,151,903.5938,147,907.5938" style="stroke:#181818;stroke-width:1.0;"/><line style="stroke:#181818;stroke-width:1.0;" x1="147" x2="147" y1="963.7813" y2="988.6875"/><polygon fill="#181818" points="143,978.6875,147,988.6875,151,978.6875,147,982.6875" style="stroke:#181818;stroke-width:1.0;"/><line style="stroke:#181818;stroke-width:1.0;" x1="147" x2="147" y1="1023.7813" y2="1058.7813"/><polygon fill="#181818" points="143,1048.7813,147,1058.7813,151,1048.7813,147,1052.7813" style="stroke:#181818;stroke-width:1.0;"/><line style="stroke:#181818;stroke-width:1.0;" x1="147" x2="147" y1="1124.0625" y2="1183.6719"/><polygon fill="#181818" points="143,1173.6719,147,1183.6719,151,1173.6719,147,1177.6719" style="stroke:#181818;stroke-width:1.0;"/><line style="stroke:#181818;stroke-width:1.0;" x1="447.5" x2="447.5" y1="893.5938" y2="913.5938"/><polygon fill="#181818" points="443.5,903.5938,447.5,913.5938,451.5,903.5938,447.5,907.5938" style="stroke:#181818;stroke-width:1.0;"/><line style="stroke:#181818;stroke-width:1.0;" x1="447.5" x2="447.5" y1="948.6875" y2="1031.2031"/><polygon fill="#181818" points="443.5,1021.2031,447.5,1031.2031,451.5,1021.2031,447.5,1025.2031" style="stroke:#181818;stroke-width:1.0;"/><line style="stroke:#181818;stroke-width:1.0;" x1="229.75" x2="147" y1="798.8906" y2="798.8906"/><line style="stroke:#181818;stroke-width:1.0;" x1="147" x2="147" y1="798.8906" y2="858.5"/><polygon fill="#181818" points="143,848.5,147,858.5,151,848.5,147,852.5" style="stroke:#181818;stroke-width:1.0;"/><line style="stroke:#181818;stroke-width:1.0;" x1="364.75" x2="447.5" y1="798.8906" y2="798.8906"/><line style="stroke:#181818;stroke-width:1.0;" x1="447.5" x2="447.5" y1="798.8906" y2="858.5"/><polygon fill="#181818" points="443.5,848.5,447.5,858.5,451.5,848.5,447.5,852.5" style="stroke:#181818;stroke-width:1.0;"/><line style="stroke:#181818;stroke-width:1.0;" x1="147" x2="147" y1="1218.7656" y2="1248.7656"/><line style="stroke:#181818;stroke-width:1.0;" x1="147" x2="285.25" y1="1248.7656" y2="1248.7656"/><polygon fill="#181818" points="275.25,1244.7656,285.25,1248.7656,275.25,1252.7656,279.25,1248.7656" style="stroke:#181818;stroke-width:1.0;"/><line style="stroke:#181818;stroke-width:1.0;" x1="447.5" x2="447.5" y1="1081.3906" y2="1248.7656"/><line style="stroke:#181818;stroke-width:1.0;" x1="447.5" x2="309.25" y1="1248.7656" y2="1248.7656"/><polygon fill="#181818" points="319.25,1244.7656,309.25,1248.7656,319.25,1252.7656,315.25,1248.7656" style="stroke:#181818;stroke-width:1.0;"/><line style="stroke:#181818;stroke-width:1.0;" x1="297.25" x2="297.25" y1="754.8906" y2="786.8906"/><polygon fill="#181818" points="293.25,776.8906,297.25,786.8906,301.25,776.8906,297.25,780.8906" style="stroke:#181818;stroke-width:1.0;"/><line style="stroke:#181818;stroke-width:1.0;" x1="744" x2="744" y1="494.9063" y2="579.5156"/><polygon fill="#181818" points="740,569.5156,744,579.5156,748,569.5156,744,573.5156" style="stroke:#181818;stroke-width:1.0;"/><line style="stroke:#181818;stroke-width:1.0;" x1="480.125" x2="297.25" y1="400.2031" y2="400.2031"/><line style="stroke:#181818;stroke-width:1.0;" x1="297.25" x2="297.25" y1="400.2031" y2="459.8125"/><polygon fill="#181818" points="293.25,449.8125,297.25,459.8125,301.25,449.8125,297.25,453.8125" style="stroke:#181818;stroke-width:1.0;"/><line style="stroke:#181818;stroke-width:1.0;" x1="561.125" x2="744" y1="400.2031" y2="400.2031"/><line style="stroke:#181818;stroke-width:1.0;" x1="744" x2="744" y1="400.2031" y2="459.8125"/><polygon fill="#181818" points="740,449.8125,744,459.8125,748,449.8125,744,453.8125" style="stroke:#181818;stroke-width:1.0;"/><line style="stroke:#181818;stroke-width:1.0;" x1="297.25" x2="297.25" y1="1260.7656" y2="1278.7656"/><line style="stroke:#181818;stroke-width:1.0;" x1="297.25" x2="508.625" y1="1278.7656" y2="1278.7656"/><polygon fill="#181818" points="498.625,1274.7656,508.625,1278.7656,498.625,1282.7656,502.625,1278.7656" style="stroke:#181818;stroke-width:1.0;"/><line style="stroke:#181818;stroke-width:1.0;" x1="744" x2="744" y1="614.6094" y2="1278.7656"/><line style="stroke:#181818;stroke-width:1.0;" x1="744" x2="532.625" y1="1278.7656" y2="1278.7656"/><polygon fill="#181818" points="542.625,1274.7656,532.625,1278.7656,542.625,1282.7656,538.625,1278.7656" style="stroke:#181818;stroke-width:1.0;"/><line style="stroke:#181818;stroke-width:1.0;" x1="520.625" x2="520.625" y1="356.2031" y2="388.2031"/><polygon fill="#181818" points="516.625,378.2031,520.625,388.2031,524.625,378.2031,520.625,382.2031" style="stroke:#181818;stroke-width:1.0;"/><line style="stroke:#181818;stroke-width:1.0;" x1="520.625" x2="520.625" y1="1290.7656" y2="1310.7656"/><polygon fill="#181818" points="516.625,1300.7656,520.625,1310.7656,524.625,1300.7656,520.625,1304.7656" style="stroke:#181818;stroke-width:1.0;"/><!--SRC=[lLHDRzim3BthLn0zfO27tRT34Q37vRG1muvqhTYSFcn8L8Dio7yl9Tj9NMVf3iDoI6I7V7plaHGJMmtR9wPduYCy4hO17No0xsW9TYbG0pjjgKE6RHsrZmHRZqQfo1XOgK6-YQdtS7T9kOFV2kJpgRno1SLfLoU3qA55XnvitvB_V2qCOp968kH4zcEAEdXq6XfvDM2CXpuqwpnZoG3thkujV1cXJmjsNocoTcTcE-rq81DHS1b7Dd0uuvLisiEcOC6p_D4yt0DtsiFc1zwhWd9J_4fPrWKc2ubTtUEiuee398RBhqyBpyVmqwhqKjcaphVeQh8Gw817QHvEG9YRTqJV0klGfJh9gSdHI_KBf8uuXmNohS4eaKPts510lw2KxNhCPiwrf4BK3U72k1dvfe2vDBg1R9w5UMhMVbmDlr3bdj7EZ2fLU5T0lyXN4D4GLsMmq0vu4szqyImS1XsAbpUIoE_x85qN8yJl5cqbCeAG-8ckWZQ591GOESLAwcUsbSfSdiH3oIWH5_Z9vByQk_L8ZHkybh6KS2edRQE6pJTgqFodTWqwjwhMDZd0Pbh9gMV_re5BJshi3gXUhyL4O9xQbIs-eRrIAtVUtSGtCiUhfaKPY3zjzFkNYP7RD3_9TNBbGZsfYMpaVdW1]--></g></svg>