<?xml version="1.0" encoding="us-ascii" standalone="no"?><svg xmlns="http://www.w3.org/2000/svg" xmlns:xlink="http://www.w3.org/1999/xlink" contentStyleType="text/css" height="2102px" preserveAspectRatio="none" style="width:1777px;height:2102px;background:#FFFFFF;" version="1.1" viewBox="0 0 1777 2102" width="1777px" zoomAndPan="magnify"><defs/><g><text fill="#000000" font-family="sans-serif" font-size="14" font-weight="bold" lengthAdjust="spacing" textLength="354" x="710" y="34.5332">Activity Diagram - Wali Murid Mengelola Profil Saya</text><ellipse cx="1324.125" cy="58.6094" fill="#222222" rx="10" ry="10" style="stroke:#222222;stroke-width:1.0;"/><rect fill="none" height="194.8906" style="stroke:#000000;stroke-width:1.5;" width="354" x="1147.125" y="78.6094"/><path d="M1223.125,78.6094 L1223.125,89.2188 L1213.125,99.2188 L1147.125,99.2188 " fill="none" style="stroke:#000000;stroke-width:1.5;"/><text fill="#000000" font-family="sans-serif" font-size="14" lengthAdjust="spacing" textLength="66" x="1150.125" y="94.1426">Wali Murid</text><rect fill="#F1F1F1" height="35.0938" rx="12.5" ry="12.5" style="stroke:#181818;stroke-width:0.5;" width="220" x="1214.125" y="116.2188"/><text fill="#000000" font-family="sans-serif" font-size="12" lengthAdjust="spacing" textLength="200" x="1224.125" y="138.6758">Wali murid membuka halaman login</text><rect fill="#F1F1F1" height="35.0938" rx="12.5" ry="12.5" style="stroke:#181818;stroke-width:0.5;" width="334" x="1157.125" y="171.3125"/><text fill="#000000" font-family="sans-serif" font-size="12" lengthAdjust="spacing" textLength="314" x="1167.125" y="193.7695">Wali murid memasukkan email/username dan password</text><rect fill="#F1F1F1" height="35.0938" rx="12.5" ry="12.5" style="stroke:#181818;stroke-width:0.5;" width="175" x="1236.625" y="226.4063"/><text fill="#000000" font-family="sans-serif" font-size="12" lengthAdjust="spacing" textLength="155" x="1246.625" y="248.8633">Wali murid klik tombol Login</text><rect fill="none" height="84.7031" style="stroke:#000000;stroke-width:1.5;" width="218" x="1215.125" y="283.5"/><path d="M1267.125,283.5 L1267.125,294.1094 L1257.125,304.1094 L1215.125,304.1094 " fill="none" style="stroke:#000000;stroke-width:1.5;"/><text fill="#000000" font-family="sans-serif" font-size="14" lengthAdjust="spacing" textLength="42" x="1218.125" y="299.0332">Sistem</text><rect fill="#F1F1F1" height="35.0938" rx="12.5" ry="12.5" style="stroke:#181818;stroke-width:0.5;" width="198" x="1225.125" y="321.1094"/><text fill="#000000" font-family="sans-serif" font-size="12" lengthAdjust="spacing" textLength="178" x="1235.125" y="343.5664">Memeriksa data login wali murid</text><polygon fill="#F1F1F1" points="1295.625,388.2031,1352.625,388.2031,1364.625,400.2031,1352.625,412.2031,1295.625,412.2031,1283.625,400.2031,1295.625,388.2031" style="stroke:#181818;stroke-width:0.5;"/><text fill="#000000" font-family="sans-serif" font-size="11" lengthAdjust="spacing" textLength="57" x="1295.625" y="404.7041">Login valid?</text><text fill="#000000" font-family="sans-serif" font-size="11" lengthAdjust="spacing" textLength="14" x="1269.625" y="397.7861">Ya</text><text fill="#000000" font-family="sans-serif" font-size="11" lengthAdjust="spacing" textLength="25" x="1364.625" y="397.7861">Tidak</text><rect fill="none" height="154.7969" style="stroke:#000000;stroke-width:1.5;" width="219" x="874.75" y="422.2031"/><path d="M950.75,422.2031 L950.75,432.8125 L940.75,442.8125 L874.75,442.8125 " fill="none" style="stroke:#000000;stroke-width:1.5;"/><text fill="#000000" font-family="sans-serif" font-size="14" lengthAdjust="spacing" textLength="66" x="877.75" y="437.7363">Wali Murid</text><rect fill="#F1F1F1" height="35.0938" rx="12.5" ry="12.5" style="stroke:#181818;stroke-width:0.5;" width="199" x="884.75" y="459.8125"/><text fill="#000000" font-family="sans-serif" font-size="12" lengthAdjust="spacing" textLength="179" x="894.75" y="482.2695">Wali murid masuk ke dashboard</text><rect fill="#F1F1F1" height="35.0938" rx="12.5" ry="12.5" style="stroke:#181818;stroke-width:0.5;" width="193" x="887.75" y="521.9063"/><text fill="#000000" font-family="sans-serif" font-size="12" lengthAdjust="spacing" textLength="173" x="897.75" y="544.3633">Wali murid memilih menu Profil</text><rect fill="none" height="305.0781" style="stroke:#000000;stroke-width:1.5;" width="233" x="867.75" y="612"/><path d="M919.75,612 L919.75,622.6094 L909.75,632.6094 L867.75,632.6094 " fill="none" style="stroke:#000000;stroke-width:1.5;"/><text fill="#000000" font-family="sans-serif" font-size="14" lengthAdjust="spacing" textLength="42" x="870.75" y="627.5332">Sistem</text><rect fill="#F1F1F1" height="35.0938" rx="12.5" ry="12.5" style="stroke:#181818;stroke-width:0.5;" width="207" x="880.75" y="649.6094"/><text fill="#000000" font-family="sans-serif" font-size="12" lengthAdjust="spacing" textLength="187" x="890.75" y="672.0664">Menampilkan halaman Profil Saya</text><rect fill="#F1F1F1" height="35.0938" rx="12.5" ry="12.5" style="stroke:#181818;stroke-width:0.5;" width="198" x="885.25" y="704.7031"/><text fill="#000000" font-family="sans-serif" font-size="12" lengthAdjust="spacing" textLength="178" x="895.25" y="727.1602">Menampilkan biodata wali murid</text><rect fill="#F1F1F1" height="35.0938" rx="12.5" ry="12.5" style="stroke:#181818;stroke-width:0.5;" width="186" x="891.25" y="759.7969"/><text fill="#000000" font-family="sans-serif" font-size="12" lengthAdjust="spacing" textLength="166" x="901.25" y="782.2539">Menampilkan form Ubah Profil</text><rect fill="#F1F1F1" height="35.0938" rx="12.5" ry="12.5" style="stroke:#181818;stroke-width:0.5;" width="213" x="877.75" y="814.8906"/><text fill="#000000" font-family="sans-serif" font-size="12" lengthAdjust="spacing" textLength="193" x="887.75" y="837.3477">Menampilkan form Ganti Password</text><rect fill="#F1F1F1" height="35.0938" rx="12.5" ry="12.5" style="stroke:#181818;stroke-width:0.5;" width="153" x="907.75" y="869.9844"/><text fill="#000000" font-family="sans-serif" font-size="12" lengthAdjust="spacing" textLength="133" x="917.75" y="892.4414">Menampilkan Data Anak</text><rect fill="none" height="84.7031" style="stroke:#000000;stroke-width:1.5;" width="173" x="897.75" y="927.0781"/><path d="M973.75,927.0781 L973.75,937.6875 L963.75,947.6875 L897.75,947.6875 " fill="none" style="stroke:#000000;stroke-width:1.5;"/><text fill="#000000" font-family="sans-serif" font-size="14" lengthAdjust="spacing" textLength="66" x="900.75" y="942.6113">Wali Murid</text><rect fill="#F1F1F1" height="35.0938" rx="12.5" ry="12.5" style="stroke:#181818;stroke-width:0.5;" width="153" x="907.75" y="964.6875"/><text fill="#000000" font-family="sans-serif" font-size="12" lengthAdjust="spacing" textLength="133" x="917.75" y="987.1445">Wali murid melihat profil</text><polygon fill="#F1F1F1" points="905.25,1031.7813,1063.25,1031.7813,1075.25,1043.7813,1063.25,1055.7813,905.25,1055.7813,893.25,1043.7813,905.25,1031.7813" style="stroke:#181818;stroke-width:0.5;"/><text fill="#000000" font-family="sans-serif" font-size="11" lengthAdjust="spacing" textLength="158" x="905.25" y="1048.2822">Wali murid ingin mengelola profil?</text><text fill="#000000" font-family="sans-serif" font-size="11" lengthAdjust="spacing" textLength="14" x="879.25" y="1041.3643">Ya</text><text fill="#000000" font-family="sans-serif" font-size="11" lengthAdjust="spacing" textLength="25" x="1075.25" y="1041.3643">Tidak</text><rect fill="none" height="84.7031" style="stroke:#000000;stroke-width:1.5;" width="203" x="497.5" y="1065.7813"/><path d="M573.5,1065.7813 L573.5,1076.3906 L563.5,1086.3906 L497.5,1086.3906 " fill="none" style="stroke:#000000;stroke-width:1.5;"/><text fill="#000000" font-family="sans-serif" font-size="14" lengthAdjust="spacing" textLength="66" x="500.5" y="1081.3145">Wali Murid</text><rect fill="#F1F1F1" height="35.0938" rx="12.5" ry="12.5" style="stroke:#181818;stroke-width:0.5;" width="183" x="507.5" y="1103.3906"/><text fill="#000000" font-family="sans-serif" font-size="12" lengthAdjust="spacing" textLength="163" x="517.5" y="1125.8477">Wali murid memilih aksi profil</text><polygon fill="#F1F1F1" points="557.5,1170.4844,640.5,1170.4844,652.5,1182.4844,640.5,1194.4844,557.5,1194.4844,545.5,1182.4844,557.5,1170.4844" style="stroke:#181818;stroke-width:0.5;"/><text fill="#000000" font-family="sans-serif" font-size="11" lengthAdjust="spacing" textLength="83" x="557.5" y="1186.9854">Aksi yang dipilih?</text><text fill="#000000" font-family="sans-serif" font-size="11" lengthAdjust="spacing" textLength="52" x="493.5" y="1180.0674">Ubah Profil</text><text fill="#000000" font-family="sans-serif" font-size="11" lengthAdjust="spacing" textLength="78" x="652.5" y="1180.0674">Ganti Password</text><rect fill="none" height="252.1641" style="stroke:#000000;stroke-width:1.5;" width="410.5" x="176" y="1204.4844"/><path d="M252,1204.4844 L252,1215.0938 L242,1225.0938 L176,1225.0938 " fill="none" style="stroke:#000000;stroke-width:1.5;"/><text fill="#000000" font-family="sans-serif" font-size="14" lengthAdjust="spacing" textLength="66" x="179" y="1220.0176">Wali Murid</text><path d="M414.5,1242.0938 L414.5,1300.3242 L394.5,1304.3242 L414.5,1308.3242 L414.5,1366.5547 A0,0 0 0 0 414.5,1366.5547 L576.5,1366.5547 A0,0 0 0 0 576.5,1366.5547 L576.5,1252.0938 L566.5,1242.0938 L414.5,1242.0938 A0,0 0 0 0 414.5,1242.0938 " fill="#FEFFDD" style="stroke:#181818;stroke-width:0.5;"/><path d="M566.5,1242.0938 L566.5,1252.0938 L576.5,1252.0938 L566.5,1242.0938 " fill="#FEFFDD" style="stroke:#181818;stroke-width:0.5;"/><text fill="#000000" font-family="sans-serif" font-size="13" lengthAdjust="spacing" textLength="141" x="420.5" y="1260.5889">Data yang dapat diubah:</text><text fill="#000000" font-family="sans-serif" font-size="13" lengthAdjust="spacing" textLength="91" x="420.5" y="1276.9404">- Nama lengkap</text><text fill="#000000" font-family="sans-serif" font-size="13" lengthAdjust="spacing" textLength="41" x="420.5" y="1293.292">- Email</text><text fill="#000000" font-family="sans-serif" font-size="13" lengthAdjust="spacing" textLength="74" x="420.5" y="1309.6436">- No. telepon</text><text fill="#000000" font-family="sans-serif" font-size="13" lengthAdjust="spacing" textLength="49" x="420.5" y="1325.9951">- Alamat</text><text fill="#000000" font-family="sans-serif" font-size="13" lengthAdjust="spacing" textLength="66" x="420.5" y="1342.3467">- Hubungan</text><text fill="#000000" font-family="sans-serif" font-size="13" lengthAdjust="spacing" textLength="66" x="420.5" y="1358.6982">- Pekerjaan</text><rect fill="#F1F1F1" height="35.0938" rx="12.5" ry="12.5" style="stroke:#181818;stroke-width:0.5;" width="199" x="195.5" y="1286.7773"/><text fill="#000000" font-family="sans-serif" font-size="12" lengthAdjust="spacing" textLength="179" x="205.5" y="1309.2344">Wali murid mengubah data profil</text><rect fill="#F1F1F1" height="35.0938" rx="12.5" ry="12.5" style="stroke:#181818;stroke-width:0.5;" width="218" x="186" y="1401.5547"/><text fill="#000000" font-family="sans-serif" font-size="12" lengthAdjust="spacing" textLength="198" x="196" y="1424.0117">Wali murid klik tombol Simpan Profil</text><rect fill="none" height="92.7031" style="stroke:#000000;stroke-width:1.5;" width="158" x="216" y="1491.6484"/><path d="M268,1491.6484 L268,1502.2578 L258,1512.2578 L216,1512.2578 " fill="none" style="stroke:#000000;stroke-width:1.5;"/><text fill="#000000" font-family="sans-serif" font-size="14" lengthAdjust="spacing" textLength="42" x="219" y="1507.1816">Sistem</text><rect fill="#F1F1F1" height="35.0938" rx="12.5" ry="12.5" style="stroke:#181818;stroke-width:0.5;" width="138" x="226" y="1529.2578"/><text fill="#000000" font-family="sans-serif" font-size="12" lengthAdjust="spacing" textLength="118" x="236" y="1551.7148">Memeriksa data profil</text><polygon fill="#F1F1F1" points="255,1619.3516,335,1619.3516,347,1631.3516,335,1643.3516,255,1643.3516,243,1631.3516,255,1619.3516" style="stroke:#181818;stroke-width:0.5;"/><text fill="#000000" font-family="sans-serif" font-size="11" lengthAdjust="spacing" textLength="80" x="255" y="1635.8525">Data profil valid?</text><text fill="#000000" font-family="sans-serif" font-size="11" lengthAdjust="spacing" textLength="14" x="229" y="1628.9346">Ya</text><text fill="#000000" font-family="sans-serif" font-size="11" lengthAdjust="spacing" textLength="25" x="347" y="1628.9346">Tidak</text><rect fill="none" height="232.8906" style="stroke:#000000;stroke-width:1.5;" width="274" x="11" y="1653.3516"/><path d="M63,1653.3516 L63,1663.9609 L53,1673.9609 L11,1673.9609 " fill="none" style="stroke:#000000;stroke-width:1.5;"/><text fill="#000000" font-family="sans-serif" font-size="14" lengthAdjust="spacing" textLength="42" x="14" y="1668.8848">Sistem</text><rect fill="#F1F1F1" height="35.0938" rx="12.5" ry="12.5" style="stroke:#181818;stroke-width:0.5;" width="176" x="60" y="1690.9609"/><text fill="#000000" font-family="sans-serif" font-size="12" lengthAdjust="spacing" textLength="156" x="70" y="1713.418">Menyimpan perubahan profil</text><rect fill="#F1F1F1" height="35.0938" rx="12.5" ry="12.5" style="stroke:#181818;stroke-width:0.5;" width="180" x="58" y="1761.0547"/><text fill="#000000" font-family="sans-serif" font-size="12" lengthAdjust="spacing" textLength="160" x="68" y="1783.5117">Menampilkan pesan berhasil</text><rect fill="#F1F1F1" height="35.0938" rx="12.5" ry="12.5" style="stroke:#181818;stroke-width:0.5;" width="254" x="21" y="1831.1484"/><text fill="#000000" font-family="sans-serif" font-size="12" lengthAdjust="spacing" textLength="234" x="31" y="1853.6055">Menampilkan kembali halaman Profil Saya</text><rect fill="none" height="177.8906" style="stroke:#000000;stroke-width:1.5;" width="274" x="305" y="1653.3516"/><path d="M357,1653.3516 L357,1663.9609 L347,1673.9609 L305,1673.9609 " fill="none" style="stroke:#000000;stroke-width:1.5;"/><text fill="#000000" font-family="sans-serif" font-size="14" lengthAdjust="spacing" textLength="42" x="308" y="1668.8848">Sistem</text><rect fill="#F1F1F1" height="35.0938" rx="12.5" ry="12.5" style="stroke:#181818;stroke-width:0.5;" width="161" x="361.5" y="1690.9609"/><text fill="#000000" font-family="sans-serif" font-size="12" lengthAdjust="spacing" textLength="141" x="371.5" y="1713.418">Menampilkan pesan error</text><rect fill="#F1F1F1" height="50.1875" rx="12.5" ry="12.5" style="stroke:#181818;stroke-width:0.5;" width="254" x="315" y="1761.0547"/><text fill="#000000" font-family="sans-serif" font-size="12" lengthAdjust="spacing" textLength="234" x="325" y="1783.5117">Menampilkan kembali halaman Profil Saya</text><text fill="#000000" font-family="sans-serif" font-size="12" lengthAdjust="spacing" textLength="100" x="325" y="1798.6055">beserta form profil</text><polygon fill="#F1F1F1" points="295,1892.2422,307,1904.2422,295,1916.2422,283,1904.2422,295,1892.2422" style="stroke:#181818;stroke-width:0.5;"/><rect fill="none" height="302.9844" style="stroke:#000000;stroke-width:1.5;" width="294" x="756" y="1204.4844"/><path d="M832,1204.4844 L832,1215.0938 L822,1225.0938 L756,1225.0938 " fill="none" style="stroke:#000000;stroke-width:1.5;"/><text fill="#000000" font-family="sans-serif" font-size="14" lengthAdjust="spacing" textLength="66" x="759" y="1220.0176">Wali Murid</text><rect fill="#F1F1F1" height="35.0938" rx="12.5" ry="12.5" style="stroke:#181818;stroke-width:0.5;" width="228" x="789" y="1242.0938"/><text fill="#000000" font-family="sans-serif" font-size="12" lengthAdjust="spacing" textLength="208" x="799" y="1264.5508">Wali murid mengisi password saat ini</text><rect fill="#F1F1F1" height="35.0938" rx="12.5" ry="12.5" style="stroke:#181818;stroke-width:0.5;" width="213" x="796.5" y="1312.1875"/><text fill="#000000" font-family="sans-serif" font-size="12" lengthAdjust="spacing" textLength="193" x="806.5" y="1334.6445">Wali murid mengisi password baru</text><rect fill="#F1F1F1" height="35.0938" rx="12.5" ry="12.5" style="stroke:#181818;stroke-width:0.5;" width="274" x="766" y="1382.2813"/><text fill="#000000" font-family="sans-serif" font-size="12" lengthAdjust="spacing" textLength="254" x="776" y="1404.7383">Wali murid mengisi konfirmasi password baru</text><rect fill="#F1F1F1" height="35.0938" rx="12.5" ry="12.5" style="stroke:#181818;stroke-width:0.5;" width="243" x="781.5" y="1452.375"/><text fill="#000000" font-family="sans-serif" font-size="12" lengthAdjust="spacing" textLength="223" x="791.5" y="1474.832">Wali murid klik tombol Update Password</text><rect fill="none" height="92.7031" style="stroke:#000000;stroke-width:1.5;" width="186" x="810" y="1542.4688"/><path d="M862,1542.4688 L862,1553.0781 L852,1563.0781 L810,1563.0781 " fill="none" style="stroke:#000000;stroke-width:1.5;"/><text fill="#000000" font-family="sans-serif" font-size="14" lengthAdjust="spacing" textLength="42" x="813" y="1558.002">Sistem</text><rect fill="#F1F1F1" height="35.0938" rx="12.5" ry="12.5" style="stroke:#181818;stroke-width:0.5;" width="166" x="820" y="1580.0781"/><text fill="#000000" font-family="sans-serif" font-size="12" lengthAdjust="spacing" textLength="146" x="830" y="1602.5352">Memeriksa data password</text><polygon fill="#F1F1F1" points="850,1670.1719,956,1670.1719,968,1682.1719,956,1694.1719,850,1694.1719,838,1682.1719,850,1670.1719" style="stroke:#181818;stroke-width:0.5;"/><text fill="#000000" font-family="sans-serif" font-size="11" lengthAdjust="spacing" textLength="106" x="850" y="1686.6729">Data password valid?</text><text fill="#000000" font-family="sans-serif" font-size="11" lengthAdjust="spacing" textLength="14" x="824" y="1679.7549">Ya</text><text fill="#000000" font-family="sans-serif" font-size="11" lengthAdjust="spacing" textLength="25" x="968" y="1679.7549">Tidak</text><rect fill="none" height="224.8906" style="stroke:#000000;stroke-width:1.5;" width="274" x="619" y="1704.1719"/><path d="M671,1704.1719 L671,1714.7813 L661,1724.7813 L619,1724.7813 " fill="none" style="stroke:#000000;stroke-width:1.5;"/><text fill="#000000" font-family="sans-serif" font-size="14" lengthAdjust="spacing" textLength="42" x="622" y="1719.7051">Sistem</text><rect fill="#F1F1F1" height="35.0938" rx="12.5" ry="12.5" style="stroke:#181818;stroke-width:0.5;" width="151" x="680.5" y="1741.7813"/><text fill="#000000" font-family="sans-serif" font-size="12" lengthAdjust="spacing" textLength="131" x="690.5" y="1764.2383">Memperbarui password</text><rect fill="#F1F1F1" height="35.0938" rx="12.5" ry="12.5" style="stroke:#181818;stroke-width:0.5;" width="180" x="666" y="1811.875"/><text fill="#000000" font-family="sans-serif" font-size="12" lengthAdjust="spacing" textLength="160" x="676" y="1834.332">Menampilkan pesan berhasil</text><rect fill="#F1F1F1" height="35.0938" rx="12.5" ry="12.5" style="stroke:#181818;stroke-width:0.5;" width="254" x="629" y="1881.9688"/><text fill="#000000" font-family="sans-serif" font-size="12" lengthAdjust="spacing" textLength="234" x="639" y="1904.4258">Menampilkan kembali halaman Profil Saya</text><rect fill="none" height="177.8906" style="stroke:#000000;stroke-width:1.5;" width="274" x="913" y="1704.1719"/><path d="M965,1704.1719 L965,1714.7813 L955,1724.7813 L913,1724.7813 " fill="none" style="stroke:#000000;stroke-width:1.5;"/><text fill="#000000" font-family="sans-serif" font-size="14" lengthAdjust="spacing" textLength="42" x="916" y="1719.7051">Sistem</text><rect fill="#F1F1F1" height="35.0938" rx="12.5" ry="12.5" style="stroke:#181818;stroke-width:0.5;" width="161" x="969.5" y="1741.7813"/><text fill="#000000" font-family="sans-serif" font-size="12" lengthAdjust="spacing" textLength="141" x="979.5" y="1764.2383">Menampilkan pesan error</text><rect fill="#F1F1F1" height="50.1875" rx="12.5" ry="12.5" style="stroke:#181818;stroke-width:0.5;" width="254" x="923" y="1811.875"/><text fill="#000000" font-family="sans-serif" font-size="12" lengthAdjust="spacing" textLength="234" x="933" y="1834.332">Menampilkan kembali halaman Profil Saya</text><text fill="#000000" font-family="sans-serif" font-size="12" lengthAdjust="spacing" textLength="128" x="933" y="1849.4258">beserta form password</text><polygon fill="#F1F1F1" points="903,1935.0625,915,1947.0625,903,1959.0625,891,1947.0625,903,1935.0625" style="stroke:#181818;stroke-width:0.5;"/><polygon fill="#F1F1F1" points="599,1965.0625,611,1977.0625,599,1989.0625,587,1977.0625,599,1965.0625" style="stroke:#181818;stroke-width:0.5;"/><rect fill="none" height="84.7031" style="stroke:#000000;stroke-width:1.5;" width="285" x="1227" y="1065.7813"/><path d="M1303,1065.7813 L1303,1076.3906 L1293,1086.3906 L1227,1086.3906 " fill="none" style="stroke:#000000;stroke-width:1.5;"/><text fill="#000000" font-family="sans-serif" font-size="14" lengthAdjust="spacing" textLength="66" x="1230" y="1081.3145">Wali Murid</text><rect fill="#F1F1F1" height="35.0938" rx="12.5" ry="12.5" style="stroke:#181818;stroke-width:0.5;" width="265" x="1237" y="1103.3906"/><text fill="#000000" font-family="sans-serif" font-size="12" lengthAdjust="spacing" textLength="245" x="1247" y="1125.8477">Wali murid tidak melakukan perubahan profil</text><polygon fill="#F1F1F1" points="984.25,1995.0625,996.25,2007.0625,984.25,2019.0625,972.25,2007.0625,984.25,1995.0625" style="stroke:#181818;stroke-width:0.5;"/><rect fill="none" height="84.7031" style="stroke:#000000;stroke-width:1.5;" width="216" x="1536" y="422.2031"/><path d="M1588,422.2031 L1588,432.8125 L1578,442.8125 L1536,442.8125 " fill="none" style="stroke:#000000;stroke-width:1.5;"/><text fill="#000000" font-family="sans-serif" font-size="14" lengthAdjust="spacing" textLength="42" x="1539" y="437.7363">Sistem</text><rect fill="#F1F1F1" height="35.0938" rx="12.5" ry="12.5" style="stroke:#181818;stroke-width:0.5;" width="196" x="1546" y="459.8125"/><text fill="#000000" font-family="sans-serif" font-size="12" lengthAdjust="spacing" textLength="176" x="1556" y="482.2695">Menampilkan pesan login gagal</text><rect fill="none" height="92.7031" style="stroke:#000000;stroke-width:1.5;" width="244" x="1522" y="541.9063"/><path d="M1598,541.9063 L1598,552.5156 L1588,562.5156 L1522,562.5156 " fill="none" style="stroke:#000000;stroke-width:1.5;"/><text fill="#000000" font-family="sans-serif" font-size="14" lengthAdjust="spacing" textLength="66" x="1525" y="557.4395">Wali Murid</text><rect fill="#F1F1F1" height="35.0938" rx="12.5" ry="12.5" style="stroke:#181818;stroke-width:0.5;" width="224" x="1532" y="579.5156"/><text fill="#000000" font-family="sans-serif" font-size="12" lengthAdjust="spacing" textLength="204" x="1542" y="601.9727">Wali murid kembali ke halaman login</text><polygon fill="#F1F1F1" points="1324.125,2025.0625,1336.125,2037.0625,1324.125,2049.0625,1312.125,2037.0625,1324.125,2025.0625" style="stroke:#181818;stroke-width:0.5;"/><ellipse cx="1324.125" cy="2080.0625" fill="none" rx="11" ry="11" style="stroke:#222222;stroke-width:1.0;"/><ellipse cx="1324.125" cy="2080.0625" fill="#222222" rx="6" ry="6" style="stroke:#222222;stroke-width:1.0;"/><line style="stroke:#181818;stroke-width:1.0;" x1="1324.125" x2="1324.125" y1="151.3125" y2="171.3125"/><polygon fill="#181818" points="1320.125,161.3125,1324.125,171.3125,1328.125,161.3125,1324.125,165.3125" style="stroke:#181818;stroke-width:1.0;"/><line style="stroke:#181818;stroke-width:1.0;" x1="1324.125" x2="1324.125" y1="206.4063" y2="226.4063"/><polygon fill="#181818" points="1320.125,216.4063,1324.125,226.4063,1328.125,216.4063,1324.125,220.4063" style="stroke:#181818;stroke-width:1.0;"/><line style="stroke:#181818;stroke-width:1.0;" x1="1324.125" x2="1324.125" y1="68.6094" y2="116.2188"/><polygon fill="#181818" points="1320.125,106.2188,1324.125,116.2188,1328.125,106.2188,1324.125,110.2188" style="stroke:#181818;stroke-width:1.0;"/><line style="stroke:#181818;stroke-width:1.0;" x1="1324.125" x2="1324.125" y1="261.5" y2="321.1094"/><polygon fill="#181818" points="1320.125,311.1094,1324.125,321.1094,1328.125,311.1094,1324.125,315.1094" style="stroke:#181818;stroke-width:1.0;"/><line style="stroke:#181818;stroke-width:1.0;" x1="984.25" x2="984.25" y1="494.9063" y2="521.9063"/><polygon fill="#181818" points="980.25,511.9063,984.25,521.9063,988.25,511.9063,984.25,515.9063" style="stroke:#181818;stroke-width:1.0;"/><line style="stroke:#181818;stroke-width:1.0;" x1="984.25" x2="984.25" y1="684.7031" y2="704.7031"/><polygon fill="#181818" points="980.25,694.7031,984.25,704.7031,988.25,694.7031,984.25,698.7031" style="stroke:#181818;stroke-width:1.0;"/><line style="stroke:#181818;stroke-width:1.0;" x1="984.25" x2="984.25" y1="739.7969" y2="759.7969"/><polygon fill="#181818" points="980.25,749.7969,984.25,759.7969,988.25,749.7969,984.25,753.7969" style="stroke:#181818;stroke-width:1.0;"/><line style="stroke:#181818;stroke-width:1.0;" x1="984.25" x2="984.25" y1="794.8906" y2="814.8906"/><polygon fill="#181818" points="980.25,804.8906,984.25,814.8906,988.25,804.8906,984.25,808.8906" style="stroke:#181818;stroke-width:1.0;"/><line style="stroke:#181818;stroke-width:1.0;" x1="984.25" x2="984.25" y1="849.9844" y2="869.9844"/><polygon fill="#181818" points="980.25,859.9844,984.25,869.9844,988.25,859.9844,984.25,863.9844" style="stroke:#181818;stroke-width:1.0;"/><line style="stroke:#181818;stroke-width:1.0;" x1="984.25" x2="984.25" y1="557" y2="649.6094"/><polygon fill="#181818" points="980.25,639.6094,984.25,649.6094,988.25,639.6094,984.25,643.6094" style="stroke:#181818;stroke-width:1.0;"/><line style="stroke:#181818;stroke-width:1.0;" x1="984.25" x2="984.25" y1="905.0781" y2="964.6875"/><polygon fill="#181818" points="980.25,954.6875,984.25,964.6875,988.25,954.6875,984.25,958.6875" style="stroke:#181818;stroke-width:1.0;"/><line style="stroke:#181818;stroke-width:1.0;" x1="295" x2="295" y1="1321.8711" y2="1401.5547"/><polygon fill="#181818" points="291,1391.5547,295,1401.5547,299,1391.5547,295,1395.5547" style="stroke:#181818;stroke-width:1.0;"/><line style="stroke:#181818;stroke-width:1.0;" x1="295" x2="295" y1="1436.6484" y2="1529.2578"/><polygon fill="#181818" points="291,1519.2578,295,1529.2578,299,1519.2578,295,1523.2578" style="stroke:#181818;stroke-width:1.0;"/><line style="stroke:#181818;stroke-width:1.0;" x1="148" x2="148" y1="1726.0547" y2="1761.0547"/><polygon fill="#181818" points="144,1751.0547,148,1761.0547,152,1751.0547,148,1755.0547" style="stroke:#181818;stroke-width:1.0;"/><line style="stroke:#181818;stroke-width:1.0;" x1="148" x2="148" y1="1796.1484" y2="1831.1484"/><polygon fill="#181818" points="144,1821.1484,148,1831.1484,152,1821.1484,148,1825.1484" style="stroke:#181818;stroke-width:1.0;"/><line style="stroke:#181818;stroke-width:1.0;" x1="442" x2="442" y1="1726.0547" y2="1761.0547"/><polygon fill="#181818" points="438,1751.0547,442,1761.0547,446,1751.0547,442,1755.0547" style="stroke:#181818;stroke-width:1.0;"/><line style="stroke:#181818;stroke-width:1.0;" x1="243" x2="148" y1="1631.3516" y2="1631.3516"/><line style="stroke:#181818;stroke-width:1.0;" x1="148" x2="148" y1="1631.3516" y2="1690.9609"/><polygon fill="#181818" points="144,1680.9609,148,1690.9609,152,1680.9609,148,1684.9609" style="stroke:#181818;stroke-width:1.0;"/><line style="stroke:#181818;stroke-width:1.0;" x1="347" x2="442" y1="1631.3516" y2="1631.3516"/><line style="stroke:#181818;stroke-width:1.0;" x1="442" x2="442" y1="1631.3516" y2="1690.9609"/><polygon fill="#181818" points="438,1680.9609,442,1690.9609,446,1680.9609,442,1684.9609" style="stroke:#181818;stroke-width:1.0;"/><line style="stroke:#181818;stroke-width:1.0;" x1="148" x2="148" y1="1866.2422" y2="1904.2422"/><line style="stroke:#181818;stroke-width:1.0;" x1="148" x2="283" y1="1904.2422" y2="1904.2422"/><polygon fill="#181818" points="273,1900.2422,283,1904.2422,273,1908.2422,277,1904.2422" style="stroke:#181818;stroke-width:1.0;"/><line style="stroke:#181818;stroke-width:1.0;" x1="442" x2="442" y1="1811.2422" y2="1904.2422"/><line style="stroke:#181818;stroke-width:1.0;" x1="442" x2="307" y1="1904.2422" y2="1904.2422"/><polygon fill="#181818" points="317,1900.2422,307,1904.2422,317,1908.2422,313,1904.2422" style="stroke:#181818;stroke-width:1.0;"/><line style="stroke:#181818;stroke-width:1.0;" x1="295" x2="295" y1="1564.3516" y2="1619.3516"/><polygon fill="#181818" points="291,1609.3516,295,1619.3516,299,1609.3516,295,1613.3516" style="stroke:#181818;stroke-width:1.0;"/><line style="stroke:#181818;stroke-width:1.0;" x1="903" x2="903" y1="1277.1875" y2="1312.1875"/><polygon fill="#181818" points="899,1302.1875,903,1312.1875,907,1302.1875,903,1306.1875" style="stroke:#181818;stroke-width:1.0;"/><line style="stroke:#181818;stroke-width:1.0;" x1="903" x2="903" y1="1347.2813" y2="1382.2813"/><polygon fill="#181818" points="899,1372.2813,903,1382.2813,907,1372.2813,903,1376.2813" style="stroke:#181818;stroke-width:1.0;"/><line style="stroke:#181818;stroke-width:1.0;" x1="903" x2="903" y1="1417.375" y2="1452.375"/><polygon fill="#181818" points="899,1442.375,903,1452.375,907,1442.375,903,1446.375" style="stroke:#181818;stroke-width:1.0;"/><line style="stroke:#181818;stroke-width:1.0;" x1="903" x2="903" y1="1487.4688" y2="1580.0781"/><polygon fill="#181818" points="899,1570.0781,903,1580.0781,907,1570.0781,903,1574.0781" style="stroke:#181818;stroke-width:1.0;"/><line style="stroke:#181818;stroke-width:1.0;" x1="756" x2="756" y1="1776.875" y2="1811.875"/><polygon fill="#181818" points="752,1801.875,756,1811.875,760,1801.875,756,1805.875" style="stroke:#181818;stroke-width:1.0;"/><line style="stroke:#181818;stroke-width:1.0;" x1="756" x2="756" y1="1846.9688" y2="1881.9688"/><polygon fill="#181818" points="752,1871.9688,756,1881.9688,760,1871.9688,756,1875.9688" style="stroke:#181818;stroke-width:1.0;"/><line style="stroke:#181818;stroke-width:1.0;" x1="1050" x2="1050" y1="1776.875" y2="1811.875"/><polygon fill="#181818" points="1046,1801.875,1050,1811.875,1054,1801.875,1050,1805.875" style="stroke:#181818;stroke-width:1.0;"/><line style="stroke:#181818;stroke-width:1.0;" x1="838" x2="756" y1="1682.1719" y2="1682.1719"/><line style="stroke:#181818;stroke-width:1.0;" x1="756" x2="756" y1="1682.1719" y2="1741.7813"/><polygon fill="#181818" points="752,1731.7813,756,1741.7813,760,1731.7813,756,1735.7813" style="stroke:#181818;stroke-width:1.0;"/><line style="stroke:#181818;stroke-width:1.0;" x1="968" x2="1050" y1="1682.1719" y2="1682.1719"/><line style="stroke:#181818;stroke-width:1.0;" x1="1050" x2="1050" y1="1682.1719" y2="1741.7813"/><polygon fill="#181818" points="1046,1731.7813,1050,1741.7813,1054,1731.7813,1050,1735.7813" style="stroke:#181818;stroke-width:1.0;"/><line style="stroke:#181818;stroke-width:1.0;" x1="756" x2="756" y1="1917.0625" y2="1947.0625"/><line style="stroke:#181818;stroke-width:1.0;" x1="756" x2="891" y1="1947.0625" y2="1947.0625"/><polygon fill="#181818" points="881,1943.0625,891,1947.0625,881,1951.0625,885,1947.0625" style="stroke:#181818;stroke-width:1.0;"/><line style="stroke:#181818;stroke-width:1.0;" x1="1050" x2="1050" y1="1862.0625" y2="1947.0625"/><line style="stroke:#181818;stroke-width:1.0;" x1="1050" x2="915" y1="1947.0625" y2="1947.0625"/><polygon fill="#181818" points="925,1943.0625,915,1947.0625,925,1951.0625,921,1947.0625" style="stroke:#181818;stroke-width:1.0;"/><line style="stroke:#181818;stroke-width:1.0;" x1="903" x2="903" y1="1615.1719" y2="1670.1719"/><polygon fill="#181818" points="899,1660.1719,903,1670.1719,907,1660.1719,903,1664.1719" style="stroke:#181818;stroke-width:1.0;"/><line style="stroke:#181818;stroke-width:1.0;" x1="545.5" x2="295" y1="1182.4844" y2="1182.4844"/><line style="stroke:#181818;stroke-width:1.0;" x1="295" x2="295" y1="1182.4844" y2="1286.7773"/><polygon fill="#181818" points="291,1276.7773,295,1286.7773,299,1276.7773,295,1280.7773" style="stroke:#181818;stroke-width:1.0;"/><line style="stroke:#181818;stroke-width:1.0;" x1="652.5" x2="903" y1="1182.4844" y2="1182.4844"/><line style="stroke:#181818;stroke-width:1.0;" x1="903" x2="903" y1="1182.4844" y2="1242.0938"/><polygon fill="#181818" points="899,1232.0938,903,1242.0938,907,1232.0938,903,1236.0938" style="stroke:#181818;stroke-width:1.0;"/><line style="stroke:#181818;stroke-width:1.0;" x1="295" x2="295" y1="1916.2422" y2="1977.0625"/><line style="stroke:#181818;stroke-width:1.0;" x1="295" x2="587" y1="1977.0625" y2="1977.0625"/><polygon fill="#181818" points="577,1973.0625,587,1977.0625,577,1981.0625,581,1977.0625" style="stroke:#181818;stroke-width:1.0;"/><line style="stroke:#181818;stroke-width:1.0;" x1="903" x2="903" y1="1959.0625" y2="1977.0625"/><line style="stroke:#181818;stroke-width:1.0;" x1="903" x2="611" y1="1977.0625" y2="1977.0625"/><polygon fill="#181818" points="621,1973.0625,611,1977.0625,621,1981.0625,617,1977.0625" style="stroke:#181818;stroke-width:1.0;"/><line style="stroke:#181818;stroke-width:1.0;" x1="599" x2="599" y1="1138.4844" y2="1170.4844"/><polygon fill="#181818" points="595,1160.4844,599,1170.4844,603,1160.4844,599,1164.4844" style="stroke:#181818;stroke-width:1.0;"/><line style="stroke:#181818;stroke-width:1.0;" x1="893.25" x2="599" y1="1043.7813" y2="1043.7813"/><line style="stroke:#181818;stroke-width:1.0;" x1="599" x2="599" y1="1043.7813" y2="1103.3906"/><polygon fill="#181818" points="595,1093.3906,599,1103.3906,603,1093.3906,599,1097.3906" style="stroke:#181818;stroke-width:1.0;"/><line style="stroke:#181818;stroke-width:1.0;" x1="1075.25" x2="1369.5" y1="1043.7813" y2="1043.7813"/><line style="stroke:#181818;stroke-width:1.0;" x1="1369.5" x2="1369.5" y1="1043.7813" y2="1103.3906"/><polygon fill="#181818" points="1365.5,1093.3906,1369.5,1103.3906,1373.5,1093.3906,1369.5,1097.3906" style="stroke:#181818;stroke-width:1.0;"/><line style="stroke:#181818;stroke-width:1.0;" x1="599" x2="599" y1="1989.0625" y2="2007.0625"/><line style="stroke:#181818;stroke-width:1.0;" x1="599" x2="972.25" y1="2007.0625" y2="2007.0625"/><polygon fill="#181818" points="962.25,2003.0625,972.25,2007.0625,962.25,2011.0625,966.25,2007.0625" style="stroke:#181818;stroke-width:1.0;"/><line style="stroke:#181818;stroke-width:1.0;" x1="1369.5" x2="1369.5" y1="1138.4844" y2="2007.0625"/><line style="stroke:#181818;stroke-width:1.0;" x1="1369.5" x2="996.25" y1="2007.0625" y2="2007.0625"/><polygon fill="#181818" points="1006.25,2003.0625,996.25,2007.0625,1006.25,2011.0625,1002.25,2007.0625" style="stroke:#181818;stroke-width:1.0;"/><line style="stroke:#181818;stroke-width:1.0;" x1="984.25" x2="984.25" y1="999.7813" y2="1031.7813"/><polygon fill="#181818" points="980.25,1021.7813,984.25,1031.7813,988.25,1021.7813,984.25,1025.7813" style="stroke:#181818;stroke-width:1.0;"/><line style="stroke:#181818;stroke-width:1.0;" x1="1644" x2="1644" y1="494.9063" y2="579.5156"/><polygon fill="#181818" points="1640,569.5156,1644,579.5156,1648,569.5156,1644,573.5156" style="stroke:#181818;stroke-width:1.0;"/><line style="stroke:#181818;stroke-width:1.0;" x1="1283.625" x2="984.25" y1="400.2031" y2="400.2031"/><line style="stroke:#181818;stroke-width:1.0;" x1="984.25" x2="984.25" y1="400.2031" y2="459.8125"/><polygon fill="#181818" points="980.25,449.8125,984.25,459.8125,988.25,449.8125,984.25,453.8125" style="stroke:#181818;stroke-width:1.0;"/><line style="stroke:#181818;stroke-width:1.0;" x1="1364.625" x2="1644" y1="400.2031" y2="400.2031"/><line style="stroke:#181818;stroke-width:1.0;" x1="1644" x2="1644" y1="400.2031" y2="459.8125"/><polygon fill="#181818" points="1640,449.8125,1644,459.8125,1648,449.8125,1644,453.8125" style="stroke:#181818;stroke-width:1.0;"/><line style="stroke:#181818;stroke-width:1.0;" x1="984.25" x2="984.25" y1="2019.0625" y2="2037.0625"/><line style="stroke:#181818;stroke-width:1.0;" x1="984.25" x2="1312.125" y1="2037.0625" y2="2037.0625"/><polygon fill="#181818" points="1302.125,2033.0625,1312.125,2037.0625,1302.125,2041.0625,1306.125,2037.0625" style="stroke:#181818;stroke-width:1.0;"/><line style="stroke:#181818;stroke-width:1.0;" x1="1644" x2="1644" y1="614.6094" y2="2037.0625"/><line style="stroke:#181818;stroke-width:1.0;" x1="1644" x2="1336.125" y1="2037.0625" y2="2037.0625"/><polygon fill="#181818" points="1346.125,2033.0625,1336.125,2037.0625,1346.125,2041.0625,1342.125,2037.0625" style="stroke:#181818;stroke-width:1.0;"/><line style="stroke:#181818;stroke-width:1.0;" x1="1324.125" x2="1324.125" y1="356.2031" y2="388.2031"/><polygon fill="#181818" points="1320.125,378.2031,1324.125,388.2031,1328.125,378.2031,1324.125,382.2031" style="stroke:#181818;stroke-width:1.0;"/><line style="stroke:#181818;stroke-width:1.0;" x1="1324.125" x2="1324.125" y1="2049.0625" y2="2069.0625"/><polygon fill="#181818" points="1320.125,2059.0625,1324.125,2069.0625,1328.125,2059.0625,1324.125,2063.0625" style="stroke:#181818;stroke-width:1.0;"/><!--SRC=[xLOzRzim4DtrAmwPd27j7W-5WHJDK1S6tA3eUAfewSfFa5G2eyX_BobPjcJHjjnah0PR4E_ZtJk-8prvmM3nozCp-Iqy49OM9Tp13nG4ozfI0KkcIYQqG5XPlI41QznYbZcFrcUP2R_aIIkuEVZSm9yCmdFVV99D6CbaNdE42WLAL21qIMgUCaDNSnuimXk9ZxLZLg5aK8HF1frxqROO-t517BoMkHRmjGtzEa2t9kUPt2DRCiaiSOSXhiSM3RpiupNUj85P4mkUmqBnwHPynHJCVk9jraGvM_oeibWNy5Y8gtADNHK91aXG5VvLlQEyDNmT9HtMjAiha6L8H08xgdjzcwSjSz8D3Nq2aeORRIKyvLWDaANDlg3o1Aj1oqQM3p7jGY4_LUC4ObcW2psOCLUnWprBKh6PSh-XMuz1Nxi45n6SQXjoHmCeFJWTf4MqsQ8geI0JlVOGUjJU3b9DmZF6fCewHcoQUmogUvJs32oLbHyjDTrfWQ8951SKmzsFxExWMzXf848-ZYQn_3bgEUMcFu1dWXcj4gkBk7zzOk6npcjLOifdnJYplp6nnbJHr7gMiluSMPCqU_aCUUirzA8cU_j-C7FCvRXnipmSR1Dpw3Z992IT2hTjWORPsDRuTcABZ6Hhc8jZWzaAtIG77iP_PFdiJ3gmCEYRS0nctwb0_iPwZ-0pQxLz6_OiP-5y2Wrg9juf-exgKGLj3drkoniEotVIFiLHj0i93eE0IT7yEhSSRJtDXMkr8HkEkQky-u9xCa4OB75al9lafaG-YAwhudrb9uFU8Yzq0iv_mKqNt4a2Kv9B231PwjLdlu_-yHw2lEPd1seBQmTWb7pwrQxbixsrbbYY-FVhKqTsk9acxkQlsGwiyzhy1G00]--></g></svg>