<?xml version="1.0" encoding="us-ascii" standalone="no"?><svg xmlns="http://www.w3.org/2000/svg" xmlns:xlink="http://www.w3.org/1999/xlink" contentStyleType="text/css" height="1290px" preserveAspectRatio="none" style="width:782px;height:1290px;background:#FFFFFF;" version="1.1" viewBox="0 0 782 1290" width="782px" zoomAndPan="magnify"><defs/><g><text fill="#000000" font-family="sans-serif" font-size="14" font-weight="bold" lengthAdjust="spacing" textLength="325" x="227" y="34.5332">Activity Diagram - Guru Mengakses Dashboard</text><ellipse cx="473.5" cy="58.6094" fill="#222222" rx="10" ry="10" style="stroke:#222222;stroke-width:1.0;"/><rect fill="none" height="194.8906" style="stroke:#000000;stroke-width:1.5;" width="288" x="329.5" y="78.6094"/><path d="M371.5,78.6094 L371.5,89.2188 L361.5,99.2188 L329.5,99.2188 " fill="none" style="stroke:#000000;stroke-width:1.5;"/><text fill="#000000" font-family="sans-serif" font-size="14" lengthAdjust="spacing" textLength="32" x="332.5" y="94.1426">Guru</text><rect fill="#F1F1F1" height="35.0938" rx="12.5" ry="12.5" style="stroke:#181818;stroke-width:0.5;" width="188" x="379.5" y="116.2188"/><text fill="#000000" font-family="sans-serif" font-size="12" lengthAdjust="spacing" textLength="168" x="389.5" y="138.6758">Guru membuka halaman login</text><rect fill="#F1F1F1" height="35.0938" rx="12.5" ry="12.5" style="stroke:#181818;stroke-width:0.5;" width="268" x="339.5" y="171.3125"/><text fill="#000000" font-family="sans-serif" font-size="12" lengthAdjust="spacing" textLength="248" x="349.5" y="193.7695">Guru memasukkan username dan password</text><rect fill="#F1F1F1" height="35.0938" rx="12.5" ry="12.5" style="stroke:#181818;stroke-width:0.5;" width="143" x="402" y="226.4063"/><text fill="#000000" font-family="sans-serif" font-size="12" lengthAdjust="spacing" textLength="123" x="412" y="248.8633">Guru klik tombol Login</text><rect fill="none" height="84.7031" style="stroke:#000000;stroke-width:1.5;" width="186" x="380.5" y="283.5"/><path d="M432.5,283.5 L432.5,294.1094 L422.5,304.1094 L380.5,304.1094 " fill="none" style="stroke:#000000;stroke-width:1.5;"/><text fill="#000000" font-family="sans-serif" font-size="14" lengthAdjust="spacing" textLength="42" x="383.5" y="299.0332">Sistem</text><rect fill="#F1F1F1" height="35.0938" rx="12.5" ry="12.5" style="stroke:#181818;stroke-width:0.5;" width="166" x="390.5" y="321.1094"/><text fill="#000000" font-family="sans-serif" font-size="12" lengthAdjust="spacing" textLength="146" x="400.5" y="343.5664">Memeriksa data login guru</text><polygon fill="#F1F1F1" points="445,388.2031,502,388.2031,514,400.2031,502,412.2031,445,412.2031,433,400.2031,445,388.2031" style="stroke:#181818;stroke-width:0.5;"/><text fill="#000000" font-family="sans-serif" font-size="11" lengthAdjust="spacing" textLength="57" x="445" y="404.7041">Login valid?</text><text fill="#000000" font-family="sans-serif" font-size="11" lengthAdjust="spacing" textLength="14" x="419" y="397.7861">Ya</text><text fill="#000000" font-family="sans-serif" font-size="11" lengthAdjust="spacing" textLength="25" x="514" y="397.7861">Tidak</text><rect fill="none" height="84.7031" style="stroke:#000000;stroke-width:1.5;" width="187" x="190.5" y="422.2031"/><path d="M232.5,422.2031 L232.5,432.8125 L222.5,442.8125 L190.5,442.8125 " fill="none" style="stroke:#000000;stroke-width:1.5;"/><text fill="#000000" font-family="sans-serif" font-size="14" lengthAdjust="spacing" textLength="32" x="193.5" y="437.7363">Guru</text><rect fill="#F1F1F1" height="35.0938" rx="12.5" ry="12.5" style="stroke:#181818;stroke-width:0.5;" width="167" x="200.5" y="459.8125"/><text fill="#000000" font-family="sans-serif" font-size="12" lengthAdjust="spacing" textLength="147" x="210.5" y="482.2695">Guru masuk ke dashboard</text><rect fill="none" height="312.0781" style="stroke:#000000;stroke-width:1.5;" width="282" x="143" y="516.9063"/><path d="M195,516.9063 L195,527.5156 L185,537.5156 L143,537.5156 " fill="none" style="stroke:#000000;stroke-width:1.5;"/><text fill="#000000" font-family="sans-serif" font-size="14" lengthAdjust="spacing" textLength="42" x="146" y="532.4395">Sistem</text><rect fill="#F1F1F1" height="35.0938" rx="12.5" ry="12.5" style="stroke:#181818;stroke-width:0.5;" width="241" x="163.5" y="554.5156"/><text fill="#000000" font-family="sans-serif" font-size="12" lengthAdjust="spacing" textLength="221" x="173.5" y="576.9727">Menampilkan halaman Dashboard Guru</text><rect fill="#F1F1F1" height="35.0938" rx="12.5" ry="12.5" style="stroke:#181818;stroke-width:0.5;" width="244" x="162" y="616.6094"/><text fill="#000000" font-family="sans-serif" font-size="12" lengthAdjust="spacing" textLength="224" x="172" y="639.0664">Menampilkan informasi jadwal mengajar</text><rect fill="#F1F1F1" height="35.0938" rx="12.5" ry="12.5" style="stroke:#181818;stroke-width:0.5;" width="211" x="178.5" y="671.7031"/><text fill="#000000" font-family="sans-serif" font-size="12" lengthAdjust="spacing" textLength="191" x="188.5" y="694.1602">Menampilkan informasi total siswa</text><rect fill="#F1F1F1" height="35.0938" rx="12.5" ry="12.5" style="stroke:#181818;stroke-width:0.5;" width="237" x="165.5" y="726.7969"/><text fill="#000000" font-family="sans-serif" font-size="12" lengthAdjust="spacing" textLength="217" x="175.5" y="749.2539">Menampilkan informasi absensi hari ini</text><rect fill="#F1F1F1" height="35.0938" rx="12.5" ry="12.5" style="stroke:#181818;stroke-width:0.5;" width="262" x="153" y="781.8906"/><text fill="#000000" font-family="sans-serif" font-size="12" lengthAdjust="spacing" textLength="242" x="163" y="804.3477">Menampilkan tabel Jadwal Mengajar Hari Ini</text><rect fill="none" height="84.7031" style="stroke:#000000;stroke-width:1.5;" width="229" x="169.5" y="838.9844"/><path d="M211.5,838.9844 L211.5,849.5938 L201.5,859.5938 L169.5,859.5938 " fill="none" style="stroke:#000000;stroke-width:1.5;"/><text fill="#000000" font-family="sans-serif" font-size="14" lengthAdjust="spacing" textLength="32" x="172.5" y="854.5176">Guru</text><rect fill="#F1F1F1" height="35.0938" rx="12.5" ry="12.5" style="stroke:#181818;stroke-width:0.5;" width="209" x="179.5" y="876.5938"/><text fill="#000000" font-family="sans-serif" font-size="12" lengthAdjust="spacing" textLength="189" x="189.5" y="899.0508">Guru melihat informasi dashboard</text><polygon fill="#F1F1F1" points="203.5,943.6875,364.5,943.6875,376.5,955.6875,364.5,967.6875,203.5,967.6875,191.5,955.6875,203.5,943.6875" style="stroke:#181818;stroke-width:0.5;"/><text fill="#000000" font-family="sans-serif" font-size="11" lengthAdjust="spacing" textLength="161" x="203.5" y="960.1885">Guru ingin melihat semua jadwal?</text><text fill="#000000" font-family="sans-serif" font-size="11" lengthAdjust="spacing" textLength="14" x="177.5" y="953.2705">Ya</text><text fill="#000000" font-family="sans-serif" font-size="11" lengthAdjust="spacing" textLength="25" x="376.5" y="953.2705">Tidak</text><rect fill="none" height="92.7031" style="stroke:#000000;stroke-width:1.5;" width="202" x="49.5" y="977.6875"/><path d="M91.5,977.6875 L91.5,988.2969 L81.5,998.2969 L49.5,998.2969 " fill="none" style="stroke:#000000;stroke-width:1.5;"/><text fill="#000000" font-family="sans-serif" font-size="14" lengthAdjust="spacing" textLength="32" x="52.5" y="993.2207">Guru</text><rect fill="#F1F1F1" height="35.0938" rx="12.5" ry="12.5" style="stroke:#181818;stroke-width:0.5;" width="182" x="59.5" y="1015.2969"/><text fill="#000000" font-family="sans-serif" font-size="12" lengthAdjust="spacing" textLength="162" x="69.5" y="1037.7539">Guru klik tombol Lihat Semua</text><rect fill="none" height="84.7031" style="stroke:#000000;stroke-width:1.5;" width="279" x="11" y="1092.3906"/><path d="M63,1092.3906 L63,1103 L53,1113 L11,1113 " fill="none" style="stroke:#000000;stroke-width:1.5;"/><text fill="#000000" font-family="sans-serif" font-size="14" lengthAdjust="spacing" textLength="42" x="14" y="1107.9238">Sistem</text><rect fill="#F1F1F1" height="35.0938" rx="12.5" ry="12.5" style="stroke:#181818;stroke-width:0.5;" width="259" x="21" y="1130"/><text fill="#000000" font-family="sans-serif" font-size="12" lengthAdjust="spacing" textLength="239" x="31" y="1152.457">Mengarahkan ke halaman Jadwal Mengajar</text><rect fill="none" height="104.7031" style="stroke:#000000;stroke-width:1.5;" width="215" x="310" y="977.6875"/><path d="M352,977.6875 L352,988.2969 L342,998.2969 L310,998.2969 " fill="none" style="stroke:#000000;stroke-width:1.5;"/><text fill="#000000" font-family="sans-serif" font-size="14" lengthAdjust="spacing" textLength="32" x="313" y="993.2207">Guru</text><rect fill="#F1F1F1" height="50.1875" rx="12.5" ry="12.5" style="stroke:#181818;stroke-width:0.5;" width="195" x="320" y="1015.2969"/><text fill="#000000" font-family="sans-serif" font-size="12" lengthAdjust="spacing" textLength="175" x="330" y="1037.7539">Guru tetap berada di dashboard</text><text fill="#000000" font-family="sans-serif" font-size="12" lengthAdjust="spacing" textLength="130" x="330" y="1052.8477">atau memilih menu lain</text><polygon fill="#F1F1F1" points="284,1183.0938,296,1195.0938,284,1207.0938,272,1195.0938,284,1183.0938" style="stroke:#181818;stroke-width:0.5;"/><rect fill="none" height="84.7031" style="stroke:#000000;stroke-width:1.5;" width="216" x="555" y="422.2031"/><path d="M607,422.2031 L607,432.8125 L597,442.8125 L555,442.8125 " fill="none" style="stroke:#000000;stroke-width:1.5;"/><text fill="#000000" font-family="sans-serif" font-size="14" lengthAdjust="spacing" textLength="42" x="558" y="437.7363">Sistem</text><rect fill="#F1F1F1" height="35.0938" rx="12.5" ry="12.5" style="stroke:#181818;stroke-width:0.5;" width="196" x="565" y="459.8125"/><text fill="#000000" font-family="sans-serif" font-size="12" lengthAdjust="spacing" textLength="176" x="575" y="482.2695">Menampilkan pesan login gagal</text><rect fill="none" height="84.7031" style="stroke:#000000;stroke-width:1.5;" width="212" x="557" y="516.9063"/><path d="M599,516.9063 L599,527.5156 L589,537.5156 L557,537.5156 " fill="none" style="stroke:#000000;stroke-width:1.5;"/><text fill="#000000" font-family="sans-serif" font-size="14" lengthAdjust="spacing" textLength="32" x="560" y="532.4395">Guru</text><rect fill="#F1F1F1" height="35.0938" rx="12.5" ry="12.5" style="stroke:#181818;stroke-width:0.5;" width="192" x="567" y="554.5156"/><text fill="#000000" font-family="sans-serif" font-size="12" lengthAdjust="spacing" textLength="172" x="577" y="576.9727">Guru kembali ke halaman login</text><polygon fill="#F1F1F1" points="473.5,1213.0938,485.5,1225.0938,473.5,1237.0938,461.5,1225.0938,473.5,1213.0938" style="stroke:#181818;stroke-width:0.5;"/><ellipse cx="473.5" cy="1268.0938" fill="none" rx="11" ry="11" style="stroke:#222222;stroke-width:1.0;"/><ellipse cx="473.5" cy="1268.0938" fill="#222222" rx="6" ry="6" style="stroke:#222222;stroke-width:1.0;"/><line style="stroke:#181818;stroke-width:1.0;" x1="473.5" x2="473.5" y1="151.3125" y2="171.3125"/><polygon fill="#181818" points="469.5,161.3125,473.5,171.3125,477.5,161.3125,473.5,165.3125" style="stroke:#181818;stroke-width:1.0;"/><line style="stroke:#181818;stroke-width:1.0;" x1="473.5" x2="473.5" y1="206.4063" y2="226.4063"/><polygon fill="#181818" points="469.5,216.4063,473.5,226.4063,477.5,216.4063,473.5,220.4063" style="stroke:#181818;stroke-width:1.0;"/><line style="stroke:#181818;stroke-width:1.0;" x1="473.5" x2="473.5" y1="68.6094" y2="116.2188"/><polygon fill="#181818" points="469.5,106.2188,473.5,116.2188,477.5,106.2188,473.5,110.2188" style="stroke:#181818;stroke-width:1.0;"/><line style="stroke:#181818;stroke-width:1.0;" x1="473.5" x2="473.5" y1="261.5" y2="321.1094"/><polygon fill="#181818" points="469.5,311.1094,473.5,321.1094,477.5,311.1094,473.5,315.1094" style="stroke:#181818;stroke-width:1.0;"/><line style="stroke:#181818;stroke-width:1.0;" x1="284" x2="284" y1="589.6094" y2="616.6094"/><polygon fill="#181818" points="280,606.6094,284,616.6094,288,606.6094,284,610.6094" style="stroke:#181818;stroke-width:1.0;"/><line style="stroke:#181818;stroke-width:1.0;" x1="284" x2="284" y1="651.7031" y2="671.7031"/><polygon fill="#181818" points="280,661.7031,284,671.7031,288,661.7031,284,665.7031" style="stroke:#181818;stroke-width:1.0;"/><line style="stroke:#181818;stroke-width:1.0;" x1="284" x2="284" y1="706.7969" y2="726.7969"/><polygon fill="#181818" points="280,716.7969,284,726.7969,288,716.7969,284,720.7969" style="stroke:#181818;stroke-width:1.0;"/><line style="stroke:#181818;stroke-width:1.0;" x1="284" x2="284" y1="761.8906" y2="781.8906"/><polygon fill="#181818" points="280,771.8906,284,781.8906,288,771.8906,284,775.8906" style="stroke:#181818;stroke-width:1.0;"/><line style="stroke:#181818;stroke-width:1.0;" x1="284" x2="284" y1="494.9063" y2="554.5156"/><polygon fill="#181818" points="280,544.5156,284,554.5156,288,544.5156,284,548.5156" style="stroke:#181818;stroke-width:1.0;"/><line style="stroke:#181818;stroke-width:1.0;" x1="284" x2="284" y1="816.9844" y2="876.5938"/><polygon fill="#181818" points="280,866.5938,284,876.5938,288,866.5938,284,870.5938" style="stroke:#181818;stroke-width:1.0;"/><line style="stroke:#181818;stroke-width:1.0;" x1="150.5" x2="150.5" y1="1050.3906" y2="1130"/><polygon fill="#181818" points="146.5,1120,150.5,1130,154.5,1120,150.5,1124" style="stroke:#181818;stroke-width:1.0;"/><line style="stroke:#181818;stroke-width:1.0;" x1="191.5" x2="150.5" y1="955.6875" y2="955.6875"/><line style="stroke:#181818;stroke-width:1.0;" x1="150.5" x2="150.5" y1="955.6875" y2="1015.2969"/><polygon fill="#181818" points="146.5,1005.2969,150.5,1015.2969,154.5,1005.2969,150.5,1009.2969" style="stroke:#181818;stroke-width:1.0;"/><line style="stroke:#181818;stroke-width:1.0;" x1="376.5" x2="417.5" y1="955.6875" y2="955.6875"/><line style="stroke:#181818;stroke-width:1.0;" x1="417.5" x2="417.5" y1="955.6875" y2="1015.2969"/><polygon fill="#181818" points="413.5,1005.2969,417.5,1015.2969,421.5,1005.2969,417.5,1009.2969" style="stroke:#181818;stroke-width:1.0;"/><line style="stroke:#181818;stroke-width:1.0;" x1="150.5" x2="150.5" y1="1165.0938" y2="1195.0938"/><line style="stroke:#181818;stroke-width:1.0;" x1="150.5" x2="272" y1="1195.0938" y2="1195.0938"/><polygon fill="#181818" points="262,1191.0938,272,1195.0938,262,1199.0938,266,1195.0938" style="stroke:#181818;stroke-width:1.0;"/><line style="stroke:#181818;stroke-width:1.0;" x1="417.5" x2="417.5" y1="1065.4844" y2="1195.0938"/><line style="stroke:#181818;stroke-width:1.0;" x1="417.5" x2="296" y1="1195.0938" y2="1195.0938"/><polygon fill="#181818" points="306,1191.0938,296,1195.0938,306,1199.0938,302,1195.0938" style="stroke:#181818;stroke-width:1.0;"/><line style="stroke:#181818;stroke-width:1.0;" x1="284" x2="284" y1="911.6875" y2="943.6875"/><polygon fill="#181818" points="280,933.6875,284,943.6875,288,933.6875,284,937.6875" style="stroke:#181818;stroke-width:1.0;"/><line style="stroke:#181818;stroke-width:1.0;" x1="663" x2="663" y1="494.9063" y2="554.5156"/><polygon fill="#181818" points="659,544.5156,663,554.5156,667,544.5156,663,548.5156" style="stroke:#181818;stroke-width:1.0;"/><line style="stroke:#181818;stroke-width:1.0;" x1="433" x2="284" y1="400.2031" y2="400.2031"/><line style="stroke:#181818;stroke-width:1.0;" x1="284" x2="284" y1="400.2031" y2="459.8125"/><polygon fill="#181818" points="280,449.8125,284,459.8125,288,449.8125,284,453.8125" style="stroke:#181818;stroke-width:1.0;"/><line style="stroke:#181818;stroke-width:1.0;" x1="514" x2="663" y1="400.2031" y2="400.2031"/><line style="stroke:#181818;stroke-width:1.0;" x1="663" x2="663" y1="400.2031" y2="459.8125"/><polygon fill="#181818" points="659,449.8125,663,459.8125,667,449.8125,663,453.8125" style="stroke:#181818;stroke-width:1.0;"/><line style="stroke:#181818;stroke-width:1.0;" x1="284" x2="284" y1="1207.0938" y2="1225.0938"/><line style="stroke:#181818;stroke-width:1.0;" x1="284" x2="461.5" y1="1225.0938" y2="1225.0938"/><polygon fill="#181818" points="451.5,1221.0938,461.5,1225.0938,451.5,1229.0938,455.5,1225.0938" style="stroke:#181818;stroke-width:1.0;"/><line style="stroke:#181818;stroke-width:1.0;" x1="663" x2="663" y1="589.6094" y2="1225.0938"/><line style="stroke:#181818;stroke-width:1.0;" x1="663" x2="485.5" y1="1225.0938" y2="1225.0938"/><polygon fill="#181818" points="495.5,1221.0938,485.5,1225.0938,495.5,1229.0938,491.5,1225.0938" style="stroke:#181818;stroke-width:1.0;"/><line style="stroke:#181818;stroke-width:1.0;" x1="473.5" x2="473.5" y1="356.2031" y2="388.2031"/><polygon fill="#181818" points="469.5,378.2031,473.5,388.2031,477.5,378.2031,473.5,382.2031" style="stroke:#181818;stroke-width:1.0;"/><line style="stroke:#181818;stroke-width:1.0;" x1="473.5" x2="473.5" y1="1237.0938" y2="1257.0938"/><polygon fill="#181818" points="469.5,1247.0938,473.5,1257.0938,477.5,1247.0938,473.5,1251.0938" style="stroke:#181818;stroke-width:1.0;"/><!--SRC=[bLJBJkH03BptLrYSXWC_08VLIaWyj7DYBtjqY2Sn_Ogw7KOhDF-EEvD00ZF0v90eYQjSBjijB8xWzwFmCyj_k6Pi4dguW9i-zR2cqA3DbE4QSrj5JBKnMJ29CPtUMJW6E2knP_1YGA_B0UZ9Lxr5QD6Xnm0kDXokbW6OUslrNvyf1VG4jRvqcFCsfdeUQnrRaEYhwE3FdcYtoF_0MSY_ALYJfyGsep8AxdD3eqm3ZZUm6bZW6HtNlyv1MWgm-eVdPi0VAMoclIW7MmIFfkpLxZxXby96SLfhnwvKFhdpPkxW-jNXO0wRc3GrmnFMMtHgeJRd2TEtyH95mpFdBNuRYrMceCyM4-jdFW8GhCZ1_Lx8UXG2jmLqDu5sFxMJ7BSeCn67VIsD6m0SIlScM2RVu-Z9efbJbYy479cnWVUXyBwNlpl4zxc_arCD9coBKpecKvi_sFMHcrmcMFtb6ks9ueK4EwWeOQqpF_FFwFmFkyRgLHcO7XnEYpZB76hU6BCGSE8eTvIdDOS66tIdpO3LyqAtSUxMxCXGbb5YbjYPLm00]--></g></svg>