<?xml version="1.0" encoding="us-ascii" standalone="no"?><svg xmlns="http://www.w3.org/2000/svg" xmlns:xlink="http://www.w3.org/1999/xlink" contentStyleType="text/css" height="1205px" preserveAspectRatio="none" style="width:887px;height:1205px;background:#FFFFFF;" version="1.1" viewBox="0 0 887 1205" width="887px" zoomAndPan="magnify"><defs/><g><text fill="#000000" font-family="sans-serif" font-size="14" font-weight="bold" lengthAdjust="spacing" textLength="338" x="273" y="34.5332">Activity Diagram - Guru Melihat Jadwal Mengajar</text><ellipse cx="541.875" cy="58.6094" fill="#222222" rx="10" ry="10" style="stroke:#222222;stroke-width:1.0;"/><rect fill="none" height="194.8906" style="stroke:#000000;stroke-width:1.5;" width="288" x="397.875" y="78.6094"/><path d="M439.875,78.6094 L439.875,89.2188 L429.875,99.2188 L397.875,99.2188 " fill="none" style="stroke:#000000;stroke-width:1.5;"/><text fill="#000000" font-family="sans-serif" font-size="14" lengthAdjust="spacing" textLength="32" x="400.875" y="94.1426">Guru</text><rect fill="#F1F1F1" height="35.0938" rx="12.5" ry="12.5" style="stroke:#181818;stroke-width:0.5;" width="188" x="447.875" y="116.2188"/><text fill="#000000" font-family="sans-serif" font-size="12" lengthAdjust="spacing" textLength="168" x="457.875" y="138.6758">Guru membuka halaman login</text><rect fill="#F1F1F1" height="35.0938" rx="12.5" ry="12.5" style="stroke:#181818;stroke-width:0.5;" width="268" x="407.875" y="171.3125"/><text fill="#000000" font-family="sans-serif" font-size="12" lengthAdjust="spacing" textLength="248" x="417.875" y="193.7695">Guru memasukkan username dan password</text><rect fill="#F1F1F1" height="35.0938" rx="12.5" ry="12.5" style="stroke:#181818;stroke-width:0.5;" width="143" x="470.375" y="226.4063"/><text fill="#000000" font-family="sans-serif" font-size="12" lengthAdjust="spacing" textLength="123" x="480.375" y="248.8633">Guru klik tombol Login</text><rect fill="none" height="84.7031" style="stroke:#000000;stroke-width:1.5;" width="186" x="448.875" y="283.5"/><path d="M500.875,283.5 L500.875,294.1094 L490.875,304.1094 L448.875,304.1094 " fill="none" style="stroke:#000000;stroke-width:1.5;"/><text fill="#000000" font-family="sans-serif" font-size="14" lengthAdjust="spacing" textLength="42" x="451.875" y="299.0332">Sistem</text><rect fill="#F1F1F1" height="35.0938" rx="12.5" ry="12.5" style="stroke:#181818;stroke-width:0.5;" width="166" x="458.875" y="321.1094"/><text fill="#000000" font-family="sans-serif" font-size="12" lengthAdjust="spacing" textLength="146" x="468.875" y="343.5664">Memeriksa data login guru</text><polygon fill="#F1F1F1" points="513.375,388.2031,570.375,388.2031,582.375,400.2031,570.375,412.2031,513.375,412.2031,501.375,400.2031,513.375,388.2031" style="stroke:#181818;stroke-width:0.5;"/><text fill="#000000" font-family="sans-serif" font-size="11" lengthAdjust="spacing" textLength="57" x="513.375" y="404.7041">Login valid?</text><text fill="#000000" font-family="sans-serif" font-size="11" lengthAdjust="spacing" textLength="14" x="487.375" y="397.7861">Ya</text><text fill="#000000" font-family="sans-serif" font-size="11" lengthAdjust="spacing" textLength="25" x="582.375" y="397.7861">Tidak</text><rect fill="none" height="154.7969" style="stroke:#000000;stroke-width:1.5;" width="246" x="192.75" y="422.2031"/><path d="M234.75,422.2031 L234.75,432.8125 L224.75,442.8125 L192.75,442.8125 " fill="none" style="stroke:#000000;stroke-width:1.5;"/><text fill="#000000" font-family="sans-serif" font-size="14" lengthAdjust="spacing" textLength="32" x="195.75" y="437.7363">Guru</text><rect fill="#F1F1F1" height="35.0938" rx="12.5" ry="12.5" style="stroke:#181818;stroke-width:0.5;" width="167" x="232.25" y="459.8125"/><text fill="#000000" font-family="sans-serif" font-size="12" lengthAdjust="spacing" textLength="147" x="242.25" y="482.2695">Guru masuk ke dashboard</text><rect fill="#F1F1F1" height="35.0938" rx="12.5" ry="12.5" style="stroke:#181818;stroke-width:0.5;" width="226" x="202.75" y="521.9063"/><text fill="#000000" font-family="sans-serif" font-size="12" lengthAdjust="spacing" textLength="206" x="212.75" y="544.3633">Guru memilih menu Jadwal Mengajar</text><rect fill="none" height="139.7969" style="stroke:#000000;stroke-width:1.5;" width="262" x="184.75" y="612"/><path d="M236.75,612 L236.75,622.6094 L226.75,632.6094 L184.75,632.6094 " fill="none" style="stroke:#000000;stroke-width:1.5;"/><text fill="#000000" font-family="sans-serif" font-size="14" lengthAdjust="spacing" textLength="42" x="187.75" y="627.5332">Sistem</text><rect fill="#F1F1F1" height="35.0938" rx="12.5" ry="12.5" style="stroke:#181818;stroke-width:0.5;" width="242" x="194.75" y="649.6094"/><text fill="#000000" font-family="sans-serif" font-size="12" lengthAdjust="spacing" textLength="222" x="204.75" y="672.0664">Menampilkan halaman Jadwal Mengajar</text><rect fill="#F1F1F1" height="35.0938" rx="12.5" ry="12.5" style="stroke:#181818;stroke-width:0.5;" width="200" x="215.75" y="704.7031"/><text fill="#000000" font-family="sans-serif" font-size="12" lengthAdjust="spacing" textLength="180" x="225.75" y="727.1602">Menampilkan jumlah total jadwal</text><polygon fill="#F1F1F1" points="250.75,771.7969,380.75,771.7969,392.75,783.7969,380.75,795.7969,250.75,795.7969,238.75,783.7969,250.75,771.7969" style="stroke:#181818;stroke-width:0.5;"/><text fill="#000000" font-family="sans-serif" font-size="11" lengthAdjust="spacing" textLength="130" x="250.75" y="788.2979">Jadwal mengajar tersedia?</text><text fill="#000000" font-family="sans-serif" font-size="11" lengthAdjust="spacing" textLength="14" x="224.75" y="781.3799">Ya</text><text fill="#000000" font-family="sans-serif" font-size="11" lengthAdjust="spacing" textLength="25" x="392.75" y="781.3799">Tidak</text><rect fill="none" height="169.8906" style="stroke:#000000;stroke-width:1.5;" width="290" x="11" y="805.7969"/><path d="M63,805.7969 L63,816.4063 L53,826.4063 L11,826.4063 " fill="none" style="stroke:#000000;stroke-width:1.5;"/><text fill="#000000" font-family="sans-serif" font-size="14" lengthAdjust="spacing" textLength="42" x="14" y="821.3301">Sistem</text><rect fill="#F1F1F1" height="35.0938" rx="12.5" ry="12.5" style="stroke:#181818;stroke-width:0.5;" width="219" x="46.5" y="843.4063"/><text fill="#000000" font-family="sans-serif" font-size="12" lengthAdjust="spacing" textLength="199" x="56.5" y="865.8633">Menampilkan tabel jadwal mengajar</text><rect fill="#F1F1F1" height="50.1875" rx="12.5" ry="12.5" style="stroke:#181818;stroke-width:0.5;" width="270" x="21" y="905.5"/><text fill="#000000" font-family="sans-serif" font-size="12" lengthAdjust="spacing" textLength="194" x="31" y="927.957">Menampilkan data hari, jam, siswa,</text><text fill="#000000" font-family="sans-serif" font-size="12" lengthAdjust="spacing" textLength="250" x="31" y="943.0508">kelas/program, mapel siswa, dan mapel guru</text><rect fill="none" height="84.7031" style="stroke:#000000;stroke-width:1.5;" width="206" x="53" y="1008.2031"/><path d="M95,1008.2031 L95,1018.8125 L85,1028.8125 L53,1028.8125 " fill="none" style="stroke:#000000;stroke-width:1.5;"/><text fill="#000000" font-family="sans-serif" font-size="14" lengthAdjust="spacing" textLength="32" x="56" y="1023.7363">Guru</text><rect fill="#F1F1F1" height="35.0938" rx="12.5" ry="12.5" style="stroke:#181818;stroke-width:0.5;" width="186" x="63" y="1045.8125"/><text fill="#000000" font-family="sans-serif" font-size="12" lengthAdjust="spacing" textLength="166" x="73" y="1068.2695">Guru melihat jadwal mengajar</text><rect fill="none" height="84.7031" style="stroke:#000000;stroke-width:1.5;" width="309" x="321" y="805.7969"/><path d="M373,805.7969 L373,816.4063 L363,826.4063 L321,826.4063 " fill="none" style="stroke:#000000;stroke-width:1.5;"/><text fill="#000000" font-family="sans-serif" font-size="14" lengthAdjust="spacing" textLength="42" x="324" y="821.3301">Sistem</text><rect fill="#F1F1F1" height="35.0938" rx="12.5" ry="12.5" style="stroke:#181818;stroke-width:0.5;" width="289" x="331" y="843.4063"/><text fill="#000000" font-family="sans-serif" font-size="12" lengthAdjust="spacing" textLength="269" x="341" y="865.8633">Menampilkan pesan belum ada jadwal mengajar</text><rect fill="none" height="90.2188" style="stroke:#000000;stroke-width:1.5;" width="301" x="325" y="925.5"/><path d="M367,925.5 L367,936.1094 L357,946.1094 L325,946.1094 " fill="none" style="stroke:#000000;stroke-width:1.5;"/><text fill="#000000" font-family="sans-serif" font-size="14" lengthAdjust="spacing" textLength="32" x="328" y="941.0332">Guru</text><rect fill="#F1F1F1" height="35.0938" rx="12.5" ry="12.5" style="stroke:#181818;stroke-width:0.5;" width="281" x="335" y="963.1094"/><text fill="#000000" font-family="sans-serif" font-size="12" lengthAdjust="spacing" textLength="261" x="345" y="985.5664">Guru mengetahui bahwa jadwal belum tersedia</text><polygon fill="#F1F1F1" points="315.75,1098.9063,327.75,1110.9063,315.75,1122.9063,303.75,1110.9063,315.75,1098.9063" style="stroke:#181818;stroke-width:0.5;"/><rect fill="none" height="84.7031" style="stroke:#000000;stroke-width:1.5;" width="216" x="660" y="422.2031"/><path d="M712,422.2031 L712,432.8125 L702,442.8125 L660,442.8125 " fill="none" style="stroke:#000000;stroke-width:1.5;"/><text fill="#000000" font-family="sans-serif" font-size="14" lengthAdjust="spacing" textLength="42" x="663" y="437.7363">Sistem</text><rect fill="#F1F1F1" height="35.0938" rx="12.5" ry="12.5" style="stroke:#181818;stroke-width:0.5;" width="196" x="670" y="459.8125"/><text fill="#000000" font-family="sans-serif" font-size="12" lengthAdjust="spacing" textLength="176" x="680" y="482.2695">Menampilkan pesan login gagal</text><rect fill="none" height="92.7031" style="stroke:#000000;stroke-width:1.5;" width="212" x="662" y="541.9063"/><path d="M704,541.9063 L704,552.5156 L694,562.5156 L662,562.5156 " fill="none" style="stroke:#000000;stroke-width:1.5;"/><text fill="#000000" font-family="sans-serif" font-size="14" lengthAdjust="spacing" textLength="32" x="665" y="557.4395">Guru</text><rect fill="#F1F1F1" height="35.0938" rx="12.5" ry="12.5" style="stroke:#181818;stroke-width:0.5;" width="192" x="672" y="579.5156"/><text fill="#000000" font-family="sans-serif" font-size="12" lengthAdjust="spacing" textLength="172" x="682" y="601.9727">Guru kembali ke halaman login</text><polygon fill="#F1F1F1" points="541.875,1128.9063,553.875,1140.9063,541.875,1152.9063,529.875,1140.9063,541.875,1128.9063" style="stroke:#181818;stroke-width:0.5;"/><ellipse cx="541.875" cy="1183.9063" fill="none" rx="11" ry="11" style="stroke:#222222;stroke-width:1.0;"/><ellipse cx="541.875" cy="1183.9063" fill="#222222" rx="6" ry="6" style="stroke:#222222;stroke-width:1.0;"/><line style="stroke:#181818;stroke-width:1.0;" x1="541.875" x2="541.875" y1="151.3125" y2="171.3125"/><polygon fill="#181818" points="537.875,161.3125,541.875,171.3125,545.875,161.3125,541.875,165.3125" style="stroke:#181818;stroke-width:1.0;"/><line style="stroke:#181818;stroke-width:1.0;" x1="541.875" x2="541.875" y1="206.4063" y2="226.4063"/><polygon fill="#181818" points="537.875,216.4063,541.875,226.4063,545.875,216.4063,541.875,220.4063" style="stroke:#181818;stroke-width:1.0;"/><line style="stroke:#181818;stroke-width:1.0;" x1="541.875" x2="541.875" y1="68.6094" y2="116.2188"/><polygon fill="#181818" points="537.875,106.2188,541.875,116.2188,545.875,106.2188,541.875,110.2188" style="stroke:#181818;stroke-width:1.0;"/><line style="stroke:#181818;stroke-width:1.0;" x1="541.875" x2="541.875" y1="261.5" y2="321.1094"/><polygon fill="#181818" points="537.875,311.1094,541.875,321.1094,545.875,311.1094,541.875,315.1094" style="stroke:#181818;stroke-width:1.0;"/><line style="stroke:#181818;stroke-width:1.0;" x1="315.75" x2="315.75" y1="494.9063" y2="521.9063"/><polygon fill="#181818" points="311.75,511.9063,315.75,521.9063,319.75,511.9063,315.75,515.9063" style="stroke:#181818;stroke-width:1.0;"/><line style="stroke:#181818;stroke-width:1.0;" x1="315.75" x2="315.75" y1="684.7031" y2="704.7031"/><polygon fill="#181818" points="311.75,694.7031,315.75,704.7031,319.75,694.7031,315.75,698.7031" style="stroke:#181818;stroke-width:1.0;"/><line style="stroke:#181818;stroke-width:1.0;" x1="315.75" x2="315.75" y1="557" y2="649.6094"/><polygon fill="#181818" points="311.75,639.6094,315.75,649.6094,319.75,639.6094,315.75,643.6094" style="stroke:#181818;stroke-width:1.0;"/><line style="stroke:#181818;stroke-width:1.0;" x1="156" x2="156" y1="878.5" y2="905.5"/><polygon fill="#181818" points="152,895.5,156,905.5,160,895.5,156,899.5" style="stroke:#181818;stroke-width:1.0;"/><line style="stroke:#181818;stroke-width:1.0;" x1="156" x2="156" y1="955.6875" y2="1045.8125"/><polygon fill="#181818" points="152,1035.8125,156,1045.8125,160,1035.8125,156,1039.8125" style="stroke:#181818;stroke-width:1.0;"/><line style="stroke:#181818;stroke-width:1.0;" x1="475.5" x2="475.5" y1="878.5" y2="963.1094"/><polygon fill="#181818" points="471.5,953.1094,475.5,963.1094,479.5,953.1094,475.5,957.1094" style="stroke:#181818;stroke-width:1.0;"/><line style="stroke:#181818;stroke-width:1.0;" x1="238.75" x2="156" y1="783.7969" y2="783.7969"/><line style="stroke:#181818;stroke-width:1.0;" x1="156" x2="156" y1="783.7969" y2="843.4063"/><polygon fill="#181818" points="152,833.4063,156,843.4063,160,833.4063,156,837.4063" style="stroke:#181818;stroke-width:1.0;"/><line style="stroke:#181818;stroke-width:1.0;" x1="392.75" x2="475.5" y1="783.7969" y2="783.7969"/><line style="stroke:#181818;stroke-width:1.0;" x1="475.5" x2="475.5" y1="783.7969" y2="843.4063"/><polygon fill="#181818" points="471.5,833.4063,475.5,843.4063,479.5,833.4063,475.5,837.4063" style="stroke:#181818;stroke-width:1.0;"/><line style="stroke:#181818;stroke-width:1.0;" x1="156" x2="156" y1="1080.9063" y2="1110.9063"/><line style="stroke:#181818;stroke-width:1.0;" x1="156" x2="303.75" y1="1110.9063" y2="1110.9063"/><polygon fill="#181818" points="293.75,1106.9063,303.75,1110.9063,293.75,1114.9063,297.75,1110.9063" style="stroke:#181818;stroke-width:1.0;"/><line style="stroke:#181818;stroke-width:1.0;" x1="475.5" x2="475.5" y1="998.2031" y2="1110.9063"/><line style="stroke:#181818;stroke-width:1.0;" x1="475.5" x2="327.75" y1="1110.9063" y2="1110.9063"/><polygon fill="#181818" points="337.75,1106.9063,327.75,1110.9063,337.75,1114.9063,333.75,1110.9063" style="stroke:#181818;stroke-width:1.0;"/><line style="stroke:#181818;stroke-width:1.0;" x1="315.75" x2="315.75" y1="739.7969" y2="771.7969"/><polygon fill="#181818" points="311.75,761.7969,315.75,771.7969,319.75,761.7969,315.75,765.7969" style="stroke:#181818;stroke-width:1.0;"/><line style="stroke:#181818;stroke-width:1.0;" x1="768" x2="768" y1="494.9063" y2="579.5156"/><polygon fill="#181818" points="764,569.5156,768,579.5156,772,569.5156,768,573.5156" style="stroke:#181818;stroke-width:1.0;"/><line style="stroke:#181818;stroke-width:1.0;" x1="501.375" x2="315.75" y1="400.2031" y2="400.2031"/><line style="stroke:#181818;stroke-width:1.0;" x1="315.75" x2="315.75" y1="400.2031" y2="459.8125"/><polygon fill="#181818" points="311.75,449.8125,315.75,459.8125,319.75,449.8125,315.75,453.8125" style="stroke:#181818;stroke-width:1.0;"/><line style="stroke:#181818;stroke-width:1.0;" x1="582.375" x2="768" y1="400.2031" y2="400.2031"/><line style="stroke:#181818;stroke-width:1.0;" x1="768" x2="768" y1="400.2031" y2="459.8125"/><polygon fill="#181818" points="764,449.8125,768,459.8125,772,449.8125,768,453.8125" style="stroke:#181818;stroke-width:1.0;"/><line style="stroke:#181818;stroke-width:1.0;" x1="315.75" x2="315.75" y1="1122.9063" y2="1140.9063"/><line style="stroke:#181818;stroke-width:1.0;" x1="315.75" x2="529.875" y1="1140.9063" y2="1140.9063"/><polygon fill="#181818" points="519.875,1136.9063,529.875,1140.9063,519.875,1144.9063,523.875,1140.9063" style="stroke:#181818;stroke-width:1.0;"/><line style="stroke:#181818;stroke-width:1.0;" x1="768" x2="768" y1="614.6094" y2="1140.9063"/><line style="stroke:#181818;stroke-width:1.0;" x1="768" x2="553.875" y1="1140.9063" y2="1140.9063"/><polygon fill="#181818" points="563.875,1136.9063,553.875,1140.9063,563.875,1144.9063,559.875,1140.9063" style="stroke:#181818;stroke-width:1.0;"/><line style="stroke:#181818;stroke-width:1.0;" x1="541.875" x2="541.875" y1="356.2031" y2="388.2031"/><polygon fill="#181818" points="537.875,378.2031,541.875,388.2031,545.875,378.2031,541.875,382.2031" style="stroke:#181818;stroke-width:1.0;"/><line style="stroke:#181818;stroke-width:1.0;" x1="541.875" x2="541.875" y1="1152.9063" y2="1172.9063"/><polygon fill="#181818" points="537.875,1162.9063,541.875,1172.9063,545.875,1162.9063,541.875,1166.9063" style="stroke:#181818;stroke-width:1.0;"/><!--SRC=[dLHDJ-Gm3BtdLrYS1caGz-M0a92G49pOonvTQbfFFbeb3gCLcl-EsxIZASE0e8UsQUpt_9wT2eiZk7aMVcNv3xUCJKGF5t2NOuP7SjoYm3tMMtIw30rkC1gJ1ACOq-kTXRi0PqFy6RmPqElFcEp9LzaYjEZGOm3NDHokbW6OihMwbnF5W9wWraMFAMsxM1_6MiSMfFDLv-2X0EqM_4-SXFo-WaVo5DacL4J1mWsD8erv_0Ah4GLUqN5zVGxIKe3LFpmtO_u9OGUr3vM37GfERTNXNEr27Qjx-Wpveu4bTdV4jHGn2L5VUdQ3IxEJdw8THM-oTzYgQQAncp5bmJkOC27v2Gc4OgAQSU78ZFvbeKVqWXNDl7k2gzFnOvzQZBpM9B-6n6cBQsF9ORhiOpVCvLfzxnMrx8t3KZwKpiwuay1l6ddOgZBc9ulTZM_a4i7gBzTeVsjAJqdlQapsW3L-nVXJ2Q4XmJOpLDXkzyY5QcxhaQ9Gyuin2s4_dCcYQ3fVs7oOiM_FaTMVX1x1uIHzyfzGbAd495rltW40]--></g></svg>