<?xml version="1.0" encoding="us-ascii" standalone="no"?><svg xmlns="http://www.w3.org/2000/svg" xmlns:xlink="http://www.w3.org/1999/xlink" contentStyleType="text/css" height="2162px" preserveAspectRatio="none" style="width:1474px;height:2162px;background:#FFFFFF;" version="1.1" viewBox="0 0 1474 2162" width="1474px" zoomAndPan="magnify"><defs/><g><text fill="#000000" font-family="sans-serif" font-size="14" font-weight="bold" lengthAdjust="spacing" textLength="344" x="563.6875" y="34.5332">Activity Diagram - Guru Menginput Absensi Siswa</text><ellipse cx="1093.375" cy="58.6094" fill="#222222" rx="10" ry="10" style="stroke:#222222;stroke-width:1.0;"/><rect fill="none" height="194.8906" style="stroke:#000000;stroke-width:1.5;" width="288" x="949.375" y="78.6094"/><path d="M991.375,78.6094 L991.375,89.2188 L981.375,99.2188 L949.375,99.2188 " fill="none" style="stroke:#000000;stroke-width:1.5;"/><text fill="#000000" font-family="sans-serif" font-size="14" lengthAdjust="spacing" textLength="32" x="952.375" y="94.1426">Guru</text><rect fill="#F1F1F1" height="35.0938" rx="12.5" ry="12.5" style="stroke:#181818;stroke-width:0.5;" width="188" x="999.375" y="116.2188"/><text fill="#000000" font-family="sans-serif" font-size="12" lengthAdjust="spacing" textLength="168" x="1009.375" y="138.6758">Guru membuka halaman login</text><rect fill="#F1F1F1" height="35.0938" rx="12.5" ry="12.5" style="stroke:#181818;stroke-width:0.5;" width="268" x="959.375" y="171.3125"/><text fill="#000000" font-family="sans-serif" font-size="12" lengthAdjust="spacing" textLength="248" x="969.375" y="193.7695">Guru memasukkan username dan password</text><rect fill="#F1F1F1" height="35.0938" rx="12.5" ry="12.5" style="stroke:#181818;stroke-width:0.5;" width="143" x="1021.875" y="226.4063"/><text fill="#000000" font-family="sans-serif" font-size="12" lengthAdjust="spacing" textLength="123" x="1031.875" y="248.8633">Guru klik tombol Login</text><rect fill="none" height="84.7031" style="stroke:#000000;stroke-width:1.5;" width="186" x="1000.375" y="283.5"/><path d="M1052.375,283.5 L1052.375,294.1094 L1042.375,304.1094 L1000.375,304.1094 " fill="none" style="stroke:#000000;stroke-width:1.5;"/><text fill="#000000" font-family="sans-serif" font-size="14" lengthAdjust="spacing" textLength="42" x="1003.375" y="299.0332">Sistem</text><rect fill="#F1F1F1" height="35.0938" rx="12.5" ry="12.5" style="stroke:#181818;stroke-width:0.5;" width="166" x="1010.375" y="321.1094"/><text fill="#000000" font-family="sans-serif" font-size="12" lengthAdjust="spacing" textLength="146" x="1020.375" y="343.5664">Memeriksa data login guru</text><polygon fill="#F1F1F1" points="1064.875,388.2031,1121.875,388.2031,1133.875,400.2031,1121.875,412.2031,1064.875,412.2031,1052.875,400.2031,1064.875,388.2031" style="stroke:#181818;stroke-width:0.5;"/><text fill="#000000" font-family="sans-serif" font-size="11" lengthAdjust="spacing" textLength="57" x="1064.875" y="404.7041">Login valid?</text><text fill="#000000" font-family="sans-serif" font-size="11" lengthAdjust="spacing" textLength="14" x="1038.875" y="397.7861">Ya</text><text fill="#000000" font-family="sans-serif" font-size="11" lengthAdjust="spacing" textLength="25" x="1133.875" y="397.7861">Tidak</text><rect fill="none" height="154.7969" style="stroke:#000000;stroke-width:1.5;" width="228" x="713.75" y="422.2031"/><path d="M755.75,422.2031 L755.75,432.8125 L745.75,442.8125 L713.75,442.8125 " fill="none" style="stroke:#000000;stroke-width:1.5;"/><text fill="#000000" font-family="sans-serif" font-size="14" lengthAdjust="spacing" textLength="32" x="716.75" y="437.7363">Guru</text><rect fill="#F1F1F1" height="35.0938" rx="12.5" ry="12.5" style="stroke:#181818;stroke-width:0.5;" width="167" x="744.25" y="459.8125"/><text fill="#000000" font-family="sans-serif" font-size="12" lengthAdjust="spacing" textLength="147" x="754.25" y="482.2695">Guru masuk ke dashboard</text><rect fill="#F1F1F1" height="35.0938" rx="12.5" ry="12.5" style="stroke:#181818;stroke-width:0.5;" width="208" x="723.75" y="521.9063"/><text fill="#000000" font-family="sans-serif" font-size="12" lengthAdjust="spacing" textLength="188" x="733.75" y="544.3633">Guru memilih menu Input Absensi</text><rect fill="none" height="249.9844" style="stroke:#000000;stroke-width:1.5;" width="282" x="686.75" y="612"/><path d="M738.75,612 L738.75,622.6094 L728.75,632.6094 L686.75,632.6094 " fill="none" style="stroke:#000000;stroke-width:1.5;"/><text fill="#000000" font-family="sans-serif" font-size="14" lengthAdjust="spacing" textLength="42" x="689.75" y="627.5332">Sistem</text><rect fill="#F1F1F1" height="35.0938" rx="12.5" ry="12.5" style="stroke:#181818;stroke-width:0.5;" width="224" x="715.75" y="649.6094"/><text fill="#000000" font-family="sans-serif" font-size="12" lengthAdjust="spacing" textLength="204" x="725.75" y="672.0664">Menampilkan halaman Input Absensi</text><rect fill="#F1F1F1" height="35.0938" rx="12.5" ry="12.5" style="stroke:#181818;stroke-width:0.5;" width="262" x="696.75" y="704.7031"/><text fill="#000000" font-family="sans-serif" font-size="12" lengthAdjust="spacing" textLength="242" x="706.75" y="727.1602">Menampilkan tab Input Absensi dan Riwayat</text><rect fill="#F1F1F1" height="35.0938" rx="12.5" ry="12.5" style="stroke:#181818;stroke-width:0.5;" width="173" x="741.25" y="759.7969"/><text fill="#000000" font-family="sans-serif" font-size="12" lengthAdjust="spacing" textLength="153" x="751.25" y="782.2539">Menampilkan pilihan jadwal</text><rect fill="#F1F1F1" height="35.0938" rx="12.5" ry="12.5" style="stroke:#181818;stroke-width:0.5;" width="178" x="738.75" y="814.8906"/><text fill="#000000" font-family="sans-serif" font-size="12" lengthAdjust="spacing" textLength="158" x="748.75" y="837.3477">Menampilkan pilihan tanggal</text><polygon fill="#F1F1F1" points="773.75,881.9844,881.75,881.9844,893.75,893.9844,881.75,905.9844,773.75,905.9844,761.75,893.9844,773.75,881.9844" style="stroke:#181818;stroke-width:0.5;"/><text fill="#000000" font-family="sans-serif" font-size="11" lengthAdjust="spacing" textLength="108" x="773.75" y="898.4854">Jadwal guru tersedia?</text><text fill="#000000" font-family="sans-serif" font-size="11" lengthAdjust="spacing" textLength="14" x="747.75" y="891.5674">Ya</text><text fill="#000000" font-family="sans-serif" font-size="11" lengthAdjust="spacing" textLength="25" x="893.75" y="891.5674">Tidak</text><rect fill="none" height="139.7969" style="stroke:#000000;stroke-width:1.5;" width="207" x="451" y="915.9844"/><path d="M493,915.9844 L493,926.5938 L483,936.5938 L451,936.5938 " fill="none" style="stroke:#000000;stroke-width:1.5;"/><text fill="#000000" font-family="sans-serif" font-size="14" lengthAdjust="spacing" textLength="32" x="454" y="931.5176">Guru</text><rect fill="#F1F1F1" height="35.0938" rx="12.5" ry="12.5" style="stroke:#181818;stroke-width:0.5;" width="134" x="487.5" y="953.5938"/><text fill="#000000" font-family="sans-serif" font-size="12" lengthAdjust="spacing" textLength="114" x="497.5" y="976.0508">Guru memilih jadwal</text><rect fill="#F1F1F1" height="35.0938" rx="12.5" ry="12.5" style="stroke:#181818;stroke-width:0.5;" width="187" x="461" y="1008.6875"/><text fill="#000000" font-family="sans-serif" font-size="12" lengthAdjust="spacing" textLength="167" x="471" y="1031.1445">Guru memilih tanggal absensi</text><rect fill="none" height="84.7031" style="stroke:#000000;stroke-width:1.5;" width="273" x="418" y="1065.7813"/><path d="M470,1065.7813 L470,1076.3906 L460,1086.3906 L418,1086.3906 " fill="none" style="stroke:#000000;stroke-width:1.5;"/><text fill="#000000" font-family="sans-serif" font-size="14" lengthAdjust="spacing" textLength="42" x="421" y="1081.3145">Sistem</text><rect fill="#F1F1F1" height="35.0938" rx="12.5" ry="12.5" style="stroke:#181818;stroke-width:0.5;" width="253" x="428" y="1103.3906"/><text fill="#000000" font-family="sans-serif" font-size="12" lengthAdjust="spacing" textLength="233" x="438" y="1125.8477">Memeriksa jadwal dan tanggal yang dipilih</text><polygon fill="#F1F1F1" points="477,1170.4844,632,1170.4844,644,1182.4844,632,1194.4844,477,1194.4844,465,1182.4844,477,1170.4844" style="stroke:#181818;stroke-width:0.5;"/><text fill="#000000" font-family="sans-serif" font-size="11" lengthAdjust="spacing" textLength="155" x="477" y="1186.9854">Pilihan jadwal dan tanggal valid?</text><text fill="#000000" font-family="sans-serif" font-size="11" lengthAdjust="spacing" textLength="14" x="451" y="1180.0674">Ya</text><text fill="#000000" font-family="sans-serif" font-size="11" lengthAdjust="spacing" textLength="25" x="644" y="1180.0674">Tidak</text><rect fill="none" height="159.7969" style="stroke:#000000;stroke-width:1.5;" width="302" x="161" y="1204.4844"/><path d="M213,1204.4844 L213,1215.0938 L203,1225.0938 L161,1225.0938 " fill="none" style="stroke:#000000;stroke-width:1.5;"/><text fill="#000000" font-family="sans-serif" font-size="14" lengthAdjust="spacing" textLength="42" x="164" y="1220.0176">Sistem</text><rect fill="#F1F1F1" height="35.0938" rx="12.5" ry="12.5" style="stroke:#181818;stroke-width:0.5;" width="282" x="171" y="1242.0938"/><text fill="#000000" font-family="sans-serif" font-size="12" lengthAdjust="spacing" textLength="262" x="181" y="1264.5508">Menampilkan daftar siswa pada jadwal tersebut</text><rect fill="#F1F1F1" height="50.1875" rx="12.5" ry="12.5" style="stroke:#181818;stroke-width:0.5;" width="260" x="182" y="1297.1875"/><text fill="#000000" font-family="sans-serif" font-size="12" lengthAdjust="spacing" textLength="240" x="192" y="1319.6445">Menampilkan data absensi yang sudah ada</text><text fill="#000000" font-family="sans-serif" font-size="12" lengthAdjust="spacing" textLength="158" x="192" y="1334.7383">jika sebelumnya pernah diisi</text><rect fill="none" height="265.0781" style="stroke:#000000;stroke-width:1.5;" width="269" x="177.5" y="1374.2813"/><path d="M219.5,1374.2813 L219.5,1384.8906 L209.5,1394.8906 L177.5,1394.8906 " fill="none" style="stroke:#000000;stroke-width:1.5;"/><text fill="#000000" font-family="sans-serif" font-size="14" lengthAdjust="spacing" textLength="32" x="180.5" y="1389.8145">Guru</text><rect fill="#F1F1F1" height="35.0938" rx="12.5" ry="12.5" style="stroke:#181818;stroke-width:0.5;" width="216" x="204" y="1411.8906"/><text fill="#000000" font-family="sans-serif" font-size="12" lengthAdjust="spacing" textLength="196" x="214" y="1434.3477">Guru memilih status absensi siswa</text><rect fill="#F1F1F1" height="50.1875" rx="12.5" ry="12.5" style="stroke:#181818;stroke-width:0.5;" width="195" x="214.5" y="1466.9844"/><text fill="#000000" font-family="sans-serif" font-size="12" lengthAdjust="spacing" textLength="175" x="224.5" y="1489.4414">Guru mengisi alasan jika status</text><text fill="#000000" font-family="sans-serif" font-size="12" lengthAdjust="spacing" textLength="108" x="224.5" y="1504.5352">Izin, Sakit, atau Alpa</text><rect fill="#F1F1F1" height="35.0938" rx="12.5" ry="12.5" style="stroke:#181818;stroke-width:0.5;" width="249" x="187.5" y="1537.1719"/><text fill="#000000" font-family="sans-serif" font-size="12" lengthAdjust="spacing" textLength="229" x="197.5" y="1559.6289">Guru mengisi catatan guru jika diperlukan</text><rect fill="#F1F1F1" height="35.0938" rx="12.5" ry="12.5" style="stroke:#181818;stroke-width:0.5;" width="198" x="213" y="1592.2656"/><text fill="#000000" font-family="sans-serif" font-size="12" lengthAdjust="spacing" textLength="178" x="223" y="1614.7227">Guru klik tombol Simpan Semua</text><rect fill="none" height="84.7031" style="stroke:#000000;stroke-width:1.5;" width="259" x="182.5" y="1649.3594"/><path d="M234.5,1649.3594 L234.5,1659.9688 L224.5,1669.9688 L182.5,1669.9688 " fill="none" style="stroke:#000000;stroke-width:1.5;"/><text fill="#000000" font-family="sans-serif" font-size="14" lengthAdjust="spacing" textLength="42" x="185.5" y="1664.8926">Sistem</text><rect fill="#F1F1F1" height="35.0938" rx="12.5" ry="12.5" style="stroke:#181818;stroke-width:0.5;" width="239" x="192.5" y="1686.9688"/><text fill="#000000" font-family="sans-serif" font-size="12" lengthAdjust="spacing" textLength="219" x="202.5" y="1709.4258">Memeriksa data absensi yang diisi guru</text><polygon fill="#F1F1F1" points="265,1754.0625,359,1754.0625,371,1766.0625,359,1778.0625,265,1778.0625,253,1766.0625,265,1754.0625" style="stroke:#181818;stroke-width:0.5;"/><text fill="#000000" font-family="sans-serif" font-size="11" lengthAdjust="spacing" textLength="94" x="265" y="1770.5635">Data absensi valid?</text><text fill="#000000" font-family="sans-serif" font-size="11" lengthAdjust="spacing" textLength="14" x="239" y="1763.6455">Ya</text><text fill="#000000" font-family="sans-serif" font-size="11" lengthAdjust="spacing" textLength="25" x="371" y="1763.6455">Tidak</text><rect fill="none" height="201.8906" style="stroke:#000000;stroke-width:1.5;" width="291" x="11" y="1788.0625"/><path d="M63,1788.0625 L63,1798.6719 L53,1808.6719 L11,1808.6719 " fill="none" style="stroke:#000000;stroke-width:1.5;"/><text fill="#000000" font-family="sans-serif" font-size="14" lengthAdjust="spacing" textLength="42" x="14" y="1803.5957">Sistem</text><rect fill="#F1F1F1" height="35.0938" rx="12.5" ry="12.5" style="stroke:#181818;stroke-width:0.5;" width="158" x="77.5" y="1825.6719"/><text fill="#000000" font-family="sans-serif" font-size="12" lengthAdjust="spacing" textLength="138" x="87.5" y="1848.1289">Menyimpan data absensi</text><rect fill="#F1F1F1" height="35.0938" rx="12.5" ry="12.5" style="stroke:#181818;stroke-width:0.5;" width="180" x="66.5" y="1880.7656"/><text fill="#000000" font-family="sans-serif" font-size="12" lengthAdjust="spacing" textLength="160" x="76.5" y="1903.2227">Menampilkan pesan berhasil</text><rect fill="#F1F1F1" height="35.0938" rx="12.5" ry="12.5" style="stroke:#181818;stroke-width:0.5;" width="271" x="21" y="1942.8594"/><text fill="#000000" font-family="sans-serif" font-size="12" lengthAdjust="spacing" textLength="251" x="31" y="1965.3164">Menampilkan kembali halaman Input Absensi</text><rect fill="none" height="139.7969" style="stroke:#000000;stroke-width:1.5;" width="291" x="322" y="1788.0625"/><path d="M374,1788.0625 L374,1798.6719 L364,1808.6719 L322,1808.6719 " fill="none" style="stroke:#000000;stroke-width:1.5;"/><text fill="#000000" font-family="sans-serif" font-size="14" lengthAdjust="spacing" textLength="42" x="325" y="1803.5957">Sistem</text><rect fill="#F1F1F1" height="35.0938" rx="12.5" ry="12.5" style="stroke:#181818;stroke-width:0.5;" width="161" x="387" y="1825.6719"/><text fill="#000000" font-family="sans-serif" font-size="12" lengthAdjust="spacing" textLength="141" x="397" y="1848.1289">Menampilkan pesan error</text><rect fill="#F1F1F1" height="35.0938" rx="12.5" ry="12.5" style="stroke:#181818;stroke-width:0.5;" width="271" x="332" y="1880.7656"/><text fill="#000000" font-family="sans-serif" font-size="12" lengthAdjust="spacing" textLength="251" x="342" y="1903.2227">Menampilkan kembali halaman Input Absensi</text><polygon fill="#F1F1F1" points="312,1995.9531,324,2007.9531,312,2019.9531,300,2007.9531,312,1995.9531" style="stroke:#181818;stroke-width:0.5;"/><rect fill="none" height="147.7969" style="stroke:#000000;stroke-width:1.5;" width="308" x="643" y="1204.4844"/><path d="M695,1204.4844 L695,1215.0938 L685,1225.0938 L643,1225.0938 " fill="none" style="stroke:#000000;stroke-width:1.5;"/><text fill="#000000" font-family="sans-serif" font-size="14" lengthAdjust="spacing" textLength="42" x="646" y="1220.0176">Sistem</text><rect fill="#F1F1F1" height="35.0938" rx="12.5" ry="12.5" style="stroke:#181818;stroke-width:0.5;" width="161" x="716.5" y="1242.0938"/><text fill="#000000" font-family="sans-serif" font-size="12" lengthAdjust="spacing" textLength="141" x="726.5" y="1264.5508">Menampilkan pesan error</text><rect fill="#F1F1F1" height="35.0938" rx="12.5" ry="12.5" style="stroke:#181818;stroke-width:0.5;" width="288" x="653" y="1297.1875"/><text fill="#000000" font-family="sans-serif" font-size="12" lengthAdjust="spacing" textLength="268" x="663" y="1319.6445">Menampilkan kembali pilihan jadwal dan tanggal</text><polygon fill="#F1F1F1" points="554.5,2025.9531,566.5,2037.9531,554.5,2049.9531,542.5,2037.9531,554.5,2025.9531" style="stroke:#181818;stroke-width:0.5;"/><rect fill="none" height="139.7969" style="stroke:#000000;stroke-width:1.5;" width="204" x="999" y="915.9844"/><path d="M1051,915.9844 L1051,926.5938 L1041,936.5938 L999,936.5938 " fill="none" style="stroke:#000000;stroke-width:1.5;"/><text fill="#000000" font-family="sans-serif" font-size="14" lengthAdjust="spacing" textLength="42" x="1002" y="931.5176">Sistem</text><rect fill="#F1F1F1" height="35.0938" rx="12.5" ry="12.5" style="stroke:#181818;stroke-width:0.5;" width="141" x="1030.5" y="953.5938"/><text fill="#000000" font-family="sans-serif" font-size="12" lengthAdjust="spacing" textLength="121" x="1040.5" y="976.0508">Pilihan jadwal kosong</text><rect fill="#F1F1F1" height="35.0938" rx="12.5" ry="12.5" style="stroke:#181818;stroke-width:0.5;" width="184" x="1009" y="1008.6875"/><text fill="#000000" font-family="sans-serif" font-size="12" lengthAdjust="spacing" textLength="164" x="1019" y="1031.1445">Siswa tidak dapat ditampilkan</text><rect fill="none" height="84.7031" style="stroke:#000000;stroke-width:1.5;" width="240" x="981" y="1065.7813"/><path d="M1023,1065.7813 L1023,1076.3906 L1013,1086.3906 L981,1086.3906 " fill="none" style="stroke:#000000;stroke-width:1.5;"/><text fill="#000000" font-family="sans-serif" font-size="14" lengthAdjust="spacing" textLength="32" x="984" y="1081.3145">Guru</text><rect fill="#F1F1F1" height="35.0938" rx="12.5" ry="12.5" style="stroke:#181818;stroke-width:0.5;" width="220" x="991" y="1103.3906"/><text fill="#000000" font-family="sans-serif" font-size="12" lengthAdjust="spacing" textLength="200" x="1001" y="1125.8477">Guru tidak dapat menginput absensi</text><polygon fill="#F1F1F1" points="827.75,2055.9531,839.75,2067.9531,827.75,2079.9531,815.75,2067.9531,827.75,2055.9531" style="stroke:#181818;stroke-width:0.5;"/><rect fill="none" height="84.7031" style="stroke:#000000;stroke-width:1.5;" width="216" x="1247.375" y="422.2031"/><path d="M1299.375,422.2031 L1299.375,432.8125 L1289.375,442.8125 L1247.375,442.8125 " fill="none" style="stroke:#000000;stroke-width:1.5;"/><text fill="#000000" font-family="sans-serif" font-size="14" lengthAdjust="spacing" textLength="42" x="1250.375" y="437.7363">Sistem</text><rect fill="#F1F1F1" height="35.0938" rx="12.5" ry="12.5" style="stroke:#181818;stroke-width:0.5;" width="196" x="1257.375" y="459.8125"/><text fill="#000000" font-family="sans-serif" font-size="12" lengthAdjust="spacing" textLength="176" x="1267.375" y="482.2695">Menampilkan pesan login gagal</text><rect fill="none" height="92.7031" style="stroke:#000000;stroke-width:1.5;" width="212" x="1249.375" y="541.9063"/><path d="M1291.375,541.9063 L1291.375,552.5156 L1281.375,562.5156 L1249.375,562.5156 " fill="none" style="stroke:#000000;stroke-width:1.5;"/><text fill="#000000" font-family="sans-serif" font-size="14" lengthAdjust="spacing" textLength="32" x="1252.375" y="557.4395">Guru</text><rect fill="#F1F1F1" height="35.0938" rx="12.5" ry="12.5" style="stroke:#181818;stroke-width:0.5;" width="192" x="1259.375" y="579.5156"/><text fill="#000000" font-family="sans-serif" font-size="12" lengthAdjust="spacing" textLength="172" x="1269.375" y="601.9727">Guru kembali ke halaman login</text><polygon fill="#F1F1F1" points="1093.375,2085.9531,1105.375,2097.9531,1093.375,2109.9531,1081.375,2097.9531,1093.375,2085.9531" style="stroke:#181818;stroke-width:0.5;"/><ellipse cx="1093.375" cy="2140.9531" fill="none" rx="11" ry="11" style="stroke:#222222;stroke-width:1.0;"/><ellipse cx="1093.375" cy="2140.9531" fill="#222222" rx="6" ry="6" style="stroke:#222222;stroke-width:1.0;"/><line style="stroke:#181818;stroke-width:1.0;" x1="1093.375" x2="1093.375" y1="151.3125" y2="171.3125"/><polygon fill="#181818" points="1089.375,161.3125,1093.375,171.3125,1097.375,161.3125,1093.375,165.3125" style="stroke:#181818;stroke-width:1.0;"/><line style="stroke:#181818;stroke-width:1.0;" x1="1093.375" x2="1093.375" y1="206.4063" y2="226.4063"/><polygon fill="#181818" points="1089.375,216.4063,1093.375,226.4063,1097.375,216.4063,1093.375,220.4063" style="stroke:#181818;stroke-width:1.0;"/><line style="stroke:#181818;stroke-width:1.0;" x1="1093.375" x2="1093.375" y1="68.6094" y2="116.2188"/><polygon fill="#181818" points="1089.375,106.2188,1093.375,116.2188,1097.375,106.2188,1093.375,110.2188" style="stroke:#181818;stroke-width:1.0;"/><line style="stroke:#181818;stroke-width:1.0;" x1="1093.375" x2="1093.375" y1="261.5" y2="321.1094"/><polygon fill="#181818" points="1089.375,311.1094,1093.375,321.1094,1097.375,311.1094,1093.375,315.1094" style="stroke:#181818;stroke-width:1.0;"/><line style="stroke:#181818;stroke-width:1.0;" x1="827.75" x2="827.75" y1="494.9063" y2="521.9063"/><polygon fill="#181818" points="823.75,511.9063,827.75,521.9063,831.75,511.9063,827.75,515.9063" style="stroke:#181818;stroke-width:1.0;"/><line style="stroke:#181818;stroke-width:1.0;" x1="827.75" x2="827.75" y1="684.7031" y2="704.7031"/><polygon fill="#181818" points="823.75,694.7031,827.75,704.7031,831.75,694.7031,827.75,698.7031" style="stroke:#181818;stroke-width:1.0;"/><line style="stroke:#181818;stroke-width:1.0;" x1="827.75" x2="827.75" y1="739.7969" y2="759.7969"/><polygon fill="#181818" points="823.75,749.7969,827.75,759.7969,831.75,749.7969,827.75,753.7969" style="stroke:#181818;stroke-width:1.0;"/><line style="stroke:#181818;stroke-width:1.0;" x1="827.75" x2="827.75" y1="794.8906" y2="814.8906"/><polygon fill="#181818" points="823.75,804.8906,827.75,814.8906,831.75,804.8906,827.75,808.8906" style="stroke:#181818;stroke-width:1.0;"/><line style="stroke:#181818;stroke-width:1.0;" x1="827.75" x2="827.75" y1="557" y2="649.6094"/><polygon fill="#181818" points="823.75,639.6094,827.75,649.6094,831.75,639.6094,827.75,643.6094" style="stroke:#181818;stroke-width:1.0;"/><line style="stroke:#181818;stroke-width:1.0;" x1="554.5" x2="554.5" y1="988.6875" y2="1008.6875"/><polygon fill="#181818" points="550.5,998.6875,554.5,1008.6875,558.5,998.6875,554.5,1002.6875" style="stroke:#181818;stroke-width:1.0;"/><line style="stroke:#181818;stroke-width:1.0;" x1="554.5" x2="554.5" y1="1043.7813" y2="1103.3906"/><polygon fill="#181818" points="550.5,1093.3906,554.5,1103.3906,558.5,1093.3906,554.5,1097.3906" style="stroke:#181818;stroke-width:1.0;"/><line style="stroke:#181818;stroke-width:1.0;" x1="312" x2="312" y1="1277.1875" y2="1297.1875"/><polygon fill="#181818" points="308,1287.1875,312,1297.1875,316,1287.1875,312,1291.1875" style="stroke:#181818;stroke-width:1.0;"/><line style="stroke:#181818;stroke-width:1.0;" x1="312" x2="312" y1="1446.9844" y2="1466.9844"/><polygon fill="#181818" points="308,1456.9844,312,1466.9844,316,1456.9844,312,1460.9844" style="stroke:#181818;stroke-width:1.0;"/><line style="stroke:#181818;stroke-width:1.0;" x1="312" x2="312" y1="1517.1719" y2="1537.1719"/><polygon fill="#181818" points="308,1527.1719,312,1537.1719,316,1527.1719,312,1531.1719" style="stroke:#181818;stroke-width:1.0;"/><line style="stroke:#181818;stroke-width:1.0;" x1="312" x2="312" y1="1572.2656" y2="1592.2656"/><polygon fill="#181818" points="308,1582.2656,312,1592.2656,316,1582.2656,312,1586.2656" style="stroke:#181818;stroke-width:1.0;"/><line style="stroke:#181818;stroke-width:1.0;" x1="312" x2="312" y1="1347.375" y2="1411.8906"/><polygon fill="#181818" points="308,1401.8906,312,1411.8906,316,1401.8906,312,1405.8906" style="stroke:#181818;stroke-width:1.0;"/><line style="stroke:#181818;stroke-width:1.0;" x1="312" x2="312" y1="1627.3594" y2="1686.9688"/><polygon fill="#181818" points="308,1676.9688,312,1686.9688,316,1676.9688,312,1680.9688" style="stroke:#181818;stroke-width:1.0;"/><line style="stroke:#181818;stroke-width:1.0;" x1="156.5" x2="156.5" y1="1860.7656" y2="1880.7656"/><polygon fill="#181818" points="152.5,1870.7656,156.5,1880.7656,160.5,1870.7656,156.5,1874.7656" style="stroke:#181818;stroke-width:1.0;"/><line style="stroke:#181818;stroke-width:1.0;" x1="156.5" x2="156.5" y1="1915.8594" y2="1942.8594"/><polygon fill="#181818" points="152.5,1932.8594,156.5,1942.8594,160.5,1932.8594,156.5,1936.8594" style="stroke:#181818;stroke-width:1.0;"/><line style="stroke:#181818;stroke-width:1.0;" x1="467.5" x2="467.5" y1="1860.7656" y2="1880.7656"/><polygon fill="#181818" points="463.5,1870.7656,467.5,1880.7656,471.5,1870.7656,467.5,1874.7656" style="stroke:#181818;stroke-width:1.0;"/><line style="stroke:#181818;stroke-width:1.0;" x1="253" x2="156.5" y1="1766.0625" y2="1766.0625"/><line style="stroke:#181818;stroke-width:1.0;" x1="156.5" x2="156.5" y1="1766.0625" y2="1825.6719"/><polygon fill="#181818" points="152.5,1815.6719,156.5,1825.6719,160.5,1815.6719,156.5,1819.6719" style="stroke:#181818;stroke-width:1.0;"/><line style="stroke:#181818;stroke-width:1.0;" x1="371" x2="467.5" y1="1766.0625" y2="1766.0625"/><line style="stroke:#181818;stroke-width:1.0;" x1="467.5" x2="467.5" y1="1766.0625" y2="1825.6719"/><polygon fill="#181818" points="463.5,1815.6719,467.5,1825.6719,471.5,1815.6719,467.5,1819.6719" style="stroke:#181818;stroke-width:1.0;"/><line style="stroke:#181818;stroke-width:1.0;" x1="156.5" x2="156.5" y1="1977.9531" y2="2007.9531"/><line style="stroke:#181818;stroke-width:1.0;" x1="156.5" x2="300" y1="2007.9531" y2="2007.9531"/><polygon fill="#181818" points="290,2003.9531,300,2007.9531,290,2011.9531,294,2007.9531" style="stroke:#181818;stroke-width:1.0;"/><line style="stroke:#181818;stroke-width:1.0;" x1="467.5" x2="467.5" y1="1915.8594" y2="2007.9531"/><line style="stroke:#181818;stroke-width:1.0;" x1="467.5" x2="324" y1="2007.9531" y2="2007.9531"/><polygon fill="#181818" points="334,2003.9531,324,2007.9531,334,2011.9531,330,2007.9531" style="stroke:#181818;stroke-width:1.0;"/><line style="stroke:#181818;stroke-width:1.0;" x1="312" x2="312" y1="1722.0625" y2="1754.0625"/><polygon fill="#181818" points="308,1744.0625,312,1754.0625,316,1744.0625,312,1748.0625" style="stroke:#181818;stroke-width:1.0;"/><line style="stroke:#181818;stroke-width:1.0;" x1="797" x2="797" y1="1277.1875" y2="1297.1875"/><polygon fill="#181818" points="793,1287.1875,797,1297.1875,801,1287.1875,797,1291.1875" style="stroke:#181818;stroke-width:1.0;"/><line style="stroke:#181818;stroke-width:1.0;" x1="465" x2="312" y1="1182.4844" y2="1182.4844"/><line style="stroke:#181818;stroke-width:1.0;" x1="312" x2="312" y1="1182.4844" y2="1242.0938"/><polygon fill="#181818" points="308,1232.0938,312,1242.0938,316,1232.0938,312,1236.0938" style="stroke:#181818;stroke-width:1.0;"/><line style="stroke:#181818;stroke-width:1.0;" x1="644" x2="797" y1="1182.4844" y2="1182.4844"/><line style="stroke:#181818;stroke-width:1.0;" x1="797" x2="797" y1="1182.4844" y2="1242.0938"/><polygon fill="#181818" points="793,1232.0938,797,1242.0938,801,1232.0938,797,1236.0938" style="stroke:#181818;stroke-width:1.0;"/><line style="stroke:#181818;stroke-width:1.0;" x1="312" x2="312" y1="2019.9531" y2="2037.9531"/><line style="stroke:#181818;stroke-width:1.0;" x1="312" x2="542.5" y1="2037.9531" y2="2037.9531"/><polygon fill="#181818" points="532.5,2033.9531,542.5,2037.9531,532.5,2041.9531,536.5,2037.9531" style="stroke:#181818;stroke-width:1.0;"/><line style="stroke:#181818;stroke-width:1.0;" x1="797" x2="797" y1="1332.2813" y2="2037.9531"/><line style="stroke:#181818;stroke-width:1.0;" x1="797" x2="566.5" y1="2037.9531" y2="2037.9531"/><polygon fill="#181818" points="576.5,2033.9531,566.5,2037.9531,576.5,2041.9531,572.5,2037.9531" style="stroke:#181818;stroke-width:1.0;"/><line style="stroke:#181818;stroke-width:1.0;" x1="554.5" x2="554.5" y1="1138.4844" y2="1170.4844"/><polygon fill="#181818" points="550.5,1160.4844,554.5,1170.4844,558.5,1160.4844,554.5,1164.4844" style="stroke:#181818;stroke-width:1.0;"/><line style="stroke:#181818;stroke-width:1.0;" x1="1101" x2="1101" y1="988.6875" y2="1008.6875"/><polygon fill="#181818" points="1097,998.6875,1101,1008.6875,1105,998.6875,1101,1002.6875" style="stroke:#181818;stroke-width:1.0;"/><line style="stroke:#181818;stroke-width:1.0;" x1="1101" x2="1101" y1="1043.7813" y2="1103.3906"/><polygon fill="#181818" points="1097,1093.3906,1101,1103.3906,1105,1093.3906,1101,1097.3906" style="stroke:#181818;stroke-width:1.0;"/><line style="stroke:#181818;stroke-width:1.0;" x1="761.75" x2="554.5" y1="893.9844" y2="893.9844"/><line style="stroke:#181818;stroke-width:1.0;" x1="554.5" x2="554.5" y1="893.9844" y2="953.5938"/><polygon fill="#181818" points="550.5,943.5938,554.5,953.5938,558.5,943.5938,554.5,947.5938" style="stroke:#181818;stroke-width:1.0;"/><line style="stroke:#181818;stroke-width:1.0;" x1="893.75" x2="1101" y1="893.9844" y2="893.9844"/><line style="stroke:#181818;stroke-width:1.0;" x1="1101" x2="1101" y1="893.9844" y2="953.5938"/><polygon fill="#181818" points="1097,943.5938,1101,953.5938,1105,943.5938,1101,947.5938" style="stroke:#181818;stroke-width:1.0;"/><line style="stroke:#181818;stroke-width:1.0;" x1="554.5" x2="554.5" y1="2049.9531" y2="2067.9531"/><line style="stroke:#181818;stroke-width:1.0;" x1="554.5" x2="815.75" y1="2067.9531" y2="2067.9531"/><polygon fill="#181818" points="805.75,2063.9531,815.75,2067.9531,805.75,2071.9531,809.75,2067.9531" style="stroke:#181818;stroke-width:1.0;"/><line style="stroke:#181818;stroke-width:1.0;" x1="1101" x2="1101" y1="1138.4844" y2="2067.9531"/><line style="stroke:#181818;stroke-width:1.0;" x1="1101" x2="839.75" y1="2067.9531" y2="2067.9531"/><polygon fill="#181818" points="849.75,2063.9531,839.75,2067.9531,849.75,2071.9531,845.75,2067.9531" style="stroke:#181818;stroke-width:1.0;"/><line style="stroke:#181818;stroke-width:1.0;" x1="827.75" x2="827.75" y1="849.9844" y2="881.9844"/><polygon fill="#181818" points="823.75,871.9844,827.75,881.9844,831.75,871.9844,827.75,875.9844" style="stroke:#181818;stroke-width:1.0;"/><line style="stroke:#181818;stroke-width:1.0;" x1="1355.375" x2="1355.375" y1="494.9063" y2="579.5156"/><polygon fill="#181818" points="1351.375,569.5156,1355.375,579.5156,1359.375,569.5156,1355.375,573.5156" style="stroke:#181818;stroke-width:1.0;"/><line style="stroke:#181818;stroke-width:1.0;" x1="1052.875" x2="827.75" y1="400.2031" y2="400.2031"/><line style="stroke:#181818;stroke-width:1.0;" x1="827.75" x2="827.75" y1="400.2031" y2="459.8125"/><polygon fill="#181818" points="823.75,449.8125,827.75,459.8125,831.75,449.8125,827.75,453.8125" style="stroke:#181818;stroke-width:1.0;"/><line style="stroke:#181818;stroke-width:1.0;" x1="1133.875" x2="1355.375" y1="400.2031" y2="400.2031"/><line style="stroke:#181818;stroke-width:1.0;" x1="1355.375" x2="1355.375" y1="400.2031" y2="459.8125"/><polygon fill="#181818" points="1351.375,449.8125,1355.375,459.8125,1359.375,449.8125,1355.375,453.8125" style="stroke:#181818;stroke-width:1.0;"/><line style="stroke:#181818;stroke-width:1.0;" x1="827.75" x2="827.75" y1="2079.9531" y2="2097.9531"/><line style="stroke:#181818;stroke-width:1.0;" x1="827.75" x2="1081.375" y1="2097.9531" y2="2097.9531"/><polygon fill="#181818" points="1071.375,2093.9531,1081.375,2097.9531,1071.375,2101.9531,1075.375,2097.9531" style="stroke:#181818;stroke-width:1.0;"/><line style="stroke:#181818;stroke-width:1.0;" x1="1355.375" x2="1355.375" y1="614.6094" y2="2097.9531"/><line style="stroke:#181818;stroke-width:1.0;" x1="1355.375" x2="1105.375" y1="2097.9531" y2="2097.9531"/><polygon fill="#181818" points="1115.375,2093.9531,1105.375,2097.9531,1115.375,2101.9531,1111.375,2097.9531" style="stroke:#181818;stroke-width:1.0;"/><line style="stroke:#181818;stroke-width:1.0;" x1="1093.375" x2="1093.375" y1="356.2031" y2="388.2031"/><polygon fill="#181818" points="1089.375,378.2031,1093.375,388.2031,1097.375,378.2031,1093.375,382.2031" style="stroke:#181818;stroke-width:1.0;"/><line style="stroke:#181818;stroke-width:1.0;" x1="1093.375" x2="1093.375" y1="2109.9531" y2="2129.9531"/><polygon fill="#181818" points="1089.375,2119.9531,1093.375,2129.9531,1097.375,2119.9531,1093.375,2123.9531" style="stroke:#181818;stroke-width:1.0;"/><!--SRC=[jLPDYzim4BtxLmnxoiBs3pI74bWeMxfGcbvw7A-rzgmbsUXZGrhotpkIxSGVSMnOcaECySoRzzv88pboKi3knT4xkICy4kO65No2hzvuU1Ow9rrx1xlK2cq9zcGFc2JMeN59KlC_EQeqt8NuE_YR0Fy-nsGbLEfBX08bAjGWAyRQ3WFG-hBaRzuAer49oFYbHciFbSdwiQMa4bobqah2zmReDAZFn9nGPmRFGWb3fKL6TDZKXfoHOXwzmYQYm3jAohxSWok4Xirll4zY_eom7lV07Cf0s1PfXHtRWJgILF1JUtZgczX4dYQLXX9Q6UnAJJ9urFbu1MiIwp0TnaLZVz81Z-XcSkf0bvzlc1rGBWGvr7dUHRLIWglVOd9q6fmmLcI4KtiNB9wQEEOqZMW90OvzELqjEVLwj6oQYj6s3lh8JyWeMd0LFnZmO-3Y87zchQrcDsb6Xg-y3y66FSdfsPbrT3xrRhkKprkZDQnHPts61J1IyaQyTHb4IA_qaU731YrOFlND7Hcmeg_Jpl4iSTwUUKGrszaS7aWSn5l11fCZoPYVFFqX_G1xBCaz00lpi9Fr8j0BHt9_cWKRuRZ1maWUN7ekjp-BzgHgJjyBvN6jBJUxEnXRWzv4wziPTgDGM8IF_UJfiXkNNSMjMpt7Hd6VttOs-38tHEXNAao1bkIAX99F3oQ-DFKk9lJVXBG2Dhyem_A3QaS2X36L-U_iTKQlbwOEn7nmOjnKSLL1FJlFPbTXZ_zrxijpU3H5oyfMEX-D_tWL0HUmcLQDZdU8w_WlpV_v8wSFgCxtdxbZfTKwrRd-N6zwqjvGS7oeBjv4kaRnNUJAJOjHMehMLNNo3m00]--></g></svg>