<?xml version="1.0" encoding="us-ascii" standalone="no"?><svg xmlns="http://www.w3.org/2000/svg" xmlns:xlink="http://www.w3.org/1999/xlink" contentStyleType="text/css" height="1873px" preserveAspectRatio="none" style="width:809px;height:1873px;background:#FFFFFF;" version="1.1" viewBox="0 0 809 1873" width="809px" zoomAndPan="magnify"><defs/><g><text fill="#000000" font-family="sans-serif" font-size="14" font-weight="bold" lengthAdjust="spacing" textLength="333" x="236.5" y="34.5332">Activity Diagram - Guru Melihat Riwayat Absensi</text><ellipse cx="493.375" cy="58.6094" fill="#222222" rx="10" ry="10" style="stroke:#222222;stroke-width:1.0;"/><rect fill="none" height="194.8906" style="stroke:#000000;stroke-width:1.5;" width="288" x="349.375" y="78.6094"/><path d="M391.375,78.6094 L391.375,89.2188 L381.375,99.2188 L349.375,99.2188 " fill="none" style="stroke:#000000;stroke-width:1.5;"/><text fill="#000000" font-family="sans-serif" font-size="14" lengthAdjust="spacing" textLength="32" x="352.375" y="94.1426">Guru</text><rect fill="#F1F1F1" height="35.0938" rx="12.5" ry="12.5" style="stroke:#181818;stroke-width:0.5;" width="188" x="399.375" y="116.2188"/><text fill="#000000" font-family="sans-serif" font-size="12" lengthAdjust="spacing" textLength="168" x="409.375" y="138.6758">Guru membuka halaman login</text><rect fill="#F1F1F1" height="35.0938" rx="12.5" ry="12.5" style="stroke:#181818;stroke-width:0.5;" width="268" x="359.375" y="171.3125"/><text fill="#000000" font-family="sans-serif" font-size="12" lengthAdjust="spacing" textLength="248" x="369.375" y="193.7695">Guru memasukkan username dan password</text><rect fill="#F1F1F1" height="35.0938" rx="12.5" ry="12.5" style="stroke:#181818;stroke-width:0.5;" width="143" x="421.875" y="226.4063"/><text fill="#000000" font-family="sans-serif" font-size="12" lengthAdjust="spacing" textLength="123" x="431.875" y="248.8633">Guru klik tombol Login</text><rect fill="none" height="84.7031" style="stroke:#000000;stroke-width:1.5;" width="186" x="400.375" y="283.5"/><path d="M452.375,283.5 L452.375,294.1094 L442.375,304.1094 L400.375,304.1094 " fill="none" style="stroke:#000000;stroke-width:1.5;"/><text fill="#000000" font-family="sans-serif" font-size="14" lengthAdjust="spacing" textLength="42" x="403.375" y="299.0332">Sistem</text><rect fill="#F1F1F1" height="35.0938" rx="12.5" ry="12.5" style="stroke:#181818;stroke-width:0.5;" width="166" x="410.375" y="321.1094"/><text fill="#000000" font-family="sans-serif" font-size="12" lengthAdjust="spacing" textLength="146" x="420.375" y="343.5664">Memeriksa data login guru</text><polygon fill="#F1F1F1" points="464.875,388.2031,521.875,388.2031,533.875,400.2031,521.875,412.2031,464.875,412.2031,452.875,400.2031,464.875,388.2031" style="stroke:#181818;stroke-width:0.5;"/><text fill="#000000" font-family="sans-serif" font-size="11" lengthAdjust="spacing" textLength="57" x="464.875" y="404.7041">Login valid?</text><text fill="#000000" font-family="sans-serif" font-size="11" lengthAdjust="spacing" textLength="14" x="438.875" y="397.7861">Ya</text><text fill="#000000" font-family="sans-serif" font-size="11" lengthAdjust="spacing" textLength="25" x="533.875" y="397.7861">Tidak</text><rect fill="none" height="279.5" style="stroke:#000000;stroke-width:1.5;" width="285" x="154.25" y="422.2031"/><path d="M196.25,422.2031 L196.25,432.8125 L186.25,442.8125 L154.25,442.8125 " fill="none" style="stroke:#000000;stroke-width:1.5;"/><text fill="#000000" font-family="sans-serif" font-size="14" lengthAdjust="spacing" textLength="32" x="157.25" y="437.7363">Guru</text><rect fill="#F1F1F1" height="35.0938" rx="12.5" ry="12.5" style="stroke:#181818;stroke-width:0.5;" width="167" x="213.25" y="459.8125"/><text fill="#000000" font-family="sans-serif" font-size="12" lengthAdjust="spacing" textLength="147" x="223.25" y="482.2695">Guru masuk ke dashboard</text><rect fill="#F1F1F1" height="35.0938" rx="12.5" ry="12.5" style="stroke:#181818;stroke-width:0.5;" width="208" x="192.75" y="521.9063"/><text fill="#000000" font-family="sans-serif" font-size="12" lengthAdjust="spacing" textLength="188" x="202.75" y="544.3633">Guru memilih menu Input Absensi</text><rect fill="#F1F1F1" height="35.0938" rx="12.5" ry="12.5" style="stroke:#181818;stroke-width:0.5;" width="172" x="210.75" y="592"/><text fill="#000000" font-family="sans-serif" font-size="12" lengthAdjust="spacing" textLength="152" x="220.75" y="614.457">Guru membuka tab Riwayat</text><rect fill="#F1F1F1" height="35.0938" rx="12.5" ry="12.5" style="stroke:#181818;stroke-width:0.5;" width="265" x="164.25" y="654.6094"/><text fill="#000000" font-family="sans-serif" font-size="12" lengthAdjust="spacing" textLength="245" x="174.25" y="677.0664">Guru klik link Lihat Riwayat Absensi Lengkap</text><rect fill="none" height="305.0781" style="stroke:#000000;stroke-width:1.5;" width="323" x="135.25" y="711.7031"/><path d="M187.25,711.7031 L187.25,722.3125 L177.25,732.3125 L135.25,732.3125 " fill="none" style="stroke:#000000;stroke-width:1.5;"/><text fill="#000000" font-family="sans-serif" font-size="14" lengthAdjust="spacing" textLength="42" x="138.25" y="727.2363">Sistem</text><rect fill="#F1F1F1" height="35.0938" rx="12.5" ry="12.5" style="stroke:#181818;stroke-width:0.5;" width="240" x="176.75" y="749.3125"/><text fill="#000000" font-family="sans-serif" font-size="12" lengthAdjust="spacing" textLength="220" x="186.75" y="771.7695">Menampilkan halaman Riwayat Absensi</text><rect fill="#F1F1F1" height="35.0938" rx="12.5" ry="12.5" style="stroke:#181818;stroke-width:0.5;" width="226" x="183.75" y="804.4063"/><text fill="#000000" font-family="sans-serif" font-size="12" lengthAdjust="spacing" textLength="206" x="193.75" y="826.8633">Menampilkan ringkasan total absensi</text><rect fill="#F1F1F1" height="35.0938" rx="12.5" ry="12.5" style="stroke:#181818;stroke-width:0.5;" width="303" x="145.25" y="859.5"/><text fill="#000000" font-family="sans-serif" font-size="12" lengthAdjust="spacing" textLength="283" x="155.25" y="881.957">Menampilkan ringkasan Hadir, Izin + Sakit, dan Alpa</text><rect fill="#F1F1F1" height="35.0938" rx="12.5" ry="12.5" style="stroke:#181818;stroke-width:0.5;" width="164" x="214.75" y="914.5938"/><text fill="#000000" font-family="sans-serif" font-size="12" lengthAdjust="spacing" textLength="144" x="224.75" y="937.0508">Menampilkan filter tanggal</text><rect fill="#F1F1F1" height="35.0938" rx="12.5" ry="12.5" style="stroke:#181818;stroke-width:0.5;" width="199" x="197.25" y="969.6875"/><text fill="#000000" font-family="sans-serif" font-size="12" lengthAdjust="spacing" textLength="179" x="207.25" y="992.1445">Menampilkan tabel data absensi</text><rect fill="none" height="84.7031" style="stroke:#000000;stroke-width:1.5;" width="200" x="196.75" y="1026.7813"/><path d="M238.75,1026.7813 L238.75,1037.3906 L228.75,1047.3906 L196.75,1047.3906 " fill="none" style="stroke:#000000;stroke-width:1.5;"/><text fill="#000000" font-family="sans-serif" font-size="14" lengthAdjust="spacing" textLength="32" x="199.75" y="1042.3145">Guru</text><rect fill="#F1F1F1" height="35.0938" rx="12.5" ry="12.5" style="stroke:#181818;stroke-width:0.5;" width="180" x="206.75" y="1064.3906"/><text fill="#000000" font-family="sans-serif" font-size="12" lengthAdjust="spacing" textLength="160" x="216.75" y="1086.8477">Guru melihat riwayat absensi</text><polygon fill="#F1F1F1" points="226.25,1131.4844,367.25,1131.4844,379.25,1143.4844,367.25,1155.4844,226.25,1155.4844,214.25,1143.4844,226.25,1131.4844" style="stroke:#181818;stroke-width:0.5;"/><text fill="#000000" font-family="sans-serif" font-size="11" lengthAdjust="spacing" textLength="141" x="226.25" y="1147.9854">Guru ingin memfilter riwayat?</text><text fill="#000000" font-family="sans-serif" font-size="11" lengthAdjust="spacing" textLength="14" x="200.25" y="1141.0674">Ya</text><text fill="#000000" font-family="sans-serif" font-size="11" lengthAdjust="spacing" textLength="25" x="379.25" y="1141.0674">Tidak</text><rect fill="none" height="201.8906" style="stroke:#000000;stroke-width:1.5;" width="204" x="65.5" y="1165.4844"/><path d="M107.5,1165.4844 L107.5,1176.0938 L97.5,1186.0938 L65.5,1186.0938 " fill="none" style="stroke:#000000;stroke-width:1.5;"/><text fill="#000000" font-family="sans-serif" font-size="14" lengthAdjust="spacing" textLength="32" x="68.5" y="1181.0176">Guru</text><rect fill="#F1F1F1" height="35.0938" rx="12.5" ry="12.5" style="stroke:#181818;stroke-width:0.5;" width="163" x="86" y="1203.0938"/><text fill="#000000" font-family="sans-serif" font-size="12" lengthAdjust="spacing" textLength="143" x="96" y="1225.5508">Guru mengisi tanggal dari</text><rect fill="#F1F1F1" height="35.0938" rx="12.5" ry="12.5" style="stroke:#181818;stroke-width:0.5;" width="184" x="75.5" y="1265.1875"/><text fill="#000000" font-family="sans-serif" font-size="12" lengthAdjust="spacing" textLength="164" x="85.5" y="1287.6445">Guru mengisi tanggal sampai</text><rect fill="#F1F1F1" height="35.0938" rx="12.5" ry="12.5" style="stroke:#181818;stroke-width:0.5;" width="139" x="98" y="1320.2813"/><text fill="#000000" font-family="sans-serif" font-size="12" lengthAdjust="spacing" textLength="119" x="108" y="1342.7383">Guru klik tombol Filter</text><rect fill="none" height="99.7969" style="stroke:#000000;stroke-width:1.5;" width="232" x="51.5" y="1377.375"/><path d="M103.5,1377.375 L103.5,1387.9844 L93.5,1397.9844 L51.5,1397.9844 " fill="none" style="stroke:#000000;stroke-width:1.5;"/><text fill="#000000" font-family="sans-serif" font-size="14" lengthAdjust="spacing" textLength="42" x="54.5" y="1392.9082">Sistem</text><rect fill="#F1F1F1" height="50.1875" rx="12.5" ry="12.5" style="stroke:#181818;stroke-width:0.5;" width="212" x="61.5" y="1414.9844"/><text fill="#000000" font-family="sans-serif" font-size="12" lengthAdjust="spacing" textLength="149" x="71.5" y="1437.4414">Menampilkan data absensi</text><text fill="#000000" font-family="sans-serif" font-size="12" lengthAdjust="spacing" textLength="192" x="71.5" y="1452.5352">sesuai rentang tanggal yang dipilih</text><rect fill="none" height="84.7031" style="stroke:#000000;stroke-width:1.5;" width="245" x="303.5" y="1165.4844"/><path d="M345.5,1165.4844 L345.5,1176.0938 L335.5,1186.0938 L303.5,1186.0938 " fill="none" style="stroke:#000000;stroke-width:1.5;"/><text fill="#000000" font-family="sans-serif" font-size="14" lengthAdjust="spacing" textLength="32" x="306.5" y="1181.0176">Guru</text><rect fill="#F1F1F1" height="35.0938" rx="12.5" ry="12.5" style="stroke:#181818;stroke-width:0.5;" width="225" x="313.5" y="1203.0938"/><text fill="#000000" font-family="sans-serif" font-size="12" lengthAdjust="spacing" textLength="205" x="323.5" y="1225.5508">Guru tidak melakukan filter tambahan</text><polygon fill="#F1F1F1" points="296.75,1483.1719,308.75,1495.1719,296.75,1507.1719,284.75,1495.1719,296.75,1483.1719" style="stroke:#181818;stroke-width:0.5;"/><polygon fill="#F1F1F1" points="209.75,1527.1719,383.75,1527.1719,395.75,1539.1719,383.75,1551.1719,209.75,1551.1719,197.75,1539.1719,209.75,1527.1719" style="stroke:#181818;stroke-width:0.5;"/><text fill="#000000" font-family="sans-serif" font-size="11" lengthAdjust="spacing" textLength="174" x="209.75" y="1543.6729">Guru ingin kembali ke input absensi?</text><text fill="#000000" font-family="sans-serif" font-size="11" lengthAdjust="spacing" textLength="14" x="183.75" y="1536.7549">Ya</text><text fill="#000000" font-family="sans-serif" font-size="11" lengthAdjust="spacing" textLength="25" x="395.75" y="1536.7549">Tidak</text><rect fill="none" height="92.7031" style="stroke:#000000;stroke-width:1.5;" width="208" x="52.5" y="1561.1719"/><path d="M94.5,1561.1719 L94.5,1571.7813 L84.5,1581.7813 L52.5,1581.7813 " fill="none" style="stroke:#000000;stroke-width:1.5;"/><text fill="#000000" font-family="sans-serif" font-size="14" lengthAdjust="spacing" textLength="32" x="55.5" y="1576.7051">Guru</text><rect fill="#F1F1F1" height="35.0938" rx="12.5" ry="12.5" style="stroke:#181818;stroke-width:0.5;" width="188" x="62.5" y="1598.7813"/><text fill="#000000" font-family="sans-serif" font-size="12" lengthAdjust="spacing" textLength="168" x="72.5" y="1621.2383">Guru klik tombol Kembali Input</text><rect fill="none" height="84.7031" style="stroke:#000000;stroke-width:1.5;" width="291" x="11" y="1675.875"/><path d="M63,1675.875 L63,1686.4844 L53,1696.4844 L11,1696.4844 " fill="none" style="stroke:#000000;stroke-width:1.5;"/><text fill="#000000" font-family="sans-serif" font-size="14" lengthAdjust="spacing" textLength="42" x="14" y="1691.4082">Sistem</text><rect fill="#F1F1F1" height="35.0938" rx="12.5" ry="12.5" style="stroke:#181818;stroke-width:0.5;" width="271" x="21" y="1713.4844"/><text fill="#000000" font-family="sans-serif" font-size="12" lengthAdjust="spacing" textLength="251" x="31" y="1735.9414">Menampilkan kembali halaman Input Absensi</text><rect fill="none" height="104.7031" style="stroke:#000000;stroke-width:1.5;" width="230" x="322" y="1561.1719"/><path d="M364,1561.1719 L364,1571.7813 L354,1581.7813 L322,1581.7813 " fill="none" style="stroke:#000000;stroke-width:1.5;"/><text fill="#000000" font-family="sans-serif" font-size="14" lengthAdjust="spacing" textLength="32" x="325" y="1576.7051">Guru</text><rect fill="#F1F1F1" height="50.1875" rx="12.5" ry="12.5" style="stroke:#181818;stroke-width:0.5;" width="210" x="332" y="1598.7813"/><text fill="#000000" font-family="sans-serif" font-size="12" lengthAdjust="spacing" textLength="190" x="342" y="1621.2383">Guru tetap melihat riwayat absensi</text><text fill="#000000" font-family="sans-serif" font-size="12" lengthAdjust="spacing" textLength="130" x="342" y="1636.332">atau memilih menu lain</text><polygon fill="#F1F1F1" points="296.75,1766.5781,308.75,1778.5781,296.75,1790.5781,284.75,1778.5781,296.75,1766.5781" style="stroke:#181818;stroke-width:0.5;"/><rect fill="none" height="84.7031" style="stroke:#000000;stroke-width:1.5;" width="216" x="582" y="422.2031"/><path d="M634,422.2031 L634,432.8125 L624,442.8125 L582,442.8125 " fill="none" style="stroke:#000000;stroke-width:1.5;"/><text fill="#000000" font-family="sans-serif" font-size="14" lengthAdjust="spacing" textLength="42" x="585" y="437.7363">Sistem</text><rect fill="#F1F1F1" height="35.0938" rx="12.5" ry="12.5" style="stroke:#181818;stroke-width:0.5;" width="196" x="592" y="459.8125"/><text fill="#000000" font-family="sans-serif" font-size="12" lengthAdjust="spacing" textLength="176" x="602" y="482.2695">Menampilkan pesan login gagal</text><rect fill="none" height="92.7031" style="stroke:#000000;stroke-width:1.5;" width="212" x="584" y="541.9063"/><path d="M626,541.9063 L626,552.5156 L616,562.5156 L584,562.5156 " fill="none" style="stroke:#000000;stroke-width:1.5;"/><text fill="#000000" font-family="sans-serif" font-size="14" lengthAdjust="spacing" textLength="32" x="587" y="557.4395">Guru</text><rect fill="#F1F1F1" height="35.0938" rx="12.5" ry="12.5" style="stroke:#181818;stroke-width:0.5;" width="192" x="594" y="579.5156"/><text fill="#000000" font-family="sans-serif" font-size="12" lengthAdjust="spacing" textLength="172" x="604" y="601.9727">Guru kembali ke halaman login</text><polygon fill="#F1F1F1" points="493.375,1796.5781,505.375,1808.5781,493.375,1820.5781,481.375,1808.5781,493.375,1796.5781" style="stroke:#181818;stroke-width:0.5;"/><ellipse cx="493.375" cy="1851.5781" fill="none" rx="11" ry="11" style="stroke:#222222;stroke-width:1.0;"/><ellipse cx="493.375" cy="1851.5781" fill="#222222" rx="6" ry="6" style="stroke:#222222;stroke-width:1.0;"/><line style="stroke:#181818;stroke-width:1.0;" x1="493.375" x2="493.375" y1="151.3125" y2="171.3125"/><polygon fill="#181818" points="489.375,161.3125,493.375,171.3125,497.375,161.3125,493.375,165.3125" style="stroke:#181818;stroke-width:1.0;"/><line style="stroke:#181818;stroke-width:1.0;" x1="493.375" x2="493.375" y1="206.4063" y2="226.4063"/><polygon fill="#181818" points="489.375,216.4063,493.375,226.4063,497.375,216.4063,493.375,220.4063" style="stroke:#181818;stroke-width:1.0;"/><line style="stroke:#181818;stroke-width:1.0;" x1="493.375" x2="493.375" y1="68.6094" y2="116.2188"/><polygon fill="#181818" points="489.375,106.2188,493.375,116.2188,497.375,106.2188,493.375,110.2188" style="stroke:#181818;stroke-width:1.0;"/><line style="stroke:#181818;stroke-width:1.0;" x1="493.375" x2="493.375" y1="261.5" y2="321.1094"/><polygon fill="#181818" points="489.375,311.1094,493.375,321.1094,497.375,311.1094,493.375,315.1094" style="stroke:#181818;stroke-width:1.0;"/><line style="stroke:#181818;stroke-width:1.0;" x1="296.75" x2="296.75" y1="494.9063" y2="521.9063"/><polygon fill="#181818" points="292.75,511.9063,296.75,521.9063,300.75,511.9063,296.75,515.9063" style="stroke:#181818;stroke-width:1.0;"/><line style="stroke:#181818;stroke-width:1.0;" x1="296.75" x2="296.75" y1="557" y2="592"/><polygon fill="#181818" points="292.75,582,296.75,592,300.75,582,296.75,586" style="stroke:#181818;stroke-width:1.0;"/><line style="stroke:#181818;stroke-width:1.0;" x1="296.75" x2="296.75" y1="627.0938" y2="654.6094"/><polygon fill="#181818" points="292.75,644.6094,296.75,654.6094,300.75,644.6094,296.75,648.6094" style="stroke:#181818;stroke-width:1.0;"/><line style="stroke:#181818;stroke-width:1.0;" x1="296.75" x2="296.75" y1="784.4063" y2="804.4063"/><polygon fill="#181818" points="292.75,794.4063,296.75,804.4063,300.75,794.4063,296.75,798.4063" style="stroke:#181818;stroke-width:1.0;"/><line style="stroke:#181818;stroke-width:1.0;" x1="296.75" x2="296.75" y1="839.5" y2="859.5"/><polygon fill="#181818" points="292.75,849.5,296.75,859.5,300.75,849.5,296.75,853.5" style="stroke:#181818;stroke-width:1.0;"/><line style="stroke:#181818;stroke-width:1.0;" x1="296.75" x2="296.75" y1="894.5938" y2="914.5938"/><polygon fill="#181818" points="292.75,904.5938,296.75,914.5938,300.75,904.5938,296.75,908.5938" style="stroke:#181818;stroke-width:1.0;"/><line style="stroke:#181818;stroke-width:1.0;" x1="296.75" x2="296.75" y1="949.6875" y2="969.6875"/><polygon fill="#181818" points="292.75,959.6875,296.75,969.6875,300.75,959.6875,296.75,963.6875" style="stroke:#181818;stroke-width:1.0;"/><line style="stroke:#181818;stroke-width:1.0;" x1="296.75" x2="296.75" y1="689.7031" y2="749.3125"/><polygon fill="#181818" points="292.75,739.3125,296.75,749.3125,300.75,739.3125,296.75,743.3125" style="stroke:#181818;stroke-width:1.0;"/><line style="stroke:#181818;stroke-width:1.0;" x1="296.75" x2="296.75" y1="1004.7813" y2="1064.3906"/><polygon fill="#181818" points="292.75,1054.3906,296.75,1064.3906,300.75,1054.3906,296.75,1058.3906" style="stroke:#181818;stroke-width:1.0;"/><line style="stroke:#181818;stroke-width:1.0;" x1="167.5" x2="167.5" y1="1238.1875" y2="1265.1875"/><polygon fill="#181818" points="163.5,1255.1875,167.5,1265.1875,171.5,1255.1875,167.5,1259.1875" style="stroke:#181818;stroke-width:1.0;"/><line style="stroke:#181818;stroke-width:1.0;" x1="167.5" x2="167.5" y1="1300.2813" y2="1320.2813"/><polygon fill="#181818" points="163.5,1310.2813,167.5,1320.2813,171.5,1310.2813,167.5,1314.2813" style="stroke:#181818;stroke-width:1.0;"/><line style="stroke:#181818;stroke-width:1.0;" x1="167.5" x2="167.5" y1="1355.375" y2="1414.9844"/><polygon fill="#181818" points="163.5,1404.9844,167.5,1414.9844,171.5,1404.9844,167.5,1408.9844" style="stroke:#181818;stroke-width:1.0;"/><line style="stroke:#181818;stroke-width:1.0;" x1="214.25" x2="167.5" y1="1143.4844" y2="1143.4844"/><line style="stroke:#181818;stroke-width:1.0;" x1="167.5" x2="167.5" y1="1143.4844" y2="1203.0938"/><polygon fill="#181818" points="163.5,1193.0938,167.5,1203.0938,171.5,1193.0938,167.5,1197.0938" style="stroke:#181818;stroke-width:1.0;"/><line style="stroke:#181818;stroke-width:1.0;" x1="379.25" x2="426" y1="1143.4844" y2="1143.4844"/><line style="stroke:#181818;stroke-width:1.0;" x1="426" x2="426" y1="1143.4844" y2="1203.0938"/><polygon fill="#181818" points="422,1193.0938,426,1203.0938,430,1193.0938,426,1197.0938" style="stroke:#181818;stroke-width:1.0;"/><line style="stroke:#181818;stroke-width:1.0;" x1="167.5" x2="167.5" y1="1465.1719" y2="1495.1719"/><line style="stroke:#181818;stroke-width:1.0;" x1="167.5" x2="284.75" y1="1495.1719" y2="1495.1719"/><polygon fill="#181818" points="274.75,1491.1719,284.75,1495.1719,274.75,1499.1719,278.75,1495.1719" style="stroke:#181818;stroke-width:1.0;"/><line style="stroke:#181818;stroke-width:1.0;" x1="426" x2="426" y1="1238.1875" y2="1495.1719"/><line style="stroke:#181818;stroke-width:1.0;" x1="426" x2="308.75" y1="1495.1719" y2="1495.1719"/><polygon fill="#181818" points="318.75,1491.1719,308.75,1495.1719,318.75,1499.1719,314.75,1495.1719" style="stroke:#181818;stroke-width:1.0;"/><line style="stroke:#181818;stroke-width:1.0;" x1="296.75" x2="296.75" y1="1099.4844" y2="1131.4844"/><polygon fill="#181818" points="292.75,1121.4844,296.75,1131.4844,300.75,1121.4844,296.75,1125.4844" style="stroke:#181818;stroke-width:1.0;"/><line style="stroke:#181818;stroke-width:1.0;" x1="156.5" x2="156.5" y1="1633.875" y2="1713.4844"/><polygon fill="#181818" points="152.5,1703.4844,156.5,1713.4844,160.5,1703.4844,156.5,1707.4844" style="stroke:#181818;stroke-width:1.0;"/><line style="stroke:#181818;stroke-width:1.0;" x1="197.75" x2="156.5" y1="1539.1719" y2="1539.1719"/><line style="stroke:#181818;stroke-width:1.0;" x1="156.5" x2="156.5" y1="1539.1719" y2="1598.7813"/><polygon fill="#181818" points="152.5,1588.7813,156.5,1598.7813,160.5,1588.7813,156.5,1592.7813" style="stroke:#181818;stroke-width:1.0;"/><line style="stroke:#181818;stroke-width:1.0;" x1="395.75" x2="437" y1="1539.1719" y2="1539.1719"/><line style="stroke:#181818;stroke-width:1.0;" x1="437" x2="437" y1="1539.1719" y2="1598.7813"/><polygon fill="#181818" points="433,1588.7813,437,1598.7813,441,1588.7813,437,1592.7813" style="stroke:#181818;stroke-width:1.0;"/><line style="stroke:#181818;stroke-width:1.0;" x1="156.5" x2="156.5" y1="1748.5781" y2="1778.5781"/><line style="stroke:#181818;stroke-width:1.0;" x1="156.5" x2="284.75" y1="1778.5781" y2="1778.5781"/><polygon fill="#181818" points="274.75,1774.5781,284.75,1778.5781,274.75,1782.5781,278.75,1778.5781" style="stroke:#181818;stroke-width:1.0;"/><line style="stroke:#181818;stroke-width:1.0;" x1="437" x2="437" y1="1648.9688" y2="1778.5781"/><line style="stroke:#181818;stroke-width:1.0;" x1="437" x2="308.75" y1="1778.5781" y2="1778.5781"/><polygon fill="#181818" points="318.75,1774.5781,308.75,1778.5781,318.75,1782.5781,314.75,1778.5781" style="stroke:#181818;stroke-width:1.0;"/><line style="stroke:#181818;stroke-width:1.0;" x1="296.75" x2="296.75" y1="1507.1719" y2="1527.1719"/><polygon fill="#181818" points="292.75,1517.1719,296.75,1527.1719,300.75,1517.1719,296.75,1521.1719" style="stroke:#181818;stroke-width:1.0;"/><line style="stroke:#181818;stroke-width:1.0;" x1="690" x2="690" y1="494.9063" y2="579.5156"/><polygon fill="#181818" points="686,569.5156,690,579.5156,694,569.5156,690,573.5156" style="stroke:#181818;stroke-width:1.0;"/><line style="stroke:#181818;stroke-width:1.0;" x1="452.875" x2="296.75" y1="400.2031" y2="400.2031"/><line style="stroke:#181818;stroke-width:1.0;" x1="296.75" x2="296.75" y1="400.2031" y2="459.8125"/><polygon fill="#181818" points="292.75,449.8125,296.75,459.8125,300.75,449.8125,296.75,453.8125" style="stroke:#181818;stroke-width:1.0;"/><line style="stroke:#181818;stroke-width:1.0;" x1="533.875" x2="690" y1="400.2031" y2="400.2031"/><line style="stroke:#181818;stroke-width:1.0;" x1="690" x2="690" y1="400.2031" y2="459.8125"/><polygon fill="#181818" points="686,449.8125,690,459.8125,694,449.8125,690,453.8125" style="stroke:#181818;stroke-width:1.0;"/><line style="stroke:#181818;stroke-width:1.0;" x1="296.75" x2="296.75" y1="1790.5781" y2="1808.5781"/><line style="stroke:#181818;stroke-width:1.0;" x1="296.75" x2="481.375" y1="1808.5781" y2="1808.5781"/><polygon fill="#181818" points="471.375,1804.5781,481.375,1808.5781,471.375,1812.5781,475.375,1808.5781" style="stroke:#181818;stroke-width:1.0;"/><line style="stroke:#181818;stroke-width:1.0;" x1="690" x2="690" y1="614.6094" y2="1808.5781"/><line style="stroke:#181818;stroke-width:1.0;" x1="690" x2="505.375" y1="1808.5781" y2="1808.5781"/><polygon fill="#181818" points="515.375,1804.5781,505.375,1808.5781,515.375,1812.5781,511.375,1808.5781" style="stroke:#181818;stroke-width:1.0;"/><line style="stroke:#181818;stroke-width:1.0;" x1="493.375" x2="493.375" y1="356.2031" y2="388.2031"/><polygon fill="#181818" points="489.375,378.2031,493.375,388.2031,497.375,378.2031,493.375,382.2031" style="stroke:#181818;stroke-width:1.0;"/><line style="stroke:#181818;stroke-width:1.0;" x1="493.375" x2="493.375" y1="1820.5781" y2="1840.5781"/><polygon fill="#181818" points="489.375,1830.5781,493.375,1840.5781,497.375,1830.5781,493.375,1834.5781" style="stroke:#181818;stroke-width:1.0;"/><!--SRC=[dLN1Rjim3BtxAuYUKgpxWVOm11Ys5KilxIuxqhDY4v9bGQ9RP4F-VPHiPtPieybyY6FuaNnyZvIPs2ZO_c9w9Jx0PyBIOmqVuMlhMtXIXYfaUAOtFCXzcmTb0sLPOFISPKv-YQcnS1FnD_0d0xdkKt2jwhpL21KQhD62QKgo3rC0XbPhUTS6vItM2WfvS1Z2M-EBCLORqi1DdJS6TbsYuwJ-2mLMzOd1awgL9nrGCZ9sjQ6KJ2cEzh19MU0L3HMVRe4hPM7p4s-p5B_Is8XxP0uw4WvLtk30Tj8TYNfojoqyMjUUv5j09g4Oyq7fSqXgtv3Li5io17RAbXfT5tQSzJ0LfnT8z7Paelg3GsTP7vRHdcAj8F-uOJI05wA_OK7-3Xv_Y-mVu0KryLtoUsiShaJloR3oeemjIpGh8D5DcSxd2PVZfLxsK-xxzfUIn8b9O6b7-8jbFRK-Q3v2xvGUbvUKuc7Vf3JYHsAkuu88W8l8yR9yIJJ_eOwBxEO3CbDvh6yML6YHm2iRsPme7U93GIuE_goaCa71vWSLgA-LY6DGz0brEncBEiSAxRoKBMY_Q9oMNPELZvjBQIVxZYR-NSLjBFRtFdjQzp6h_vDy83livyefSfpBUvswYj6jRK4cjfyTPWR9pgftYiyzllmKSYeCNmaeyRJkbsxnoDc5BuvawIa6Rbps5m00]--></g></svg>