<?xml version="1.0" encoding="us-ascii" standalone="no"?><svg xmlns="http://www.w3.org/2000/svg" xmlns:xlink="http://www.w3.org/1999/xlink" contentStyleType="text/css" height="2392px" preserveAspectRatio="none" style="width:2116px;height:2392px;background:#FFFFFF;" version="1.1" viewBox="0 0 2116 2392" width="2116px" zoomAndPan="magnify"><defs/><g><text fill="#000000" font-family="sans-serif" font-size="14" font-weight="bold" lengthAdjust="spacing" textLength="318" x="897.5" y="34.5332">Activity Diagram - Guru Menginput Nilai Siswa</text><ellipse cx="1717.9375" cy="58.6094" fill="#222222" rx="10" ry="10" style="stroke:#222222;stroke-width:1.0;"/><rect fill="none" height="194.8906" style="stroke:#000000;stroke-width:1.5;" width="288" x="1573.9375" y="78.6094"/><path d="M1615.9375,78.6094 L1615.9375,89.2188 L1605.9375,99.2188 L1573.9375,99.2188 " fill="none" style="stroke:#000000;stroke-width:1.5;"/><text fill="#000000" font-family="sans-serif" font-size="14" lengthAdjust="spacing" textLength="32" x="1576.9375" y="94.1426">Guru</text><rect fill="#F1F1F1" height="35.0938" rx="12.5" ry="12.5" style="stroke:#181818;stroke-width:0.5;" width="188" x="1623.9375" y="116.2188"/><text fill="#000000" font-family="sans-serif" font-size="12" lengthAdjust="spacing" textLength="168" x="1633.9375" y="138.6758">Guru membuka halaman login</text><rect fill="#F1F1F1" height="35.0938" rx="12.5" ry="12.5" style="stroke:#181818;stroke-width:0.5;" width="268" x="1583.9375" y="171.3125"/><text fill="#000000" font-family="sans-serif" font-size="12" lengthAdjust="spacing" textLength="248" x="1593.9375" y="193.7695">Guru memasukkan username dan password</text><rect fill="#F1F1F1" height="35.0938" rx="12.5" ry="12.5" style="stroke:#181818;stroke-width:0.5;" width="143" x="1646.4375" y="226.4063"/><text fill="#000000" font-family="sans-serif" font-size="12" lengthAdjust="spacing" textLength="123" x="1656.4375" y="248.8633">Guru klik tombol Login</text><rect fill="none" height="84.7031" style="stroke:#000000;stroke-width:1.5;" width="186" x="1624.9375" y="283.5"/><path d="M1676.9375,283.5 L1676.9375,294.1094 L1666.9375,304.1094 L1624.9375,304.1094 " fill="none" style="stroke:#000000;stroke-width:1.5;"/><text fill="#000000" font-family="sans-serif" font-size="14" lengthAdjust="spacing" textLength="42" x="1627.9375" y="299.0332">Sistem</text><rect fill="#F1F1F1" height="35.0938" rx="12.5" ry="12.5" style="stroke:#181818;stroke-width:0.5;" width="166" x="1634.9375" y="321.1094"/><text fill="#000000" font-family="sans-serif" font-size="12" lengthAdjust="spacing" textLength="146" x="1644.9375" y="343.5664">Memeriksa data login guru</text><polygon fill="#F1F1F1" points="1689.4375,388.2031,1746.4375,388.2031,1758.4375,400.2031,1746.4375,412.2031,1689.4375,412.2031,1677.4375,400.2031,1689.4375,388.2031" style="stroke:#181818;stroke-width:0.5;"/><text fill="#000000" font-family="sans-serif" font-size="11" lengthAdjust="spacing" textLength="57" x="1689.4375" y="404.7041">Login valid?</text><text fill="#000000" font-family="sans-serif" font-size="11" lengthAdjust="spacing" textLength="14" x="1663.4375" y="397.7861">Ya</text><text fill="#000000" font-family="sans-serif" font-size="11" lengthAdjust="spacing" textLength="25" x="1758.4375" y="397.7861">Tidak</text><rect fill="none" height="154.7969" style="stroke:#000000;stroke-width:1.5;" width="208" x="1314.875" y="422.2031"/><path d="M1356.875,422.2031 L1356.875,432.8125 L1346.875,442.8125 L1314.875,442.8125 " fill="none" style="stroke:#000000;stroke-width:1.5;"/><text fill="#000000" font-family="sans-serif" font-size="14" lengthAdjust="spacing" textLength="32" x="1317.875" y="437.7363">Guru</text><rect fill="#F1F1F1" height="35.0938" rx="12.5" ry="12.5" style="stroke:#181818;stroke-width:0.5;" width="167" x="1335.375" y="459.8125"/><text fill="#000000" font-family="sans-serif" font-size="12" lengthAdjust="spacing" textLength="147" x="1345.375" y="482.2695">Guru masuk ke dashboard</text><rect fill="#F1F1F1" height="35.0938" rx="12.5" ry="12.5" style="stroke:#181818;stroke-width:0.5;" width="188" x="1324.875" y="521.9063"/><text fill="#000000" font-family="sans-serif" font-size="12" lengthAdjust="spacing" textLength="168" x="1334.875" y="544.3633">Guru memilih menu Input Nilai</text><rect fill="none" height="194.8906" style="stroke:#000000;stroke-width:1.5;" width="261" x="1288.375" y="612"/><path d="M1340.375,612 L1340.375,622.6094 L1330.375,632.6094 L1288.375,632.6094 " fill="none" style="stroke:#000000;stroke-width:1.5;"/><text fill="#000000" font-family="sans-serif" font-size="14" lengthAdjust="spacing" textLength="42" x="1291.375" y="627.5332">Sistem</text><rect fill="#F1F1F1" height="35.0938" rx="12.5" ry="12.5" style="stroke:#181818;stroke-width:0.5;" width="241" x="1298.375" y="649.6094"/><text fill="#000000" font-family="sans-serif" font-size="12" lengthAdjust="spacing" textLength="221" x="1308.375" y="672.0664">Menampilkan halaman Input Nilai Siswa</text><rect fill="#F1F1F1" height="35.0938" rx="12.5" ry="12.5" style="stroke:#181818;stroke-width:0.5;" width="184" x="1326.875" y="704.7031"/><text fill="#000000" font-family="sans-serif" font-size="12" lengthAdjust="spacing" textLength="164" x="1336.875" y="727.1602">Menampilkan total jadwal aktif</text><rect fill="#F1F1F1" height="35.0938" rx="12.5" ry="12.5" style="stroke:#181818;stroke-width:0.5;" width="176" x="1330.875" y="759.7969"/><text fill="#000000" font-family="sans-serif" font-size="12" lengthAdjust="spacing" textLength="156" x="1340.875" y="782.2539">Menampilkan total nilai input</text><polygon fill="#F1F1F1" points="1365.875,826.8906,1471.875,826.8906,1483.875,838.8906,1471.875,850.8906,1365.875,850.8906,1353.875,838.8906,1365.875,826.8906" style="stroke:#181818;stroke-width:0.5;"/><text fill="#000000" font-family="sans-serif" font-size="11" lengthAdjust="spacing" textLength="106" x="1365.875" y="843.3916">Jadwal aktif tersedia?</text><text fill="#000000" font-family="sans-serif" font-size="11" lengthAdjust="spacing" textLength="14" x="1339.875" y="836.4736">Ya</text><text fill="#000000" font-family="sans-serif" font-size="11" lengthAdjust="spacing" textLength="25" x="1483.875" y="836.4736">Tidak</text><rect fill="none" height="162.7969" style="stroke:#000000;stroke-width:1.5;" width="281" x="936.75" y="860.8906"/><path d="M988.75,860.8906 L988.75,871.5 L978.75,881.5 L936.75,881.5 " fill="none" style="stroke:#000000;stroke-width:1.5;"/><text fill="#000000" font-family="sans-serif" font-size="14" lengthAdjust="spacing" textLength="42" x="939.75" y="876.4238">Sistem</text><rect fill="#F1F1F1" height="35.0938" rx="12.5" ry="12.5" style="stroke:#181818;stroke-width:0.5;" width="178" x="988.25" y="898.5"/><text fill="#000000" font-family="sans-serif" font-size="12" lengthAdjust="spacing" textLength="158" x="998.25" y="920.957">Menampilkan form input nilai</text><rect fill="#F1F1F1" height="35.0938" rx="12.5" ry="12.5" style="stroke:#181818;stroke-width:0.5;" width="261" x="946.75" y="968.5938"/><text fill="#000000" font-family="sans-serif" font-size="12" lengthAdjust="spacing" textLength="241" x="956.75" y="991.0508">Menampilkan daftar nilai yang sudah diinput</text><rect fill="none" height="84.7031" style="stroke:#000000;stroke-width:1.5;" width="223" x="965.75" y="1058.6875"/><path d="M1007.75,1058.6875 L1007.75,1069.2969 L997.75,1079.2969 L965.75,1079.2969 " fill="none" style="stroke:#000000;stroke-width:1.5;"/><text fill="#000000" font-family="sans-serif" font-size="14" lengthAdjust="spacing" textLength="32" x="968.75" y="1074.2207">Guru</text><rect fill="#F1F1F1" height="35.0938" rx="12.5" ry="12.5" style="stroke:#181818;stroke-width:0.5;" width="203" x="975.75" y="1096.2969"/><text fill="#000000" font-family="sans-serif" font-size="12" lengthAdjust="spacing" textLength="183" x="985.75" y="1118.7539">Guru melihat form dan daftar nilai</text><polygon fill="#F1F1F1" points="1013.75,1163.3906,1140.75,1163.3906,1152.75,1175.3906,1140.75,1187.3906,1013.75,1187.3906,1001.75,1175.3906,1013.75,1163.3906" style="stroke:#181818;stroke-width:0.5;"/><text fill="#000000" font-family="sans-serif" font-size="11" lengthAdjust="spacing" textLength="127" x="1013.75" y="1179.8916">Guru ingin mengelola nilai?</text><text fill="#000000" font-family="sans-serif" font-size="11" lengthAdjust="spacing" textLength="14" x="987.75" y="1172.9736">Ya</text><text fill="#000000" font-family="sans-serif" font-size="11" lengthAdjust="spacing" textLength="25" x="1152.75" y="1172.9736">Tidak</text><rect fill="none" height="84.7031" style="stroke:#000000;stroke-width:1.5;" width="167" x="583.5" y="1197.3906"/><path d="M625.5,1197.3906 L625.5,1208 L615.5,1218 L583.5,1218 " fill="none" style="stroke:#000000;stroke-width:1.5;"/><text fill="#000000" font-family="sans-serif" font-size="14" lengthAdjust="spacing" textLength="32" x="586.5" y="1212.9238">Guru</text><rect fill="#F1F1F1" height="35.0938" rx="12.5" ry="12.5" style="stroke:#181818;stroke-width:0.5;" width="147" x="593.5" y="1235"/><text fill="#000000" font-family="sans-serif" font-size="12" lengthAdjust="spacing" textLength="127" x="603.5" y="1257.457">Guru memilih aksi nilai</text><polygon fill="#F1F1F1" points="625.5,1302.0938,708.5,1302.0938,720.5,1314.0938,708.5,1326.0938,625.5,1326.0938,613.5,1314.0938,625.5,1302.0938" style="stroke:#181818;stroke-width:0.5;"/><text fill="#000000" font-family="sans-serif" font-size="11" lengthAdjust="spacing" textLength="83" x="625.5" y="1318.5947">Aksi yang dipilih?</text><text fill="#000000" font-family="sans-serif" font-size="11" lengthAdjust="spacing" textLength="104" x="509.5" y="1311.6768">Tambah / Simpan Nilai</text><text fill="#000000" font-family="sans-serif" font-size="11" lengthAdjust="spacing" textLength="53" x="720.5" y="1311.6768">Hapus Nilai</text><rect fill="none" height="476.8125" style="stroke:#000000;stroke-width:1.5;" width="274" x="192" y="1336.0938"/><path d="M234,1336.0938 L234,1346.7031 L224,1356.7031 L192,1356.7031 " fill="none" style="stroke:#000000;stroke-width:1.5;"/><text fill="#000000" font-family="sans-serif" font-size="14" lengthAdjust="spacing" textLength="32" x="195" y="1351.627">Guru</text><rect fill="#F1F1F1" height="35.0938" rx="12.5" ry="12.5" style="stroke:#181818;stroke-width:0.5;" width="134" x="262" y="1373.7031"/><text fill="#000000" font-family="sans-serif" font-size="12" lengthAdjust="spacing" textLength="114" x="272" y="1396.1602">Guru memilih jadwal</text><rect fill="#F1F1F1" height="35.0938" rx="12.5" ry="12.5" style="stroke:#181818;stroke-width:0.5;" width="174" x="242" y="1428.7969"/><text fill="#000000" font-family="sans-serif" font-size="12" lengthAdjust="spacing" textLength="154" x="252" y="1451.2539">Guru mengisi pertemuan ke</text><rect fill="#F1F1F1" height="35.0938" rx="12.5" ry="12.5" style="stroke:#181818;stroke-width:0.5;" width="144" x="257" y="1490.8906"/><text fill="#000000" font-family="sans-serif" font-size="12" lengthAdjust="spacing" textLength="124" x="267" y="1513.3477">Guru memilih tipe nilai</text><rect fill="#F1F1F1" height="35.0938" rx="12.5" ry="12.5" style="stroke:#181818;stroke-width:0.5;" width="155" x="251.5" y="1560.9844"/><text fill="#000000" font-family="sans-serif" font-size="12" lengthAdjust="spacing" textLength="135" x="261.5" y="1583.4414">Guru mengisi nilai/score</text><rect fill="#F1F1F1" height="35.0938" rx="12.5" ry="12.5" style="stroke:#181818;stroke-width:0.5;" width="212" x="223" y="1623.5938"/><text fill="#000000" font-family="sans-serif" font-size="12" lengthAdjust="spacing" textLength="192" x="233" y="1646.0508">Guru mengisi catatan guru jika ada</text><rect fill="#F1F1F1" height="35.0938" rx="12.5" ry="12.5" style="stroke:#181818;stroke-width:0.5;" width="254" x="202" y="1693.6875"/><text fill="#000000" font-family="sans-serif" font-size="12" lengthAdjust="spacing" textLength="234" x="212" y="1716.1445">Guru mengisi catatan detail jika diperlukan</text><rect fill="#F1F1F1" height="35.0938" rx="12.5" ry="12.5" style="stroke:#181818;stroke-width:0.5;" width="183" x="237.5" y="1757.8125"/><text fill="#000000" font-family="sans-serif" font-size="12" lengthAdjust="spacing" textLength="163" x="247.5" y="1780.2695">Guru klik tombol Simpan Nilai</text><rect fill="none" height="86.125" style="stroke:#000000;stroke-width:1.5;" width="154" x="252" y="1847.9063"/><path d="M304,1847.9063 L304,1858.5156 L294,1868.5156 L252,1868.5156 " fill="none" style="stroke:#000000;stroke-width:1.5;"/><text fill="#000000" font-family="sans-serif" font-size="14" lengthAdjust="spacing" textLength="42" x="255" y="1863.4395">Sistem</text><rect fill="#F1F1F1" height="35.0938" rx="12.5" ry="12.5" style="stroke:#181818;stroke-width:0.5;" width="134" x="262" y="1885.5156"/><text fill="#000000" font-family="sans-serif" font-size="12" lengthAdjust="spacing" textLength="114" x="272" y="1907.9727">Memeriksa data nilai</text><polygon fill="#F1F1F1" points="292,1954.0313,366,1954.0313,378,1966.0313,366,1978.0313,292,1978.0313,280,1966.0313,292,1954.0313" style="stroke:#181818;stroke-width:0.5;"/><text fill="#000000" font-family="sans-serif" font-size="11" lengthAdjust="spacing" textLength="74" x="292" y="1970.5322">Data nilai valid?</text><text fill="#000000" font-family="sans-serif" font-size="11" lengthAdjust="spacing" textLength="14" x="266" y="1963.6143">Ya</text><text fill="#000000" font-family="sans-serif" font-size="11" lengthAdjust="spacing" textLength="25" x="378" y="1963.6143">Tidak</text><rect fill="none" height="201.8906" style="stroke:#000000;stroke-width:1.5;" width="308" x="11" y="1988.0313"/><path d="M63,1988.0313 L63,1998.6406 L53,2008.6406 L11,2008.6406 " fill="none" style="stroke:#000000;stroke-width:1.5;"/><text fill="#000000" font-family="sans-serif" font-size="14" lengthAdjust="spacing" textLength="42" x="14" y="2003.5645">Sistem</text><rect fill="#F1F1F1" height="35.0938" rx="12.5" ry="12.5" style="stroke:#181818;stroke-width:0.5;" width="145" x="92.5" y="2025.6406"/><text fill="#000000" font-family="sans-serif" font-size="12" lengthAdjust="spacing" textLength="125" x="102.5" y="2048.0977">Menyimpan nilai siswa</text><rect fill="#F1F1F1" height="35.0938" rx="12.5" ry="12.5" style="stroke:#181818;stroke-width:0.5;" width="180" x="75" y="2080.7344"/><text fill="#000000" font-family="sans-serif" font-size="12" lengthAdjust="spacing" textLength="160" x="85" y="2103.1914">Menampilkan pesan berhasil</text><rect fill="#F1F1F1" height="35.0938" rx="12.5" ry="12.5" style="stroke:#181818;stroke-width:0.5;" width="288" x="21" y="2142.8281"/><text fill="#000000" font-family="sans-serif" font-size="12" lengthAdjust="spacing" textLength="268" x="31" y="2165.2852">Menampilkan kembali halaman Input Nilai Siswa</text><rect fill="none" height="139.7969" style="stroke:#000000;stroke-width:1.5;" width="308" x="339" y="1988.0313"/><path d="M391,1988.0313 L391,1998.6406 L381,2008.6406 L339,2008.6406 " fill="none" style="stroke:#000000;stroke-width:1.5;"/><text fill="#000000" font-family="sans-serif" font-size="14" lengthAdjust="spacing" textLength="42" x="342" y="2003.5645">Sistem</text><rect fill="#F1F1F1" height="35.0938" rx="12.5" ry="12.5" style="stroke:#181818;stroke-width:0.5;" width="161" x="412.5" y="2025.6406"/><text fill="#000000" font-family="sans-serif" font-size="12" lengthAdjust="spacing" textLength="141" x="422.5" y="2048.0977">Menampilkan pesan error</text><rect fill="#F1F1F1" height="35.0938" rx="12.5" ry="12.5" style="stroke:#181818;stroke-width:0.5;" width="288" x="349" y="2080.7344"/><text fill="#000000" font-family="sans-serif" font-size="12" lengthAdjust="spacing" textLength="268" x="359" y="2103.1914">Menampilkan kembali halaman Input Nilai Siswa</text><polygon fill="#F1F1F1" points="329,2195.9219,341,2207.9219,329,2219.9219,317,2207.9219,329,2195.9219" style="stroke:#181818;stroke-width:0.5;"/><rect fill="none" height="139.7969" style="stroke:#000000;stroke-width:1.5;" width="275" x="867.5" y="1336.0938"/><path d="M909.5,1336.0938 L909.5,1346.7031 L899.5,1356.7031 L867.5,1356.7031 " fill="none" style="stroke:#000000;stroke-width:1.5;"/><text fill="#000000" font-family="sans-serif" font-size="14" lengthAdjust="spacing" textLength="32" x="870.5" y="1351.627">Guru</text><rect fill="#F1F1F1" height="35.0938" rx="12.5" ry="12.5" style="stroke:#181818;stroke-width:0.5;" width="255" x="877.5" y="1373.7031"/><text fill="#000000" font-family="sans-serif" font-size="12" lengthAdjust="spacing" textLength="235" x="887.5" y="1396.1602">Guru memilih data nilai yang akan dihapus</text><rect fill="#F1F1F1" height="35.0938" rx="12.5" ry="12.5" style="stroke:#181818;stroke-width:0.5;" width="198" x="906" y="1428.7969"/><text fill="#000000" font-family="sans-serif" font-size="12" lengthAdjust="spacing" textLength="178" x="916" y="1451.2539">Guru mengonfirmasi hapus nilai</text><rect fill="none" height="92.7031" style="stroke:#000000;stroke-width:1.5;" width="219" x="895.5" y="1510.8906"/><path d="M947.5,1510.8906 L947.5,1521.5 L937.5,1531.5 L895.5,1531.5 " fill="none" style="stroke:#000000;stroke-width:1.5;"/><text fill="#000000" font-family="sans-serif" font-size="14" lengthAdjust="spacing" textLength="42" x="898.5" y="1526.4238">Sistem</text><rect fill="#F1F1F1" height="35.0938" rx="12.5" ry="12.5" style="stroke:#181818;stroke-width:0.5;" width="199" x="905.5" y="1548.5"/><text fill="#000000" font-family="sans-serif" font-size="12" lengthAdjust="spacing" textLength="179" x="915.5" y="1570.957">Memeriksa data nilai yang dipilih</text><polygon fill="#F1F1F1" points="945,1631.1094,1065,1631.1094,1077,1643.1094,1065,1655.1094,945,1655.1094,933,1643.1094,945,1631.1094" style="stroke:#181818;stroke-width:0.5;"/><text fill="#000000" font-family="sans-serif" font-size="11" lengthAdjust="spacing" textLength="120" x="945" y="1647.6104">Data nilai dapat dihapus?</text><text fill="#000000" font-family="sans-serif" font-size="11" lengthAdjust="spacing" textLength="14" x="919" y="1640.6924">Ya</text><text fill="#000000" font-family="sans-serif" font-size="11" lengthAdjust="spacing" textLength="25" x="1077" y="1640.6924">Tidak</text><rect fill="none" height="226.9219" style="stroke:#000000;stroke-width:1.5;" width="308" x="687" y="1665.1094"/><path d="M739,1665.1094 L739,1675.7188 L729,1685.7188 L687,1685.7188 " fill="none" style="stroke:#000000;stroke-width:1.5;"/><text fill="#000000" font-family="sans-serif" font-size="14" lengthAdjust="spacing" textLength="42" x="690" y="1680.6426">Sistem</text><rect fill="#F1F1F1" height="35.0938" rx="12.5" ry="12.5" style="stroke:#181818;stroke-width:0.5;" width="138" x="772" y="1702.7188"/><text fill="#000000" font-family="sans-serif" font-size="12" lengthAdjust="spacing" textLength="118" x="782" y="1725.1758">Menghapus data nilai</text><rect fill="#F1F1F1" height="35.0938" rx="12.5" ry="12.5" style="stroke:#181818;stroke-width:0.5;" width="180" x="751" y="1766.8438"/><text fill="#000000" font-family="sans-serif" font-size="12" lengthAdjust="spacing" textLength="160" x="761" y="1789.3008">Menampilkan pesan berhasil</text><rect fill="#F1F1F1" height="35.0938" rx="12.5" ry="12.5" style="stroke:#181818;stroke-width:0.5;" width="288" x="697" y="1836.9375"/><text fill="#000000" font-family="sans-serif" font-size="12" lengthAdjust="spacing" textLength="268" x="707" y="1859.3945">Menampilkan kembali halaman Input Nilai Siswa</text><rect fill="none" height="156.8281" style="stroke:#000000;stroke-width:1.5;" width="308" x="1015" y="1665.1094"/><path d="M1067,1665.1094 L1067,1675.7188 L1057,1685.7188 L1015,1685.7188 " fill="none" style="stroke:#000000;stroke-width:1.5;"/><text fill="#000000" font-family="sans-serif" font-size="14" lengthAdjust="spacing" textLength="42" x="1018" y="1680.6426">Sistem</text><rect fill="#F1F1F1" height="35.0938" rx="12.5" ry="12.5" style="stroke:#181818;stroke-width:0.5;" width="161" x="1088.5" y="1702.7188"/><text fill="#000000" font-family="sans-serif" font-size="12" lengthAdjust="spacing" textLength="141" x="1098.5" y="1725.1758">Menampilkan pesan error</text><rect fill="#F1F1F1" height="35.0938" rx="12.5" ry="12.5" style="stroke:#181818;stroke-width:0.5;" width="288" x="1025" y="1766.8438"/><text fill="#000000" font-family="sans-serif" font-size="12" lengthAdjust="spacing" textLength="268" x="1035" y="1789.3008">Menampilkan kembali halaman Input Nilai Siswa</text><polygon fill="#F1F1F1" points="1005,1898.0313,1017,1910.0313,1005,1922.0313,993,1910.0313,1005,1898.0313" style="stroke:#181818;stroke-width:0.5;"/><polygon fill="#F1F1F1" points="667,2225.9219,679,2237.9219,667,2249.9219,655,2237.9219,667,2225.9219" style="stroke:#181818;stroke-width:0.5;"/><rect fill="none" height="84.7031" style="stroke:#000000;stroke-width:1.5;" width="249" x="1363" y="1197.3906"/><path d="M1405,1197.3906 L1405,1208 L1395,1218 L1363,1218 " fill="none" style="stroke:#000000;stroke-width:1.5;"/><text fill="#000000" font-family="sans-serif" font-size="14" lengthAdjust="spacing" textLength="32" x="1366" y="1212.9238">Guru</text><rect fill="#F1F1F1" height="35.0938" rx="12.5" ry="12.5" style="stroke:#181818;stroke-width:0.5;" width="229" x="1373" y="1235"/><text fill="#000000" font-family="sans-serif" font-size="12" lengthAdjust="spacing" textLength="209" x="1383" y="1257.457">Guru tidak melakukan perubahan nilai</text><polygon fill="#F1F1F1" points="1077.25,2255.9219,1089.25,2267.9219,1077.25,2279.9219,1065.25,2267.9219,1077.25,2255.9219" style="stroke:#181818;stroke-width:0.5;"/><rect fill="none" height="107.7969" style="stroke:#000000;stroke-width:1.5;" width="237" x="1642" y="860.8906"/><path d="M1694,860.8906 L1694,871.5 L1684,881.5 L1642,881.5 " fill="none" style="stroke:#000000;stroke-width:1.5;"/><text fill="#000000" font-family="sans-serif" font-size="14" lengthAdjust="spacing" textLength="42" x="1645" y="876.4238">Sistem</text><rect fill="#F1F1F1" height="50.1875" rx="12.5" ry="12.5" style="stroke:#181818;stroke-width:0.5;" width="217" x="1652" y="898.5"/><text fill="#000000" font-family="sans-serif" font-size="12" lengthAdjust="spacing" textLength="197" x="1662" y="920.957">Menampilkan informasi bahwa guru</text><text fill="#000000" font-family="sans-serif" font-size="12" lengthAdjust="spacing" textLength="149" x="1662" y="936.0508">belum memiliki jadwal aktif</text><rect fill="none" height="92.7031" style="stroke:#000000;stroke-width:1.5;" width="218" x="1651.5" y="1003.6875"/><path d="M1693.5,1003.6875 L1693.5,1014.2969 L1683.5,1024.2969 L1651.5,1024.2969 " fill="none" style="stroke:#000000;stroke-width:1.5;"/><text fill="#000000" font-family="sans-serif" font-size="14" lengthAdjust="spacing" textLength="32" x="1654.5" y="1019.2207">Guru</text><rect fill="#F1F1F1" height="35.0938" rx="12.5" ry="12.5" style="stroke:#181818;stroke-width:0.5;" width="198" x="1661.5" y="1041.2969"/><text fill="#000000" font-family="sans-serif" font-size="12" lengthAdjust="spacing" textLength="178" x="1671.5" y="1063.7539">Guru tidak dapat menginput nilai</text><polygon fill="#F1F1F1" points="1418.875,2285.9219,1430.875,2297.9219,1418.875,2309.9219,1406.875,2297.9219,1418.875,2285.9219" style="stroke:#181818;stroke-width:0.5;"/><rect fill="none" height="84.7031" style="stroke:#000000;stroke-width:1.5;" width="216" x="1889" y="422.2031"/><path d="M1941,422.2031 L1941,432.8125 L1931,442.8125 L1889,442.8125 " fill="none" style="stroke:#000000;stroke-width:1.5;"/><text fill="#000000" font-family="sans-serif" font-size="14" lengthAdjust="spacing" textLength="42" x="1892" y="437.7363">Sistem</text><rect fill="#F1F1F1" height="35.0938" rx="12.5" ry="12.5" style="stroke:#181818;stroke-width:0.5;" width="196" x="1899" y="459.8125"/><text fill="#000000" font-family="sans-serif" font-size="12" lengthAdjust="spacing" textLength="176" x="1909" y="482.2695">Menampilkan pesan login gagal</text><rect fill="none" height="92.7031" style="stroke:#000000;stroke-width:1.5;" width="212" x="1891" y="541.9063"/><path d="M1933,541.9063 L1933,552.5156 L1923,562.5156 L1891,562.5156 " fill="none" style="stroke:#000000;stroke-width:1.5;"/><text fill="#000000" font-family="sans-serif" font-size="14" lengthAdjust="spacing" textLength="32" x="1894" y="557.4395">Guru</text><rect fill="#F1F1F1" height="35.0938" rx="12.5" ry="12.5" style="stroke:#181818;stroke-width:0.5;" width="192" x="1901" y="579.5156"/><text fill="#000000" font-family="sans-serif" font-size="12" lengthAdjust="spacing" textLength="172" x="1911" y="601.9727">Guru kembali ke halaman login</text><polygon fill="#F1F1F1" points="1717.9375,2315.9219,1729.9375,2327.9219,1717.9375,2339.9219,1705.9375,2327.9219,1717.9375,2315.9219" style="stroke:#181818;stroke-width:0.5;"/><ellipse cx="1717.9375" cy="2370.9219" fill="none" rx="11" ry="11" style="stroke:#222222;stroke-width:1.0;"/><ellipse cx="1717.9375" cy="2370.9219" fill="#222222" rx="6" ry="6" style="stroke:#222222;stroke-width:1.0;"/><line style="stroke:#181818;stroke-width:1.0;" x1="1717.9375" x2="1717.9375" y1="151.3125" y2="171.3125"/><polygon fill="#181818" points="1713.9375,161.3125,1717.9375,171.3125,1721.9375,161.3125,1717.9375,165.3125" style="stroke:#181818;stroke-width:1.0;"/><line style="stroke:#181818;stroke-width:1.0;" x1="1717.9375" x2="1717.9375" y1="206.4063" y2="226.4063"/><polygon fill="#181818" points="1713.9375,216.4063,1717.9375,226.4063,1721.9375,216.4063,1717.9375,220.4063" style="stroke:#181818;stroke-width:1.0;"/><line style="stroke:#181818;stroke-width:1.0;" x1="1717.9375" x2="1717.9375" y1="68.6094" y2="116.2188"/><polygon fill="#181818" points="1713.9375,106.2188,1717.9375,116.2188,1721.9375,106.2188,1717.9375,110.2188" style="stroke:#181818;stroke-width:1.0;"/><line style="stroke:#181818;stroke-width:1.0;" x1="1717.9375" x2="1717.9375" y1="261.5" y2="321.1094"/><polygon fill="#181818" points="1713.9375,311.1094,1717.9375,321.1094,1721.9375,311.1094,1717.9375,315.1094" style="stroke:#181818;stroke-width:1.0;"/><line style="stroke:#181818;stroke-width:1.0;" x1="1418.875" x2="1418.875" y1="494.9063" y2="521.9063"/><polygon fill="#181818" points="1414.875,511.9063,1418.875,521.9063,1422.875,511.9063,1418.875,515.9063" style="stroke:#181818;stroke-width:1.0;"/><line style="stroke:#181818;stroke-width:1.0;" x1="1418.875" x2="1418.875" y1="684.7031" y2="704.7031"/><polygon fill="#181818" points="1414.875,694.7031,1418.875,704.7031,1422.875,694.7031,1418.875,698.7031" style="stroke:#181818;stroke-width:1.0;"/><line style="stroke:#181818;stroke-width:1.0;" x1="1418.875" x2="1418.875" y1="739.7969" y2="759.7969"/><polygon fill="#181818" points="1414.875,749.7969,1418.875,759.7969,1422.875,749.7969,1418.875,753.7969" style="stroke:#181818;stroke-width:1.0;"/><line style="stroke:#181818;stroke-width:1.0;" x1="1418.875" x2="1418.875" y1="557" y2="649.6094"/><polygon fill="#181818" points="1414.875,639.6094,1418.875,649.6094,1422.875,639.6094,1418.875,643.6094" style="stroke:#181818;stroke-width:1.0;"/><line style="stroke:#181818;stroke-width:1.0;" x1="1077.25" x2="1077.25" y1="933.5938" y2="968.5938"/><polygon fill="#181818" points="1073.25,958.5938,1077.25,968.5938,1081.25,958.5938,1077.25,962.5938" style="stroke:#181818;stroke-width:1.0;"/><line style="stroke:#181818;stroke-width:1.0;" x1="1077.25" x2="1077.25" y1="1003.6875" y2="1096.2969"/><polygon fill="#181818" points="1073.25,1086.2969,1077.25,1096.2969,1081.25,1086.2969,1077.25,1090.2969" style="stroke:#181818;stroke-width:1.0;"/><line style="stroke:#181818;stroke-width:1.0;" x1="329" x2="329" y1="1408.7969" y2="1428.7969"/><polygon fill="#181818" points="325,1418.7969,329,1428.7969,333,1418.7969,329,1422.7969" style="stroke:#181818;stroke-width:1.0;"/><line style="stroke:#181818;stroke-width:1.0;" x1="329" x2="329" y1="1463.8906" y2="1490.8906"/><polygon fill="#181818" points="325,1480.8906,329,1490.8906,333,1480.8906,329,1484.8906" style="stroke:#181818;stroke-width:1.0;"/><line style="stroke:#181818;stroke-width:1.0;" x1="329" x2="329" y1="1525.9844" y2="1560.9844"/><polygon fill="#181818" points="325,1550.9844,329,1560.9844,333,1550.9844,329,1554.9844" style="stroke:#181818;stroke-width:1.0;"/><line style="stroke:#181818;stroke-width:1.0;" x1="329" x2="329" y1="1596.0781" y2="1623.5938"/><polygon fill="#181818" points="325,1613.5938,329,1623.5938,333,1613.5938,329,1617.5938" style="stroke:#181818;stroke-width:1.0;"/><line style="stroke:#181818;stroke-width:1.0;" x1="329" x2="329" y1="1658.6875" y2="1693.6875"/><polygon fill="#181818" points="325,1683.6875,329,1693.6875,333,1683.6875,329,1687.6875" style="stroke:#181818;stroke-width:1.0;"/><line style="stroke:#181818;stroke-width:1.0;" x1="329" x2="329" y1="1728.7813" y2="1757.8125"/><polygon fill="#181818" points="325,1747.8125,329,1757.8125,333,1747.8125,329,1751.8125" style="stroke:#181818;stroke-width:1.0;"/><line style="stroke:#181818;stroke-width:1.0;" x1="329" x2="329" y1="1792.9063" y2="1885.5156"/><polygon fill="#181818" points="325,1875.5156,329,1885.5156,333,1875.5156,329,1879.5156" style="stroke:#181818;stroke-width:1.0;"/><line style="stroke:#181818;stroke-width:1.0;" x1="165" x2="165" y1="2060.7344" y2="2080.7344"/><polygon fill="#181818" points="161,2070.7344,165,2080.7344,169,2070.7344,165,2074.7344" style="stroke:#181818;stroke-width:1.0;"/><line style="stroke:#181818;stroke-width:1.0;" x1="165" x2="165" y1="2115.8281" y2="2142.8281"/><polygon fill="#181818" points="161,2132.8281,165,2142.8281,169,2132.8281,165,2136.8281" style="stroke:#181818;stroke-width:1.0;"/><line style="stroke:#181818;stroke-width:1.0;" x1="493" x2="493" y1="2060.7344" y2="2080.7344"/><polygon fill="#181818" points="489,2070.7344,493,2080.7344,497,2070.7344,493,2074.7344" style="stroke:#181818;stroke-width:1.0;"/><line style="stroke:#181818;stroke-width:1.0;" x1="280" x2="165" y1="1966.0313" y2="1966.0313"/><line style="stroke:#181818;stroke-width:1.0;" x1="165" x2="165" y1="1966.0313" y2="2025.6406"/><polygon fill="#181818" points="161,2015.6406,165,2025.6406,169,2015.6406,165,2019.6406" style="stroke:#181818;stroke-width:1.0;"/><line style="stroke:#181818;stroke-width:1.0;" x1="378" x2="493" y1="1966.0313" y2="1966.0313"/><line style="stroke:#181818;stroke-width:1.0;" x1="493" x2="493" y1="1966.0313" y2="2025.6406"/><polygon fill="#181818" points="489,2015.6406,493,2025.6406,497,2015.6406,493,2019.6406" style="stroke:#181818;stroke-width:1.0;"/><line style="stroke:#181818;stroke-width:1.0;" x1="165" x2="165" y1="2177.9219" y2="2207.9219"/><line style="stroke:#181818;stroke-width:1.0;" x1="165" x2="317" y1="2207.9219" y2="2207.9219"/><polygon fill="#181818" points="307,2203.9219,317,2207.9219,307,2211.9219,311,2207.9219" style="stroke:#181818;stroke-width:1.0;"/><line style="stroke:#181818;stroke-width:1.0;" x1="493" x2="493" y1="2115.8281" y2="2207.9219"/><line style="stroke:#181818;stroke-width:1.0;" x1="493" x2="341" y1="2207.9219" y2="2207.9219"/><polygon fill="#181818" points="351,2203.9219,341,2207.9219,351,2211.9219,347,2207.9219" style="stroke:#181818;stroke-width:1.0;"/><line style="stroke:#181818;stroke-width:1.0;" x1="329" x2="329" y1="1920.6094" y2="1954.0313"/><polygon fill="#181818" points="325,1944.0313,329,1954.0313,333,1944.0313,329,1948.0313" style="stroke:#181818;stroke-width:1.0;"/><line style="stroke:#181818;stroke-width:1.0;" x1="1005" x2="1005" y1="1408.7969" y2="1428.7969"/><polygon fill="#181818" points="1001,1418.7969,1005,1428.7969,1009,1418.7969,1005,1422.7969" style="stroke:#181818;stroke-width:1.0;"/><line style="stroke:#181818;stroke-width:1.0;" x1="1005" x2="1005" y1="1463.8906" y2="1548.5"/><polygon fill="#181818" points="1001,1538.5,1005,1548.5,1009,1538.5,1005,1542.5" style="stroke:#181818;stroke-width:1.0;"/><line style="stroke:#181818;stroke-width:1.0;" x1="841" x2="841" y1="1737.8125" y2="1766.8438"/><polygon fill="#181818" points="837,1756.8438,841,1766.8438,845,1756.8438,841,1760.8438" style="stroke:#181818;stroke-width:1.0;"/><line style="stroke:#181818;stroke-width:1.0;" x1="841" x2="841" y1="1801.9375" y2="1836.9375"/><polygon fill="#181818" points="837,1826.9375,841,1836.9375,845,1826.9375,841,1830.9375" style="stroke:#181818;stroke-width:1.0;"/><line style="stroke:#181818;stroke-width:1.0;" x1="1169" x2="1169" y1="1737.8125" y2="1766.8438"/><polygon fill="#181818" points="1165,1756.8438,1169,1766.8438,1173,1756.8438,1169,1760.8438" style="stroke:#181818;stroke-width:1.0;"/><line style="stroke:#181818;stroke-width:1.0;" x1="933" x2="841" y1="1643.1094" y2="1643.1094"/><line style="stroke:#181818;stroke-width:1.0;" x1="841" x2="841" y1="1643.1094" y2="1702.7188"/><polygon fill="#181818" points="837,1692.7188,841,1702.7188,845,1692.7188,841,1696.7188" style="stroke:#181818;stroke-width:1.0;"/><line style="stroke:#181818;stroke-width:1.0;" x1="1077" x2="1169" y1="1643.1094" y2="1643.1094"/><line style="stroke:#181818;stroke-width:1.0;" x1="1169" x2="1169" y1="1643.1094" y2="1702.7188"/><polygon fill="#181818" points="1165,1692.7188,1169,1702.7188,1173,1692.7188,1169,1696.7188" style="stroke:#181818;stroke-width:1.0;"/><line style="stroke:#181818;stroke-width:1.0;" x1="841" x2="841" y1="1872.0313" y2="1910.0313"/><line style="stroke:#181818;stroke-width:1.0;" x1="841" x2="993" y1="1910.0313" y2="1910.0313"/><polygon fill="#181818" points="983,1906.0313,993,1910.0313,983,1914.0313,987,1910.0313" style="stroke:#181818;stroke-width:1.0;"/><line style="stroke:#181818;stroke-width:1.0;" x1="1169" x2="1169" y1="1801.9375" y2="1910.0313"/><line style="stroke:#181818;stroke-width:1.0;" x1="1169" x2="1017" y1="1910.0313" y2="1910.0313"/><polygon fill="#181818" points="1027,1906.0313,1017,1910.0313,1027,1914.0313,1023,1910.0313" style="stroke:#181818;stroke-width:1.0;"/><line style="stroke:#181818;stroke-width:1.0;" x1="1005" x2="1005" y1="1583.5938" y2="1631.1094"/><polygon fill="#181818" points="1001,1621.1094,1005,1631.1094,1009,1621.1094,1005,1625.1094" style="stroke:#181818;stroke-width:1.0;"/><line style="stroke:#181818;stroke-width:1.0;" x1="613.5" x2="329" y1="1314.0938" y2="1314.0938"/><line style="stroke:#181818;stroke-width:1.0;" x1="329" x2="329" y1="1314.0938" y2="1373.7031"/><polygon fill="#181818" points="325,1363.7031,329,1373.7031,333,1363.7031,329,1367.7031" style="stroke:#181818;stroke-width:1.0;"/><line style="stroke:#181818;stroke-width:1.0;" x1="720.5" x2="1005" y1="1314.0938" y2="1314.0938"/><line style="stroke:#181818;stroke-width:1.0;" x1="1005" x2="1005" y1="1314.0938" y2="1373.7031"/><polygon fill="#181818" points="1001,1363.7031,1005,1373.7031,1009,1363.7031,1005,1367.7031" style="stroke:#181818;stroke-width:1.0;"/><line style="stroke:#181818;stroke-width:1.0;" x1="329" x2="329" y1="2219.9219" y2="2237.9219"/><line style="stroke:#181818;stroke-width:1.0;" x1="329" x2="655" y1="2237.9219" y2="2237.9219"/><polygon fill="#181818" points="645,2233.9219,655,2237.9219,645,2241.9219,649,2237.9219" style="stroke:#181818;stroke-width:1.0;"/><line style="stroke:#181818;stroke-width:1.0;" x1="1005" x2="1005" y1="1922.0313" y2="2237.9219"/><line style="stroke:#181818;stroke-width:1.0;" x1="1005" x2="679" y1="2237.9219" y2="2237.9219"/><polygon fill="#181818" points="689,2233.9219,679,2237.9219,689,2241.9219,685,2237.9219" style="stroke:#181818;stroke-width:1.0;"/><line style="stroke:#181818;stroke-width:1.0;" x1="667" x2="667" y1="1270.0938" y2="1302.0938"/><polygon fill="#181818" points="663,1292.0938,667,1302.0938,671,1292.0938,667,1296.0938" style="stroke:#181818;stroke-width:1.0;"/><line style="stroke:#181818;stroke-width:1.0;" x1="1001.75" x2="667" y1="1175.3906" y2="1175.3906"/><line style="stroke:#181818;stroke-width:1.0;" x1="667" x2="667" y1="1175.3906" y2="1235"/><polygon fill="#181818" points="663,1225,667,1235,671,1225,667,1229" style="stroke:#181818;stroke-width:1.0;"/><line style="stroke:#181818;stroke-width:1.0;" x1="1152.75" x2="1487.5" y1="1175.3906" y2="1175.3906"/><line style="stroke:#181818;stroke-width:1.0;" x1="1487.5" x2="1487.5" y1="1175.3906" y2="1235"/><polygon fill="#181818" points="1483.5,1225,1487.5,1235,1491.5,1225,1487.5,1229" style="stroke:#181818;stroke-width:1.0;"/><line style="stroke:#181818;stroke-width:1.0;" x1="667" x2="667" y1="2249.9219" y2="2267.9219"/><line style="stroke:#181818;stroke-width:1.0;" x1="667" x2="1065.25" y1="2267.9219" y2="2267.9219"/><polygon fill="#181818" points="1055.25,2263.9219,1065.25,2267.9219,1055.25,2271.9219,1059.25,2267.9219" style="stroke:#181818;stroke-width:1.0;"/><line style="stroke:#181818;stroke-width:1.0;" x1="1487.5" x2="1487.5" y1="1270.0938" y2="2267.9219"/><line style="stroke:#181818;stroke-width:1.0;" x1="1487.5" x2="1089.25" y1="2267.9219" y2="2267.9219"/><polygon fill="#181818" points="1099.25,2263.9219,1089.25,2267.9219,1099.25,2271.9219,1095.25,2267.9219" style="stroke:#181818;stroke-width:1.0;"/><line style="stroke:#181818;stroke-width:1.0;" x1="1077.25" x2="1077.25" y1="1131.3906" y2="1163.3906"/><polygon fill="#181818" points="1073.25,1153.3906,1077.25,1163.3906,1081.25,1153.3906,1077.25,1157.3906" style="stroke:#181818;stroke-width:1.0;"/><line style="stroke:#181818;stroke-width:1.0;" x1="1760.5" x2="1760.5" y1="948.6875" y2="1041.2969"/><polygon fill="#181818" points="1756.5,1031.2969,1760.5,1041.2969,1764.5,1031.2969,1760.5,1035.2969" style="stroke:#181818;stroke-width:1.0;"/><line style="stroke:#181818;stroke-width:1.0;" x1="1353.875" x2="1077.25" y1="838.8906" y2="838.8906"/><line style="stroke:#181818;stroke-width:1.0;" x1="1077.25" x2="1077.25" y1="838.8906" y2="898.5"/><polygon fill="#181818" points="1073.25,888.5,1077.25,898.5,1081.25,888.5,1077.25,892.5" style="stroke:#181818;stroke-width:1.0;"/><line style="stroke:#181818;stroke-width:1.0;" x1="1483.875" x2="1760.5" y1="838.8906" y2="838.8906"/><line style="stroke:#181818;stroke-width:1.0;" x1="1760.5" x2="1760.5" y1="838.8906" y2="898.5"/><polygon fill="#181818" points="1756.5,888.5,1760.5,898.5,1764.5,888.5,1760.5,892.5" style="stroke:#181818;stroke-width:1.0;"/><line style="stroke:#181818;stroke-width:1.0;" x1="1077.25" x2="1077.25" y1="2279.9219" y2="2297.9219"/><line style="stroke:#181818;stroke-width:1.0;" x1="1077.25" x2="1406.875" y1="2297.9219" y2="2297.9219"/><polygon fill="#181818" points="1396.875,2293.9219,1406.875,2297.9219,1396.875,2301.9219,1400.875,2297.9219" style="stroke:#181818;stroke-width:1.0;"/><line style="stroke:#181818;stroke-width:1.0;" x1="1760.5" x2="1760.5" y1="1076.3906" y2="2297.9219"/><line style="stroke:#181818;stroke-width:1.0;" x1="1760.5" x2="1430.875" y1="2297.9219" y2="2297.9219"/><polygon fill="#181818" points="1440.875,2293.9219,1430.875,2297.9219,1440.875,2301.9219,1436.875,2297.9219" style="stroke:#181818;stroke-width:1.0;"/><line style="stroke:#181818;stroke-width:1.0;" x1="1418.875" x2="1418.875" y1="794.8906" y2="826.8906"/><polygon fill="#181818" points="1414.875,816.8906,1418.875,826.8906,1422.875,816.8906,1418.875,820.8906" style="stroke:#181818;stroke-width:1.0;"/><line style="stroke:#181818;stroke-width:1.0;" x1="1997" x2="1997" y1="494.9063" y2="579.5156"/><polygon fill="#181818" points="1993,569.5156,1997,579.5156,2001,569.5156,1997,573.5156" style="stroke:#181818;stroke-width:1.0;"/><line style="stroke:#181818;stroke-width:1.0;" x1="1677.4375" x2="1418.875" y1="400.2031" y2="400.2031"/><line style="stroke:#181818;stroke-width:1.0;" x1="1418.875" x2="1418.875" y1="400.2031" y2="459.8125"/><polygon fill="#181818" points="1414.875,449.8125,1418.875,459.8125,1422.875,449.8125,1418.875,453.8125" style="stroke:#181818;stroke-width:1.0;"/><line style="stroke:#181818;stroke-width:1.0;" x1="1758.4375" x2="1997" y1="400.2031" y2="400.2031"/><line style="stroke:#181818;stroke-width:1.0;" x1="1997" x2="1997" y1="400.2031" y2="459.8125"/><polygon fill="#181818" points="1993,449.8125,1997,459.8125,2001,449.8125,1997,453.8125" style="stroke:#181818;stroke-width:1.0;"/><line style="stroke:#181818;stroke-width:1.0;" x1="1418.875" x2="1418.875" y1="2309.9219" y2="2327.9219"/><line style="stroke:#181818;stroke-width:1.0;" x1="1418.875" x2="1705.9375" y1="2327.9219" y2="2327.9219"/><polygon fill="#181818" points="1695.9375,2323.9219,1705.9375,2327.9219,1695.9375,2331.9219,1699.9375,2327.9219" style="stroke:#181818;stroke-width:1.0;"/><line style="stroke:#181818;stroke-width:1.0;" x1="1997" x2="1997" y1="614.6094" y2="2327.9219"/><line style="stroke:#181818;stroke-width:1.0;" x1="1997" x2="1729.9375" y1="2327.9219" y2="2327.9219"/><polygon fill="#181818" points="1739.9375,2323.9219,1729.9375,2327.9219,1739.9375,2331.9219,1735.9375,2327.9219" style="stroke:#181818;stroke-width:1.0;"/><line style="stroke:#181818;stroke-width:1.0;" x1="1717.9375" x2="1717.9375" y1="356.2031" y2="388.2031"/><polygon fill="#181818" points="1713.9375,378.2031,1717.9375,388.2031,1721.9375,378.2031,1717.9375,382.2031" style="stroke:#181818;stroke-width:1.0;"/><line style="stroke:#181818;stroke-width:1.0;" x1="1717.9375" x2="1717.9375" y1="2339.9219" y2="2359.9219"/><polygon fill="#181818" points="1713.9375,2349.9219,1717.9375,2359.9219,1721.9375,2349.9219,1717.9375,2353.9219" style="stroke:#181818;stroke-width:1.0;"/><!--SRC=[xLSxRzim4DxrAmwPag78NWz5W01jWgPBktGyXxHyuKC27p62ml-zHr5sH4jsb218btgGOVaUttSl7WC5BU7gFj0ZXIUu9gmT6lW4NwEBS2TjJRQD0NwGHeAVv3TOLJwW2rNLyfC2DHREalGP_Ac0FvyxLIFDCYg4DMeqQ44tR6bH2g2FIl5_qKjdqKWG_AD5xpUD4qDPfKb1QCooqV0z6zeM_XbOa6QFu4uQwKXvP8i1is-esLAdHoiuxwp08seINouWhAM5yzzuKNNwHuWDi2Vae19Wlrusk4DRi2DDQ_ws4MwUGvZbjYC_9O6U1CUa9PqYj8lYpM4o5jFoeGceuG75XhzG1LgT5BITmIxJ1S0KgTk14GZIUIa8np5xaS_8zQfn9llC_XV7HGMkkEHwc4zeQ_1Hu1e43J0FSB-Gn66QE4aOCXPnu6dIR0f9fqgfDL9-QwaRZLbbEYupu8mh1vMdgS1iIxi9prKIxS8Yg4tAUnY_q2mvJfTSBAPbUbtb722RYMwCC9VNugGa1ucnjT9nDKG6eEHYXkL0hPpYFcsz4xpqzusJSyJlUIG4pFC07eXd50fyZQAG0KbdLGwuT9e7dJrbOJY_XfaOwsnFvcQwgmOjKumzEzj5AgBhlSh4M9noDnlNhfsVClFimvVJQqf-t_wjzFnSIhT6Jtgcak83Y7dC6PrbT0xVIEqbTn89LEyKY0DYqhd6VJWhAsXLLa8c-WtRwDztK3nNOvvIsCrq7hpiwQN6Q-oA79-tYN82PZ-eRufv-fOc4jZomTApVFzcgdCuJZNw_rxwXxrKlYfulsql24avBIoeOkRh8f_jku5wT4aO89b6yRgjZMpQbL8_ilCDTgTejPGwchxT5HtPEr-xcsN2kOtC_Y8olPdr9CS4vw_OkNxwgmBMkyLcE_DAi2iclXHCN7dOIW_HXwQj_W80]--></g></svg>