<?xml version="1.0" encoding="us-ascii" standalone="no"?><svg xmlns="http://www.w3.org/2000/svg" xmlns:xlink="http://www.w3.org/1999/xlink" contentStyleType="text/css" height="1966px" preserveAspectRatio="none" style="width:1717px;height:1966px;background:#FFFFFF;" version="1.1" viewBox="0 0 1717 1966" width="1717px" zoomAndPan="magnify"><defs/><g><text fill="#000000" font-family="sans-serif" font-size="14" font-weight="bold" lengthAdjust="spacing" textLength="315" x="699.5" y="34.5332">Activity Diagram - Guru Mengelola Profil Saya</text><ellipse cx="1171.0625" cy="58.6094" fill="#222222" rx="10" ry="10" style="stroke:#222222;stroke-width:1.0;"/><rect fill="none" height="194.8906" style="stroke:#000000;stroke-width:1.5;" width="288" x="1027.0625" y="78.6094"/><path d="M1069.0625,78.6094 L1069.0625,89.2188 L1059.0625,99.2188 L1027.0625,99.2188 " fill="none" style="stroke:#000000;stroke-width:1.5;"/><text fill="#000000" font-family="sans-serif" font-size="14" lengthAdjust="spacing" textLength="32" x="1030.0625" y="94.1426">Guru</text><rect fill="#F1F1F1" height="35.0938" rx="12.5" ry="12.5" style="stroke:#181818;stroke-width:0.5;" width="188" x="1077.0625" y="116.2188"/><text fill="#000000" font-family="sans-serif" font-size="12" lengthAdjust="spacing" textLength="168" x="1087.0625" y="138.6758">Guru membuka halaman login</text><rect fill="#F1F1F1" height="35.0938" rx="12.5" ry="12.5" style="stroke:#181818;stroke-width:0.5;" width="268" x="1037.0625" y="171.3125"/><text fill="#000000" font-family="sans-serif" font-size="12" lengthAdjust="spacing" textLength="248" x="1047.0625" y="193.7695">Guru memasukkan username dan password</text><rect fill="#F1F1F1" height="35.0938" rx="12.5" ry="12.5" style="stroke:#181818;stroke-width:0.5;" width="143" x="1099.5625" y="226.4063"/><text fill="#000000" font-family="sans-serif" font-size="12" lengthAdjust="spacing" textLength="123" x="1109.5625" y="248.8633">Guru klik tombol Login</text><rect fill="none" height="84.7031" style="stroke:#000000;stroke-width:1.5;" width="186" x="1078.0625" y="283.5"/><path d="M1130.0625,283.5 L1130.0625,294.1094 L1120.0625,304.1094 L1078.0625,304.1094 " fill="none" style="stroke:#000000;stroke-width:1.5;"/><text fill="#000000" font-family="sans-serif" font-size="14" lengthAdjust="spacing" textLength="42" x="1081.0625" y="299.0332">Sistem</text><rect fill="#F1F1F1" height="35.0938" rx="12.5" ry="12.5" style="stroke:#181818;stroke-width:0.5;" width="166" x="1088.0625" y="321.1094"/><text fill="#000000" font-family="sans-serif" font-size="12" lengthAdjust="spacing" textLength="146" x="1098.0625" y="343.5664">Memeriksa data login guru</text><polygon fill="#F1F1F1" points="1142.5625,388.2031,1199.5625,388.2031,1211.5625,400.2031,1199.5625,412.2031,1142.5625,412.2031,1130.5625,400.2031,1142.5625,388.2031" style="stroke:#181818;stroke-width:0.5;"/><text fill="#000000" font-family="sans-serif" font-size="11" lengthAdjust="spacing" textLength="57" x="1142.5625" y="404.7041">Login valid?</text><text fill="#000000" font-family="sans-serif" font-size="11" lengthAdjust="spacing" textLength="14" x="1116.5625" y="397.7861">Ya</text><text fill="#000000" font-family="sans-serif" font-size="11" lengthAdjust="spacing" textLength="25" x="1211.5625" y="397.7861">Tidak</text><rect fill="none" height="154.7969" style="stroke:#000000;stroke-width:1.5;" width="187" x="620.625" y="422.2031"/><path d="M662.625,422.2031 L662.625,432.8125 L652.625,442.8125 L620.625,442.8125 " fill="none" style="stroke:#000000;stroke-width:1.5;"/><text fill="#000000" font-family="sans-serif" font-size="14" lengthAdjust="spacing" textLength="32" x="623.625" y="437.7363">Guru</text><rect fill="#F1F1F1" height="35.0938" rx="12.5" ry="12.5" style="stroke:#181818;stroke-width:0.5;" width="167" x="630.625" y="459.8125"/><text fill="#000000" font-family="sans-serif" font-size="12" lengthAdjust="spacing" textLength="147" x="640.625" y="482.2695">Guru masuk ke dashboard</text><rect fill="#F1F1F1" height="35.0938" rx="12.5" ry="12.5" style="stroke:#181818;stroke-width:0.5;" width="161" x="633.625" y="521.9063"/><text fill="#000000" font-family="sans-serif" font-size="12" lengthAdjust="spacing" textLength="141" x="643.625" y="544.3633">Guru memilih menu Profil</text><rect fill="none" height="305.0781" style="stroke:#000000;stroke-width:1.5;" width="259" x="584.625" y="612"/><path d="M636.625,612 L636.625,622.6094 L626.625,632.6094 L584.625,632.6094 " fill="none" style="stroke:#000000;stroke-width:1.5;"/><text fill="#000000" font-family="sans-serif" font-size="14" lengthAdjust="spacing" textLength="42" x="587.625" y="627.5332">Sistem</text><rect fill="#F1F1F1" height="35.0938" rx="12.5" ry="12.5" style="stroke:#181818;stroke-width:0.5;" width="207" x="610.625" y="649.6094"/><text fill="#000000" font-family="sans-serif" font-size="12" lengthAdjust="spacing" textLength="187" x="620.625" y="672.0664">Menampilkan halaman Profil Saya</text><rect fill="#F1F1F1" height="35.0938" rx="12.5" ry="12.5" style="stroke:#181818;stroke-width:0.5;" width="166" x="631.125" y="704.7031"/><text fill="#000000" font-family="sans-serif" font-size="12" lengthAdjust="spacing" textLength="146" x="641.125" y="727.1602">Menampilkan biodata guru</text><rect fill="#F1F1F1" height="35.0938" rx="12.5" ry="12.5" style="stroke:#181818;stroke-width:0.5;" width="186" x="621.125" y="759.7969"/><text fill="#000000" font-family="sans-serif" font-size="12" lengthAdjust="spacing" textLength="166" x="631.125" y="782.2539">Menampilkan form Ubah Profil</text><rect fill="#F1F1F1" height="35.0938" rx="12.5" ry="12.5" style="stroke:#181818;stroke-width:0.5;" width="213" x="607.625" y="814.8906"/><text fill="#000000" font-family="sans-serif" font-size="12" lengthAdjust="spacing" textLength="193" x="617.625" y="837.3477">Menampilkan form Ganti Password</text><rect fill="#F1F1F1" height="35.0938" rx="12.5" ry="12.5" style="stroke:#181818;stroke-width:0.5;" width="239" x="594.625" y="869.9844"/><text fill="#000000" font-family="sans-serif" font-size="12" lengthAdjust="spacing" textLength="219" x="604.625" y="892.4414">Menampilkan Jadwal Mengajar Ringkas</text><rect fill="none" height="84.7031" style="stroke:#000000;stroke-width:1.5;" width="168" x="630.125" y="927.0781"/><path d="M672.125,927.0781 L672.125,937.6875 L662.125,947.6875 L630.125,947.6875 " fill="none" style="stroke:#000000;stroke-width:1.5;"/><text fill="#000000" font-family="sans-serif" font-size="14" lengthAdjust="spacing" textLength="32" x="633.125" y="942.6113">Guru</text><rect fill="#F1F1F1" height="35.0938" rx="12.5" ry="12.5" style="stroke:#181818;stroke-width:0.5;" width="148" x="640.125" y="964.6875"/><text fill="#000000" font-family="sans-serif" font-size="12" lengthAdjust="spacing" textLength="128" x="650.125" y="987.1445">Guru melihat data profil</text><polygon fill="#F1F1F1" points="646.625,1031.7813,781.625,1031.7813,793.625,1043.7813,781.625,1055.7813,646.625,1055.7813,634.625,1043.7813,646.625,1031.7813" style="stroke:#181818;stroke-width:0.5;"/><text fill="#000000" font-family="sans-serif" font-size="11" lengthAdjust="spacing" textLength="135" x="646.625" y="1048.2822">Guru ingin mengubah profil?</text><text fill="#000000" font-family="sans-serif" font-size="11" lengthAdjust="spacing" textLength="14" x="620.625" y="1041.3643">Ya</text><text fill="#000000" font-family="sans-serif" font-size="11" lengthAdjust="spacing" textLength="25" x="793.625" y="1041.3643">Tidak</text><rect fill="none" height="177.8906" style="stroke:#000000;stroke-width:1.5;" width="252" x="169" y="1065.7813"/><path d="M211,1065.7813 L211,1076.3906 L201,1086.3906 L169,1086.3906 " fill="none" style="stroke:#000000;stroke-width:1.5;"/><text fill="#000000" font-family="sans-serif" font-size="14" lengthAdjust="spacing" textLength="32" x="172" y="1081.3145">Guru</text><rect fill="#F1F1F1" height="50.1875" rx="12.5" ry="12.5" style="stroke:#181818;stroke-width:0.5;" width="232" x="179" y="1103.3906"/><text fill="#000000" font-family="sans-serif" font-size="12" lengthAdjust="spacing" textLength="212" x="189" y="1125.8477">Guru mengubah nama lengkap, email,</text><text fill="#000000" font-family="sans-serif" font-size="12" lengthAdjust="spacing" textLength="155" x="189" y="1140.9414">no. telepon, alamat, atau bio</text><rect fill="#F1F1F1" height="35.0938" rx="12.5" ry="12.5" style="stroke:#181818;stroke-width:0.5;" width="186" x="202" y="1188.5781"/><text fill="#000000" font-family="sans-serif" font-size="12" lengthAdjust="spacing" textLength="166" x="212" y="1211.0352">Guru klik tombol Simpan Profil</text><rect fill="none" height="92.7031" style="stroke:#000000;stroke-width:1.5;" width="158" x="216" y="1264.7656"/><path d="M268,1264.7656 L268,1275.375 L258,1285.375 L216,1285.375 " fill="none" style="stroke:#000000;stroke-width:1.5;"/><text fill="#000000" font-family="sans-serif" font-size="14" lengthAdjust="spacing" textLength="42" x="219" y="1280.2988">Sistem</text><rect fill="#F1F1F1" height="35.0938" rx="12.5" ry="12.5" style="stroke:#181818;stroke-width:0.5;" width="138" x="226" y="1302.375"/><text fill="#000000" font-family="sans-serif" font-size="12" lengthAdjust="spacing" textLength="118" x="236" y="1324.832">Memeriksa data profil</text><polygon fill="#F1F1F1" points="255,1388.8594,335,1388.8594,347,1400.8594,335,1412.8594,255,1412.8594,243,1400.8594,255,1388.8594" style="stroke:#181818;stroke-width:0.5;"/><text fill="#000000" font-family="sans-serif" font-size="11" lengthAdjust="spacing" textLength="80" x="255" y="1405.3604">Data profil valid?</text><text fill="#000000" font-family="sans-serif" font-size="11" lengthAdjust="spacing" textLength="14" x="229" y="1398.4424">Ya</text><text fill="#000000" font-family="sans-serif" font-size="11" lengthAdjust="spacing" textLength="25" x="347" y="1398.4424">Tidak</text><rect fill="none" height="227.5" style="stroke:#000000;stroke-width:1.5;" width="274" x="11" y="1422.8594"/><path d="M63,1422.8594 L63,1433.4688 L53,1443.4688 L11,1443.4688 " fill="none" style="stroke:#000000;stroke-width:1.5;"/><text fill="#000000" font-family="sans-serif" font-size="14" lengthAdjust="spacing" textLength="42" x="14" y="1438.3926">Sistem</text><rect fill="#F1F1F1" height="35.0938" rx="12.5" ry="12.5" style="stroke:#181818;stroke-width:0.5;" width="176" x="60" y="1460.4688"/><text fill="#000000" font-family="sans-serif" font-size="12" lengthAdjust="spacing" textLength="156" x="70" y="1482.9258">Menyimpan perubahan profil</text><rect fill="#F1F1F1" height="35.0938" rx="12.5" ry="12.5" style="stroke:#181818;stroke-width:0.5;" width="180" x="58" y="1525.1719"/><text fill="#000000" font-family="sans-serif" font-size="12" lengthAdjust="spacing" textLength="160" x="68" y="1547.6289">Menampilkan pesan berhasil</text><rect fill="#F1F1F1" height="35.0938" rx="12.5" ry="12.5" style="stroke:#181818;stroke-width:0.5;" width="254" x="21" y="1595.2656"/><text fill="#000000" font-family="sans-serif" font-size="12" lengthAdjust="spacing" textLength="234" x="31" y="1617.7227">Menampilkan kembali halaman Profil Saya</text><rect fill="none" height="157.4063" style="stroke:#000000;stroke-width:1.5;" width="274" x="305" y="1422.8594"/><path d="M357,1422.8594 L357,1433.4688 L347,1443.4688 L305,1443.4688 " fill="none" style="stroke:#000000;stroke-width:1.5;"/><text fill="#000000" font-family="sans-serif" font-size="14" lengthAdjust="spacing" textLength="42" x="308" y="1438.3926">Sistem</text><rect fill="#F1F1F1" height="35.0938" rx="12.5" ry="12.5" style="stroke:#181818;stroke-width:0.5;" width="161" x="361.5" y="1460.4688"/><text fill="#000000" font-family="sans-serif" font-size="12" lengthAdjust="spacing" textLength="141" x="371.5" y="1482.9258">Menampilkan pesan error</text><rect fill="#F1F1F1" height="35.0938" rx="12.5" ry="12.5" style="stroke:#181818;stroke-width:0.5;" width="254" x="315" y="1525.1719"/><text fill="#000000" font-family="sans-serif" font-size="12" lengthAdjust="spacing" textLength="234" x="325" y="1547.6289">Menampilkan kembali halaman Profil Saya</text><polygon fill="#F1F1F1" points="295,1656.3594,307,1668.3594,295,1680.3594,283,1668.3594,295,1656.3594" style="stroke:#181818;stroke-width:0.5;"/><polygon fill="#F1F1F1" points="1053.25,1065.7813,1213.25,1065.7813,1225.25,1077.7813,1213.25,1089.7813,1053.25,1089.7813,1041.25,1077.7813,1053.25,1065.7813" style="stroke:#181818;stroke-width:0.5;"/><text fill="#000000" font-family="sans-serif" font-size="11" lengthAdjust="spacing" textLength="160" x="1053.25" y="1082.2822">Guru ingin mengganti password?</text><text fill="#000000" font-family="sans-serif" font-size="11" lengthAdjust="spacing" textLength="14" x="1027.25" y="1075.3643">Ya</text><text fill="#000000" font-family="sans-serif" font-size="11" lengthAdjust="spacing" textLength="25" x="1225.25" y="1075.3643">Tidak</text><rect fill="none" height="285.4688" style="stroke:#000000;stroke-width:1.5;" width="262" x="782" y="1099.7813"/><path d="M824,1099.7813 L824,1110.3906 L814,1120.3906 L782,1120.3906 " fill="none" style="stroke:#000000;stroke-width:1.5;"/><text fill="#000000" font-family="sans-serif" font-size="14" lengthAdjust="spacing" textLength="32" x="785" y="1115.3145">Guru</text><rect fill="#F1F1F1" height="35.0938" rx="12.5" ry="12.5" style="stroke:#181818;stroke-width:0.5;" width="196" x="815" y="1137.3906"/><text fill="#000000" font-family="sans-serif" font-size="12" lengthAdjust="spacing" textLength="176" x="825" y="1159.8477">Guru mengisi password saat ini</text><rect fill="#F1F1F1" height="35.0938" rx="12.5" ry="12.5" style="stroke:#181818;stroke-width:0.5;" width="181" x="822.5" y="1207.4844"/><text fill="#000000" font-family="sans-serif" font-size="12" lengthAdjust="spacing" textLength="161" x="832.5" y="1229.9414">Guru mengisi password baru</text><rect fill="#F1F1F1" height="35.0938" rx="12.5" ry="12.5" style="stroke:#181818;stroke-width:0.5;" width="242" x="792" y="1263.6719"/><text fill="#000000" font-family="sans-serif" font-size="12" lengthAdjust="spacing" textLength="222" x="802" y="1286.1289">Guru mengisi konfirmasi password baru</text><rect fill="#F1F1F1" height="35.0938" rx="12.5" ry="12.5" style="stroke:#181818;stroke-width:0.5;" width="211" x="807.5" y="1333.7656"/><text fill="#000000" font-family="sans-serif" font-size="12" lengthAdjust="spacing" textLength="191" x="817.5" y="1356.2227">Guru klik tombol Update Password</text><rect fill="none" height="87.3125" style="stroke:#000000;stroke-width:1.5;" width="186" x="820" y="1420.25"/><path d="M872,1420.25 L872,1430.8594 L862,1440.8594 L820,1440.8594 " fill="none" style="stroke:#000000;stroke-width:1.5;"/><text fill="#000000" font-family="sans-serif" font-size="14" lengthAdjust="spacing" textLength="42" x="823" y="1435.7832">Sistem</text><rect fill="#F1F1F1" height="35.0938" rx="12.5" ry="12.5" style="stroke:#181818;stroke-width:0.5;" width="166" x="830" y="1457.8594"/><text fill="#000000" font-family="sans-serif" font-size="12" lengthAdjust="spacing" textLength="146" x="840" y="1480.3164">Memeriksa data password</text><polygon fill="#F1F1F1" points="860,1542.5625,966,1542.5625,978,1554.5625,966,1566.5625,860,1566.5625,848,1554.5625,860,1542.5625" style="stroke:#181818;stroke-width:0.5;"/><text fill="#000000" font-family="sans-serif" font-size="11" lengthAdjust="spacing" textLength="106" x="860" y="1559.0635">Data password valid?</text><text fill="#000000" font-family="sans-serif" font-size="11" lengthAdjust="spacing" textLength="14" x="834" y="1552.1455">Ya</text><text fill="#000000" font-family="sans-serif" font-size="11" lengthAdjust="spacing" textLength="25" x="978" y="1552.1455">Tidak</text><rect fill="none" height="216.8906" style="stroke:#000000;stroke-width:1.5;" width="274" x="629" y="1576.5625"/><path d="M681,1576.5625 L681,1587.1719 L671,1597.1719 L629,1597.1719 " fill="none" style="stroke:#000000;stroke-width:1.5;"/><text fill="#000000" font-family="sans-serif" font-size="14" lengthAdjust="spacing" textLength="42" x="632" y="1592.0957">Sistem</text><rect fill="#F1F1F1" height="35.0938" rx="12.5" ry="12.5" style="stroke:#181818;stroke-width:0.5;" width="169" x="681.5" y="1614.1719"/><text fill="#000000" font-family="sans-serif" font-size="12" lengthAdjust="spacing" textLength="149" x="691.5" y="1636.6289">Menyimpan password baru</text><rect fill="#F1F1F1" height="35.0938" rx="12.5" ry="12.5" style="stroke:#181818;stroke-width:0.5;" width="180" x="676" y="1684.2656"/><text fill="#000000" font-family="sans-serif" font-size="12" lengthAdjust="spacing" textLength="160" x="686" y="1706.7227">Menampilkan pesan berhasil</text><rect fill="#F1F1F1" height="35.0938" rx="12.5" ry="12.5" style="stroke:#181818;stroke-width:0.5;" width="254" x="639" y="1746.3594"/><text fill="#000000" font-family="sans-serif" font-size="12" lengthAdjust="spacing" textLength="234" x="649" y="1768.8164">Menampilkan kembali halaman Profil Saya</text><rect fill="none" height="154.7969" style="stroke:#000000;stroke-width:1.5;" width="274" x="923" y="1576.5625"/><path d="M975,1576.5625 L975,1587.1719 L965,1597.1719 L923,1597.1719 " fill="none" style="stroke:#000000;stroke-width:1.5;"/><text fill="#000000" font-family="sans-serif" font-size="14" lengthAdjust="spacing" textLength="42" x="926" y="1592.0957">Sistem</text><rect fill="#F1F1F1" height="35.0938" rx="12.5" ry="12.5" style="stroke:#181818;stroke-width:0.5;" width="161" x="979.5" y="1614.1719"/><text fill="#000000" font-family="sans-serif" font-size="12" lengthAdjust="spacing" textLength="141" x="989.5" y="1636.6289">Menampilkan pesan error</text><rect fill="#F1F1F1" height="35.0938" rx="12.5" ry="12.5" style="stroke:#181818;stroke-width:0.5;" width="254" x="933" y="1684.2656"/><text fill="#000000" font-family="sans-serif" font-size="12" lengthAdjust="spacing" textLength="234" x="943" y="1706.7227">Menampilkan kembali halaman Profil Saya</text><polygon fill="#F1F1F1" points="913,1799.4531,925,1811.4531,913,1823.4531,901,1811.4531,913,1799.4531" style="stroke:#181818;stroke-width:0.5;"/><rect fill="none" height="92.7031" style="stroke:#000000;stroke-width:1.5;" width="253" x="1227" y="1099.7813"/><path d="M1269,1099.7813 L1269,1110.3906 L1259,1120.3906 L1227,1120.3906 " fill="none" style="stroke:#000000;stroke-width:1.5;"/><text fill="#000000" font-family="sans-serif" font-size="14" lengthAdjust="spacing" textLength="32" x="1230" y="1115.3145">Guru</text><rect fill="#F1F1F1" height="35.0938" rx="12.5" ry="12.5" style="stroke:#181818;stroke-width:0.5;" width="233" x="1237" y="1137.3906"/><text fill="#000000" font-family="sans-serif" font-size="12" lengthAdjust="spacing" textLength="213" x="1247" y="1159.8477">Guru tidak melakukan perubahan profil</text><polygon fill="#F1F1F1" points="1133.25,1829.4531,1145.25,1841.4531,1133.25,1853.4531,1121.25,1841.4531,1133.25,1829.4531" style="stroke:#181818;stroke-width:0.5;"/><polygon fill="#F1F1F1" points="714.125,1859.4531,726.125,1871.4531,714.125,1883.4531,702.125,1871.4531,714.125,1859.4531" style="stroke:#181818;stroke-width:0.5;"/><rect fill="none" height="84.7031" style="stroke:#000000;stroke-width:1.5;" width="216" x="1490" y="422.2031"/><path d="M1542,422.2031 L1542,432.8125 L1532,442.8125 L1490,442.8125 " fill="none" style="stroke:#000000;stroke-width:1.5;"/><text fill="#000000" font-family="sans-serif" font-size="14" lengthAdjust="spacing" textLength="42" x="1493" y="437.7363">Sistem</text><rect fill="#F1F1F1" height="35.0938" rx="12.5" ry="12.5" style="stroke:#181818;stroke-width:0.5;" width="196" x="1500" y="459.8125"/><text fill="#000000" font-family="sans-serif" font-size="12" lengthAdjust="spacing" textLength="176" x="1510" y="482.2695">Menampilkan pesan login gagal</text><rect fill="none" height="92.7031" style="stroke:#000000;stroke-width:1.5;" width="212" x="1492" y="541.9063"/><path d="M1534,541.9063 L1534,552.5156 L1524,562.5156 L1492,562.5156 " fill="none" style="stroke:#000000;stroke-width:1.5;"/><text fill="#000000" font-family="sans-serif" font-size="14" lengthAdjust="spacing" textLength="32" x="1495" y="557.4395">Guru</text><rect fill="#F1F1F1" height="35.0938" rx="12.5" ry="12.5" style="stroke:#181818;stroke-width:0.5;" width="192" x="1502" y="579.5156"/><text fill="#000000" font-family="sans-serif" font-size="12" lengthAdjust="spacing" textLength="172" x="1512" y="601.9727">Guru kembali ke halaman login</text><polygon fill="#F1F1F1" points="1171.0625,1889.4531,1183.0625,1901.4531,1171.0625,1913.4531,1159.0625,1901.4531,1171.0625,1889.4531" style="stroke:#181818;stroke-width:0.5;"/><ellipse cx="1171.0625" cy="1944.4531" fill="none" rx="11" ry="11" style="stroke:#222222;stroke-width:1.0;"/><ellipse cx="1171.0625" cy="1944.4531" fill="#222222" rx="6" ry="6" style="stroke:#222222;stroke-width:1.0;"/><line style="stroke:#181818;stroke-width:1.0;" x1="1171.0625" x2="1171.0625" y1="151.3125" y2="171.3125"/><polygon fill="#181818" points="1167.0625,161.3125,1171.0625,171.3125,1175.0625,161.3125,1171.0625,165.3125" style="stroke:#181818;stroke-width:1.0;"/><line style="stroke:#181818;stroke-width:1.0;" x1="1171.0625" x2="1171.0625" y1="206.4063" y2="226.4063"/><polygon fill="#181818" points="1167.0625,216.4063,1171.0625,226.4063,1175.0625,216.4063,1171.0625,220.4063" style="stroke:#181818;stroke-width:1.0;"/><line style="stroke:#181818;stroke-width:1.0;" x1="1171.0625" x2="1171.0625" y1="68.6094" y2="116.2188"/><polygon fill="#181818" points="1167.0625,106.2188,1171.0625,116.2188,1175.0625,106.2188,1171.0625,110.2188" style="stroke:#181818;stroke-width:1.0;"/><line style="stroke:#181818;stroke-width:1.0;" x1="1171.0625" x2="1171.0625" y1="261.5" y2="321.1094"/><polygon fill="#181818" points="1167.0625,311.1094,1171.0625,321.1094,1175.0625,311.1094,1171.0625,315.1094" style="stroke:#181818;stroke-width:1.0;"/><line style="stroke:#181818;stroke-width:1.0;" x1="714.125" x2="714.125" y1="494.9063" y2="521.9063"/><polygon fill="#181818" points="710.125,511.9063,714.125,521.9063,718.125,511.9063,714.125,515.9063" style="stroke:#181818;stroke-width:1.0;"/><line style="stroke:#181818;stroke-width:1.0;" x1="714.125" x2="714.125" y1="684.7031" y2="704.7031"/><polygon fill="#181818" points="710.125,694.7031,714.125,704.7031,718.125,694.7031,714.125,698.7031" style="stroke:#181818;stroke-width:1.0;"/><line style="stroke:#181818;stroke-width:1.0;" x1="714.125" x2="714.125" y1="739.7969" y2="759.7969"/><polygon fill="#181818" points="710.125,749.7969,714.125,759.7969,718.125,749.7969,714.125,753.7969" style="stroke:#181818;stroke-width:1.0;"/><line style="stroke:#181818;stroke-width:1.0;" x1="714.125" x2="714.125" y1="794.8906" y2="814.8906"/><polygon fill="#181818" points="710.125,804.8906,714.125,814.8906,718.125,804.8906,714.125,808.8906" style="stroke:#181818;stroke-width:1.0;"/><line style="stroke:#181818;stroke-width:1.0;" x1="714.125" x2="714.125" y1="849.9844" y2="869.9844"/><polygon fill="#181818" points="710.125,859.9844,714.125,869.9844,718.125,859.9844,714.125,863.9844" style="stroke:#181818;stroke-width:1.0;"/><line style="stroke:#181818;stroke-width:1.0;" x1="714.125" x2="714.125" y1="557" y2="649.6094"/><polygon fill="#181818" points="710.125,639.6094,714.125,649.6094,718.125,639.6094,714.125,643.6094" style="stroke:#181818;stroke-width:1.0;"/><line style="stroke:#181818;stroke-width:1.0;" x1="714.125" x2="714.125" y1="905.0781" y2="964.6875"/><polygon fill="#181818" points="710.125,954.6875,714.125,964.6875,718.125,954.6875,714.125,958.6875" style="stroke:#181818;stroke-width:1.0;"/><line style="stroke:#181818;stroke-width:1.0;" x1="295" x2="295" y1="1153.5781" y2="1188.5781"/><polygon fill="#181818" points="291,1178.5781,295,1188.5781,299,1178.5781,295,1182.5781" style="stroke:#181818;stroke-width:1.0;"/><line style="stroke:#181818;stroke-width:1.0;" x1="295" x2="295" y1="1223.6719" y2="1302.375"/><polygon fill="#181818" points="291,1292.375,295,1302.375,299,1292.375,295,1296.375" style="stroke:#181818;stroke-width:1.0;"/><line style="stroke:#181818;stroke-width:1.0;" x1="148" x2="148" y1="1495.5625" y2="1525.1719"/><polygon fill="#181818" points="144,1515.1719,148,1525.1719,152,1515.1719,148,1519.1719" style="stroke:#181818;stroke-width:1.0;"/><line style="stroke:#181818;stroke-width:1.0;" x1="148" x2="148" y1="1560.2656" y2="1595.2656"/><polygon fill="#181818" points="144,1585.2656,148,1595.2656,152,1585.2656,148,1589.2656" style="stroke:#181818;stroke-width:1.0;"/><line style="stroke:#181818;stroke-width:1.0;" x1="442" x2="442" y1="1495.5625" y2="1525.1719"/><polygon fill="#181818" points="438,1515.1719,442,1525.1719,446,1515.1719,442,1519.1719" style="stroke:#181818;stroke-width:1.0;"/><line style="stroke:#181818;stroke-width:1.0;" x1="243" x2="148" y1="1400.8594" y2="1400.8594"/><line style="stroke:#181818;stroke-width:1.0;" x1="148" x2="148" y1="1400.8594" y2="1460.4688"/><polygon fill="#181818" points="144,1450.4688,148,1460.4688,152,1450.4688,148,1454.4688" style="stroke:#181818;stroke-width:1.0;"/><line style="stroke:#181818;stroke-width:1.0;" x1="347" x2="442" y1="1400.8594" y2="1400.8594"/><line style="stroke:#181818;stroke-width:1.0;" x1="442" x2="442" y1="1400.8594" y2="1460.4688"/><polygon fill="#181818" points="438,1450.4688,442,1460.4688,446,1450.4688,442,1454.4688" style="stroke:#181818;stroke-width:1.0;"/><line style="stroke:#181818;stroke-width:1.0;" x1="148" x2="148" y1="1630.3594" y2="1668.3594"/><line style="stroke:#181818;stroke-width:1.0;" x1="148" x2="283" y1="1668.3594" y2="1668.3594"/><polygon fill="#181818" points="273,1664.3594,283,1668.3594,273,1672.3594,277,1668.3594" style="stroke:#181818;stroke-width:1.0;"/><line style="stroke:#181818;stroke-width:1.0;" x1="442" x2="442" y1="1560.2656" y2="1668.3594"/><line style="stroke:#181818;stroke-width:1.0;" x1="442" x2="307" y1="1668.3594" y2="1668.3594"/><polygon fill="#181818" points="317,1664.3594,307,1668.3594,317,1672.3594,313,1668.3594" style="stroke:#181818;stroke-width:1.0;"/><line style="stroke:#181818;stroke-width:1.0;" x1="295" x2="295" y1="1337.4688" y2="1388.8594"/><polygon fill="#181818" points="291,1378.8594,295,1388.8594,299,1378.8594,295,1382.8594" style="stroke:#181818;stroke-width:1.0;"/><line style="stroke:#181818;stroke-width:1.0;" x1="913" x2="913" y1="1172.4844" y2="1207.4844"/><polygon fill="#181818" points="909,1197.4844,913,1207.4844,917,1197.4844,913,1201.4844" style="stroke:#181818;stroke-width:1.0;"/><line style="stroke:#181818;stroke-width:1.0;" x1="913" x2="913" y1="1242.5781" y2="1263.6719"/><polygon fill="#181818" points="909,1253.6719,913,1263.6719,917,1253.6719,913,1257.6719" style="stroke:#181818;stroke-width:1.0;"/><line style="stroke:#181818;stroke-width:1.0;" x1="913" x2="913" y1="1298.7656" y2="1333.7656"/><polygon fill="#181818" points="909,1323.7656,913,1333.7656,917,1323.7656,913,1327.7656" style="stroke:#181818;stroke-width:1.0;"/><line style="stroke:#181818;stroke-width:1.0;" x1="913" x2="913" y1="1368.8594" y2="1457.8594"/><polygon fill="#181818" points="909,1447.8594,913,1457.8594,917,1447.8594,913,1451.8594" style="stroke:#181818;stroke-width:1.0;"/><line style="stroke:#181818;stroke-width:1.0;" x1="766" x2="766" y1="1649.2656" y2="1684.2656"/><polygon fill="#181818" points="762,1674.2656,766,1684.2656,770,1674.2656,766,1678.2656" style="stroke:#181818;stroke-width:1.0;"/><line style="stroke:#181818;stroke-width:1.0;" x1="766" x2="766" y1="1719.3594" y2="1746.3594"/><polygon fill="#181818" points="762,1736.3594,766,1746.3594,770,1736.3594,766,1740.3594" style="stroke:#181818;stroke-width:1.0;"/><line style="stroke:#181818;stroke-width:1.0;" x1="1060" x2="1060" y1="1649.2656" y2="1684.2656"/><polygon fill="#181818" points="1056,1674.2656,1060,1684.2656,1064,1674.2656,1060,1678.2656" style="stroke:#181818;stroke-width:1.0;"/><line style="stroke:#181818;stroke-width:1.0;" x1="848" x2="766" y1="1554.5625" y2="1554.5625"/><line style="stroke:#181818;stroke-width:1.0;" x1="766" x2="766" y1="1554.5625" y2="1614.1719"/><polygon fill="#181818" points="762,1604.1719,766,1614.1719,770,1604.1719,766,1608.1719" style="stroke:#181818;stroke-width:1.0;"/><line style="stroke:#181818;stroke-width:1.0;" x1="978" x2="1060" y1="1554.5625" y2="1554.5625"/><line style="stroke:#181818;stroke-width:1.0;" x1="1060" x2="1060" y1="1554.5625" y2="1614.1719"/><polygon fill="#181818" points="1056,1604.1719,1060,1614.1719,1064,1604.1719,1060,1608.1719" style="stroke:#181818;stroke-width:1.0;"/><line style="stroke:#181818;stroke-width:1.0;" x1="766" x2="766" y1="1781.4531" y2="1811.4531"/><line style="stroke:#181818;stroke-width:1.0;" x1="766" x2="901" y1="1811.4531" y2="1811.4531"/><polygon fill="#181818" points="891,1807.4531,901,1811.4531,891,1815.4531,895,1811.4531" style="stroke:#181818;stroke-width:1.0;"/><line style="stroke:#181818;stroke-width:1.0;" x1="1060" x2="1060" y1="1719.3594" y2="1811.4531"/><line style="stroke:#181818;stroke-width:1.0;" x1="1060" x2="925" y1="1811.4531" y2="1811.4531"/><polygon fill="#181818" points="935,1807.4531,925,1811.4531,935,1815.4531,931,1811.4531" style="stroke:#181818;stroke-width:1.0;"/><line style="stroke:#181818;stroke-width:1.0;" x1="913" x2="913" y1="1492.9531" y2="1542.5625"/><polygon fill="#181818" points="909,1532.5625,913,1542.5625,917,1532.5625,913,1536.5625" style="stroke:#181818;stroke-width:1.0;"/><line style="stroke:#181818;stroke-width:1.0;" x1="1041.25" x2="913" y1="1077.7813" y2="1077.7813"/><line style="stroke:#181818;stroke-width:1.0;" x1="913" x2="913" y1="1077.7813" y2="1137.3906"/><polygon fill="#181818" points="909,1127.3906,913,1137.3906,917,1127.3906,913,1131.3906" style="stroke:#181818;stroke-width:1.0;"/><line style="stroke:#181818;stroke-width:1.0;" x1="1225.25" x2="1353.5" y1="1077.7813" y2="1077.7813"/><line style="stroke:#181818;stroke-width:1.0;" x1="1353.5" x2="1353.5" y1="1077.7813" y2="1137.3906"/><polygon fill="#181818" points="1349.5,1127.3906,1353.5,1137.3906,1357.5,1127.3906,1353.5,1131.3906" style="stroke:#181818;stroke-width:1.0;"/><line style="stroke:#181818;stroke-width:1.0;" x1="913" x2="913" y1="1823.4531" y2="1841.4531"/><line style="stroke:#181818;stroke-width:1.0;" x1="913" x2="1121.25" y1="1841.4531" y2="1841.4531"/><polygon fill="#181818" points="1111.25,1837.4531,1121.25,1841.4531,1111.25,1845.4531,1115.25,1841.4531" style="stroke:#181818;stroke-width:1.0;"/><line style="stroke:#181818;stroke-width:1.0;" x1="1353.5" x2="1353.5" y1="1172.4844" y2="1841.4531"/><line style="stroke:#181818;stroke-width:1.0;" x1="1353.5" x2="1145.25" y1="1841.4531" y2="1841.4531"/><polygon fill="#181818" points="1155.25,1837.4531,1145.25,1841.4531,1155.25,1845.4531,1151.25,1841.4531" style="stroke:#181818;stroke-width:1.0;"/><line style="stroke:#181818;stroke-width:1.0;" x1="634.625" x2="295" y1="1043.7813" y2="1043.7813"/><line style="stroke:#181818;stroke-width:1.0;" x1="295" x2="295" y1="1043.7813" y2="1103.3906"/><polygon fill="#181818" points="291,1093.3906,295,1103.3906,299,1093.3906,295,1097.3906" style="stroke:#181818;stroke-width:1.0;"/><line style="stroke:#181818;stroke-width:1.0;" x1="793.625" x2="1133.25" y1="1043.7813" y2="1043.7813"/><line style="stroke:#181818;stroke-width:1.0;" x1="1133.25" x2="1133.25" y1="1043.7813" y2="1065.7813"/><polygon fill="#181818" points="1129.25,1055.7813,1133.25,1065.7813,1137.25,1055.7813,1133.25,1059.7813" style="stroke:#181818;stroke-width:1.0;"/><line style="stroke:#181818;stroke-width:1.0;" x1="295" x2="295" y1="1680.3594" y2="1871.4531"/><line style="stroke:#181818;stroke-width:1.0;" x1="295" x2="702.125" y1="1871.4531" y2="1871.4531"/><polygon fill="#181818" points="692.125,1867.4531,702.125,1871.4531,692.125,1875.4531,696.125,1871.4531" style="stroke:#181818;stroke-width:1.0;"/><line style="stroke:#181818;stroke-width:1.0;" x1="1133.25" x2="1133.25" y1="1853.4531" y2="1871.4531"/><line style="stroke:#181818;stroke-width:1.0;" x1="1133.25" x2="726.125" y1="1871.4531" y2="1871.4531"/><polygon fill="#181818" points="736.125,1867.4531,726.125,1871.4531,736.125,1875.4531,732.125,1871.4531" style="stroke:#181818;stroke-width:1.0;"/><line style="stroke:#181818;stroke-width:1.0;" x1="714.125" x2="714.125" y1="999.7813" y2="1031.7813"/><polygon fill="#181818" points="710.125,1021.7813,714.125,1031.7813,718.125,1021.7813,714.125,1025.7813" style="stroke:#181818;stroke-width:1.0;"/><line style="stroke:#181818;stroke-width:1.0;" x1="1598" x2="1598" y1="494.9063" y2="579.5156"/><polygon fill="#181818" points="1594,569.5156,1598,579.5156,1602,569.5156,1598,573.5156" style="stroke:#181818;stroke-width:1.0;"/><line style="stroke:#181818;stroke-width:1.0;" x1="1130.5625" x2="714.125" y1="400.2031" y2="400.2031"/><line style="stroke:#181818;stroke-width:1.0;" x1="714.125" x2="714.125" y1="400.2031" y2="459.8125"/><polygon fill="#181818" points="710.125,449.8125,714.125,459.8125,718.125,449.8125,714.125,453.8125" style="stroke:#181818;stroke-width:1.0;"/><line style="stroke:#181818;stroke-width:1.0;" x1="1211.5625" x2="1598" y1="400.2031" y2="400.2031"/><line style="stroke:#181818;stroke-width:1.0;" x1="1598" x2="1598" y1="400.2031" y2="459.8125"/><polygon fill="#181818" points="1594,449.8125,1598,459.8125,1602,449.8125,1598,453.8125" style="stroke:#181818;stroke-width:1.0;"/><line style="stroke:#181818;stroke-width:1.0;" x1="714.125" x2="714.125" y1="1883.4531" y2="1901.4531"/><line style="stroke:#181818;stroke-width:1.0;" x1="714.125" x2="1159.0625" y1="1901.4531" y2="1901.4531"/><polygon fill="#181818" points="1149.0625,1897.4531,1159.0625,1901.4531,1149.0625,1905.4531,1153.0625,1901.4531" style="stroke:#181818;stroke-width:1.0;"/><line style="stroke:#181818;stroke-width:1.0;" x1="1598" x2="1598" y1="614.6094" y2="1901.4531"/><line style="stroke:#181818;stroke-width:1.0;" x1="1598" x2="1183.0625" y1="1901.4531" y2="1901.4531"/><polygon fill="#181818" points="1193.0625,1897.4531,1183.0625,1901.4531,1193.0625,1905.4531,1189.0625,1901.4531" style="stroke:#181818;stroke-width:1.0;"/><line style="stroke:#181818;stroke-width:1.0;" x1="1171.0625" x2="1171.0625" y1="356.2031" y2="388.2031"/><polygon fill="#181818" points="1167.0625,378.2031,1171.0625,388.2031,1175.0625,378.2031,1171.0625,382.2031" style="stroke:#181818;stroke-width:1.0;"/><line style="stroke:#181818;stroke-width:1.0;" x1="1171.0625" x2="1171.0625" y1="1913.4531" y2="1933.4531"/><polygon fill="#181818" points="1167.0625,1923.4531,1171.0625,1933.4531,1175.0625,1923.4531,1171.0625,1927.4531" style="stroke:#181818;stroke-width:1.0;"/><!--SRC=[jLP1Rjim4Bph5OkS7C3D0-f3KI10WA81WhWvzBYgQ6bBYYH8Ae5H-EzTIbOiMRGj1wqFbWmFbxEpCvG21INWwwz0hnIsS4zOEgpX4pmqhe57eKkXZ49uScP32jQunIpp0Lt8CilV5CXek8de6_YJ0Ny-jqjhKUUDHAXGOOqQb2b9hyO0z8sK_5_ZXTDO2oZuXqNltumhXbYfI48mTMuKVEyAxKRxhya7KRypU1IrS2GzSiM0tTvGSgLs7MrWqLQ1LrHKVBc5K0aDYvzucxNhJpGsu1wPWuo4VPKRxDcEkYD55LzrinUlW-mcMuovx_cp79PK5ASNS321LHgPasdRxHfDGZR6rV2IOpNYb8Oze0u4JwDnJ93Vi7X3rHe5VwE3PzAbH7-grnDo2fOAGpSiEnKh3gm5Sd6U6cjQDh673ZgTtuLDXnllAt53R1CHkTibi3D9BJDjxY089QpHIsYd4FWQi8bAhnBbXZPTKstVftO0xv8CfnP8sTYUhXKLkZzW4iOU5hwuSp_cRTU45Iwg5E-EA2GzOOMFRXIkGdyHBFcSOBBdRTvrszy9vGKiVb21yeDz7L4LpXdt7tZgWZRTZ4QKHrCxydNPXgu_0zFMdc7liSN97qg2HquQQLhDNP3Zy3X9WwNH6t9yBCvSDqpAYsLtYyH1S-JnQoOypisSoeS4zVpFPsWsc-CidPVdwZ1ztAXZivuDrjNDpWlOF-L-2Dlfm5sLd10NnsSJoaPUF0K7TXhclhkTifd__EyKtB_2O8dgkcThBoc_h2HUnRZAdg8FncP_0G00]--></g></svg>