<?xml version="1.0" encoding="us-ascii" standalone="no"?><svg xmlns="http://www.w3.org/2000/svg" xmlns:xlink="http://www.w3.org/1999/xlink" contentStyleType="text/css" height="647px" preserveAspectRatio="none" style="width:1068px;height:647px;background:#FFFFFF;" version="1.1" viewBox="0 0 1068 647" width="1068px" zoomAndPan="magnify"><defs/><g><text fill="#000000" font-family="sans-serif" font-size="14" font-weight="bold" lengthAdjust="spacing" textLength="384" x="343.25" y="29.5332">Sequence Diagram - Wali Murid Mengakses Dashboard</text><rect fill="none" height="381.0547" style="stroke:#000000;stroke-width:1.5;" width="1051.5" x="10" y="242.2734"/><line style="stroke:#6B7280;stroke-width:0.5;stroke-dasharray:5.0,5.0;" x1="56" x2="56" y1="121.2188" y2="640.3281"/><line style="stroke:#6B7280;stroke-width:0.5;stroke-dasharray:5.0,5.0;" x1="380.5" x2="380.5" y1="121.2188" y2="640.3281"/><line style="stroke:#6B7280;stroke-width:0.5;stroke-dasharray:5.0,5.0;" x1="665.5" x2="665.5" y1="121.2188" y2="640.3281"/><line style="stroke:#6B7280;stroke-width:0.5;stroke-dasharray:5.0,5.0;" x1="1017.5" x2="1017.5" y1="121.2188" y2="640.3281"/><text fill="#000000" font-family="sans-serif" font-size="14" lengthAdjust="spacing" textLength="66" x="20" y="118.1426">Wali Murid</text><ellipse cx="56" cy="52.1094" fill="#FFFFFF" rx="8" ry="8" style="stroke:#111827;stroke-width:0.5;"/><path d="M56,60.1094 L56,87.1094 M43,68.1094 L69,68.1094 M56,87.1094 L43,102.1094 M56,87.1094 L69,102.1094 " fill="none" style="stroke:#111827;stroke-width:0.5;"/><text fill="#000000" font-family="sans-serif" font-size="14" lengthAdjust="spacing" textLength="101" x="327.5" y="118.1426">Halaman Sistem</text><path d="M360.5,75.6094 L360.5,99.6094 M360.5,87.6094 L377.5,87.6094 " fill="none" style="stroke:#181818;stroke-width:0.5;"/><ellipse cx="389.5" cy="87.6094" fill="#E2E2F0" rx="12" ry="12" style="stroke:#181818;stroke-width:0.5;"/><text fill="#000000" font-family="sans-serif" font-size="14" lengthAdjust="spacing" textLength="123" x="601.5" y="118.1426">Sistem BimbelOrion</text><ellipse cx="666" cy="87.6094" fill="#E2E2F0" rx="12" ry="12" style="stroke:#181818;stroke-width:0.5;"/><polygon fill="#181818" points="662,75.6094,668,70.6094,666,75.6094,668,80.6094,662,75.6094" style="stroke:#181818;stroke-width:1.0;"/><text fill="#000000" font-family="sans-serif" font-size="14" lengthAdjust="spacing" textLength="61" x="984.5" y="118.1426">Database</text><path d="M1000,67.6094 C1000,57.6094 1018,57.6094 1018,57.6094 C1018,57.6094 1036,57.6094 1036,67.6094 L1036,93.6094 C1036,103.6094 1018,103.6094 1018,103.6094 C1018,103.6094 1000,103.6094 1000,93.6094 L1000,67.6094 " fill="#E2E2F0" style="stroke:#181818;stroke-width:1.5;"/><path d="M1000,67.6094 C1000,77.6094 1018,77.6094 1018,77.6094 C1018,77.6094 1036,77.6094 1036,67.6094 " fill="none" style="stroke:#181818;stroke-width:1.5;"/><polygon fill="#2F4F8F" points="369,149.5703,379,153.5703,369,157.5703,373,153.5703" style="stroke:#2F4F8F;stroke-width:1.0;"/><line style="stroke:#2F4F8F;stroke-width:1.0;" x1="56" x2="375" y1="153.5703" y2="153.5703"/><text fill="#000000" font-family="sans-serif" font-size="13" font-weight="bold" lengthAdjust="spacing" textLength="7" x="63" y="148.7139">1</text><text fill="#000000" font-family="sans-serif" font-size="13" lengthAdjust="spacing" textLength="157" x="74" y="148.7139">Pilih menu Dashboard Wali</text><polygon fill="#2F4F8F" points="654,179.9219,664,183.9219,654,187.9219,658,183.9219" style="stroke:#2F4F8F;stroke-width:1.0;"/><line style="stroke:#2F4F8F;stroke-width:1.0;" x1="381" x2="660" y1="183.9219" y2="183.9219"/><text fill="#000000" font-family="sans-serif" font-size="13" font-weight="bold" lengthAdjust="spacing" textLength="7" x="388" y="179.0654">2</text><text fill="#000000" font-family="sans-serif" font-size="13" lengthAdjust="spacing" textLength="193" x="399" y="179.0654">Meminta halaman wali dashboard</text><line style="stroke:#2F4F8F;stroke-width:1.0;" x1="666" x2="708" y1="214.2734" y2="214.2734"/><line style="stroke:#2F4F8F;stroke-width:1.0;" x1="708" x2="708" y1="214.2734" y2="227.2734"/><line style="stroke:#2F4F8F;stroke-width:1.0;" x1="667" x2="708" y1="227.2734" y2="227.2734"/><polygon fill="#2F4F8F" points="677,223.2734,667,227.2734,677,231.2734,673,227.2734" style="stroke:#2F4F8F;stroke-width:1.0;"/><text fill="#000000" font-family="sans-serif" font-size="13" font-weight="bold" lengthAdjust="spacing" textLength="7" x="673" y="209.417">3</text><text fill="#000000" font-family="sans-serif" font-size="13" lengthAdjust="spacing" textLength="327" x="684" y="209.417">Memastikan pengguna sudah masuk sebagai wali_murid</text><path d="M10,242.2734 L71,242.2734 L71,250.625 L61,260.625 L10,260.625 L10,242.2734 " fill="#EEEEEE" style="stroke:#000000;stroke-width:1.5;"/><rect fill="none" height="381.0547" style="stroke:#000000;stroke-width:1.5;" width="1051.5" x="10" y="242.2734"/><text fill="#000000" font-family="sans-serif" font-size="13" font-weight="bold" lengthAdjust="spacing" textLength="16" x="25" y="256.7686">alt</text><text fill="#000000" font-family="sans-serif" font-size="11" font-weight="bold" lengthAdjust="spacing" textLength="244" x="86" y="255.6924">[Sesi login benar dan hak akses wali_murid]</text><line style="stroke:#2F4F8F;stroke-width:1.0;" x1="666" x2="708" y1="282.9766" y2="282.9766"/><line style="stroke:#2F4F8F;stroke-width:1.0;" x1="708" x2="708" y1="282.9766" y2="295.9766"/><line style="stroke:#2F4F8F;stroke-width:1.0;" x1="667" x2="708" y1="295.9766" y2="295.9766"/><polygon fill="#2F4F8F" points="677,291.9766,667,295.9766,677,299.9766,673,295.9766" style="stroke:#2F4F8F;stroke-width:1.0;"/><text fill="#000000" font-family="sans-serif" font-size="13" font-weight="bold" lengthAdjust="spacing" textLength="7" x="673" y="278.1201">4</text><text fill="#000000" font-family="sans-serif" font-size="13" lengthAdjust="spacing" textLength="151" x="684" y="278.1201">Menyiapkan isi dashboard</text><polygon fill="#2F4F8F" points="1006,322.3281,1016,326.3281,1006,330.3281,1010,326.3281" style="stroke:#2F4F8F;stroke-width:1.0;"/><line style="stroke:#2F4F8F;stroke-width:1.0;" x1="666" x2="1012" y1="326.3281" y2="326.3281"/><text fill="#000000" font-family="sans-serif" font-size="13" font-weight="bold" lengthAdjust="spacing" textLength="7" x="673" y="321.4717">5</text><text fill="#000000" font-family="sans-serif" font-size="13" lengthAdjust="spacing" textLength="157" x="684" y="321.4717">Mengambil data wali_murid</text><polygon fill="#2F4F8F" points="677,352.6797,667,356.6797,677,360.6797,673,356.6797" style="stroke:#2F4F8F;stroke-width:1.0;"/><line style="stroke:#2F4F8F;stroke-width:1.0;stroke-dasharray:2.0,2.0;" x1="671" x2="1017" y1="356.6797" y2="356.6797"/><text fill="#000000" font-family="sans-serif" font-size="13" font-weight="bold" lengthAdjust="spacing" textLength="7" x="683" y="351.8232">6</text><text fill="#000000" font-family="sans-serif" font-size="13" lengthAdjust="spacing" textLength="53" x="694" y="351.8232">Data wali</text><polygon fill="#2F4F8F" points="1006,383.0313,1016,387.0313,1006,391.0313,1010,387.0313" style="stroke:#2F4F8F;stroke-width:1.0;"/><line style="stroke:#2F4F8F;stroke-width:1.0;" x1="666" x2="1012" y1="387.0313" y2="387.0313"/><text fill="#000000" font-family="sans-serif" font-size="13" font-weight="bold" lengthAdjust="spacing" textLength="7" x="673" y="382.1748">7</text><text fill="#000000" font-family="sans-serif" font-size="13" lengthAdjust="spacing" textLength="240" x="684" y="382.1748">Mengambil data siswa WHERE wali_id=?</text><polygon fill="#2F4F8F" points="677,413.3828,667,417.3828,677,421.3828,673,417.3828" style="stroke:#2F4F8F;stroke-width:1.0;"/><line style="stroke:#2F4F8F;stroke-width:1.0;stroke-dasharray:2.0,2.0;" x1="671" x2="1017" y1="417.3828" y2="417.3828"/><text fill="#000000" font-family="sans-serif" font-size="13" font-weight="bold" lengthAdjust="spacing" textLength="7" x="683" y="412.5264">8</text><text fill="#000000" font-family="sans-serif" font-size="13" lengthAdjust="spacing" textLength="121" x="694" y="412.5264">Mengirim daftar anak</text><polygon fill="#2F4F8F" points="1006,443.7344,1016,447.7344,1006,451.7344,1010,447.7344" style="stroke:#2F4F8F;stroke-width:1.0;"/><line style="stroke:#2F4F8F;stroke-width:1.0;" x1="666" x2="1012" y1="447.7344" y2="447.7344"/><text fill="#000000" font-family="sans-serif" font-size="13" font-weight="bold" lengthAdjust="spacing" textLength="7" x="673" y="442.8779">9</text><text fill="#000000" font-family="sans-serif" font-size="13" lengthAdjust="spacing" textLength="308" x="684" y="442.8779">Mengambil data ringkasan jadwal, nilai, absensi anak</text><polygon fill="#2F4F8F" points="677,474.0859,667,478.0859,677,482.0859,673,478.0859" style="stroke:#2F4F8F;stroke-width:1.0;"/><line style="stroke:#2F4F8F;stroke-width:1.0;stroke-dasharray:2.0,2.0;" x1="671" x2="1017" y1="478.0859" y2="478.0859"/><text fill="#000000" font-family="sans-serif" font-size="13" font-weight="bold" lengthAdjust="spacing" textLength="14" x="683" y="473.2295">10</text><text fill="#000000" font-family="sans-serif" font-size="13" lengthAdjust="spacing" textLength="113" x="701" y="473.2295">Mengirim hasil data</text><polygon fill="#2F4F8F" points="392,504.4375,382,508.4375,392,512.4375,388,508.4375" style="stroke:#2F4F8F;stroke-width:1.0;"/><line style="stroke:#2F4F8F;stroke-width:1.0;stroke-dasharray:2.0,2.0;" x1="386" x2="665" y1="508.4375" y2="508.4375"/><text fill="#000000" font-family="sans-serif" font-size="13" font-weight="bold" lengthAdjust="spacing" textLength="14" x="398" y="503.5811">11</text><text fill="#000000" font-family="sans-serif" font-size="13" lengthAdjust="spacing" textLength="155" x="416" y="503.5811">Mengirim hasil ke halaman</text><polygon fill="#2F4F8F" points="67,534.7891,57,538.7891,67,542.7891,63,538.7891" style="stroke:#2F4F8F;stroke-width:1.0;"/><line style="stroke:#2F4F8F;stroke-width:1.0;stroke-dasharray:2.0,2.0;" x1="61" x2="380" y1="538.7891" y2="538.7891"/><text fill="#000000" font-family="sans-serif" font-size="13" font-weight="bold" lengthAdjust="spacing" textLength="14" x="73" y="533.9326">12</text><text fill="#000000" font-family="sans-serif" font-size="13" lengthAdjust="spacing" textLength="240" x="91" y="533.9326">Tampilkan ringkasan perkembangan anak</text><line style="stroke:#000000;stroke-width:1.0;stroke-dasharray:2.0,2.0;" x1="10" x2="1061.5" y1="547.7891" y2="547.7891"/><text fill="#000000" font-family="sans-serif" font-size="11" font-weight="bold" lengthAdjust="spacing" textLength="225" x="15" y="559.208">[Sesi login tidak benar / hak akses salah]</text><polygon fill="#2F4F8F" points="392,580.9766,382,584.9766,392,588.9766,388,584.9766" style="stroke:#2F4F8F;stroke-width:1.0;"/><line style="stroke:#2F4F8F;stroke-width:1.0;stroke-dasharray:2.0,2.0;" x1="386" x2="665" y1="584.9766" y2="584.9766"/><text fill="#000000" font-family="sans-serif" font-size="13" font-weight="bold" lengthAdjust="spacing" textLength="14" x="398" y="580.1201">13</text><text fill="#000000" font-family="sans-serif" font-size="13" lengthAdjust="spacing" textLength="243" x="416" y="580.1201">Mengalihkan ke login atau menolak akses</text><polygon fill="#2F4F8F" points="67,611.3281,57,615.3281,67,619.3281,63,615.3281" style="stroke:#2F4F8F;stroke-width:1.0;"/><line style="stroke:#2F4F8F;stroke-width:1.0;stroke-dasharray:2.0,2.0;" x1="61" x2="380" y1="615.3281" y2="615.3281"/><text fill="#000000" font-family="sans-serif" font-size="13" font-weight="bold" lengthAdjust="spacing" textLength="14" x="73" y="610.4717">14</text><text fill="#000000" font-family="sans-serif" font-size="13" lengthAdjust="spacing" textLength="283" x="91" y="610.4717">Menampilkan pesan bahwa akses tidak diizinkan</text><!--SRC=[ZLJBRjim4BphAnRkDK5hesrS0srXnHPoID2WAP1ZiJ9fQIkAL4aAJbhqtxCK9Ljk7eXE5dTsPhWxiYUl9Dp8twtK6mahmi9Y3QTmYuhWghKau4hg0Yid7QpGbRb1AvAIX8IjCJutTmcstkYspgLDN4MwmK3XIXHcHxg0BIednvL1xMy2iBJMxCwDCXRUpBBtsJpZmqlQoalICZLMIDjNFwPdi_cxSHKtLM5DgqMFo3vboonbn3LQJnjgKFiZYht06F28PPwbMG0jDzxOe_xfT3gVdUrBZpgxXykfkJlgEqzN7zRJll1CrxyaIJ3GmkGm-mcWwrQHvA43xJrCBb1XZHfko7bPTuZ-ADaOxQrHC8arI8cNehvPChh3nUD4eCSSdOJ9gl_LLOSNDj8vEFqo42_WcXILK4lT7a8GZGrs61tf5noOchH7AFlIBh29VNPwSySDw3nLZ6quR4Mh4Lmha1NHjHKd9iS2gIFwMOV19AWynzOHA5EGXbngjAoXMRI2cDOH6k0fKNrFs0HHScD_O_0maqNy2kgS58Jn7PCFA3WTyQy6sEi87RaTmkt5-liwafFu_FKvxj1BbcfktNg-E6giNYTZ-OkiqF6bVw5WdHFGf91E07CdDS-XftfPjaJN4uvKntdv3rd98GoCtoU66qA45l03wuPKsCJ1NYDj9UiSsRsEfYJ_ZOntxadmhkFctuxsxfY_VC4NIvP1Yqr58hv66x9jrC3nf4lktVjiPF2OOyaxYwhHZI3wGveHYTJY0G00]--></g></svg>