<?xml version="1.0" encoding="us-ascii" standalone="no"?><svg xmlns="http://www.w3.org/2000/svg" xmlns:xlink="http://www.w3.org/1999/xlink" contentStyleType="text/css" height="545px" preserveAspectRatio="none" style="width:895px;height:545px;background:#FFFFFF;" version="1.1" viewBox="0 0 895 545" width="895px" zoomAndPan="magnify"><defs/><g><text fill="#000000" font-family="sans-serif" font-size="14" font-weight="bold" lengthAdjust="spacing" textLength="365" x="266.25" y="29.5332">Sequence Diagram - Wali Murid Melihat Jadwal Anak</text><rect fill="none" height="187.9453" style="stroke:#000000;stroke-width:1.5;" width="655" x="233.5" y="302.9766"/><rect fill="none" height="79.0547" style="stroke:#000000;stroke-width:1.5;" width="452" x="426.5" y="374.5156"/><line style="stroke:#6B7280;stroke-width:0.5;stroke-dasharray:5.0,5.0;" x1="41" x2="41" y1="121.2188" y2="538.2734"/><line style="stroke:#6B7280;stroke-width:0.5;stroke-dasharray:5.0,5.0;" x1="296.5" x2="296.5" y1="121.2188" y2="538.2734"/><line style="stroke:#6B7280;stroke-width:0.5;stroke-dasharray:5.0,5.0;" x1="500.5" x2="500.5" y1="121.2188" y2="538.2734"/><line style="stroke:#6B7280;stroke-width:0.5;stroke-dasharray:5.0,5.0;" x1="834.5" x2="834.5" y1="121.2188" y2="538.2734"/><text fill="#000000" font-family="sans-serif" font-size="14" lengthAdjust="spacing" textLength="66" x="5" y="118.1426">Wali Murid</text><ellipse cx="41" cy="52.1094" fill="#FFFFFF" rx="8" ry="8" style="stroke:#111827;stroke-width:0.5;"/><path d="M41,60.1094 L41,87.1094 M28,68.1094 L54,68.1094 M41,87.1094 L28,102.1094 M41,87.1094 L54,102.1094 " fill="none" style="stroke:#111827;stroke-width:0.5;"/><text fill="#000000" font-family="sans-serif" font-size="14" lengthAdjust="spacing" textLength="101" x="243.5" y="118.1426">Halaman Sistem</text><path d="M276.5,75.6094 L276.5,99.6094 M276.5,87.6094 L293.5,87.6094 " fill="none" style="stroke:#181818;stroke-width:0.5;"/><ellipse cx="305.5" cy="87.6094" fill="#E2E2F0" rx="12" ry="12" style="stroke:#181818;stroke-width:0.5;"/><text fill="#000000" font-family="sans-serif" font-size="14" lengthAdjust="spacing" textLength="123" x="436.5" y="118.1426">Sistem BimbelOrion</text><ellipse cx="501" cy="87.6094" fill="#E2E2F0" rx="12" ry="12" style="stroke:#181818;stroke-width:0.5;"/><polygon fill="#181818" points="497,75.6094,503,70.6094,501,75.6094,503,80.6094,497,75.6094" style="stroke:#181818;stroke-width:1.0;"/><text fill="#000000" font-family="sans-serif" font-size="14" lengthAdjust="spacing" textLength="61" x="801.5" y="118.1426">Database</text><path d="M817,67.6094 C817,57.6094 835,57.6094 835,57.6094 C835,57.6094 853,57.6094 853,67.6094 L853,93.6094 C853,103.6094 835,103.6094 835,103.6094 C835,103.6094 817,103.6094 817,93.6094 L817,67.6094 " fill="#E2E2F0" style="stroke:#181818;stroke-width:1.5;"/><path d="M817,67.6094 C817,77.6094 835,77.6094 835,77.6094 C835,77.6094 853,77.6094 853,67.6094 " fill="none" style="stroke:#181818;stroke-width:1.5;"/><polygon fill="#2F4F8F" points="285,149.5703,295,153.5703,285,157.5703,289,153.5703" style="stroke:#2F4F8F;stroke-width:1.0;"/><line style="stroke:#2F4F8F;stroke-width:1.0;" x1="41" x2="291" y1="153.5703" y2="153.5703"/><text fill="#000000" font-family="sans-serif" font-size="13" font-weight="bold" lengthAdjust="spacing" textLength="7" x="48" y="148.7139">1</text><text fill="#000000" font-family="sans-serif" font-size="13" lengthAdjust="spacing" textLength="143" x="59" y="148.7139">Buka menu Jadwal Anak</text><polygon fill="#2F4F8F" points="489,179.9219,499,183.9219,489,187.9219,493,183.9219" style="stroke:#2F4F8F;stroke-width:1.0;"/><line style="stroke:#2F4F8F;stroke-width:1.0;" x1="297" x2="495" y1="183.9219" y2="183.9219"/><text fill="#000000" font-family="sans-serif" font-size="13" font-weight="bold" lengthAdjust="spacing" textLength="7" x="304" y="179.0654">2</text><text fill="#000000" font-family="sans-serif" font-size="13" lengthAdjust="spacing" textLength="169" x="315" y="179.0654">Meminta halaman wali jadwal</text><line style="stroke:#2F4F8F;stroke-width:1.0;" x1="501" x2="543" y1="214.2734" y2="214.2734"/><line style="stroke:#2F4F8F;stroke-width:1.0;" x1="543" x2="543" y1="214.2734" y2="227.2734"/><line style="stroke:#2F4F8F;stroke-width:1.0;" x1="502" x2="543" y1="227.2734" y2="227.2734"/><polygon fill="#2F4F8F" points="512,223.2734,502,227.2734,512,231.2734,508,227.2734" style="stroke:#2F4F8F;stroke-width:1.0;"/><text fill="#000000" font-family="sans-serif" font-size="13" font-weight="bold" lengthAdjust="spacing" textLength="7" x="508" y="209.417">3</text><text fill="#000000" font-family="sans-serif" font-size="13" lengthAdjust="spacing" textLength="221" x="519" y="209.417">Memastikan hak aksesnya wali_murid</text><polygon fill="#2F4F8F" points="823,253.625,833,257.625,823,261.625,827,257.625" style="stroke:#2F4F8F;stroke-width:1.0;"/><line style="stroke:#2F4F8F;stroke-width:1.0;" x1="501" x2="829" y1="257.625" y2="257.625"/><text fill="#000000" font-family="sans-serif" font-size="13" font-weight="bold" lengthAdjust="spacing" textLength="7" x="508" y="252.7686">4</text><text fill="#000000" font-family="sans-serif" font-size="13" lengthAdjust="spacing" textLength="240" x="519" y="252.7686">Mengambil data siswa WHERE wali_id=?</text><polygon fill="#2F4F8F" points="512,283.9766,502,287.9766,512,291.9766,508,287.9766" style="stroke:#2F4F8F;stroke-width:1.0;"/><line style="stroke:#2F4F8F;stroke-width:1.0;stroke-dasharray:2.0,2.0;" x1="506" x2="834" y1="287.9766" y2="287.9766"/><text fill="#000000" font-family="sans-serif" font-size="13" font-weight="bold" lengthAdjust="spacing" textLength="7" x="518" y="283.1201">5</text><text fill="#000000" font-family="sans-serif" font-size="13" lengthAdjust="spacing" textLength="121" x="529" y="283.1201">Mengirim daftar anak</text><path d="M233.5,302.9766 L294.5,302.9766 L294.5,311.3281 L284.5,321.3281 L233.5,321.3281 L233.5,302.9766 " fill="#EEEEEE" style="stroke:#000000;stroke-width:1.5;"/><rect fill="none" height="187.9453" style="stroke:#000000;stroke-width:1.5;" width="655" x="233.5" y="302.9766"/><text fill="#000000" font-family="sans-serif" font-size="13" font-weight="bold" lengthAdjust="spacing" textLength="16" x="248.5" y="317.4717">alt</text><text fill="#000000" font-family="sans-serif" font-size="11" font-weight="bold" lengthAdjust="spacing" textLength="150" x="309.5" y="316.3955">[Tidak ada anak terhubung]</text><polygon fill="#2F4F8F" points="308,339.6797,298,343.6797,308,347.6797,304,343.6797" style="stroke:#2F4F8F;stroke-width:1.0;"/><line style="stroke:#2F4F8F;stroke-width:1.0;stroke-dasharray:2.0,2.0;" x1="302" x2="500" y1="343.6797" y2="343.6797"/><text fill="#000000" font-family="sans-serif" font-size="13" font-weight="bold" lengthAdjust="spacing" textLength="7" x="314" y="338.8232">6</text><text fill="#000000" font-family="sans-serif" font-size="13" lengthAdjust="spacing" textLength="155" x="325" y="338.8232">Mengirim hasil ke halaman</text><line style="stroke:#000000;stroke-width:1.0;stroke-dasharray:2.0,2.0;" x1="233.5" x2="888.5" y1="352.6797" y2="352.6797"/><text fill="#000000" font-family="sans-serif" font-size="11" font-weight="bold" lengthAdjust="spacing" textLength="119" x="238.5" y="364.0986">[Ada anak terhubung]</text><path d="M426.5,374.5156 L499.5,374.5156 L499.5,382.8672 L489.5,392.8672 L426.5,392.8672 L426.5,374.5156 " fill="#EEEEEE" style="stroke:#000000;stroke-width:1.5;"/><rect fill="none" height="79.0547" style="stroke:#000000;stroke-width:1.5;" width="452" x="426.5" y="374.5156"/><text fill="#000000" font-family="sans-serif" font-size="13" font-weight="bold" lengthAdjust="spacing" textLength="28" x="441.5" y="389.0107">loop</text><text fill="#000000" font-family="sans-serif" font-size="11" font-weight="bold" lengthAdjust="spacing" textLength="106" x="514.5" y="387.9346">[Untuk setiap anak]</text><polygon fill="#2F4F8F" points="823,411.2188,833,415.2188,823,419.2188,827,415.2188" style="stroke:#2F4F8F;stroke-width:1.0;"/><line style="stroke:#2F4F8F;stroke-width:1.0;" x1="501" x2="829" y1="415.2188" y2="415.2188"/><text fill="#000000" font-family="sans-serif" font-size="13" font-weight="bold" lengthAdjust="spacing" textLength="7" x="508" y="410.3623">7</text><text fill="#000000" font-family="sans-serif" font-size="13" lengthAdjust="spacing" textLength="299" x="519" y="410.3623">Mengambil data jadwal anak JOIN kelas/guru/mapel</text><polygon fill="#2F4F8F" points="512,441.5703,502,445.5703,512,449.5703,508,445.5703" style="stroke:#2F4F8F;stroke-width:1.0;"/><line style="stroke:#2F4F8F;stroke-width:1.0;stroke-dasharray:2.0,2.0;" x1="506" x2="834" y1="445.5703" y2="445.5703"/><text fill="#000000" font-family="sans-serif" font-size="13" font-weight="bold" lengthAdjust="spacing" textLength="7" x="518" y="440.7139">8</text><text fill="#000000" font-family="sans-serif" font-size="13" lengthAdjust="spacing" textLength="113" x="529" y="440.7139">Mengirim hasil data</text><polygon fill="#2F4F8F" points="308,478.9219,298,482.9219,308,486.9219,304,482.9219" style="stroke:#2F4F8F;stroke-width:1.0;"/><line style="stroke:#2F4F8F;stroke-width:1.0;stroke-dasharray:2.0,2.0;" x1="302" x2="500" y1="482.9219" y2="482.9219"/><text fill="#000000" font-family="sans-serif" font-size="13" font-weight="bold" lengthAdjust="spacing" textLength="7" x="314" y="478.0654">9</text><text fill="#000000" font-family="sans-serif" font-size="13" lengthAdjust="spacing" textLength="155" x="325" y="478.0654">Mengirim hasil ke halaman</text><polygon fill="#2F4F8F" points="52,516.2734,42,520.2734,52,524.2734,48,520.2734" style="stroke:#2F4F8F;stroke-width:1.0;"/><line style="stroke:#2F4F8F;stroke-width:1.0;stroke-dasharray:2.0,2.0;" x1="46" x2="296" y1="520.2734" y2="520.2734"/><text fill="#000000" font-family="sans-serif" font-size="13" font-weight="bold" lengthAdjust="spacing" textLength="14" x="58" y="515.417">10</text><text fill="#000000" font-family="sans-serif" font-size="13" lengthAdjust="spacing" textLength="214" x="76" y="515.417">Menampilkan hasil kepada pengguna</text><!--SRC=[bLDjRzCm4FxkNt4gdwlH2bYP12XP6urfOuY1zX5TQZSvujZ1B-ecn7_7TfAkqM0I-PJuURddxXn7JWgu5J-zK5i1QyBAO0jpk4D9SEqDSRWMacfqS8byZn8oXGshYGlOQUrAVS_GEwryMmh3R4EgmsXXQ-HwJwg27KehZf6nsYy6a1cZz-TQQWClbiMhObM4molQYIjI8jU62pEWR_BJvUhbCOhRfZBQApumYhT5LkI1yHcDeorrgDp4ub3WcF34PLNaHIHbMwVDHBzOB5RBqmFqH9cU0EVwVg8xpzUlDui1-8VgDsCCeotC7cS_0xHf5QoC2ZGFCBj0YIqgk2NhH9iOmn7RQkMCbZ3hCSWfB4NU6D8gyVfZnj5XYLR0R3sy9NJy245IWldxqVWCSjyWj4BvoIqOemHcRtqMBajBoY7K0xIFJZ-IXWsffcoqZff0hB41RAomwW6JwdiR9t0a6lD5cQgmBKb2R0KisJt2tSNcowPN4d_tWOrqc4yAgeeCjK6uSsW0Onie7Nmb7WDmJ4VWXAbzwLKLbZOcE9x7mQT66s8qOcoOYN3P8VkRZzIwWs_A-IRy0ewmwwi3F9Pufib-XhthvSt7Jw6cH7jIUUDFMko4J4RFDzs7ZNQ1B1J__-Q2vh3q88dt9F6nxKZsQ-mbNHnb5umgh_0F]--></g></svg>