<?xml version="1.0" encoding="us-ascii" standalone="no"?><svg xmlns="http://www.w3.org/2000/svg" xmlns:xlink="http://www.w3.org/1999/xlink" contentStyleType="text/css" height="545px" preserveAspectRatio="none" style="width:835px;height:545px;background:#FFFFFF;" version="1.1" viewBox="0 0 835 545" width="835px" zoomAndPan="magnify"><defs/><g><text fill="#000000" font-family="sans-serif" font-size="14" font-weight="bold" lengthAdjust="spacing" textLength="347" x="245.25" y="29.5332">Sequence Diagram - Wali Murid Melihat Nilai Anak</text><rect fill="none" height="187.9453" style="stroke:#000000;stroke-width:1.5;" width="595" x="233.5" y="302.9766"/><rect fill="none" height="79.0547" style="stroke:#000000;stroke-width:1.5;" width="405" x="413.5" y="374.5156"/><line style="stroke:#6B7280;stroke-width:0.5;stroke-dasharray:5.0,5.0;" x1="41" x2="41" y1="121.2188" y2="538.2734"/><line style="stroke:#6B7280;stroke-width:0.5;stroke-dasharray:5.0,5.0;" x1="296.5" x2="296.5" y1="121.2188" y2="538.2734"/><line style="stroke:#6B7280;stroke-width:0.5;stroke-dasharray:5.0,5.0;" x1="487.5" x2="487.5" y1="121.2188" y2="538.2734"/><line style="stroke:#6B7280;stroke-width:0.5;stroke-dasharray:5.0,5.0;" x1="774.5" x2="774.5" y1="121.2188" y2="538.2734"/><text fill="#000000" font-family="sans-serif" font-size="14" lengthAdjust="spacing" textLength="66" x="5" y="118.1426">Wali Murid</text><ellipse cx="41" cy="52.1094" fill="#FFFFFF" rx="8" ry="8" style="stroke:#111827;stroke-width:0.5;"/><path d="M41,60.1094 L41,87.1094 M28,68.1094 L54,68.1094 M41,87.1094 L28,102.1094 M41,87.1094 L54,102.1094 " fill="none" style="stroke:#111827;stroke-width:0.5;"/><text fill="#000000" font-family="sans-serif" font-size="14" lengthAdjust="spacing" textLength="101" x="243.5" y="118.1426">Halaman Sistem</text><path d="M276.5,75.6094 L276.5,99.6094 M276.5,87.6094 L293.5,87.6094 " fill="none" style="stroke:#181818;stroke-width:0.5;"/><ellipse cx="305.5" cy="87.6094" fill="#E2E2F0" rx="12" ry="12" style="stroke:#181818;stroke-width:0.5;"/><text fill="#000000" font-family="sans-serif" font-size="14" lengthAdjust="spacing" textLength="123" x="423.5" y="118.1426">Sistem BimbelOrion</text><ellipse cx="488" cy="87.6094" fill="#E2E2F0" rx="12" ry="12" style="stroke:#181818;stroke-width:0.5;"/><polygon fill="#181818" points="484,75.6094,490,70.6094,488,75.6094,490,80.6094,484,75.6094" style="stroke:#181818;stroke-width:1.0;"/><text fill="#000000" font-family="sans-serif" font-size="14" lengthAdjust="spacing" textLength="61" x="741.5" y="118.1426">Database</text><path d="M757,67.6094 C757,57.6094 775,57.6094 775,57.6094 C775,57.6094 793,57.6094 793,67.6094 L793,93.6094 C793,103.6094 775,103.6094 775,103.6094 C775,103.6094 757,103.6094 757,93.6094 L757,67.6094 " fill="#E2E2F0" style="stroke:#181818;stroke-width:1.5;"/><path d="M757,67.6094 C757,77.6094 775,77.6094 775,77.6094 C775,77.6094 793,77.6094 793,67.6094 " fill="none" style="stroke:#181818;stroke-width:1.5;"/><polygon fill="#2F4F8F" points="285,149.5703,295,153.5703,285,157.5703,289,153.5703" style="stroke:#2F4F8F;stroke-width:1.0;"/><line style="stroke:#2F4F8F;stroke-width:1.0;" x1="41" x2="291" y1="153.5703" y2="153.5703"/><text fill="#000000" font-family="sans-serif" font-size="13" font-weight="bold" lengthAdjust="spacing" textLength="7" x="48" y="148.7139">1</text><text fill="#000000" font-family="sans-serif" font-size="13" lengthAdjust="spacing" textLength="129" x="59" y="148.7139">Buka menu Nilai Anak</text><polygon fill="#2F4F8F" points="476,179.9219,486,183.9219,476,187.9219,480,183.9219" style="stroke:#2F4F8F;stroke-width:1.0;"/><line style="stroke:#2F4F8F;stroke-width:1.0;" x1="297" x2="482" y1="183.9219" y2="183.9219"/><text fill="#000000" font-family="sans-serif" font-size="13" font-weight="bold" lengthAdjust="spacing" textLength="7" x="304" y="179.0654">2</text><text fill="#000000" font-family="sans-serif" font-size="13" lengthAdjust="spacing" textLength="156" x="315" y="179.0654">Meminta halaman wali nilai</text><line style="stroke:#2F4F8F;stroke-width:1.0;" x1="488" x2="530" y1="214.2734" y2="214.2734"/><line style="stroke:#2F4F8F;stroke-width:1.0;" x1="530" x2="530" y1="214.2734" y2="227.2734"/><line style="stroke:#2F4F8F;stroke-width:1.0;" x1="489" x2="530" y1="227.2734" y2="227.2734"/><polygon fill="#2F4F8F" points="499,223.2734,489,227.2734,499,231.2734,495,227.2734" style="stroke:#2F4F8F;stroke-width:1.0;"/><text fill="#000000" font-family="sans-serif" font-size="13" font-weight="bold" lengthAdjust="spacing" textLength="7" x="495" y="209.417">3</text><text fill="#000000" font-family="sans-serif" font-size="13" lengthAdjust="spacing" textLength="221" x="506" y="209.417">Memastikan hak aksesnya wali_murid</text><polygon fill="#2F4F8F" points="763,253.625,773,257.625,763,261.625,767,257.625" style="stroke:#2F4F8F;stroke-width:1.0;"/><line style="stroke:#2F4F8F;stroke-width:1.0;" x1="488" x2="769" y1="257.625" y2="257.625"/><text fill="#000000" font-family="sans-serif" font-size="13" font-weight="bold" lengthAdjust="spacing" textLength="7" x="495" y="252.7686">4</text><text fill="#000000" font-family="sans-serif" font-size="13" lengthAdjust="spacing" textLength="240" x="506" y="252.7686">Mengambil data siswa WHERE wali_id=?</text><polygon fill="#2F4F8F" points="499,283.9766,489,287.9766,499,291.9766,495,287.9766" style="stroke:#2F4F8F;stroke-width:1.0;"/><line style="stroke:#2F4F8F;stroke-width:1.0;stroke-dasharray:2.0,2.0;" x1="493" x2="774" y1="287.9766" y2="287.9766"/><text fill="#000000" font-family="sans-serif" font-size="13" font-weight="bold" lengthAdjust="spacing" textLength="7" x="505" y="283.1201">5</text><text fill="#000000" font-family="sans-serif" font-size="13" lengthAdjust="spacing" textLength="121" x="516" y="283.1201">Mengirim daftar anak</text><path d="M233.5,302.9766 L294.5,302.9766 L294.5,311.3281 L284.5,321.3281 L233.5,321.3281 L233.5,302.9766 " fill="#EEEEEE" style="stroke:#000000;stroke-width:1.5;"/><rect fill="none" height="187.9453" style="stroke:#000000;stroke-width:1.5;" width="595" x="233.5" y="302.9766"/><text fill="#000000" font-family="sans-serif" font-size="13" font-weight="bold" lengthAdjust="spacing" textLength="16" x="248.5" y="317.4717">alt</text><text fill="#000000" font-family="sans-serif" font-size="11" font-weight="bold" lengthAdjust="spacing" textLength="150" x="309.5" y="316.3955">[Tidak ada anak terhubung]</text><polygon fill="#2F4F8F" points="308,339.6797,298,343.6797,308,347.6797,304,343.6797" style="stroke:#2F4F8F;stroke-width:1.0;"/><line style="stroke:#2F4F8F;stroke-width:1.0;stroke-dasharray:2.0,2.0;" x1="302" x2="487" y1="343.6797" y2="343.6797"/><text fill="#000000" font-family="sans-serif" font-size="13" font-weight="bold" lengthAdjust="spacing" textLength="7" x="314" y="338.8232">6</text><text fill="#000000" font-family="sans-serif" font-size="13" lengthAdjust="spacing" textLength="155" x="325" y="338.8232">Mengirim hasil ke halaman</text><line style="stroke:#000000;stroke-width:1.0;stroke-dasharray:2.0,2.0;" x1="233.5" x2="828.5" y1="352.6797" y2="352.6797"/><text fill="#000000" font-family="sans-serif" font-size="11" font-weight="bold" lengthAdjust="spacing" textLength="119" x="238.5" y="364.0986">[Ada anak terhubung]</text><path d="M413.5,374.5156 L486.5,374.5156 L486.5,382.8672 L476.5,392.8672 L413.5,392.8672 L413.5,374.5156 " fill="#EEEEEE" style="stroke:#000000;stroke-width:1.5;"/><rect fill="none" height="79.0547" style="stroke:#000000;stroke-width:1.5;" width="405" x="413.5" y="374.5156"/><text fill="#000000" font-family="sans-serif" font-size="13" font-weight="bold" lengthAdjust="spacing" textLength="28" x="428.5" y="389.0107">loop</text><text fill="#000000" font-family="sans-serif" font-size="11" font-weight="bold" lengthAdjust="spacing" textLength="106" x="501.5" y="387.9346">[Untuk setiap anak]</text><polygon fill="#2F4F8F" points="763,411.2188,773,415.2188,763,419.2188,767,415.2188" style="stroke:#2F4F8F;stroke-width:1.0;"/><line style="stroke:#2F4F8F;stroke-width:1.0;" x1="488" x2="769" y1="415.2188" y2="415.2188"/><text fill="#000000" font-family="sans-serif" font-size="13" font-weight="bold" lengthAdjust="spacing" textLength="7" x="495" y="410.3623">7</text><text fill="#000000" font-family="sans-serif" font-size="13" lengthAdjust="spacing" textLength="252" x="506" y="410.3623">Mengambil data nilai anak JOIN jadwal/guru</text><polygon fill="#2F4F8F" points="499,441.5703,489,445.5703,499,449.5703,495,445.5703" style="stroke:#2F4F8F;stroke-width:1.0;"/><line style="stroke:#2F4F8F;stroke-width:1.0;stroke-dasharray:2.0,2.0;" x1="493" x2="774" y1="445.5703" y2="445.5703"/><text fill="#000000" font-family="sans-serif" font-size="13" font-weight="bold" lengthAdjust="spacing" textLength="7" x="505" y="440.7139">8</text><text fill="#000000" font-family="sans-serif" font-size="13" lengthAdjust="spacing" textLength="113" x="516" y="440.7139">Mengirim hasil data</text><polygon fill="#2F4F8F" points="308,478.9219,298,482.9219,308,486.9219,304,482.9219" style="stroke:#2F4F8F;stroke-width:1.0;"/><line style="stroke:#2F4F8F;stroke-width:1.0;stroke-dasharray:2.0,2.0;" x1="302" x2="487" y1="482.9219" y2="482.9219"/><text fill="#000000" font-family="sans-serif" font-size="13" font-weight="bold" lengthAdjust="spacing" textLength="7" x="314" y="478.0654">9</text><text fill="#000000" font-family="sans-serif" font-size="13" lengthAdjust="spacing" textLength="155" x="325" y="478.0654">Mengirim hasil ke halaman</text><polygon fill="#2F4F8F" points="52,516.2734,42,520.2734,52,524.2734,48,520.2734" style="stroke:#2F4F8F;stroke-width:1.0;"/><line style="stroke:#2F4F8F;stroke-width:1.0;stroke-dasharray:2.0,2.0;" x1="46" x2="296" y1="520.2734" y2="520.2734"/><text fill="#000000" font-family="sans-serif" font-size="13" font-weight="bold" lengthAdjust="spacing" textLength="14" x="58" y="515.417">10</text><text fill="#000000" font-family="sans-serif" font-size="13" lengthAdjust="spacing" textLength="214" x="76" y="515.417">Menampilkan hasil kepada pengguna</text><!--SRC=[bLDRRzCm57xthpWApnMq0bOc0MhMHWFjWXXeZ-YaTfD373luecwQ-E_OJjAb6amYJydvBkSxFeuZ9mNSY5zUgAs0DM5bi8KPtA8akFI6E5mAIJKwk2A912k53Qk92zXfxKfznz0xhNnR2iDiGwh3w61hv7fFge8TIYkcoDZiWG6iZD7xCosrWHUBudMnB4BnWdRYWfJ8jU723EZR_6InV3L5STjKHdl51qRnhbWLUM1yGUDeInqgTsHnQ30bF75P5daHIQkjq-P8Fv_FbukJ0_H4cPu0v_hkI7UMhzzivWFm3zLlnXX6MyWUZpu3j6aJh8mADFUGdQF45XNSa7MYJOoXnBPQEQCbP3q6EOMbo6j3MYLUNsOS7PPe1MJhuIsXuqS8aXBCFep6fv3x1g4LoaylmPWa47ldqt1LMb8EeHwWVJHIKSA6JCTaj8wQmAkn0MoiiEeUa-X76-UVYCPqKQOgR4kI40S1ItQFS7k- -RhfbSJVVsGZ7MP73LL5XjeWt3aqW74Ab0w-4Oy1EAOIE65gNtfLXPMD2QQdSV2fqOOOZHZdPI9STLZzpKTgtS5tvNmJVW17sFNT0HvRF3DaEiBUzFFrfoluYJpC-hBonYUBvyVjOqQZG1QA__zOGNFOTf34-v7us7Oa-mNsaYuUOXUCAg_m3m00]--></g></svg>