<?xml version="1.0" encoding="us-ascii" standalone="no"?><svg xmlns="http://www.w3.org/2000/svg" xmlns:xlink="http://www.w3.org/1999/xlink" contentStyleType="text/css" height="452px" preserveAspectRatio="none" style="width:864px;height:452px;background:#FFFFFF;" version="1.1" viewBox="0 0 864 452" width="864px" zoomAndPan="magnify"><defs/><g><text fill="#000000" font-family="sans-serif" font-size="14" font-weight="bold" lengthAdjust="spacing" textLength="373" x="246.75" y="29.5332">Sequence Diagram - Wali Murid Melihat Absensi Anak</text><rect fill="none" height="94.8906" style="stroke:#000000;stroke-width:1.5;" width="351" x="226.5" y="302.9766"/><line style="stroke:#6B7280;stroke-width:0.5;stroke-dasharray:5.0,5.0;" x1="41" x2="41" y1="121.2188" y2="445.2188"/><line style="stroke:#6B7280;stroke-width:0.5;stroke-dasharray:5.0,5.0;" x1="289.5" x2="289.5" y1="121.2188" y2="445.2188"/><line style="stroke:#6B7280;stroke-width:0.5;stroke-dasharray:5.0,5.0;" x1="502.5" x2="502.5" y1="121.2188" y2="445.2188"/><line style="stroke:#6B7280;stroke-width:0.5;stroke-dasharray:5.0,5.0;" x1="828.5" x2="828.5" y1="121.2188" y2="445.2188"/><text fill="#000000" font-family="sans-serif" font-size="14" lengthAdjust="spacing" textLength="66" x="5" y="118.1426">Wali Murid</text><ellipse cx="41" cy="52.1094" fill="#FFFFFF" rx="8" ry="8" style="stroke:#111827;stroke-width:0.5;"/><path d="M41,60.1094 L41,87.1094 M28,68.1094 L54,68.1094 M41,87.1094 L28,102.1094 M41,87.1094 L54,102.1094 " fill="none" style="stroke:#111827;stroke-width:0.5;"/><text fill="#000000" font-family="sans-serif" font-size="14" lengthAdjust="spacing" textLength="101" x="236.5" y="118.1426">Halaman Sistem</text><path d="M269.5,75.6094 L269.5,99.6094 M269.5,87.6094 L286.5,87.6094 " fill="none" style="stroke:#181818;stroke-width:0.5;"/><ellipse cx="298.5" cy="87.6094" fill="#E2E2F0" rx="12" ry="12" style="stroke:#181818;stroke-width:0.5;"/><text fill="#000000" font-family="sans-serif" font-size="14" lengthAdjust="spacing" textLength="123" x="438.5" y="118.1426">Sistem BimbelOrion</text><ellipse cx="503" cy="87.6094" fill="#E2E2F0" rx="12" ry="12" style="stroke:#181818;stroke-width:0.5;"/><polygon fill="#181818" points="499,75.6094,505,70.6094,503,75.6094,505,80.6094,499,75.6094" style="stroke:#181818;stroke-width:1.0;"/><text fill="#000000" font-family="sans-serif" font-size="14" lengthAdjust="spacing" textLength="61" x="795.5" y="118.1426">Database</text><path d="M811,67.6094 C811,57.6094 829,57.6094 829,57.6094 C829,57.6094 847,57.6094 847,67.6094 L847,93.6094 C847,103.6094 829,103.6094 829,103.6094 C829,103.6094 811,103.6094 811,93.6094 L811,67.6094 " fill="#E2E2F0" style="stroke:#181818;stroke-width:1.5;"/><path d="M811,67.6094 C811,77.6094 829,77.6094 829,77.6094 C829,77.6094 847,77.6094 847,67.6094 " fill="none" style="stroke:#181818;stroke-width:1.5;"/><polygon fill="#2F4F8F" points="278,149.5703,288,153.5703,278,157.5703,282,153.5703" style="stroke:#2F4F8F;stroke-width:1.0;"/><line style="stroke:#2F4F8F;stroke-width:1.0;" x1="41" x2="284" y1="153.5703" y2="153.5703"/><text fill="#000000" font-family="sans-serif" font-size="13" font-weight="bold" lengthAdjust="spacing" textLength="7" x="48" y="148.7139">1</text><text fill="#000000" font-family="sans-serif" font-size="13" lengthAdjust="spacing" textLength="151" x="59" y="148.7139">Buka menu Absensi Anak</text><polygon fill="#2F4F8F" points="491,179.9219,501,183.9219,491,187.9219,495,183.9219" style="stroke:#2F4F8F;stroke-width:1.0;"/><line style="stroke:#2F4F8F;stroke-width:1.0;" x1="290" x2="497" y1="183.9219" y2="183.9219"/><text fill="#000000" font-family="sans-serif" font-size="13" font-weight="bold" lengthAdjust="spacing" textLength="7" x="297" y="179.0654">2</text><text fill="#000000" font-family="sans-serif" font-size="13" lengthAdjust="spacing" textLength="178" x="308" y="179.0654">Meminta halaman wali absensi</text><line style="stroke:#2F4F8F;stroke-width:1.0;" x1="503" x2="545" y1="214.2734" y2="214.2734"/><line style="stroke:#2F4F8F;stroke-width:1.0;" x1="545" x2="545" y1="214.2734" y2="227.2734"/><line style="stroke:#2F4F8F;stroke-width:1.0;" x1="504" x2="545" y1="227.2734" y2="227.2734"/><polygon fill="#2F4F8F" points="514,223.2734,504,227.2734,514,231.2734,510,227.2734" style="stroke:#2F4F8F;stroke-width:1.0;"/><text fill="#000000" font-family="sans-serif" font-size="13" font-weight="bold" lengthAdjust="spacing" textLength="7" x="510" y="209.417">3</text><text fill="#000000" font-family="sans-serif" font-size="13" lengthAdjust="spacing" textLength="221" x="521" y="209.417">Memastikan hak aksesnya wali_murid</text><polygon fill="#2F4F8F" points="817,253.625,827,257.625,817,261.625,821,257.625" style="stroke:#2F4F8F;stroke-width:1.0;"/><line style="stroke:#2F4F8F;stroke-width:1.0;" x1="503" x2="823" y1="257.625" y2="257.625"/><text fill="#000000" font-family="sans-serif" font-size="13" font-weight="bold" lengthAdjust="spacing" textLength="7" x="510" y="252.7686">4</text><text fill="#000000" font-family="sans-serif" font-size="13" lengthAdjust="spacing" textLength="291" x="521" y="252.7686">Mengambil data absensi anak berdasarkan wali_id</text><polygon fill="#2F4F8F" points="514,283.9766,504,287.9766,514,291.9766,510,287.9766" style="stroke:#2F4F8F;stroke-width:1.0;"/><line style="stroke:#2F4F8F;stroke-width:1.0;stroke-dasharray:2.0,2.0;" x1="508" x2="828" y1="287.9766" y2="287.9766"/><text fill="#000000" font-family="sans-serif" font-size="13" font-weight="bold" lengthAdjust="spacing" textLength="7" x="520" y="283.1201">5</text><text fill="#000000" font-family="sans-serif" font-size="13" lengthAdjust="spacing" textLength="170" x="531" y="283.1201">Mengirim daftar absensi anak</text><path d="M226.5,302.9766 L287.5,302.9766 L287.5,311.3281 L277.5,321.3281 L226.5,321.3281 L226.5,302.9766 " fill="#EEEEEE" style="stroke:#000000;stroke-width:1.5;"/><rect fill="none" height="94.8906" style="stroke:#000000;stroke-width:1.5;" width="351" x="226.5" y="302.9766"/><text fill="#000000" font-family="sans-serif" font-size="13" font-weight="bold" lengthAdjust="spacing" textLength="16" x="241.5" y="317.4717">alt</text><text fill="#000000" font-family="sans-serif" font-size="11" font-weight="bold" lengthAdjust="spacing" textLength="123" x="302.5" y="316.3955">[Data absensi kosong]</text><polygon fill="#2F4F8F" points="301,339.6797,291,343.6797,301,347.6797,297,343.6797" style="stroke:#2F4F8F;stroke-width:1.0;"/><line style="stroke:#2F4F8F;stroke-width:1.0;stroke-dasharray:2.0,2.0;" x1="295" x2="502" y1="343.6797" y2="343.6797"/><text fill="#000000" font-family="sans-serif" font-size="13" font-weight="bold" lengthAdjust="spacing" textLength="7" x="307" y="338.8232">6</text><text fill="#000000" font-family="sans-serif" font-size="13" lengthAdjust="spacing" textLength="155" x="318" y="338.8232">Mengirim hasil ke halaman</text><line style="stroke:#000000;stroke-width:1.0;stroke-dasharray:2.0,2.0;" x1="226.5" x2="577.5" y1="352.6797" y2="352.6797"/><text fill="#000000" font-family="sans-serif" font-size="11" font-weight="bold" lengthAdjust="spacing" textLength="100" x="231.5" y="364.0986">[Data absensi ada]</text><polygon fill="#2F4F8F" points="301,385.8672,291,389.8672,301,393.8672,297,389.8672" style="stroke:#2F4F8F;stroke-width:1.0;"/><line style="stroke:#2F4F8F;stroke-width:1.0;stroke-dasharray:2.0,2.0;" x1="295" x2="502" y1="389.8672" y2="389.8672"/><text fill="#000000" font-family="sans-serif" font-size="13" font-weight="bold" lengthAdjust="spacing" textLength="7" x="307" y="385.0107">7</text><text fill="#000000" font-family="sans-serif" font-size="13" lengthAdjust="spacing" textLength="155" x="318" y="385.0107">Mengirim hasil ke halaman</text><polygon fill="#2F4F8F" points="52,423.2188,42,427.2188,52,431.2188,48,427.2188" style="stroke:#2F4F8F;stroke-width:1.0;"/><line style="stroke:#2F4F8F;stroke-width:1.0;stroke-dasharray:2.0,2.0;" x1="46" x2="289" y1="427.2188" y2="427.2188"/><text fill="#000000" font-family="sans-serif" font-size="13" font-weight="bold" lengthAdjust="spacing" textLength="7" x="58" y="422.3623">8</text><text fill="#000000" font-family="sans-serif" font-size="13" lengthAdjust="spacing" textLength="214" x="69" y="422.3623">Menampilkan hasil kepada pengguna</text><!--SRC=[bL9BRzGm4BxxLup2UILs1NJf0Idf4d5e1L8F7Aj9uar6jiV1ThIj4FyTv-5jeee3EINpFURBp0GAMiAZ_3L8hYMS25k71dRm4pN1m-2eWGUfgSC0UUKbUuASKOcE6WbdQqDbdmKEmV9WAkc4LyGzZXw-myPUY5iue_PoZQHslmL0xfozt5bj7Rmxb1_AOncBztIMzyIoiAwHRa4_5JU7u_irYhLgdHsuMHZbvp8lYyZuWIvGJJros5XS6wm9RroEPL6EfBmErctq-_t-UBYvGc-KqnFXmZvlT7V5wUFN_GByG_L7286ZBMIlmyy0_RGBKOqAT2-GVKED1XaUoGTf9iPI4hNbuAo6RCQWeBWK_TsHvOatbqM30Ilq4hBJyZQXwIC6cHBilYJZMoW6XM0a3zipI5aYTVQ-ZUTYY0D2jq2NqGfdaLXoRUde0wd8x501AYyzl-0aUpBZ35QYb72KSOkc8WtZpoH_m1WAuXqswD6ffVjJz4XAs6rwSqkEJFGu1tGR5u4wJFskLMMzvJOkCULPp-TgrQ6FePHC_ozaFFwj4JRu_oxSl0uxIiO5JNmqFUbvUhEaZ_RGHwDsOFmB]--></g></svg>