<?xml version="1.0" encoding="us-ascii" standalone="no"?><svg xmlns="http://www.w3.org/2000/svg" xmlns:xlink="http://www.w3.org/1999/xlink" contentStyleType="text/css" height="902px" preserveAspectRatio="none" style="width:977px;height:902px;background:#FFFFFF;" version="1.1" viewBox="0 0 977 902" width="977px" zoomAndPan="magnify"><defs/><g><text fill="#000000" font-family="sans-serif" font-size="14" font-weight="bold" lengthAdjust="spacing" textLength="374" x="307.75" y="29.5332">Sequence Diagram - Wali Murid Mengelola Profil Saya</text><rect fill="none" height="264.4844" style="stroke:#000000;stroke-width:1.5;" width="950.5" x="20" y="614.4922"/><rect fill="none" height="94.8906" style="stroke:#000000;stroke-width:1.5;" width="486" x="474.5" y="686.0313"/><line style="stroke:#6B7280;stroke-width:0.5;stroke-dasharray:5.0,5.0;" x1="66" x2="66" y1="121.2188" y2="895.9766"/><line style="stroke:#6B7280;stroke-width:0.5;stroke-dasharray:5.0,5.0;" x1="321.5" x2="321.5" y1="121.2188" y2="895.9766"/><line style="stroke:#6B7280;stroke-width:0.5;stroke-dasharray:5.0,5.0;" x1="548.5" x2="548.5" y1="121.2188" y2="895.9766"/><line style="stroke:#6B7280;stroke-width:0.5;stroke-dasharray:5.0,5.0;" x1="916.5" x2="916.5" y1="121.2188" y2="895.9766"/><text fill="#000000" font-family="sans-serif" font-size="14" lengthAdjust="spacing" textLength="66" x="30" y="118.1426">Wali Murid</text><ellipse cx="66" cy="52.1094" fill="#FFFFFF" rx="8" ry="8" style="stroke:#111827;stroke-width:0.5;"/><path d="M66,60.1094 L66,87.1094 M53,68.1094 L79,68.1094 M66,87.1094 L53,102.1094 M66,87.1094 L79,102.1094 " fill="none" style="stroke:#111827;stroke-width:0.5;"/><text fill="#000000" font-family="sans-serif" font-size="14" lengthAdjust="spacing" textLength="101" x="268.5" y="118.1426">Halaman Sistem</text><path d="M301.5,75.6094 L301.5,99.6094 M301.5,87.6094 L318.5,87.6094 " fill="none" style="stroke:#181818;stroke-width:0.5;"/><ellipse cx="330.5" cy="87.6094" fill="#E2E2F0" rx="12" ry="12" style="stroke:#181818;stroke-width:0.5;"/><text fill="#000000" font-family="sans-serif" font-size="14" lengthAdjust="spacing" textLength="123" x="484.5" y="118.1426">Sistem BimbelOrion</text><ellipse cx="549" cy="87.6094" fill="#E2E2F0" rx="12" ry="12" style="stroke:#181818;stroke-width:0.5;"/><polygon fill="#181818" points="545,75.6094,551,70.6094,549,75.6094,551,80.6094,545,75.6094" style="stroke:#181818;stroke-width:1.0;"/><text fill="#000000" font-family="sans-serif" font-size="14" lengthAdjust="spacing" textLength="61" x="883.5" y="118.1426">Database</text><path d="M899,67.6094 C899,57.6094 917,57.6094 917,57.6094 C917,57.6094 935,57.6094 935,67.6094 L935,93.6094 C935,103.6094 917,103.6094 917,103.6094 C917,103.6094 899,103.6094 899,93.6094 L899,67.6094 " fill="#E2E2F0" style="stroke:#181818;stroke-width:1.5;"/><path d="M899,67.6094 C899,77.6094 917,77.6094 917,77.6094 C917,77.6094 935,77.6094 935,67.6094 " fill="none" style="stroke:#181818;stroke-width:1.5;"/><polygon fill="#2F4F8F" points="310,149.5703,320,153.5703,310,157.5703,314,153.5703" style="stroke:#2F4F8F;stroke-width:1.0;"/><line style="stroke:#2F4F8F;stroke-width:1.0;" x1="66" x2="316" y1="153.5703" y2="153.5703"/><text fill="#000000" font-family="sans-serif" font-size="13" font-weight="bold" lengthAdjust="spacing" textLength="7" x="73" y="148.7139">1</text><text fill="#000000" font-family="sans-serif" font-size="13" lengthAdjust="spacing" textLength="99" x="84" y="148.7139">Buka menu Profil</text><polygon fill="#2F4F8F" points="537,179.9219,547,183.9219,537,187.9219,541,183.9219" style="stroke:#2F4F8F;stroke-width:1.0;"/><line style="stroke:#2F4F8F;stroke-width:1.0;" x1="322" x2="543" y1="183.9219" y2="183.9219"/><text fill="#000000" font-family="sans-serif" font-size="13" font-weight="bold" lengthAdjust="spacing" textLength="7" x="329" y="179.0654">2</text><text fill="#000000" font-family="sans-serif" font-size="13" lengthAdjust="spacing" textLength="160" x="340" y="179.0654">Meminta halaman wali profil</text><line style="stroke:#2F4F8F;stroke-width:1.0;" x1="549" x2="591" y1="214.2734" y2="214.2734"/><line style="stroke:#2F4F8F;stroke-width:1.0;" x1="591" x2="591" y1="214.2734" y2="227.2734"/><line style="stroke:#2F4F8F;stroke-width:1.0;" x1="550" x2="591" y1="227.2734" y2="227.2734"/><polygon fill="#2F4F8F" points="560,223.2734,550,227.2734,560,231.2734,556,227.2734" style="stroke:#2F4F8F;stroke-width:1.0;"/><text fill="#000000" font-family="sans-serif" font-size="13" font-weight="bold" lengthAdjust="spacing" textLength="7" x="556" y="209.417">3</text><text fill="#000000" font-family="sans-serif" font-size="13" lengthAdjust="spacing" textLength="221" x="567" y="209.417">Memastikan hak aksesnya wali_murid</text><polygon fill="#2F4F8F" points="905,253.625,915,257.625,905,261.625,909,257.625" style="stroke:#2F4F8F;stroke-width:1.0;"/><line style="stroke:#2F4F8F;stroke-width:1.0;" x1="549" x2="911" y1="257.625" y2="257.625"/><text fill="#000000" font-family="sans-serif" font-size="13" font-weight="bold" lengthAdjust="spacing" textLength="7" x="556" y="252.7686">4</text><text fill="#000000" font-family="sans-serif" font-size="13" lengthAdjust="spacing" textLength="225" x="567" y="252.7686">Mengambil data users JOIN wali_murid</text><polygon fill="#2F4F8F" points="560,283.9766,550,287.9766,560,291.9766,556,287.9766" style="stroke:#2F4F8F;stroke-width:1.0;"/><line style="stroke:#2F4F8F;stroke-width:1.0;stroke-dasharray:2.0,2.0;" x1="554" x2="916" y1="287.9766" y2="287.9766"/><text fill="#000000" font-family="sans-serif" font-size="13" font-weight="bold" lengthAdjust="spacing" textLength="7" x="566" y="283.1201">5</text><text fill="#000000" font-family="sans-serif" font-size="13" lengthAdjust="spacing" textLength="113" x="577" y="283.1201">Mengirim hasil data</text><polygon fill="#2F4F8F" points="905,314.3281,915,318.3281,905,322.3281,909,318.3281" style="stroke:#2F4F8F;stroke-width:1.0;"/><line style="stroke:#2F4F8F;stroke-width:1.0;" x1="549" x2="911" y1="318.3281" y2="318.3281"/><text fill="#000000" font-family="sans-serif" font-size="13" font-weight="bold" lengthAdjust="spacing" textLength="7" x="556" y="313.4717">6</text><text fill="#000000" font-family="sans-serif" font-size="13" lengthAdjust="spacing" textLength="290" x="567" y="313.4717">Mengambil data statistik anak/jadwal/nilai/absensi</text><polygon fill="#2F4F8F" points="560,344.6797,550,348.6797,560,352.6797,556,348.6797" style="stroke:#2F4F8F;stroke-width:1.0;"/><line style="stroke:#2F4F8F;stroke-width:1.0;stroke-dasharray:2.0,2.0;" x1="554" x2="916" y1="348.6797" y2="348.6797"/><text fill="#000000" font-family="sans-serif" font-size="13" font-weight="bold" lengthAdjust="spacing" textLength="7" x="566" y="343.8232">7</text><text fill="#000000" font-family="sans-serif" font-size="13" lengthAdjust="spacing" textLength="113" x="577" y="343.8232">Mengirim hasil data</text><polygon fill="#2F4F8F" points="905,375.0313,915,379.0313,905,383.0313,909,379.0313" style="stroke:#2F4F8F;stroke-width:1.0;"/><line style="stroke:#2F4F8F;stroke-width:1.0;" x1="549" x2="911" y1="379.0313" y2="379.0313"/><text fill="#000000" font-family="sans-serif" font-size="13" font-weight="bold" lengthAdjust="spacing" textLength="7" x="556" y="374.1748">8</text><text fill="#000000" font-family="sans-serif" font-size="13" lengthAdjust="spacing" textLength="240" x="567" y="374.1748">Mengambil data siswa WHERE wali_id=?</text><polygon fill="#2F4F8F" points="560,405.3828,550,409.3828,560,413.3828,556,409.3828" style="stroke:#2F4F8F;stroke-width:1.0;"/><line style="stroke:#2F4F8F;stroke-width:1.0;stroke-dasharray:2.0,2.0;" x1="554" x2="916" y1="409.3828" y2="409.3828"/><text fill="#000000" font-family="sans-serif" font-size="13" font-weight="bold" lengthAdjust="spacing" textLength="7" x="566" y="404.5264">9</text><text fill="#000000" font-family="sans-serif" font-size="13" lengthAdjust="spacing" textLength="59" x="577" y="404.5264">Data anak</text><polygon fill="#2F4F8F" points="333,435.7344,323,439.7344,333,443.7344,329,439.7344" style="stroke:#2F4F8F;stroke-width:1.0;"/><line style="stroke:#2F4F8F;stroke-width:1.0;stroke-dasharray:2.0,2.0;" x1="327" x2="548" y1="439.7344" y2="439.7344"/><text fill="#000000" font-family="sans-serif" font-size="13" font-weight="bold" lengthAdjust="spacing" textLength="14" x="339" y="434.8779">10</text><text fill="#000000" font-family="sans-serif" font-size="13" lengthAdjust="spacing" textLength="155" x="357" y="434.8779">Mengirim hasil ke halaman</text><polygon fill="#2F4F8F" points="77,466.0859,67,470.0859,77,474.0859,73,470.0859" style="stroke:#2F4F8F;stroke-width:1.0;"/><line style="stroke:#2F4F8F;stroke-width:1.0;stroke-dasharray:2.0,2.0;" x1="71" x2="321" y1="470.0859" y2="470.0859"/><text fill="#000000" font-family="sans-serif" font-size="13" font-weight="bold" lengthAdjust="spacing" textLength="14" x="83" y="465.2295">11</text><text fill="#000000" font-family="sans-serif" font-size="13" lengthAdjust="spacing" textLength="214" x="101" y="465.2295">Menampilkan hasil kepada pengguna</text><polygon fill="#2F4F8F" points="310,521.7891,320,525.7891,310,529.7891,314,525.7891" style="stroke:#2F4F8F;stroke-width:1.0;"/><line style="stroke:#2F4F8F;stroke-width:1.0;" x1="66" x2="316" y1="525.7891" y2="525.7891"/><text fill="#000000" font-family="sans-serif" font-size="13" font-weight="bold" lengthAdjust="spacing" textLength="14" x="73" y="520.9326">12</text><text fill="#000000" font-family="sans-serif" font-size="13" lengthAdjust="spacing" textLength="172" x="91" y="520.9326">Mengirim form profil/password</text><polygon fill="#2F4F8F" points="537,552.1406,547,556.1406,537,560.1406,541,556.1406" style="stroke:#2F4F8F;stroke-width:1.0;"/><line style="stroke:#2F4F8F;stroke-width:1.0;" x1="322" x2="543" y1="556.1406" y2="556.1406"/><text fill="#000000" font-family="sans-serif" font-size="13" font-weight="bold" lengthAdjust="spacing" textLength="14" x="329" y="551.2842">13</text><text fill="#000000" font-family="sans-serif" font-size="13" lengthAdjust="spacing" textLength="185" x="347" y="551.2842">Mengirim data formulir wali profil</text><line style="stroke:#2F4F8F;stroke-width:1.0;" x1="549" x2="591" y1="586.4922" y2="586.4922"/><line style="stroke:#2F4F8F;stroke-width:1.0;" x1="591" x2="591" y1="586.4922" y2="599.4922"/><line style="stroke:#2F4F8F;stroke-width:1.0;" x1="550" x2="591" y1="599.4922" y2="599.4922"/><polygon fill="#2F4F8F" points="560,595.4922,550,599.4922,560,603.4922,556,599.4922" style="stroke:#2F4F8F;stroke-width:1.0;"/><text fill="#000000" font-family="sans-serif" font-size="13" font-weight="bold" lengthAdjust="spacing" textLength="14" x="556" y="581.6357">14</text><text fill="#000000" font-family="sans-serif" font-size="13" lengthAdjust="spacing" textLength="206" x="574" y="581.6357">Memeriksa kode keamanan formulir</text><path d="M20,614.4922 L81,614.4922 L81,622.8438 L71,632.8438 L20,632.8438 L20,614.4922 " fill="#EEEEEE" style="stroke:#000000;stroke-width:1.5;"/><rect fill="none" height="264.4844" style="stroke:#000000;stroke-width:1.5;" width="950.5" x="20" y="614.4922"/><text fill="#000000" font-family="sans-serif" font-size="13" font-weight="bold" lengthAdjust="spacing" textLength="16" x="35" y="628.9873">alt</text><text fill="#000000" font-family="sans-serif" font-size="11" font-weight="bold" lengthAdjust="spacing" textLength="209" x="96" y="627.9111">[kode keamanan formulir tidak benar]</text><polygon fill="#2F4F8F" points="333,651.1953,323,655.1953,333,659.1953,329,655.1953" style="stroke:#2F4F8F;stroke-width:1.0;"/><line style="stroke:#2F4F8F;stroke-width:1.0;stroke-dasharray:2.0,2.0;" x1="327" x2="548" y1="655.1953" y2="655.1953"/><text fill="#000000" font-family="sans-serif" font-size="13" font-weight="bold" lengthAdjust="spacing" textLength="14" x="339" y="650.3389">15</text><text fill="#000000" font-family="sans-serif" font-size="13" lengthAdjust="spacing" textLength="119" x="357" y="650.3389">Mengirim hasil gagal</text><line style="stroke:#000000;stroke-width:1.0;stroke-dasharray:2.0,2.0;" x1="20" x2="970.5" y1="664.1953" y2="664.1953"/><text fill="#000000" font-family="sans-serif" font-size="11" font-weight="bold" lengthAdjust="spacing" textLength="179" x="25" y="675.6143">[kode keamanan formulir benar]</text><path d="M474.5,686.0313 L535.5,686.0313 L535.5,694.3828 L525.5,704.3828 L474.5,704.3828 L474.5,686.0313 " fill="#EEEEEE" style="stroke:#000000;stroke-width:1.5;"/><rect fill="none" height="94.8906" style="stroke:#000000;stroke-width:1.5;" width="486" x="474.5" y="686.0313"/><text fill="#000000" font-family="sans-serif" font-size="13" font-weight="bold" lengthAdjust="spacing" textLength="16" x="489.5" y="700.5264">alt</text><text fill="#000000" font-family="sans-serif" font-size="11" font-weight="bold" lengthAdjust="spacing" textLength="86" x="550.5" y="699.4502">[update-profile]</text><polygon fill="#2F4F8F" points="905,722.7344,915,726.7344,905,730.7344,909,726.7344" style="stroke:#2F4F8F;stroke-width:1.0;"/><line style="stroke:#2F4F8F;stroke-width:1.0;" x1="549" x2="911" y1="726.7344" y2="726.7344"/><text fill="#000000" font-family="sans-serif" font-size="13" font-weight="bold" lengthAdjust="spacing" textLength="14" x="556" y="721.8779">16</text><text fill="#000000" font-family="sans-serif" font-size="13" lengthAdjust="spacing" textLength="277" x="574" y="721.8779">Memperbarui data users + wali_murid jika benar</text><line style="stroke:#000000;stroke-width:1.0;stroke-dasharray:2.0,2.0;" x1="474.5" x2="960.5" y1="735.7344" y2="735.7344"/><text fill="#000000" font-family="sans-serif" font-size="11" font-weight="bold" lengthAdjust="spacing" textLength="108" x="479.5" y="747.1533">[change-password]</text><polygon fill="#2F4F8F" points="905,768.9219,915,772.9219,905,776.9219,909,772.9219" style="stroke:#2F4F8F;stroke-width:1.0;"/><line style="stroke:#2F4F8F;stroke-width:1.0;" x1="549" x2="911" y1="772.9219" y2="772.9219"/><text fill="#000000" font-family="sans-serif" font-size="13" font-weight="bold" lengthAdjust="spacing" textLength="14" x="556" y="768.0654">17</text><text fill="#000000" font-family="sans-serif" font-size="13" lengthAdjust="spacing" textLength="326" x="574" y="768.0654">Mengambil data password lalu UPDATE users.password</text><polygon fill="#2F4F8F" points="560,806.2734,550,810.2734,560,814.2734,556,810.2734" style="stroke:#2F4F8F;stroke-width:1.0;"/><line style="stroke:#2F4F8F;stroke-width:1.0;stroke-dasharray:2.0,2.0;" x1="554" x2="916" y1="810.2734" y2="810.2734"/><text fill="#000000" font-family="sans-serif" font-size="13" font-weight="bold" lengthAdjust="spacing" textLength="14" x="566" y="805.417">18</text><text fill="#000000" font-family="sans-serif" font-size="13" lengthAdjust="spacing" textLength="127" x="584" y="805.417">Mengirim hasil proses</text><polygon fill="#2F4F8F" points="333,836.625,323,840.625,333,844.625,329,840.625" style="stroke:#2F4F8F;stroke-width:1.0;"/><line style="stroke:#2F4F8F;stroke-width:1.0;stroke-dasharray:2.0,2.0;" x1="327" x2="548" y1="840.625" y2="840.625"/><text fill="#000000" font-family="sans-serif" font-size="13" font-weight="bold" lengthAdjust="spacing" textLength="14" x="339" y="835.7686">19</text><text fill="#000000" font-family="sans-serif" font-size="13" lengthAdjust="spacing" textLength="166" x="357" y="835.7686">Mengalihkan page=wali-profil</text><polygon fill="#2F4F8F" points="77,866.9766,67,870.9766,77,874.9766,73,870.9766" style="stroke:#2F4F8F;stroke-width:1.0;"/><line style="stroke:#2F4F8F;stroke-width:1.0;stroke-dasharray:2.0,2.0;" x1="71" x2="321" y1="870.9766" y2="870.9766"/><text fill="#000000" font-family="sans-serif" font-size="13" font-weight="bold" lengthAdjust="spacing" textLength="14" x="83" y="866.1201">20</text><text fill="#000000" font-family="sans-serif" font-size="13" lengthAdjust="spacing" textLength="129" x="101" y="866.1201">Tampilkan pesan hasil</text><!--SRC=[hLHDRzD04BtxLup24OMG2cYeL53Sn2gefHKjwX6DuuqpzNhNxAwLHeZ_pgo_OjEcwe5Sakoyz-RhxJfoKi2D-5KAjHAm84mDvZ26EvG4bwMX12w5IeNK4k7Qw3L9kC4T1XjA1AorTh5-2B1qMfLvB4nWCr85UX6xmKHlIQMmHcb5FzBc-nq0p8tHspCjjO5NHz6xQ1RnuGMjnGKf4MgJ2DD4FuJ7HxEt_IYkijJeKYKD8leOpQEG4TTe7AseGEK64bs2Fk2HoYmA8m-Qhvms0_vqEfqT7NUXHypgm-5GFmnuP-7Y_NBQ10wm_WH1W5uMHllfZm1jjOmWzWmqEnYTeyGS5ToGTIAl4CrHiDBA6IrXLCSW95wAl3AaLOMhZuC47SPe1OmMpQygslxXGgeAnfzQuHC8ommX5wfiN12qLJ2eLZrXf-Ia7CAc2MszI573cuA6QBIECWPkC0FChB1gXnNhP-wRxv7QqaugEs8Uimzz5r1QOInylVhohKziuJ0U95Gf6SevdMteBybW7JhoXG8gp2Rtc72YYIA9DC7O2cNf_-OZkqMuErz-NzOjKNBw-UaC_h2ggjFjh-oV_9be5xFV7SFzfYiivWN9UXirlC04eM2Hj5GOwCBLhq8PuwRPAamWvHl4IqPhjsnuTlWZvtHbhBN96-AaHtZII0sb6eZdbPBCm4y0JpfA6CeiGgRvTSg4rsNbLe19ADs183XAs8On3y83z_hFZ3J557qfWj-tGx9xGP-xBBWbCQwR4DLnlvE-AV92c1XDINsZl-wv7ExvylJqgofM6-JdUjoRx-4C0zkr390eI_XnlPZVBkkaRmPYGjNVBx4yjycN-jbfSZSRRxe2Kt7gUnjt2-vPe_FfRUVIGjZMgq5LrLy0]--></g></svg>