<?xml version="1.0" encoding="us-ascii" standalone="no"?><svg xmlns="http://www.w3.org/2000/svg" xmlns:xlink="http://www.w3.org/1999/xlink" contentStyleType="text/css" height="857px" preserveAspectRatio="none" style="width:1053px;height:857px;background:#FFFFFF;" version="1.1" viewBox="0 0 1053 857" width="1053px" zoomAndPan="magnify"><defs/><g><text fill="#000000" font-family="sans-serif" font-size="14" font-weight="bold" lengthAdjust="spacing" textLength="353" x="351" y="29.5332">Sequence Diagram - Admin Mengakses Dashboard</text><rect fill="none" height="591.1641" style="stroke:#000000;stroke-width:1.5;" width="1036" x="10" y="242.2734"/><rect fill="none" height="109.4063" style="stroke:#000000;stroke-width:1.5;" width="717" x="20" y="640.4922"/><line style="stroke:#6B7280;stroke-width:0.5;stroke-dasharray:5.0,5.0;" x1="52" x2="52" y1="121.2188" y2="850.4375"/><line style="stroke:#6B7280;stroke-width:0.5;stroke-dasharray:5.0,5.0;" x1="377" x2="377" y1="121.2188" y2="850.4375"/><line style="stroke:#6B7280;stroke-width:0.5;stroke-dasharray:5.0,5.0;" x1="662" x2="662" y1="121.2188" y2="850.4375"/><line style="stroke:#6B7280;stroke-width:0.5;stroke-dasharray:5.0,5.0;" x1="1002" x2="1002" y1="121.2188" y2="850.4375"/><text fill="#000000" font-family="sans-serif" font-size="14" lengthAdjust="spacing" textLength="39" x="30" y="118.1426">Admin</text><ellipse cx="52.5" cy="52.1094" fill="#FFFFFF" rx="8" ry="8" style="stroke:#111827;stroke-width:0.5;"/><path d="M52.5,60.1094 L52.5,87.1094 M39.5,68.1094 L65.5,68.1094 M52.5,87.1094 L39.5,102.1094 M52.5,87.1094 L65.5,102.1094 " fill="none" style="stroke:#111827;stroke-width:0.5;"/><text fill="#000000" font-family="sans-serif" font-size="14" lengthAdjust="spacing" textLength="101" x="324" y="118.1426">Halaman Sistem</text><path d="M357,75.6094 L357,99.6094 M357,87.6094 L374,87.6094 " fill="none" style="stroke:#181818;stroke-width:0.5;"/><ellipse cx="386" cy="87.6094" fill="#E2E2F0" rx="12" ry="12" style="stroke:#181818;stroke-width:0.5;"/><text fill="#000000" font-family="sans-serif" font-size="14" lengthAdjust="spacing" textLength="123" x="598" y="118.1426">Sistem BimbelOrion</text><ellipse cx="662.5" cy="87.6094" fill="#E2E2F0" rx="12" ry="12" style="stroke:#181818;stroke-width:0.5;"/><polygon fill="#181818" points="658.5,75.6094,664.5,70.6094,662.5,75.6094,664.5,80.6094,658.5,75.6094" style="stroke:#181818;stroke-width:1.0;"/><text fill="#000000" font-family="sans-serif" font-size="14" lengthAdjust="spacing" textLength="61" x="969" y="118.1426">Database</text><path d="M984.5,67.6094 C984.5,57.6094 1002.5,57.6094 1002.5,57.6094 C1002.5,57.6094 1020.5,57.6094 1020.5,67.6094 L1020.5,93.6094 C1020.5,103.6094 1002.5,103.6094 1002.5,103.6094 C1002.5,103.6094 984.5,103.6094 984.5,93.6094 L984.5,67.6094 " fill="#E2E2F0" style="stroke:#181818;stroke-width:1.5;"/><path d="M984.5,67.6094 C984.5,77.6094 1002.5,77.6094 1002.5,77.6094 C1002.5,77.6094 1020.5,77.6094 1020.5,67.6094 " fill="none" style="stroke:#181818;stroke-width:1.5;"/><polygon fill="#2F4F8F" points="365.5,149.5703,375.5,153.5703,365.5,157.5703,369.5,153.5703" style="stroke:#2F4F8F;stroke-width:1.0;"/><line style="stroke:#2F4F8F;stroke-width:1.0;" x1="52.5" x2="371.5" y1="153.5703" y2="153.5703"/><text fill="#000000" font-family="sans-serif" font-size="13" font-weight="bold" lengthAdjust="spacing" textLength="7" x="59.5" y="148.7139">1</text><text fill="#000000" font-family="sans-serif" font-size="13" lengthAdjust="spacing" textLength="200" x="70.5" y="148.7139">Membuka menu Dashboard Admin</text><polygon fill="#2F4F8F" points="650.5,179.9219,660.5,183.9219,650.5,187.9219,654.5,183.9219" style="stroke:#2F4F8F;stroke-width:1.0;"/><line style="stroke:#2F4F8F;stroke-width:1.0;" x1="377.5" x2="656.5" y1="183.9219" y2="183.9219"/><text fill="#000000" font-family="sans-serif" font-size="13" font-weight="bold" lengthAdjust="spacing" textLength="7" x="384.5" y="179.0654">2</text><text fill="#000000" font-family="sans-serif" font-size="13" lengthAdjust="spacing" textLength="206" x="395.5" y="179.0654">Meminta halaman dashboard admin</text><line style="stroke:#2F4F8F;stroke-width:1.0;" x1="662.5" x2="704.5" y1="214.2734" y2="214.2734"/><line style="stroke:#2F4F8F;stroke-width:1.0;" x1="704.5" x2="704.5" y1="214.2734" y2="227.2734"/><line style="stroke:#2F4F8F;stroke-width:1.0;" x1="663.5" x2="704.5" y1="227.2734" y2="227.2734"/><polygon fill="#2F4F8F" points="673.5,223.2734,663.5,227.2734,673.5,231.2734,669.5,227.2734" style="stroke:#2F4F8F;stroke-width:1.0;"/><text fill="#000000" font-family="sans-serif" font-size="13" font-weight="bold" lengthAdjust="spacing" textLength="7" x="669.5" y="209.417">3</text><text fill="#000000" font-family="sans-serif" font-size="13" lengthAdjust="spacing" textLength="192" x="680.5" y="209.417">Memastikan admin sudah masuk</text><path d="M10,242.2734 L71,242.2734 L71,250.625 L61,260.625 L10,260.625 L10,242.2734 " fill="#EEEEEE" style="stroke:#000000;stroke-width:1.5;"/><rect fill="none" height="591.1641" style="stroke:#000000;stroke-width:1.5;" width="1036" x="10" y="242.2734"/><text fill="#000000" font-family="sans-serif" font-size="13" font-weight="bold" lengthAdjust="spacing" textLength="16" x="25" y="256.7686">alt</text><text fill="#000000" font-family="sans-serif" font-size="11" font-weight="bold" lengthAdjust="spacing" textLength="217" x="86" y="255.6924">[Sesi login benar dan hak akses admin]</text><line style="stroke:#2F4F8F;stroke-width:1.0;" x1="662.5" x2="704.5" y1="282.9766" y2="282.9766"/><line style="stroke:#2F4F8F;stroke-width:1.0;" x1="704.5" x2="704.5" y1="282.9766" y2="295.9766"/><line style="stroke:#2F4F8F;stroke-width:1.0;" x1="663.5" x2="704.5" y1="295.9766" y2="295.9766"/><polygon fill="#2F4F8F" points="673.5,291.9766,663.5,295.9766,673.5,299.9766,669.5,295.9766" style="stroke:#2F4F8F;stroke-width:1.0;"/><text fill="#000000" font-family="sans-serif" font-size="13" font-weight="bold" lengthAdjust="spacing" textLength="7" x="669.5" y="278.1201">4</text><text fill="#000000" font-family="sans-serif" font-size="13" lengthAdjust="spacing" textLength="151" x="680.5" y="278.1201">Menyiapkan isi dashboard</text><polygon fill="#2F4F8F" points="990.5,322.3281,1000.5,326.3281,990.5,330.3281,994.5,326.3281" style="stroke:#2F4F8F;stroke-width:1.0;"/><line style="stroke:#2F4F8F;stroke-width:1.0;" x1="662.5" x2="996.5" y1="326.3281" y2="326.3281"/><text fill="#000000" font-family="sans-serif" font-size="13" font-weight="bold" lengthAdjust="spacing" textLength="7" x="669.5" y="321.4717">5</text><text fill="#000000" font-family="sans-serif" font-size="13" lengthAdjust="spacing" textLength="305" x="680.5" y="321.4717">Mengambil pendaftaran terbaru beserta pilihan mapel</text><polygon fill="#2F4F8F" points="673.5,352.6797,663.5,356.6797,673.5,360.6797,669.5,356.6797" style="stroke:#2F4F8F;stroke-width:1.0;"/><line style="stroke:#2F4F8F;stroke-width:1.0;stroke-dasharray:2.0,2.0;" x1="667.5" x2="1001.5" y1="356.6797" y2="356.6797"/><text fill="#000000" font-family="sans-serif" font-size="13" font-weight="bold" lengthAdjust="spacing" textLength="7" x="679.5" y="351.8232">6</text><text fill="#000000" font-family="sans-serif" font-size="13" lengthAdjust="spacing" textLength="160" x="690.5" y="351.8232">Mengirim daftar pendaftaran</text><line style="stroke:#2F4F8F;stroke-width:1.0;" x1="662.5" x2="704.5" y1="387.0313" y2="387.0313"/><line style="stroke:#2F4F8F;stroke-width:1.0;" x1="704.5" x2="704.5" y1="387.0313" y2="400.0313"/><line style="stroke:#2F4F8F;stroke-width:1.0;" x1="663.5" x2="704.5" y1="400.0313" y2="400.0313"/><polygon fill="#2F4F8F" points="673.5,396.0313,663.5,400.0313,673.5,404.0313,669.5,400.0313" style="stroke:#2F4F8F;stroke-width:1.0;"/><text fill="#000000" font-family="sans-serif" font-size="13" font-weight="bold" lengthAdjust="spacing" textLength="7" x="669.5" y="382.1748">7</text><text fill="#000000" font-family="sans-serif" font-size="13" lengthAdjust="spacing" textLength="180" x="680.5" y="382.1748">Menghitung jumlah pendaftaran</text><polygon fill="#2F4F8F" points="990.5,426.3828,1000.5,430.3828,990.5,434.3828,994.5,430.3828" style="stroke:#2F4F8F;stroke-width:1.0;"/><line style="stroke:#2F4F8F;stroke-width:1.0;" x1="662.5" x2="996.5" y1="430.3828" y2="430.3828"/><text fill="#000000" font-family="sans-serif" font-size="13" font-weight="bold" lengthAdjust="spacing" textLength="7" x="669.5" y="425.5264">8</text><text fill="#000000" font-family="sans-serif" font-size="13" lengthAdjust="spacing" textLength="224" x="680.5" y="425.5264">Menghitung total pendaftar di database</text><polygon fill="#2F4F8F" points="673.5,456.7344,663.5,460.7344,673.5,464.7344,669.5,460.7344" style="stroke:#2F4F8F;stroke-width:1.0;"/><line style="stroke:#2F4F8F;stroke-width:1.0;stroke-dasharray:2.0,2.0;" x1="667.5" x2="1001.5" y1="460.7344" y2="460.7344"/><text fill="#000000" font-family="sans-serif" font-size="13" font-weight="bold" lengthAdjust="spacing" textLength="7" x="679.5" y="455.8779">9</text><text fill="#000000" font-family="sans-serif" font-size="13" lengthAdjust="spacing" textLength="113" x="690.5" y="455.8779">Mengirim hasil data</text><polygon fill="#2F4F8F" points="990.5,487.0859,1000.5,491.0859,990.5,495.0859,994.5,491.0859" style="stroke:#2F4F8F;stroke-width:1.0;"/><line style="stroke:#2F4F8F;stroke-width:1.0;" x1="662.5" x2="996.5" y1="491.0859" y2="491.0859"/><text fill="#000000" font-family="sans-serif" font-size="13" font-weight="bold" lengthAdjust="spacing" textLength="14" x="669.5" y="486.2295">10</text><text fill="#000000" font-family="sans-serif" font-size="13" lengthAdjust="spacing" textLength="241" x="687.5" y="486.2295">Mengambil jadwal beserta siswa dan guru</text><polygon fill="#2F4F8F" points="673.5,517.4375,663.5,521.4375,673.5,525.4375,669.5,521.4375" style="stroke:#2F4F8F;stroke-width:1.0;"/><line style="stroke:#2F4F8F;stroke-width:1.0;stroke-dasharray:2.0,2.0;" x1="667.5" x2="1001.5" y1="521.4375" y2="521.4375"/><text fill="#000000" font-family="sans-serif" font-size="13" font-weight="bold" lengthAdjust="spacing" textLength="14" x="679.5" y="516.5811">11</text><text fill="#000000" font-family="sans-serif" font-size="13" lengthAdjust="spacing" textLength="129" x="697.5" y="516.5811">Mengirim daftar jadwal</text><line style="stroke:#2F4F8F;stroke-width:1.0;" x1="662.5" x2="704.5" y1="551.7891" y2="551.7891"/><line style="stroke:#2F4F8F;stroke-width:1.0;" x1="704.5" x2="704.5" y1="551.7891" y2="564.7891"/><line style="stroke:#2F4F8F;stroke-width:1.0;" x1="663.5" x2="704.5" y1="564.7891" y2="564.7891"/><polygon fill="#2F4F8F" points="673.5,560.7891,663.5,564.7891,673.5,568.7891,669.5,564.7891" style="stroke:#2F4F8F;stroke-width:1.0;"/><text fill="#000000" font-family="sans-serif" font-size="13" font-weight="bold" lengthAdjust="spacing" textLength="14" x="669.5" y="546.9326">12</text><text fill="#000000" font-family="sans-serif" font-size="13" lengthAdjust="spacing" textLength="187" x="687.5" y="546.9326">Menyiapkan halaman dashboard</text><polygon fill="#2F4F8F" points="388.5,591.1406,378.5,595.1406,388.5,599.1406,384.5,595.1406" style="stroke:#2F4F8F;stroke-width:1.0;"/><line style="stroke:#2F4F8F;stroke-width:1.0;stroke-dasharray:2.0,2.0;" x1="382.5" x2="661.5" y1="595.1406" y2="595.1406"/><text fill="#000000" font-family="sans-serif" font-size="13" font-weight="bold" lengthAdjust="spacing" textLength="14" x="394.5" y="590.2842">13</text><text fill="#000000" font-family="sans-serif" font-size="13" lengthAdjust="spacing" textLength="146" x="412.5" y="590.2842">Mengirim data dashboard</text><polygon fill="#2F4F8F" points="63.5,621.4922,53.5,625.4922,63.5,629.4922,59.5,625.4922" style="stroke:#2F4F8F;stroke-width:1.0;"/><line style="stroke:#2F4F8F;stroke-width:1.0;stroke-dasharray:2.0,2.0;" x1="57.5" x2="376.5" y1="625.4922" y2="625.4922"/><text fill="#000000" font-family="sans-serif" font-size="13" font-weight="bold" lengthAdjust="spacing" textLength="14" x="69.5" y="620.6357">14</text><text fill="#000000" font-family="sans-serif" font-size="13" lengthAdjust="spacing" textLength="267" x="87.5" y="620.6357">Menampilkan statistik dan pendaftaran terbaru</text><path d="M20,640.4922 L85,640.4922 L85,648.8438 L75,658.8438 L20,658.8438 L20,640.4922 " fill="#EEEEEE" style="stroke:#000000;stroke-width:1.5;"/><rect fill="none" height="109.4063" style="stroke:#000000;stroke-width:1.5;" width="717" x="20" y="640.4922"/><text fill="#000000" font-family="sans-serif" font-size="13" font-weight="bold" lengthAdjust="spacing" textLength="20" x="35" y="654.9873">opt</text><text fill="#000000" font-family="sans-serif" font-size="11" font-weight="bold" lengthAdjust="spacing" textLength="169" x="100" y="653.9111">[Admin klik detail pendaftaran]</text><polygon fill="#2F4F8F" points="365.5,677.1953,375.5,681.1953,365.5,685.1953,369.5,681.1953" style="stroke:#2F4F8F;stroke-width:1.0;"/><line style="stroke:#2F4F8F;stroke-width:1.0;" x1="52.5" x2="371.5" y1="681.1953" y2="681.1953"/><text fill="#000000" font-family="sans-serif" font-size="13" font-weight="bold" lengthAdjust="spacing" textLength="14" x="59.5" y="676.3389">15</text><text fill="#000000" font-family="sans-serif" font-size="13" lengthAdjust="spacing" textLength="163" x="77.5" y="676.3389">Membuka detail pendaftaran</text><polygon fill="#2F4F8F" points="650.5,707.5469,660.5,711.5469,650.5,715.5469,654.5,711.5469" style="stroke:#2F4F8F;stroke-width:1.0;"/><line style="stroke:#2F4F8F;stroke-width:1.0;" x1="377.5" x2="656.5" y1="711.5469" y2="711.5469"/><text fill="#000000" font-family="sans-serif" font-size="13" font-weight="bold" lengthAdjust="spacing" textLength="14" x="384.5" y="706.6904">16</text><text fill="#000000" font-family="sans-serif" font-size="13" lengthAdjust="spacing" textLength="182" x="402.5" y="706.6904">Mengirim permintaan ke sistem</text><polygon fill="#2F4F8F" points="388.5,737.8984,378.5,741.8984,388.5,745.8984,384.5,741.8984" style="stroke:#2F4F8F;stroke-width:1.0;"/><line style="stroke:#2F4F8F;stroke-width:1.0;stroke-dasharray:2.0,2.0;" x1="382.5" x2="661.5" y1="741.8984" y2="741.8984"/><text fill="#000000" font-family="sans-serif" font-size="13" font-weight="bold" lengthAdjust="spacing" textLength="14" x="394.5" y="737.042">17</text><text fill="#000000" font-family="sans-serif" font-size="13" lengthAdjust="spacing" textLength="183" x="412.5" y="737.042">Menampilkan detail pendaftaran</text><line style="stroke:#000000;stroke-width:1.0;stroke-dasharray:2.0,2.0;" x1="10" x2="1046" y1="757.8984" y2="757.8984"/><text fill="#000000" font-family="sans-serif" font-size="11" font-weight="bold" lengthAdjust="spacing" textLength="225" x="15" y="769.3174">[Sesi login tidak benar / hak akses salah]</text><polygon fill="#2F4F8F" points="388.5,791.0859,378.5,795.0859,388.5,799.0859,384.5,795.0859" style="stroke:#2F4F8F;stroke-width:1.0;"/><line style="stroke:#2F4F8F;stroke-width:1.0;stroke-dasharray:2.0,2.0;" x1="382.5" x2="661.5" y1="795.0859" y2="795.0859"/><text fill="#000000" font-family="sans-serif" font-size="13" font-weight="bold" lengthAdjust="spacing" textLength="14" x="394.5" y="790.2295">18</text><text fill="#000000" font-family="sans-serif" font-size="13" lengthAdjust="spacing" textLength="243" x="412.5" y="790.2295">Mengalihkan ke login atau menolak akses</text><polygon fill="#2F4F8F" points="63.5,821.4375,53.5,825.4375,63.5,829.4375,59.5,825.4375" style="stroke:#2F4F8F;stroke-width:1.0;"/><line style="stroke:#2F4F8F;stroke-width:1.0;stroke-dasharray:2.0,2.0;" x1="57.5" x2="376.5" y1="825.4375" y2="825.4375"/><text fill="#000000" font-family="sans-serif" font-size="13" font-weight="bold" lengthAdjust="spacing" textLength="14" x="69.5" y="820.5811">19</text><text fill="#000000" font-family="sans-serif" font-size="13" lengthAdjust="spacing" textLength="283" x="87.5" y="820.5811">Menampilkan pesan bahwa akses tidak diizinkan</text><!--SRC=[ZLJRRjD047ttLup2GvzQI0Kqz04fQR2GA0AfNp3ERkofrxjcBqeBuj-PzTh6LXD27gnuvvopSpbZJrv9U90_WjGx2Ll2qc83bx0M3MduAdM9jPCEjkYgmg0LMKL2mjuONvYd38CtEZI5j9chIRSOsQv2OGwaIzYZSd8Q6IxwbG6ihJM7EwECXLVN-TjybVFXFUtbFMcvCLP8sqVVRswkLs-cKTpLfJL1YnwHVyZN-OOHtz5wsb6BsiyanWkcW1SggtoJHz1wvusTyPVBvUhwPWozO7O_3c_Cquntjzc- -xJi0oTOlxCimoWBYwxj2q2N1f0L4Ots6HQVKM636Xx8UTbqaFuesndjhL6mI37O40z4VRDaabGwpWHwBD19M6pxVrrqUE4aBhuOBSWHu07LRUy15mHMe4n9-YgxMAjWqmieDaUDBQ10QED3zEv9uU0vkQiiYLn-7BAzPLCrHQWH6gd3Nr_r1GzbCY6btU59UuIg3ucHWXsbhthEGEUfPZ1EQk33K6UeF1kUYqnf5bAZPKtD-ZKaioTTW6FA-fcmZSgnJsCgC_3GqTkqFqr12bh9SznxtW8DNje2RU2hdRHSM4kAAZvli9MAbGO-NCvlBibI0qbcAdWgqx8Y7tWB7qEZkFnJZ7cwFSSRZvEiUROm-ETiXXKwhZZ2pxRb4GLRRUo48tV0RXXbiE5_Mv54pithXNqcXBazHtMFC_JeJOPtRkt0sF3yuWNEewTekww08mDd2TFwVgrg5O7IuzmSZ04ulJCd24UtfY-ZbRRR7mxNCdOuVWiYwKJnOpr7x-ANJF97VRf2dWIlJbgarvCrSgnQ_QFBoBQlKrf9Y1iUucV1g47ZVDTRwVXPOCN6ITUcT0JHJzACo3ZbFm00]--></g></svg>