<?xml version="1.0" encoding="us-ascii" standalone="no"?><svg xmlns="http://www.w3.org/2000/svg" xmlns:xlink="http://www.w3.org/1999/xlink" contentStyleType="text/css" height="1174px" preserveAspectRatio="none" style="width:948px;height:1174px;background:#FFFFFF;" version="1.1" viewBox="0 0 948 1174" width="948px" zoomAndPan="magnify"><defs/><g><text fill="#000000" font-family="sans-serif" font-size="14" font-weight="bold" lengthAdjust="spacing" textLength="283" x="338.5" y="29.5332">Sequence Diagram - Admin Kelola Mapel</text><rect fill="none" height="484.0781" style="stroke:#000000;stroke-width:1.5;" width="921" x="20" y="666.4922"/><rect fill="none" height="227.7813" style="stroke:#000000;stroke-width:1.5;" width="406" x="525" y="781.3828"/><line style="stroke:#6B7280;stroke-width:0.5;stroke-dasharray:5.0,5.0;" x1="52" x2="52" y1="121.2188" y2="1167.5703"/><line style="stroke:#6B7280;stroke-width:0.5;stroke-dasharray:5.0,5.0;" x1="308" x2="308" y1="121.2188" y2="1167.5703"/><line style="stroke:#6B7280;stroke-width:0.5;stroke-dasharray:5.0,5.0;" x1="599" x2="599" y1="121.2188" y2="1167.5703"/><line style="stroke:#6B7280;stroke-width:0.5;stroke-dasharray:5.0,5.0;" x1="887" x2="887" y1="121.2188" y2="1167.5703"/><text fill="#000000" font-family="sans-serif" font-size="14" lengthAdjust="spacing" textLength="39" x="30" y="118.1426">Admin</text><ellipse cx="52.5" cy="52.1094" fill="#FFFFFF" rx="8" ry="8" style="stroke:#111827;stroke-width:0.5;"/><path d="M52.5,60.1094 L52.5,87.1094 M39.5,68.1094 L65.5,68.1094 M52.5,87.1094 L39.5,102.1094 M52.5,87.1094 L65.5,102.1094 " fill="none" style="stroke:#111827;stroke-width:0.5;"/><text fill="#000000" font-family="sans-serif" font-size="14" lengthAdjust="spacing" textLength="101" x="255" y="118.1426">Halaman Sistem</text><path d="M288,75.6094 L288,99.6094 M288,87.6094 L305,87.6094 " fill="none" style="stroke:#181818;stroke-width:0.5;"/><ellipse cx="317" cy="87.6094" fill="#E2E2F0" rx="12" ry="12" style="stroke:#181818;stroke-width:0.5;"/><text fill="#000000" font-family="sans-serif" font-size="14" lengthAdjust="spacing" textLength="123" x="535" y="118.1426">Sistem BimbelOrion</text><ellipse cx="599.5" cy="87.6094" fill="#E2E2F0" rx="12" ry="12" style="stroke:#181818;stroke-width:0.5;"/><polygon fill="#181818" points="595.5,75.6094,601.5,70.6094,599.5,75.6094,601.5,80.6094,595.5,75.6094" style="stroke:#181818;stroke-width:1.0;"/><text fill="#000000" font-family="sans-serif" font-size="14" lengthAdjust="spacing" textLength="61" x="854" y="118.1426">Database</text><path d="M869.5,67.6094 C869.5,57.6094 887.5,57.6094 887.5,57.6094 C887.5,57.6094 905.5,57.6094 905.5,67.6094 L905.5,93.6094 C905.5,103.6094 887.5,103.6094 887.5,103.6094 C887.5,103.6094 869.5,103.6094 869.5,93.6094 L869.5,67.6094 " fill="#E2E2F0" style="stroke:#181818;stroke-width:1.5;"/><path d="M869.5,67.6094 C869.5,77.6094 887.5,77.6094 887.5,77.6094 C887.5,77.6094 905.5,77.6094 905.5,67.6094 " fill="none" style="stroke:#181818;stroke-width:1.5;"/><polygon fill="#2F4F8F" points="296.5,149.5703,306.5,153.5703,296.5,157.5703,300.5,153.5703" style="stroke:#2F4F8F;stroke-width:1.0;"/><line style="stroke:#2F4F8F;stroke-width:1.0;" x1="52.5" x2="302.5" y1="153.5703" y2="153.5703"/><text fill="#000000" font-family="sans-serif" font-size="13" font-weight="bold" lengthAdjust="spacing" textLength="7" x="59.5" y="148.7139">1</text><text fill="#000000" font-family="sans-serif" font-size="13" lengthAdjust="spacing" textLength="145" x="70.5" y="148.7139">Buka menu Kelola Mapel</text><polygon fill="#2F4F8F" points="587.5,179.9219,597.5,183.9219,587.5,187.9219,591.5,183.9219" style="stroke:#2F4F8F;stroke-width:1.0;"/><line style="stroke:#2F4F8F;stroke-width:1.0;" x1="308.5" x2="593.5" y1="183.9219" y2="183.9219"/><text fill="#000000" font-family="sans-serif" font-size="13" font-weight="bold" lengthAdjust="spacing" textLength="7" x="315.5" y="179.0654">2</text><text fill="#000000" font-family="sans-serif" font-size="13" lengthAdjust="spacing" textLength="230" x="326.5" y="179.0654">Meminta halaman kelola mata pelajaran</text><line style="stroke:#2F4F8F;stroke-width:1.0;" x1="599.5" x2="641.5" y1="214.2734" y2="214.2734"/><line style="stroke:#2F4F8F;stroke-width:1.0;" x1="641.5" x2="641.5" y1="214.2734" y2="227.2734"/><line style="stroke:#2F4F8F;stroke-width:1.0;" x1="600.5" x2="641.5" y1="227.2734" y2="227.2734"/><polygon fill="#2F4F8F" points="610.5,223.2734,600.5,227.2734,610.5,231.2734,606.5,227.2734" style="stroke:#2F4F8F;stroke-width:1.0;"/><text fill="#000000" font-family="sans-serif" font-size="13" font-weight="bold" lengthAdjust="spacing" textLength="7" x="606.5" y="209.417">3</text><text fill="#000000" font-family="sans-serif" font-size="13" lengthAdjust="spacing" textLength="195" x="617.5" y="209.417">Memastikan hak aksesnya admin</text><line style="stroke:#2F4F8F;stroke-width:1.0;" x1="599.5" x2="641.5" y1="257.625" y2="257.625"/><line style="stroke:#2F4F8F;stroke-width:1.0;" x1="641.5" x2="641.5" y1="257.625" y2="270.625"/><line style="stroke:#2F4F8F;stroke-width:1.0;" x1="600.5" x2="641.5" y1="270.625" y2="270.625"/><polygon fill="#2F4F8F" points="610.5,266.625,600.5,270.625,610.5,274.625,606.5,270.625" style="stroke:#2F4F8F;stroke-width:1.0;"/><text fill="#000000" font-family="sans-serif" font-size="13" font-weight="bold" lengthAdjust="spacing" textLength="7" x="606.5" y="252.7686">4</text><text fill="#000000" font-family="sans-serif" font-size="13" lengthAdjust="spacing" textLength="188" x="617.5" y="252.7686">Menyiapkan data mata pelajaran</text><polygon fill="#2F4F8F" points="875.5,296.9766,885.5,300.9766,875.5,304.9766,879.5,300.9766" style="stroke:#2F4F8F;stroke-width:1.0;"/><line style="stroke:#2F4F8F;stroke-width:1.0;" x1="599.5" x2="881.5" y1="300.9766" y2="300.9766"/><text fill="#000000" font-family="sans-serif" font-size="13" font-weight="bold" lengthAdjust="spacing" textLength="7" x="606.5" y="296.1201">5</text><text fill="#000000" font-family="sans-serif" font-size="13" lengthAdjust="spacing" textLength="181" x="617.5" y="296.1201">Mengambil data mata pelajaran</text><polygon fill="#2F4F8F" points="610.5,327.3281,600.5,331.3281,610.5,335.3281,606.5,331.3281" style="stroke:#2F4F8F;stroke-width:1.0;"/><line style="stroke:#2F4F8F;stroke-width:1.0;stroke-dasharray:2.0,2.0;" x1="604.5" x2="886.5" y1="331.3281" y2="331.3281"/><text fill="#000000" font-family="sans-serif" font-size="13" font-weight="bold" lengthAdjust="spacing" textLength="7" x="616.5" y="326.4717">6</text><text fill="#000000" font-family="sans-serif" font-size="13" lengthAdjust="spacing" textLength="178" x="627.5" y="326.4717">Mengirim daftar mata pelajaran</text><line style="stroke:#2F4F8F;stroke-width:1.0;" x1="599.5" x2="641.5" y1="361.6797" y2="361.6797"/><line style="stroke:#2F4F8F;stroke-width:1.0;" x1="641.5" x2="641.5" y1="361.6797" y2="374.6797"/><line style="stroke:#2F4F8F;stroke-width:1.0;" x1="600.5" x2="641.5" y1="374.6797" y2="374.6797"/><polygon fill="#2F4F8F" points="610.5,370.6797,600.5,374.6797,610.5,378.6797,606.5,374.6797" style="stroke:#2F4F8F;stroke-width:1.0;"/><text fill="#000000" font-family="sans-serif" font-size="13" font-weight="bold" lengthAdjust="spacing" textLength="7" x="606.5" y="356.8232">7</text><text fill="#000000" font-family="sans-serif" font-size="13" lengthAdjust="spacing" textLength="216" x="617.5" y="356.8232">Menghitung ringkasan mata pelajaran</text><line style="stroke:#2F4F8F;stroke-width:1.0;" x1="599.5" x2="641.5" y1="405.0313" y2="405.0313"/><line style="stroke:#2F4F8F;stroke-width:1.0;" x1="641.5" x2="641.5" y1="405.0313" y2="418.0313"/><line style="stroke:#2F4F8F;stroke-width:1.0;" x1="600.5" x2="641.5" y1="418.0313" y2="418.0313"/><polygon fill="#2F4F8F" points="610.5,414.0313,600.5,418.0313,610.5,422.0313,606.5,418.0313" style="stroke:#2F4F8F;stroke-width:1.0;"/><text fill="#000000" font-family="sans-serif" font-size="13" font-weight="bold" lengthAdjust="spacing" textLength="7" x="606.5" y="400.1748">8</text><text fill="#000000" font-family="sans-serif" font-size="13" lengthAdjust="spacing" textLength="250" x="617.5" y="400.1748">Menyiapkan halaman kelola mata pelajaran</text><polygon fill="#2F4F8F" points="319.5,444.3828,309.5,448.3828,319.5,452.3828,315.5,448.3828" style="stroke:#2F4F8F;stroke-width:1.0;"/><line style="stroke:#2F4F8F;stroke-width:1.0;stroke-dasharray:2.0,2.0;" x1="313.5" x2="598.5" y1="448.3828" y2="448.3828"/><text fill="#000000" font-family="sans-serif" font-size="13" font-weight="bold" lengthAdjust="spacing" textLength="7" x="325.5" y="443.5264">9</text><text fill="#000000" font-family="sans-serif" font-size="13" lengthAdjust="spacing" textLength="256" x="336.5" y="443.5264">Menampilkan daftar dan form mata pelajaran</text><polygon fill="#2F4F8F" points="63.5,474.7344,53.5,478.7344,63.5,482.7344,59.5,478.7344" style="stroke:#2F4F8F;stroke-width:1.0;"/><line style="stroke:#2F4F8F;stroke-width:1.0;stroke-dasharray:2.0,2.0;" x1="57.5" x2="307.5" y1="478.7344" y2="478.7344"/><text fill="#000000" font-family="sans-serif" font-size="13" font-weight="bold" lengthAdjust="spacing" textLength="14" x="69.5" y="473.8779">10</text><text fill="#000000" font-family="sans-serif" font-size="13" lengthAdjust="spacing" textLength="214" x="87.5" y="473.8779">Menampilkan hasil kepada pengguna</text><polygon fill="#2F4F8F" points="296.5,530.4375,306.5,534.4375,296.5,538.4375,300.5,534.4375" style="stroke:#2F4F8F;stroke-width:1.0;"/><line style="stroke:#2F4F8F;stroke-width:1.0;" x1="52.5" x2="302.5" y1="534.4375" y2="534.4375"/><text fill="#000000" font-family="sans-serif" font-size="13" font-weight="bold" lengthAdjust="spacing" textLength="14" x="59.5" y="529.5811">11</text><text fill="#000000" font-family="sans-serif" font-size="13" lengthAdjust="spacing" textLength="171" x="77.5" y="529.5811">Mengirim form mata pelajaran</text><polygon fill="#2F4F8F" points="587.5,560.7891,597.5,564.7891,587.5,568.7891,591.5,564.7891" style="stroke:#2F4F8F;stroke-width:1.0;"/><line style="stroke:#2F4F8F;stroke-width:1.0;" x1="308.5" x2="593.5" y1="564.7891" y2="564.7891"/><text fill="#000000" font-family="sans-serif" font-size="13" font-weight="bold" lengthAdjust="spacing" textLength="14" x="315.5" y="559.9326">12</text><text fill="#000000" font-family="sans-serif" font-size="13" lengthAdjust="spacing" textLength="225" x="333.5" y="559.9326">Mengirim data mata pelajaran dari form</text><line style="stroke:#2F4F8F;stroke-width:1.0;" x1="599.5" x2="641.5" y1="595.1406" y2="595.1406"/><line style="stroke:#2F4F8F;stroke-width:1.0;" x1="641.5" x2="641.5" y1="595.1406" y2="608.1406"/><line style="stroke:#2F4F8F;stroke-width:1.0;" x1="600.5" x2="641.5" y1="608.1406" y2="608.1406"/><polygon fill="#2F4F8F" points="610.5,604.1406,600.5,608.1406,610.5,612.1406,606.5,608.1406" style="stroke:#2F4F8F;stroke-width:1.0;"/><text fill="#000000" font-family="sans-serif" font-size="13" font-weight="bold" lengthAdjust="spacing" textLength="14" x="606.5" y="590.2842">13</text><text fill="#000000" font-family="sans-serif" font-size="13" lengthAdjust="spacing" textLength="188" x="624.5" y="590.2842">Menyiapkan data mata pelajaran</text><line style="stroke:#2F4F8F;stroke-width:1.0;" x1="599.5" x2="641.5" y1="638.4922" y2="638.4922"/><line style="stroke:#2F4F8F;stroke-width:1.0;" x1="641.5" x2="641.5" y1="638.4922" y2="651.4922"/><line style="stroke:#2F4F8F;stroke-width:1.0;" x1="600.5" x2="641.5" y1="651.4922" y2="651.4922"/><polygon fill="#2F4F8F" points="610.5,647.4922,600.5,651.4922,610.5,655.4922,606.5,651.4922" style="stroke:#2F4F8F;stroke-width:1.0;"/><text fill="#000000" font-family="sans-serif" font-size="13" font-weight="bold" lengthAdjust="spacing" textLength="14" x="606.5" y="633.6357">14</text><text fill="#000000" font-family="sans-serif" font-size="13" lengthAdjust="spacing" textLength="206" x="624.5" y="633.6357">Memeriksa kode keamanan formulir</text><path d="M20,666.4922 L81,666.4922 L81,674.8438 L71,684.8438 L20,684.8438 L20,666.4922 " fill="#EEEEEE" style="stroke:#000000;stroke-width:1.5;"/><rect fill="none" height="484.0781" style="stroke:#000000;stroke-width:1.5;" width="921" x="20" y="666.4922"/><text fill="#000000" font-family="sans-serif" font-size="13" font-weight="bold" lengthAdjust="spacing" textLength="16" x="35" y="680.9873">alt</text><text fill="#000000" font-family="sans-serif" font-size="11" font-weight="bold" lengthAdjust="spacing" textLength="209" x="96" y="679.9111">[kode keamanan formulir tidak benar]</text><polygon fill="#2F4F8F" points="319.5,703.1953,309.5,707.1953,319.5,711.1953,315.5,707.1953" style="stroke:#2F4F8F;stroke-width:1.0;"/><line style="stroke:#2F4F8F;stroke-width:1.0;stroke-dasharray:2.0,2.0;" x1="313.5" x2="598.5" y1="707.1953" y2="707.1953"/><text fill="#000000" font-family="sans-serif" font-size="13" font-weight="bold" lengthAdjust="spacing" textLength="14" x="325.5" y="702.3389">15</text><text fill="#000000" font-family="sans-serif" font-size="13" lengthAdjust="spacing" textLength="119" x="343.5" y="702.3389">Mengirim hasil gagal</text><line style="stroke:#000000;stroke-width:1.0;stroke-dasharray:2.0,2.0;" x1="20" x2="941" y1="716.1953" y2="716.1953"/><text fill="#000000" font-family="sans-serif" font-size="11" font-weight="bold" lengthAdjust="spacing" textLength="179" x="25" y="727.6143">[kode keamanan formulir benar]</text><line style="stroke:#2F4F8F;stroke-width:1.0;" x1="599.5" x2="641.5" y1="753.3828" y2="753.3828"/><line style="stroke:#2F4F8F;stroke-width:1.0;" x1="641.5" x2="641.5" y1="753.3828" y2="766.3828"/><line style="stroke:#2F4F8F;stroke-width:1.0;" x1="600.5" x2="641.5" y1="766.3828" y2="766.3828"/><polygon fill="#2F4F8F" points="610.5,762.3828,600.5,766.3828,610.5,770.3828,606.5,766.3828" style="stroke:#2F4F8F;stroke-width:1.0;"/><text fill="#000000" font-family="sans-serif" font-size="13" font-weight="bold" lengthAdjust="spacing" textLength="14" x="606.5" y="748.5264">16</text><text fill="#000000" font-family="sans-serif" font-size="13" lengthAdjust="spacing" textLength="256" x="624.5" y="748.5264">Memproses tambah, ubah, atau ubah status</text><path d="M525,781.3828 L586,781.3828 L586,789.7344 L576,799.7344 L525,799.7344 L525,781.3828 " fill="#EEEEEE" style="stroke:#000000;stroke-width:1.5;"/><rect fill="none" height="227.7813" style="stroke:#000000;stroke-width:1.5;" width="406" x="525" y="781.3828"/><text fill="#000000" font-family="sans-serif" font-size="13" font-weight="bold" lengthAdjust="spacing" textLength="16" x="540" y="795.8779">alt</text><text fill="#000000" font-family="sans-serif" font-size="11" font-weight="bold" lengthAdjust="spacing" textLength="69" x="601" y="794.8018">[aksi create]</text><line style="stroke:#2F4F8F;stroke-width:1.0;" x1="599.5" x2="641.5" y1="822.0859" y2="822.0859"/><line style="stroke:#2F4F8F;stroke-width:1.0;" x1="641.5" x2="641.5" y1="822.0859" y2="835.0859"/><line style="stroke:#2F4F8F;stroke-width:1.0;" x1="600.5" x2="641.5" y1="835.0859" y2="835.0859"/><polygon fill="#2F4F8F" points="610.5,831.0859,600.5,835.0859,610.5,839.0859,606.5,835.0859" style="stroke:#2F4F8F;stroke-width:1.0;"/><text fill="#000000" font-family="sans-serif" font-size="13" font-weight="bold" lengthAdjust="spacing" textLength="14" x="606.5" y="817.2295">17</text><text fill="#000000" font-family="sans-serif" font-size="13" lengthAdjust="spacing" textLength="185" x="624.5" y="817.2295">Menyimpan mata pelajaran baru</text><polygon fill="#2F4F8F" points="875.5,861.4375,885.5,865.4375,875.5,869.4375,879.5,865.4375" style="stroke:#2F4F8F;stroke-width:1.0;"/><line style="stroke:#2F4F8F;stroke-width:1.0;" x1="599.5" x2="881.5" y1="865.4375" y2="865.4375"/><text fill="#000000" font-family="sans-serif" font-size="13" font-weight="bold" lengthAdjust="spacing" textLength="14" x="606.5" y="860.5811">18</text><text fill="#000000" font-family="sans-serif" font-size="13" lengthAdjust="spacing" textLength="214" x="624.5" y="860.5811">Menyimpan data mata pelajaran baru</text><line style="stroke:#000000;stroke-width:1.0;stroke-dasharray:2.0,2.0;" x1="525" x2="931" y1="874.4375" y2="874.4375"/><text fill="#000000" font-family="sans-serif" font-size="11" font-weight="bold" lengthAdjust="spacing" textLength="72" x="530" y="885.8564">[aksi update]</text><polygon fill="#2F4F8F" points="875.5,907.625,885.5,911.625,875.5,915.625,879.5,911.625" style="stroke:#2F4F8F;stroke-width:1.0;"/><line style="stroke:#2F4F8F;stroke-width:1.0;" x1="599.5" x2="881.5" y1="911.625" y2="911.625"/><text fill="#000000" font-family="sans-serif" font-size="13" font-weight="bold" lengthAdjust="spacing" textLength="14" x="606.5" y="906.7686">19</text><text fill="#000000" font-family="sans-serif" font-size="13" lengthAdjust="spacing" textLength="193" x="624.5" y="906.7686">Memperbarui data mata pelajaran</text><line style="stroke:#000000;stroke-width:1.0;stroke-dasharray:2.0,2.0;" x1="525" x2="931" y1="920.625" y2="920.625"/><text fill="#000000" font-family="sans-serif" font-size="11" font-weight="bold" lengthAdjust="spacing" textLength="108" x="530" y="932.0439">[aksi toggle-status]</text><line style="stroke:#2F4F8F;stroke-width:1.0;" x1="599.5" x2="641.5" y1="957.8125" y2="957.8125"/><line style="stroke:#2F4F8F;stroke-width:1.0;" x1="641.5" x2="641.5" y1="957.8125" y2="970.8125"/><line style="stroke:#2F4F8F;stroke-width:1.0;" x1="600.5" x2="641.5" y1="970.8125" y2="970.8125"/><polygon fill="#2F4F8F" points="610.5,966.8125,600.5,970.8125,610.5,974.8125,606.5,970.8125" style="stroke:#2F4F8F;stroke-width:1.0;"/><text fill="#000000" font-family="sans-serif" font-size="13" font-weight="bold" lengthAdjust="spacing" textLength="14" x="606.5" y="952.9561">20</text><text fill="#000000" font-family="sans-serif" font-size="13" lengthAdjust="spacing" textLength="189" x="624.5" y="952.9561">Mengubah status mata pelajaran</text><polygon fill="#2F4F8F" points="875.5,997.1641,885.5,1001.1641,875.5,1005.1641,879.5,1001.1641" style="stroke:#2F4F8F;stroke-width:1.0;"/><line style="stroke:#2F4F8F;stroke-width:1.0;" x1="599.5" x2="881.5" y1="1001.1641" y2="1001.1641"/><text fill="#000000" font-family="sans-serif" font-size="13" font-weight="bold" lengthAdjust="spacing" textLength="14" x="606.5" y="996.3076">21</text><text fill="#000000" font-family="sans-serif" font-size="13" lengthAdjust="spacing" textLength="204" x="624.5" y="996.3076">Memperbarui status mata pelajaran</text><polygon fill="#2F4F8F" points="610.5,1034.5156,600.5,1038.5156,610.5,1042.5156,606.5,1038.5156" style="stroke:#2F4F8F;stroke-width:1.0;"/><line style="stroke:#2F4F8F;stroke-width:1.0;stroke-dasharray:2.0,2.0;" x1="604.5" x2="886.5" y1="1038.5156" y2="1038.5156"/><text fill="#000000" font-family="sans-serif" font-size="13" font-weight="bold" lengthAdjust="spacing" textLength="14" x="616.5" y="1033.6592">22</text><text fill="#000000" font-family="sans-serif" font-size="13" lengthAdjust="spacing" textLength="127" x="634.5" y="1033.6592">Mengirim hasil proses</text><line style="stroke:#2F4F8F;stroke-width:1.0;stroke-dasharray:2.0,2.0;" x1="599.5" x2="641.5" y1="1068.8672" y2="1068.8672"/><line style="stroke:#2F4F8F;stroke-width:1.0;stroke-dasharray:2.0,2.0;" x1="641.5" x2="641.5" y1="1068.8672" y2="1081.8672"/><line style="stroke:#2F4F8F;stroke-width:1.0;stroke-dasharray:2.0,2.0;" x1="600.5" x2="641.5" y1="1081.8672" y2="1081.8672"/><polygon fill="#2F4F8F" points="610.5,1077.8672,600.5,1081.8672,610.5,1085.8672,606.5,1081.8672" style="stroke:#2F4F8F;stroke-width:1.0;"/><text fill="#000000" font-family="sans-serif" font-size="13" font-weight="bold" lengthAdjust="spacing" textLength="14" x="606.5" y="1064.0107">23</text><text fill="#000000" font-family="sans-serif" font-size="13" lengthAdjust="spacing" textLength="205" x="624.5" y="1064.0107">Menyiapkan pesan untuk pengguna</text><polygon fill="#2F4F8F" points="319.5,1108.2188,309.5,1112.2188,319.5,1116.2188,315.5,1112.2188" style="stroke:#2F4F8F;stroke-width:1.0;"/><line style="stroke:#2F4F8F;stroke-width:1.0;stroke-dasharray:2.0,2.0;" x1="313.5" x2="598.5" y1="1112.2188" y2="1112.2188"/><text fill="#000000" font-family="sans-serif" font-size="13" font-weight="bold" lengthAdjust="spacing" textLength="14" x="325.5" y="1107.3623">24</text><text fill="#000000" font-family="sans-serif" font-size="13" lengthAdjust="spacing" textLength="155" x="343.5" y="1107.3623">Mengirim hasil ke halaman</text><polygon fill="#2F4F8F" points="63.5,1138.5703,53.5,1142.5703,63.5,1146.5703,59.5,1142.5703" style="stroke:#2F4F8F;stroke-width:1.0;"/><line style="stroke:#2F4F8F;stroke-width:1.0;stroke-dasharray:2.0,2.0;" x1="57.5" x2="307.5" y1="1142.5703" y2="1142.5703"/><text fill="#000000" font-family="sans-serif" font-size="13" font-weight="bold" lengthAdjust="spacing" textLength="14" x="69.5" y="1137.7139">25</text><text fill="#000000" font-family="sans-serif" font-size="13" lengthAdjust="spacing" textLength="214" x="87.5" y="1137.7139">Menampilkan pesan dan data terbaru</text><!--SRC=[bLJ1Rfmm4Btp5QFjDQjsLssppQ7IaXHLQg9MoXSCooou69iQMqbKzTyxDh210CsM2-2PzpppvjbMM4bmJxySgGF1ZS3SO0Lhs6ULKF2Df9O8TrYJZ0gH4Horjgb-ZD1PhLoLaecQKgWQFQmfCDCFGkLmHDdGCDBly3i2s1kZ7wwrr0RUR9FtoIxXnLjnf5kXADOc8zD5FyQNszsxOHGFPMwqKrcNaNnAzadC6J_GM74GDIexeZXjC4oOiEoIEF59-uFLPeJVR3QxxUKfD466XyEnVXpXhkER3rysNM01zIUA8lIqi0fwhm2RLlaezTbedc3r5ILMgE1UD9QgaD8jHGUjhD4ILcqCOi43aT-Dq2rLknnbQ375Xc1rqts5QF_3HKJjkDUVU-ehY5s9K95oOnFqrN1gotu5TyHOYr1qeRBDhvWU688_sG4gwaeSux2necH8WILWsL2ZdX0m232Nhvu4rZxVTxIyGTzOWEHOfKBE8leyM8ztoOKH5IEE5iqvRQYy4DQnwmrRlyI62pm7rJTpdcx3sJ0Ogrh8LefGPiQVHssgb_3Jl1WVXZn65zYmE2NLc7cKodEdCDArxIu0o-fX0M-1Cc7vvVnVOz6wXdVoXW2OUkUauLn50BCUEga-cHEl6H6e6FlVjfY7L6H4sI2Kck-qadmvdO1E2iCWb7OX25PaRDUKLVI9p_op2hG2vvYZbuhuLboYdHAE2gwDvlFH3UGY3E82k5Ktd4c0-zBvC0au649BOMrHkAgUk1LID6w26Xsg3ZSth1Cuz1hgS7KsLyUGiQh9UAHOcE6GpkeybxGUTBpGNJvswuJozMAMiQIoyFxt7T9ElntTIw_C-BScVtSuPLtvV1ZFj5X9_KKI4A-S-tQdh9-XRHkEGbz_0G00]--></g></svg>