<?xml version="1.0" encoding="us-ascii" standalone="no"?><svg xmlns="http://www.w3.org/2000/svg" xmlns:xlink="http://www.w3.org/1999/xlink" contentStyleType="text/css" height="1278px" preserveAspectRatio="none" style="width:1068px;height:1278px;background:#FFFFFF;" version="1.1" viewBox="0 0 1068 1278" width="1068px" zoomAndPan="magnify"><defs/><g><text fill="#000000" font-family="sans-serif" font-size="14" font-weight="bold" lengthAdjust="spacing" textLength="273" x="403.5" y="29.5332">Sequence Diagram - Admin Kelola User</text><rect fill="none" height="79.0547" style="stroke:#000000;stroke-width:1.5;" width="484" x="557" y="346.3281"/><rect fill="none" height="581.2891" style="stroke:#000000;stroke-width:1.5;" width="1041" x="20" y="672.8438"/><rect fill="none" height="398.6953" style="stroke:#000000;stroke-width:1.5;" width="504" x="547" y="744.3828"/><rect fill="none" height="320.1563" style="stroke:#000000;stroke-width:1.5;" width="484" x="557" y="785.5703"/><line style="stroke:#6B7280;stroke-width:0.5;stroke-dasharray:5.0,5.0;" x1="52" x2="52" y1="121.2188" y2="1271.1328"/><line style="stroke:#6B7280;stroke-width:0.5;stroke-dasharray:5.0,5.0;" x1="393" x2="393" y1="121.2188" y2="1271.1328"/><line style="stroke:#6B7280;stroke-width:0.5;stroke-dasharray:5.0,5.0;" x1="631" x2="631" y1="121.2188" y2="1271.1328"/><line style="stroke:#6B7280;stroke-width:0.5;stroke-dasharray:5.0,5.0;" x1="997" x2="997" y1="121.2188" y2="1271.1328"/><text fill="#000000" font-family="sans-serif" font-size="14" lengthAdjust="spacing" textLength="39" x="30" y="118.1426">Admin</text><ellipse cx="52.5" cy="52.1094" fill="#FFFFFF" rx="8" ry="8" style="stroke:#111827;stroke-width:0.5;"/><path d="M52.5,60.1094 L52.5,87.1094 M39.5,68.1094 L65.5,68.1094 M52.5,87.1094 L39.5,102.1094 M52.5,87.1094 L65.5,102.1094 " fill="none" style="stroke:#111827;stroke-width:0.5;"/><text fill="#000000" font-family="sans-serif" font-size="14" lengthAdjust="spacing" textLength="101" x="340" y="118.1426">Halaman Sistem</text><path d="M373,75.6094 L373,99.6094 M373,87.6094 L390,87.6094 " fill="none" style="stroke:#181818;stroke-width:0.5;"/><ellipse cx="402" cy="87.6094" fill="#E2E2F0" rx="12" ry="12" style="stroke:#181818;stroke-width:0.5;"/><text fill="#000000" font-family="sans-serif" font-size="14" lengthAdjust="spacing" textLength="123" x="567" y="118.1426">Sistem BimbelOrion</text><ellipse cx="631.5" cy="87.6094" fill="#E2E2F0" rx="12" ry="12" style="stroke:#181818;stroke-width:0.5;"/><polygon fill="#181818" points="627.5,75.6094,633.5,70.6094,631.5,75.6094,633.5,80.6094,627.5,75.6094" style="stroke:#181818;stroke-width:1.0;"/><text fill="#000000" font-family="sans-serif" font-size="14" lengthAdjust="spacing" textLength="61" x="964" y="118.1426">Database</text><path d="M979.5,67.6094 C979.5,57.6094 997.5,57.6094 997.5,57.6094 C997.5,57.6094 1015.5,57.6094 1015.5,67.6094 L1015.5,93.6094 C1015.5,103.6094 997.5,103.6094 997.5,103.6094 C997.5,103.6094 979.5,103.6094 979.5,93.6094 L979.5,67.6094 " fill="#E2E2F0" style="stroke:#181818;stroke-width:1.5;"/><path d="M979.5,67.6094 C979.5,77.6094 997.5,77.6094 997.5,77.6094 C997.5,77.6094 1015.5,77.6094 1015.5,67.6094 " fill="none" style="stroke:#181818;stroke-width:1.5;"/><polygon fill="#2F4F8F" points="381.5,149.5703,391.5,153.5703,381.5,157.5703,385.5,153.5703" style="stroke:#2F4F8F;stroke-width:1.0;"/><line style="stroke:#2F4F8F;stroke-width:1.0;" x1="52.5" x2="387.5" y1="153.5703" y2="153.5703"/><text fill="#000000" font-family="sans-serif" font-size="13" font-weight="bold" lengthAdjust="spacing" textLength="7" x="59.5" y="148.7139">1</text><text fill="#000000" font-family="sans-serif" font-size="13" lengthAdjust="spacing" textLength="137" x="70.5" y="148.7139">Buka menu Kelola User</text><polygon fill="#2F4F8F" points="619.5,179.9219,629.5,183.9219,619.5,187.9219,623.5,183.9219" style="stroke:#2F4F8F;stroke-width:1.0;"/><line style="stroke:#2F4F8F;stroke-width:1.0;" x1="393.5" x2="625.5" y1="183.9219" y2="183.9219"/><text fill="#000000" font-family="sans-serif" font-size="13" font-weight="bold" lengthAdjust="spacing" textLength="7" x="400.5" y="179.0654">2</text><text fill="#000000" font-family="sans-serif" font-size="13" lengthAdjust="spacing" textLength="201" x="411.5" y="179.0654">Meminta halaman kelola pengguna</text><line style="stroke:#2F4F8F;stroke-width:1.0;" x1="631.5" x2="673.5" y1="214.2734" y2="214.2734"/><line style="stroke:#2F4F8F;stroke-width:1.0;" x1="673.5" x2="673.5" y1="214.2734" y2="227.2734"/><line style="stroke:#2F4F8F;stroke-width:1.0;" x1="632.5" x2="673.5" y1="227.2734" y2="227.2734"/><polygon fill="#2F4F8F" points="642.5,223.2734,632.5,227.2734,642.5,231.2734,638.5,227.2734" style="stroke:#2F4F8F;stroke-width:1.0;"/><text fill="#000000" font-family="sans-serif" font-size="13" font-weight="bold" lengthAdjust="spacing" textLength="7" x="638.5" y="209.417">3</text><text fill="#000000" font-family="sans-serif" font-size="13" lengthAdjust="spacing" textLength="195" x="649.5" y="209.417">Memastikan hak aksesnya admin</text><line style="stroke:#2F4F8F;stroke-width:1.0;" x1="631.5" x2="673.5" y1="257.625" y2="257.625"/><line style="stroke:#2F4F8F;stroke-width:1.0;" x1="673.5" x2="673.5" y1="257.625" y2="270.625"/><line style="stroke:#2F4F8F;stroke-width:1.0;" x1="632.5" x2="673.5" y1="270.625" y2="270.625"/><polygon fill="#2F4F8F" points="642.5,266.625,632.5,270.625,642.5,274.625,638.5,270.625" style="stroke:#2F4F8F;stroke-width:1.0;"/><text fill="#000000" font-family="sans-serif" font-size="13" font-weight="bold" lengthAdjust="spacing" textLength="7" x="638.5" y="252.7686">4</text><text fill="#000000" font-family="sans-serif" font-size="13" lengthAdjust="spacing" textLength="159" x="649.5" y="252.7686">Menyiapkan data pengguna</text><polygon fill="#2F4F8F" points="985.5,296.9766,995.5,300.9766,985.5,304.9766,989.5,300.9766" style="stroke:#2F4F8F;stroke-width:1.0;"/><line style="stroke:#2F4F8F;stroke-width:1.0;" x1="631.5" x2="991.5" y1="300.9766" y2="300.9766"/><text fill="#000000" font-family="sans-serif" font-size="13" font-weight="bold" lengthAdjust="spacing" textLength="7" x="638.5" y="296.1201">5</text><text fill="#000000" font-family="sans-serif" font-size="13" lengthAdjust="spacing" textLength="305" x="649.5" y="296.1201">Mengambil data users beserta detail profil hak akses</text><polygon fill="#2F4F8F" points="642.5,327.3281,632.5,331.3281,642.5,335.3281,638.5,331.3281" style="stroke:#2F4F8F;stroke-width:1.0;"/><line style="stroke:#2F4F8F;stroke-width:1.0;stroke-dasharray:2.0,2.0;" x1="636.5" x2="996.5" y1="331.3281" y2="331.3281"/><text fill="#000000" font-family="sans-serif" font-size="13" font-weight="bold" lengthAdjust="spacing" textLength="7" x="648.5" y="326.4717">6</text><text fill="#000000" font-family="sans-serif" font-size="13" lengthAdjust="spacing" textLength="118" x="659.5" y="326.4717">Mengirim daftar user</text><path d="M557,346.3281 L630,346.3281 L630,354.6797 L620,364.6797 L557,364.6797 L557,346.3281 " fill="#EEEEEE" style="stroke:#000000;stroke-width:1.5;"/><rect fill="none" height="79.0547" style="stroke:#000000;stroke-width:1.5;" width="484" x="557" y="346.3281"/><text fill="#000000" font-family="sans-serif" font-size="13" font-weight="bold" lengthAdjust="spacing" textLength="28" x="572" y="360.8232">loop</text><text fill="#000000" font-family="sans-serif" font-size="11" font-weight="bold" lengthAdjust="spacing" textLength="92" x="645" y="359.7471">[Untuk tiap user]</text><polygon fill="#2F4F8F" points="985.5,383.0313,995.5,387.0313,985.5,391.0313,989.5,387.0313" style="stroke:#2F4F8F;stroke-width:1.0;"/><line style="stroke:#2F4F8F;stroke-width:1.0;" x1="631.5" x2="991.5" y1="387.0313" y2="387.0313"/><text fill="#000000" font-family="sans-serif" font-size="13" font-weight="bold" lengthAdjust="spacing" textLength="7" x="638.5" y="382.1748">7</text><text fill="#000000" font-family="sans-serif" font-size="13" lengthAdjust="spacing" textLength="219" x="649.5" y="382.1748">Mengambil data relasi guru/siswa/wali</text><polygon fill="#2F4F8F" points="642.5,413.3828,632.5,417.3828,642.5,421.3828,638.5,417.3828" style="stroke:#2F4F8F;stroke-width:1.0;"/><line style="stroke:#2F4F8F;stroke-width:1.0;stroke-dasharray:2.0,2.0;" x1="636.5" x2="996.5" y1="417.3828" y2="417.3828"/><text fill="#000000" font-family="sans-serif" font-size="13" font-weight="bold" lengthAdjust="spacing" textLength="7" x="648.5" y="412.5264">8</text><text fill="#000000" font-family="sans-serif" font-size="13" lengthAdjust="spacing" textLength="113" x="659.5" y="412.5264">Mengirim hasil data</text><polygon fill="#2F4F8F" points="404.5,450.7344,394.5,454.7344,404.5,458.7344,400.5,454.7344" style="stroke:#2F4F8F;stroke-width:1.0;"/><line style="stroke:#2F4F8F;stroke-width:1.0;stroke-dasharray:2.0,2.0;" x1="398.5" x2="630.5" y1="454.7344" y2="454.7344"/><text fill="#000000" font-family="sans-serif" font-size="13" font-weight="bold" lengthAdjust="spacing" textLength="7" x="410.5" y="449.8779">9</text><text fill="#000000" font-family="sans-serif" font-size="13" lengthAdjust="spacing" textLength="155" x="421.5" y="449.8779">Mengirim hasil ke halaman</text><polygon fill="#2F4F8F" points="63.5,481.0859,53.5,485.0859,63.5,489.0859,59.5,485.0859" style="stroke:#2F4F8F;stroke-width:1.0;"/><line style="stroke:#2F4F8F;stroke-width:1.0;stroke-dasharray:2.0,2.0;" x1="57.5" x2="392.5" y1="485.0859" y2="485.0859"/><text fill="#000000" font-family="sans-serif" font-size="13" font-weight="bold" lengthAdjust="spacing" textLength="14" x="69.5" y="480.2295">10</text><text fill="#000000" font-family="sans-serif" font-size="13" lengthAdjust="spacing" textLength="214" x="87.5" y="480.2295">Menampilkan hasil kepada pengguna</text><polygon fill="#2F4F8F" points="381.5,536.7891,391.5,540.7891,381.5,544.7891,385.5,540.7891" style="stroke:#2F4F8F;stroke-width:1.0;"/><line style="stroke:#2F4F8F;stroke-width:1.0;" x1="52.5" x2="387.5" y1="540.7891" y2="540.7891"/><text fill="#000000" font-family="sans-serif" font-size="13" font-weight="bold" lengthAdjust="spacing" textLength="14" x="59.5" y="535.9326">11</text><text fill="#000000" font-family="sans-serif" font-size="13" lengthAdjust="spacing" textLength="299" x="77.5" y="535.9326">Mengirim form tambah/ubah/hapus/buka kunci akun</text><polygon fill="#2F4F8F" points="619.5,567.1406,629.5,571.1406,619.5,575.1406,623.5,571.1406" style="stroke:#2F4F8F;stroke-width:1.0;"/><line style="stroke:#2F4F8F;stroke-width:1.0;" x1="393.5" x2="625.5" y1="571.1406" y2="571.1406"/><text fill="#000000" font-family="sans-serif" font-size="13" font-weight="bold" lengthAdjust="spacing" textLength="14" x="400.5" y="566.2842">12</text><text fill="#000000" font-family="sans-serif" font-size="13" lengthAdjust="spacing" textLength="196" x="418.5" y="566.2842">Mengirim data pengguna dari form</text><line style="stroke:#2F4F8F;stroke-width:1.0;" x1="631.5" x2="673.5" y1="601.4922" y2="601.4922"/><line style="stroke:#2F4F8F;stroke-width:1.0;" x1="673.5" x2="673.5" y1="601.4922" y2="614.4922"/><line style="stroke:#2F4F8F;stroke-width:1.0;" x1="632.5" x2="673.5" y1="614.4922" y2="614.4922"/><polygon fill="#2F4F8F" points="642.5,610.4922,632.5,614.4922,642.5,618.4922,638.5,614.4922" style="stroke:#2F4F8F;stroke-width:1.0;"/><text fill="#000000" font-family="sans-serif" font-size="13" font-weight="bold" lengthAdjust="spacing" textLength="14" x="638.5" y="596.6357">13</text><text fill="#000000" font-family="sans-serif" font-size="13" lengthAdjust="spacing" textLength="159" x="656.5" y="596.6357">Menyiapkan data pengguna</text><line style="stroke:#2F4F8F;stroke-width:1.0;" x1="631.5" x2="673.5" y1="644.8438" y2="644.8438"/><line style="stroke:#2F4F8F;stroke-width:1.0;" x1="673.5" x2="673.5" y1="644.8438" y2="657.8438"/><line style="stroke:#2F4F8F;stroke-width:1.0;" x1="632.5" x2="673.5" y1="657.8438" y2="657.8438"/><polygon fill="#2F4F8F" points="642.5,653.8438,632.5,657.8438,642.5,661.8438,638.5,657.8438" style="stroke:#2F4F8F;stroke-width:1.0;"/><text fill="#000000" font-family="sans-serif" font-size="13" font-weight="bold" lengthAdjust="spacing" textLength="14" x="638.5" y="639.9873">14</text><text fill="#000000" font-family="sans-serif" font-size="13" lengthAdjust="spacing" textLength="206" x="656.5" y="639.9873">Memeriksa kode keamanan formulir</text><path d="M20,672.8438 L81,672.8438 L81,681.1953 L71,691.1953 L20,691.1953 L20,672.8438 " fill="#EEEEEE" style="stroke:#000000;stroke-width:1.5;"/><rect fill="none" height="581.2891" style="stroke:#000000;stroke-width:1.5;" width="1041" x="20" y="672.8438"/><text fill="#000000" font-family="sans-serif" font-size="13" font-weight="bold" lengthAdjust="spacing" textLength="16" x="35" y="687.3389">alt</text><text fill="#000000" font-family="sans-serif" font-size="11" font-weight="bold" lengthAdjust="spacing" textLength="209" x="96" y="686.2627">[kode keamanan formulir tidak benar]</text><polygon fill="#2F4F8F" points="404.5,709.5469,394.5,713.5469,404.5,717.5469,400.5,713.5469" style="stroke:#2F4F8F;stroke-width:1.0;"/><line style="stroke:#2F4F8F;stroke-width:1.0;stroke-dasharray:2.0,2.0;" x1="398.5" x2="630.5" y1="713.5469" y2="713.5469"/><text fill="#000000" font-family="sans-serif" font-size="13" font-weight="bold" lengthAdjust="spacing" textLength="14" x="410.5" y="708.6904">15</text><text fill="#000000" font-family="sans-serif" font-size="13" lengthAdjust="spacing" textLength="119" x="428.5" y="708.6904">Mengirim hasil gagal</text><line style="stroke:#000000;stroke-width:1.0;stroke-dasharray:2.0,2.0;" x1="20" x2="1061" y1="722.5469" y2="722.5469"/><text fill="#000000" font-family="sans-serif" font-size="11" font-weight="bold" lengthAdjust="spacing" textLength="179" x="25" y="733.9658">[kode keamanan formulir benar]</text><path d="M547,744.3828 L608,744.3828 L608,752.7344 L598,762.7344 L547,762.7344 L547,744.3828 " fill="#EEEEEE" style="stroke:#000000;stroke-width:1.5;"/><rect fill="none" height="398.6953" style="stroke:#000000;stroke-width:1.5;" width="504" x="547" y="744.3828"/><text fill="#000000" font-family="sans-serif" font-size="13" font-weight="bold" lengthAdjust="spacing" textLength="16" x="562" y="758.8779">alt</text><text fill="#000000" font-family="sans-serif" font-size="11" font-weight="bold" lengthAdjust="spacing" textLength="113" x="623" y="757.8018">[Validasi form gagal]</text><line style="stroke:#000000;stroke-width:1.0;stroke-dasharray:2.0,2.0;" x1="547" x2="1051" y1="763.7344" y2="763.7344"/><text fill="#000000" font-family="sans-serif" font-size="11" font-weight="bold" lengthAdjust="spacing" textLength="99" x="552" y="775.1533">[Validasi berhasil]</text><path d="M557,785.5703 L618,785.5703 L618,793.9219 L608,803.9219 L557,803.9219 L557,785.5703 " fill="#EEEEEE" style="stroke:#000000;stroke-width:1.5;"/><rect fill="none" height="320.1563" style="stroke:#000000;stroke-width:1.5;" width="484" x="557" y="785.5703"/><text fill="#000000" font-family="sans-serif" font-size="13" font-weight="bold" lengthAdjust="spacing" textLength="16" x="572" y="800.0654">alt</text><text fill="#000000" font-family="sans-serif" font-size="11" font-weight="bold" lengthAdjust="spacing" textLength="43" x="633" y="798.9893">[create]</text><polygon fill="#2F4F8F" points="985.5,822.2734,995.5,826.2734,985.5,830.2734,989.5,826.2734" style="stroke:#2F4F8F;stroke-width:1.0;"/><line style="stroke:#2F4F8F;stroke-width:1.0;" x1="631.5" x2="991.5" y1="826.2734" y2="826.2734"/><text fill="#000000" font-family="sans-serif" font-size="13" font-weight="bold" lengthAdjust="spacing" textLength="14" x="638.5" y="821.417">16</text><text fill="#000000" font-family="sans-serif" font-size="13" lengthAdjust="spacing" textLength="324" x="656.5" y="821.417">Menyimpan data baru users + profil hak akses bila perlu</text><line style="stroke:#000000;stroke-width:1.0;stroke-dasharray:2.0,2.0;" x1="557" x2="1041" y1="835.2734" y2="835.2734"/><text fill="#000000" font-family="sans-serif" font-size="11" font-weight="bold" lengthAdjust="spacing" textLength="46" x="562" y="846.6924">[update]</text><polygon fill="#2F4F8F" points="985.5,868.4609,995.5,872.4609,985.5,876.4609,989.5,872.4609" style="stroke:#2F4F8F;stroke-width:1.0;"/><line style="stroke:#2F4F8F;stroke-width:1.0;" x1="631.5" x2="991.5" y1="872.4609" y2="872.4609"/><text fill="#000000" font-family="sans-serif" font-size="13" font-weight="bold" lengthAdjust="spacing" textLength="14" x="638.5" y="867.6045">17</text><text fill="#000000" font-family="sans-serif" font-size="13" lengthAdjust="spacing" textLength="243" x="656.5" y="867.6045">Memperbarui data users / profil hak akses</text><line style="stroke:#000000;stroke-width:1.0;stroke-dasharray:2.0,2.0;" x1="557" x2="1041" y1="881.4609" y2="881.4609"/><text fill="#000000" font-family="sans-serif" font-size="11" font-weight="bold" lengthAdjust="spacing" textLength="85" x="562" y="892.8799">[delete normal]</text><line style="stroke:#2F4F8F;stroke-width:1.0;" x1="631.5" x2="673.5" y1="918.6484" y2="918.6484"/><line style="stroke:#2F4F8F;stroke-width:1.0;" x1="673.5" x2="673.5" y1="918.6484" y2="931.6484"/><line style="stroke:#2F4F8F;stroke-width:1.0;" x1="632.5" x2="673.5" y1="931.6484" y2="931.6484"/><polygon fill="#2F4F8F" points="642.5,927.6484,632.5,931.6484,642.5,935.6484,638.5,931.6484" style="stroke:#2F4F8F;stroke-width:1.0;"/><text fill="#000000" font-family="sans-serif" font-size="13" font-weight="bold" lengthAdjust="spacing" textLength="14" x="638.5" y="913.792">18</text><text fill="#000000" font-family="sans-serif" font-size="13" lengthAdjust="spacing" textLength="96" x="656.5" y="913.792">Menghapus user</text><polygon fill="#2F4F8F" points="985.5,958,995.5,962,985.5,966,989.5,962" style="stroke:#2F4F8F;stroke-width:1.0;"/><line style="stroke:#2F4F8F;stroke-width:1.0;" x1="631.5" x2="991.5" y1="962" y2="962"/><text fill="#000000" font-family="sans-serif" font-size="13" font-weight="bold" lengthAdjust="spacing" textLength="14" x="638.5" y="957.1436">19</text><text fill="#000000" font-family="sans-serif" font-size="13" lengthAdjust="spacing" textLength="156" x="656.5" y="957.1436">Mengolah data di database</text><line style="stroke:#000000;stroke-width:1.0;stroke-dasharray:2.0,2.0;" x1="557" x2="1041" y1="971" y2="971"/><text fill="#000000" font-family="sans-serif" font-size="11" font-weight="bold" lengthAdjust="spacing" textLength="76" x="562" y="982.4189">[delete-force]</text><line style="stroke:#2F4F8F;stroke-width:1.0;" x1="631.5" x2="673.5" y1="1008.1875" y2="1008.1875"/><line style="stroke:#2F4F8F;stroke-width:1.0;" x1="673.5" x2="673.5" y1="1008.1875" y2="1021.1875"/><line style="stroke:#2F4F8F;stroke-width:1.0;" x1="632.5" x2="673.5" y1="1021.1875" y2="1021.1875"/><polygon fill="#2F4F8F" points="642.5,1017.1875,632.5,1021.1875,642.5,1025.1875,638.5,1021.1875" style="stroke:#2F4F8F;stroke-width:1.0;"/><text fill="#000000" font-family="sans-serif" font-size="13" font-weight="bold" lengthAdjust="spacing" textLength="14" x="638.5" y="1003.3311">20</text><text fill="#000000" font-family="sans-serif" font-size="13" lengthAdjust="spacing" textLength="128" x="656.5" y="1003.3311">Menghapus user force</text><polygon fill="#2F4F8F" points="985.5,1047.5391,995.5,1051.5391,985.5,1055.5391,989.5,1051.5391" style="stroke:#2F4F8F;stroke-width:1.0;"/><line style="stroke:#2F4F8F;stroke-width:1.0;" x1="631.5" x2="991.5" y1="1051.5391" y2="1051.5391"/><text fill="#000000" font-family="sans-serif" font-size="13" font-weight="bold" lengthAdjust="spacing" textLength="14" x="638.5" y="1046.6826">21</text><text fill="#000000" font-family="sans-serif" font-size="13" lengthAdjust="spacing" textLength="156" x="656.5" y="1046.6826">Mengolah data di database</text><line style="stroke:#000000;stroke-width:1.0;stroke-dasharray:2.0,2.0;" x1="557" x2="1041" y1="1060.5391" y2="1060.5391"/><text fill="#000000" font-family="sans-serif" font-size="11" font-weight="bold" lengthAdjust="spacing" textLength="45" x="562" y="1071.958">[unlock]</text><polygon fill="#2F4F8F" points="985.5,1093.7266,995.5,1097.7266,985.5,1101.7266,989.5,1097.7266" style="stroke:#2F4F8F;stroke-width:1.0;"/><line style="stroke:#2F4F8F;stroke-width:1.0;" x1="631.5" x2="991.5" y1="1097.7266" y2="1097.7266"/><text fill="#000000" font-family="sans-serif" font-size="13" font-weight="bold" lengthAdjust="spacing" textLength="14" x="638.5" y="1092.8701">22</text><text fill="#000000" font-family="sans-serif" font-size="13" lengthAdjust="spacing" textLength="248" x="656.5" y="1092.8701">Memperbarui data attempts=0,is_locked=0</text><polygon fill="#2F4F8F" points="642.5,1131.0781,632.5,1135.0781,642.5,1139.0781,638.5,1135.0781" style="stroke:#2F4F8F;stroke-width:1.0;"/><line style="stroke:#2F4F8F;stroke-width:1.0;stroke-dasharray:2.0,2.0;" x1="636.5" x2="996.5" y1="1135.0781" y2="1135.0781"/><text fill="#000000" font-family="sans-serif" font-size="13" font-weight="bold" lengthAdjust="spacing" textLength="14" x="648.5" y="1130.2217">23</text><text fill="#000000" font-family="sans-serif" font-size="13" lengthAdjust="spacing" textLength="127" x="666.5" y="1130.2217">Mengirim hasil proses</text><line style="stroke:#2F4F8F;stroke-width:1.0;stroke-dasharray:2.0,2.0;" x1="631.5" x2="673.5" y1="1172.4297" y2="1172.4297"/><line style="stroke:#2F4F8F;stroke-width:1.0;stroke-dasharray:2.0,2.0;" x1="673.5" x2="673.5" y1="1172.4297" y2="1185.4297"/><line style="stroke:#2F4F8F;stroke-width:1.0;stroke-dasharray:2.0,2.0;" x1="632.5" x2="673.5" y1="1185.4297" y2="1185.4297"/><polygon fill="#2F4F8F" points="642.5,1181.4297,632.5,1185.4297,642.5,1189.4297,638.5,1185.4297" style="stroke:#2F4F8F;stroke-width:1.0;"/><text fill="#000000" font-family="sans-serif" font-size="13" font-weight="bold" lengthAdjust="spacing" textLength="14" x="638.5" y="1167.5732">24</text><text fill="#000000" font-family="sans-serif" font-size="13" lengthAdjust="spacing" textLength="205" x="656.5" y="1167.5732">Menyiapkan pesan untuk pengguna</text><polygon fill="#2F4F8F" points="404.5,1211.7813,394.5,1215.7813,404.5,1219.7813,400.5,1215.7813" style="stroke:#2F4F8F;stroke-width:1.0;"/><line style="stroke:#2F4F8F;stroke-width:1.0;stroke-dasharray:2.0,2.0;" x1="398.5" x2="630.5" y1="1215.7813" y2="1215.7813"/><text fill="#000000" font-family="sans-serif" font-size="13" font-weight="bold" lengthAdjust="spacing" textLength="14" x="410.5" y="1210.9248">25</text><text fill="#000000" font-family="sans-serif" font-size="13" lengthAdjust="spacing" textLength="177" x="428.5" y="1210.9248">Mengalihkan page=admin-user</text><polygon fill="#2F4F8F" points="63.5,1242.1328,53.5,1246.1328,63.5,1250.1328,59.5,1246.1328" style="stroke:#2F4F8F;stroke-width:1.0;"/><line style="stroke:#2F4F8F;stroke-width:1.0;stroke-dasharray:2.0,2.0;" x1="57.5" x2="392.5" y1="1246.1328" y2="1246.1328"/><text fill="#000000" font-family="sans-serif" font-size="13" font-weight="bold" lengthAdjust="spacing" textLength="14" x="69.5" y="1241.2764">26</text><text fill="#000000" font-family="sans-serif" font-size="13" lengthAdjust="spacing" textLength="214" x="87.5" y="1241.2764">Menampilkan pesan dan data terbaru</text><!--SRC=[bLJRRjD047ttLup28qHfAg2bKf6QbWY98f2gyeh6ziHUlDurUr5Q8VwTsLqxTKZIInuSU-USCzST9vmakA7VdbH1S2MmCjZ252xALYZuGb9BX5jB9gj5IR3IskNwBaFljF9jpkUs4Qh3mB8rbdejL0Khb9R6bi71dmpWmXYzljHI6tXrl7oxF5touRLOqRLGjD2c9DDRtozEZa-FnbOicifehyeUiVoml5Wk6F4TZHE5w52vBOcDWp5WH-LqkLW6q4NXjDdYp-Vpq-EJZMc76NziNkYxBTxbukhTftblEC3wcsKP1bcOn79F06qgV9O7D9fxc7n6YIqgk17MKHiX_L5MQEMCbZ19DbW8ReZyPeHEKkauAz5XZfPWSjM_HUlmaMMfrzEFW_0PB7o3q9BoMnCmXCB897q6Nucf3g7kJKs2TwIgoYlC-iYs6MYTQ1XSOmFOMBBg7W5ZtllmwbvW5_0XaNtIGoOHN66R2vcmdgEsa1F_yLT93jdI6RtYlutpRA33TDjj9OneMMZbq4IfJ6hTmQrolW77CQL3W6T4OaYY5L1vusTMs3NErYW5SnztNZCfAMIaoatAurRzXsrewCL3knWUMnp1s7P2fkedV8VbgAgwS_tTv_R_OWKLi5meCMIxEosR45RQjE0uRQndFZngxBoTvM6Q6gyAmK9UiSRUITeKVDHb_Z8YwcxL-SdXs0zkoOZ6SYoQLrb38GHc1dKlHSWDfJjWv8QNF34v5p007_GVwKM55Ke64o_3Gx8FWi7t3nwACWnAhEJ0xnKsHjwwqK4q9M9X21tr1mSdybwqtL2g78tlByZhdJi1FBYXcaRwNZD6uBloQIyjquAu6D_1sUwr6-cM9CaHA4uQvHxvyOp4aHfcyT5iAzv4TGgYJC74TRVZTyh5BkZPRk4G_8NElPAwQ5vMJ7ICwPmzFteZxC_0f_ByQ53b3P7UdhDKk1z35mRYQAJtNB2EB3zzt7wZUtRu9l2urf685Pt7zJxTjEs9tPHybSEikbI4B8Rw3m00]--></g></svg>