<?xml version="1.0" encoding="us-ascii" standalone="no"?><svg xmlns="http://www.w3.org/2000/svg" xmlns:xlink="http://www.w3.org/1999/xlink" contentStyleType="text/css" height="915px" preserveAspectRatio="none" style="width:919px;height:915px;background:#FFFFFF;" version="1.1" viewBox="0 0 919 915" width="919px" zoomAndPan="magnify"><defs/><g><text fill="#000000" font-family="sans-serif" font-size="14" font-weight="bold" lengthAdjust="spacing" textLength="262" x="334.5" y="29.5332">Sequence Diagram - Admin Data Guru</text><rect fill="none" height="338.1875" style="stroke:#000000;stroke-width:1.5;" width="892" x="20" y="553.7891"/><rect fill="none" height="94.8906" style="stroke:#000000;stroke-width:1.5;" width="430" x="472" y="686.0313"/><line style="stroke:#6B7280;stroke-width:0.5;stroke-dasharray:5.0,5.0;" x1="52" x2="52" y1="121.2188" y2="908.9766"/><line style="stroke:#6B7280;stroke-width:0.5;stroke-dasharray:5.0,5.0;" x1="308" x2="308" y1="121.2188" y2="908.9766"/><line style="stroke:#6B7280;stroke-width:0.5;stroke-dasharray:5.0,5.0;" x1="546" x2="546" y1="121.2188" y2="908.9766"/><line style="stroke:#6B7280;stroke-width:0.5;stroke-dasharray:5.0,5.0;" x1="858" x2="858" y1="121.2188" y2="908.9766"/><text fill="#000000" font-family="sans-serif" font-size="14" lengthAdjust="spacing" textLength="39" x="30" y="118.1426">Admin</text><ellipse cx="52.5" cy="52.1094" fill="#FFFFFF" rx="8" ry="8" style="stroke:#111827;stroke-width:0.5;"/><path d="M52.5,60.1094 L52.5,87.1094 M39.5,68.1094 L65.5,68.1094 M52.5,87.1094 L39.5,102.1094 M52.5,87.1094 L65.5,102.1094 " fill="none" style="stroke:#111827;stroke-width:0.5;"/><text fill="#000000" font-family="sans-serif" font-size="14" lengthAdjust="spacing" textLength="101" x="255" y="118.1426">Halaman Sistem</text><path d="M288,75.6094 L288,99.6094 M288,87.6094 L305,87.6094 " fill="none" style="stroke:#181818;stroke-width:0.5;"/><ellipse cx="317" cy="87.6094" fill="#E2E2F0" rx="12" ry="12" style="stroke:#181818;stroke-width:0.5;"/><text fill="#000000" font-family="sans-serif" font-size="14" lengthAdjust="spacing" textLength="123" x="482" y="118.1426">Sistem BimbelOrion</text><ellipse cx="546.5" cy="87.6094" fill="#E2E2F0" rx="12" ry="12" style="stroke:#181818;stroke-width:0.5;"/><polygon fill="#181818" points="542.5,75.6094,548.5,70.6094,546.5,75.6094,548.5,80.6094,542.5,75.6094" style="stroke:#181818;stroke-width:1.0;"/><text fill="#000000" font-family="sans-serif" font-size="14" lengthAdjust="spacing" textLength="61" x="825" y="118.1426">Database</text><path d="M840.5,67.6094 C840.5,57.6094 858.5,57.6094 858.5,57.6094 C858.5,57.6094 876.5,57.6094 876.5,67.6094 L876.5,93.6094 C876.5,103.6094 858.5,103.6094 858.5,103.6094 C858.5,103.6094 840.5,103.6094 840.5,93.6094 L840.5,67.6094 " fill="#E2E2F0" style="stroke:#181818;stroke-width:1.5;"/><path d="M840.5,67.6094 C840.5,77.6094 858.5,77.6094 858.5,77.6094 C858.5,77.6094 876.5,77.6094 876.5,67.6094 " fill="none" style="stroke:#181818;stroke-width:1.5;"/><polygon fill="#2F4F8F" points="296.5,149.5703,306.5,153.5703,296.5,157.5703,300.5,153.5703" style="stroke:#2F4F8F;stroke-width:1.0;"/><line style="stroke:#2F4F8F;stroke-width:1.0;" x1="52.5" x2="302.5" y1="153.5703" y2="153.5703"/><text fill="#000000" font-family="sans-serif" font-size="13" font-weight="bold" lengthAdjust="spacing" textLength="7" x="59.5" y="148.7139">1</text><text fill="#000000" font-family="sans-serif" font-size="13" lengthAdjust="spacing" textLength="129" x="70.5" y="148.7139">Buka menu Data Guru</text><polygon fill="#2F4F8F" points="534.5,179.9219,544.5,183.9219,534.5,187.9219,538.5,183.9219" style="stroke:#2F4F8F;stroke-width:1.0;"/><line style="stroke:#2F4F8F;stroke-width:1.0;" x1="308.5" x2="540.5" y1="183.9219" y2="183.9219"/><text fill="#000000" font-family="sans-serif" font-size="13" font-weight="bold" lengthAdjust="spacing" textLength="7" x="315.5" y="179.0654">2</text><text fill="#000000" font-family="sans-serif" font-size="13" lengthAdjust="spacing" textLength="171" x="326.5" y="179.0654">Meminta halaman admin guru</text><line style="stroke:#2F4F8F;stroke-width:1.0;" x1="546.5" x2="588.5" y1="214.2734" y2="214.2734"/><line style="stroke:#2F4F8F;stroke-width:1.0;" x1="588.5" x2="588.5" y1="214.2734" y2="227.2734"/><line style="stroke:#2F4F8F;stroke-width:1.0;" x1="547.5" x2="588.5" y1="227.2734" y2="227.2734"/><polygon fill="#2F4F8F" points="557.5,223.2734,547.5,227.2734,557.5,231.2734,553.5,227.2734" style="stroke:#2F4F8F;stroke-width:1.0;"/><text fill="#000000" font-family="sans-serif" font-size="13" font-weight="bold" lengthAdjust="spacing" textLength="7" x="553.5" y="209.417">3</text><text fill="#000000" font-family="sans-serif" font-size="13" lengthAdjust="spacing" textLength="195" x="564.5" y="209.417">Memastikan hak aksesnya admin</text><polygon fill="#2F4F8F" points="846.5,253.625,856.5,257.625,846.5,261.625,850.5,257.625" style="stroke:#2F4F8F;stroke-width:1.0;"/><line style="stroke:#2F4F8F;stroke-width:1.0;" x1="546.5" x2="852.5" y1="257.625" y2="257.625"/><text fill="#000000" font-family="sans-serif" font-size="13" font-weight="bold" lengthAdjust="spacing" textLength="7" x="553.5" y="252.7686">4</text><text fill="#000000" font-family="sans-serif" font-size="13" lengthAdjust="spacing" textLength="260" x="564.5" y="252.7686">Mengambil data guru JOIN users JOIN mapel</text><polygon fill="#2F4F8F" points="557.5,283.9766,547.5,287.9766,557.5,291.9766,553.5,287.9766" style="stroke:#2F4F8F;stroke-width:1.0;"/><line style="stroke:#2F4F8F;stroke-width:1.0;stroke-dasharray:2.0,2.0;" x1="551.5" x2="857.5" y1="287.9766" y2="287.9766"/><text fill="#000000" font-family="sans-serif" font-size="13" font-weight="bold" lengthAdjust="spacing" textLength="7" x="563.5" y="283.1201">5</text><text fill="#000000" font-family="sans-serif" font-size="13" lengthAdjust="spacing" textLength="118" x="574.5" y="283.1201">Mengirim daftar guru</text><polygon fill="#2F4F8F" points="846.5,314.3281,856.5,318.3281,846.5,322.3281,850.5,318.3281" style="stroke:#2F4F8F;stroke-width:1.0;"/><line style="stroke:#2F4F8F;stroke-width:1.0;" x1="546.5" x2="852.5" y1="318.3281" y2="318.3281"/><text fill="#000000" font-family="sans-serif" font-size="13" font-weight="bold" lengthAdjust="spacing" textLength="7" x="553.5" y="313.4717">6</text><text fill="#000000" font-family="sans-serif" font-size="13" lengthAdjust="spacing" textLength="252" x="564.5" y="313.4717">Mengambil data mapel WHERE status aktif</text><polygon fill="#2F4F8F" points="557.5,344.6797,547.5,348.6797,557.5,352.6797,553.5,348.6797" style="stroke:#2F4F8F;stroke-width:1.0;"/><line style="stroke:#2F4F8F;stroke-width:1.0;stroke-dasharray:2.0,2.0;" x1="551.5" x2="857.5" y1="348.6797" y2="348.6797"/><text fill="#000000" font-family="sans-serif" font-size="13" font-weight="bold" lengthAdjust="spacing" textLength="7" x="563.5" y="343.8232">7</text><text fill="#000000" font-family="sans-serif" font-size="13" lengthAdjust="spacing" textLength="113" x="574.5" y="343.8232">Mengirim hasil data</text><polygon fill="#2F4F8F" points="319.5,375.0313,309.5,379.0313,319.5,383.0313,315.5,379.0313" style="stroke:#2F4F8F;stroke-width:1.0;"/><line style="stroke:#2F4F8F;stroke-width:1.0;stroke-dasharray:2.0,2.0;" x1="313.5" x2="545.5" y1="379.0313" y2="379.0313"/><text fill="#000000" font-family="sans-serif" font-size="13" font-weight="bold" lengthAdjust="spacing" textLength="7" x="325.5" y="374.1748">8</text><text fill="#000000" font-family="sans-serif" font-size="13" lengthAdjust="spacing" textLength="155" x="336.5" y="374.1748">Mengirim hasil ke halaman</text><polygon fill="#2F4F8F" points="63.5,405.3828,53.5,409.3828,63.5,413.3828,59.5,409.3828" style="stroke:#2F4F8F;stroke-width:1.0;"/><line style="stroke:#2F4F8F;stroke-width:1.0;stroke-dasharray:2.0,2.0;" x1="57.5" x2="307.5" y1="409.3828" y2="409.3828"/><text fill="#000000" font-family="sans-serif" font-size="13" font-weight="bold" lengthAdjust="spacing" textLength="7" x="69.5" y="404.5264">9</text><text fill="#000000" font-family="sans-serif" font-size="13" lengthAdjust="spacing" textLength="214" x="80.5" y="404.5264">Menampilkan hasil kepada pengguna</text><polygon fill="#2F4F8F" points="296.5,461.0859,306.5,465.0859,296.5,469.0859,300.5,465.0859" style="stroke:#2F4F8F;stroke-width:1.0;"/><line style="stroke:#2F4F8F;stroke-width:1.0;" x1="52.5" x2="302.5" y1="465.0859" y2="465.0859"/><text fill="#000000" font-family="sans-serif" font-size="13" font-weight="bold" lengthAdjust="spacing" textLength="14" x="59.5" y="460.2295">10</text><text fill="#000000" font-family="sans-serif" font-size="13" lengthAdjust="spacing" textLength="102" x="77.5" y="460.2295">Submit ubah-guru</text><polygon fill="#2F4F8F" points="534.5,491.4375,544.5,495.4375,534.5,499.4375,538.5,495.4375" style="stroke:#2F4F8F;stroke-width:1.0;"/><line style="stroke:#2F4F8F;stroke-width:1.0;" x1="308.5" x2="540.5" y1="495.4375" y2="495.4375"/><text fill="#000000" font-family="sans-serif" font-size="13" font-weight="bold" lengthAdjust="spacing" textLength="14" x="315.5" y="490.5811">11</text><text fill="#000000" font-family="sans-serif" font-size="13" lengthAdjust="spacing" textLength="196" x="333.5" y="490.5811">Mengirim data formulir admin guru</text><line style="stroke:#2F4F8F;stroke-width:1.0;" x1="546.5" x2="588.5" y1="525.7891" y2="525.7891"/><line style="stroke:#2F4F8F;stroke-width:1.0;" x1="588.5" x2="588.5" y1="525.7891" y2="538.7891"/><line style="stroke:#2F4F8F;stroke-width:1.0;" x1="547.5" x2="588.5" y1="538.7891" y2="538.7891"/><polygon fill="#2F4F8F" points="557.5,534.7891,547.5,538.7891,557.5,542.7891,553.5,538.7891" style="stroke:#2F4F8F;stroke-width:1.0;"/><text fill="#000000" font-family="sans-serif" font-size="13" font-weight="bold" lengthAdjust="spacing" textLength="14" x="553.5" y="520.9326">12</text><text fill="#000000" font-family="sans-serif" font-size="13" lengthAdjust="spacing" textLength="206" x="571.5" y="520.9326">Memeriksa kode keamanan formulir</text><path d="M20,553.7891 L81,553.7891 L81,562.1406 L71,572.1406 L20,572.1406 L20,553.7891 " fill="#EEEEEE" style="stroke:#000000;stroke-width:1.5;"/><rect fill="none" height="338.1875" style="stroke:#000000;stroke-width:1.5;" width="892" x="20" y="553.7891"/><text fill="#000000" font-family="sans-serif" font-size="13" font-weight="bold" lengthAdjust="spacing" textLength="16" x="35" y="568.2842">alt</text><text fill="#000000" font-family="sans-serif" font-size="11" font-weight="bold" lengthAdjust="spacing" textLength="209" x="96" y="567.208">[kode keamanan formulir tidak benar]</text><polygon fill="#2F4F8F" points="319.5,590.4922,309.5,594.4922,319.5,598.4922,315.5,594.4922" style="stroke:#2F4F8F;stroke-width:1.0;"/><line style="stroke:#2F4F8F;stroke-width:1.0;stroke-dasharray:2.0,2.0;" x1="313.5" x2="545.5" y1="594.4922" y2="594.4922"/><text fill="#000000" font-family="sans-serif" font-size="13" font-weight="bold" lengthAdjust="spacing" textLength="14" x="325.5" y="589.6357">13</text><text fill="#000000" font-family="sans-serif" font-size="13" lengthAdjust="spacing" textLength="119" x="343.5" y="589.6357">Mengirim hasil gagal</text><line style="stroke:#000000;stroke-width:1.0;stroke-dasharray:2.0,2.0;" x1="20" x2="912" y1="603.4922" y2="603.4922"/><text fill="#000000" font-family="sans-serif" font-size="11" font-weight="bold" lengthAdjust="spacing" textLength="179" x="25" y="614.9111">[kode keamanan formulir benar]</text><polygon fill="#2F4F8F" points="846.5,636.6797,856.5,640.6797,846.5,644.6797,850.5,640.6797" style="stroke:#2F4F8F;stroke-width:1.0;"/><line style="stroke:#2F4F8F;stroke-width:1.0;" x1="546.5" x2="852.5" y1="640.6797" y2="640.6797"/><text fill="#000000" font-family="sans-serif" font-size="13" font-weight="bold" lengthAdjust="spacing" textLength="14" x="553.5" y="635.8232">14</text><text fill="#000000" font-family="sans-serif" font-size="13" lengthAdjust="spacing" textLength="156" x="571.5" y="635.8232">Mengolah data di database</text><polygon fill="#2F4F8F" points="557.5,667.0313,547.5,671.0313,557.5,675.0313,553.5,671.0313" style="stroke:#2F4F8F;stroke-width:1.0;"/><line style="stroke:#2F4F8F;stroke-width:1.0;stroke-dasharray:2.0,2.0;" x1="551.5" x2="857.5" y1="671.0313" y2="671.0313"/><text fill="#000000" font-family="sans-serif" font-size="13" font-weight="bold" lengthAdjust="spacing" textLength="14" x="563.5" y="666.1748">15</text><text fill="#000000" font-family="sans-serif" font-size="13" lengthAdjust="spacing" textLength="82" x="581.5" y="666.1748">Hasil benarasi</text><path d="M472,686.0313 L533,686.0313 L533,694.3828 L523,704.3828 L472,704.3828 L472,686.0313 " fill="#EEEEEE" style="stroke:#000000;stroke-width:1.5;"/><rect fill="none" height="94.8906" style="stroke:#000000;stroke-width:1.5;" width="430" x="472" y="686.0313"/><text fill="#000000" font-family="sans-serif" font-size="13" font-weight="bold" lengthAdjust="spacing" textLength="16" x="487" y="700.5264">alt</text><text fill="#000000" font-family="sans-serif" font-size="11" font-weight="bold" lengthAdjust="spacing" textLength="66" x="548" y="699.4502">[Data benar]</text><polygon fill="#2F4F8F" points="846.5,722.7344,856.5,726.7344,846.5,730.7344,850.5,726.7344" style="stroke:#2F4F8F;stroke-width:1.0;"/><line style="stroke:#2F4F8F;stroke-width:1.0;" x1="546.5" x2="852.5" y1="726.7344" y2="726.7344"/><text fill="#000000" font-family="sans-serif" font-size="13" font-weight="bold" lengthAdjust="spacing" textLength="14" x="553.5" y="721.8779">16</text><text fill="#000000" font-family="sans-serif" font-size="13" lengthAdjust="spacing" textLength="270" x="571.5" y="721.8779">Memperbarui data guru SET nama,mapel_id,...</text><polygon fill="#2F4F8F" points="557.5,753.0859,547.5,757.0859,557.5,761.0859,553.5,757.0859" style="stroke:#2F4F8F;stroke-width:1.0;"/><line style="stroke:#2F4F8F;stroke-width:1.0;stroke-dasharray:2.0,2.0;" x1="551.5" x2="857.5" y1="757.0859" y2="757.0859"/><text fill="#000000" font-family="sans-serif" font-size="13" font-weight="bold" lengthAdjust="spacing" textLength="14" x="563.5" y="752.2295">17</text><text fill="#000000" font-family="sans-serif" font-size="13" lengthAdjust="spacing" textLength="113" x="581.5" y="752.2295">Mengirim hasil data</text><line style="stroke:#000000;stroke-width:1.0;stroke-dasharray:2.0,2.0;" x1="472" x2="902" y1="766.0859" y2="766.0859"/><text fill="#000000" font-family="sans-serif" font-size="11" font-weight="bold" lengthAdjust="spacing" textLength="96" x="477" y="777.5049">[Data tidak benar]</text><line style="stroke:#2F4F8F;stroke-width:1.0;stroke-dasharray:2.0,2.0;" x1="546.5" x2="588.5" y1="810.2734" y2="810.2734"/><line style="stroke:#2F4F8F;stroke-width:1.0;stroke-dasharray:2.0,2.0;" x1="588.5" x2="588.5" y1="810.2734" y2="823.2734"/><line style="stroke:#2F4F8F;stroke-width:1.0;stroke-dasharray:2.0,2.0;" x1="547.5" x2="588.5" y1="823.2734" y2="823.2734"/><polygon fill="#2F4F8F" points="557.5,819.2734,547.5,823.2734,557.5,827.2734,553.5,823.2734" style="stroke:#2F4F8F;stroke-width:1.0;"/><text fill="#000000" font-family="sans-serif" font-size="13" font-weight="bold" lengthAdjust="spacing" textLength="14" x="553.5" y="805.417">18</text><text fill="#000000" font-family="sans-serif" font-size="13" lengthAdjust="spacing" textLength="205" x="571.5" y="805.417">Menyiapkan pesan untuk pengguna</text><polygon fill="#2F4F8F" points="319.5,849.625,309.5,853.625,319.5,857.625,315.5,853.625" style="stroke:#2F4F8F;stroke-width:1.0;"/><line style="stroke:#2F4F8F;stroke-width:1.0;stroke-dasharray:2.0,2.0;" x1="313.5" x2="545.5" y1="853.625" y2="853.625"/><text fill="#000000" font-family="sans-serif" font-size="13" font-weight="bold" lengthAdjust="spacing" textLength="14" x="325.5" y="848.7686">19</text><text fill="#000000" font-family="sans-serif" font-size="13" lengthAdjust="spacing" textLength="177" x="343.5" y="848.7686">Mengalihkan page=admin-guru</text><polygon fill="#2F4F8F" points="63.5,879.9766,53.5,883.9766,63.5,887.9766,59.5,883.9766" style="stroke:#2F4F8F;stroke-width:1.0;"/><line style="stroke:#2F4F8F;stroke-width:1.0;stroke-dasharray:2.0,2.0;" x1="57.5" x2="307.5" y1="883.9766" y2="883.9766"/><text fill="#000000" font-family="sans-serif" font-size="13" font-weight="bold" lengthAdjust="spacing" textLength="14" x="69.5" y="879.1201">20</text><text fill="#000000" font-family="sans-serif" font-size="13" lengthAdjust="spacing" textLength="214" x="87.5" y="879.1201">Menampilkan pesan dan data terbaru</text><!--SRC=[ZLHTRzD047o_Nx4Ahqr58g2X4aXn4rDGeOWWyOZMySLU-NndxaDjXVZlt9tjnFagH4haU6TcrpDxjcG5XnN_vRXSSrWG5Xfh6CCyhqd20Yt21wSTAoddi57APkgHeRDAkZhZcfcAP8E1OqhCrGF90ZOe31zMUldV362kjNguKK9fU35DNwMprD-yems_8yaJfNEkk-gRv6ewUpciuhegj78oxn3fstIU9Xxn5RMbDJKexPx4ji4GSAGoIvCqWEPhg_GUVpAPpAPNsz8HCtvyEL6FUxoRPF5wEUaAPrX_66COP64KpHu1cjPsbWKqwYSOtQB06YMio5XUHqXtYwsLj5e96BKrICW78kurgLQglSro7s66XiDeqLt5Ql-7iJRfyVjU-1eILo7KNBf1_lqW7jSANyDdxec-NdObZ495G7SZxOFHMAeyhiGAi3BSo2TiIGDyFrTWo0BhZ0I4HuYwyEd-unTmXclJNjROSC5w3ept6ig2DDMUlR6e3-SwsoTAme_RvRSb68lM6J-ifSq_kfHeEeLjaw6b1xYAzwxjZFNm64K4OzsGQCrgyGtc28rNAPn4fXhRdL0VK-4oB7ScXMqzYdJbifei1EIu0vrCTEkP5zieNJj1UXWimCbekQRA85JAloGg7cIzSC_t91JsJ14ivNuVCl_80RZJVyQz0WiK7ipzQ-QSxB7WOUPAzAxb1FqfYOoJIT_6rb7MNqLSUAfuGdRDphMh6wupr8u6oxnQVWSVD5x4bVj9-SNbvMMdyj_B5i3HXpZ8ePbSveUc3iIU29kmOmqt_jT9wwhTYZsN1Geg8n4B_YvkHxzKWxKwlSzjhpn-my2jBIoE-XS0]--></g></svg>