<?xml version="1.0" encoding="us-ascii" standalone="no"?><svg xmlns="http://www.w3.org/2000/svg" xmlns:xlink="http://www.w3.org/1999/xlink" contentStyleType="text/css" height="1100px" preserveAspectRatio="none" style="width:979px;height:1100px;background:#FFFFFF;" version="1.1" viewBox="0 0 979 1100" width="979px" zoomAndPan="magnify"><defs/><g><text fill="#000000" font-family="sans-serif" font-size="14" font-weight="bold" lengthAdjust="spacing" textLength="267" x="362" y="29.5332">Sequence Diagram - Admin Data Siswa</text><rect fill="none" height="79.0547" style="stroke:#000000;stroke-width:1.5;" width="482" x="480" y="424.3828"/><rect fill="none" height="368.5391" style="stroke:#000000;stroke-width:1.5;" width="952" x="20" y="707.5469"/><rect fill="none" height="125.2422" style="stroke:#000000;stroke-width:1.5;" width="482" x="480" y="839.7891"/><line style="stroke:#6B7280;stroke-width:0.5;stroke-dasharray:5.0,5.0;" x1="52" x2="52" y1="121.2188" y2="1093.0859"/><line style="stroke:#6B7280;stroke-width:0.5;stroke-dasharray:5.0,5.0;" x1="308" x2="308" y1="121.2188" y2="1093.0859"/><line style="stroke:#6B7280;stroke-width:0.5;stroke-dasharray:5.0,5.0;" x1="554" x2="554" y1="121.2188" y2="1093.0859"/><line style="stroke:#6B7280;stroke-width:0.5;stroke-dasharray:5.0,5.0;" x1="918" x2="918" y1="121.2188" y2="1093.0859"/><text fill="#000000" font-family="sans-serif" font-size="14" lengthAdjust="spacing" textLength="39" x="30" y="118.1426">Admin</text><ellipse cx="52.5" cy="52.1094" fill="#FFFFFF" rx="8" ry="8" style="stroke:#111827;stroke-width:0.5;"/><path d="M52.5,60.1094 L52.5,87.1094 M39.5,68.1094 L65.5,68.1094 M52.5,87.1094 L39.5,102.1094 M52.5,87.1094 L65.5,102.1094 " fill="none" style="stroke:#111827;stroke-width:0.5;"/><text fill="#000000" font-family="sans-serif" font-size="14" lengthAdjust="spacing" textLength="101" x="255" y="118.1426">Halaman Sistem</text><path d="M288,75.6094 L288,99.6094 M288,87.6094 L305,87.6094 " fill="none" style="stroke:#181818;stroke-width:0.5;"/><ellipse cx="317" cy="87.6094" fill="#E2E2F0" rx="12" ry="12" style="stroke:#181818;stroke-width:0.5;"/><text fill="#000000" font-family="sans-serif" font-size="14" lengthAdjust="spacing" textLength="123" x="490" y="118.1426">Sistem BimbelOrion</text><ellipse cx="554.5" cy="87.6094" fill="#E2E2F0" rx="12" ry="12" style="stroke:#181818;stroke-width:0.5;"/><polygon fill="#181818" points="550.5,75.6094,556.5,70.6094,554.5,75.6094,556.5,80.6094,550.5,75.6094" style="stroke:#181818;stroke-width:1.0;"/><text fill="#000000" font-family="sans-serif" font-size="14" lengthAdjust="spacing" textLength="61" x="885" y="118.1426">Database</text><path d="M900.5,67.6094 C900.5,57.6094 918.5,57.6094 918.5,57.6094 C918.5,57.6094 936.5,57.6094 936.5,67.6094 L936.5,93.6094 C936.5,103.6094 918.5,103.6094 918.5,103.6094 C918.5,103.6094 900.5,103.6094 900.5,93.6094 L900.5,67.6094 " fill="#E2E2F0" style="stroke:#181818;stroke-width:1.5;"/><path d="M900.5,67.6094 C900.5,77.6094 918.5,77.6094 918.5,77.6094 C918.5,77.6094 936.5,77.6094 936.5,67.6094 " fill="none" style="stroke:#181818;stroke-width:1.5;"/><polygon fill="#2F4F8F" points="296.5,149.5703,306.5,153.5703,296.5,157.5703,300.5,153.5703" style="stroke:#2F4F8F;stroke-width:1.0;"/><line style="stroke:#2F4F8F;stroke-width:1.0;" x1="52.5" x2="302.5" y1="153.5703" y2="153.5703"/><text fill="#000000" font-family="sans-serif" font-size="13" font-weight="bold" lengthAdjust="spacing" textLength="7" x="59.5" y="148.7139">1</text><text fill="#000000" font-family="sans-serif" font-size="13" lengthAdjust="spacing" textLength="136" x="70.5" y="148.7139">Buka menu Data Siswa</text><polygon fill="#2F4F8F" points="542.5,179.9219,552.5,183.9219,542.5,187.9219,546.5,183.9219" style="stroke:#2F4F8F;stroke-width:1.0;"/><line style="stroke:#2F4F8F;stroke-width:1.0;" x1="308.5" x2="548.5" y1="183.9219" y2="183.9219"/><text fill="#000000" font-family="sans-serif" font-size="13" font-weight="bold" lengthAdjust="spacing" textLength="7" x="315.5" y="179.0654">2</text><text fill="#000000" font-family="sans-serif" font-size="13" lengthAdjust="spacing" textLength="179" x="326.5" y="179.0654">Meminta halaman admin siswa</text><line style="stroke:#2F4F8F;stroke-width:1.0;" x1="554.5" x2="596.5" y1="214.2734" y2="214.2734"/><line style="stroke:#2F4F8F;stroke-width:1.0;" x1="596.5" x2="596.5" y1="214.2734" y2="227.2734"/><line style="stroke:#2F4F8F;stroke-width:1.0;" x1="555.5" x2="596.5" y1="227.2734" y2="227.2734"/><polygon fill="#2F4F8F" points="565.5,223.2734,555.5,227.2734,565.5,231.2734,561.5,227.2734" style="stroke:#2F4F8F;stroke-width:1.0;"/><text fill="#000000" font-family="sans-serif" font-size="13" font-weight="bold" lengthAdjust="spacing" textLength="7" x="561.5" y="209.417">3</text><text fill="#000000" font-family="sans-serif" font-size="13" lengthAdjust="spacing" textLength="195" x="572.5" y="209.417">Memastikan hak aksesnya admin</text><polygon fill="#2F4F8F" points="906.5,253.625,916.5,257.625,906.5,261.625,910.5,257.625" style="stroke:#2F4F8F;stroke-width:1.0;"/><line style="stroke:#2F4F8F;stroke-width:1.0;" x1="554.5" x2="912.5" y1="257.625" y2="257.625"/><text fill="#000000" font-family="sans-serif" font-size="13" font-weight="bold" lengthAdjust="spacing" textLength="7" x="561.5" y="252.7686">4</text><text fill="#000000" font-family="sans-serif" font-size="13" lengthAdjust="spacing" textLength="329" x="572.5" y="252.7686">Mengambil data siswa JOIN users LEFT JOIN wali_murid</text><polygon fill="#2F4F8F" points="565.5,283.9766,555.5,287.9766,565.5,291.9766,561.5,287.9766" style="stroke:#2F4F8F;stroke-width:1.0;"/><line style="stroke:#2F4F8F;stroke-width:1.0;stroke-dasharray:2.0,2.0;" x1="559.5" x2="917.5" y1="287.9766" y2="287.9766"/><text fill="#000000" font-family="sans-serif" font-size="13" font-weight="bold" lengthAdjust="spacing" textLength="7" x="571.5" y="283.1201">5</text><text fill="#000000" font-family="sans-serif" font-size="13" lengthAdjust="spacing" textLength="126" x="582.5" y="283.1201">Mengirim daftar siswa</text><polygon fill="#2F4F8F" points="906.5,314.3281,916.5,318.3281,906.5,322.3281,910.5,318.3281" style="stroke:#2F4F8F;stroke-width:1.0;"/><line style="stroke:#2F4F8F;stroke-width:1.0;" x1="554.5" x2="912.5" y1="318.3281" y2="318.3281"/><text fill="#000000" font-family="sans-serif" font-size="13" font-weight="bold" lengthAdjust="spacing" textLength="7" x="561.5" y="313.4717">6</text><text fill="#000000" font-family="sans-serif" font-size="13" lengthAdjust="spacing" textLength="159" x="572.5" y="313.4717">Mengambil data mapel aktif</text><polygon fill="#2F4F8F" points="565.5,344.6797,555.5,348.6797,565.5,352.6797,561.5,348.6797" style="stroke:#2F4F8F;stroke-width:1.0;"/><line style="stroke:#2F4F8F;stroke-width:1.0;stroke-dasharray:2.0,2.0;" x1="559.5" x2="917.5" y1="348.6797" y2="348.6797"/><text fill="#000000" font-family="sans-serif" font-size="13" font-weight="bold" lengthAdjust="spacing" textLength="7" x="571.5" y="343.8232">7</text><text fill="#000000" font-family="sans-serif" font-size="13" lengthAdjust="spacing" textLength="113" x="582.5" y="343.8232">Mengirim hasil data</text><polygon fill="#2F4F8F" points="906.5,375.0313,916.5,379.0313,906.5,383.0313,910.5,379.0313" style="stroke:#2F4F8F;stroke-width:1.0;"/><line style="stroke:#2F4F8F;stroke-width:1.0;" x1="554.5" x2="912.5" y1="379.0313" y2="379.0313"/><text fill="#000000" font-family="sans-serif" font-size="13" font-weight="bold" lengthAdjust="spacing" textLength="7" x="561.5" y="374.1748">8</text><text fill="#000000" font-family="sans-serif" font-size="13" lengthAdjust="spacing" textLength="157" x="572.5" y="374.1748">Mengambil data wali_murid</text><polygon fill="#2F4F8F" points="565.5,405.3828,555.5,409.3828,565.5,413.3828,561.5,409.3828" style="stroke:#2F4F8F;stroke-width:1.0;"/><line style="stroke:#2F4F8F;stroke-width:1.0;stroke-dasharray:2.0,2.0;" x1="559.5" x2="917.5" y1="409.3828" y2="409.3828"/><text fill="#000000" font-family="sans-serif" font-size="13" font-weight="bold" lengthAdjust="spacing" textLength="7" x="571.5" y="404.5264">9</text><text fill="#000000" font-family="sans-serif" font-size="13" lengthAdjust="spacing" textLength="113" x="582.5" y="404.5264">Mengirim hasil data</text><path d="M480,424.3828 L553,424.3828 L553,432.7344 L543,442.7344 L480,442.7344 L480,424.3828 " fill="#EEEEEE" style="stroke:#000000;stroke-width:1.5;"/><rect fill="none" height="79.0547" style="stroke:#000000;stroke-width:1.5;" width="482" x="480" y="424.3828"/><text fill="#000000" font-family="sans-serif" font-size="13" font-weight="bold" lengthAdjust="spacing" textLength="28" x="495" y="438.8779">loop</text><text fill="#000000" font-family="sans-serif" font-size="11" font-weight="bold" lengthAdjust="spacing" textLength="99" x="568" y="437.8018">[Untuk tiap siswa]</text><polygon fill="#2F4F8F" points="906.5,461.0859,916.5,465.0859,906.5,469.0859,910.5,465.0859" style="stroke:#2F4F8F;stroke-width:1.0;"/><line style="stroke:#2F4F8F;stroke-width:1.0;" x1="554.5" x2="912.5" y1="465.0859" y2="465.0859"/><text fill="#000000" font-family="sans-serif" font-size="13" font-weight="bold" lengthAdjust="spacing" textLength="14" x="561.5" y="460.2295">10</text><text fill="#000000" font-family="sans-serif" font-size="13" lengthAdjust="spacing" textLength="171" x="579.5" y="460.2295">Mengambil data siswa_mapel</text><polygon fill="#2F4F8F" points="565.5,491.4375,555.5,495.4375,565.5,499.4375,561.5,495.4375" style="stroke:#2F4F8F;stroke-width:1.0;"/><line style="stroke:#2F4F8F;stroke-width:1.0;stroke-dasharray:2.0,2.0;" x1="559.5" x2="917.5" y1="495.4375" y2="495.4375"/><text fill="#000000" font-family="sans-serif" font-size="13" font-weight="bold" lengthAdjust="spacing" textLength="14" x="571.5" y="490.5811">11</text><text fill="#000000" font-family="sans-serif" font-size="13" lengthAdjust="spacing" textLength="113" x="589.5" y="490.5811">Mengirim hasil data</text><polygon fill="#2F4F8F" points="319.5,528.7891,309.5,532.7891,319.5,536.7891,315.5,532.7891" style="stroke:#2F4F8F;stroke-width:1.0;"/><line style="stroke:#2F4F8F;stroke-width:1.0;stroke-dasharray:2.0,2.0;" x1="313.5" x2="553.5" y1="532.7891" y2="532.7891"/><text fill="#000000" font-family="sans-serif" font-size="13" font-weight="bold" lengthAdjust="spacing" textLength="14" x="325.5" y="527.9326">12</text><text fill="#000000" font-family="sans-serif" font-size="13" lengthAdjust="spacing" textLength="155" x="343.5" y="527.9326">Mengirim hasil ke halaman</text><polygon fill="#2F4F8F" points="63.5,559.1406,53.5,563.1406,63.5,567.1406,59.5,563.1406" style="stroke:#2F4F8F;stroke-width:1.0;"/><line style="stroke:#2F4F8F;stroke-width:1.0;stroke-dasharray:2.0,2.0;" x1="57.5" x2="307.5" y1="563.1406" y2="563.1406"/><text fill="#000000" font-family="sans-serif" font-size="13" font-weight="bold" lengthAdjust="spacing" textLength="14" x="69.5" y="558.2842">13</text><text fill="#000000" font-family="sans-serif" font-size="13" lengthAdjust="spacing" textLength="214" x="87.5" y="558.2842">Menampilkan hasil kepada pengguna</text><polygon fill="#2F4F8F" points="296.5,614.8438,306.5,618.8438,296.5,622.8438,300.5,618.8438" style="stroke:#2F4F8F;stroke-width:1.0;"/><line style="stroke:#2F4F8F;stroke-width:1.0;" x1="52.5" x2="302.5" y1="618.8438" y2="618.8438"/><text fill="#000000" font-family="sans-serif" font-size="13" font-weight="bold" lengthAdjust="spacing" textLength="14" x="59.5" y="613.9873">14</text><text fill="#000000" font-family="sans-serif" font-size="13" lengthAdjust="spacing" textLength="110" x="77.5" y="613.9873">Submit ubah-siswa</text><polygon fill="#2F4F8F" points="542.5,645.1953,552.5,649.1953,542.5,653.1953,546.5,649.1953" style="stroke:#2F4F8F;stroke-width:1.0;"/><line style="stroke:#2F4F8F;stroke-width:1.0;" x1="308.5" x2="548.5" y1="649.1953" y2="649.1953"/><text fill="#000000" font-family="sans-serif" font-size="13" font-weight="bold" lengthAdjust="spacing" textLength="14" x="315.5" y="644.3389">15</text><text fill="#000000" font-family="sans-serif" font-size="13" lengthAdjust="spacing" textLength="204" x="333.5" y="644.3389">Mengirim data formulir admin siswa</text><line style="stroke:#2F4F8F;stroke-width:1.0;" x1="554.5" x2="596.5" y1="679.5469" y2="679.5469"/><line style="stroke:#2F4F8F;stroke-width:1.0;" x1="596.5" x2="596.5" y1="679.5469" y2="692.5469"/><line style="stroke:#2F4F8F;stroke-width:1.0;" x1="555.5" x2="596.5" y1="692.5469" y2="692.5469"/><polygon fill="#2F4F8F" points="565.5,688.5469,555.5,692.5469,565.5,696.5469,561.5,692.5469" style="stroke:#2F4F8F;stroke-width:1.0;"/><text fill="#000000" font-family="sans-serif" font-size="13" font-weight="bold" lengthAdjust="spacing" textLength="14" x="561.5" y="674.6904">16</text><text fill="#000000" font-family="sans-serif" font-size="13" lengthAdjust="spacing" textLength="206" x="579.5" y="674.6904">Memeriksa kode keamanan formulir</text><path d="M20,707.5469 L81,707.5469 L81,715.8984 L71,725.8984 L20,725.8984 L20,707.5469 " fill="#EEEEEE" style="stroke:#000000;stroke-width:1.5;"/><rect fill="none" height="368.5391" style="stroke:#000000;stroke-width:1.5;" width="952" x="20" y="707.5469"/><text fill="#000000" font-family="sans-serif" font-size="13" font-weight="bold" lengthAdjust="spacing" textLength="16" x="35" y="722.042">alt</text><text fill="#000000" font-family="sans-serif" font-size="11" font-weight="bold" lengthAdjust="spacing" textLength="209" x="96" y="720.9658">[kode keamanan formulir tidak benar]</text><polygon fill="#2F4F8F" points="319.5,744.25,309.5,748.25,319.5,752.25,315.5,748.25" style="stroke:#2F4F8F;stroke-width:1.0;"/><line style="stroke:#2F4F8F;stroke-width:1.0;stroke-dasharray:2.0,2.0;" x1="313.5" x2="553.5" y1="748.25" y2="748.25"/><text fill="#000000" font-family="sans-serif" font-size="13" font-weight="bold" lengthAdjust="spacing" textLength="14" x="325.5" y="743.3936">17</text><text fill="#000000" font-family="sans-serif" font-size="13" lengthAdjust="spacing" textLength="119" x="343.5" y="743.3936">Mengirim hasil gagal</text><line style="stroke:#000000;stroke-width:1.0;stroke-dasharray:2.0,2.0;" x1="20" x2="972" y1="757.25" y2="757.25"/><text fill="#000000" font-family="sans-serif" font-size="11" font-weight="bold" lengthAdjust="spacing" textLength="179" x="25" y="768.6689">[kode keamanan formulir benar]</text><polygon fill="#2F4F8F" points="906.5,790.4375,916.5,794.4375,906.5,798.4375,910.5,794.4375" style="stroke:#2F4F8F;stroke-width:1.0;"/><line style="stroke:#2F4F8F;stroke-width:1.0;" x1="554.5" x2="912.5" y1="794.4375" y2="794.4375"/><text fill="#000000" font-family="sans-serif" font-size="13" font-weight="bold" lengthAdjust="spacing" textLength="14" x="561.5" y="789.5811">18</text><text fill="#000000" font-family="sans-serif" font-size="13" lengthAdjust="spacing" textLength="156" x="579.5" y="789.5811">Mengolah data di database</text><polygon fill="#2F4F8F" points="565.5,820.7891,555.5,824.7891,565.5,828.7891,561.5,824.7891" style="stroke:#2F4F8F;stroke-width:1.0;"/><line style="stroke:#2F4F8F;stroke-width:1.0;stroke-dasharray:2.0,2.0;" x1="559.5" x2="917.5" y1="824.7891" y2="824.7891"/><text fill="#000000" font-family="sans-serif" font-size="13" font-weight="bold" lengthAdjust="spacing" textLength="14" x="571.5" y="819.9326">19</text><text fill="#000000" font-family="sans-serif" font-size="13" lengthAdjust="spacing" textLength="82" x="589.5" y="819.9326">Hasil benarasi</text><path d="M480,839.7891 L541,839.7891 L541,848.1406 L531,858.1406 L480,858.1406 L480,839.7891 " fill="#EEEEEE" style="stroke:#000000;stroke-width:1.5;"/><rect fill="none" height="125.2422" style="stroke:#000000;stroke-width:1.5;" width="482" x="480" y="839.7891"/><text fill="#000000" font-family="sans-serif" font-size="13" font-weight="bold" lengthAdjust="spacing" textLength="16" x="495" y="854.2842">alt</text><text fill="#000000" font-family="sans-serif" font-size="11" font-weight="bold" lengthAdjust="spacing" textLength="66" x="556" y="853.208">[Data benar]</text><polygon fill="#2F4F8F" points="906.5,876.4922,916.5,880.4922,906.5,884.4922,910.5,880.4922" style="stroke:#2F4F8F;stroke-width:1.0;"/><line style="stroke:#2F4F8F;stroke-width:1.0;" x1="554.5" x2="912.5" y1="880.4922" y2="880.4922"/><text fill="#000000" font-family="sans-serif" font-size="13" font-weight="bold" lengthAdjust="spacing" textLength="14" x="561.5" y="875.6357">20</text><text fill="#000000" font-family="sans-serif" font-size="13" lengthAdjust="spacing" textLength="141" x="579.5" y="875.6357">Memperbarui data siswa</text><polygon fill="#2F4F8F" points="906.5,906.8438,916.5,910.8438,906.5,914.8438,910.5,910.8438" style="stroke:#2F4F8F;stroke-width:1.0;"/><line style="stroke:#2F4F8F;stroke-width:1.0;" x1="554.5" x2="912.5" y1="910.8438" y2="910.8438"/><text fill="#000000" font-family="sans-serif" font-size="13" font-weight="bold" lengthAdjust="spacing" textLength="14" x="561.5" y="905.9873">21</text><text fill="#000000" font-family="sans-serif" font-size="13" lengthAdjust="spacing" textLength="156" x="579.5" y="905.9873">Mengolah data di database</text><polygon fill="#2F4F8F" points="565.5,937.1953,555.5,941.1953,565.5,945.1953,561.5,941.1953" style="stroke:#2F4F8F;stroke-width:1.0;"/><line style="stroke:#2F4F8F;stroke-width:1.0;stroke-dasharray:2.0,2.0;" x1="559.5" x2="917.5" y1="941.1953" y2="941.1953"/><text fill="#000000" font-family="sans-serif" font-size="13" font-weight="bold" lengthAdjust="spacing" textLength="14" x="571.5" y="936.3389">22</text><text fill="#000000" font-family="sans-serif" font-size="13" lengthAdjust="spacing" textLength="113" x="589.5" y="936.3389">Mengirim hasil data</text><line style="stroke:#000000;stroke-width:1.0;stroke-dasharray:2.0,2.0;" x1="480" x2="962" y1="950.1953" y2="950.1953"/><text fill="#000000" font-family="sans-serif" font-size="11" font-weight="bold" lengthAdjust="spacing" textLength="96" x="485" y="961.6143">[Data tidak benar]</text><line style="stroke:#2F4F8F;stroke-width:1.0;stroke-dasharray:2.0,2.0;" x1="554.5" x2="596.5" y1="994.3828" y2="994.3828"/><line style="stroke:#2F4F8F;stroke-width:1.0;stroke-dasharray:2.0,2.0;" x1="596.5" x2="596.5" y1="994.3828" y2="1007.3828"/><line style="stroke:#2F4F8F;stroke-width:1.0;stroke-dasharray:2.0,2.0;" x1="555.5" x2="596.5" y1="1007.3828" y2="1007.3828"/><polygon fill="#2F4F8F" points="565.5,1003.3828,555.5,1007.3828,565.5,1011.3828,561.5,1007.3828" style="stroke:#2F4F8F;stroke-width:1.0;"/><text fill="#000000" font-family="sans-serif" font-size="13" font-weight="bold" lengthAdjust="spacing" textLength="14" x="561.5" y="989.5264">23</text><text fill="#000000" font-family="sans-serif" font-size="13" lengthAdjust="spacing" textLength="205" x="579.5" y="989.5264">Menyiapkan pesan untuk pengguna</text><polygon fill="#2F4F8F" points="319.5,1033.7344,309.5,1037.7344,319.5,1041.7344,315.5,1037.7344" style="stroke:#2F4F8F;stroke-width:1.0;"/><line style="stroke:#2F4F8F;stroke-width:1.0;stroke-dasharray:2.0,2.0;" x1="313.5" x2="553.5" y1="1037.7344" y2="1037.7344"/><text fill="#000000" font-family="sans-serif" font-size="13" font-weight="bold" lengthAdjust="spacing" textLength="14" x="325.5" y="1032.8779">24</text><text fill="#000000" font-family="sans-serif" font-size="13" lengthAdjust="spacing" textLength="185" x="343.5" y="1032.8779">Mengalihkan page=admin-siswa</text><polygon fill="#2F4F8F" points="63.5,1064.0859,53.5,1068.0859,63.5,1072.0859,59.5,1068.0859" style="stroke:#2F4F8F;stroke-width:1.0;"/><line style="stroke:#2F4F8F;stroke-width:1.0;stroke-dasharray:2.0,2.0;" x1="57.5" x2="307.5" y1="1068.0859" y2="1068.0859"/><text fill="#000000" font-family="sans-serif" font-size="13" font-weight="bold" lengthAdjust="spacing" textLength="14" x="69.5" y="1063.2295">25</text><text fill="#000000" font-family="sans-serif" font-size="13" lengthAdjust="spacing" textLength="214" x="87.5" y="1063.2295">Menampilkan pesan dan data terbaru</text><!--SRC=[bLHTRzCm57tthxWgpzNe1AnC0gbP5mqq65BXURffdDIAOmT_g9iG_vrh9sdJTkrAfLH9xZddVftO2ISvBFXlpzMImrnWQR26CSpoMYYOeqDO2Bj6jX8vXq9hb-adXjvfvUkC6sOheHeC9Bl2NA-5Ag50QVamqkl_OG0pO_JwHajjuCrb-YwTflJoNXJyNYYUQ9DpqqK_95UNqxV3A2whqcYlyWwHVandQKA87sYSM8e6bTkHs2GO0WvKfccI1j1iwRJPuKyca-dbrIPqm8m_2YVwQOTtaypVtqwwm17MNyOO1baOnMcF06qxTvO5D9fd6DsXn1fLM8BZTOHqhzXIAsUqX54RWqJGGkI34RgLQb-pd7QOeUKmcdTtCTe_CDQkUlov5xw6n5S8DLT-Q82-4WAsojVmZHEJ0AikX579HdXNr2uQhHCL0LTO0LQMM_MCBMk0xoiB35LYdGa9eObM6Bu-VFaEtd9ZuVus_Ta-hr6AnzeRaREU3kETtAeKHjGaL3Wq1pKUpLbZmoNLwaJnYl8ARKSwH_ViWWUoKki6VYddAt02cwu9W7D7znYR8SBP6RdADyqC3RA7hNXlWQrB21wD5S5ODqAsYs_n3UO83QcKNY7JZUiE739TwJDSGMDq8UH5hFWY36lJxQ5T5pwhXOF06_Ue5zswyG1DfD2czbAO7TCEPpcmBJUYiWYLfYEmua6Nb7i18g5qHuAqg9oydj480d2hVsAQ9POOjiJf43qcUoYultmjQOgnqrn0VmP4nelRlukfeopTHLpeAdx_ssJ7qjKDDnaQBmPkEqauLTz_-3E0uvXYdVkp3kxTc_b0x9a-eM39Xblwz_6psZZorAh8ZAj8n99_YkuPRnj-nVzjiZnUeU9sR2pM-Wy0]--></g></svg>