<?xml version="1.0" encoding="us-ascii" standalone="no"?><svg xmlns="http://www.w3.org/2000/svg" xmlns:xlink="http://www.w3.org/1999/xlink" contentStyleType="text/css" height="1221px" preserveAspectRatio="none" style="width:972px;height:1221px;background:#FFFFFF;" version="1.1" viewBox="0 0 972 1221" width="972px" zoomAndPan="magnify"><defs/><g><text fill="#000000" font-family="sans-serif" font-size="14" font-weight="bold" lengthAdjust="spacing" textLength="301" x="341.5" y="29.5332">Sequence Diagram - Admin Data Wali Murid</text><rect fill="none" height="200.4609" style="stroke:#000000;stroke-width:1.5;" width="935" x="20" y="363.6797"/><rect fill="none" height="489.75" style="stroke:#000000;stroke-width:1.5;" width="945" x="20" y="707.5469"/><rect fill="none" height="320.1563" style="stroke:#000000;stroke-width:1.5;" width="450" x="505" y="779.0859"/><line style="stroke:#6B7280;stroke-width:0.5;stroke-dasharray:5.0,5.0;" x1="52" x2="52" y1="121.2188" y2="1214.2969"/><line style="stroke:#6B7280;stroke-width:0.5;stroke-dasharray:5.0,5.0;" x1="308" x2="308" y1="121.2188" y2="1214.2969"/><line style="stroke:#6B7280;stroke-width:0.5;stroke-dasharray:5.0,5.0;" x1="579" x2="579" y1="121.2188" y2="1214.2969"/><line style="stroke:#6B7280;stroke-width:0.5;stroke-dasharray:5.0,5.0;" x1="911" x2="911" y1="121.2188" y2="1214.2969"/><text fill="#000000" font-family="sans-serif" font-size="14" lengthAdjust="spacing" textLength="39" x="30" y="118.1426">Admin</text><ellipse cx="52.5" cy="52.1094" fill="#FFFFFF" rx="8" ry="8" style="stroke:#111827;stroke-width:0.5;"/><path d="M52.5,60.1094 L52.5,87.1094 M39.5,68.1094 L65.5,68.1094 M52.5,87.1094 L39.5,102.1094 M52.5,87.1094 L65.5,102.1094 " fill="none" style="stroke:#111827;stroke-width:0.5;"/><text fill="#000000" font-family="sans-serif" font-size="14" lengthAdjust="spacing" textLength="101" x="255" y="118.1426">Halaman Sistem</text><path d="M288,75.6094 L288,99.6094 M288,87.6094 L305,87.6094 " fill="none" style="stroke:#181818;stroke-width:0.5;"/><ellipse cx="317" cy="87.6094" fill="#E2E2F0" rx="12" ry="12" style="stroke:#181818;stroke-width:0.5;"/><text fill="#000000" font-family="sans-serif" font-size="14" lengthAdjust="spacing" textLength="123" x="515" y="118.1426">Sistem BimbelOrion</text><ellipse cx="579.5" cy="87.6094" fill="#E2E2F0" rx="12" ry="12" style="stroke:#181818;stroke-width:0.5;"/><polygon fill="#181818" points="575.5,75.6094,581.5,70.6094,579.5,75.6094,581.5,80.6094,575.5,75.6094" style="stroke:#181818;stroke-width:1.0;"/><text fill="#000000" font-family="sans-serif" font-size="14" lengthAdjust="spacing" textLength="61" x="878" y="118.1426">Database</text><path d="M893.5,67.6094 C893.5,57.6094 911.5,57.6094 911.5,57.6094 C911.5,57.6094 929.5,57.6094 929.5,67.6094 L929.5,93.6094 C929.5,103.6094 911.5,103.6094 911.5,103.6094 C911.5,103.6094 893.5,103.6094 893.5,93.6094 L893.5,67.6094 " fill="#E2E2F0" style="stroke:#181818;stroke-width:1.5;"/><path d="M893.5,67.6094 C893.5,77.6094 911.5,77.6094 911.5,77.6094 C911.5,77.6094 929.5,77.6094 929.5,67.6094 " fill="none" style="stroke:#181818;stroke-width:1.5;"/><polygon fill="#2F4F8F" points="296.5,149.5703,306.5,153.5703,296.5,157.5703,300.5,153.5703" style="stroke:#2F4F8F;stroke-width:1.0;"/><line style="stroke:#2F4F8F;stroke-width:1.0;" x1="52.5" x2="302.5" y1="153.5703" y2="153.5703"/><text fill="#000000" font-family="sans-serif" font-size="13" font-weight="bold" lengthAdjust="spacing" textLength="7" x="59.5" y="148.7139">1</text><text fill="#000000" font-family="sans-serif" font-size="13" lengthAdjust="spacing" textLength="163" x="70.5" y="148.7139">Buka menu Data Wali Murid</text><polygon fill="#2F4F8F" points="567.5,179.9219,577.5,183.9219,567.5,187.9219,571.5,183.9219" style="stroke:#2F4F8F;stroke-width:1.0;"/><line style="stroke:#2F4F8F;stroke-width:1.0;" x1="308.5" x2="573.5" y1="183.9219" y2="183.9219"/><text fill="#000000" font-family="sans-serif" font-size="13" font-weight="bold" lengthAdjust="spacing" textLength="7" x="315.5" y="179.0654">2</text><text fill="#000000" font-family="sans-serif" font-size="13" lengthAdjust="spacing" textLength="204" x="326.5" y="179.0654">Meminta halaman admin wali murid</text><line style="stroke:#2F4F8F;stroke-width:1.0;" x1="579.5" x2="621.5" y1="214.2734" y2="214.2734"/><line style="stroke:#2F4F8F;stroke-width:1.0;" x1="621.5" x2="621.5" y1="214.2734" y2="227.2734"/><line style="stroke:#2F4F8F;stroke-width:1.0;" x1="580.5" x2="621.5" y1="227.2734" y2="227.2734"/><polygon fill="#2F4F8F" points="590.5,223.2734,580.5,227.2734,590.5,231.2734,586.5,227.2734" style="stroke:#2F4F8F;stroke-width:1.0;"/><text fill="#000000" font-family="sans-serif" font-size="13" font-weight="bold" lengthAdjust="spacing" textLength="7" x="586.5" y="209.417">3</text><text fill="#000000" font-family="sans-serif" font-size="13" lengthAdjust="spacing" textLength="195" x="597.5" y="209.417">Memastikan hak aksesnya admin</text><polygon fill="#2F4F8F" points="899.5,253.625,909.5,257.625,899.5,261.625,903.5,257.625" style="stroke:#2F4F8F;stroke-width:1.0;"/><line style="stroke:#2F4F8F;stroke-width:1.0;" x1="579.5" x2="905.5" y1="257.625" y2="257.625"/><text fill="#000000" font-family="sans-serif" font-size="13" font-weight="bold" lengthAdjust="spacing" textLength="7" x="586.5" y="252.7686">4</text><text fill="#000000" font-family="sans-serif" font-size="13" lengthAdjust="spacing" textLength="276" x="597.5" y="252.7686">Mengambil data wali_murid beserta status akun</text><polygon fill="#2F4F8F" points="590.5,283.9766,580.5,287.9766,590.5,291.9766,586.5,287.9766" style="stroke:#2F4F8F;stroke-width:1.0;"/><line style="stroke:#2F4F8F;stroke-width:1.0;stroke-dasharray:2.0,2.0;" x1="584.5" x2="910.5" y1="287.9766" y2="287.9766"/><text fill="#000000" font-family="sans-serif" font-size="13" font-weight="bold" lengthAdjust="spacing" textLength="7" x="596.5" y="283.1201">5</text><text fill="#000000" font-family="sans-serif" font-size="13" lengthAdjust="spacing" textLength="115" x="607.5" y="283.1201">Mengirim daftar wali</text><polygon fill="#2F4F8F" points="319.5,314.3281,309.5,318.3281,319.5,322.3281,315.5,318.3281" style="stroke:#2F4F8F;stroke-width:1.0;"/><line style="stroke:#2F4F8F;stroke-width:1.0;stroke-dasharray:2.0,2.0;" x1="313.5" x2="578.5" y1="318.3281" y2="318.3281"/><text fill="#000000" font-family="sans-serif" font-size="13" font-weight="bold" lengthAdjust="spacing" textLength="7" x="325.5" y="313.4717">6</text><text fill="#000000" font-family="sans-serif" font-size="13" lengthAdjust="spacing" textLength="155" x="336.5" y="313.4717">Mengirim hasil ke halaman</text><polygon fill="#2F4F8F" points="63.5,344.6797,53.5,348.6797,63.5,352.6797,59.5,348.6797" style="stroke:#2F4F8F;stroke-width:1.0;"/><line style="stroke:#2F4F8F;stroke-width:1.0;stroke-dasharray:2.0,2.0;" x1="57.5" x2="307.5" y1="348.6797" y2="348.6797"/><text fill="#000000" font-family="sans-serif" font-size="13" font-weight="bold" lengthAdjust="spacing" textLength="7" x="69.5" y="343.8232">7</text><text fill="#000000" font-family="sans-serif" font-size="13" lengthAdjust="spacing" textLength="214" x="80.5" y="343.8232">Menampilkan hasil kepada pengguna</text><path d="M20,363.6797 L85,363.6797 L85,372.0313 L75,382.0313 L20,382.0313 L20,363.6797 " fill="#EEEEEE" style="stroke:#000000;stroke-width:1.5;"/><rect fill="none" height="200.4609" style="stroke:#000000;stroke-width:1.5;" width="935" x="20" y="363.6797"/><text fill="#000000" font-family="sans-serif" font-size="13" font-weight="bold" lengthAdjust="spacing" textLength="20" x="35" y="378.1748">opt</text><text fill="#000000" font-family="sans-serif" font-size="11" font-weight="bold" lengthAdjust="spacing" textLength="185" x="100" y="377.0986">[Admin melihat siswa terhubung]</text><polygon fill="#2F4F8F" points="296.5,400.3828,306.5,404.3828,296.5,408.3828,300.5,404.3828" style="stroke:#2F4F8F;stroke-width:1.0;"/><line style="stroke:#2F4F8F;stroke-width:1.0;" x1="52.5" x2="302.5" y1="404.3828" y2="404.3828"/><text fill="#000000" font-family="sans-serif" font-size="13" font-weight="bold" lengthAdjust="spacing" textLength="7" x="59.5" y="399.5264">8</text><text fill="#000000" font-family="sans-serif" font-size="13" lengthAdjust="spacing" textLength="87" x="70.5" y="399.5264">Klik lihat siswa</text><polygon fill="#2F4F8F" points="567.5,430.7344,577.5,434.7344,567.5,438.7344,571.5,434.7344" style="stroke:#2F4F8F;stroke-width:1.0;"/><line style="stroke:#2F4F8F;stroke-width:1.0;" x1="308.5" x2="573.5" y1="434.7344" y2="434.7344"/><text fill="#000000" font-family="sans-serif" font-size="13" font-weight="bold" lengthAdjust="spacing" textLength="7" x="315.5" y="429.8779">9</text><text fill="#000000" font-family="sans-serif" font-size="13" lengthAdjust="spacing" textLength="182" x="326.5" y="429.8779">Mengirim permintaan ke sistem</text><polygon fill="#2F4F8F" points="899.5,461.0859,909.5,465.0859,899.5,469.0859,903.5,465.0859" style="stroke:#2F4F8F;stroke-width:1.0;"/><line style="stroke:#2F4F8F;stroke-width:1.0;" x1="579.5" x2="905.5" y1="465.0859" y2="465.0859"/><text fill="#000000" font-family="sans-serif" font-size="13" font-weight="bold" lengthAdjust="spacing" textLength="14" x="586.5" y="460.2295">10</text><text fill="#000000" font-family="sans-serif" font-size="13" lengthAdjust="spacing" textLength="240" x="604.5" y="460.2295">Mengambil data siswa WHERE wali_id=?</text><polygon fill="#2F4F8F" points="590.5,491.4375,580.5,495.4375,590.5,499.4375,586.5,495.4375" style="stroke:#2F4F8F;stroke-width:1.0;"/><line style="stroke:#2F4F8F;stroke-width:1.0;stroke-dasharray:2.0,2.0;" x1="584.5" x2="910.5" y1="495.4375" y2="495.4375"/><text fill="#000000" font-family="sans-serif" font-size="13" font-weight="bold" lengthAdjust="spacing" textLength="14" x="596.5" y="490.5811">11</text><text fill="#000000" font-family="sans-serif" font-size="13" lengthAdjust="spacing" textLength="158" x="614.5" y="490.5811">Mengirim daftar siswa anak</text><polygon fill="#2F4F8F" points="319.5,521.7891,309.5,525.7891,319.5,529.7891,315.5,525.7891" style="stroke:#2F4F8F;stroke-width:1.0;"/><line style="stroke:#2F4F8F;stroke-width:1.0;stroke-dasharray:2.0,2.0;" x1="313.5" x2="578.5" y1="525.7891" y2="525.7891"/><text fill="#000000" font-family="sans-serif" font-size="13" font-weight="bold" lengthAdjust="spacing" textLength="14" x="325.5" y="520.9326">12</text><text fill="#000000" font-family="sans-serif" font-size="13" lengthAdjust="spacing" textLength="155" x="343.5" y="520.9326">Mengirim hasil ke halaman</text><polygon fill="#2F4F8F" points="63.5,552.1406,53.5,556.1406,63.5,560.1406,59.5,556.1406" style="stroke:#2F4F8F;stroke-width:1.0;"/><line style="stroke:#2F4F8F;stroke-width:1.0;stroke-dasharray:2.0,2.0;" x1="57.5" x2="307.5" y1="556.1406" y2="556.1406"/><text fill="#000000" font-family="sans-serif" font-size="13" font-weight="bold" lengthAdjust="spacing" textLength="14" x="69.5" y="551.2842">13</text><text fill="#000000" font-family="sans-serif" font-size="13" lengthAdjust="spacing" textLength="193" x="87.5" y="551.2842">Tampilkan daftar siswa terhubung</text><polygon fill="#2F4F8F" points="296.5,614.8438,306.5,618.8438,296.5,622.8438,300.5,618.8438" style="stroke:#2F4F8F;stroke-width:1.0;"/><line style="stroke:#2F4F8F;stroke-width:1.0;" x1="52.5" x2="302.5" y1="618.8438" y2="618.8438"/><text fill="#000000" font-family="sans-serif" font-size="13" font-weight="bold" lengthAdjust="spacing" textLength="14" x="59.5" y="613.9873">14</text><text fill="#000000" font-family="sans-serif" font-size="13" lengthAdjust="spacing" textLength="108" x="77.5" y="613.9873">Mengirim form wali</text><polygon fill="#2F4F8F" points="567.5,645.1953,577.5,649.1953,567.5,653.1953,571.5,649.1953" style="stroke:#2F4F8F;stroke-width:1.0;"/><line style="stroke:#2F4F8F;stroke-width:1.0;" x1="308.5" x2="573.5" y1="649.1953" y2="649.1953"/><text fill="#000000" font-family="sans-serif" font-size="13" font-weight="bold" lengthAdjust="spacing" textLength="14" x="315.5" y="644.3389">15</text><text fill="#000000" font-family="sans-serif" font-size="13" lengthAdjust="spacing" textLength="229" x="333.5" y="644.3389">Mengirim data formulir admin wali murid</text><line style="stroke:#2F4F8F;stroke-width:1.0;" x1="579.5" x2="621.5" y1="679.5469" y2="679.5469"/><line style="stroke:#2F4F8F;stroke-width:1.0;" x1="621.5" x2="621.5" y1="679.5469" y2="692.5469"/><line style="stroke:#2F4F8F;stroke-width:1.0;" x1="580.5" x2="621.5" y1="692.5469" y2="692.5469"/><polygon fill="#2F4F8F" points="590.5,688.5469,580.5,692.5469,590.5,696.5469,586.5,692.5469" style="stroke:#2F4F8F;stroke-width:1.0;"/><text fill="#000000" font-family="sans-serif" font-size="13" font-weight="bold" lengthAdjust="spacing" textLength="14" x="586.5" y="674.6904">16</text><text fill="#000000" font-family="sans-serif" font-size="13" lengthAdjust="spacing" textLength="206" x="604.5" y="674.6904">Memeriksa kode keamanan formulir</text><path d="M20,707.5469 L81,707.5469 L81,715.8984 L71,725.8984 L20,725.8984 L20,707.5469 " fill="#EEEEEE" style="stroke:#000000;stroke-width:1.5;"/><rect fill="none" height="489.75" style="stroke:#000000;stroke-width:1.5;" width="945" x="20" y="707.5469"/><text fill="#000000" font-family="sans-serif" font-size="13" font-weight="bold" lengthAdjust="spacing" textLength="16" x="35" y="722.042">alt</text><text fill="#000000" font-family="sans-serif" font-size="11" font-weight="bold" lengthAdjust="spacing" textLength="209" x="96" y="720.9658">[kode keamanan formulir tidak benar]</text><polygon fill="#2F4F8F" points="319.5,744.25,309.5,748.25,319.5,752.25,315.5,748.25" style="stroke:#2F4F8F;stroke-width:1.0;"/><line style="stroke:#2F4F8F;stroke-width:1.0;stroke-dasharray:2.0,2.0;" x1="313.5" x2="578.5" y1="748.25" y2="748.25"/><text fill="#000000" font-family="sans-serif" font-size="13" font-weight="bold" lengthAdjust="spacing" textLength="14" x="325.5" y="743.3936">17</text><text fill="#000000" font-family="sans-serif" font-size="13" lengthAdjust="spacing" textLength="119" x="343.5" y="743.3936">Mengirim hasil gagal</text><line style="stroke:#000000;stroke-width:1.0;stroke-dasharray:2.0,2.0;" x1="20" x2="965" y1="757.25" y2="757.25"/><text fill="#000000" font-family="sans-serif" font-size="11" font-weight="bold" lengthAdjust="spacing" textLength="179" x="25" y="768.6689">[kode keamanan formulir benar]</text><path d="M505,779.0859 L566,779.0859 L566,787.4375 L556,797.4375 L505,797.4375 L505,779.0859 " fill="#EEEEEE" style="stroke:#000000;stroke-width:1.5;"/><rect fill="none" height="320.1563" style="stroke:#000000;stroke-width:1.5;" width="450" x="505" y="779.0859"/><text fill="#000000" font-family="sans-serif" font-size="13" font-weight="bold" lengthAdjust="spacing" textLength="16" x="520" y="793.5811">alt</text><text fill="#000000" font-family="sans-serif" font-size="11" font-weight="bold" lengthAdjust="spacing" textLength="69" x="581" y="792.5049">[create-wali]</text><polygon fill="#2F4F8F" points="899.5,815.7891,909.5,819.7891,899.5,823.7891,903.5,819.7891" style="stroke:#2F4F8F;stroke-width:1.0;"/><line style="stroke:#2F4F8F;stroke-width:1.0;" x1="579.5" x2="905.5" y1="819.7891" y2="819.7891"/><text fill="#000000" font-family="sans-serif" font-size="13" font-weight="bold" lengthAdjust="spacing" textLength="14" x="586.5" y="814.9326">18</text><text fill="#000000" font-family="sans-serif" font-size="13" lengthAdjust="spacing" textLength="190" x="604.5" y="814.9326">Menyimpan data baru wali_murid</text><line style="stroke:#000000;stroke-width:1.0;stroke-dasharray:2.0,2.0;" x1="505" x2="955" y1="828.7891" y2="828.7891"/><text fill="#000000" font-family="sans-serif" font-size="11" font-weight="bold" lengthAdjust="spacing" textLength="116" x="510" y="840.208">[create-wali-account]</text><polygon fill="#2F4F8F" points="899.5,861.9766,909.5,865.9766,899.5,869.9766,903.5,865.9766" style="stroke:#2F4F8F;stroke-width:1.0;"/><line style="stroke:#2F4F8F;stroke-width:1.0;" x1="579.5" x2="905.5" y1="865.9766" y2="865.9766"/><text fill="#000000" font-family="sans-serif" font-size="13" font-weight="bold" lengthAdjust="spacing" textLength="14" x="586.5" y="861.1201">19</text><text fill="#000000" font-family="sans-serif" font-size="13" lengthAdjust="spacing" textLength="290" x="604.5" y="861.1201">Menyimpan data baru users hak akses wali_murid</text><line style="stroke:#000000;stroke-width:1.0;stroke-dasharray:2.0,2.0;" x1="505" x2="955" y1="874.9766" y2="874.9766"/><text fill="#000000" font-family="sans-serif" font-size="11" font-weight="bold" lengthAdjust="spacing" textLength="72" x="510" y="886.3955">[update-wali]</text><polygon fill="#2F4F8F" points="899.5,908.1641,909.5,912.1641,899.5,916.1641,903.5,912.1641" style="stroke:#2F4F8F;stroke-width:1.0;"/><line style="stroke:#2F4F8F;stroke-width:1.0;" x1="579.5" x2="905.5" y1="912.1641" y2="912.1641"/><text fill="#000000" font-family="sans-serif" font-size="13" font-weight="bold" lengthAdjust="spacing" textLength="14" x="586.5" y="907.3076">20</text><text fill="#000000" font-family="sans-serif" font-size="13" lengthAdjust="spacing" textLength="169" x="604.5" y="907.3076">Memperbarui data wali_murid</text><line style="stroke:#000000;stroke-width:1.0;stroke-dasharray:2.0,2.0;" x1="505" x2="955" y1="921.1641" y2="921.1641"/><text fill="#000000" font-family="sans-serif" font-size="11" font-weight="bold" lengthAdjust="spacing" textLength="69" x="510" y="932.583">[delete-wali]</text><line style="stroke:#2F4F8F;stroke-width:1.0;" x1="579.5" x2="621.5" y1="958.3516" y2="958.3516"/><line style="stroke:#2F4F8F;stroke-width:1.0;" x1="621.5" x2="621.5" y1="958.3516" y2="971.3516"/><line style="stroke:#2F4F8F;stroke-width:1.0;" x1="580.5" x2="621.5" y1="971.3516" y2="971.3516"/><polygon fill="#2F4F8F" points="590.5,967.3516,580.5,971.3516,590.5,975.3516,586.5,971.3516" style="stroke:#2F4F8F;stroke-width:1.0;"/><text fill="#000000" font-family="sans-serif" font-size="13" font-weight="bold" lengthAdjust="spacing" textLength="14" x="586.5" y="953.4951">21</text><text fill="#000000" font-family="sans-serif" font-size="13" lengthAdjust="spacing" textLength="129" x="604.5" y="953.4951">Menghapus wali murid</text><polygon fill="#2F4F8F" points="899.5,997.7031,909.5,1001.7031,899.5,1005.7031,903.5,1001.7031" style="stroke:#2F4F8F;stroke-width:1.0;"/><line style="stroke:#2F4F8F;stroke-width:1.0;" x1="579.5" x2="905.5" y1="1001.7031" y2="1001.7031"/><text fill="#000000" font-family="sans-serif" font-size="13" font-weight="bold" lengthAdjust="spacing" textLength="14" x="586.5" y="996.8467">22</text><text fill="#000000" font-family="sans-serif" font-size="13" lengthAdjust="spacing" textLength="156" x="604.5" y="996.8467">Mengolah data di database</text><line style="stroke:#000000;stroke-width:1.0;stroke-dasharray:2.0,2.0;" x1="505" x2="955" y1="1010.7031" y2="1010.7031"/><text fill="#000000" font-family="sans-serif" font-size="11" font-weight="bold" lengthAdjust="spacing" textLength="102" x="510" y="1022.1221">[delete-wali-force]</text><line style="stroke:#2F4F8F;stroke-width:1.0;" x1="579.5" x2="621.5" y1="1047.8906" y2="1047.8906"/><line style="stroke:#2F4F8F;stroke-width:1.0;" x1="621.5" x2="621.5" y1="1047.8906" y2="1060.8906"/><line style="stroke:#2F4F8F;stroke-width:1.0;" x1="580.5" x2="621.5" y1="1060.8906" y2="1060.8906"/><polygon fill="#2F4F8F" points="590.5,1056.8906,580.5,1060.8906,590.5,1064.8906,586.5,1060.8906" style="stroke:#2F4F8F;stroke-width:1.0;"/><text fill="#000000" font-family="sans-serif" font-size="13" font-weight="bold" lengthAdjust="spacing" textLength="14" x="586.5" y="1043.0342">23</text><text fill="#000000" font-family="sans-serif" font-size="13" lengthAdjust="spacing" textLength="166" x="604.5" y="1043.0342">Force menghapus wali murid</text><polygon fill="#2F4F8F" points="899.5,1087.2422,909.5,1091.2422,899.5,1095.2422,903.5,1091.2422" style="stroke:#2F4F8F;stroke-width:1.0;"/><line style="stroke:#2F4F8F;stroke-width:1.0;" x1="579.5" x2="905.5" y1="1091.2422" y2="1091.2422"/><text fill="#000000" font-family="sans-serif" font-size="13" font-weight="bold" lengthAdjust="spacing" textLength="14" x="586.5" y="1086.3857">24</text><text fill="#000000" font-family="sans-serif" font-size="13" lengthAdjust="spacing" textLength="156" x="604.5" y="1086.3857">Mengolah data di database</text><polygon fill="#2F4F8F" points="590.5,1124.5938,580.5,1128.5938,590.5,1132.5938,586.5,1128.5938" style="stroke:#2F4F8F;stroke-width:1.0;"/><line style="stroke:#2F4F8F;stroke-width:1.0;stroke-dasharray:2.0,2.0;" x1="584.5" x2="910.5" y1="1128.5938" y2="1128.5938"/><text fill="#000000" font-family="sans-serif" font-size="13" font-weight="bold" lengthAdjust="spacing" textLength="14" x="596.5" y="1123.7373">25</text><text fill="#000000" font-family="sans-serif" font-size="13" lengthAdjust="spacing" textLength="127" x="614.5" y="1123.7373">Mengirim hasil proses</text><polygon fill="#2F4F8F" points="319.5,1154.9453,309.5,1158.9453,319.5,1162.9453,315.5,1158.9453" style="stroke:#2F4F8F;stroke-width:1.0;"/><line style="stroke:#2F4F8F;stroke-width:1.0;stroke-dasharray:2.0,2.0;" x1="313.5" x2="578.5" y1="1158.9453" y2="1158.9453"/><text fill="#000000" font-family="sans-serif" font-size="13" font-weight="bold" lengthAdjust="spacing" textLength="14" x="325.5" y="1154.0889">26</text><text fill="#000000" font-family="sans-serif" font-size="13" lengthAdjust="spacing" textLength="210" x="343.5" y="1154.0889">Mengalihkan page=admin-wali-murid</text><polygon fill="#2F4F8F" points="63.5,1185.2969,53.5,1189.2969,63.5,1193.2969,59.5,1189.2969" style="stroke:#2F4F8F;stroke-width:1.0;"/><line style="stroke:#2F4F8F;stroke-width:1.0;stroke-dasharray:2.0,2.0;" x1="57.5" x2="307.5" y1="1189.2969" y2="1189.2969"/><text fill="#000000" font-family="sans-serif" font-size="13" font-weight="bold" lengthAdjust="spacing" textLength="14" x="69.5" y="1184.4404">27</text><text fill="#000000" font-family="sans-serif" font-size="13" lengthAdjust="spacing" textLength="214" x="87.5" y="1184.4404">Menampilkan pesan dan data terbaru</text><!--SRC=[hLJRRjD047ttLup2SmIjW9PA1ILDhKgq0b6aFgAnFR5NjdVDNjHMY7zdTjUEdQOfGI8lINREd9avSx72DWItzDEHp0bM0akDBSnXKRH2mWejmXqs0cwS5aLIYO9WhPJDr4E2pYhfsenqOceXE_IUfi92tGjPmXeRGrFB4EHN0h3GMjrVg4PfU7MSlarFKtwy5ckw5fAMIXUaU-lxvSdnwPkf5VEwrCh9eaUa7z95kcJ4LzHMvA93QRSeDW6cW1sMqtIPUj0Yjqfl-HyT7PqUdsnCEvxXm-QbUjZokrYktbqUzOOzNh-J945F2xCW-GpGHF6JpADHFyBi2XjiKSAjC9RQ0EcVabn9grK3isY3fU26D5-qK94gFYS5Dp93Gp1RzR-2TVYJ9B7Vyuy3yHaiNOtGadGxKp2am-X8VmOtnEwCgdeJ1hfxxzC6dpwzRHSqLjIChh06h0qP-OZHTO8VSlGUiiGs4mtuSWBxZy0E6HdI_6GiMcUOoybay8FvLb1P2YrQPbXRr85Z4sjQ_GPOeU60DGsbZTKpFAWMmDXseecrH7o71KB7BAMJcAZEzYlLKYCgj624kKUmf2kNELdwwTffmUT6r321C-XPxVjKEzAX2spcV4tiFC01KiPaxguklrr6MKLn_ebT3z8mEgF4UXBiC2qdzOngVjzekHLWb8faCH7KSXrOmMkWGbZ-oXpBvIU0VrVOyJY49Z-dxoQnjTBj07j9uI2M1xj6wDqXdsez6NFIeZO8jUBZMPCdP_g1XPsmiNkCO4N1kv7nV7dWGVAMM6B3OEBpkuzs9FInSqreQTxNFmtpP6GUHTk5jh0A6MetMS7W649EsEQOvtp4x3-oEbvcCnw5PwEuhZWevvQNmfEAfpTZf2geeNrKqmaOXmb6XlthfHgUoX2qYC73eNqkwfpxajFUsAct-aly7pEGqVVb_Oxpr6d5JNXn-ZYXokzhXoMTXws8TOr9_kLeTcJ21FHJO6FFaf3e7m00]--></g></svg>