<?xml version="1.0" encoding="us-ascii" standalone="no"?><svg xmlns="http://www.w3.org/2000/svg" xmlns:xlink="http://www.w3.org/1999/xlink" contentStyleType="text/css" height="1215px" preserveAspectRatio="none" style="width:986px;height:1215px;background:#FFFFFF;" version="1.1" viewBox="0 0 986 1215" width="986px" zoomAndPan="magnify"><defs/><g><text fill="#000000" font-family="sans-serif" font-size="14" font-weight="bold" lengthAdjust="spacing" textLength="395" x="301.5" y="29.5332">Sequence Diagram - Admin Atur Pengajar / Relasi Belajar</text><rect fill="none" height="490.4297" style="stroke:#000000;stroke-width:1.5;" width="959" x="20" y="701.1953"/><rect fill="none" height="307.8359" style="stroke:#000000;stroke-width:1.5;" width="501" x="468" y="772.7344"/><rect fill="none" height="94.8906" style="stroke:#000000;stroke-width:1.5;" width="481" x="478" y="858.7891"/><line style="stroke:#6B7280;stroke-width:0.5;stroke-dasharray:5.0,5.0;" x1="52" x2="52" y1="121.2188" y2="1208.625"/><line style="stroke:#6B7280;stroke-width:0.5;stroke-dasharray:5.0,5.0;" x1="308" x2="308" y1="121.2188" y2="1208.625"/><line style="stroke:#6B7280;stroke-width:0.5;stroke-dasharray:5.0,5.0;" x1="552" x2="552" y1="121.2188" y2="1208.625"/><line style="stroke:#6B7280;stroke-width:0.5;stroke-dasharray:5.0,5.0;" x1="915" x2="915" y1="121.2188" y2="1208.625"/><text fill="#000000" font-family="sans-serif" font-size="14" lengthAdjust="spacing" textLength="39" x="30" y="118.1426">Admin</text><ellipse cx="52.5" cy="52.1094" fill="#FFFFFF" rx="8" ry="8" style="stroke:#111827;stroke-width:0.5;"/><path d="M52.5,60.1094 L52.5,87.1094 M39.5,68.1094 L65.5,68.1094 M52.5,87.1094 L39.5,102.1094 M52.5,87.1094 L65.5,102.1094 " fill="none" style="stroke:#111827;stroke-width:0.5;"/><text fill="#000000" font-family="sans-serif" font-size="14" lengthAdjust="spacing" textLength="101" x="255" y="118.1426">Halaman Sistem</text><path d="M288,75.6094 L288,99.6094 M288,87.6094 L305,87.6094 " fill="none" style="stroke:#181818;stroke-width:0.5;"/><ellipse cx="317" cy="87.6094" fill="#E2E2F0" rx="12" ry="12" style="stroke:#181818;stroke-width:0.5;"/><text fill="#000000" font-family="sans-serif" font-size="14" lengthAdjust="spacing" textLength="123" x="488" y="118.1426">Sistem BimbelOrion</text><ellipse cx="552.5" cy="87.6094" fill="#E2E2F0" rx="12" ry="12" style="stroke:#181818;stroke-width:0.5;"/><polygon fill="#181818" points="548.5,75.6094,554.5,70.6094,552.5,75.6094,554.5,80.6094,548.5,75.6094" style="stroke:#181818;stroke-width:1.0;"/><text fill="#000000" font-family="sans-serif" font-size="14" lengthAdjust="spacing" textLength="61" x="882" y="118.1426">Database</text><path d="M897.5,67.6094 C897.5,57.6094 915.5,57.6094 915.5,57.6094 C915.5,57.6094 933.5,57.6094 933.5,67.6094 L933.5,93.6094 C933.5,103.6094 915.5,103.6094 915.5,103.6094 C915.5,103.6094 897.5,103.6094 897.5,93.6094 L897.5,67.6094 " fill="#E2E2F0" style="stroke:#181818;stroke-width:1.5;"/><path d="M897.5,67.6094 C897.5,77.6094 915.5,77.6094 915.5,77.6094 C915.5,77.6094 933.5,77.6094 933.5,67.6094 " fill="none" style="stroke:#181818;stroke-width:1.5;"/><polygon fill="#2F4F8F" points="296.5,149.5703,306.5,153.5703,296.5,157.5703,300.5,153.5703" style="stroke:#2F4F8F;stroke-width:1.0;"/><line style="stroke:#2F4F8F;stroke-width:1.0;" x1="52.5" x2="302.5" y1="153.5703" y2="153.5703"/><text fill="#000000" font-family="sans-serif" font-size="13" font-weight="bold" lengthAdjust="spacing" textLength="7" x="59.5" y="148.7139">1</text><text fill="#000000" font-family="sans-serif" font-size="13" lengthAdjust="spacing" textLength="149" x="70.5" y="148.7139">Buka menu Atur Pengajar</text><polygon fill="#2F4F8F" points="540.5,179.9219,550.5,183.9219,540.5,187.9219,544.5,183.9219" style="stroke:#2F4F8F;stroke-width:1.0;"/><line style="stroke:#2F4F8F;stroke-width:1.0;" x1="308.5" x2="546.5" y1="183.9219" y2="183.9219"/><text fill="#000000" font-family="sans-serif" font-size="13" font-weight="bold" lengthAdjust="spacing" textLength="7" x="315.5" y="179.0654">2</text><text fill="#000000" font-family="sans-serif" font-size="13" lengthAdjust="spacing" textLength="177" x="326.5" y="179.0654">Meminta halaman admin relasi</text><line style="stroke:#2F4F8F;stroke-width:1.0;" x1="552.5" x2="594.5" y1="214.2734" y2="214.2734"/><line style="stroke:#2F4F8F;stroke-width:1.0;" x1="594.5" x2="594.5" y1="214.2734" y2="227.2734"/><line style="stroke:#2F4F8F;stroke-width:1.0;" x1="553.5" x2="594.5" y1="227.2734" y2="227.2734"/><polygon fill="#2F4F8F" points="563.5,223.2734,553.5,227.2734,563.5,231.2734,559.5,227.2734" style="stroke:#2F4F8F;stroke-width:1.0;"/><text fill="#000000" font-family="sans-serif" font-size="13" font-weight="bold" lengthAdjust="spacing" textLength="7" x="559.5" y="209.417">3</text><text fill="#000000" font-family="sans-serif" font-size="13" lengthAdjust="spacing" textLength="195" x="570.5" y="209.417">Memastikan hak aksesnya admin</text><polygon fill="#2F4F8F" points="903.5,253.625,913.5,257.625,903.5,261.625,907.5,257.625" style="stroke:#2F4F8F;stroke-width:1.0;"/><line style="stroke:#2F4F8F;stroke-width:1.0;" x1="552.5" x2="909.5" y1="257.625" y2="257.625"/><text fill="#000000" font-family="sans-serif" font-size="13" font-weight="bold" lengthAdjust="spacing" textLength="7" x="559.5" y="252.7686">4</text><text fill="#000000" font-family="sans-serif" font-size="13" lengthAdjust="spacing" textLength="328" x="570.5" y="252.7686">Mengambil data kelas JOIN siswa JOIN guru JOIN mapel</text><polygon fill="#2F4F8F" points="563.5,283.9766,553.5,287.9766,563.5,291.9766,559.5,287.9766" style="stroke:#2F4F8F;stroke-width:1.0;"/><line style="stroke:#2F4F8F;stroke-width:1.0;stroke-dasharray:2.0,2.0;" x1="557.5" x2="914.5" y1="287.9766" y2="287.9766"/><text fill="#000000" font-family="sans-serif" font-size="13" font-weight="bold" lengthAdjust="spacing" textLength="7" x="569.5" y="283.1201">5</text><text fill="#000000" font-family="sans-serif" font-size="13" lengthAdjust="spacing" textLength="124" x="580.5" y="283.1201">Mengirim daftar relasi</text><polygon fill="#2F4F8F" points="903.5,314.3281,913.5,318.3281,903.5,322.3281,907.5,318.3281" style="stroke:#2F4F8F;stroke-width:1.0;"/><line style="stroke:#2F4F8F;stroke-width:1.0;" x1="552.5" x2="909.5" y1="318.3281" y2="318.3281"/><text fill="#000000" font-family="sans-serif" font-size="13" font-weight="bold" lengthAdjust="spacing" textLength="7" x="559.5" y="313.4717">6</text><text fill="#000000" font-family="sans-serif" font-size="13" lengthAdjust="spacing" textLength="273" x="570.5" y="313.4717">Mengambil data opsi siswa, guru, siswa_mapel</text><polygon fill="#2F4F8F" points="563.5,344.6797,553.5,348.6797,563.5,352.6797,559.5,348.6797" style="stroke:#2F4F8F;stroke-width:1.0;"/><line style="stroke:#2F4F8F;stroke-width:1.0;stroke-dasharray:2.0,2.0;" x1="557.5" x2="914.5" y1="348.6797" y2="348.6797"/><text fill="#000000" font-family="sans-serif" font-size="13" font-weight="bold" lengthAdjust="spacing" textLength="7" x="569.5" y="343.8232">7</text><text fill="#000000" font-family="sans-serif" font-size="13" lengthAdjust="spacing" textLength="113" x="580.5" y="343.8232">Mengirim hasil data</text><line style="stroke:#2F4F8F;stroke-width:1.0;" x1="552.5" x2="594.5" y1="379.0313" y2="379.0313"/><line style="stroke:#2F4F8F;stroke-width:1.0;" x1="594.5" x2="594.5" y1="379.0313" y2="392.0313"/><line style="stroke:#2F4F8F;stroke-width:1.0;" x1="553.5" x2="594.5" y1="392.0313" y2="392.0313"/><polygon fill="#2F4F8F" points="563.5,388.0313,553.5,392.0313,563.5,396.0313,559.5,392.0313" style="stroke:#2F4F8F;stroke-width:1.0;"/><text fill="#000000" font-family="sans-serif" font-size="13" font-weight="bold" lengthAdjust="spacing" textLength="7" x="559.5" y="374.1748">8</text><text fill="#000000" font-family="sans-serif" font-size="13" lengthAdjust="spacing" textLength="130" x="570.5" y="374.1748">Menghitung relasi aktif</text><line style="stroke:#2F4F8F;stroke-width:1.0;" x1="552.5" x2="594.5" y1="422.3828" y2="422.3828"/><line style="stroke:#2F4F8F;stroke-width:1.0;" x1="594.5" x2="594.5" y1="422.3828" y2="435.3828"/><line style="stroke:#2F4F8F;stroke-width:1.0;" x1="553.5" x2="594.5" y1="435.3828" y2="435.3828"/><polygon fill="#2F4F8F" points="563.5,431.3828,553.5,435.3828,563.5,439.3828,559.5,435.3828" style="stroke:#2F4F8F;stroke-width:1.0;"/><text fill="#000000" font-family="sans-serif" font-size="13" font-weight="bold" lengthAdjust="spacing" textLength="7" x="559.5" y="417.5264">9</text><text fill="#000000" font-family="sans-serif" font-size="13" lengthAdjust="spacing" textLength="172" x="570.5" y="417.5264">Menghitung siswa siap jadwal</text><polygon fill="#2F4F8F" points="903.5,461.7344,913.5,465.7344,903.5,469.7344,907.5,465.7344" style="stroke:#2F4F8F;stroke-width:1.0;"/><line style="stroke:#2F4F8F;stroke-width:1.0;" x1="552.5" x2="909.5" y1="465.7344" y2="465.7344"/><text fill="#000000" font-family="sans-serif" font-size="13" font-weight="bold" lengthAdjust="spacing" textLength="14" x="559.5" y="460.8779">10</text><text fill="#000000" font-family="sans-serif" font-size="13" lengthAdjust="spacing" textLength="271" x="577.5" y="460.8779">Mengambil data COUNT relasi aktif/siap jadwal</text><polygon fill="#2F4F8F" points="563.5,492.0859,553.5,496.0859,563.5,500.0859,559.5,496.0859" style="stroke:#2F4F8F;stroke-width:1.0;"/><line style="stroke:#2F4F8F;stroke-width:1.0;stroke-dasharray:2.0,2.0;" x1="557.5" x2="914.5" y1="496.0859" y2="496.0859"/><text fill="#000000" font-family="sans-serif" font-size="13" font-weight="bold" lengthAdjust="spacing" textLength="14" x="569.5" y="491.2295">11</text><text fill="#000000" font-family="sans-serif" font-size="13" lengthAdjust="spacing" textLength="113" x="587.5" y="491.2295">Mengirim hasil data</text><polygon fill="#2F4F8F" points="319.5,522.4375,309.5,526.4375,319.5,530.4375,315.5,526.4375" style="stroke:#2F4F8F;stroke-width:1.0;"/><line style="stroke:#2F4F8F;stroke-width:1.0;stroke-dasharray:2.0,2.0;" x1="313.5" x2="551.5" y1="526.4375" y2="526.4375"/><text fill="#000000" font-family="sans-serif" font-size="13" font-weight="bold" lengthAdjust="spacing" textLength="14" x="325.5" y="521.5811">12</text><text fill="#000000" font-family="sans-serif" font-size="13" lengthAdjust="spacing" textLength="155" x="343.5" y="521.5811">Mengirim hasil ke halaman</text><polygon fill="#2F4F8F" points="63.5,552.7891,53.5,556.7891,63.5,560.7891,59.5,556.7891" style="stroke:#2F4F8F;stroke-width:1.0;"/><line style="stroke:#2F4F8F;stroke-width:1.0;stroke-dasharray:2.0,2.0;" x1="57.5" x2="307.5" y1="556.7891" y2="556.7891"/><text fill="#000000" font-family="sans-serif" font-size="13" font-weight="bold" lengthAdjust="spacing" textLength="14" x="69.5" y="551.9326">13</text><text fill="#000000" font-family="sans-serif" font-size="13" lengthAdjust="spacing" textLength="214" x="87.5" y="551.9326">Menampilkan hasil kepada pengguna</text><polygon fill="#2F4F8F" points="296.5,608.4922,306.5,612.4922,296.5,616.4922,300.5,612.4922" style="stroke:#2F4F8F;stroke-width:1.0;"/><line style="stroke:#2F4F8F;stroke-width:1.0;" x1="52.5" x2="302.5" y1="612.4922" y2="612.4922"/><text fill="#000000" font-family="sans-serif" font-size="13" font-weight="bold" lengthAdjust="spacing" textLength="14" x="59.5" y="607.6357">14</text><text fill="#000000" font-family="sans-serif" font-size="13" lengthAdjust="spacing" textLength="117" x="77.5" y="607.6357">Mengirim form relasi</text><polygon fill="#2F4F8F" points="540.5,638.8438,550.5,642.8438,540.5,646.8438,544.5,642.8438" style="stroke:#2F4F8F;stroke-width:1.0;"/><line style="stroke:#2F4F8F;stroke-width:1.0;" x1="308.5" x2="546.5" y1="642.8438" y2="642.8438"/><text fill="#000000" font-family="sans-serif" font-size="13" font-weight="bold" lengthAdjust="spacing" textLength="14" x="315.5" y="637.9873">15</text><text fill="#000000" font-family="sans-serif" font-size="13" lengthAdjust="spacing" textLength="202" x="333.5" y="637.9873">Mengirim data formulir admin relasi</text><line style="stroke:#2F4F8F;stroke-width:1.0;" x1="552.5" x2="594.5" y1="673.1953" y2="673.1953"/><line style="stroke:#2F4F8F;stroke-width:1.0;" x1="594.5" x2="594.5" y1="673.1953" y2="686.1953"/><line style="stroke:#2F4F8F;stroke-width:1.0;" x1="553.5" x2="594.5" y1="686.1953" y2="686.1953"/><polygon fill="#2F4F8F" points="563.5,682.1953,553.5,686.1953,563.5,690.1953,559.5,686.1953" style="stroke:#2F4F8F;stroke-width:1.0;"/><text fill="#000000" font-family="sans-serif" font-size="13" font-weight="bold" lengthAdjust="spacing" textLength="14" x="559.5" y="668.3389">16</text><text fill="#000000" font-family="sans-serif" font-size="13" lengthAdjust="spacing" textLength="206" x="577.5" y="668.3389">Memeriksa kode keamanan formulir</text><path d="M20,701.1953 L81,701.1953 L81,709.5469 L71,719.5469 L20,719.5469 L20,701.1953 " fill="#EEEEEE" style="stroke:#000000;stroke-width:1.5;"/><rect fill="none" height="490.4297" style="stroke:#000000;stroke-width:1.5;" width="959" x="20" y="701.1953"/><text fill="#000000" font-family="sans-serif" font-size="13" font-weight="bold" lengthAdjust="spacing" textLength="16" x="35" y="715.6904">alt</text><text fill="#000000" font-family="sans-serif" font-size="11" font-weight="bold" lengthAdjust="spacing" textLength="209" x="96" y="714.6143">[kode keamanan formulir tidak benar]</text><polygon fill="#2F4F8F" points="319.5,737.8984,309.5,741.8984,319.5,745.8984,315.5,741.8984" style="stroke:#2F4F8F;stroke-width:1.0;"/><line style="stroke:#2F4F8F;stroke-width:1.0;stroke-dasharray:2.0,2.0;" x1="313.5" x2="551.5" y1="741.8984" y2="741.8984"/><text fill="#000000" font-family="sans-serif" font-size="13" font-weight="bold" lengthAdjust="spacing" textLength="14" x="325.5" y="737.042">17</text><text fill="#000000" font-family="sans-serif" font-size="13" lengthAdjust="spacing" textLength="119" x="343.5" y="737.042">Mengirim hasil gagal</text><line style="stroke:#000000;stroke-width:1.0;stroke-dasharray:2.0,2.0;" x1="20" x2="979" y1="750.8984" y2="750.8984"/><text fill="#000000" font-family="sans-serif" font-size="11" font-weight="bold" lengthAdjust="spacing" textLength="179" x="25" y="762.3174">[kode keamanan formulir benar]</text><path d="M468,772.7344 L529,772.7344 L529,781.0859 L519,791.0859 L468,791.0859 L468,772.7344 " fill="#EEEEEE" style="stroke:#000000;stroke-width:1.5;"/><rect fill="none" height="307.8359" style="stroke:#000000;stroke-width:1.5;" width="501" x="468" y="772.7344"/><text fill="#000000" font-family="sans-serif" font-size="13" font-weight="bold" lengthAdjust="spacing" textLength="16" x="483" y="787.2295">alt</text><text fill="#000000" font-family="sans-serif" font-size="11" font-weight="bold" lengthAdjust="spacing" textLength="84" x="544" y="786.1533">[create/update]</text><polygon fill="#2F4F8F" points="903.5,809.4375,913.5,813.4375,903.5,817.4375,907.5,813.4375" style="stroke:#2F4F8F;stroke-width:1.0;"/><line style="stroke:#2F4F8F;stroke-width:1.0;" x1="552.5" x2="909.5" y1="813.4375" y2="813.4375"/><text fill="#000000" font-family="sans-serif" font-size="13" font-weight="bold" lengthAdjust="spacing" textLength="14" x="559.5" y="808.5811">18</text><text fill="#000000" font-family="sans-serif" font-size="13" lengthAdjust="spacing" textLength="156" x="577.5" y="808.5811">Mengolah data di database</text><polygon fill="#2F4F8F" points="563.5,839.7891,553.5,843.7891,563.5,847.7891,559.5,843.7891" style="stroke:#2F4F8F;stroke-width:1.0;"/><line style="stroke:#2F4F8F;stroke-width:1.0;stroke-dasharray:2.0,2.0;" x1="557.5" x2="914.5" y1="843.7891" y2="843.7891"/><text fill="#000000" font-family="sans-serif" font-size="13" font-weight="bold" lengthAdjust="spacing" textLength="14" x="569.5" y="838.9326">19</text><text fill="#000000" font-family="sans-serif" font-size="13" lengthAdjust="spacing" textLength="82" x="587.5" y="838.9326">Hasil benarasi</text><path d="M478,858.7891 L539,858.7891 L539,867.1406 L529,877.1406 L478,877.1406 L478,858.7891 " fill="#EEEEEE" style="stroke:#000000;stroke-width:1.5;"/><rect fill="none" height="94.8906" style="stroke:#000000;stroke-width:1.5;" width="481" x="478" y="858.7891"/><text fill="#000000" font-family="sans-serif" font-size="13" font-weight="bold" lengthAdjust="spacing" textLength="16" x="493" y="873.2842">alt</text><text fill="#000000" font-family="sans-serif" font-size="11" font-weight="bold" lengthAdjust="spacing" textLength="76" x="554" y="872.208">[Relasi benar]</text><polygon fill="#2F4F8F" points="903.5,895.4922,913.5,899.4922,903.5,903.4922,907.5,899.4922" style="stroke:#2F4F8F;stroke-width:1.0;"/><line style="stroke:#2F4F8F;stroke-width:1.0;" x1="552.5" x2="909.5" y1="899.4922" y2="899.4922"/><text fill="#000000" font-family="sans-serif" font-size="13" font-weight="bold" lengthAdjust="spacing" textLength="14" x="559.5" y="894.6357">20</text><text fill="#000000" font-family="sans-serif" font-size="13" lengthAdjust="spacing" textLength="156" x="577.5" y="894.6357">Mengolah data di database</text><polygon fill="#2F4F8F" points="563.5,925.8438,553.5,929.8438,563.5,933.8438,559.5,929.8438" style="stroke:#2F4F8F;stroke-width:1.0;"/><line style="stroke:#2F4F8F;stroke-width:1.0;stroke-dasharray:2.0,2.0;" x1="557.5" x2="914.5" y1="929.8438" y2="929.8438"/><text fill="#000000" font-family="sans-serif" font-size="13" font-weight="bold" lengthAdjust="spacing" textLength="14" x="569.5" y="924.9873">21</text><text fill="#000000" font-family="sans-serif" font-size="13" lengthAdjust="spacing" textLength="113" x="587.5" y="924.9873">Mengirim hasil data</text><line style="stroke:#000000;stroke-width:1.0;stroke-dasharray:2.0,2.0;" x1="478" x2="959" y1="938.8438" y2="938.8438"/><text fill="#000000" font-family="sans-serif" font-size="11" font-weight="bold" lengthAdjust="spacing" textLength="106" x="483" y="950.2627">[Relasi tidak benar]</text><line style="stroke:#000000;stroke-width:1.0;stroke-dasharray:2.0,2.0;" x1="468" x2="969" y1="961.6797" y2="961.6797"/><text fill="#000000" font-family="sans-serif" font-size="11" font-weight="bold" lengthAdjust="spacing" textLength="43" x="473" y="973.0986">[delete]</text><line style="stroke:#2F4F8F;stroke-width:1.0;" x1="552.5" x2="594.5" y1="998.8672" y2="998.8672"/><line style="stroke:#2F4F8F;stroke-width:1.0;" x1="594.5" x2="594.5" y1="998.8672" y2="1011.8672"/><line style="stroke:#2F4F8F;stroke-width:1.0;" x1="553.5" x2="594.5" y1="1011.8672" y2="1011.8672"/><polygon fill="#2F4F8F" points="563.5,1007.8672,553.5,1011.8672,563.5,1015.8672,559.5,1011.8672" style="stroke:#2F4F8F;stroke-width:1.0;"/><text fill="#000000" font-family="sans-serif" font-size="13" font-weight="bold" lengthAdjust="spacing" textLength="14" x="559.5" y="994.0107">22</text><text fill="#000000" font-family="sans-serif" font-size="13" lengthAdjust="spacing" textLength="102" x="577.5" y="994.0107">Menghapus relasi</text><polygon fill="#2F4F8F" points="903.5,1038.2188,913.5,1042.2188,903.5,1046.2188,907.5,1042.2188" style="stroke:#2F4F8F;stroke-width:1.0;"/><line style="stroke:#2F4F8F;stroke-width:1.0;" x1="552.5" x2="909.5" y1="1042.2188" y2="1042.2188"/><text fill="#000000" font-family="sans-serif" font-size="13" font-weight="bold" lengthAdjust="spacing" textLength="14" x="559.5" y="1037.3623">23</text><text fill="#000000" font-family="sans-serif" font-size="13" lengthAdjust="spacing" textLength="156" x="577.5" y="1037.3623">Mengolah data di database</text><polygon fill="#2F4F8F" points="563.5,1068.5703,553.5,1072.5703,563.5,1076.5703,559.5,1072.5703" style="stroke:#2F4F8F;stroke-width:1.0;"/><line style="stroke:#2F4F8F;stroke-width:1.0;stroke-dasharray:2.0,2.0;" x1="557.5" x2="914.5" y1="1072.5703" y2="1072.5703"/><text fill="#000000" font-family="sans-serif" font-size="13" font-weight="bold" lengthAdjust="spacing" textLength="14" x="569.5" y="1067.7139">24</text><text fill="#000000" font-family="sans-serif" font-size="13" lengthAdjust="spacing" textLength="127" x="587.5" y="1067.7139">Mengirim hasil proses</text><line style="stroke:#2F4F8F;stroke-width:1.0;stroke-dasharray:2.0,2.0;" x1="552.5" x2="594.5" y1="1109.9219" y2="1109.9219"/><line style="stroke:#2F4F8F;stroke-width:1.0;stroke-dasharray:2.0,2.0;" x1="594.5" x2="594.5" y1="1109.9219" y2="1122.9219"/><line style="stroke:#2F4F8F;stroke-width:1.0;stroke-dasharray:2.0,2.0;" x1="553.5" x2="594.5" y1="1122.9219" y2="1122.9219"/><polygon fill="#2F4F8F" points="563.5,1118.9219,553.5,1122.9219,563.5,1126.9219,559.5,1122.9219" style="stroke:#2F4F8F;stroke-width:1.0;"/><text fill="#000000" font-family="sans-serif" font-size="13" font-weight="bold" lengthAdjust="spacing" textLength="14" x="559.5" y="1105.0654">25</text><text fill="#000000" font-family="sans-serif" font-size="13" lengthAdjust="spacing" textLength="205" x="577.5" y="1105.0654">Menyiapkan pesan untuk pengguna</text><polygon fill="#2F4F8F" points="319.5,1149.2734,309.5,1153.2734,319.5,1157.2734,315.5,1153.2734" style="stroke:#2F4F8F;stroke-width:1.0;"/><line style="stroke:#2F4F8F;stroke-width:1.0;stroke-dasharray:2.0,2.0;" x1="313.5" x2="551.5" y1="1153.2734" y2="1153.2734"/><text fill="#000000" font-family="sans-serif" font-size="13" font-weight="bold" lengthAdjust="spacing" textLength="14" x="325.5" y="1148.417">26</text><text fill="#000000" font-family="sans-serif" font-size="13" lengthAdjust="spacing" textLength="183" x="343.5" y="1148.417">Mengalihkan page=admin-relasi</text><polygon fill="#2F4F8F" points="63.5,1179.625,53.5,1183.625,63.5,1187.625,59.5,1183.625" style="stroke:#2F4F8F;stroke-width:1.0;"/><line style="stroke:#2F4F8F;stroke-width:1.0;stroke-dasharray:2.0,2.0;" x1="57.5" x2="307.5" y1="1183.625" y2="1183.625"/><text fill="#000000" font-family="sans-serif" font-size="13" font-weight="bold" lengthAdjust="spacing" textLength="14" x="69.5" y="1178.7686">27</text><text fill="#000000" font-family="sans-serif" font-size="13" lengthAdjust="spacing" textLength="214" x="87.5" y="1178.7686">Menampilkan pesan dan data terbaru</text><!--SRC=[hLJlRzCm4Ftkl-9KlguQdO2DII0r6z50WqqRV4QNnasyE7Rm3tKJud_dOYTjihPZ82grINtlthixFzi99pdSyX-UgmM7Su65mHgcCCzheM3kl85hhWgyGmE7SCCbMW49FMY1bIBdiDJQPVgUeNTQ-JhZXjbAg0PR8bjYhbT25R14QVamqcl-P01pO_JgJ4jjuCLH-YezIMdnKYpvfL0yqIRdfek-IOwFJbuEexYe2gEzoZj4-ZQTfmaXhj4uiH0DAZUYM0iC0Lii9scIjg3vmcapof_DPYT7n-lGLcRuK3ZHzwEyi-JyzOTP5zYJzOinXYqjJC8EJ01jt0kMjMWq3p2vG8arAhWLrl4wGBebjj3A6IrX4cEG2DeGUMM4ZbHncUNeC4FBONBUlOLe_uUAYFi_VTypdqBYAuIQApzs1Ukh8MnaFuNFd98TGjc5C92PO1xMLJQ6etMY8cI95M1bkLKF6DC6-BwyDeF4wqn8Q3k1gcM6JrSVlu0LTeNnjV36nxSQ6ovPdmxJaROgX14r4IqTUNohoBsYkg6J4EGEWjH1_FFzEM8bQKIQdUDGHIcSfqCJgw69EB5y6XdxjW8RkCDyXV8vBPnTVVloTIHoE6Juwnw6Tdc4gtZlXerX21vi5i1ODq962qHyWpb2Goo5LyXquxexoL43MD9bn7FXw55YustVHDRTJ03R1bvNjDIcxZSQOAT_rwQWARLmBuKPsnXWfv6v4PKbHsgw6IlU4XDrpq19ADsU83YHa_ip6aKBtF0_CTK22zed04vtwpxQ3M6hlJ0S7J_q3RN6m-gmaR5JjAGvXn7a0leheylPwOsBK5GGZ2FgLM_wtUbB-LVPFSAxJ1dXOJAT_EC1KrJbR8tAkUGxPZ8wR0El_U_XFUgXCPgkGJQiSc28GT83dTZst3JSqgzNpbURO_EKZr2ACYHYmTy5Rqy7dVtXb4QrF7ofHyTDXiQpKEnl]--></g></svg>