<?xml version="1.0" encoding="us-ascii" standalone="no"?><svg xmlns="http://www.w3.org/2000/svg" xmlns:xlink="http://www.w3.org/1999/xlink" contentStyleType="text/css" height="1068px" preserveAspectRatio="none" style="width:915px;height:1068px;background:#FFFFFF;" version="1.1" viewBox="0 0 915 1068" width="915px" zoomAndPan="magnify"><defs/><g><text fill="#000000" font-family="sans-serif" font-size="14" font-weight="bold" lengthAdjust="spacing" textLength="273" x="327" y="29.5332">Sequence Diagram - Admin Atur Jadwal</text><rect fill="none" height="490.4297" style="stroke:#000000;stroke-width:1.5;" width="888" x="20" y="553.7891"/><rect fill="none" height="307.8359" style="stroke:#000000;stroke-width:1.5;" width="432" x="466" y="625.3281"/><rect fill="none" height="94.8906" style="stroke:#000000;stroke-width:1.5;" width="412" x="476" y="711.3828"/><line style="stroke:#6B7280;stroke-width:0.5;stroke-dasharray:5.0,5.0;" x1="52" x2="52" y1="121.2188" y2="1061.2188"/><line style="stroke:#6B7280;stroke-width:0.5;stroke-dasharray:5.0,5.0;" x1="301" x2="301" y1="121.2188" y2="1061.2188"/><line style="stroke:#6B7280;stroke-width:0.5;stroke-dasharray:5.0,5.0;" x1="550" x2="550" y1="121.2188" y2="1061.2188"/><line style="stroke:#6B7280;stroke-width:0.5;stroke-dasharray:5.0,5.0;" x1="844" x2="844" y1="121.2188" y2="1061.2188"/><text fill="#000000" font-family="sans-serif" font-size="14" lengthAdjust="spacing" textLength="39" x="30" y="118.1426">Admin</text><ellipse cx="52.5" cy="52.1094" fill="#FFFFFF" rx="8" ry="8" style="stroke:#111827;stroke-width:0.5;"/><path d="M52.5,60.1094 L52.5,87.1094 M39.5,68.1094 L65.5,68.1094 M52.5,87.1094 L39.5,102.1094 M52.5,87.1094 L65.5,102.1094 " fill="none" style="stroke:#111827;stroke-width:0.5;"/><text fill="#000000" font-family="sans-serif" font-size="14" lengthAdjust="spacing" textLength="101" x="248" y="118.1426">Halaman Sistem</text><path d="M281,75.6094 L281,99.6094 M281,87.6094 L298,87.6094 " fill="none" style="stroke:#181818;stroke-width:0.5;"/><ellipse cx="310" cy="87.6094" fill="#E2E2F0" rx="12" ry="12" style="stroke:#181818;stroke-width:0.5;"/><text fill="#000000" font-family="sans-serif" font-size="14" lengthAdjust="spacing" textLength="123" x="486" y="118.1426">Sistem BimbelOrion</text><ellipse cx="550.5" cy="87.6094" fill="#E2E2F0" rx="12" ry="12" style="stroke:#181818;stroke-width:0.5;"/><polygon fill="#181818" points="546.5,75.6094,552.5,70.6094,550.5,75.6094,552.5,80.6094,546.5,75.6094" style="stroke:#181818;stroke-width:1.0;"/><text fill="#000000" font-family="sans-serif" font-size="14" lengthAdjust="spacing" textLength="61" x="811" y="118.1426">Database</text><path d="M826.5,67.6094 C826.5,57.6094 844.5,57.6094 844.5,57.6094 C844.5,57.6094 862.5,57.6094 862.5,67.6094 L862.5,93.6094 C862.5,103.6094 844.5,103.6094 844.5,103.6094 C844.5,103.6094 826.5,103.6094 826.5,93.6094 L826.5,67.6094 " fill="#E2E2F0" style="stroke:#181818;stroke-width:1.5;"/><path d="M826.5,67.6094 C826.5,77.6094 844.5,77.6094 844.5,77.6094 C844.5,77.6094 862.5,77.6094 862.5,67.6094 " fill="none" style="stroke:#181818;stroke-width:1.5;"/><polygon fill="#2F4F8F" points="289.5,149.5703,299.5,153.5703,289.5,157.5703,293.5,153.5703" style="stroke:#2F4F8F;stroke-width:1.0;"/><line style="stroke:#2F4F8F;stroke-width:1.0;" x1="52.5" x2="295.5" y1="153.5703" y2="153.5703"/><text fill="#000000" font-family="sans-serif" font-size="13" font-weight="bold" lengthAdjust="spacing" textLength="7" x="59.5" y="148.7139">1</text><text fill="#000000" font-family="sans-serif" font-size="13" lengthAdjust="spacing" textLength="109" x="70.5" y="148.7139">Buka menu Jadwal</text><polygon fill="#2F4F8F" points="538.5,179.9219,548.5,183.9219,538.5,187.9219,542.5,183.9219" style="stroke:#2F4F8F;stroke-width:1.0;"/><line style="stroke:#2F4F8F;stroke-width:1.0;" x1="301.5" x2="544.5" y1="183.9219" y2="183.9219"/><text fill="#000000" font-family="sans-serif" font-size="13" font-weight="bold" lengthAdjust="spacing" textLength="7" x="308.5" y="179.0654">2</text><text fill="#000000" font-family="sans-serif" font-size="13" lengthAdjust="spacing" textLength="182" x="319.5" y="179.0654">Meminta halaman admin jadwal</text><line style="stroke:#2F4F8F;stroke-width:1.0;" x1="550.5" x2="592.5" y1="214.2734" y2="214.2734"/><line style="stroke:#2F4F8F;stroke-width:1.0;" x1="592.5" x2="592.5" y1="214.2734" y2="227.2734"/><line style="stroke:#2F4F8F;stroke-width:1.0;" x1="551.5" x2="592.5" y1="227.2734" y2="227.2734"/><polygon fill="#2F4F8F" points="561.5,223.2734,551.5,227.2734,561.5,231.2734,557.5,227.2734" style="stroke:#2F4F8F;stroke-width:1.0;"/><text fill="#000000" font-family="sans-serif" font-size="13" font-weight="bold" lengthAdjust="spacing" textLength="7" x="557.5" y="209.417">3</text><text fill="#000000" font-family="sans-serif" font-size="13" lengthAdjust="spacing" textLength="195" x="568.5" y="209.417">Memastikan hak aksesnya admin</text><polygon fill="#2F4F8F" points="832.5,253.625,842.5,257.625,832.5,261.625,836.5,257.625" style="stroke:#2F4F8F;stroke-width:1.0;"/><line style="stroke:#2F4F8F;stroke-width:1.0;" x1="550.5" x2="838.5" y1="257.625" y2="257.625"/><text fill="#000000" font-family="sans-serif" font-size="13" font-weight="bold" lengthAdjust="spacing" textLength="7" x="557.5" y="252.7686">4</text><text fill="#000000" font-family="sans-serif" font-size="13" lengthAdjust="spacing" textLength="241" x="568.5" y="252.7686">Mengambil jadwal beserta siswa dan guru</text><polygon fill="#2F4F8F" points="561.5,283.9766,551.5,287.9766,561.5,291.9766,557.5,287.9766" style="stroke:#2F4F8F;stroke-width:1.0;"/><line style="stroke:#2F4F8F;stroke-width:1.0;stroke-dasharray:2.0,2.0;" x1="555.5" x2="843.5" y1="287.9766" y2="287.9766"/><text fill="#000000" font-family="sans-serif" font-size="13" font-weight="bold" lengthAdjust="spacing" textLength="7" x="567.5" y="283.1201">5</text><text fill="#000000" font-family="sans-serif" font-size="13" lengthAdjust="spacing" textLength="129" x="578.5" y="283.1201">Mengirim daftar jadwal</text><polygon fill="#2F4F8F" points="832.5,314.3281,842.5,318.3281,832.5,322.3281,836.5,318.3281" style="stroke:#2F4F8F;stroke-width:1.0;"/><line style="stroke:#2F4F8F;stroke-width:1.0;" x1="550.5" x2="838.5" y1="318.3281" y2="318.3281"/><text fill="#000000" font-family="sans-serif" font-size="13" font-weight="bold" lengthAdjust="spacing" textLength="7" x="557.5" y="313.4717">6</text><text fill="#000000" font-family="sans-serif" font-size="13" lengthAdjust="spacing" textLength="259" x="568.5" y="313.4717">Mengambil data kelas aktif untuk opsi jadwal</text><polygon fill="#2F4F8F" points="561.5,344.6797,551.5,348.6797,561.5,352.6797,557.5,348.6797" style="stroke:#2F4F8F;stroke-width:1.0;"/><line style="stroke:#2F4F8F;stroke-width:1.0;stroke-dasharray:2.0,2.0;" x1="555.5" x2="843.5" y1="348.6797" y2="348.6797"/><text fill="#000000" font-family="sans-serif" font-size="13" font-weight="bold" lengthAdjust="spacing" textLength="7" x="567.5" y="343.8232">7</text><text fill="#000000" font-family="sans-serif" font-size="13" lengthAdjust="spacing" textLength="113" x="578.5" y="343.8232">Mengirim hasil data</text><polygon fill="#2F4F8F" points="312.5,375.0313,302.5,379.0313,312.5,383.0313,308.5,379.0313" style="stroke:#2F4F8F;stroke-width:1.0;"/><line style="stroke:#2F4F8F;stroke-width:1.0;stroke-dasharray:2.0,2.0;" x1="306.5" x2="549.5" y1="379.0313" y2="379.0313"/><text fill="#000000" font-family="sans-serif" font-size="13" font-weight="bold" lengthAdjust="spacing" textLength="7" x="318.5" y="374.1748">8</text><text fill="#000000" font-family="sans-serif" font-size="13" lengthAdjust="spacing" textLength="155" x="329.5" y="374.1748">Mengirim hasil ke halaman</text><polygon fill="#2F4F8F" points="63.5,405.3828,53.5,409.3828,63.5,413.3828,59.5,409.3828" style="stroke:#2F4F8F;stroke-width:1.0;"/><line style="stroke:#2F4F8F;stroke-width:1.0;stroke-dasharray:2.0,2.0;" x1="57.5" x2="300.5" y1="409.3828" y2="409.3828"/><text fill="#000000" font-family="sans-serif" font-size="13" font-weight="bold" lengthAdjust="spacing" textLength="7" x="69.5" y="404.5264">9</text><text fill="#000000" font-family="sans-serif" font-size="13" lengthAdjust="spacing" textLength="214" x="80.5" y="404.5264">Menampilkan hasil kepada pengguna</text><polygon fill="#2F4F8F" points="289.5,461.0859,299.5,465.0859,289.5,469.0859,293.5,465.0859" style="stroke:#2F4F8F;stroke-width:1.0;"/><line style="stroke:#2F4F8F;stroke-width:1.0;" x1="52.5" x2="295.5" y1="465.0859" y2="465.0859"/><text fill="#000000" font-family="sans-serif" font-size="13" font-weight="bold" lengthAdjust="spacing" textLength="14" x="59.5" y="460.2295">10</text><text fill="#000000" font-family="sans-serif" font-size="13" lengthAdjust="spacing" textLength="122" x="77.5" y="460.2295">Mengirim form jadwal</text><polygon fill="#2F4F8F" points="538.5,491.4375,548.5,495.4375,538.5,499.4375,542.5,495.4375" style="stroke:#2F4F8F;stroke-width:1.0;"/><line style="stroke:#2F4F8F;stroke-width:1.0;" x1="301.5" x2="544.5" y1="495.4375" y2="495.4375"/><text fill="#000000" font-family="sans-serif" font-size="13" font-weight="bold" lengthAdjust="spacing" textLength="14" x="308.5" y="490.5811">11</text><text fill="#000000" font-family="sans-serif" font-size="13" lengthAdjust="spacing" textLength="207" x="326.5" y="490.5811">Mengirim data formulir admin jadwal</text><line style="stroke:#2F4F8F;stroke-width:1.0;" x1="550.5" x2="592.5" y1="525.7891" y2="525.7891"/><line style="stroke:#2F4F8F;stroke-width:1.0;" x1="592.5" x2="592.5" y1="525.7891" y2="538.7891"/><line style="stroke:#2F4F8F;stroke-width:1.0;" x1="551.5" x2="592.5" y1="538.7891" y2="538.7891"/><polygon fill="#2F4F8F" points="561.5,534.7891,551.5,538.7891,561.5,542.7891,557.5,538.7891" style="stroke:#2F4F8F;stroke-width:1.0;"/><text fill="#000000" font-family="sans-serif" font-size="13" font-weight="bold" lengthAdjust="spacing" textLength="14" x="557.5" y="520.9326">12</text><text fill="#000000" font-family="sans-serif" font-size="13" lengthAdjust="spacing" textLength="206" x="575.5" y="520.9326">Memeriksa kode keamanan formulir</text><path d="M20,553.7891 L81,553.7891 L81,562.1406 L71,572.1406 L20,572.1406 L20,553.7891 " fill="#EEEEEE" style="stroke:#000000;stroke-width:1.5;"/><rect fill="none" height="490.4297" style="stroke:#000000;stroke-width:1.5;" width="888" x="20" y="553.7891"/><text fill="#000000" font-family="sans-serif" font-size="13" font-weight="bold" lengthAdjust="spacing" textLength="16" x="35" y="568.2842">alt</text><text fill="#000000" font-family="sans-serif" font-size="11" font-weight="bold" lengthAdjust="spacing" textLength="209" x="96" y="567.208">[kode keamanan formulir tidak benar]</text><polygon fill="#2F4F8F" points="312.5,590.4922,302.5,594.4922,312.5,598.4922,308.5,594.4922" style="stroke:#2F4F8F;stroke-width:1.0;"/><line style="stroke:#2F4F8F;stroke-width:1.0;stroke-dasharray:2.0,2.0;" x1="306.5" x2="549.5" y1="594.4922" y2="594.4922"/><text fill="#000000" font-family="sans-serif" font-size="13" font-weight="bold" lengthAdjust="spacing" textLength="14" x="318.5" y="589.6357">13</text><text fill="#000000" font-family="sans-serif" font-size="13" lengthAdjust="spacing" textLength="119" x="336.5" y="589.6357">Mengirim hasil gagal</text><line style="stroke:#000000;stroke-width:1.0;stroke-dasharray:2.0,2.0;" x1="20" x2="908" y1="603.4922" y2="603.4922"/><text fill="#000000" font-family="sans-serif" font-size="11" font-weight="bold" lengthAdjust="spacing" textLength="179" x="25" y="614.9111">[kode keamanan formulir benar]</text><path d="M466,625.3281 L527,625.3281 L527,633.6797 L517,643.6797 L466,643.6797 L466,625.3281 " fill="#EEEEEE" style="stroke:#000000;stroke-width:1.5;"/><rect fill="none" height="307.8359" style="stroke:#000000;stroke-width:1.5;" width="432" x="466" y="625.3281"/><text fill="#000000" font-family="sans-serif" font-size="13" font-weight="bold" lengthAdjust="spacing" textLength="16" x="481" y="639.8232">alt</text><text fill="#000000" font-family="sans-serif" font-size="11" font-weight="bold" lengthAdjust="spacing" textLength="84" x="542" y="638.7471">[create/update]</text><polygon fill="#2F4F8F" points="832.5,662.0313,842.5,666.0313,832.5,670.0313,836.5,666.0313" style="stroke:#2F4F8F;stroke-width:1.0;"/><line style="stroke:#2F4F8F;stroke-width:1.0;" x1="550.5" x2="838.5" y1="666.0313" y2="666.0313"/><text fill="#000000" font-family="sans-serif" font-size="13" font-weight="bold" lengthAdjust="spacing" textLength="14" x="557.5" y="661.1748">14</text><text fill="#000000" font-family="sans-serif" font-size="13" lengthAdjust="spacing" textLength="156" x="575.5" y="661.1748">Mengolah data di database</text><polygon fill="#2F4F8F" points="561.5,692.3828,551.5,696.3828,561.5,700.3828,557.5,696.3828" style="stroke:#2F4F8F;stroke-width:1.0;"/><line style="stroke:#2F4F8F;stroke-width:1.0;stroke-dasharray:2.0,2.0;" x1="555.5" x2="843.5" y1="696.3828" y2="696.3828"/><text fill="#000000" font-family="sans-serif" font-size="13" font-weight="bold" lengthAdjust="spacing" textLength="14" x="567.5" y="691.5264">15</text><text fill="#000000" font-family="sans-serif" font-size="13" lengthAdjust="spacing" textLength="82" x="585.5" y="691.5264">Hasil benarasi</text><path d="M476,711.3828 L537,711.3828 L537,719.7344 L527,729.7344 L476,729.7344 L476,711.3828 " fill="#EEEEEE" style="stroke:#000000;stroke-width:1.5;"/><rect fill="none" height="94.8906" style="stroke:#000000;stroke-width:1.5;" width="412" x="476" y="711.3828"/><text fill="#000000" font-family="sans-serif" font-size="13" font-weight="bold" lengthAdjust="spacing" textLength="16" x="491" y="725.8779">alt</text><text fill="#000000" font-family="sans-serif" font-size="11" font-weight="bold" lengthAdjust="spacing" textLength="181" x="552" y="724.8018">[Jadwal benar dan tidak bentrok]</text><polygon fill="#2F4F8F" points="832.5,748.0859,842.5,752.0859,832.5,756.0859,836.5,752.0859" style="stroke:#2F4F8F;stroke-width:1.0;"/><line style="stroke:#2F4F8F;stroke-width:1.0;" x1="550.5" x2="838.5" y1="752.0859" y2="752.0859"/><text fill="#000000" font-family="sans-serif" font-size="13" font-weight="bold" lengthAdjust="spacing" textLength="14" x="557.5" y="747.2295">16</text><text fill="#000000" font-family="sans-serif" font-size="13" lengthAdjust="spacing" textLength="156" x="575.5" y="747.2295">Mengolah data di database</text><polygon fill="#2F4F8F" points="561.5,778.4375,551.5,782.4375,561.5,786.4375,557.5,782.4375" style="stroke:#2F4F8F;stroke-width:1.0;"/><line style="stroke:#2F4F8F;stroke-width:1.0;stroke-dasharray:2.0,2.0;" x1="555.5" x2="843.5" y1="782.4375" y2="782.4375"/><text fill="#000000" font-family="sans-serif" font-size="13" font-weight="bold" lengthAdjust="spacing" textLength="14" x="567.5" y="777.5811">17</text><text fill="#000000" font-family="sans-serif" font-size="13" lengthAdjust="spacing" textLength="113" x="585.5" y="777.5811">Mengirim hasil data</text><line style="stroke:#000000;stroke-width:1.0;stroke-dasharray:2.0,2.0;" x1="476" x2="888" y1="791.4375" y2="791.4375"/><text fill="#000000" font-family="sans-serif" font-size="11" font-weight="bold" lengthAdjust="spacing" textLength="164" x="481" y="802.8564">[Jadwal tidak benar / bentrok]</text><line style="stroke:#000000;stroke-width:1.0;stroke-dasharray:2.0,2.0;" x1="466" x2="898" y1="814.2734" y2="814.2734"/><text fill="#000000" font-family="sans-serif" font-size="11" font-weight="bold" lengthAdjust="spacing" textLength="43" x="471" y="825.6924">[delete]</text><line style="stroke:#2F4F8F;stroke-width:1.0;" x1="550.5" x2="592.5" y1="851.4609" y2="851.4609"/><line style="stroke:#2F4F8F;stroke-width:1.0;" x1="592.5" x2="592.5" y1="851.4609" y2="864.4609"/><line style="stroke:#2F4F8F;stroke-width:1.0;" x1="551.5" x2="592.5" y1="864.4609" y2="864.4609"/><polygon fill="#2F4F8F" points="561.5,860.4609,551.5,864.4609,561.5,868.4609,557.5,864.4609" style="stroke:#2F4F8F;stroke-width:1.0;"/><text fill="#000000" font-family="sans-serif" font-size="13" font-weight="bold" lengthAdjust="spacing" textLength="14" x="557.5" y="846.6045">18</text><text fill="#000000" font-family="sans-serif" font-size="13" lengthAdjust="spacing" textLength="107" x="575.5" y="846.6045">Menghapus jadwal</text><polygon fill="#2F4F8F" points="832.5,890.8125,842.5,894.8125,832.5,898.8125,836.5,894.8125" style="stroke:#2F4F8F;stroke-width:1.0;"/><line style="stroke:#2F4F8F;stroke-width:1.0;" x1="550.5" x2="838.5" y1="894.8125" y2="894.8125"/><text fill="#000000" font-family="sans-serif" font-size="13" font-weight="bold" lengthAdjust="spacing" textLength="14" x="557.5" y="889.9561">19</text><text fill="#000000" font-family="sans-serif" font-size="13" lengthAdjust="spacing" textLength="156" x="575.5" y="889.9561">Mengolah data di database</text><polygon fill="#2F4F8F" points="561.5,921.1641,551.5,925.1641,561.5,929.1641,557.5,925.1641" style="stroke:#2F4F8F;stroke-width:1.0;"/><line style="stroke:#2F4F8F;stroke-width:1.0;stroke-dasharray:2.0,2.0;" x1="555.5" x2="843.5" y1="925.1641" y2="925.1641"/><text fill="#000000" font-family="sans-serif" font-size="13" font-weight="bold" lengthAdjust="spacing" textLength="14" x="567.5" y="920.3076">20</text><text fill="#000000" font-family="sans-serif" font-size="13" lengthAdjust="spacing" textLength="127" x="585.5" y="920.3076">Mengirim hasil proses</text><line style="stroke:#2F4F8F;stroke-width:1.0;stroke-dasharray:2.0,2.0;" x1="550.5" x2="592.5" y1="962.5156" y2="962.5156"/><line style="stroke:#2F4F8F;stroke-width:1.0;stroke-dasharray:2.0,2.0;" x1="592.5" x2="592.5" y1="962.5156" y2="975.5156"/><line style="stroke:#2F4F8F;stroke-width:1.0;stroke-dasharray:2.0,2.0;" x1="551.5" x2="592.5" y1="975.5156" y2="975.5156"/><polygon fill="#2F4F8F" points="561.5,971.5156,551.5,975.5156,561.5,979.5156,557.5,975.5156" style="stroke:#2F4F8F;stroke-width:1.0;"/><text fill="#000000" font-family="sans-serif" font-size="13" font-weight="bold" lengthAdjust="spacing" textLength="14" x="557.5" y="957.6592">21</text><text fill="#000000" font-family="sans-serif" font-size="13" lengthAdjust="spacing" textLength="205" x="575.5" y="957.6592">Menyiapkan pesan untuk pengguna</text><polygon fill="#2F4F8F" points="312.5,1001.8672,302.5,1005.8672,312.5,1009.8672,308.5,1005.8672" style="stroke:#2F4F8F;stroke-width:1.0;"/><line style="stroke:#2F4F8F;stroke-width:1.0;stroke-dasharray:2.0,2.0;" x1="306.5" x2="549.5" y1="1005.8672" y2="1005.8672"/><text fill="#000000" font-family="sans-serif" font-size="13" font-weight="bold" lengthAdjust="spacing" textLength="14" x="318.5" y="1001.0107">22</text><text fill="#000000" font-family="sans-serif" font-size="13" lengthAdjust="spacing" textLength="188" x="336.5" y="1001.0107">Mengalihkan page=admin-jadwal</text><polygon fill="#2F4F8F" points="63.5,1032.2188,53.5,1036.2188,63.5,1040.2188,59.5,1036.2188" style="stroke:#2F4F8F;stroke-width:1.0;"/><line style="stroke:#2F4F8F;stroke-width:1.0;stroke-dasharray:2.0,2.0;" x1="57.5" x2="300.5" y1="1036.2188" y2="1036.2188"/><text fill="#000000" font-family="sans-serif" font-size="13" font-weight="bold" lengthAdjust="spacing" textLength="14" x="69.5" y="1031.3623">23</text><text fill="#000000" font-family="sans-serif" font-size="13" lengthAdjust="spacing" textLength="207" x="87.5" y="1031.3623">Tampilkan pesan dan jadwal terbaru</text><!--SRC=[hLJRRjD047tVhnY5vwYa0XegWHItM5LL15BvWN4yiHVRksOlIYl4lpDUhnsxIVg0o4FYUCwSENjcPfrqDS4Z_VAajWIt4Wk33InXapTImSPv0_UOxx4MfSm9TbgxJ3y9z4uhtsHaXAsaQh7BiYNcUYzL0JkiBKqZGu7V0c1ZZDxVw5eRU7EPlalNARzya3jwa8eIRN8oCVeXkRfSlvr6SLiLHdkLHqJwCTsa2IE-et5oArjKRaOn5fW2ZbZMQP9seCtMQJFBNwrMwykhCNIK6JuSJlJJBEyckNt_PHK3PxB-226meuL5i7i1Q7lZHTQXqJp3uWvhR531exIEcW29hyHMAsTq3Oi-1edaXjJVZDGzLVzQvEWmGqkmk8rF8Jhy4QBlzVBpG7mDYQyG6b9-QFwWWa4zwpLy9Svo26KCOM3vsUEZeZaShPCL8qki02jBLZrZdpR13xAw35LWayawaa96bWnNjDBk4N9cAhpnOiY0vQoSAgIH3SDs3isnhbDrEgUWefhTmSh97NZbV0MwjN8WUBrOYJRIZ9Mcjhx0LJIOT_2NuQ4T0OnDA-lUiHxVOexGCalX5GhTkhYdZlLZ2HT0kNJyKsBhxI0PuBZ1evATDiq1UBBDev5iJWVtjJJpRWESx3SPMLasLFF5KL57pDG30oTXxSu4mScSXoHZ2phWWVyLDmiiWXJYg-SSxO6mgxqrX8ukVCj7e_1sUf3vWEYQ_GqMv1A6ZOev9sVYBeWA1Vaf8hkgzyCmSoGCyNXMNkOg0lzDo1affyQpXmUleg29vJn1SpcaSZ7YSwhfX5_JQY_cxxyQ- -8qhT5yauYfoicmJ9AU9RRTBhLa-RlVx76LNfinh6KP4h6WJs7kbvEJdTZS7-FUzhMw9iShp979aE-i8FOl]--></g></svg>