<?xml version="1.0" encoding="us-ascii" standalone="no"?><svg xmlns="http://www.w3.org/2000/svg" xmlns:xlink="http://www.w3.org/1999/xlink" contentStyleType="text/css" height="1329px" preserveAspectRatio="none" style="width:1184px;height:1329px;background:#FFFFFF;" version="1.1" viewBox="0 0 1184 1329" width="1184px" zoomAndPan="magnify"><defs/><g><text fill="#000000" font-family="sans-serif" font-size="14" font-weight="bold" lengthAdjust="spacing" textLength="417" x="389.5" y="29.5332">Sequence Diagram - Admin Monitoring dan Koreksi Absensi</text><rect fill="none" height="261.1641" style="stroke:#000000;stroke-width:1.5;" width="1147" x="20" y="528.4375"/><rect fill="none" height="416.2422" style="stroke:#000000;stroke-width:1.5;" width="1157" x="20" y="889.6563"/><rect fill="none" height="155.5938" style="stroke:#000000;stroke-width:1.5;" width="922" x="245" y="1112.9531"/><line style="stroke:#6B7280;stroke-width:0.5;stroke-dasharray:5.0,5.0;" x1="52" x2="52" y1="121.2188" y2="1322.8984"/><line style="stroke:#6B7280;stroke-width:0.5;stroke-dasharray:5.0,5.0;" x1="308" x2="308" y1="121.2188" y2="1322.8984"/><line style="stroke:#6B7280;stroke-width:0.5;stroke-dasharray:5.0,5.0;" x1="694" x2="694" y1="121.2188" y2="1322.8984"/><line style="stroke:#6B7280;stroke-width:0.5;stroke-dasharray:5.0,5.0;" x1="1123" x2="1123" y1="121.2188" y2="1322.8984"/><text fill="#000000" font-family="sans-serif" font-size="14" lengthAdjust="spacing" textLength="39" x="30" y="118.1426">Admin</text><ellipse cx="52.5" cy="52.1094" fill="#FFFFFF" rx="8" ry="8" style="stroke:#111827;stroke-width:0.5;"/><path d="M52.5,60.1094 L52.5,87.1094 M39.5,68.1094 L65.5,68.1094 M52.5,87.1094 L39.5,102.1094 M52.5,87.1094 L65.5,102.1094 " fill="none" style="stroke:#111827;stroke-width:0.5;"/><text fill="#000000" font-family="sans-serif" font-size="14" lengthAdjust="spacing" textLength="101" x="255" y="118.1426">Halaman Sistem</text><path d="M288,75.6094 L288,99.6094 M288,87.6094 L305,87.6094 " fill="none" style="stroke:#181818;stroke-width:0.5;"/><ellipse cx="317" cy="87.6094" fill="#E2E2F0" rx="12" ry="12" style="stroke:#181818;stroke-width:0.5;"/><text fill="#000000" font-family="sans-serif" font-size="14" lengthAdjust="spacing" textLength="123" x="630" y="118.1426">Sistem BimbelOrion</text><ellipse cx="694.5" cy="87.6094" fill="#E2E2F0" rx="12" ry="12" style="stroke:#181818;stroke-width:0.5;"/><polygon fill="#181818" points="690.5,75.6094,696.5,70.6094,694.5,75.6094,696.5,80.6094,690.5,75.6094" style="stroke:#181818;stroke-width:1.0;"/><text fill="#000000" font-family="sans-serif" font-size="14" lengthAdjust="spacing" textLength="61" x="1090" y="118.1426">Database</text><path d="M1105.5,67.6094 C1105.5,57.6094 1123.5,57.6094 1123.5,57.6094 C1123.5,57.6094 1141.5,57.6094 1141.5,67.6094 L1141.5,93.6094 C1141.5,103.6094 1123.5,103.6094 1123.5,103.6094 C1123.5,103.6094 1105.5,103.6094 1105.5,93.6094 L1105.5,67.6094 " fill="#E2E2F0" style="stroke:#181818;stroke-width:1.5;"/><path d="M1105.5,67.6094 C1105.5,77.6094 1123.5,77.6094 1123.5,77.6094 C1123.5,77.6094 1141.5,77.6094 1141.5,67.6094 " fill="none" style="stroke:#181818;stroke-width:1.5;"/><polygon fill="#2F4F8F" points="296.5,149.5703,306.5,153.5703,296.5,157.5703,300.5,153.5703" style="stroke:#2F4F8F;stroke-width:1.0;"/><line style="stroke:#2F4F8F;stroke-width:1.0;" x1="52.5" x2="302.5" y1="153.5703" y2="153.5703"/><text fill="#000000" font-family="sans-serif" font-size="13" font-weight="bold" lengthAdjust="spacing" textLength="7" x="59.5" y="148.7139">1</text><text fill="#000000" font-family="sans-serif" font-size="13" lengthAdjust="spacing" textLength="206" x="70.5" y="148.7139">Buka menu Absensi / gunakan filter</text><polygon fill="#2F4F8F" points="682.5,179.9219,692.5,183.9219,682.5,187.9219,686.5,183.9219" style="stroke:#2F4F8F;stroke-width:1.0;"/><line style="stroke:#2F4F8F;stroke-width:1.0;" x1="308.5" x2="688.5" y1="183.9219" y2="183.9219"/><text fill="#000000" font-family="sans-serif" font-size="13" font-weight="bold" lengthAdjust="spacing" textLength="7" x="315.5" y="179.0654">2</text><text fill="#000000" font-family="sans-serif" font-size="13" lengthAdjust="spacing" textLength="224" x="326.5" y="179.0654">Meminta halaman admin absensi&amp;filter</text><line style="stroke:#2F4F8F;stroke-width:1.0;" x1="694.5" x2="736.5" y1="214.2734" y2="214.2734"/><line style="stroke:#2F4F8F;stroke-width:1.0;" x1="736.5" x2="736.5" y1="214.2734" y2="227.2734"/><line style="stroke:#2F4F8F;stroke-width:1.0;" x1="695.5" x2="736.5" y1="227.2734" y2="227.2734"/><polygon fill="#2F4F8F" points="705.5,223.2734,695.5,227.2734,705.5,231.2734,701.5,227.2734" style="stroke:#2F4F8F;stroke-width:1.0;"/><text fill="#000000" font-family="sans-serif" font-size="13" font-weight="bold" lengthAdjust="spacing" textLength="7" x="701.5" y="209.417">3</text><text fill="#000000" font-family="sans-serif" font-size="13" lengthAdjust="spacing" textLength="195" x="712.5" y="209.417">Memastikan hak aksesnya admin</text><polygon fill="#2F4F8F" points="1111.5,253.625,1121.5,257.625,1111.5,261.625,1115.5,257.625" style="stroke:#2F4F8F;stroke-width:1.0;"/><line style="stroke:#2F4F8F;stroke-width:1.0;" x1="694.5" x2="1117.5" y1="257.625" y2="257.625"/><text fill="#000000" font-family="sans-serif" font-size="13" font-weight="bold" lengthAdjust="spacing" textLength="7" x="701.5" y="252.7686">4</text><text fill="#000000" font-family="sans-serif" font-size="13" lengthAdjust="spacing" textLength="215" x="712.5" y="252.7686">Mengambil data absensi dengan filter</text><polygon fill="#2F4F8F" points="705.5,283.9766,695.5,287.9766,705.5,291.9766,701.5,287.9766" style="stroke:#2F4F8F;stroke-width:1.0;"/><line style="stroke:#2F4F8F;stroke-width:1.0;stroke-dasharray:2.0,2.0;" x1="699.5" x2="1122.5" y1="287.9766" y2="287.9766"/><text fill="#000000" font-family="sans-serif" font-size="13" font-weight="bold" lengthAdjust="spacing" textLength="7" x="711.5" y="283.1201">5</text><text fill="#000000" font-family="sans-serif" font-size="13" lengthAdjust="spacing" textLength="138" x="722.5" y="283.1201">Mengirim daftar absensi</text><line style="stroke:#2F4F8F;stroke-width:1.0;" x1="694.5" x2="736.5" y1="318.3281" y2="318.3281"/><line style="stroke:#2F4F8F;stroke-width:1.0;" x1="736.5" x2="736.5" y1="318.3281" y2="331.3281"/><line style="stroke:#2F4F8F;stroke-width:1.0;" x1="695.5" x2="736.5" y1="331.3281" y2="331.3281"/><polygon fill="#2F4F8F" points="705.5,327.3281,695.5,331.3281,705.5,335.3281,701.5,331.3281" style="stroke:#2F4F8F;stroke-width:1.0;"/><text fill="#000000" font-family="sans-serif" font-size="13" font-weight="bold" lengthAdjust="spacing" textLength="7" x="701.5" y="313.4717">6</text><text fill="#000000" font-family="sans-serif" font-size="13" lengthAdjust="spacing" textLength="230" x="712.5" y="313.4717">Menghitung absensi berdasarkan admin</text><polygon fill="#2F4F8F" points="1111.5,357.6797,1121.5,361.6797,1111.5,365.6797,1115.5,361.6797" style="stroke:#2F4F8F;stroke-width:1.0;"/><line style="stroke:#2F4F8F;stroke-width:1.0;" x1="694.5" x2="1117.5" y1="361.6797" y2="361.6797"/><text fill="#000000" font-family="sans-serif" font-size="13" font-weight="bold" lengthAdjust="spacing" textLength="7" x="701.5" y="356.8232">7</text><text fill="#000000" font-family="sans-serif" font-size="13" lengthAdjust="spacing" textLength="189" x="712.5" y="356.8232">Mengambil data COUNT absensi</text><polygon fill="#2F4F8F" points="705.5,388.0313,695.5,392.0313,705.5,396.0313,701.5,392.0313" style="stroke:#2F4F8F;stroke-width:1.0;"/><line style="stroke:#2F4F8F;stroke-width:1.0;stroke-dasharray:2.0,2.0;" x1="699.5" x2="1122.5" y1="392.0313" y2="392.0313"/><text fill="#000000" font-family="sans-serif" font-size="13" font-weight="bold" lengthAdjust="spacing" textLength="7" x="711.5" y="387.1748">8</text><text fill="#000000" font-family="sans-serif" font-size="13" lengthAdjust="spacing" textLength="113" x="722.5" y="387.1748">Mengirim hasil data</text><polygon fill="#2F4F8F" points="1111.5,418.3828,1121.5,422.3828,1111.5,426.3828,1115.5,422.3828" style="stroke:#2F4F8F;stroke-width:1.0;"/><line style="stroke:#2F4F8F;stroke-width:1.0;" x1="694.5" x2="1117.5" y1="422.3828" y2="422.3828"/><text fill="#000000" font-family="sans-serif" font-size="13" font-weight="bold" lengthAdjust="spacing" textLength="7" x="701.5" y="417.5264">9</text><text fill="#000000" font-family="sans-serif" font-size="13" lengthAdjust="spacing" textLength="211" x="712.5" y="417.5264">Mengambil data opsi guru dan siswa</text><polygon fill="#2F4F8F" points="705.5,448.7344,695.5,452.7344,705.5,456.7344,701.5,452.7344" style="stroke:#2F4F8F;stroke-width:1.0;"/><line style="stroke:#2F4F8F;stroke-width:1.0;stroke-dasharray:2.0,2.0;" x1="699.5" x2="1122.5" y1="452.7344" y2="452.7344"/><text fill="#000000" font-family="sans-serif" font-size="13" font-weight="bold" lengthAdjust="spacing" textLength="14" x="711.5" y="447.8779">10</text><text fill="#000000" font-family="sans-serif" font-size="13" lengthAdjust="spacing" textLength="113" x="729.5" y="447.8779">Mengirim hasil data</text><polygon fill="#2F4F8F" points="319.5,479.0859,309.5,483.0859,319.5,487.0859,315.5,483.0859" style="stroke:#2F4F8F;stroke-width:1.0;"/><line style="stroke:#2F4F8F;stroke-width:1.0;stroke-dasharray:2.0,2.0;" x1="313.5" x2="693.5" y1="483.0859" y2="483.0859"/><text fill="#000000" font-family="sans-serif" font-size="13" font-weight="bold" lengthAdjust="spacing" textLength="14" x="325.5" y="478.2295">11</text><text fill="#000000" font-family="sans-serif" font-size="13" lengthAdjust="spacing" textLength="155" x="343.5" y="478.2295">Mengirim hasil ke halaman</text><polygon fill="#2F4F8F" points="63.5,509.4375,53.5,513.4375,63.5,517.4375,59.5,513.4375" style="stroke:#2F4F8F;stroke-width:1.0;"/><line style="stroke:#2F4F8F;stroke-width:1.0;stroke-dasharray:2.0,2.0;" x1="57.5" x2="307.5" y1="513.4375" y2="513.4375"/><text fill="#000000" font-family="sans-serif" font-size="13" font-weight="bold" lengthAdjust="spacing" textLength="14" x="69.5" y="508.5811">12</text><text fill="#000000" font-family="sans-serif" font-size="13" lengthAdjust="spacing" textLength="214" x="87.5" y="508.5811">Menampilkan hasil kepada pengguna</text><path d="M20,528.4375 L85,528.4375 L85,536.7891 L75,546.7891 L20,546.7891 L20,528.4375 " fill="#EEEEEE" style="stroke:#000000;stroke-width:1.5;"/><rect fill="none" height="261.1641" style="stroke:#000000;stroke-width:1.5;" width="1147" x="20" y="528.4375"/><text fill="#000000" font-family="sans-serif" font-size="13" font-weight="bold" lengthAdjust="spacing" textLength="20" x="35" y="542.9326">opt</text><text fill="#000000" font-family="sans-serif" font-size="11" font-weight="bold" lengthAdjust="spacing" textLength="168" x="100" y="541.8564">[Admin melihat detail absensi]</text><polygon fill="#2F4F8F" points="296.5,565.1406,306.5,569.1406,296.5,573.1406,300.5,569.1406" style="stroke:#2F4F8F;stroke-width:1.0;"/><line style="stroke:#2F4F8F;stroke-width:1.0;" x1="52.5" x2="302.5" y1="569.1406" y2="569.1406"/><text fill="#000000" font-family="sans-serif" font-size="13" font-weight="bold" lengthAdjust="spacing" textLength="14" x="59.5" y="564.2842">13</text><text fill="#000000" font-family="sans-serif" font-size="13" lengthAdjust="spacing" textLength="103" x="77.5" y="564.2842">Klik detail/koreksi</text><polygon fill="#2F4F8F" points="682.5,595.4922,692.5,599.4922,682.5,603.4922,686.5,599.4922" style="stroke:#2F4F8F;stroke-width:1.0;"/><line style="stroke:#2F4F8F;stroke-width:1.0;" x1="308.5" x2="688.5" y1="599.4922" y2="599.4922"/><text fill="#000000" font-family="sans-serif" font-size="13" font-weight="bold" lengthAdjust="spacing" textLength="14" x="315.5" y="594.6357">14</text><text fill="#000000" font-family="sans-serif" font-size="13" lengthAdjust="spacing" textLength="182" x="333.5" y="594.6357">Mengirim permintaan ke sistem</text><polygon fill="#2F4F8F" points="1111.5,625.8438,1121.5,629.8438,1111.5,633.8438,1115.5,629.8438" style="stroke:#2F4F8F;stroke-width:1.0;"/><line style="stroke:#2F4F8F;stroke-width:1.0;" x1="694.5" x2="1117.5" y1="629.8438" y2="629.8438"/><text fill="#000000" font-family="sans-serif" font-size="13" font-weight="bold" lengthAdjust="spacing" textLength="14" x="701.5" y="624.9873">15</text><text fill="#000000" font-family="sans-serif" font-size="13" lengthAdjust="spacing" textLength="176" x="719.5" y="624.9873">Mengambil data detail absensi</text><polygon fill="#2F4F8F" points="705.5,656.1953,695.5,660.1953,705.5,664.1953,701.5,660.1953" style="stroke:#2F4F8F;stroke-width:1.0;"/><line style="stroke:#2F4F8F;stroke-width:1.0;stroke-dasharray:2.0,2.0;" x1="699.5" x2="1122.5" y1="660.1953" y2="660.1953"/><text fill="#000000" font-family="sans-serif" font-size="13" font-weight="bold" lengthAdjust="spacing" textLength="14" x="711.5" y="655.3389">16</text><text fill="#000000" font-family="sans-serif" font-size="13" lengthAdjust="spacing" textLength="113" x="729.5" y="655.3389">Mengirim hasil data</text><polygon fill="#2F4F8F" points="1111.5,686.5469,1121.5,690.5469,1111.5,694.5469,1115.5,690.5469" style="stroke:#2F4F8F;stroke-width:1.0;"/><line style="stroke:#2F4F8F;stroke-width:1.0;" x1="694.5" x2="1117.5" y1="690.5469" y2="690.5469"/><text fill="#000000" font-family="sans-serif" font-size="13" font-weight="bold" lengthAdjust="spacing" textLength="14" x="701.5" y="685.6904">17</text><text fill="#000000" font-family="sans-serif" font-size="13" lengthAdjust="spacing" textLength="176" x="719.5" y="685.6904">Mengambil data absensi_audit</text><polygon fill="#2F4F8F" points="705.5,716.8984,695.5,720.8984,705.5,724.8984,701.5,720.8984" style="stroke:#2F4F8F;stroke-width:1.0;"/><line style="stroke:#2F4F8F;stroke-width:1.0;stroke-dasharray:2.0,2.0;" x1="699.5" x2="1122.5" y1="720.8984" y2="720.8984"/><text fill="#000000" font-family="sans-serif" font-size="13" font-weight="bold" lengthAdjust="spacing" textLength="14" x="711.5" y="716.042">18</text><text fill="#000000" font-family="sans-serif" font-size="13" lengthAdjust="spacing" textLength="113" x="729.5" y="716.042">Mengirim hasil data</text><polygon fill="#2F4F8F" points="319.5,747.25,309.5,751.25,319.5,755.25,315.5,751.25" style="stroke:#2F4F8F;stroke-width:1.0;"/><line style="stroke:#2F4F8F;stroke-width:1.0;stroke-dasharray:2.0,2.0;" x1="313.5" x2="693.5" y1="751.25" y2="751.25"/><text fill="#000000" font-family="sans-serif" font-size="13" font-weight="bold" lengthAdjust="spacing" textLength="14" x="325.5" y="746.3936">19</text><text fill="#000000" font-family="sans-serif" font-size="13" lengthAdjust="spacing" textLength="155" x="343.5" y="746.3936">Mengirim hasil ke halaman</text><polygon fill="#2F4F8F" points="63.5,777.6016,53.5,781.6016,63.5,785.6016,59.5,781.6016" style="stroke:#2F4F8F;stroke-width:1.0;"/><line style="stroke:#2F4F8F;stroke-width:1.0;stroke-dasharray:2.0,2.0;" x1="57.5" x2="307.5" y1="781.6016" y2="781.6016"/><text fill="#000000" font-family="sans-serif" font-size="13" font-weight="bold" lengthAdjust="spacing" textLength="14" x="69.5" y="776.7451">20</text><text fill="#000000" font-family="sans-serif" font-size="13" lengthAdjust="spacing" textLength="144" x="87.5" y="776.7451">Tampilkan modal koreksi</text><polygon fill="#2F4F8F" points="296.5,840.3047,306.5,844.3047,296.5,848.3047,300.5,844.3047" style="stroke:#2F4F8F;stroke-width:1.0;"/><line style="stroke:#2F4F8F;stroke-width:1.0;" x1="52.5" x2="302.5" y1="844.3047" y2="844.3047"/><text fill="#000000" font-family="sans-serif" font-size="13" font-weight="bold" lengthAdjust="spacing" textLength="14" x="59.5" y="839.4482">21</text><text fill="#000000" font-family="sans-serif" font-size="13" lengthAdjust="spacing" textLength="212" x="77.5" y="839.4482">Submit koreksi status/alasan/reason</text><polygon fill="#2F4F8F" points="682.5,870.6563,692.5,874.6563,682.5,878.6563,686.5,874.6563" style="stroke:#2F4F8F;stroke-width:1.0;"/><line style="stroke:#2F4F8F;stroke-width:1.0;" x1="308.5" x2="688.5" y1="874.6563" y2="874.6563"/><text fill="#000000" font-family="sans-serif" font-size="13" font-weight="bold" lengthAdjust="spacing" textLength="14" x="315.5" y="869.7998">22</text><text fill="#000000" font-family="sans-serif" font-size="13" lengthAdjust="spacing" textLength="344" x="333.5" y="869.7998">Mengirim data formulir admin absensi&amp;aksi=save-correction</text><path d="M20,889.6563 L81,889.6563 L81,898.0078 L71,908.0078 L20,908.0078 L20,889.6563 " fill="#EEEEEE" style="stroke:#000000;stroke-width:1.5;"/><rect fill="none" height="416.2422" style="stroke:#000000;stroke-width:1.5;" width="1157" x="20" y="889.6563"/><text fill="#000000" font-family="sans-serif" font-size="13" font-weight="bold" lengthAdjust="spacing" textLength="16" x="35" y="904.1514">alt</text><text fill="#000000" font-family="sans-serif" font-size="11" font-weight="bold" lengthAdjust="spacing" textLength="83" x="96" y="903.0752">[Validasi gagal]</text><polygon fill="#2F4F8F" points="319.5,926.3594,309.5,930.3594,319.5,934.3594,315.5,930.3594" style="stroke:#2F4F8F;stroke-width:1.0;"/><line style="stroke:#2F4F8F;stroke-width:1.0;stroke-dasharray:2.0,2.0;" x1="313.5" x2="693.5" y1="930.3594" y2="930.3594"/><text fill="#000000" font-family="sans-serif" font-size="13" font-weight="bold" lengthAdjust="spacing" textLength="14" x="325.5" y="925.5029">23</text><text fill="#000000" font-family="sans-serif" font-size="13" lengthAdjust="spacing" textLength="155" x="343.5" y="925.5029">Mengirim hasil ke halaman</text><polygon fill="#2F4F8F" points="63.5,956.7109,53.5,960.7109,63.5,964.7109,59.5,960.7109" style="stroke:#2F4F8F;stroke-width:1.0;"/><line style="stroke:#2F4F8F;stroke-width:1.0;stroke-dasharray:2.0,2.0;" x1="57.5" x2="307.5" y1="960.7109" y2="960.7109"/><text fill="#000000" font-family="sans-serif" font-size="13" font-weight="bold" lengthAdjust="spacing" textLength="14" x="69.5" y="955.8545">24</text><text fill="#000000" font-family="sans-serif" font-size="13" lengthAdjust="spacing" textLength="133" x="87.5" y="955.8545">Tampilkan pesan gagal</text><line style="stroke:#000000;stroke-width:1.0;stroke-dasharray:2.0,2.0;" x1="20" x2="1177" y1="969.7109" y2="969.7109"/><text fill="#000000" font-family="sans-serif" font-size="11" font-weight="bold" lengthAdjust="spacing" textLength="99" x="25" y="981.1299">[Validasi berhasil]</text><polygon fill="#2F4F8F" points="1111.5,1002.8984,1121.5,1006.8984,1111.5,1010.8984,1115.5,1006.8984" style="stroke:#2F4F8F;stroke-width:1.0;"/><line style="stroke:#2F4F8F;stroke-width:1.0;" x1="694.5" x2="1117.5" y1="1006.8984" y2="1006.8984"/><text fill="#000000" font-family="sans-serif" font-size="13" font-weight="bold" lengthAdjust="spacing" textLength="14" x="701.5" y="1002.042">25</text><text fill="#000000" font-family="sans-serif" font-size="13" lengthAdjust="spacing" textLength="173" x="719.5" y="1002.042">Mengambil data absensi lama</text><polygon fill="#2F4F8F" points="705.5,1033.25,695.5,1037.25,705.5,1041.25,701.5,1037.25" style="stroke:#2F4F8F;stroke-width:1.0;"/><line style="stroke:#2F4F8F;stroke-width:1.0;stroke-dasharray:2.0,2.0;" x1="699.5" x2="1122.5" y1="1037.25" y2="1037.25"/><text fill="#000000" font-family="sans-serif" font-size="13" font-weight="bold" lengthAdjust="spacing" textLength="14" x="711.5" y="1032.3936">26</text><text fill="#000000" font-family="sans-serif" font-size="13" lengthAdjust="spacing" textLength="108" x="729.5" y="1032.3936">Data absensi lama</text><polygon fill="#2F4F8F" points="1111.5,1063.6016,1121.5,1067.6016,1111.5,1071.6016,1115.5,1067.6016" style="stroke:#2F4F8F;stroke-width:1.0;"/><line style="stroke:#2F4F8F;stroke-width:1.0;" x1="694.5" x2="1117.5" y1="1067.6016" y2="1067.6016"/><text fill="#000000" font-family="sans-serif" font-size="13" font-weight="bold" lengthAdjust="spacing" textLength="14" x="701.5" y="1062.7451">27</text><text fill="#000000" font-family="sans-serif" font-size="13" lengthAdjust="spacing" textLength="247" x="719.5" y="1062.7451">Memperbarui data absensi + INSERT audit</text><polygon fill="#2F4F8F" points="705.5,1093.9531,695.5,1097.9531,705.5,1101.9531,701.5,1097.9531" style="stroke:#2F4F8F;stroke-width:1.0;"/><line style="stroke:#2F4F8F;stroke-width:1.0;stroke-dasharray:2.0,2.0;" x1="699.5" x2="1122.5" y1="1097.9531" y2="1097.9531"/><text fill="#000000" font-family="sans-serif" font-size="13" font-weight="bold" lengthAdjust="spacing" textLength="14" x="711.5" y="1093.0967">28</text><text fill="#000000" font-family="sans-serif" font-size="13" lengthAdjust="spacing" textLength="61" x="729.5" y="1093.0967">Hasil ubah</text><path d="M245,1112.9531 L306,1112.9531 L306,1121.3047 L296,1131.3047 L245,1131.3047 L245,1112.9531 " fill="#EEEEEE" style="stroke:#000000;stroke-width:1.5;"/><rect fill="none" height="155.5938" style="stroke:#000000;stroke-width:1.5;" width="922" x="245" y="1112.9531"/><text fill="#000000" font-family="sans-serif" font-size="13" font-weight="bold" lengthAdjust="spacing" textLength="16" x="260" y="1127.4482">alt</text><text fill="#000000" font-family="sans-serif" font-size="11" font-weight="bold" lengthAdjust="spacing" textLength="96" x="321" y="1126.3721">[Koreksi sukses]</text><polygon fill="#2F4F8F" points="1111.5,1149.6563,1121.5,1153.6563,1111.5,1157.6563,1115.5,1153.6563" style="stroke:#2F4F8F;stroke-width:1.0;"/><line style="stroke:#2F4F8F;stroke-width:1.0;" x1="694.5" x2="1117.5" y1="1153.6563" y2="1153.6563"/><text fill="#000000" font-family="sans-serif" font-size="13" font-weight="bold" lengthAdjust="spacing" textLength="14" x="701.5" y="1148.7998">29</text><text fill="#000000" font-family="sans-serif" font-size="13" lengthAdjust="spacing" textLength="387" x="719.5" y="1148.7998">Menyimpan data baru absensi_audit aksi CORRECTION_REASON</text><polygon fill="#2F4F8F" points="705.5,1180.0078,695.5,1184.0078,705.5,1188.0078,701.5,1184.0078" style="stroke:#2F4F8F;stroke-width:1.0;"/><line style="stroke:#2F4F8F;stroke-width:1.0;stroke-dasharray:2.0,2.0;" x1="699.5" x2="1122.5" y1="1184.0078" y2="1184.0078"/><text fill="#000000" font-family="sans-serif" font-size="13" font-weight="bold" lengthAdjust="spacing" textLength="14" x="711.5" y="1179.1514">30</text><text fill="#000000" font-family="sans-serif" font-size="13" lengthAdjust="spacing" textLength="113" x="729.5" y="1179.1514">Mengirim hasil data</text><polygon fill="#2F4F8F" points="319.5,1210.3594,309.5,1214.3594,319.5,1218.3594,315.5,1214.3594" style="stroke:#2F4F8F;stroke-width:1.0;"/><line style="stroke:#2F4F8F;stroke-width:1.0;stroke-dasharray:2.0,2.0;" x1="313.5" x2="693.5" y1="1214.3594" y2="1214.3594"/><text fill="#000000" font-family="sans-serif" font-size="13" font-weight="bold" lengthAdjust="spacing" textLength="14" x="325.5" y="1209.5029">31</text><text fill="#000000" font-family="sans-serif" font-size="13" lengthAdjust="spacing" textLength="155" x="343.5" y="1209.5029">Mengirim hasil ke halaman</text><line style="stroke:#000000;stroke-width:1.0;stroke-dasharray:2.0,2.0;" x1="245" x2="1167" y1="1223.3594" y2="1223.3594"/><text fill="#000000" font-family="sans-serif" font-size="11" font-weight="bold" lengthAdjust="spacing" textLength="83" x="250" y="1234.7783">[Koreksi gagal]</text><polygon fill="#2F4F8F" points="319.5,1256.5469,309.5,1260.5469,319.5,1264.5469,315.5,1260.5469" style="stroke:#2F4F8F;stroke-width:1.0;"/><line style="stroke:#2F4F8F;stroke-width:1.0;stroke-dasharray:2.0,2.0;" x1="313.5" x2="693.5" y1="1260.5469" y2="1260.5469"/><text fill="#000000" font-family="sans-serif" font-size="13" font-weight="bold" lengthAdjust="spacing" textLength="14" x="325.5" y="1255.6904">32</text><text fill="#000000" font-family="sans-serif" font-size="13" lengthAdjust="spacing" textLength="155" x="343.5" y="1255.6904">Mengirim hasil ke halaman</text><polygon fill="#2F4F8F" points="63.5,1293.8984,53.5,1297.8984,63.5,1301.8984,59.5,1297.8984" style="stroke:#2F4F8F;stroke-width:1.0;"/><line style="stroke:#2F4F8F;stroke-width:1.0;stroke-dasharray:2.0,2.0;" x1="57.5" x2="307.5" y1="1297.8984" y2="1297.8984"/><text fill="#000000" font-family="sans-serif" font-size="13" font-weight="bold" lengthAdjust="spacing" textLength="14" x="69.5" y="1293.042">33</text><text fill="#000000" font-family="sans-serif" font-size="13" lengthAdjust="spacing" textLength="136" x="87.5" y="1293.042">Tampilkan hasil koreksi</text><!--SRC=[dLNRJjj047ttLunIgIyLIa5jeKYjb91O82wf2Eqh6iSRUsHxrzrB0LNzzuxNwn13W42UafqpPsRdd9rOigM0kVZjX5m8c11c6YlOWL5QaOHp9SagJJA352MSAYqAGp1AZ926efnI0KkbRA9k8tHMILSbGaUc85bZGsHoJDLDax_4qeZrI5VpRmGmqbhT7AbIQNYt5t-A3s8-FAEbE2CfnagdGeVeb_7-ti77zIWkYamh9zE0YB_6etZCY1-eBIseHcbx5Ai2wu17B0VnE6v0emKFe9U_kxjxiBU_2ZtAz1yEZzLjB-zeFFaytGs19xB-HL643IqCl083GDDg4IKD6lKT38wnn8hbc9EnelAGS1GjbBHQbJ1eOp0c5gISQL8jLNiSfMWnGIDWC0dVVBJx4KMj_3lVE-936Bi2eHBITUh3438diU16bbHQbhthYzFQEeTmBfZ78kGXX9uNMuRt8I_qsaz3OwdXph40B8mmyWxRz3Lyrt2J8JEi4YgXkLjN0TBcUDLW1uUTNYsPaQQA4vSMTPUwiIkPvMGTkxdZPxUdQ50NtTssQUvezlFYQbNd-QPoD25j6sPLSq-Pqyu_LqFc1b_Flwxw0rmXEYNlnMQuTui7OrLJsShMucjC4MfcQRmIgTg6pLA9adAqB9151dR307ZilDEIYe0R5kq6Ojn6iuLcQw6zxJZC7PlMym1R3F1HErjFRolwm7kDBYNxDlRjr5cRpxq-LojrAfKYuyCmXKnxoiWxgkfcTc7TFoVEt2KLsHNKMBJE33bgK0wrGAFa2sBvmIoLhbn9-i62u8TFtmp-4JiBfRLOMF9qM5huXINnqsExOuOb7xv-H2yCgHPyXnMzuB-l-wByxZrXh-uM-wWfvtCsAZ_P2DrCNx794zIE-WK-mCd5V7h9woLOx8bIntuSBi7SOvg9Tl_knZNhrXy_URVW45-wwQBlx6PX4w-voylfqTN9xEBwSZgQpou2vIjC_pPLlLJTRUxjyIOgVXel6YLahbOJ9_q7]--></g></svg>