<?xml version="1.0" encoding="us-ascii" standalone="no"?><svg xmlns="http://www.w3.org/2000/svg" xmlns:xlink="http://www.w3.org/1999/xlink" contentStyleType="text/css" height="911px" preserveAspectRatio="none" style="width:843px;height:911px;background:#FFFFFF;" version="1.1" viewBox="0 0 843 911" width="843px" zoomAndPan="magnify"><defs/><g><text fill="#000000" font-family="sans-serif" font-size="14" font-weight="bold" lengthAdjust="spacing" textLength="303" x="276" y="29.5332">Sequence Diagram - Admin Monitoring Nilai</text><rect fill="none" height="272.6484" style="stroke:#000000;stroke-width:1.5;" width="816" x="20" y="614.4922"/><line style="stroke:#6B7280;stroke-width:0.5;stroke-dasharray:5.0,5.0;" x1="52" x2="52" y1="121.2188" y2="904.1406"/><line style="stroke:#6B7280;stroke-width:0.5;stroke-dasharray:5.0,5.0;" x1="308" x2="308" y1="121.2188" y2="904.1406"/><line style="stroke:#6B7280;stroke-width:0.5;stroke-dasharray:5.0,5.0;" x1="545" x2="545" y1="121.2188" y2="904.1406"/><line style="stroke:#6B7280;stroke-width:0.5;stroke-dasharray:5.0,5.0;" x1="792" x2="792" y1="121.2188" y2="904.1406"/><text fill="#000000" font-family="sans-serif" font-size="14" lengthAdjust="spacing" textLength="39" x="30" y="118.1426">Admin</text><ellipse cx="52.5" cy="52.1094" fill="#FFFFFF" rx="8" ry="8" style="stroke:#111827;stroke-width:0.5;"/><path d="M52.5,60.1094 L52.5,87.1094 M39.5,68.1094 L65.5,68.1094 M52.5,87.1094 L39.5,102.1094 M52.5,87.1094 L65.5,102.1094 " fill="none" style="stroke:#111827;stroke-width:0.5;"/><text fill="#000000" font-family="sans-serif" font-size="14" lengthAdjust="spacing" textLength="101" x="255" y="118.1426">Halaman Sistem</text><path d="M288,75.6094 L288,99.6094 M288,87.6094 L305,87.6094 " fill="none" style="stroke:#181818;stroke-width:0.5;"/><ellipse cx="317" cy="87.6094" fill="#E2E2F0" rx="12" ry="12" style="stroke:#181818;stroke-width:0.5;"/><text fill="#000000" font-family="sans-serif" font-size="14" lengthAdjust="spacing" textLength="123" x="481" y="118.1426">Sistem BimbelOrion</text><ellipse cx="545.5" cy="87.6094" fill="#E2E2F0" rx="12" ry="12" style="stroke:#181818;stroke-width:0.5;"/><polygon fill="#181818" points="541.5,75.6094,547.5,70.6094,545.5,75.6094,547.5,80.6094,541.5,75.6094" style="stroke:#181818;stroke-width:1.0;"/><text fill="#000000" font-family="sans-serif" font-size="14" lengthAdjust="spacing" textLength="61" x="759" y="118.1426">Database</text><path d="M774.5,67.6094 C774.5,57.6094 792.5,57.6094 792.5,57.6094 C792.5,57.6094 810.5,57.6094 810.5,67.6094 L810.5,93.6094 C810.5,103.6094 792.5,103.6094 792.5,103.6094 C792.5,103.6094 774.5,103.6094 774.5,93.6094 L774.5,67.6094 " fill="#E2E2F0" style="stroke:#181818;stroke-width:1.5;"/><path d="M774.5,67.6094 C774.5,77.6094 792.5,77.6094 792.5,77.6094 C792.5,77.6094 810.5,77.6094 810.5,67.6094 " fill="none" style="stroke:#181818;stroke-width:1.5;"/><polygon fill="#2F4F8F" points="296.5,149.5703,306.5,153.5703,296.5,157.5703,300.5,153.5703" style="stroke:#2F4F8F;stroke-width:1.0;"/><line style="stroke:#2F4F8F;stroke-width:1.0;" x1="52.5" x2="302.5" y1="153.5703" y2="153.5703"/><text fill="#000000" font-family="sans-serif" font-size="13" font-weight="bold" lengthAdjust="spacing" textLength="7" x="59.5" y="148.7139">1</text><text fill="#000000" font-family="sans-serif" font-size="13" lengthAdjust="spacing" textLength="184" x="70.5" y="148.7139">Buka menu Nilai / gunakan filter</text><polygon fill="#2F4F8F" points="533.5,179.9219,543.5,183.9219,533.5,187.9219,537.5,183.9219" style="stroke:#2F4F8F;stroke-width:1.0;"/><line style="stroke:#2F4F8F;stroke-width:1.0;" x1="308.5" x2="539.5" y1="183.9219" y2="183.9219"/><text fill="#000000" font-family="sans-serif" font-size="13" font-weight="bold" lengthAdjust="spacing" textLength="7" x="315.5" y="179.0654">2</text><text fill="#000000" font-family="sans-serif" font-size="13" lengthAdjust="spacing" textLength="202" x="326.5" y="179.0654">Meminta halaman admin nilai&amp;filter</text><line style="stroke:#2F4F8F;stroke-width:1.0;" x1="545.5" x2="587.5" y1="214.2734" y2="214.2734"/><line style="stroke:#2F4F8F;stroke-width:1.0;" x1="587.5" x2="587.5" y1="214.2734" y2="227.2734"/><line style="stroke:#2F4F8F;stroke-width:1.0;" x1="546.5" x2="587.5" y1="227.2734" y2="227.2734"/><polygon fill="#2F4F8F" points="556.5,223.2734,546.5,227.2734,556.5,231.2734,552.5,227.2734" style="stroke:#2F4F8F;stroke-width:1.0;"/><text fill="#000000" font-family="sans-serif" font-size="13" font-weight="bold" lengthAdjust="spacing" textLength="7" x="552.5" y="209.417">3</text><text fill="#000000" font-family="sans-serif" font-size="13" lengthAdjust="spacing" textLength="195" x="563.5" y="209.417">Memastikan hak aksesnya admin</text><polygon fill="#2F4F8F" points="780.5,253.625,790.5,257.625,780.5,261.625,784.5,257.625" style="stroke:#2F4F8F;stroke-width:1.0;"/><line style="stroke:#2F4F8F;stroke-width:1.0;" x1="545.5" x2="786.5" y1="257.625" y2="257.625"/><text fill="#000000" font-family="sans-serif" font-size="13" font-weight="bold" lengthAdjust="spacing" textLength="7" x="552.5" y="252.7686">4</text><text fill="#000000" font-family="sans-serif" font-size="13" lengthAdjust="spacing" textLength="193" x="563.5" y="252.7686">Mengambil data nilai dengan filter</text><polygon fill="#2F4F8F" points="556.5,283.9766,546.5,287.9766,556.5,291.9766,552.5,287.9766" style="stroke:#2F4F8F;stroke-width:1.0;"/><line style="stroke:#2F4F8F;stroke-width:1.0;stroke-dasharray:2.0,2.0;" x1="550.5" x2="791.5" y1="287.9766" y2="287.9766"/><text fill="#000000" font-family="sans-serif" font-size="13" font-weight="bold" lengthAdjust="spacing" textLength="7" x="562.5" y="283.1201">5</text><text fill="#000000" font-family="sans-serif" font-size="13" lengthAdjust="spacing" textLength="116" x="573.5" y="283.1201">Mengirim daftar nilai</text><polygon fill="#2F4F8F" points="780.5,314.3281,790.5,318.3281,780.5,322.3281,784.5,318.3281" style="stroke:#2F4F8F;stroke-width:1.0;"/><line style="stroke:#2F4F8F;stroke-width:1.0;" x1="545.5" x2="786.5" y1="318.3281" y2="318.3281"/><text fill="#000000" font-family="sans-serif" font-size="13" font-weight="bold" lengthAdjust="spacing" textLength="7" x="552.5" y="313.4717">6</text><text fill="#000000" font-family="sans-serif" font-size="13" lengthAdjust="spacing" textLength="121" x="563.5" y="313.4717">Mengambil data guru</text><polygon fill="#2F4F8F" points="556.5,344.6797,546.5,348.6797,556.5,352.6797,552.5,348.6797" style="stroke:#2F4F8F;stroke-width:1.0;"/><line style="stroke:#2F4F8F;stroke-width:1.0;stroke-dasharray:2.0,2.0;" x1="550.5" x2="791.5" y1="348.6797" y2="348.6797"/><text fill="#000000" font-family="sans-serif" font-size="13" font-weight="bold" lengthAdjust="spacing" textLength="7" x="562.5" y="343.8232">7</text><text fill="#000000" font-family="sans-serif" font-size="13" lengthAdjust="spacing" textLength="113" x="573.5" y="343.8232">Mengirim hasil data</text><polygon fill="#2F4F8F" points="780.5,375.0313,790.5,379.0313,780.5,383.0313,784.5,379.0313" style="stroke:#2F4F8F;stroke-width:1.0;"/><line style="stroke:#2F4F8F;stroke-width:1.0;" x1="545.5" x2="786.5" y1="379.0313" y2="379.0313"/><text fill="#000000" font-family="sans-serif" font-size="13" font-weight="bold" lengthAdjust="spacing" textLength="7" x="552.5" y="374.1748">8</text><text fill="#000000" font-family="sans-serif" font-size="13" lengthAdjust="spacing" textLength="129" x="563.5" y="374.1748">Mengambil data siswa</text><polygon fill="#2F4F8F" points="556.5,405.3828,546.5,409.3828,556.5,413.3828,552.5,409.3828" style="stroke:#2F4F8F;stroke-width:1.0;"/><line style="stroke:#2F4F8F;stroke-width:1.0;stroke-dasharray:2.0,2.0;" x1="550.5" x2="791.5" y1="409.3828" y2="409.3828"/><text fill="#000000" font-family="sans-serif" font-size="13" font-weight="bold" lengthAdjust="spacing" textLength="7" x="562.5" y="404.5264">9</text><text fill="#000000" font-family="sans-serif" font-size="13" lengthAdjust="spacing" textLength="113" x="573.5" y="404.5264">Mengirim hasil data</text><polygon fill="#2F4F8F" points="319.5,435.7344,309.5,439.7344,319.5,443.7344,315.5,439.7344" style="stroke:#2F4F8F;stroke-width:1.0;"/><line style="stroke:#2F4F8F;stroke-width:1.0;stroke-dasharray:2.0,2.0;" x1="313.5" x2="544.5" y1="439.7344" y2="439.7344"/><text fill="#000000" font-family="sans-serif" font-size="13" font-weight="bold" lengthAdjust="spacing" textLength="14" x="325.5" y="434.8779">10</text><text fill="#000000" font-family="sans-serif" font-size="13" lengthAdjust="spacing" textLength="155" x="343.5" y="434.8779">Mengirim hasil ke halaman</text><polygon fill="#2F4F8F" points="63.5,466.0859,53.5,470.0859,63.5,474.0859,59.5,470.0859" style="stroke:#2F4F8F;stroke-width:1.0;"/><line style="stroke:#2F4F8F;stroke-width:1.0;stroke-dasharray:2.0,2.0;" x1="57.5" x2="307.5" y1="470.0859" y2="470.0859"/><text fill="#000000" font-family="sans-serif" font-size="13" font-weight="bold" lengthAdjust="spacing" textLength="14" x="69.5" y="465.2295">11</text><text fill="#000000" font-family="sans-serif" font-size="13" lengthAdjust="spacing" textLength="214" x="87.5" y="465.2295">Menampilkan hasil kepada pengguna</text><polygon fill="#2F4F8F" points="296.5,521.7891,306.5,525.7891,296.5,529.7891,300.5,525.7891" style="stroke:#2F4F8F;stroke-width:1.0;"/><line style="stroke:#2F4F8F;stroke-width:1.0;" x1="52.5" x2="302.5" y1="525.7891" y2="525.7891"/><text fill="#000000" font-family="sans-serif" font-size="13" font-weight="bold" lengthAdjust="spacing" textLength="14" x="59.5" y="520.9326">12</text><text fill="#000000" font-family="sans-serif" font-size="13" lengthAdjust="spacing" textLength="107" x="77.5" y="520.9326">Submit hapus-nilai</text><polygon fill="#2F4F8F" points="533.5,552.1406,543.5,556.1406,533.5,560.1406,537.5,556.1406" style="stroke:#2F4F8F;stroke-width:1.0;"/><line style="stroke:#2F4F8F;stroke-width:1.0;" x1="308.5" x2="539.5" y1="556.1406" y2="556.1406"/><text fill="#000000" font-family="sans-serif" font-size="13" font-weight="bold" lengthAdjust="spacing" textLength="14" x="315.5" y="551.2842">13</text><text fill="#000000" font-family="sans-serif" font-size="13" lengthAdjust="spacing" textLength="194" x="333.5" y="551.2842">Mengirim data formulir admin nilai</text><line style="stroke:#2F4F8F;stroke-width:1.0;" x1="545.5" x2="587.5" y1="586.4922" y2="586.4922"/><line style="stroke:#2F4F8F;stroke-width:1.0;" x1="587.5" x2="587.5" y1="586.4922" y2="599.4922"/><line style="stroke:#2F4F8F;stroke-width:1.0;" x1="546.5" x2="587.5" y1="599.4922" y2="599.4922"/><polygon fill="#2F4F8F" points="556.5,595.4922,546.5,599.4922,556.5,603.4922,552.5,599.4922" style="stroke:#2F4F8F;stroke-width:1.0;"/><text fill="#000000" font-family="sans-serif" font-size="13" font-weight="bold" lengthAdjust="spacing" textLength="14" x="552.5" y="581.6357">14</text><text fill="#000000" font-family="sans-serif" font-size="13" lengthAdjust="spacing" textLength="206" x="570.5" y="581.6357">Memeriksa kode keamanan formulir</text><path d="M20,614.4922 L81,614.4922 L81,622.8438 L71,632.8438 L20,632.8438 L20,614.4922 " fill="#EEEEEE" style="stroke:#000000;stroke-width:1.5;"/><rect fill="none" height="272.6484" style="stroke:#000000;stroke-width:1.5;" width="816" x="20" y="614.4922"/><text fill="#000000" font-family="sans-serif" font-size="13" font-weight="bold" lengthAdjust="spacing" textLength="16" x="35" y="628.9873">alt</text><text fill="#000000" font-family="sans-serif" font-size="11" font-weight="bold" lengthAdjust="spacing" textLength="209" x="96" y="627.9111">[kode keamanan formulir tidak benar]</text><polygon fill="#2F4F8F" points="319.5,651.1953,309.5,655.1953,319.5,659.1953,315.5,655.1953" style="stroke:#2F4F8F;stroke-width:1.0;"/><line style="stroke:#2F4F8F;stroke-width:1.0;stroke-dasharray:2.0,2.0;" x1="313.5" x2="544.5" y1="655.1953" y2="655.1953"/><text fill="#000000" font-family="sans-serif" font-size="13" font-weight="bold" lengthAdjust="spacing" textLength="14" x="325.5" y="650.3389">15</text><text fill="#000000" font-family="sans-serif" font-size="13" lengthAdjust="spacing" textLength="119" x="343.5" y="650.3389">Mengirim hasil gagal</text><line style="stroke:#000000;stroke-width:1.0;stroke-dasharray:2.0,2.0;" x1="20" x2="836" y1="664.1953" y2="664.1953"/><text fill="#000000" font-family="sans-serif" font-size="11" font-weight="bold" lengthAdjust="spacing" textLength="179" x="25" y="675.6143">[kode keamanan formulir benar]</text><line style="stroke:#2F4F8F;stroke-width:1.0;" x1="545.5" x2="587.5" y1="701.3828" y2="701.3828"/><line style="stroke:#2F4F8F;stroke-width:1.0;" x1="587.5" x2="587.5" y1="701.3828" y2="714.3828"/><line style="stroke:#2F4F8F;stroke-width:1.0;" x1="546.5" x2="587.5" y1="714.3828" y2="714.3828"/><polygon fill="#2F4F8F" points="556.5,710.3828,546.5,714.3828,556.5,718.3828,552.5,714.3828" style="stroke:#2F4F8F;stroke-width:1.0;"/><text fill="#000000" font-family="sans-serif" font-size="13" font-weight="bold" lengthAdjust="spacing" textLength="14" x="552.5" y="696.5264">16</text><text fill="#000000" font-family="sans-serif" font-size="13" lengthAdjust="spacing" textLength="94" x="570.5" y="696.5264">Menghapus nilai</text><polygon fill="#2F4F8F" points="780.5,740.7344,790.5,744.7344,780.5,748.7344,784.5,744.7344" style="stroke:#2F4F8F;stroke-width:1.0;"/><line style="stroke:#2F4F8F;stroke-width:1.0;" x1="545.5" x2="786.5" y1="744.7344" y2="744.7344"/><text fill="#000000" font-family="sans-serif" font-size="13" font-weight="bold" lengthAdjust="spacing" textLength="14" x="552.5" y="739.8779">17</text><text fill="#000000" font-family="sans-serif" font-size="13" lengthAdjust="spacing" textLength="205" x="570.5" y="739.8779">Menghapus data nilai WHERE id=?</text><polygon fill="#2F4F8F" points="556.5,771.0859,546.5,775.0859,556.5,779.0859,552.5,775.0859" style="stroke:#2F4F8F;stroke-width:1.0;"/><line style="stroke:#2F4F8F;stroke-width:1.0;stroke-dasharray:2.0,2.0;" x1="550.5" x2="791.5" y1="775.0859" y2="775.0859"/><text fill="#000000" font-family="sans-serif" font-size="13" font-weight="bold" lengthAdjust="spacing" textLength="14" x="562.5" y="770.2295">18</text><text fill="#000000" font-family="sans-serif" font-size="13" lengthAdjust="spacing" textLength="127" x="580.5" y="770.2295">Mengirim hasil proses</text><line style="stroke:#2F4F8F;stroke-width:1.0;stroke-dasharray:2.0,2.0;" x1="545.5" x2="587.5" y1="805.4375" y2="805.4375"/><line style="stroke:#2F4F8F;stroke-width:1.0;stroke-dasharray:2.0,2.0;" x1="587.5" x2="587.5" y1="805.4375" y2="818.4375"/><line style="stroke:#2F4F8F;stroke-width:1.0;stroke-dasharray:2.0,2.0;" x1="546.5" x2="587.5" y1="818.4375" y2="818.4375"/><polygon fill="#2F4F8F" points="556.5,814.4375,546.5,818.4375,556.5,822.4375,552.5,818.4375" style="stroke:#2F4F8F;stroke-width:1.0;"/><text fill="#000000" font-family="sans-serif" font-size="13" font-weight="bold" lengthAdjust="spacing" textLength="14" x="552.5" y="800.5811">19</text><text fill="#000000" font-family="sans-serif" font-size="13" lengthAdjust="spacing" textLength="205" x="570.5" y="800.5811">Menyiapkan pesan untuk pengguna</text><polygon fill="#2F4F8F" points="319.5,844.7891,309.5,848.7891,319.5,852.7891,315.5,848.7891" style="stroke:#2F4F8F;stroke-width:1.0;"/><line style="stroke:#2F4F8F;stroke-width:1.0;stroke-dasharray:2.0,2.0;" x1="313.5" x2="544.5" y1="848.7891" y2="848.7891"/><text fill="#000000" font-family="sans-serif" font-size="13" font-weight="bold" lengthAdjust="spacing" textLength="14" x="325.5" y="843.9326">20</text><text fill="#000000" font-family="sans-serif" font-size="13" lengthAdjust="spacing" textLength="175" x="343.5" y="843.9326">Mengalihkan page=admin-nilai</text><polygon fill="#2F4F8F" points="63.5,875.1406,53.5,879.1406,63.5,883.1406,59.5,879.1406" style="stroke:#2F4F8F;stroke-width:1.0;"/><line style="stroke:#2F4F8F;stroke-width:1.0;stroke-dasharray:2.0,2.0;" x1="57.5" x2="307.5" y1="879.1406" y2="879.1406"/><text fill="#000000" font-family="sans-serif" font-size="13" font-weight="bold" lengthAdjust="spacing" textLength="14" x="69.5" y="874.2842">21</text><text fill="#000000" font-family="sans-serif" font-size="13" lengthAdjust="spacing" textLength="214" x="87.5" y="874.2842">Menampilkan pesan dan data terbaru</text><!--SRC=[bLHDRzD04BtxLuo2n2s2H413fOBYjbOFBI1wu3oED_R8wrsp7sehn7zdrcidTjEq9L8YP-UzDnzlrewS570hVdkXDW8k24k33SnXNJIau4OhSjgGAk4RIQIaeaB0LckNw_i4lTFADxamYQr9jHYeji92tmN65gKLuyYGvKy2i3P6tvrhgGsyMMOVibN6XzUq5TUaHAfD8KmV_PIUB5Vlnr7SrANHNXKz8lkShREK4J_GEDfGYyfD97O9ne03bLMMPW6qtd3B4_vYiLWjJtQX0sRtuN2gxoUyy_JYu-MY3nnX_KsI18CipBgPpm1jd7wI1pIQ1vXTeSG65ToITQBf8FrHij7A6IrX5cEG4XiYlnlIKIeU9mKwpD4Ac5tqJrrq-9CaqV3vbq7u559V8pH2-UWzl8FIAwovZ2r9nwOFLJ4fPZc56y4g3g7gGzYfgi1_sxFwEgSaj8w2SeKrO6s5LGyOoIFyK6nWg1ARd2I4lg8-5E5mLzm0Xlaaaoh9KCEqhKCJYQ_9K7hZNv2iqFRermXQidVu_ufZVnxXQZ5CVMyCmpjVEp0sBSauv8XliK1eMINuckZMzRUUFIyhRBtjvmDmk1otFc_8GGUR3x0d5s8tSUvwgqtZ9PdnNZ3loPKGXcgBK6j-uzGYw0PpUm4ceNH7Wk2eu3tAkUK0tEi_CxqIIvGC5lpEEYPxA3ZjSpgpCMgw1X4tsjnVLvS_Bu6AiwyTxpLRqHhDj-HnToFm0s4Rp6w5vL-ldA_tNZyt59HKTKGinLddqtpVqWkR5PCLtPUxutkO8ryS7gig_W40]--></g></svg>