<?xml version="1.0" encoding="us-ascii" standalone="no"?><svg xmlns="http://www.w3.org/2000/svg" xmlns:xlink="http://www.w3.org/1999/xlink" contentStyleType="text/css" height="963px" preserveAspectRatio="none" style="width:910px;height:963px;background:#FFFFFF;" version="1.1" viewBox="0 0 910 963" width="910px" zoomAndPan="magnify"><defs/><g><text fill="#000000" font-family="sans-serif" font-size="14" font-weight="bold" lengthAdjust="spacing" textLength="307" x="307.5" y="29.5332">Sequence Diagram - Admin Mengelola Profil</text><rect fill="none" height="325.1875" style="stroke:#000000;stroke-width:1.5;" width="883" x="20" y="614.4922"/><rect fill="none" height="155.5938" style="stroke:#000000;stroke-width:1.5;" width="419" x="474" y="686.0313"/><line style="stroke:#6B7280;stroke-width:0.5;stroke-dasharray:5.0,5.0;" x1="52" x2="52" y1="121.2188" y2="956.6797"/><line style="stroke:#6B7280;stroke-width:0.5;stroke-dasharray:5.0,5.0;" x1="308" x2="308" y1="121.2188" y2="956.6797"/><line style="stroke:#6B7280;stroke-width:0.5;stroke-dasharray:5.0,5.0;" x1="548" x2="548" y1="121.2188" y2="956.6797"/><line style="stroke:#6B7280;stroke-width:0.5;stroke-dasharray:5.0,5.0;" x1="849" x2="849" y1="121.2188" y2="956.6797"/><text fill="#000000" font-family="sans-serif" font-size="14" lengthAdjust="spacing" textLength="39" x="30" y="118.1426">Admin</text><ellipse cx="52.5" cy="52.1094" fill="#FFFFFF" rx="8" ry="8" style="stroke:#111827;stroke-width:0.5;"/><path d="M52.5,60.1094 L52.5,87.1094 M39.5,68.1094 L65.5,68.1094 M52.5,87.1094 L39.5,102.1094 M52.5,87.1094 L65.5,102.1094 " fill="none" style="stroke:#111827;stroke-width:0.5;"/><text fill="#000000" font-family="sans-serif" font-size="14" lengthAdjust="spacing" textLength="101" x="255" y="118.1426">Halaman Sistem</text><path d="M288,75.6094 L288,99.6094 M288,87.6094 L305,87.6094 " fill="none" style="stroke:#181818;stroke-width:0.5;"/><ellipse cx="317" cy="87.6094" fill="#E2E2F0" rx="12" ry="12" style="stroke:#181818;stroke-width:0.5;"/><text fill="#000000" font-family="sans-serif" font-size="14" lengthAdjust="spacing" textLength="123" x="484" y="118.1426">Sistem BimbelOrion</text><ellipse cx="548.5" cy="87.6094" fill="#E2E2F0" rx="12" ry="12" style="stroke:#181818;stroke-width:0.5;"/><polygon fill="#181818" points="544.5,75.6094,550.5,70.6094,548.5,75.6094,550.5,80.6094,544.5,75.6094" style="stroke:#181818;stroke-width:1.0;"/><text fill="#000000" font-family="sans-serif" font-size="14" lengthAdjust="spacing" textLength="61" x="816" y="118.1426">Database</text><path d="M831.5,67.6094 C831.5,57.6094 849.5,57.6094 849.5,57.6094 C849.5,57.6094 867.5,57.6094 867.5,67.6094 L867.5,93.6094 C867.5,103.6094 849.5,103.6094 849.5,103.6094 C849.5,103.6094 831.5,103.6094 831.5,93.6094 L831.5,67.6094 " fill="#E2E2F0" style="stroke:#181818;stroke-width:1.5;"/><path d="M831.5,67.6094 C831.5,77.6094 849.5,77.6094 849.5,77.6094 C849.5,77.6094 867.5,77.6094 867.5,67.6094 " fill="none" style="stroke:#181818;stroke-width:1.5;"/><polygon fill="#2F4F8F" points="296.5,149.5703,306.5,153.5703,296.5,157.5703,300.5,153.5703" style="stroke:#2F4F8F;stroke-width:1.0;"/><line style="stroke:#2F4F8F;stroke-width:1.0;" x1="52.5" x2="302.5" y1="153.5703" y2="153.5703"/><text fill="#000000" font-family="sans-serif" font-size="13" font-weight="bold" lengthAdjust="spacing" textLength="7" x="59.5" y="148.7139">1</text><text fill="#000000" font-family="sans-serif" font-size="13" lengthAdjust="spacing" textLength="140" x="70.5" y="148.7139">Buka menu Profil Admin</text><polygon fill="#2F4F8F" points="536.5,179.9219,546.5,183.9219,536.5,187.9219,540.5,183.9219" style="stroke:#2F4F8F;stroke-width:1.0;"/><line style="stroke:#2F4F8F;stroke-width:1.0;" x1="308.5" x2="542.5" y1="183.9219" y2="183.9219"/><text fill="#000000" font-family="sans-serif" font-size="13" font-weight="bold" lengthAdjust="spacing" textLength="7" x="315.5" y="179.0654">2</text><text fill="#000000" font-family="sans-serif" font-size="13" lengthAdjust="spacing" textLength="173" x="326.5" y="179.0654">Meminta halaman admin profil</text><line style="stroke:#2F4F8F;stroke-width:1.0;" x1="548.5" x2="590.5" y1="214.2734" y2="214.2734"/><line style="stroke:#2F4F8F;stroke-width:1.0;" x1="590.5" x2="590.5" y1="214.2734" y2="227.2734"/><line style="stroke:#2F4F8F;stroke-width:1.0;" x1="549.5" x2="590.5" y1="227.2734" y2="227.2734"/><polygon fill="#2F4F8F" points="559.5,223.2734,549.5,227.2734,559.5,231.2734,555.5,227.2734" style="stroke:#2F4F8F;stroke-width:1.0;"/><text fill="#000000" font-family="sans-serif" font-size="13" font-weight="bold" lengthAdjust="spacing" textLength="7" x="555.5" y="209.417">3</text><text fill="#000000" font-family="sans-serif" font-size="13" lengthAdjust="spacing" textLength="195" x="566.5" y="209.417">Memastikan hak aksesnya admin</text><polygon fill="#2F4F8F" points="837.5,253.625,847.5,257.625,837.5,261.625,841.5,257.625" style="stroke:#2F4F8F;stroke-width:1.0;"/><line style="stroke:#2F4F8F;stroke-width:1.0;" x1="548.5" x2="843.5" y1="257.625" y2="257.625"/><text fill="#000000" font-family="sans-serif" font-size="13" font-weight="bold" lengthAdjust="spacing" textLength="7" x="555.5" y="252.7686">4</text><text fill="#000000" font-family="sans-serif" font-size="13" lengthAdjust="spacing" textLength="128" x="566.5" y="252.7686">Mengambil data users</text><polygon fill="#2F4F8F" points="559.5,283.9766,549.5,287.9766,559.5,291.9766,555.5,287.9766" style="stroke:#2F4F8F;stroke-width:1.0;"/><line style="stroke:#2F4F8F;stroke-width:1.0;stroke-dasharray:2.0,2.0;" x1="553.5" x2="848.5" y1="287.9766" y2="287.9766"/><text fill="#000000" font-family="sans-serif" font-size="13" font-weight="bold" lengthAdjust="spacing" textLength="7" x="565.5" y="283.1201">5</text><text fill="#000000" font-family="sans-serif" font-size="13" lengthAdjust="spacing" textLength="113" x="576.5" y="283.1201">Mengirim hasil data</text><polygon fill="#2F4F8F" points="837.5,314.3281,847.5,318.3281,837.5,322.3281,841.5,318.3281" style="stroke:#2F4F8F;stroke-width:1.0;"/><line style="stroke:#2F4F8F;stroke-width:1.0;" x1="548.5" x2="843.5" y1="318.3281" y2="318.3281"/><text fill="#000000" font-family="sans-serif" font-size="13" font-weight="bold" lengthAdjust="spacing" textLength="7" x="555.5" y="313.4717">6</text><text fill="#000000" font-family="sans-serif" font-size="13" lengthAdjust="spacing" textLength="264" x="566.5" y="313.4717">Mengambil data COUNT data dashboard profil</text><polygon fill="#2F4F8F" points="559.5,344.6797,549.5,348.6797,559.5,352.6797,555.5,348.6797" style="stroke:#2F4F8F;stroke-width:1.0;"/><line style="stroke:#2F4F8F;stroke-width:1.0;stroke-dasharray:2.0,2.0;" x1="553.5" x2="848.5" y1="348.6797" y2="348.6797"/><text fill="#000000" font-family="sans-serif" font-size="13" font-weight="bold" lengthAdjust="spacing" textLength="7" x="565.5" y="343.8232">7</text><text fill="#000000" font-family="sans-serif" font-size="13" lengthAdjust="spacing" textLength="113" x="576.5" y="343.8232">Mengirim hasil data</text><polygon fill="#2F4F8F" points="837.5,375.0313,847.5,379.0313,837.5,383.0313,841.5,379.0313" style="stroke:#2F4F8F;stroke-width:1.0;"/><line style="stroke:#2F4F8F;stroke-width:1.0;" x1="548.5" x2="843.5" y1="379.0313" y2="379.0313"/><text fill="#000000" font-family="sans-serif" font-size="13" font-weight="bold" lengthAdjust="spacing" textLength="7" x="555.5" y="374.1748">8</text><text fill="#000000" font-family="sans-serif" font-size="13" lengthAdjust="spacing" textLength="172" x="566.5" y="374.1748">Mengambil data users terbaru</text><polygon fill="#2F4F8F" points="559.5,405.3828,549.5,409.3828,559.5,413.3828,555.5,409.3828" style="stroke:#2F4F8F;stroke-width:1.0;"/><line style="stroke:#2F4F8F;stroke-width:1.0;stroke-dasharray:2.0,2.0;" x1="553.5" x2="848.5" y1="409.3828" y2="409.3828"/><text fill="#000000" font-family="sans-serif" font-size="13" font-weight="bold" lengthAdjust="spacing" textLength="7" x="565.5" y="404.5264">9</text><text fill="#000000" font-family="sans-serif" font-size="13" lengthAdjust="spacing" textLength="162" x="576.5" y="404.5264">Mengirim daftar user terbaru</text><polygon fill="#2F4F8F" points="319.5,435.7344,309.5,439.7344,319.5,443.7344,315.5,439.7344" style="stroke:#2F4F8F;stroke-width:1.0;"/><line style="stroke:#2F4F8F;stroke-width:1.0;stroke-dasharray:2.0,2.0;" x1="313.5" x2="547.5" y1="439.7344" y2="439.7344"/><text fill="#000000" font-family="sans-serif" font-size="13" font-weight="bold" lengthAdjust="spacing" textLength="14" x="325.5" y="434.8779">10</text><text fill="#000000" font-family="sans-serif" font-size="13" lengthAdjust="spacing" textLength="155" x="343.5" y="434.8779">Mengirim hasil ke halaman</text><polygon fill="#2F4F8F" points="63.5,466.0859,53.5,470.0859,63.5,474.0859,59.5,470.0859" style="stroke:#2F4F8F;stroke-width:1.0;"/><line style="stroke:#2F4F8F;stroke-width:1.0;stroke-dasharray:2.0,2.0;" x1="57.5" x2="307.5" y1="470.0859" y2="470.0859"/><text fill="#000000" font-family="sans-serif" font-size="13" font-weight="bold" lengthAdjust="spacing" textLength="14" x="69.5" y="465.2295">11</text><text fill="#000000" font-family="sans-serif" font-size="13" lengthAdjust="spacing" textLength="214" x="87.5" y="465.2295">Menampilkan hasil kepada pengguna</text><polygon fill="#2F4F8F" points="296.5,521.7891,306.5,525.7891,296.5,529.7891,300.5,525.7891" style="stroke:#2F4F8F;stroke-width:1.0;"/><line style="stroke:#2F4F8F;stroke-width:1.0;" x1="52.5" x2="302.5" y1="525.7891" y2="525.7891"/><text fill="#000000" font-family="sans-serif" font-size="13" font-weight="bold" lengthAdjust="spacing" textLength="14" x="59.5" y="520.9326">12</text><text fill="#000000" font-family="sans-serif" font-size="13" lengthAdjust="spacing" textLength="172" x="77.5" y="520.9326">Mengirim form profil/password</text><polygon fill="#2F4F8F" points="536.5,552.1406,546.5,556.1406,536.5,560.1406,540.5,556.1406" style="stroke:#2F4F8F;stroke-width:1.0;"/><line style="stroke:#2F4F8F;stroke-width:1.0;" x1="308.5" x2="542.5" y1="556.1406" y2="556.1406"/><text fill="#000000" font-family="sans-serif" font-size="13" font-weight="bold" lengthAdjust="spacing" textLength="14" x="315.5" y="551.2842">13</text><text fill="#000000" font-family="sans-serif" font-size="13" lengthAdjust="spacing" textLength="198" x="333.5" y="551.2842">Mengirim data formulir admin profil</text><line style="stroke:#2F4F8F;stroke-width:1.0;" x1="548.5" x2="590.5" y1="586.4922" y2="586.4922"/><line style="stroke:#2F4F8F;stroke-width:1.0;" x1="590.5" x2="590.5" y1="586.4922" y2="599.4922"/><line style="stroke:#2F4F8F;stroke-width:1.0;" x1="549.5" x2="590.5" y1="599.4922" y2="599.4922"/><polygon fill="#2F4F8F" points="559.5,595.4922,549.5,599.4922,559.5,603.4922,555.5,599.4922" style="stroke:#2F4F8F;stroke-width:1.0;"/><text fill="#000000" font-family="sans-serif" font-size="13" font-weight="bold" lengthAdjust="spacing" textLength="14" x="555.5" y="581.6357">14</text><text fill="#000000" font-family="sans-serif" font-size="13" lengthAdjust="spacing" textLength="206" x="573.5" y="581.6357">Memeriksa kode keamanan formulir</text><path d="M20,614.4922 L81,614.4922 L81,622.8438 L71,632.8438 L20,632.8438 L20,614.4922 " fill="#EEEEEE" style="stroke:#000000;stroke-width:1.5;"/><rect fill="none" height="325.1875" style="stroke:#000000;stroke-width:1.5;" width="883" x="20" y="614.4922"/><text fill="#000000" font-family="sans-serif" font-size="13" font-weight="bold" lengthAdjust="spacing" textLength="16" x="35" y="628.9873">alt</text><text fill="#000000" font-family="sans-serif" font-size="11" font-weight="bold" lengthAdjust="spacing" textLength="209" x="96" y="627.9111">[kode keamanan formulir tidak benar]</text><polygon fill="#2F4F8F" points="319.5,651.1953,309.5,655.1953,319.5,659.1953,315.5,655.1953" style="stroke:#2F4F8F;stroke-width:1.0;"/><line style="stroke:#2F4F8F;stroke-width:1.0;stroke-dasharray:2.0,2.0;" x1="313.5" x2="547.5" y1="655.1953" y2="655.1953"/><text fill="#000000" font-family="sans-serif" font-size="13" font-weight="bold" lengthAdjust="spacing" textLength="14" x="325.5" y="650.3389">15</text><text fill="#000000" font-family="sans-serif" font-size="13" lengthAdjust="spacing" textLength="119" x="343.5" y="650.3389">Mengirim hasil gagal</text><line style="stroke:#000000;stroke-width:1.0;stroke-dasharray:2.0,2.0;" x1="20" x2="903" y1="664.1953" y2="664.1953"/><text fill="#000000" font-family="sans-serif" font-size="11" font-weight="bold" lengthAdjust="spacing" textLength="179" x="25" y="675.6143">[kode keamanan formulir benar]</text><path d="M474,686.0313 L535,686.0313 L535,694.3828 L525,704.3828 L474,704.3828 L474,686.0313 " fill="#EEEEEE" style="stroke:#000000;stroke-width:1.5;"/><rect fill="none" height="155.5938" style="stroke:#000000;stroke-width:1.5;" width="419" x="474" y="686.0313"/><text fill="#000000" font-family="sans-serif" font-size="13" font-weight="bold" lengthAdjust="spacing" textLength="16" x="489" y="700.5264">alt</text><text fill="#000000" font-family="sans-serif" font-size="11" font-weight="bold" lengthAdjust="spacing" textLength="86" x="550" y="699.4502">[update-profile]</text><polygon fill="#2F4F8F" points="837.5,722.7344,847.5,726.7344,837.5,730.7344,841.5,726.7344" style="stroke:#2F4F8F;stroke-width:1.0;"/><line style="stroke:#2F4F8F;stroke-width:1.0;" x1="548.5" x2="843.5" y1="726.7344" y2="726.7344"/><text fill="#000000" font-family="sans-serif" font-size="13" font-weight="bold" lengthAdjust="spacing" textLength="14" x="555.5" y="721.8779">16</text><text fill="#000000" font-family="sans-serif" font-size="13" lengthAdjust="spacing" textLength="156" x="573.5" y="721.8779">Mengolah data di database</text><line style="stroke:#000000;stroke-width:1.0;stroke-dasharray:2.0,2.0;" x1="474" x2="893" y1="735.7344" y2="735.7344"/><text fill="#000000" font-family="sans-serif" font-size="11" font-weight="bold" lengthAdjust="spacing" textLength="108" x="479" y="747.1533">[change-password]</text><polygon fill="#2F4F8F" points="837.5,768.9219,847.5,772.9219,837.5,776.9219,841.5,772.9219" style="stroke:#2F4F8F;stroke-width:1.0;"/><line style="stroke:#2F4F8F;stroke-width:1.0;" x1="548.5" x2="843.5" y1="772.9219" y2="772.9219"/><text fill="#000000" font-family="sans-serif" font-size="13" font-weight="bold" lengthAdjust="spacing" textLength="14" x="555.5" y="768.0654">17</text><text fill="#000000" font-family="sans-serif" font-size="13" lengthAdjust="spacing" textLength="183" x="573.5" y="768.0654">Mengambil data password lama</text><polygon fill="#2F4F8F" points="559.5,799.2734,549.5,803.2734,559.5,807.2734,555.5,803.2734" style="stroke:#2F4F8F;stroke-width:1.0;"/><line style="stroke:#2F4F8F;stroke-width:1.0;stroke-dasharray:2.0,2.0;" x1="553.5" x2="848.5" y1="803.2734" y2="803.2734"/><text fill="#000000" font-family="sans-serif" font-size="13" font-weight="bold" lengthAdjust="spacing" textLength="14" x="565.5" y="798.417">18</text><text fill="#000000" font-family="sans-serif" font-size="13" lengthAdjust="spacing" textLength="113" x="583.5" y="798.417">Mengirim hasil data</text><polygon fill="#2F4F8F" points="837.5,829.625,847.5,833.625,837.5,837.625,841.5,833.625" style="stroke:#2F4F8F;stroke-width:1.0;"/><line style="stroke:#2F4F8F;stroke-width:1.0;" x1="548.5" x2="843.5" y1="833.625" y2="833.625"/><text fill="#000000" font-family="sans-serif" font-size="13" font-weight="bold" lengthAdjust="spacing" textLength="14" x="555.5" y="828.7686">19</text><text fill="#000000" font-family="sans-serif" font-size="13" lengthAdjust="spacing" textLength="259" x="573.5" y="828.7686">Memperbarui data users.password jika benar</text><polygon fill="#2F4F8F" points="559.5,866.9766,549.5,870.9766,559.5,874.9766,555.5,870.9766" style="stroke:#2F4F8F;stroke-width:1.0;"/><line style="stroke:#2F4F8F;stroke-width:1.0;stroke-dasharray:2.0,2.0;" x1="553.5" x2="848.5" y1="870.9766" y2="870.9766"/><text fill="#000000" font-family="sans-serif" font-size="13" font-weight="bold" lengthAdjust="spacing" textLength="14" x="565.5" y="866.1201">20</text><text fill="#000000" font-family="sans-serif" font-size="13" lengthAdjust="spacing" textLength="127" x="583.5" y="866.1201">Mengirim hasil proses</text><polygon fill="#2F4F8F" points="319.5,897.3281,309.5,901.3281,319.5,905.3281,315.5,901.3281" style="stroke:#2F4F8F;stroke-width:1.0;"/><line style="stroke:#2F4F8F;stroke-width:1.0;stroke-dasharray:2.0,2.0;" x1="313.5" x2="547.5" y1="901.3281" y2="901.3281"/><text fill="#000000" font-family="sans-serif" font-size="13" font-weight="bold" lengthAdjust="spacing" textLength="14" x="325.5" y="896.4717">21</text><text fill="#000000" font-family="sans-serif" font-size="13" lengthAdjust="spacing" textLength="179" x="343.5" y="896.4717">Mengalihkan page=admin-profil</text><polygon fill="#2F4F8F" points="63.5,927.6797,53.5,931.6797,63.5,935.6797,59.5,931.6797" style="stroke:#2F4F8F;stroke-width:1.0;"/><line style="stroke:#2F4F8F;stroke-width:1.0;stroke-dasharray:2.0,2.0;" x1="57.5" x2="307.5" y1="931.6797" y2="931.6797"/><text fill="#000000" font-family="sans-serif" font-size="13" font-weight="bold" lengthAdjust="spacing" textLength="14" x="69.5" y="926.8232">22</text><text fill="#000000" font-family="sans-serif" font-size="13" lengthAdjust="spacing" textLength="129" x="87.5" y="926.8232">Tampilkan pesan hasil</text><!--SRC=[hLHTRzCm57tthxWgpsLq0bOgWTHiH3mCDcdZ1zmqjub9OWVRqJOX_ZitjfCcR2jxe4-fxpddVXtRILSJtD3FZjIEu49YOR219MppHYhuIggWMjS8rqRlPIrAcHFijNQPlXVOEQsw9YCZR2LLYptLbfZhEwaAs6DjQHePilmI05jZzDsvhhM1LwVfstITyk6btDEbL9HeavE9qVV9sUdwpJIAkwemkbDvHAGVqcsQCE8QZPCxsQ9oCuanmHJmI6MT9caFskwSDZF-QhLQdvwDeKTC_-DmekzdlFFaujtdLGmym_ejXC1U5XP-vWj06wOliXwDvW4MNx361XNSIEkeyP1u97PQEQDhM8GO998NKbyPgODKE1OvEipG4YmkufUF3d-420jVVXg4Dv1q5K93gelBZrKDjJ0qQ6_O9Xnm26KCeTTgWsLYNNCuMYShHfPO0LQMh7h0G9lWX-8steVOP5n3tmTqbemLGnYMCsrLI2CRLhOH_XB5ywlltsx3Puwsp3IQV6ZWV-RnbOCZaw7f_g6SuzwXyPIHCQIOxkclKYeQzd1O5SFzyZmOcrRMOVW1tsAEqB9AqIaKkdNnzdSPbd48S085Nne9BLfxnnxlByCZnuoLxBLf8lDamdZIEcEtF9wUrzNIp1q4yAI7oCZA8bIQdwIAUc6M7XIOXBLx9WXEvcoyZ6VH0m_wHyPQO85zASIFsdEo1y4-TzToJxGCJP0_ddOozmY_iMNqduJXidgEJxWhaL_YvMIMnyGcXXiOq7SLQIyszB4iJHiiAIV6VZrc-y6tUp8EKg7absJcUV5xS7GjMCkoDt2B1NtqLbcELfcuxE3wsz7pBTd1-SBNzGS0]--></g></svg>