<?xml version="1.0" encoding="us-ascii" standalone="no"?><svg xmlns="http://www.w3.org/2000/svg" xmlns:xlink="http://www.w3.org/1999/xlink" contentStyleType="text/css" height="1315px" preserveAspectRatio="none" style="width:720px;height:1315px;background:#FFFFFF;" version="1.1" viewBox="0 0 720 1315" width="720px" zoomAndPan="magnify"><defs/><g><text fill="#000000" font-family="sans-serif" font-size="14" font-weight="bold" lengthAdjust="spacing" textLength="330" x="193.5" y="34.5332">Activity Diagram - Siswa Mengakses Dashboard</text><ellipse cx="424.5" cy="58.6094" fill="#222222" rx="10" ry="10" style="stroke:#222222;stroke-width:1.0;"/><rect fill="none" height="194.8906" style="stroke:#000000;stroke-width:1.5;" width="295" x="277" y="78.6094"/><path d="M323,78.6094 L323,89.2188 L313,99.2188 L277,99.2188 " fill="none" style="stroke:#000000;stroke-width:1.5;"/><text fill="#000000" font-family="sans-serif" font-size="14" lengthAdjust="spacing" textLength="36" x="280" y="94.1426">Siswa</text><rect fill="#F1F1F1" height="35.0938" rx="12.5" ry="12.5" style="stroke:#181818;stroke-width:0.5;" width="195" x="327" y="116.2188"/><text fill="#000000" font-family="sans-serif" font-size="12" lengthAdjust="spacing" textLength="175" x="337" y="138.6758">Siswa membuka halaman login</text><rect fill="#F1F1F1" height="35.0938" rx="12.5" ry="12.5" style="stroke:#181818;stroke-width:0.5;" width="275" x="287" y="171.3125"/><text fill="#000000" font-family="sans-serif" font-size="12" lengthAdjust="spacing" textLength="255" x="297" y="193.7695">Siswa memasukkan username dan password</text><rect fill="#F1F1F1" height="35.0938" rx="12.5" ry="12.5" style="stroke:#181818;stroke-width:0.5;" width="150" x="349.5" y="226.4063"/><text fill="#000000" font-family="sans-serif" font-size="12" lengthAdjust="spacing" textLength="130" x="359.5" y="248.8633">Siswa klik tombol Login</text><rect fill="none" height="84.7031" style="stroke:#000000;stroke-width:1.5;" width="194" x="327.5" y="283.5"/><path d="M379.5,283.5 L379.5,294.1094 L369.5,304.1094 L327.5,304.1094 " fill="none" style="stroke:#000000;stroke-width:1.5;"/><text fill="#000000" font-family="sans-serif" font-size="14" lengthAdjust="spacing" textLength="42" x="330.5" y="299.0332">Sistem</text><rect fill="#F1F1F1" height="35.0938" rx="12.5" ry="12.5" style="stroke:#181818;stroke-width:0.5;" width="174" x="337.5" y="321.1094"/><text fill="#000000" font-family="sans-serif" font-size="12" lengthAdjust="spacing" textLength="154" x="347.5" y="343.5664">Memeriksa data login siswa</text><polygon fill="#F1F1F1" points="396,388.2031,453,388.2031,465,400.2031,453,412.2031,396,412.2031,384,400.2031,396,388.2031" style="stroke:#181818;stroke-width:0.5;"/><text fill="#000000" font-family="sans-serif" font-size="11" lengthAdjust="spacing" textLength="57" x="396" y="404.7041">Login valid?</text><text fill="#000000" font-family="sans-serif" font-size="11" lengthAdjust="spacing" textLength="14" x="370" y="397.7861">Ya</text><text fill="#000000" font-family="sans-serif" font-size="11" lengthAdjust="spacing" textLength="25" x="465" y="397.7861">Tidak</text><rect fill="none" height="84.7031" style="stroke:#000000;stroke-width:1.5;" width="194" x="152.5" y="422.2031"/><path d="M198.5,422.2031 L198.5,432.8125 L188.5,442.8125 L152.5,442.8125 " fill="none" style="stroke:#000000;stroke-width:1.5;"/><text fill="#000000" font-family="sans-serif" font-size="14" lengthAdjust="spacing" textLength="36" x="155.5" y="437.7363">Siswa</text><rect fill="#F1F1F1" height="35.0938" rx="12.5" ry="12.5" style="stroke:#181818;stroke-width:0.5;" width="174" x="162.5" y="459.8125"/><text fill="#000000" font-family="sans-serif" font-size="12" lengthAdjust="spacing" textLength="154" x="172.5" y="482.2695">Siswa masuk ke dashboard</text><rect fill="none" height="327.1719" style="stroke:#000000;stroke-width:1.5;" width="268" x="115.5" y="516.9063"/><path d="M167.5,516.9063 L167.5,527.5156 L157.5,537.5156 L115.5,537.5156 " fill="none" style="stroke:#000000;stroke-width:1.5;"/><text fill="#000000" font-family="sans-serif" font-size="14" lengthAdjust="spacing" textLength="42" x="118.5" y="532.4395">Sistem</text><rect fill="#F1F1F1" height="35.0938" rx="12.5" ry="12.5" style="stroke:#181818;stroke-width:0.5;" width="248" x="125.5" y="554.5156"/><text fill="#000000" font-family="sans-serif" font-size="12" lengthAdjust="spacing" textLength="228" x="135.5" y="576.9727">Menampilkan halaman Dashboard Siswa</text><rect fill="#F1F1F1" height="35.0938" rx="12.5" ry="12.5" style="stroke:#181818;stroke-width:0.5;" width="175" x="162" y="616.6094"/><text fill="#000000" font-family="sans-serif" font-size="12" lengthAdjust="spacing" textLength="155" x="172" y="639.0664">Menampilkan sapaan siswa</text><rect fill="#F1F1F1" height="50.1875" rx="12.5" ry="12.5" style="stroke:#181818;stroke-width:0.5;" width="241" x="129" y="671.7031"/><text fill="#000000" font-family="sans-serif" font-size="12" lengthAdjust="spacing" textLength="221" x="139" y="694.1602">Menampilkan ringkasan mata pelajaran,</text><text fill="#000000" font-family="sans-serif" font-size="12" lengthAdjust="spacing" textLength="147" x="139" y="709.2539">total jadwal, dan kehadiran</text><rect fill="#F1F1F1" height="35.0938" rx="12.5" ry="12.5" style="stroke:#181818;stroke-width:0.5;" width="231" x="134" y="741.8906"/><text fill="#000000" font-family="sans-serif" font-size="12" lengthAdjust="spacing" textLength="211" x="144" y="764.3477">Menampilkan bagian Jadwal Les Saya</text><rect fill="#F1F1F1" height="35.0938" rx="12.5" ry="12.5" style="stroke:#181818;stroke-width:0.5;" width="209" x="145" y="796.9844"/><text fill="#000000" font-family="sans-serif" font-size="12" lengthAdjust="spacing" textLength="189" x="155" y="819.4414">Menampilkan bagian Nilai Terbaru</text><rect fill="none" height="84.7031" style="stroke:#000000;stroke-width:1.5;" width="236" x="131.5" y="854.0781"/><path d="M177.5,854.0781 L177.5,864.6875 L167.5,874.6875 L131.5,874.6875 " fill="none" style="stroke:#000000;stroke-width:1.5;"/><text fill="#000000" font-family="sans-serif" font-size="14" lengthAdjust="spacing" textLength="36" x="134.5" y="869.6113">Siswa</text><rect fill="#F1F1F1" height="35.0938" rx="12.5" ry="12.5" style="stroke:#181818;stroke-width:0.5;" width="216" x="141.5" y="891.6875"/><text fill="#000000" font-family="sans-serif" font-size="12" lengthAdjust="spacing" textLength="196" x="151.5" y="914.1445">Siswa melihat informasi dashboard</text><polygon fill="#F1F1F1" points="151,958.7813,348,958.7813,360,970.7813,348,982.7813,151,982.7813,139,970.7813,151,958.7813" style="stroke:#181818;stroke-width:0.5;"/><text fill="#000000" font-family="sans-serif" font-size="11" lengthAdjust="spacing" textLength="197" x="151" y="975.2822">Siswa ingin membuka informasi lanjutan?</text><text fill="#000000" font-family="sans-serif" font-size="11" lengthAdjust="spacing" textLength="14" x="125" y="968.3643">Ya</text><text fill="#000000" font-family="sans-serif" font-size="11" lengthAdjust="spacing" textLength="25" x="360" y="968.3643">Tidak</text><rect fill="none" height="99.7969" style="stroke:#000000;stroke-width:1.5;" width="236" x="11" y="992.7813"/><path d="M57,992.7813 L57,1003.3906 L47,1013.3906 L11,1013.3906 " fill="none" style="stroke:#000000;stroke-width:1.5;"/><text fill="#000000" font-family="sans-serif" font-size="14" lengthAdjust="spacing" textLength="36" x="14" y="1008.3145">Siswa</text><rect fill="#F1F1F1" height="50.1875" rx="12.5" ry="12.5" style="stroke:#181818;stroke-width:0.5;" width="216" x="21" y="1030.3906"/><text fill="#000000" font-family="sans-serif" font-size="12" lengthAdjust="spacing" textLength="196" x="31" y="1052.8477">Siswa memilih tombol Lihat Semua</text><text fill="#000000" font-family="sans-serif" font-size="12" lengthAdjust="spacing" textLength="120" x="31" y="1067.9414">pada jadwal atau nilai</text><rect fill="none" height="99.7969" style="stroke:#000000;stroke-width:1.5;" width="219" x="19.5" y="1102.5781"/><path d="M71.5,1102.5781 L71.5,1113.1875 L61.5,1123.1875 L19.5,1123.1875 " fill="none" style="stroke:#000000;stroke-width:1.5;"/><text fill="#000000" font-family="sans-serif" font-size="14" lengthAdjust="spacing" textLength="42" x="22.5" y="1118.1113">Sistem</text><rect fill="#F1F1F1" height="50.1875" rx="12.5" ry="12.5" style="stroke:#181818;stroke-width:0.5;" width="199" x="29.5" y="1140.1875"/><text fill="#000000" font-family="sans-serif" font-size="12" lengthAdjust="spacing" textLength="179" x="39.5" y="1162.6445">Mengarahkan siswa ke halaman</text><text fill="#000000" font-family="sans-serif" font-size="12" lengthAdjust="spacing" textLength="118" x="39.5" y="1177.7383">Jadwal Les atau Nilai</text><rect fill="none" height="99.7969" style="stroke:#000000;stroke-width:1.5;" width="180" x="280" y="992.7813"/><path d="M326,992.7813 L326,1003.3906 L316,1013.3906 L280,1013.3906 " fill="none" style="stroke:#000000;stroke-width:1.5;"/><text fill="#000000" font-family="sans-serif" font-size="14" lengthAdjust="spacing" textLength="36" x="283" y="1008.3145">Siswa</text><rect fill="#F1F1F1" height="50.1875" rx="12.5" ry="12.5" style="stroke:#181818;stroke-width:0.5;" width="160" x="290" y="1030.3906"/><text fill="#000000" font-family="sans-serif" font-size="12" lengthAdjust="spacing" textLength="140" x="300" y="1052.8477">Siswa tetap di dashboard</text><text fill="#000000" font-family="sans-serif" font-size="12" lengthAdjust="spacing" textLength="130" x="300" y="1067.9414">atau memilih menu lain</text><polygon fill="#F1F1F1" points="249.5,1208.375,261.5,1220.375,249.5,1232.375,237.5,1220.375,249.5,1208.375" style="stroke:#181818;stroke-width:0.5;"/><rect fill="none" height="84.7031" style="stroke:#000000;stroke-width:1.5;" width="216" x="491.5" y="422.2031"/><path d="M543.5,422.2031 L543.5,432.8125 L533.5,442.8125 L491.5,442.8125 " fill="none" style="stroke:#000000;stroke-width:1.5;"/><text fill="#000000" font-family="sans-serif" font-size="14" lengthAdjust="spacing" textLength="42" x="494.5" y="437.7363">Sistem</text><rect fill="#F1F1F1" height="35.0938" rx="12.5" ry="12.5" style="stroke:#181818;stroke-width:0.5;" width="196" x="501.5" y="459.8125"/><text fill="#000000" font-family="sans-serif" font-size="12" lengthAdjust="spacing" textLength="176" x="511.5" y="482.2695">Menampilkan pesan login gagal</text><rect fill="none" height="84.7031" style="stroke:#000000;stroke-width:1.5;" width="219" x="490" y="516.9063"/><path d="M536,516.9063 L536,527.5156 L526,537.5156 L490,537.5156 " fill="none" style="stroke:#000000;stroke-width:1.5;"/><text fill="#000000" font-family="sans-serif" font-size="14" lengthAdjust="spacing" textLength="36" x="493" y="532.4395">Siswa</text><rect fill="#F1F1F1" height="35.0938" rx="12.5" ry="12.5" style="stroke:#181818;stroke-width:0.5;" width="199" x="500" y="554.5156"/><text fill="#000000" font-family="sans-serif" font-size="12" lengthAdjust="spacing" textLength="179" x="510" y="576.9727">Siswa kembali ke halaman login</text><polygon fill="#F1F1F1" points="424.5,1238.375,436.5,1250.375,424.5,1262.375,412.5,1250.375,424.5,1238.375" style="stroke:#181818;stroke-width:0.5;"/><ellipse cx="424.5" cy="1293.375" fill="none" rx="11" ry="11" style="stroke:#222222;stroke-width:1.0;"/><ellipse cx="424.5" cy="1293.375" fill="#222222" rx="6" ry="6" style="stroke:#222222;stroke-width:1.0;"/><line style="stroke:#181818;stroke-width:1.0;" x1="424.5" x2="424.5" y1="151.3125" y2="171.3125"/><polygon fill="#181818" points="420.5,161.3125,424.5,171.3125,428.5,161.3125,424.5,165.3125" style="stroke:#181818;stroke-width:1.0;"/><line style="stroke:#181818;stroke-width:1.0;" x1="424.5" x2="424.5" y1="206.4063" y2="226.4063"/><polygon fill="#181818" points="420.5,216.4063,424.5,226.4063,428.5,216.4063,424.5,220.4063" style="stroke:#181818;stroke-width:1.0;"/><line style="stroke:#181818;stroke-width:1.0;" x1="424.5" x2="424.5" y1="68.6094" y2="116.2188"/><polygon fill="#181818" points="420.5,106.2188,424.5,116.2188,428.5,106.2188,424.5,110.2188" style="stroke:#181818;stroke-width:1.0;"/><line style="stroke:#181818;stroke-width:1.0;" x1="424.5" x2="424.5" y1="261.5" y2="321.1094"/><polygon fill="#181818" points="420.5,311.1094,424.5,321.1094,428.5,311.1094,424.5,315.1094" style="stroke:#181818;stroke-width:1.0;"/><line style="stroke:#181818;stroke-width:1.0;" x1="249.5" x2="249.5" y1="589.6094" y2="616.6094"/><polygon fill="#181818" points="245.5,606.6094,249.5,616.6094,253.5,606.6094,249.5,610.6094" style="stroke:#181818;stroke-width:1.0;"/><line style="stroke:#181818;stroke-width:1.0;" x1="249.5" x2="249.5" y1="651.7031" y2="671.7031"/><polygon fill="#181818" points="245.5,661.7031,249.5,671.7031,253.5,661.7031,249.5,665.7031" style="stroke:#181818;stroke-width:1.0;"/><line style="stroke:#181818;stroke-width:1.0;" x1="249.5" x2="249.5" y1="721.8906" y2="741.8906"/><polygon fill="#181818" points="245.5,731.8906,249.5,741.8906,253.5,731.8906,249.5,735.8906" style="stroke:#181818;stroke-width:1.0;"/><line style="stroke:#181818;stroke-width:1.0;" x1="249.5" x2="249.5" y1="776.9844" y2="796.9844"/><polygon fill="#181818" points="245.5,786.9844,249.5,796.9844,253.5,786.9844,249.5,790.9844" style="stroke:#181818;stroke-width:1.0;"/><line style="stroke:#181818;stroke-width:1.0;" x1="249.5" x2="249.5" y1="494.9063" y2="554.5156"/><polygon fill="#181818" points="245.5,544.5156,249.5,554.5156,253.5,544.5156,249.5,548.5156" style="stroke:#181818;stroke-width:1.0;"/><line style="stroke:#181818;stroke-width:1.0;" x1="249.5" x2="249.5" y1="832.0781" y2="891.6875"/><polygon fill="#181818" points="245.5,881.6875,249.5,891.6875,253.5,881.6875,249.5,885.6875" style="stroke:#181818;stroke-width:1.0;"/><line style="stroke:#181818;stroke-width:1.0;" x1="129" x2="129" y1="1080.5781" y2="1140.1875"/><polygon fill="#181818" points="125,1130.1875,129,1140.1875,133,1130.1875,129,1134.1875" style="stroke:#181818;stroke-width:1.0;"/><line style="stroke:#181818;stroke-width:1.0;" x1="139" x2="129" y1="970.7813" y2="970.7813"/><line style="stroke:#181818;stroke-width:1.0;" x1="129" x2="129" y1="970.7813" y2="1030.3906"/><polygon fill="#181818" points="125,1020.3906,129,1030.3906,133,1020.3906,129,1024.3906" style="stroke:#181818;stroke-width:1.0;"/><line style="stroke:#181818;stroke-width:1.0;" x1="360" x2="370" y1="970.7813" y2="970.7813"/><line style="stroke:#181818;stroke-width:1.0;" x1="370" x2="370" y1="970.7813" y2="1030.3906"/><polygon fill="#181818" points="366,1020.3906,370,1030.3906,374,1020.3906,370,1024.3906" style="stroke:#181818;stroke-width:1.0;"/><line style="stroke:#181818;stroke-width:1.0;" x1="129" x2="129" y1="1190.375" y2="1220.375"/><line style="stroke:#181818;stroke-width:1.0;" x1="129" x2="237.5" y1="1220.375" y2="1220.375"/><polygon fill="#181818" points="227.5,1216.375,237.5,1220.375,227.5,1224.375,231.5,1220.375" style="stroke:#181818;stroke-width:1.0;"/><line style="stroke:#181818;stroke-width:1.0;" x1="370" x2="370" y1="1080.5781" y2="1220.375"/><line style="stroke:#181818;stroke-width:1.0;" x1="370" x2="261.5" y1="1220.375" y2="1220.375"/><polygon fill="#181818" points="271.5,1216.375,261.5,1220.375,271.5,1224.375,267.5,1220.375" style="stroke:#181818;stroke-width:1.0;"/><line style="stroke:#181818;stroke-width:1.0;" x1="249.5" x2="249.5" y1="926.7813" y2="958.7813"/><polygon fill="#181818" points="245.5,948.7813,249.5,958.7813,253.5,948.7813,249.5,952.7813" style="stroke:#181818;stroke-width:1.0;"/><line style="stroke:#181818;stroke-width:1.0;" x1="599.5" x2="599.5" y1="494.9063" y2="554.5156"/><polygon fill="#181818" points="595.5,544.5156,599.5,554.5156,603.5,544.5156,599.5,548.5156" style="stroke:#181818;stroke-width:1.0;"/><line style="stroke:#181818;stroke-width:1.0;" x1="384" x2="249.5" y1="400.2031" y2="400.2031"/><line style="stroke:#181818;stroke-width:1.0;" x1="249.5" x2="249.5" y1="400.2031" y2="459.8125"/><polygon fill="#181818" points="245.5,449.8125,249.5,459.8125,253.5,449.8125,249.5,453.8125" style="stroke:#181818;stroke-width:1.0;"/><line style="stroke:#181818;stroke-width:1.0;" x1="465" x2="599.5" y1="400.2031" y2="400.2031"/><line style="stroke:#181818;stroke-width:1.0;" x1="599.5" x2="599.5" y1="400.2031" y2="459.8125"/><polygon fill="#181818" points="595.5,449.8125,599.5,459.8125,603.5,449.8125,599.5,453.8125" style="stroke:#181818;stroke-width:1.0;"/><line style="stroke:#181818;stroke-width:1.0;" x1="249.5" x2="249.5" y1="1232.375" y2="1250.375"/><line style="stroke:#181818;stroke-width:1.0;" x1="249.5" x2="412.5" y1="1250.375" y2="1250.375"/><polygon fill="#181818" points="402.5,1246.375,412.5,1250.375,402.5,1254.375,406.5,1250.375" style="stroke:#181818;stroke-width:1.0;"/><line style="stroke:#181818;stroke-width:1.0;" x1="599.5" x2="599.5" y1="589.6094" y2="1250.375"/><line style="stroke:#181818;stroke-width:1.0;" x1="599.5" x2="436.5" y1="1250.375" y2="1250.375"/><polygon fill="#181818" points="446.5,1246.375,436.5,1250.375,446.5,1254.375,442.5,1250.375" style="stroke:#181818;stroke-width:1.0;"/><line style="stroke:#181818;stroke-width:1.0;" x1="424.5" x2="424.5" y1="356.2031" y2="388.2031"/><polygon fill="#181818" points="420.5,378.2031,424.5,388.2031,428.5,378.2031,424.5,382.2031" style="stroke:#181818;stroke-width:1.0;"/><line style="stroke:#181818;stroke-width:1.0;" x1="424.5" x2="424.5" y1="1262.375" y2="1282.375"/><polygon fill="#181818" points="420.5,1272.375,424.5,1282.375,428.5,1272.375,424.5,1276.375" style="stroke:#181818;stroke-width:1.0;"/><!--SRC=[bLJBJjn04BpFLxGuBHBv0JYWI9mYuB9SSYp7lNRlF6pDZ5cXQF-Tzcin-o311p_axkggwhApPCVqyq-MLyblz22e8ZpzeBMa7UY9GmMRED43KbqqYAKnAIDcOrezIvOcqDLGV4L_3UbnExPwzaLdGJKSF0Avff9mTrI1r5chBxl4CS0pbVhG8gLT4yjFnTQ9fTpued7qE4BjZpbazWSIJ-mvYarGo8nnEgKUQcYK3Qq667g5a_B-cdBDWLQ_SMq6W4lgblnxzcHxqfCt8-FzEOG5jucVwct5zUfdYmuUZ-xVdQzEQ863bhCbKK9baVJEz-9RTjWY8joOt6GusgBSmTqCRbkkKOg-l81Le1Az_1fQw56ZiCORlYv-5WUX5uu5OlU5AUTjPISrCadOD54zbWl-zYiSErIjBd8Et4UVGzXs6U5qk_-YyZcbeeGEsHkuhTbtqFILcBmazRcZqEl-i6P_QTXH66ORAzrHRUVTzicQac4MxW-3diyEOfUOLYzImdvVP-QCbig5ssOODUlt73frLCBfs53AnfZJwV__1RISvby4LQZWlXiQgylN3tdXsVA7epWJoPIRrhm3]--></g></svg>