<?xml version="1.0" encoding="us-ascii" standalone="no"?><svg xmlns="http://www.w3.org/2000/svg" xmlns:xlink="http://www.w3.org/1999/xlink" contentStyleType="text/css" height="1261px" preserveAspectRatio="none" style="width:803px;height:1261px;background:#FFFFFF;" version="1.1" viewBox="0 0 803 1261" width="803px" zoomAndPan="magnify"><defs/><g><text fill="#000000" font-family="sans-serif" font-size="14" font-weight="bold" lengthAdjust="spacing" textLength="302" x="249" y="34.5332">Activity Diagram - Siswa Melihat Jadwal Les</text><ellipse cx="466.75" cy="58.6094" fill="#222222" rx="10" ry="10" style="stroke:#222222;stroke-width:1.0;"/><rect fill="none" height="194.8906" style="stroke:#000000;stroke-width:1.5;" width="295" x="319.25" y="78.6094"/><path d="M365.25,78.6094 L365.25,89.2188 L355.25,99.2188 L319.25,99.2188 " fill="none" style="stroke:#000000;stroke-width:1.5;"/><text fill="#000000" font-family="sans-serif" font-size="14" lengthAdjust="spacing" textLength="36" x="322.25" y="94.1426">Siswa</text><rect fill="#F1F1F1" height="35.0938" rx="12.5" ry="12.5" style="stroke:#181818;stroke-width:0.5;" width="195" x="369.25" y="116.2188"/><text fill="#000000" font-family="sans-serif" font-size="12" lengthAdjust="spacing" textLength="175" x="379.25" y="138.6758">Siswa membuka halaman login</text><rect fill="#F1F1F1" height="35.0938" rx="12.5" ry="12.5" style="stroke:#181818;stroke-width:0.5;" width="275" x="329.25" y="171.3125"/><text fill="#000000" font-family="sans-serif" font-size="12" lengthAdjust="spacing" textLength="255" x="339.25" y="193.7695">Siswa memasukkan username dan password</text><rect fill="#F1F1F1" height="35.0938" rx="12.5" ry="12.5" style="stroke:#181818;stroke-width:0.5;" width="150" x="391.75" y="226.4063"/><text fill="#000000" font-family="sans-serif" font-size="12" lengthAdjust="spacing" textLength="130" x="401.75" y="248.8633">Siswa klik tombol Login</text><rect fill="none" height="84.7031" style="stroke:#000000;stroke-width:1.5;" width="194" x="369.75" y="283.5"/><path d="M421.75,283.5 L421.75,294.1094 L411.75,304.1094 L369.75,304.1094 " fill="none" style="stroke:#000000;stroke-width:1.5;"/><text fill="#000000" font-family="sans-serif" font-size="14" lengthAdjust="spacing" textLength="42" x="372.75" y="299.0332">Sistem</text><rect fill="#F1F1F1" height="35.0938" rx="12.5" ry="12.5" style="stroke:#181818;stroke-width:0.5;" width="174" x="379.75" y="321.1094"/><text fill="#000000" font-family="sans-serif" font-size="12" lengthAdjust="spacing" textLength="154" x="389.75" y="343.5664">Memeriksa data login siswa</text><polygon fill="#F1F1F1" points="438.25,388.2031,495.25,388.2031,507.25,400.2031,495.25,412.2031,438.25,412.2031,426.25,400.2031,438.25,388.2031" style="stroke:#181818;stroke-width:0.5;"/><text fill="#000000" font-family="sans-serif" font-size="11" lengthAdjust="spacing" textLength="57" x="438.25" y="404.7041">Login valid?</text><text fill="#000000" font-family="sans-serif" font-size="11" lengthAdjust="spacing" textLength="14" x="412.25" y="397.7861">Ya</text><text fill="#000000" font-family="sans-serif" font-size="11" lengthAdjust="spacing" textLength="25" x="507.25" y="397.7861">Tidak</text><rect fill="none" height="154.7969" style="stroke:#000000;stroke-width:1.5;" width="223" x="139.5" y="422.2031"/><path d="M185.5,422.2031 L185.5,432.8125 L175.5,442.8125 L139.5,442.8125 " fill="none" style="stroke:#000000;stroke-width:1.5;"/><text fill="#000000" font-family="sans-serif" font-size="14" lengthAdjust="spacing" textLength="36" x="142.5" y="437.7363">Siswa</text><rect fill="#F1F1F1" height="35.0938" rx="12.5" ry="12.5" style="stroke:#181818;stroke-width:0.5;" width="174" x="164" y="459.8125"/><text fill="#000000" font-family="sans-serif" font-size="12" lengthAdjust="spacing" textLength="154" x="174" y="482.2695">Siswa masuk ke dashboard</text><rect fill="#F1F1F1" height="35.0938" rx="12.5" ry="12.5" style="stroke:#181818;stroke-width:0.5;" width="203" x="149.5" y="521.9063"/><text fill="#000000" font-family="sans-serif" font-size="12" lengthAdjust="spacing" textLength="183" x="159.5" y="544.3633">Siswa memilih menu Jadwal Les</text><rect fill="none" height="194.8906" style="stroke:#000000;stroke-width:1.5;" width="262" x="120" y="612"/><path d="M172,612 L172,622.6094 L162,632.6094 L120,632.6094 " fill="none" style="stroke:#000000;stroke-width:1.5;"/><text fill="#000000" font-family="sans-serif" font-size="14" lengthAdjust="spacing" textLength="42" x="123" y="627.5332">Sistem</text><rect fill="#F1F1F1" height="35.0938" rx="12.5" ry="12.5" style="stroke:#181818;stroke-width:0.5;" width="205" x="148.5" y="649.6094"/><text fill="#000000" font-family="sans-serif" font-size="12" lengthAdjust="spacing" textLength="185" x="158.5" y="672.0664">Mengambil jadwal les milik siswa</text><rect fill="#F1F1F1" height="35.0938" rx="12.5" ry="12.5" style="stroke:#181818;stroke-width:0.5;" width="242" x="130" y="704.7031"/><text fill="#000000" font-family="sans-serif" font-size="12" lengthAdjust="spacing" textLength="222" x="140" y="727.1602">Menampilkan halaman Jadwal Les Saya</text><rect fill="#F1F1F1" height="35.0938" rx="12.5" ry="12.5" style="stroke:#181818;stroke-width:0.5;" width="159" x="171.5" y="759.7969"/><text fill="#000000" font-family="sans-serif" font-size="12" lengthAdjust="spacing" textLength="139" x="181.5" y="782.2539">Menampilkan total jadwal</text><polygon fill="#F1F1F1" points="201,826.8906,301,826.8906,313,838.8906,301,850.8906,201,850.8906,189,838.8906,201,826.8906" style="stroke:#181818;stroke-width:0.5;"/><text fill="#000000" font-family="sans-serif" font-size="11" lengthAdjust="spacing" textLength="100" x="201" y="843.3916">Jadwal les tersedia?</text><text fill="#000000" font-family="sans-serif" font-size="11" lengthAdjust="spacing" textLength="14" x="175" y="836.4736">Ya</text><text fill="#000000" font-family="sans-serif" font-size="11" lengthAdjust="spacing" textLength="25" x="313" y="836.4736">Tidak</text><rect fill="none" height="169.8906" style="stroke:#000000;stroke-width:1.5;" width="204" x="11" y="860.8906"/><path d="M63,860.8906 L63,871.5 L53,881.5 L11,881.5 " fill="none" style="stroke:#000000;stroke-width:1.5;"/><text fill="#000000" font-family="sans-serif" font-size="14" lengthAdjust="spacing" textLength="42" x="14" y="876.4238">Sistem</text><rect fill="#F1F1F1" height="35.0938" rx="12.5" ry="12.5" style="stroke:#181818;stroke-width:0.5;" width="183" x="21.5" y="898.5"/><text fill="#000000" font-family="sans-serif" font-size="12" lengthAdjust="spacing" textLength="163" x="31.5" y="920.957">Menampilkan tabel jadwal les</text><rect fill="#F1F1F1" height="50.1875" rx="12.5" ry="12.5" style="stroke:#181818;stroke-width:0.5;" width="184" x="21" y="960.5938"/><text fill="#000000" font-family="sans-serif" font-size="12" lengthAdjust="spacing" textLength="159" x="31" y="983.0508">Menampilkan hari, jam, guru,</text><text fill="#000000" font-family="sans-serif" font-size="12" lengthAdjust="spacing" textLength="164" x="31" y="998.1445">mapel siswa, dan mapel guru</text><rect fill="none" height="84.7031" style="stroke:#000000;stroke-width:1.5;" width="177" x="24.5" y="1063.2969"/><path d="M70.5,1063.2969 L70.5,1073.9063 L60.5,1083.9063 L24.5,1083.9063 " fill="none" style="stroke:#000000;stroke-width:1.5;"/><text fill="#000000" font-family="sans-serif" font-size="14" lengthAdjust="spacing" textLength="36" x="27.5" y="1078.8301">Siswa</text><rect fill="#F1F1F1" height="35.0938" rx="12.5" ry="12.5" style="stroke:#181818;stroke-width:0.5;" width="157" x="34.5" y="1100.9063"/><text fill="#000000" font-family="sans-serif" font-size="12" lengthAdjust="spacing" textLength="137" x="44.5" y="1123.3633">Siswa melihat jadwal les</text><rect fill="none" height="84.7031" style="stroke:#000000;stroke-width:1.5;" width="273" x="252.5" y="860.8906"/><path d="M304.5,860.8906 L304.5,871.5 L294.5,881.5 L252.5,881.5 " fill="none" style="stroke:#000000;stroke-width:1.5;"/><text fill="#000000" font-family="sans-serif" font-size="14" lengthAdjust="spacing" textLength="42" x="255.5" y="876.4238">Sistem</text><rect fill="#F1F1F1" height="35.0938" rx="12.5" ry="12.5" style="stroke:#181818;stroke-width:0.5;" width="253" x="262.5" y="898.5"/><text fill="#000000" font-family="sans-serif" font-size="12" lengthAdjust="spacing" textLength="233" x="272.5" y="920.957">Menampilkan pesan belum ada jadwal les</text><rect fill="none" height="90.2188" style="stroke:#000000;stroke-width:1.5;" width="308" x="235" y="980.5938"/><path d="M281,980.5938 L281,991.2031 L271,1001.2031 L235,1001.2031 " fill="none" style="stroke:#000000;stroke-width:1.5;"/><text fill="#000000" font-family="sans-serif" font-size="14" lengthAdjust="spacing" textLength="36" x="238" y="996.127">Siswa</text><rect fill="#F1F1F1" height="35.0938" rx="12.5" ry="12.5" style="stroke:#181818;stroke-width:0.5;" width="288" x="245" y="1018.2031"/><text fill="#000000" font-family="sans-serif" font-size="12" lengthAdjust="spacing" textLength="268" x="255" y="1040.6602">Siswa mengetahui bahwa jadwal belum tersedia</text><polygon fill="#F1F1F1" points="251,1154,263,1166,251,1178,239,1166,251,1154" style="stroke:#181818;stroke-width:0.5;"/><rect fill="none" height="84.7031" style="stroke:#000000;stroke-width:1.5;" width="216" x="574.5" y="422.2031"/><path d="M626.5,422.2031 L626.5,432.8125 L616.5,442.8125 L574.5,442.8125 " fill="none" style="stroke:#000000;stroke-width:1.5;"/><text fill="#000000" font-family="sans-serif" font-size="14" lengthAdjust="spacing" textLength="42" x="577.5" y="437.7363">Sistem</text><rect fill="#F1F1F1" height="35.0938" rx="12.5" ry="12.5" style="stroke:#181818;stroke-width:0.5;" width="196" x="584.5" y="459.8125"/><text fill="#000000" font-family="sans-serif" font-size="12" lengthAdjust="spacing" textLength="176" x="594.5" y="482.2695">Menampilkan pesan login gagal</text><rect fill="none" height="92.7031" style="stroke:#000000;stroke-width:1.5;" width="219" x="573" y="541.9063"/><path d="M619,541.9063 L619,552.5156 L609,562.5156 L573,562.5156 " fill="none" style="stroke:#000000;stroke-width:1.5;"/><text fill="#000000" font-family="sans-serif" font-size="14" lengthAdjust="spacing" textLength="36" x="576" y="557.4395">Siswa</text><rect fill="#F1F1F1" height="35.0938" rx="12.5" ry="12.5" style="stroke:#181818;stroke-width:0.5;" width="199" x="583" y="579.5156"/><text fill="#000000" font-family="sans-serif" font-size="12" lengthAdjust="spacing" textLength="179" x="593" y="601.9727">Siswa kembali ke halaman login</text><polygon fill="#F1F1F1" points="466.75,1184,478.75,1196,466.75,1208,454.75,1196,466.75,1184" style="stroke:#181818;stroke-width:0.5;"/><ellipse cx="466.75" cy="1239" fill="none" rx="11" ry="11" style="stroke:#222222;stroke-width:1.0;"/><ellipse cx="466.75" cy="1239" fill="#222222" rx="6" ry="6" style="stroke:#222222;stroke-width:1.0;"/><line style="stroke:#181818;stroke-width:1.0;" x1="466.75" x2="466.75" y1="151.3125" y2="171.3125"/><polygon fill="#181818" points="462.75,161.3125,466.75,171.3125,470.75,161.3125,466.75,165.3125" style="stroke:#181818;stroke-width:1.0;"/><line style="stroke:#181818;stroke-width:1.0;" x1="466.75" x2="466.75" y1="206.4063" y2="226.4063"/><polygon fill="#181818" points="462.75,216.4063,466.75,226.4063,470.75,216.4063,466.75,220.4063" style="stroke:#181818;stroke-width:1.0;"/><line style="stroke:#181818;stroke-width:1.0;" x1="466.75" x2="466.75" y1="68.6094" y2="116.2188"/><polygon fill="#181818" points="462.75,106.2188,466.75,116.2188,470.75,106.2188,466.75,110.2188" style="stroke:#181818;stroke-width:1.0;"/><line style="stroke:#181818;stroke-width:1.0;" x1="466.75" x2="466.75" y1="261.5" y2="321.1094"/><polygon fill="#181818" points="462.75,311.1094,466.75,321.1094,470.75,311.1094,466.75,315.1094" style="stroke:#181818;stroke-width:1.0;"/><line style="stroke:#181818;stroke-width:1.0;" x1="251" x2="251" y1="494.9063" y2="521.9063"/><polygon fill="#181818" points="247,511.9063,251,521.9063,255,511.9063,251,515.9063" style="stroke:#181818;stroke-width:1.0;"/><line style="stroke:#181818;stroke-width:1.0;" x1="251" x2="251" y1="684.7031" y2="704.7031"/><polygon fill="#181818" points="247,694.7031,251,704.7031,255,694.7031,251,698.7031" style="stroke:#181818;stroke-width:1.0;"/><line style="stroke:#181818;stroke-width:1.0;" x1="251" x2="251" y1="739.7969" y2="759.7969"/><polygon fill="#181818" points="247,749.7969,251,759.7969,255,749.7969,251,753.7969" style="stroke:#181818;stroke-width:1.0;"/><line style="stroke:#181818;stroke-width:1.0;" x1="251" x2="251" y1="557" y2="649.6094"/><polygon fill="#181818" points="247,639.6094,251,649.6094,255,639.6094,251,643.6094" style="stroke:#181818;stroke-width:1.0;"/><line style="stroke:#181818;stroke-width:1.0;" x1="113" x2="113" y1="933.5938" y2="960.5938"/><polygon fill="#181818" points="109,950.5938,113,960.5938,117,950.5938,113,954.5938" style="stroke:#181818;stroke-width:1.0;"/><line style="stroke:#181818;stroke-width:1.0;" x1="113" x2="113" y1="1010.7813" y2="1100.9063"/><polygon fill="#181818" points="109,1090.9063,113,1100.9063,117,1090.9063,113,1094.9063" style="stroke:#181818;stroke-width:1.0;"/><line style="stroke:#181818;stroke-width:1.0;" x1="389" x2="389" y1="933.5938" y2="1018.2031"/><polygon fill="#181818" points="385,1008.2031,389,1018.2031,393,1008.2031,389,1012.2031" style="stroke:#181818;stroke-width:1.0;"/><line style="stroke:#181818;stroke-width:1.0;" x1="189" x2="113" y1="838.8906" y2="838.8906"/><line style="stroke:#181818;stroke-width:1.0;" x1="113" x2="113" y1="838.8906" y2="898.5"/><polygon fill="#181818" points="109,888.5,113,898.5,117,888.5,113,892.5" style="stroke:#181818;stroke-width:1.0;"/><line style="stroke:#181818;stroke-width:1.0;" x1="313" x2="389" y1="838.8906" y2="838.8906"/><line style="stroke:#181818;stroke-width:1.0;" x1="389" x2="389" y1="838.8906" y2="898.5"/><polygon fill="#181818" points="385,888.5,389,898.5,393,888.5,389,892.5" style="stroke:#181818;stroke-width:1.0;"/><line style="stroke:#181818;stroke-width:1.0;" x1="113" x2="113" y1="1136" y2="1166"/><line style="stroke:#181818;stroke-width:1.0;" x1="113" x2="239" y1="1166" y2="1166"/><polygon fill="#181818" points="229,1162,239,1166,229,1170,233,1166" style="stroke:#181818;stroke-width:1.0;"/><line style="stroke:#181818;stroke-width:1.0;" x1="389" x2="389" y1="1053.2969" y2="1166"/><line style="stroke:#181818;stroke-width:1.0;" x1="389" x2="263" y1="1166" y2="1166"/><polygon fill="#181818" points="273,1162,263,1166,273,1170,269,1166" style="stroke:#181818;stroke-width:1.0;"/><line style="stroke:#181818;stroke-width:1.0;" x1="251" x2="251" y1="794.8906" y2="826.8906"/><polygon fill="#181818" points="247,816.8906,251,826.8906,255,816.8906,251,820.8906" style="stroke:#181818;stroke-width:1.0;"/><line style="stroke:#181818;stroke-width:1.0;" x1="682.5" x2="682.5" y1="494.9063" y2="579.5156"/><polygon fill="#181818" points="678.5,569.5156,682.5,579.5156,686.5,569.5156,682.5,573.5156" style="stroke:#181818;stroke-width:1.0;"/><line style="stroke:#181818;stroke-width:1.0;" x1="426.25" x2="251" y1="400.2031" y2="400.2031"/><line style="stroke:#181818;stroke-width:1.0;" x1="251" x2="251" y1="400.2031" y2="459.8125"/><polygon fill="#181818" points="247,449.8125,251,459.8125,255,449.8125,251,453.8125" style="stroke:#181818;stroke-width:1.0;"/><line style="stroke:#181818;stroke-width:1.0;" x1="507.25" x2="682.5" y1="400.2031" y2="400.2031"/><line style="stroke:#181818;stroke-width:1.0;" x1="682.5" x2="682.5" y1="400.2031" y2="459.8125"/><polygon fill="#181818" points="678.5,449.8125,682.5,459.8125,686.5,449.8125,682.5,453.8125" style="stroke:#181818;stroke-width:1.0;"/><line style="stroke:#181818;stroke-width:1.0;" x1="251" x2="251" y1="1178" y2="1196"/><line style="stroke:#181818;stroke-width:1.0;" x1="251" x2="454.75" y1="1196" y2="1196"/><polygon fill="#181818" points="444.75,1192,454.75,1196,444.75,1200,448.75,1196" style="stroke:#181818;stroke-width:1.0;"/><line style="stroke:#181818;stroke-width:1.0;" x1="682.5" x2="682.5" y1="614.6094" y2="1196"/><line style="stroke:#181818;stroke-width:1.0;" x1="682.5" x2="478.75" y1="1196" y2="1196"/><polygon fill="#181818" points="488.75,1192,478.75,1196,488.75,1200,484.75,1196" style="stroke:#181818;stroke-width:1.0;"/><line style="stroke:#181818;stroke-width:1.0;" x1="466.75" x2="466.75" y1="356.2031" y2="388.2031"/><polygon fill="#181818" points="462.75,378.2031,466.75,388.2031,470.75,378.2031,466.75,382.2031" style="stroke:#181818;stroke-width:1.0;"/><line style="stroke:#181818;stroke-width:1.0;" x1="466.75" x2="466.75" y1="1208" y2="1228"/><polygon fill="#181818" points="462.75,1218,466.75,1228,470.75,1218,466.75,1222" style="stroke:#181818;stroke-width:1.0;"/><!--SRC=[dLJ9Rjmm3BthAuYS9i3a1v93KA2de3bDBZq-nupDQh5XqHa4nVnxPMkSiMTf5Xzas2BVGf5IKSVqurdbLVIDVWgg3fvkQ2Dn2tfa9pMK7b1kuUWNHsEYebDZshIAIXFeQeozeh-6qdERCptxehUW6WuUWLnJIRWxYa3ihKsRVUGkm3ELwQD5ZDkcAnV1reabRNpH91KPQdUiGTc_YtXapvtOY0IfoEmK1wWnKLveDSBGAvoKzzUaDGTQ_SQr6G4kkPlh7zIJ7KJ7kcWmALvQb5J0z0xzh8OvRdUEQUPXxoDKy8Ku-fFJ7KSQGEtaPXuAtueR2ZfL_S196xnTYjP6CH4ij0rbUZZmAdUHIy5fkJuqSig9WkUcxYw7rkXadKBzcgg-wzV6eqsve__rs3Bvnx1vWDbTKhOypCLfvMO_9sgFnYuohPwaXFssyvPZMfFxtXDA_8_kI-93nOgw5ofGRzzXCyzqSgU6GYalnfpw-h0jZ_pa2QjG7RNG9mR9fgiYJU4mIcTkYuIp5ncrQSq_]--></g></svg>