<?xml version="1.0" encoding="us-ascii" standalone="no"?><svg xmlns="http://www.w3.org/2000/svg" xmlns:xlink="http://www.w3.org/1999/xlink" contentStyleType="text/css" height="1920px" preserveAspectRatio="none" style="width:1029px;height:1920px;background:#FFFFFF;" version="1.1" viewBox="0 0 1029 1920" width="1029px" zoomAndPan="magnify"><defs/><g><text fill="#000000" font-family="sans-serif" font-size="14" font-weight="bold" lengthAdjust="spacing" textLength="338" x="344" y="34.5332">Activity Diagram - Siswa Melihat Riwayat Absensi</text><ellipse cx="691.5625" cy="58.6094" fill="#222222" rx="10" ry="10" style="stroke:#222222;stroke-width:1.0;"/><rect fill="none" height="194.8906" style="stroke:#000000;stroke-width:1.5;" width="295" x="544.0625" y="78.6094"/><path d="M590.0625,78.6094 L590.0625,89.2188 L580.0625,99.2188 L544.0625,99.2188 " fill="none" style="stroke:#000000;stroke-width:1.5;"/><text fill="#000000" font-family="sans-serif" font-size="14" lengthAdjust="spacing" textLength="36" x="547.0625" y="94.1426">Siswa</text><rect fill="#F1F1F1" height="35.0938" rx="12.5" ry="12.5" style="stroke:#181818;stroke-width:0.5;" width="195" x="594.0625" y="116.2188"/><text fill="#000000" font-family="sans-serif" font-size="12" lengthAdjust="spacing" textLength="175" x="604.0625" y="138.6758">Siswa membuka halaman login</text><rect fill="#F1F1F1" height="35.0938" rx="12.5" ry="12.5" style="stroke:#181818;stroke-width:0.5;" width="275" x="554.0625" y="171.3125"/><text fill="#000000" font-family="sans-serif" font-size="12" lengthAdjust="spacing" textLength="255" x="564.0625" y="193.7695">Siswa memasukkan username dan password</text><rect fill="#F1F1F1" height="35.0938" rx="12.5" ry="12.5" style="stroke:#181818;stroke-width:0.5;" width="150" x="616.5625" y="226.4063"/><text fill="#000000" font-family="sans-serif" font-size="12" lengthAdjust="spacing" textLength="130" x="626.5625" y="248.8633">Siswa klik tombol Login</text><rect fill="none" height="84.7031" style="stroke:#000000;stroke-width:1.5;" width="194" x="594.5625" y="283.5"/><path d="M646.5625,283.5 L646.5625,294.1094 L636.5625,304.1094 L594.5625,304.1094 " fill="none" style="stroke:#000000;stroke-width:1.5;"/><text fill="#000000" font-family="sans-serif" font-size="14" lengthAdjust="spacing" textLength="42" x="597.5625" y="299.0332">Sistem</text><rect fill="#F1F1F1" height="35.0938" rx="12.5" ry="12.5" style="stroke:#181818;stroke-width:0.5;" width="174" x="604.5625" y="321.1094"/><text fill="#000000" font-family="sans-serif" font-size="12" lengthAdjust="spacing" textLength="154" x="614.5625" y="343.5664">Memeriksa data login siswa</text><polygon fill="#F1F1F1" points="663.0625,388.2031,720.0625,388.2031,732.0625,400.2031,720.0625,412.2031,663.0625,412.2031,651.0625,400.2031,663.0625,388.2031" style="stroke:#181818;stroke-width:0.5;"/><text fill="#000000" font-family="sans-serif" font-size="11" lengthAdjust="spacing" textLength="57" x="663.0625" y="404.7041">Login valid?</text><text fill="#000000" font-family="sans-serif" font-size="11" lengthAdjust="spacing" textLength="14" x="637.0625" y="397.7861">Ya</text><text fill="#000000" font-family="sans-serif" font-size="11" lengthAdjust="spacing" textLength="25" x="732.0625" y="397.7861">Tidak</text><rect fill="none" height="154.7969" style="stroke:#000000;stroke-width:1.5;" width="205" x="372.125" y="422.2031"/><path d="M418.125,422.2031 L418.125,432.8125 L408.125,442.8125 L372.125,442.8125 " fill="none" style="stroke:#000000;stroke-width:1.5;"/><text fill="#000000" font-family="sans-serif" font-size="14" lengthAdjust="spacing" textLength="36" x="375.125" y="437.7363">Siswa</text><rect fill="#F1F1F1" height="35.0938" rx="12.5" ry="12.5" style="stroke:#181818;stroke-width:0.5;" width="174" x="387.625" y="459.8125"/><text fill="#000000" font-family="sans-serif" font-size="12" lengthAdjust="spacing" textLength="154" x="397.625" y="482.2695">Siswa masuk ke dashboard</text><rect fill="#F1F1F1" height="35.0938" rx="12.5" ry="12.5" style="stroke:#181818;stroke-width:0.5;" width="185" x="382.125" y="521.9063"/><text fill="#000000" font-family="sans-serif" font-size="12" lengthAdjust="spacing" textLength="165" x="392.125" y="544.3633">Siswa memilih menu Absensi</text><rect fill="none" height="265.0781" style="stroke:#000000;stroke-width:1.5;" width="260" x="344.625" y="612"/><path d="M396.625,612 L396.625,622.6094 L386.625,632.6094 L344.625,632.6094 " fill="none" style="stroke:#000000;stroke-width:1.5;"/><text fill="#000000" font-family="sans-serif" font-size="14" lengthAdjust="spacing" textLength="42" x="347.625" y="627.5332">Sistem</text><rect fill="#F1F1F1" height="35.0938" rx="12.5" ry="12.5" style="stroke:#181818;stroke-width:0.5;" width="240" x="354.625" y="649.6094"/><text fill="#000000" font-family="sans-serif" font-size="12" lengthAdjust="spacing" textLength="220" x="364.625" y="672.0664">Menampilkan halaman Riwayat Absensi</text><rect fill="#F1F1F1" height="35.0938" rx="12.5" ry="12.5" style="stroke:#181818;stroke-width:0.5;" width="226" x="361.625" y="704.7031"/><text fill="#000000" font-family="sans-serif" font-size="12" lengthAdjust="spacing" textLength="206" x="371.625" y="727.1602">Menampilkan ringkasan total absensi</text><rect fill="#F1F1F1" height="50.1875" rx="12.5" ry="12.5" style="stroke:#181818;stroke-width:0.5;" width="235" x="357.125" y="759.7969"/><text fill="#000000" font-family="sans-serif" font-size="12" lengthAdjust="spacing" textLength="215" x="367.125" y="782.2539">Menampilkan jumlah Hadir, Izin + Sakit,</text><text fill="#000000" font-family="sans-serif" font-size="12" lengthAdjust="spacing" textLength="48" x="367.125" y="797.3477">dan Alpa</text><rect fill="#F1F1F1" height="35.0938" rx="12.5" ry="12.5" style="stroke:#181818;stroke-width:0.5;" width="164" x="392.625" y="829.9844"/><text fill="#000000" font-family="sans-serif" font-size="12" lengthAdjust="spacing" textLength="144" x="402.625" y="852.4414">Menampilkan filter tanggal</text><polygon fill="#F1F1F1" points="419.125,897.0781,530.125,897.0781,542.125,909.0781,530.125,921.0781,419.125,921.0781,407.125,909.0781,419.125,897.0781" style="stroke:#181818;stroke-width:0.5;"/><text fill="#000000" font-family="sans-serif" font-size="11" lengthAdjust="spacing" textLength="111" x="419.125" y="913.5791">Data absensi tersedia?</text><text fill="#000000" font-family="sans-serif" font-size="11" lengthAdjust="spacing" textLength="14" x="393.125" y="906.6611">Ya</text><text fill="#000000" font-family="sans-serif" font-size="11" lengthAdjust="spacing" textLength="25" x="542.125" y="906.6611">Tidak</text><rect fill="none" height="161.8906" style="stroke:#000000;stroke-width:1.5;" width="233" x="219.875" y="931.0781"/><path d="M271.875,931.0781 L271.875,941.6875 L261.875,951.6875 L219.875,951.6875 " fill="none" style="stroke:#000000;stroke-width:1.5;"/><text fill="#000000" font-family="sans-serif" font-size="14" lengthAdjust="spacing" textLength="42" x="222.875" y="946.6113">Sistem</text><rect fill="#F1F1F1" height="35.0938" rx="12.5" ry="12.5" style="stroke:#181818;stroke-width:0.5;" width="213" x="229.875" y="968.6875"/><text fill="#000000" font-family="sans-serif" font-size="12" lengthAdjust="spacing" textLength="193" x="239.875" y="991.1445">Menampilkan tabel riwayat absensi</text><rect fill="#F1F1F1" height="50.1875" rx="12.5" ry="12.5" style="stroke:#181818;stroke-width:0.5;" width="195" x="238.875" y="1030.7813"/><text fill="#000000" font-family="sans-serif" font-size="12" lengthAdjust="spacing" textLength="175" x="248.875" y="1053.2383">Menampilkan tanggal, hari, jam,</text><text fill="#000000" font-family="sans-serif" font-size="12" lengthAdjust="spacing" textLength="133" x="248.875" y="1068.332">guru, status, dan alasan</text><rect fill="none" height="84.7031" style="stroke:#000000;stroke-width:1.5;" width="280" x="472.875" y="931.0781"/><path d="M524.875,931.0781 L524.875,941.6875 L514.875,951.6875 L472.875,951.6875 " fill="none" style="stroke:#000000;stroke-width:1.5;"/><text fill="#000000" font-family="sans-serif" font-size="14" lengthAdjust="spacing" textLength="42" x="475.875" y="946.6113">Sistem</text><rect fill="#F1F1F1" height="35.0938" rx="12.5" ry="12.5" style="stroke:#181818;stroke-width:0.5;" width="260" x="482.875" y="968.6875"/><text fill="#000000" font-family="sans-serif" font-size="12" lengthAdjust="spacing" textLength="240" x="492.875" y="991.1445">Menampilkan pesan tidak ada data absensi</text><polygon fill="#F1F1F1" points="474.625,1098.9688,486.625,1110.9688,474.625,1122.9688,462.625,1110.9688,474.625,1098.9688" style="stroke:#181818;stroke-width:0.5;"/><rect fill="none" height="84.7031" style="stroke:#000000;stroke-width:1.5;" width="207" x="371.125" y="1132.9688"/><path d="M417.125,1132.9688 L417.125,1143.5781 L407.125,1153.5781 L371.125,1153.5781 " fill="none" style="stroke:#000000;stroke-width:1.5;"/><text fill="#000000" font-family="sans-serif" font-size="14" lengthAdjust="spacing" textLength="36" x="374.125" y="1148.502">Siswa</text><rect fill="#F1F1F1" height="35.0938" rx="12.5" ry="12.5" style="stroke:#181818;stroke-width:0.5;" width="187" x="381.125" y="1170.5781"/><text fill="#000000" font-family="sans-serif" font-size="12" lengthAdjust="spacing" textLength="167" x="391.125" y="1193.0352">Siswa melihat riwayat absensi</text><polygon fill="#F1F1F1" points="401.625,1237.6719,547.625,1237.6719,559.625,1249.6719,547.625,1261.6719,401.625,1261.6719,389.625,1249.6719,401.625,1237.6719" style="stroke:#181818;stroke-width:0.5;"/><text fill="#000000" font-family="sans-serif" font-size="11" lengthAdjust="spacing" textLength="146" x="401.625" y="1254.1729">Siswa ingin memfilter tanggal?</text><text fill="#000000" font-family="sans-serif" font-size="11" lengthAdjust="spacing" textLength="14" x="375.625" y="1247.2549">Ya</text><text fill="#000000" font-family="sans-serif" font-size="11" lengthAdjust="spacing" textLength="25" x="559.625" y="1247.2549">Tidak</text><rect fill="none" height="201.8906" style="stroke:#000000;stroke-width:1.5;" width="211" x="171.25" y="1271.6719"/><path d="M217.25,1271.6719 L217.25,1282.2813 L207.25,1292.2813 L171.25,1292.2813 " fill="none" style="stroke:#000000;stroke-width:1.5;"/><text fill="#000000" font-family="sans-serif" font-size="14" lengthAdjust="spacing" textLength="36" x="174.25" y="1287.2051">Siswa</text><rect fill="#F1F1F1" height="35.0938" rx="12.5" ry="12.5" style="stroke:#181818;stroke-width:0.5;" width="170" x="191.75" y="1309.2813"/><text fill="#000000" font-family="sans-serif" font-size="12" lengthAdjust="spacing" textLength="150" x="201.75" y="1331.7383">Siswa mengisi tanggal dari</text><rect fill="#F1F1F1" height="35.0938" rx="12.5" ry="12.5" style="stroke:#181818;stroke-width:0.5;" width="191" x="181.25" y="1371.375"/><text fill="#000000" font-family="sans-serif" font-size="12" lengthAdjust="spacing" textLength="171" x="191.25" y="1393.832">Siswa mengisi tanggal sampai</text><rect fill="#F1F1F1" height="35.0938" rx="12.5" ry="12.5" style="stroke:#181818;stroke-width:0.5;" width="146" x="203.75" y="1426.4688"/><text fill="#000000" font-family="sans-serif" font-size="12" lengthAdjust="spacing" textLength="126" x="213.75" y="1448.9258">Siswa klik tombol Filter</text><rect fill="none" height="84.7031" style="stroke:#000000;stroke-width:1.5;" width="190" x="181.75" y="1483.5625"/><path d="M233.75,1483.5625 L233.75,1494.1719 L223.75,1504.1719 L181.75,1504.1719 " fill="none" style="stroke:#000000;stroke-width:1.5;"/><text fill="#000000" font-family="sans-serif" font-size="14" lengthAdjust="spacing" textLength="42" x="184.75" y="1499.0957">Sistem</text><rect fill="#F1F1F1" height="35.0938" rx="12.5" ry="12.5" style="stroke:#181818;stroke-width:0.5;" width="170" x="191.75" y="1521.1719"/><text fill="#000000" font-family="sans-serif" font-size="12" lengthAdjust="spacing" textLength="150" x="201.75" y="1543.6289">Memeriksa rentang tanggal</text><polygon fill="#F1F1F1" points="222.25,1588.2656,331.25,1588.2656,343.25,1600.2656,331.25,1612.2656,222.25,1612.2656,210.25,1600.2656,222.25,1588.2656" style="stroke:#181818;stroke-width:0.5;"/><text fill="#000000" font-family="sans-serif" font-size="11" lengthAdjust="spacing" textLength="109" x="222.25" y="1604.7666">Rentang tanggal valid?</text><text fill="#000000" font-family="sans-serif" font-size="11" lengthAdjust="spacing" textLength="14" x="196.25" y="1597.8486">Ya</text><text fill="#000000" font-family="sans-serif" font-size="11" lengthAdjust="spacing" textLength="25" x="343.25" y="1597.8486">Tidak</text><rect fill="none" height="154.8906" style="stroke:#000000;stroke-width:1.5;" width="254" x="11" y="1622.2656"/><path d="M63,1622.2656 L63,1632.875 L53,1642.875 L11,1642.875 " fill="none" style="stroke:#000000;stroke-width:1.5;"/><text fill="#000000" font-family="sans-serif" font-size="14" lengthAdjust="spacing" textLength="42" x="14" y="1637.7988">Sistem</text><rect fill="#F1F1F1" height="35.0938" rx="12.5" ry="12.5" style="stroke:#181818;stroke-width:0.5;" width="234" x="21" y="1659.875"/><text fill="#000000" font-family="sans-serif" font-size="12" lengthAdjust="spacing" textLength="214" x="31" y="1682.332">Menampilkan ulang ringkasan absensi</text><rect fill="#F1F1F1" height="50.1875" rx="12.5" ry="12.5" style="stroke:#181818;stroke-width:0.5;" width="183" x="46.5" y="1714.9688"/><text fill="#000000" font-family="sans-serif" font-size="12" lengthAdjust="spacing" textLength="163" x="56.5" y="1737.4258">Menampilkan riwayat absensi</text><text fill="#000000" font-family="sans-serif" font-size="12" lengthAdjust="spacing" textLength="108" x="56.5" y="1752.5195">sesuai filter tanggal</text><rect fill="none" height="154.8906" style="stroke:#000000;stroke-width:1.5;" width="261" x="285" y="1622.2656"/><path d="M337,1622.2656 L337,1632.875 L327,1642.875 L285,1642.875 " fill="none" style="stroke:#000000;stroke-width:1.5;"/><text fill="#000000" font-family="sans-serif" font-size="14" lengthAdjust="spacing" textLength="42" x="288" y="1637.7988">Sistem</text><rect fill="#F1F1F1" height="35.0938" rx="12.5" ry="12.5" style="stroke:#181818;stroke-width:0.5;" width="161" x="335" y="1659.875"/><text fill="#000000" font-family="sans-serif" font-size="12" lengthAdjust="spacing" textLength="141" x="345" y="1682.332">Menampilkan pesan error</text><rect fill="#F1F1F1" height="50.1875" rx="12.5" ry="12.5" style="stroke:#181818;stroke-width:0.5;" width="241" x="295" y="1714.9688"/><text fill="#000000" font-family="sans-serif" font-size="12" lengthAdjust="spacing" textLength="221" x="305" y="1737.4258">Menampilkan kembali halaman absensi</text><text fill="#000000" font-family="sans-serif" font-size="12" lengthAdjust="spacing" textLength="91" x="305" y="1752.5195">dan filter tanggal</text><polygon fill="#F1F1F1" points="276.75,1783.1563,288.75,1795.1563,276.75,1807.1563,264.75,1795.1563,276.75,1783.1563" style="stroke:#181818;stroke-width:0.5;"/><rect fill="none" height="84.7031" style="stroke:#000000;stroke-width:1.5;" width="193" x="576" y="1271.6719"/><path d="M622,1271.6719 L622,1282.2813 L612,1292.2813 L576,1292.2813 " fill="none" style="stroke:#000000;stroke-width:1.5;"/><text fill="#000000" font-family="sans-serif" font-size="14" lengthAdjust="spacing" textLength="36" x="579" y="1287.2051">Siswa</text><rect fill="#F1F1F1" height="35.0938" rx="12.5" ry="12.5" style="stroke:#181818;stroke-width:0.5;" width="173" x="586" y="1309.2813"/><text fill="#000000" font-family="sans-serif" font-size="12" lengthAdjust="spacing" textLength="153" x="596" y="1331.7383">Siswa tidak melakukan filter</text><polygon fill="#F1F1F1" points="474.625,1813.1563,486.625,1825.1563,474.625,1837.1563,462.625,1825.1563,474.625,1813.1563" style="stroke:#181818;stroke-width:0.5;"/><rect fill="none" height="84.7031" style="stroke:#000000;stroke-width:1.5;" width="216" x="800.5" y="422.2031"/><path d="M852.5,422.2031 L852.5,432.8125 L842.5,442.8125 L800.5,442.8125 " fill="none" style="stroke:#000000;stroke-width:1.5;"/><text fill="#000000" font-family="sans-serif" font-size="14" lengthAdjust="spacing" textLength="42" x="803.5" y="437.7363">Sistem</text><rect fill="#F1F1F1" height="35.0938" rx="12.5" ry="12.5" style="stroke:#181818;stroke-width:0.5;" width="196" x="810.5" y="459.8125"/><text fill="#000000" font-family="sans-serif" font-size="12" lengthAdjust="spacing" textLength="176" x="820.5" y="482.2695">Menampilkan pesan login gagal</text><rect fill="none" height="92.7031" style="stroke:#000000;stroke-width:1.5;" width="219" x="799" y="541.9063"/><path d="M845,541.9063 L845,552.5156 L835,562.5156 L799,562.5156 " fill="none" style="stroke:#000000;stroke-width:1.5;"/><text fill="#000000" font-family="sans-serif" font-size="14" lengthAdjust="spacing" textLength="36" x="802" y="557.4395">Siswa</text><rect fill="#F1F1F1" height="35.0938" rx="12.5" ry="12.5" style="stroke:#181818;stroke-width:0.5;" width="199" x="809" y="579.5156"/><text fill="#000000" font-family="sans-serif" font-size="12" lengthAdjust="spacing" textLength="179" x="819" y="601.9727">Siswa kembali ke halaman login</text><polygon fill="#F1F1F1" points="691.5625,1843.1563,703.5625,1855.1563,691.5625,1867.1563,679.5625,1855.1563,691.5625,1843.1563" style="stroke:#181818;stroke-width:0.5;"/><ellipse cx="691.5625" cy="1898.1563" fill="none" rx="11" ry="11" style="stroke:#222222;stroke-width:1.0;"/><ellipse cx="691.5625" cy="1898.1563" fill="#222222" rx="6" ry="6" style="stroke:#222222;stroke-width:1.0;"/><line style="stroke:#181818;stroke-width:1.0;" x1="691.5625" x2="691.5625" y1="151.3125" y2="171.3125"/><polygon fill="#181818" points="687.5625,161.3125,691.5625,171.3125,695.5625,161.3125,691.5625,165.3125" style="stroke:#181818;stroke-width:1.0;"/><line style="stroke:#181818;stroke-width:1.0;" x1="691.5625" x2="691.5625" y1="206.4063" y2="226.4063"/><polygon fill="#181818" points="687.5625,216.4063,691.5625,226.4063,695.5625,216.4063,691.5625,220.4063" style="stroke:#181818;stroke-width:1.0;"/><line style="stroke:#181818;stroke-width:1.0;" x1="691.5625" x2="691.5625" y1="68.6094" y2="116.2188"/><polygon fill="#181818" points="687.5625,106.2188,691.5625,116.2188,695.5625,106.2188,691.5625,110.2188" style="stroke:#181818;stroke-width:1.0;"/><line style="stroke:#181818;stroke-width:1.0;" x1="691.5625" x2="691.5625" y1="261.5" y2="321.1094"/><polygon fill="#181818" points="687.5625,311.1094,691.5625,321.1094,695.5625,311.1094,691.5625,315.1094" style="stroke:#181818;stroke-width:1.0;"/><line style="stroke:#181818;stroke-width:1.0;" x1="474.625" x2="474.625" y1="494.9063" y2="521.9063"/><polygon fill="#181818" points="470.625,511.9063,474.625,521.9063,478.625,511.9063,474.625,515.9063" style="stroke:#181818;stroke-width:1.0;"/><line style="stroke:#181818;stroke-width:1.0;" x1="474.625" x2="474.625" y1="684.7031" y2="704.7031"/><polygon fill="#181818" points="470.625,694.7031,474.625,704.7031,478.625,694.7031,474.625,698.7031" style="stroke:#181818;stroke-width:1.0;"/><line style="stroke:#181818;stroke-width:1.0;" x1="474.625" x2="474.625" y1="739.7969" y2="759.7969"/><polygon fill="#181818" points="470.625,749.7969,474.625,759.7969,478.625,749.7969,474.625,753.7969" style="stroke:#181818;stroke-width:1.0;"/><line style="stroke:#181818;stroke-width:1.0;" x1="474.625" x2="474.625" y1="809.9844" y2="829.9844"/><polygon fill="#181818" points="470.625,819.9844,474.625,829.9844,478.625,819.9844,474.625,823.9844" style="stroke:#181818;stroke-width:1.0;"/><line style="stroke:#181818;stroke-width:1.0;" x1="474.625" x2="474.625" y1="557" y2="649.6094"/><polygon fill="#181818" points="470.625,639.6094,474.625,649.6094,478.625,639.6094,474.625,643.6094" style="stroke:#181818;stroke-width:1.0;"/><line style="stroke:#181818;stroke-width:1.0;" x1="336.375" x2="336.375" y1="1003.7813" y2="1030.7813"/><polygon fill="#181818" points="332.375,1020.7813,336.375,1030.7813,340.375,1020.7813,336.375,1024.7813" style="stroke:#181818;stroke-width:1.0;"/><line style="stroke:#181818;stroke-width:1.0;" x1="407.125" x2="336.375" y1="909.0781" y2="909.0781"/><line style="stroke:#181818;stroke-width:1.0;" x1="336.375" x2="336.375" y1="909.0781" y2="968.6875"/><polygon fill="#181818" points="332.375,958.6875,336.375,968.6875,340.375,958.6875,336.375,962.6875" style="stroke:#181818;stroke-width:1.0;"/><line style="stroke:#181818;stroke-width:1.0;" x1="542.125" x2="612.875" y1="909.0781" y2="909.0781"/><line style="stroke:#181818;stroke-width:1.0;" x1="612.875" x2="612.875" y1="909.0781" y2="968.6875"/><polygon fill="#181818" points="608.875,958.6875,612.875,968.6875,616.875,958.6875,612.875,962.6875" style="stroke:#181818;stroke-width:1.0;"/><line style="stroke:#181818;stroke-width:1.0;" x1="336.375" x2="336.375" y1="1080.9688" y2="1110.9688"/><line style="stroke:#181818;stroke-width:1.0;" x1="336.375" x2="462.625" y1="1110.9688" y2="1110.9688"/><polygon fill="#181818" points="452.625,1106.9688,462.625,1110.9688,452.625,1114.9688,456.625,1110.9688" style="stroke:#181818;stroke-width:1.0;"/><line style="stroke:#181818;stroke-width:1.0;" x1="612.875" x2="612.875" y1="1003.7813" y2="1110.9688"/><line style="stroke:#181818;stroke-width:1.0;" x1="612.875" x2="486.625" y1="1110.9688" y2="1110.9688"/><polygon fill="#181818" points="496.625,1106.9688,486.625,1110.9688,496.625,1114.9688,492.625,1110.9688" style="stroke:#181818;stroke-width:1.0;"/><line style="stroke:#181818;stroke-width:1.0;" x1="474.625" x2="474.625" y1="865.0781" y2="897.0781"/><polygon fill="#181818" points="470.625,887.0781,474.625,897.0781,478.625,887.0781,474.625,891.0781" style="stroke:#181818;stroke-width:1.0;"/><line style="stroke:#181818;stroke-width:1.0;" x1="474.625" x2="474.625" y1="1122.9688" y2="1170.5781"/><polygon fill="#181818" points="470.625,1160.5781,474.625,1170.5781,478.625,1160.5781,474.625,1164.5781" style="stroke:#181818;stroke-width:1.0;"/><line style="stroke:#181818;stroke-width:1.0;" x1="276.75" x2="276.75" y1="1344.375" y2="1371.375"/><polygon fill="#181818" points="272.75,1361.375,276.75,1371.375,280.75,1361.375,276.75,1365.375" style="stroke:#181818;stroke-width:1.0;"/><line style="stroke:#181818;stroke-width:1.0;" x1="276.75" x2="276.75" y1="1406.4688" y2="1426.4688"/><polygon fill="#181818" points="272.75,1416.4688,276.75,1426.4688,280.75,1416.4688,276.75,1420.4688" style="stroke:#181818;stroke-width:1.0;"/><line style="stroke:#181818;stroke-width:1.0;" x1="276.75" x2="276.75" y1="1461.5625" y2="1521.1719"/><polygon fill="#181818" points="272.75,1511.1719,276.75,1521.1719,280.75,1511.1719,276.75,1515.1719" style="stroke:#181818;stroke-width:1.0;"/><line style="stroke:#181818;stroke-width:1.0;" x1="138" x2="138" y1="1694.9688" y2="1714.9688"/><polygon fill="#181818" points="134,1704.9688,138,1714.9688,142,1704.9688,138,1708.9688" style="stroke:#181818;stroke-width:1.0;"/><line style="stroke:#181818;stroke-width:1.0;" x1="415.5" x2="415.5" y1="1694.9688" y2="1714.9688"/><polygon fill="#181818" points="411.5,1704.9688,415.5,1714.9688,419.5,1704.9688,415.5,1708.9688" style="stroke:#181818;stroke-width:1.0;"/><line style="stroke:#181818;stroke-width:1.0;" x1="210.25" x2="138" y1="1600.2656" y2="1600.2656"/><line style="stroke:#181818;stroke-width:1.0;" x1="138" x2="138" y1="1600.2656" y2="1659.875"/><polygon fill="#181818" points="134,1649.875,138,1659.875,142,1649.875,138,1653.875" style="stroke:#181818;stroke-width:1.0;"/><line style="stroke:#181818;stroke-width:1.0;" x1="343.25" x2="415.5" y1="1600.2656" y2="1600.2656"/><line style="stroke:#181818;stroke-width:1.0;" x1="415.5" x2="415.5" y1="1600.2656" y2="1659.875"/><polygon fill="#181818" points="411.5,1649.875,415.5,1659.875,419.5,1649.875,415.5,1653.875" style="stroke:#181818;stroke-width:1.0;"/><line style="stroke:#181818;stroke-width:1.0;" x1="138" x2="138" y1="1765.1563" y2="1795.1563"/><line style="stroke:#181818;stroke-width:1.0;" x1="138" x2="264.75" y1="1795.1563" y2="1795.1563"/><polygon fill="#181818" points="254.75,1791.1563,264.75,1795.1563,254.75,1799.1563,258.75,1795.1563" style="stroke:#181818;stroke-width:1.0;"/><line style="stroke:#181818;stroke-width:1.0;" x1="415.5" x2="415.5" y1="1765.1563" y2="1795.1563"/><line style="stroke:#181818;stroke-width:1.0;" x1="415.5" x2="288.75" y1="1795.1563" y2="1795.1563"/><polygon fill="#181818" points="298.75,1791.1563,288.75,1795.1563,298.75,1799.1563,294.75,1795.1563" style="stroke:#181818;stroke-width:1.0;"/><line style="stroke:#181818;stroke-width:1.0;" x1="276.75" x2="276.75" y1="1556.2656" y2="1588.2656"/><polygon fill="#181818" points="272.75,1578.2656,276.75,1588.2656,280.75,1578.2656,276.75,1582.2656" style="stroke:#181818;stroke-width:1.0;"/><line style="stroke:#181818;stroke-width:1.0;" x1="389.625" x2="276.75" y1="1249.6719" y2="1249.6719"/><line style="stroke:#181818;stroke-width:1.0;" x1="276.75" x2="276.75" y1="1249.6719" y2="1309.2813"/><polygon fill="#181818" points="272.75,1299.2813,276.75,1309.2813,280.75,1299.2813,276.75,1303.2813" style="stroke:#181818;stroke-width:1.0;"/><line style="stroke:#181818;stroke-width:1.0;" x1="559.625" x2="672.5" y1="1249.6719" y2="1249.6719"/><line style="stroke:#181818;stroke-width:1.0;" x1="672.5" x2="672.5" y1="1249.6719" y2="1309.2813"/><polygon fill="#181818" points="668.5,1299.2813,672.5,1309.2813,676.5,1299.2813,672.5,1303.2813" style="stroke:#181818;stroke-width:1.0;"/><line style="stroke:#181818;stroke-width:1.0;" x1="276.75" x2="276.75" y1="1807.1563" y2="1825.1563"/><line style="stroke:#181818;stroke-width:1.0;" x1="276.75" x2="462.625" y1="1825.1563" y2="1825.1563"/><polygon fill="#181818" points="452.625,1821.1563,462.625,1825.1563,452.625,1829.1563,456.625,1825.1563" style="stroke:#181818;stroke-width:1.0;"/><line style="stroke:#181818;stroke-width:1.0;" x1="672.5" x2="672.5" y1="1344.375" y2="1825.1563"/><line style="stroke:#181818;stroke-width:1.0;" x1="672.5" x2="486.625" y1="1825.1563" y2="1825.1563"/><polygon fill="#181818" points="496.625,1821.1563,486.625,1825.1563,496.625,1829.1563,492.625,1825.1563" style="stroke:#181818;stroke-width:1.0;"/><line style="stroke:#181818;stroke-width:1.0;" x1="474.625" x2="474.625" y1="1205.6719" y2="1237.6719"/><polygon fill="#181818" points="470.625,1227.6719,474.625,1237.6719,478.625,1227.6719,474.625,1231.6719" style="stroke:#181818;stroke-width:1.0;"/><line style="stroke:#181818;stroke-width:1.0;" x1="908.5" x2="908.5" y1="494.9063" y2="579.5156"/><polygon fill="#181818" points="904.5,569.5156,908.5,579.5156,912.5,569.5156,908.5,573.5156" style="stroke:#181818;stroke-width:1.0;"/><line style="stroke:#181818;stroke-width:1.0;" x1="651.0625" x2="474.625" y1="400.2031" y2="400.2031"/><line style="stroke:#181818;stroke-width:1.0;" x1="474.625" x2="474.625" y1="400.2031" y2="459.8125"/><polygon fill="#181818" points="470.625,449.8125,474.625,459.8125,478.625,449.8125,474.625,453.8125" style="stroke:#181818;stroke-width:1.0;"/><line style="stroke:#181818;stroke-width:1.0;" x1="732.0625" x2="908.5" y1="400.2031" y2="400.2031"/><line style="stroke:#181818;stroke-width:1.0;" x1="908.5" x2="908.5" y1="400.2031" y2="459.8125"/><polygon fill="#181818" points="904.5,449.8125,908.5,459.8125,912.5,449.8125,908.5,453.8125" style="stroke:#181818;stroke-width:1.0;"/><line style="stroke:#181818;stroke-width:1.0;" x1="474.625" x2="474.625" y1="1837.1563" y2="1855.1563"/><line style="stroke:#181818;stroke-width:1.0;" x1="474.625" x2="679.5625" y1="1855.1563" y2="1855.1563"/><polygon fill="#181818" points="669.5625,1851.1563,679.5625,1855.1563,669.5625,1859.1563,673.5625,1855.1563" style="stroke:#181818;stroke-width:1.0;"/><line style="stroke:#181818;stroke-width:1.0;" x1="908.5" x2="908.5" y1="614.6094" y2="1855.1563"/><line style="stroke:#181818;stroke-width:1.0;" x1="908.5" x2="703.5625" y1="1855.1563" y2="1855.1563"/><polygon fill="#181818" points="713.5625,1851.1563,703.5625,1855.1563,713.5625,1859.1563,709.5625,1855.1563" style="stroke:#181818;stroke-width:1.0;"/><line style="stroke:#181818;stroke-width:1.0;" x1="691.5625" x2="691.5625" y1="356.2031" y2="388.2031"/><polygon fill="#181818" points="687.5625,378.2031,691.5625,388.2031,695.5625,378.2031,691.5625,382.2031" style="stroke:#181818;stroke-width:1.0;"/><line style="stroke:#181818;stroke-width:1.0;" x1="691.5625" x2="691.5625" y1="1867.1563" y2="1887.1563"/><polygon fill="#181818" points="687.5625,1877.1563,691.5625,1887.1563,695.5625,1877.1563,691.5625,1881.1563" style="stroke:#181818;stroke-width:1.0;"/><!--SRC=[dLNBRjj03BphAuYS75JzWUPG60YA5cWkIIyzKjLQPlOXOHynqYB_NgvMYYrfbGZnmP9Xxd0u778zUILW_yVJ4_bdk2LiB6hu30_aJWXtGj4HFTpJ2P_vkQ-SC8wAmdcqlYWw_YPFhO6h_i0L_2k0Fr_ISIrq5IJ24HLgDA3QXipDB09Ta9B_34vOWrf0pJywTExKsdeIB1L9yAskMWK_4zJBd8CN-fN4dT32adJ8a1vJTd0HgZz81zZrCF24Ykglr-2Fmi3kDruNFS1QTPVy8tkGaRGxLYsEZASb4gl8JnD60LFGIoxDHG534InAHofADEeuQyTDFjgIQIGwVlEjHmNuPlHZq0gFy1rhiYNy-CkoV887bEJB8dPahpfSENeWvOK5ZwPfK4rgYnhVHl67vC21JjI4IxNVbMAHrsCb59UPn5YKbudl2PQiewKI7b6NHHDiA87jx8ChU-knngpP6MQeH2WdOFUBQfGV9jo9lXiH0x0URBdWFIOqDHss6t6OrAmQ5yr8qUmCxYyxSzgwBKsPPfymOD3OuOJ5nTbvC_A1ZlN1VEZbn7_hgIvasjg5SHLOOMBYgLjdU56e-sdSsexOJ65XXg0Y_7b8i_xD3FMaluKJBY1bHp1JMDx47-EVp2oiRUqxd2LV0wpUw_eQkTShkoD7_3mCMmPnrQHfzdXOK8RpwbgRlMMgxRiwoPFkd0RdUt73H8-gyUMIkJyPPo3fVDiL_m40]--></g></svg>