<?xml version="1.0" encoding="us-ascii" standalone="no"?><svg xmlns="http://www.w3.org/2000/svg" xmlns:xlink="http://www.w3.org/1999/xlink" contentStyleType="text/css" height="1308px" preserveAspectRatio="none" style="width:782px;height:1308px;background:#FFFFFF;" version="1.1" viewBox="0 0 782 1308" width="782px" zoomAndPan="magnify"><defs/><g><text fill="#000000" font-family="sans-serif" font-size="14" font-weight="bold" lengthAdjust="spacing" textLength="291" x="244" y="34.5332">Activity Diagram - Siswa Melihat Nilai Saya</text><ellipse cx="465.375" cy="58.6094" fill="#222222" rx="10" ry="10" style="stroke:#222222;stroke-width:1.0;"/><rect fill="none" height="194.8906" style="stroke:#000000;stroke-width:1.5;" width="295" x="317.875" y="78.6094"/><path d="M363.875,78.6094 L363.875,89.2188 L353.875,99.2188 L317.875,99.2188 " fill="none" style="stroke:#000000;stroke-width:1.5;"/><text fill="#000000" font-family="sans-serif" font-size="14" lengthAdjust="spacing" textLength="36" x="320.875" y="94.1426">Siswa</text><rect fill="#F1F1F1" height="35.0938" rx="12.5" ry="12.5" style="stroke:#181818;stroke-width:0.5;" width="195" x="367.875" y="116.2188"/><text fill="#000000" font-family="sans-serif" font-size="12" lengthAdjust="spacing" textLength="175" x="377.875" y="138.6758">Siswa membuka halaman login</text><rect fill="#F1F1F1" height="35.0938" rx="12.5" ry="12.5" style="stroke:#181818;stroke-width:0.5;" width="275" x="327.875" y="171.3125"/><text fill="#000000" font-family="sans-serif" font-size="12" lengthAdjust="spacing" textLength="255" x="337.875" y="193.7695">Siswa memasukkan username dan password</text><rect fill="#F1F1F1" height="35.0938" rx="12.5" ry="12.5" style="stroke:#181818;stroke-width:0.5;" width="150" x="390.375" y="226.4063"/><text fill="#000000" font-family="sans-serif" font-size="12" lengthAdjust="spacing" textLength="130" x="400.375" y="248.8633">Siswa klik tombol Login</text><rect fill="none" height="84.7031" style="stroke:#000000;stroke-width:1.5;" width="194" x="368.375" y="283.5"/><path d="M420.375,283.5 L420.375,294.1094 L410.375,304.1094 L368.375,304.1094 " fill="none" style="stroke:#000000;stroke-width:1.5;"/><text fill="#000000" font-family="sans-serif" font-size="14" lengthAdjust="spacing" textLength="42" x="371.375" y="299.0332">Sistem</text><rect fill="#F1F1F1" height="35.0938" rx="12.5" ry="12.5" style="stroke:#181818;stroke-width:0.5;" width="174" x="378.375" y="321.1094"/><text fill="#000000" font-family="sans-serif" font-size="12" lengthAdjust="spacing" textLength="154" x="388.375" y="343.5664">Memeriksa data login siswa</text><polygon fill="#F1F1F1" points="436.875,388.2031,493.875,388.2031,505.875,400.2031,493.875,412.2031,436.875,412.2031,424.875,400.2031,436.875,388.2031" style="stroke:#181818;stroke-width:0.5;"/><text fill="#000000" font-family="sans-serif" font-size="11" lengthAdjust="spacing" textLength="57" x="436.875" y="404.7041">Login valid?</text><text fill="#000000" font-family="sans-serif" font-size="11" lengthAdjust="spacing" textLength="14" x="410.875" y="397.7861">Ya</text><text fill="#000000" font-family="sans-serif" font-size="11" lengthAdjust="spacing" textLength="25" x="505.875" y="397.7861">Tidak</text><rect fill="none" height="154.7969" style="stroke:#000000;stroke-width:1.5;" width="194" x="172.25" y="422.2031"/><path d="M218.25,422.2031 L218.25,432.8125 L208.25,442.8125 L172.25,442.8125 " fill="none" style="stroke:#000000;stroke-width:1.5;"/><text fill="#000000" font-family="sans-serif" font-size="14" lengthAdjust="spacing" textLength="36" x="175.25" y="437.7363">Siswa</text><rect fill="#F1F1F1" height="35.0938" rx="12.5" ry="12.5" style="stroke:#181818;stroke-width:0.5;" width="174" x="182.25" y="459.8125"/><text fill="#000000" font-family="sans-serif" font-size="12" lengthAdjust="spacing" textLength="154" x="192.25" y="482.2695">Siswa masuk ke dashboard</text><rect fill="#F1F1F1" height="35.0938" rx="12.5" ry="12.5" style="stroke:#181818;stroke-width:0.5;" width="165" x="186.75" y="521.9063"/><text fill="#000000" font-family="sans-serif" font-size="12" lengthAdjust="spacing" textLength="145" x="196.75" y="544.3633">Siswa memilih menu Nilai</text><rect fill="none" height="194.8906" style="stroke:#000000;stroke-width:1.5;" width="224" x="157.25" y="612"/><path d="M209.25,612 L209.25,622.6094 L199.25,632.6094 L157.25,632.6094 " fill="none" style="stroke:#000000;stroke-width:1.5;"/><text fill="#000000" font-family="sans-serif" font-size="14" lengthAdjust="spacing" textLength="42" x="160.25" y="627.5332">Sistem</text><rect fill="#F1F1F1" height="35.0938" rx="12.5" ry="12.5" style="stroke:#181818;stroke-width:0.5;" width="199" x="169.75" y="649.6094"/><text fill="#000000" font-family="sans-serif" font-size="12" lengthAdjust="spacing" textLength="179" x="179.75" y="672.0664">Mengambil data nilai milik siswa</text><rect fill="#F1F1F1" height="35.0938" rx="12.5" ry="12.5" style="stroke:#181818;stroke-width:0.5;" width="204" x="167.25" y="704.7031"/><text fill="#000000" font-family="sans-serif" font-size="12" lengthAdjust="spacing" textLength="184" x="177.25" y="727.1602">Menampilkan halaman Nilai Saya</text><rect fill="#F1F1F1" height="35.0938" rx="12.5" ry="12.5" style="stroke:#181818;stroke-width:0.5;" width="176" x="181.25" y="759.7969"/><text fill="#000000" font-family="sans-serif" font-size="12" lengthAdjust="spacing" textLength="156" x="191.25" y="782.2539">Menampilkan total nilai input</text><polygon fill="#F1F1F1" points="223.75,826.8906,314.75,826.8906,326.75,838.8906,314.75,850.8906,223.75,850.8906,211.75,838.8906,223.75,826.8906" style="stroke:#181818;stroke-width:0.5;"/><text fill="#000000" font-family="sans-serif" font-size="11" lengthAdjust="spacing" textLength="91" x="223.75" y="843.3916">Data nilai tersedia?</text><text fill="#000000" font-family="sans-serif" font-size="11" lengthAdjust="spacing" textLength="14" x="197.75" y="836.4736">Ya</text><text fill="#000000" font-family="sans-serif" font-size="11" lengthAdjust="spacing" textLength="25" x="326.75" y="836.4736">Tidak</text><rect fill="none" height="239.5" style="stroke:#000000;stroke-width:1.5;" width="251" x="11" y="860.8906"/><path d="M63,860.8906 L63,871.5 L53,881.5 L11,881.5 " fill="none" style="stroke:#000000;stroke-width:1.5;"/><text fill="#000000" font-family="sans-serif" font-size="14" lengthAdjust="spacing" textLength="42" x="14" y="876.4238">Sistem</text><rect fill="#F1F1F1" height="35.0938" rx="12.5" ry="12.5" style="stroke:#181818;stroke-width:0.5;" width="190" x="41.5" y="898.5"/><text fill="#000000" font-family="sans-serif" font-size="12" lengthAdjust="spacing" textLength="170" x="51.5" y="920.957">Menampilkan daftar nilai siswa</text><rect fill="#F1F1F1" height="50.1875" rx="12.5" ry="12.5" style="stroke:#181818;stroke-width:0.5;" width="231" x="21" y="960.5938"/><text fill="#000000" font-family="sans-serif" font-size="12" lengthAdjust="spacing" textLength="197" x="31" y="983.0508">Menampilkan guru, mapel, hari/jam,</text><text fill="#000000" font-family="sans-serif" font-size="12" lengthAdjust="spacing" textLength="211" x="31" y="998.1445">pertemuan, tipe nilai, nilai, dan catatan</text><rect fill="#F1F1F1" height="35.0938" rx="12.5" ry="12.5" style="stroke:#181818;stroke-width:0.5;" width="208" x="32.5" y="1045.7813"/><text fill="#000000" font-family="sans-serif" font-size="12" lengthAdjust="spacing" textLength="188" x="42.5" y="1068.2383">Menampilkan penjelasan tipe nilai</text><rect fill="none" height="84.7031" style="stroke:#000000;stroke-width:1.5;" width="239" x="17" y="1110.3906"/><path d="M63,1110.3906 L63,1121 L53,1131 L17,1131 " fill="none" style="stroke:#000000;stroke-width:1.5;"/><text fill="#000000" font-family="sans-serif" font-size="14" lengthAdjust="spacing" textLength="36" x="20" y="1125.9238">Siswa</text><rect fill="#F1F1F1" height="35.0938" rx="12.5" ry="12.5" style="stroke:#181818;stroke-width:0.5;" width="219" x="27" y="1148"/><text fill="#000000" font-family="sans-serif" font-size="12" lengthAdjust="spacing" textLength="199" x="37" y="1170.457">Siswa melihat nilai dan catatan guru</text><rect fill="none" height="84.7031" style="stroke:#000000;stroke-width:1.5;" width="240" x="282" y="860.8906"/><path d="M334,860.8906 L334,871.5 L324,881.5 L282,881.5 " fill="none" style="stroke:#000000;stroke-width:1.5;"/><text fill="#000000" font-family="sans-serif" font-size="14" lengthAdjust="spacing" textLength="42" x="285" y="876.4238">Sistem</text><rect fill="#F1F1F1" height="35.0938" rx="12.5" ry="12.5" style="stroke:#181818;stroke-width:0.5;" width="220" x="292" y="898.5"/><text fill="#000000" font-family="sans-serif" font-size="12" lengthAdjust="spacing" textLength="200" x="302" y="920.957">Menampilkan pesan belum ada nilai</text><rect fill="none" height="107.7969" style="stroke:#000000;stroke-width:1.5;" width="209" x="297.5" y="980.5938"/><path d="M343.5,980.5938 L343.5,991.2031 L333.5,1001.2031 L297.5,1001.2031 " fill="none" style="stroke:#000000;stroke-width:1.5;"/><text fill="#000000" font-family="sans-serif" font-size="14" lengthAdjust="spacing" textLength="36" x="300.5" y="996.127">Siswa</text><rect fill="#F1F1F1" height="50.1875" rx="12.5" ry="12.5" style="stroke:#181818;stroke-width:0.5;" width="189" x="307.5" y="1018.2031"/><text fill="#000000" font-family="sans-serif" font-size="12" lengthAdjust="spacing" textLength="169" x="317.5" y="1040.6602">Siswa mengetahui bahwa nilai</text><text fill="#000000" font-family="sans-serif" font-size="12" lengthAdjust="spacing" textLength="144" x="317.5" y="1055.7539">belum diberikan oleh guru</text><polygon fill="#F1F1F1" points="269.25,1201.0938,281.25,1213.0938,269.25,1225.0938,257.25,1213.0938,269.25,1201.0938" style="stroke:#181818;stroke-width:0.5;"/><rect fill="none" height="84.7031" style="stroke:#000000;stroke-width:1.5;" width="216" x="553.5" y="422.2031"/><path d="M605.5,422.2031 L605.5,432.8125 L595.5,442.8125 L553.5,442.8125 " fill="none" style="stroke:#000000;stroke-width:1.5;"/><text fill="#000000" font-family="sans-serif" font-size="14" lengthAdjust="spacing" textLength="42" x="556.5" y="437.7363">Sistem</text><rect fill="#F1F1F1" height="35.0938" rx="12.5" ry="12.5" style="stroke:#181818;stroke-width:0.5;" width="196" x="563.5" y="459.8125"/><text fill="#000000" font-family="sans-serif" font-size="12" lengthAdjust="spacing" textLength="176" x="573.5" y="482.2695">Menampilkan pesan login gagal</text><rect fill="none" height="92.7031" style="stroke:#000000;stroke-width:1.5;" width="219" x="552" y="541.9063"/><path d="M598,541.9063 L598,552.5156 L588,562.5156 L552,562.5156 " fill="none" style="stroke:#000000;stroke-width:1.5;"/><text fill="#000000" font-family="sans-serif" font-size="14" lengthAdjust="spacing" textLength="36" x="555" y="557.4395">Siswa</text><rect fill="#F1F1F1" height="35.0938" rx="12.5" ry="12.5" style="stroke:#181818;stroke-width:0.5;" width="199" x="562" y="579.5156"/><text fill="#000000" font-family="sans-serif" font-size="12" lengthAdjust="spacing" textLength="179" x="572" y="601.9727">Siswa kembali ke halaman login</text><polygon fill="#F1F1F1" points="465.375,1231.0938,477.375,1243.0938,465.375,1255.0938,453.375,1243.0938,465.375,1231.0938" style="stroke:#181818;stroke-width:0.5;"/><ellipse cx="465.375" cy="1286.0938" fill="none" rx="11" ry="11" style="stroke:#222222;stroke-width:1.0;"/><ellipse cx="465.375" cy="1286.0938" fill="#222222" rx="6" ry="6" style="stroke:#222222;stroke-width:1.0;"/><line style="stroke:#181818;stroke-width:1.0;" x1="465.375" x2="465.375" y1="151.3125" y2="171.3125"/><polygon fill="#181818" points="461.375,161.3125,465.375,171.3125,469.375,161.3125,465.375,165.3125" style="stroke:#181818;stroke-width:1.0;"/><line style="stroke:#181818;stroke-width:1.0;" x1="465.375" x2="465.375" y1="206.4063" y2="226.4063"/><polygon fill="#181818" points="461.375,216.4063,465.375,226.4063,469.375,216.4063,465.375,220.4063" style="stroke:#181818;stroke-width:1.0;"/><line style="stroke:#181818;stroke-width:1.0;" x1="465.375" x2="465.375" y1="68.6094" y2="116.2188"/><polygon fill="#181818" points="461.375,106.2188,465.375,116.2188,469.375,106.2188,465.375,110.2188" style="stroke:#181818;stroke-width:1.0;"/><line style="stroke:#181818;stroke-width:1.0;" x1="465.375" x2="465.375" y1="261.5" y2="321.1094"/><polygon fill="#181818" points="461.375,311.1094,465.375,321.1094,469.375,311.1094,465.375,315.1094" style="stroke:#181818;stroke-width:1.0;"/><line style="stroke:#181818;stroke-width:1.0;" x1="269.25" x2="269.25" y1="494.9063" y2="521.9063"/><polygon fill="#181818" points="265.25,511.9063,269.25,521.9063,273.25,511.9063,269.25,515.9063" style="stroke:#181818;stroke-width:1.0;"/><line style="stroke:#181818;stroke-width:1.0;" x1="269.25" x2="269.25" y1="684.7031" y2="704.7031"/><polygon fill="#181818" points="265.25,694.7031,269.25,704.7031,273.25,694.7031,269.25,698.7031" style="stroke:#181818;stroke-width:1.0;"/><line style="stroke:#181818;stroke-width:1.0;" x1="269.25" x2="269.25" y1="739.7969" y2="759.7969"/><polygon fill="#181818" points="265.25,749.7969,269.25,759.7969,273.25,749.7969,269.25,753.7969" style="stroke:#181818;stroke-width:1.0;"/><line style="stroke:#181818;stroke-width:1.0;" x1="269.25" x2="269.25" y1="557" y2="649.6094"/><polygon fill="#181818" points="265.25,639.6094,269.25,649.6094,273.25,639.6094,269.25,643.6094" style="stroke:#181818;stroke-width:1.0;"/><line style="stroke:#181818;stroke-width:1.0;" x1="136.5" x2="136.5" y1="933.5938" y2="960.5938"/><polygon fill="#181818" points="132.5,950.5938,136.5,960.5938,140.5,950.5938,136.5,954.5938" style="stroke:#181818;stroke-width:1.0;"/><line style="stroke:#181818;stroke-width:1.0;" x1="136.5" x2="136.5" y1="1010.7813" y2="1045.7813"/><polygon fill="#181818" points="132.5,1035.7813,136.5,1045.7813,140.5,1035.7813,136.5,1039.7813" style="stroke:#181818;stroke-width:1.0;"/><line style="stroke:#181818;stroke-width:1.0;" x1="136.5" x2="136.5" y1="1080.875" y2="1148"/><polygon fill="#181818" points="132.5,1138,136.5,1148,140.5,1138,136.5,1142" style="stroke:#181818;stroke-width:1.0;"/><line style="stroke:#181818;stroke-width:1.0;" x1="402" x2="402" y1="933.5938" y2="1018.2031"/><polygon fill="#181818" points="398,1008.2031,402,1018.2031,406,1008.2031,402,1012.2031" style="stroke:#181818;stroke-width:1.0;"/><line style="stroke:#181818;stroke-width:1.0;" x1="211.75" x2="136.5" y1="838.8906" y2="838.8906"/><line style="stroke:#181818;stroke-width:1.0;" x1="136.5" x2="136.5" y1="838.8906" y2="898.5"/><polygon fill="#181818" points="132.5,888.5,136.5,898.5,140.5,888.5,136.5,892.5" style="stroke:#181818;stroke-width:1.0;"/><line style="stroke:#181818;stroke-width:1.0;" x1="326.75" x2="402" y1="838.8906" y2="838.8906"/><line style="stroke:#181818;stroke-width:1.0;" x1="402" x2="402" y1="838.8906" y2="898.5"/><polygon fill="#181818" points="398,888.5,402,898.5,406,888.5,402,892.5" style="stroke:#181818;stroke-width:1.0;"/><line style="stroke:#181818;stroke-width:1.0;" x1="136.5" x2="136.5" y1="1183.0938" y2="1213.0938"/><line style="stroke:#181818;stroke-width:1.0;" x1="136.5" x2="257.25" y1="1213.0938" y2="1213.0938"/><polygon fill="#181818" points="247.25,1209.0938,257.25,1213.0938,247.25,1217.0938,251.25,1213.0938" style="stroke:#181818;stroke-width:1.0;"/><line style="stroke:#181818;stroke-width:1.0;" x1="402" x2="402" y1="1068.3906" y2="1213.0938"/><line style="stroke:#181818;stroke-width:1.0;" x1="402" x2="281.25" y1="1213.0938" y2="1213.0938"/><polygon fill="#181818" points="291.25,1209.0938,281.25,1213.0938,291.25,1217.0938,287.25,1213.0938" style="stroke:#181818;stroke-width:1.0;"/><line style="stroke:#181818;stroke-width:1.0;" x1="269.25" x2="269.25" y1="794.8906" y2="826.8906"/><polygon fill="#181818" points="265.25,816.8906,269.25,826.8906,273.25,816.8906,269.25,820.8906" style="stroke:#181818;stroke-width:1.0;"/><line style="stroke:#181818;stroke-width:1.0;" x1="661.5" x2="661.5" y1="494.9063" y2="579.5156"/><polygon fill="#181818" points="657.5,569.5156,661.5,579.5156,665.5,569.5156,661.5,573.5156" style="stroke:#181818;stroke-width:1.0;"/><line style="stroke:#181818;stroke-width:1.0;" x1="424.875" x2="269.25" y1="400.2031" y2="400.2031"/><line style="stroke:#181818;stroke-width:1.0;" x1="269.25" x2="269.25" y1="400.2031" y2="459.8125"/><polygon fill="#181818" points="265.25,449.8125,269.25,459.8125,273.25,449.8125,269.25,453.8125" style="stroke:#181818;stroke-width:1.0;"/><line style="stroke:#181818;stroke-width:1.0;" x1="505.875" x2="661.5" y1="400.2031" y2="400.2031"/><line style="stroke:#181818;stroke-width:1.0;" x1="661.5" x2="661.5" y1="400.2031" y2="459.8125"/><polygon fill="#181818" points="657.5,449.8125,661.5,459.8125,665.5,449.8125,661.5,453.8125" style="stroke:#181818;stroke-width:1.0;"/><line style="stroke:#181818;stroke-width:1.0;" x1="269.25" x2="269.25" y1="1225.0938" y2="1243.0938"/><line style="stroke:#181818;stroke-width:1.0;" x1="269.25" x2="453.375" y1="1243.0938" y2="1243.0938"/><polygon fill="#181818" points="443.375,1239.0938,453.375,1243.0938,443.375,1247.0938,447.375,1243.0938" style="stroke:#181818;stroke-width:1.0;"/><line style="stroke:#181818;stroke-width:1.0;" x1="661.5" x2="661.5" y1="614.6094" y2="1243.0938"/><line style="stroke:#181818;stroke-width:1.0;" x1="661.5" x2="477.375" y1="1243.0938" y2="1243.0938"/><polygon fill="#181818" points="487.375,1239.0938,477.375,1243.0938,487.375,1247.0938,483.375,1243.0938" style="stroke:#181818;stroke-width:1.0;"/><line style="stroke:#181818;stroke-width:1.0;" x1="465.375" x2="465.375" y1="356.2031" y2="388.2031"/><polygon fill="#181818" points="461.375,378.2031,465.375,388.2031,469.375,378.2031,465.375,382.2031" style="stroke:#181818;stroke-width:1.0;"/><line style="stroke:#181818;stroke-width:1.0;" x1="465.375" x2="465.375" y1="1255.0938" y2="1275.0938"/><polygon fill="#181818" points="461.375,1265.0938,465.375,1275.0938,469.375,1265.0938,465.375,1269.0938" style="stroke:#181818;stroke-width:1.0;"/><!--SRC=[hLGzRzim4DtvAmwP7415ztGe2cHikgHBnrDqbYxyX7YC4GJ-xoL5EROiEm6AQX0XwF7TUuzt51P3yED9-8Nb5UuP-n4jV857ZZk41p8yeC0lDiZmYA-eL1GSHQcGtopi7TnCs1juKv2VkxhJacsJHXZGe4K7nlVilfqXC2QjyyyKQNHe2Rhy4J36dH-x1LWRrY3Ujjx0pqgrFzSWPDz5F92baNN4J2bOgqCiLDD6ti9cee4NDDnzlmKPoC7c3zwgYU2QkrFzHJte8ZeEhSU3ugL5pW7crQMQOONiBnKvaJzRS3tQbasruAOZA7pwOEGKYZQmALaU0ZyUsHMWU44pqx8BIHRQIaBtnxf2OwIESPtKfqPMXJlSvXQQYS-ihC1z6bEJimvacknjvA_FQ1iLQCnb4he6X0DLikQmb3Pwok85tGVKWTmp6OmbYtUE8tv_pT-o6nR7NQUbEZiHCRbOCPE919lVtA7-vom35VajcMG1E_mV7bnFWaDYQ77OpOogLkYuBLELAtf3mnLNhkEjKcjpdtRxcQawiptsQ3wOcekZgVFba-Uw3EU5-oVpp2AZ-A3-0W00]--></g></svg>