<?xml version="1.0" encoding="us-ascii" standalone="no"?><svg xmlns="http://www.w3.org/2000/svg" xmlns:xlink="http://www.w3.org/1999/xlink" contentStyleType="text/css" height="2102px" preserveAspectRatio="none" style="width:1727px;height:2102px;background:#FFFFFF;" version="1.1" viewBox="0 0 1727 2102" width="1727px" zoomAndPan="magnify"><defs/><g><text fill="#000000" font-family="sans-serif" font-size="14" font-weight="bold" lengthAdjust="spacing" textLength="320" x="702" y="34.5332">Activity Diagram - Siswa Mengelola Profil Saya</text><ellipse cx="1302.25" cy="58.6094" fill="#222222" rx="10" ry="10" style="stroke:#222222;stroke-width:1.0;"/><rect fill="none" height="194.8906" style="stroke:#000000;stroke-width:1.5;" width="295" x="1154.75" y="78.6094"/><path d="M1200.75,78.6094 L1200.75,89.2188 L1190.75,99.2188 L1154.75,99.2188 " fill="none" style="stroke:#000000;stroke-width:1.5;"/><text fill="#000000" font-family="sans-serif" font-size="14" lengthAdjust="spacing" textLength="36" x="1157.75" y="94.1426">Siswa</text><rect fill="#F1F1F1" height="35.0938" rx="12.5" ry="12.5" style="stroke:#181818;stroke-width:0.5;" width="195" x="1204.75" y="116.2188"/><text fill="#000000" font-family="sans-serif" font-size="12" lengthAdjust="spacing" textLength="175" x="1214.75" y="138.6758">Siswa membuka halaman login</text><rect fill="#F1F1F1" height="35.0938" rx="12.5" ry="12.5" style="stroke:#181818;stroke-width:0.5;" width="275" x="1164.75" y="171.3125"/><text fill="#000000" font-family="sans-serif" font-size="12" lengthAdjust="spacing" textLength="255" x="1174.75" y="193.7695">Siswa memasukkan username dan password</text><rect fill="#F1F1F1" height="35.0938" rx="12.5" ry="12.5" style="stroke:#181818;stroke-width:0.5;" width="150" x="1227.25" y="226.4063"/><text fill="#000000" font-family="sans-serif" font-size="12" lengthAdjust="spacing" textLength="130" x="1237.25" y="248.8633">Siswa klik tombol Login</text><rect fill="none" height="84.7031" style="stroke:#000000;stroke-width:1.5;" width="194" x="1205.25" y="283.5"/><path d="M1257.25,283.5 L1257.25,294.1094 L1247.25,304.1094 L1205.25,304.1094 " fill="none" style="stroke:#000000;stroke-width:1.5;"/><text fill="#000000" font-family="sans-serif" font-size="14" lengthAdjust="spacing" textLength="42" x="1208.25" y="299.0332">Sistem</text><rect fill="#F1F1F1" height="35.0938" rx="12.5" ry="12.5" style="stroke:#181818;stroke-width:0.5;" width="174" x="1215.25" y="321.1094"/><text fill="#000000" font-family="sans-serif" font-size="12" lengthAdjust="spacing" textLength="154" x="1225.25" y="343.5664">Memeriksa data login siswa</text><polygon fill="#F1F1F1" points="1273.75,388.2031,1330.75,388.2031,1342.75,400.2031,1330.75,412.2031,1273.75,412.2031,1261.75,400.2031,1273.75,388.2031" style="stroke:#181818;stroke-width:0.5;"/><text fill="#000000" font-family="sans-serif" font-size="11" lengthAdjust="spacing" textLength="57" x="1273.75" y="404.7041">Login valid?</text><text fill="#000000" font-family="sans-serif" font-size="11" lengthAdjust="spacing" textLength="14" x="1247.75" y="397.7861">Ya</text><text fill="#000000" font-family="sans-serif" font-size="11" lengthAdjust="spacing" textLength="25" x="1342.75" y="397.7861">Tidak</text><rect fill="none" height="154.7969" style="stroke:#000000;stroke-width:1.5;" width="194" x="881" y="422.2031"/><path d="M927,422.2031 L927,432.8125 L917,442.8125 L881,442.8125 " fill="none" style="stroke:#000000;stroke-width:1.5;"/><text fill="#000000" font-family="sans-serif" font-size="14" lengthAdjust="spacing" textLength="36" x="884" y="437.7363">Siswa</text><rect fill="#F1F1F1" height="35.0938" rx="12.5" ry="12.5" style="stroke:#181818;stroke-width:0.5;" width="174" x="891" y="459.8125"/><text fill="#000000" font-family="sans-serif" font-size="12" lengthAdjust="spacing" textLength="154" x="901" y="482.2695">Siswa masuk ke dashboard</text><rect fill="#F1F1F1" height="35.0938" rx="12.5" ry="12.5" style="stroke:#181818;stroke-width:0.5;" width="168" x="894" y="521.9063"/><text fill="#000000" font-family="sans-serif" font-size="12" lengthAdjust="spacing" textLength="148" x="904" y="544.3633">Siswa memilih menu Profil</text><rect fill="none" height="305.0781" style="stroke:#000000;stroke-width:1.5;" width="255" x="850.5" y="612"/><path d="M902.5,612 L902.5,622.6094 L892.5,632.6094 L850.5,632.6094 " fill="none" style="stroke:#000000;stroke-width:1.5;"/><text fill="#000000" font-family="sans-serif" font-size="14" lengthAdjust="spacing" textLength="42" x="853.5" y="627.5332">Sistem</text><rect fill="#F1F1F1" height="35.0938" rx="12.5" ry="12.5" style="stroke:#181818;stroke-width:0.5;" width="207" x="874.5" y="649.6094"/><text fill="#000000" font-family="sans-serif" font-size="12" lengthAdjust="spacing" textLength="187" x="884.5" y="672.0664">Menampilkan halaman Profil Saya</text><rect fill="#F1F1F1" height="35.0938" rx="12.5" ry="12.5" style="stroke:#181818;stroke-width:0.5;" width="174" x="891" y="704.7031"/><text fill="#000000" font-family="sans-serif" font-size="12" lengthAdjust="spacing" textLength="154" x="901" y="727.1602">Menampilkan biodata siswa</text><rect fill="#F1F1F1" height="35.0938" rx="12.5" ry="12.5" style="stroke:#181818;stroke-width:0.5;" width="235" x="860.5" y="759.7969"/><text fill="#000000" font-family="sans-serif" font-size="12" lengthAdjust="spacing" textLength="215" x="870.5" y="782.2539">Menampilkan ringkasan aktivitas siswa</text><rect fill="#F1F1F1" height="35.0938" rx="12.5" ry="12.5" style="stroke:#181818;stroke-width:0.5;" width="186" x="885" y="814.8906"/><text fill="#000000" font-family="sans-serif" font-size="12" lengthAdjust="spacing" textLength="166" x="895" y="837.3477">Menampilkan form Ubah Profil</text><rect fill="#F1F1F1" height="35.0938" rx="12.5" ry="12.5" style="stroke:#181818;stroke-width:0.5;" width="213" x="871.5" y="869.9844"/><text fill="#000000" font-family="sans-serif" font-size="12" lengthAdjust="spacing" textLength="193" x="881.5" y="892.4414">Menampilkan form Ganti Password</text><rect fill="none" height="84.7031" style="stroke:#000000;stroke-width:1.5;" width="177" x="889.5" y="927.0781"/><path d="M935.5,927.0781 L935.5,937.6875 L925.5,947.6875 L889.5,947.6875 " fill="none" style="stroke:#000000;stroke-width:1.5;"/><text fill="#000000" font-family="sans-serif" font-size="14" lengthAdjust="spacing" textLength="36" x="892.5" y="942.6113">Siswa</text><rect fill="#F1F1F1" height="35.0938" rx="12.5" ry="12.5" style="stroke:#181818;stroke-width:0.5;" width="157" x="899.5" y="964.6875"/><text fill="#000000" font-family="sans-serif" font-size="12" lengthAdjust="spacing" textLength="137" x="909.5" y="987.1445">Siswa melihat profil saya</text><polygon fill="#F1F1F1" points="908,1031.7813,1048,1031.7813,1060,1043.7813,1048,1055.7813,908,1055.7813,896,1043.7813,908,1031.7813" style="stroke:#181818;stroke-width:0.5;"/><text fill="#000000" font-family="sans-serif" font-size="11" lengthAdjust="spacing" textLength="140" x="908" y="1048.2822">Siswa ingin mengelola profil?</text><text fill="#000000" font-family="sans-serif" font-size="11" lengthAdjust="spacing" textLength="14" x="882" y="1041.3643">Ya</text><text fill="#000000" font-family="sans-serif" font-size="11" lengthAdjust="spacing" textLength="25" x="1060" y="1041.3643">Tidak</text><rect fill="none" height="84.7031" style="stroke:#000000;stroke-width:1.5;" width="178" x="510" y="1065.7813"/><path d="M556,1065.7813 L556,1076.3906 L546,1086.3906 L510,1086.3906 " fill="none" style="stroke:#000000;stroke-width:1.5;"/><text fill="#000000" font-family="sans-serif" font-size="14" lengthAdjust="spacing" textLength="36" x="513" y="1081.3145">Siswa</text><rect fill="#F1F1F1" height="35.0938" rx="12.5" ry="12.5" style="stroke:#181818;stroke-width:0.5;" width="158" x="520" y="1103.3906"/><text fill="#000000" font-family="sans-serif" font-size="12" lengthAdjust="spacing" textLength="138" x="530" y="1125.8477">Siswa memilih aksi profil</text><polygon fill="#F1F1F1" points="557.5,1170.4844,640.5,1170.4844,652.5,1182.4844,640.5,1194.4844,557.5,1194.4844,545.5,1182.4844,557.5,1170.4844" style="stroke:#181818;stroke-width:0.5;"/><text fill="#000000" font-family="sans-serif" font-size="11" lengthAdjust="spacing" textLength="83" x="557.5" y="1186.9854">Aksi yang dipilih?</text><text fill="#000000" font-family="sans-serif" font-size="11" lengthAdjust="spacing" textLength="52" x="493.5" y="1180.0674">Ubah Profil</text><text fill="#000000" font-family="sans-serif" font-size="11" lengthAdjust="spacing" textLength="78" x="652.5" y="1180.0674">Ganti Password</text><rect fill="none" height="252.1641" style="stroke:#000000;stroke-width:1.5;" width="385.5" x="188.5" y="1204.4844"/><path d="M234.5,1204.4844 L234.5,1215.0938 L224.5,1225.0938 L188.5,1225.0938 " fill="none" style="stroke:#000000;stroke-width:1.5;"/><text fill="#000000" font-family="sans-serif" font-size="14" lengthAdjust="spacing" textLength="36" x="191.5" y="1220.0176">Siswa</text><path d="M402,1242.0938 L402,1300.3242 L382,1304.3242 L402,1308.3242 L402,1366.5547 A0,0 0 0 0 402,1366.5547 L564,1366.5547 A0,0 0 0 0 564,1366.5547 L564,1252.0938 L554,1242.0938 L402,1242.0938 A0,0 0 0 0 402,1242.0938 " fill="#FEFFDD" style="stroke:#181818;stroke-width:0.5;"/><path d="M554,1242.0938 L554,1252.0938 L564,1252.0938 L554,1242.0938 " fill="#FEFFDD" style="stroke:#181818;stroke-width:0.5;"/><text fill="#000000" font-family="sans-serif" font-size="13" lengthAdjust="spacing" textLength="141" x="408" y="1260.5889">Data yang dapat diubah:</text><text fill="#000000" font-family="sans-serif" font-size="13" lengthAdjust="spacing" textLength="42" x="408" y="1276.9404">- Nama</text><text fill="#000000" font-family="sans-serif" font-size="13" lengthAdjust="spacing" textLength="41" x="408" y="1293.292">- Email</text><text fill="#000000" font-family="sans-serif" font-size="13" lengthAdjust="spacing" textLength="74" x="408" y="1309.6436">- No. telepon</text><text fill="#000000" font-family="sans-serif" font-size="13" lengthAdjust="spacing" textLength="49" x="408" y="1325.9951">- Alamat</text><text fill="#000000" font-family="sans-serif" font-size="13" lengthAdjust="spacing" textLength="83" x="408" y="1342.3467">- Asal sekolah</text><text fill="#000000" font-family="sans-serif" font-size="13" lengthAdjust="spacing" textLength="27" x="408" y="1358.6982">- Bio</text><rect fill="#F1F1F1" height="35.0938" rx="12.5" ry="12.5" style="stroke:#181818;stroke-width:0.5;" width="174" x="208" y="1286.7773"/><text fill="#000000" font-family="sans-serif" font-size="12" lengthAdjust="spacing" textLength="154" x="218" y="1309.2344">Siswa mengubah data profil</text><rect fill="#F1F1F1" height="35.0938" rx="12.5" ry="12.5" style="stroke:#181818;stroke-width:0.5;" width="193" x="198.5" y="1401.5547"/><text fill="#000000" font-family="sans-serif" font-size="12" lengthAdjust="spacing" textLength="173" x="208.5" y="1424.0117">Siswa klik tombol Simpan Profil</text><rect fill="none" height="92.7031" style="stroke:#000000;stroke-width:1.5;" width="158" x="216" y="1491.6484"/><path d="M268,1491.6484 L268,1502.2578 L258,1512.2578 L216,1512.2578 " fill="none" style="stroke:#000000;stroke-width:1.5;"/><text fill="#000000" font-family="sans-serif" font-size="14" lengthAdjust="spacing" textLength="42" x="219" y="1507.1816">Sistem</text><rect fill="#F1F1F1" height="35.0938" rx="12.5" ry="12.5" style="stroke:#181818;stroke-width:0.5;" width="138" x="226" y="1529.2578"/><text fill="#000000" font-family="sans-serif" font-size="12" lengthAdjust="spacing" textLength="118" x="236" y="1551.7148">Memeriksa data profil</text><polygon fill="#F1F1F1" points="255,1619.3516,335,1619.3516,347,1631.3516,335,1643.3516,255,1643.3516,243,1631.3516,255,1619.3516" style="stroke:#181818;stroke-width:0.5;"/><text fill="#000000" font-family="sans-serif" font-size="11" lengthAdjust="spacing" textLength="80" x="255" y="1635.8525">Data profil valid?</text><text fill="#000000" font-family="sans-serif" font-size="11" lengthAdjust="spacing" textLength="14" x="229" y="1628.9346">Ya</text><text fill="#000000" font-family="sans-serif" font-size="11" lengthAdjust="spacing" textLength="25" x="347" y="1628.9346">Tidak</text><rect fill="none" height="232.8906" style="stroke:#000000;stroke-width:1.5;" width="274" x="11" y="1653.3516"/><path d="M63,1653.3516 L63,1663.9609 L53,1673.9609 L11,1673.9609 " fill="none" style="stroke:#000000;stroke-width:1.5;"/><text fill="#000000" font-family="sans-serif" font-size="14" lengthAdjust="spacing" textLength="42" x="14" y="1668.8848">Sistem</text><rect fill="#F1F1F1" height="35.0938" rx="12.5" ry="12.5" style="stroke:#181818;stroke-width:0.5;" width="176" x="60" y="1690.9609"/><text fill="#000000" font-family="sans-serif" font-size="12" lengthAdjust="spacing" textLength="156" x="70" y="1713.418">Menyimpan perubahan profil</text><rect fill="#F1F1F1" height="35.0938" rx="12.5" ry="12.5" style="stroke:#181818;stroke-width:0.5;" width="180" x="58" y="1761.0547"/><text fill="#000000" font-family="sans-serif" font-size="12" lengthAdjust="spacing" textLength="160" x="68" y="1783.5117">Menampilkan pesan berhasil</text><rect fill="#F1F1F1" height="35.0938" rx="12.5" ry="12.5" style="stroke:#181818;stroke-width:0.5;" width="254" x="21" y="1831.1484"/><text fill="#000000" font-family="sans-serif" font-size="12" lengthAdjust="spacing" textLength="234" x="31" y="1853.6055">Menampilkan kembali halaman Profil Saya</text><rect fill="none" height="162.7969" style="stroke:#000000;stroke-width:1.5;" width="274" x="305" y="1653.3516"/><path d="M357,1653.3516 L357,1663.9609 L347,1673.9609 L305,1673.9609 " fill="none" style="stroke:#000000;stroke-width:1.5;"/><text fill="#000000" font-family="sans-serif" font-size="14" lengthAdjust="spacing" textLength="42" x="308" y="1668.8848">Sistem</text><rect fill="#F1F1F1" height="35.0938" rx="12.5" ry="12.5" style="stroke:#181818;stroke-width:0.5;" width="161" x="361.5" y="1690.9609"/><text fill="#000000" font-family="sans-serif" font-size="12" lengthAdjust="spacing" textLength="141" x="371.5" y="1713.418">Menampilkan pesan error</text><rect fill="#F1F1F1" height="35.0938" rx="12.5" ry="12.5" style="stroke:#181818;stroke-width:0.5;" width="254" x="315" y="1761.0547"/><text fill="#000000" font-family="sans-serif" font-size="12" lengthAdjust="spacing" textLength="234" x="325" y="1783.5117">Menampilkan kembali halaman Profil Saya</text><polygon fill="#F1F1F1" points="295,1892.2422,307,1904.2422,295,1916.2422,283,1904.2422,295,1892.2422" style="stroke:#181818;stroke-width:0.5;"/><rect fill="none" height="302.9844" style="stroke:#000000;stroke-width:1.5;" width="269" x="768.5" y="1204.4844"/><path d="M814.5,1204.4844 L814.5,1215.0938 L804.5,1225.0938 L768.5,1225.0938 " fill="none" style="stroke:#000000;stroke-width:1.5;"/><text fill="#000000" font-family="sans-serif" font-size="14" lengthAdjust="spacing" textLength="36" x="771.5" y="1220.0176">Siswa</text><rect fill="#F1F1F1" height="35.0938" rx="12.5" ry="12.5" style="stroke:#181818;stroke-width:0.5;" width="203" x="801.5" y="1242.0938"/><text fill="#000000" font-family="sans-serif" font-size="12" lengthAdjust="spacing" textLength="183" x="811.5" y="1264.5508">Siswa mengisi password saat ini</text><rect fill="#F1F1F1" height="35.0938" rx="12.5" ry="12.5" style="stroke:#181818;stroke-width:0.5;" width="188" x="809" y="1312.1875"/><text fill="#000000" font-family="sans-serif" font-size="12" lengthAdjust="spacing" textLength="168" x="819" y="1334.6445">Siswa mengisi password baru</text><rect fill="#F1F1F1" height="35.0938" rx="12.5" ry="12.5" style="stroke:#181818;stroke-width:0.5;" width="249" x="778.5" y="1382.2813"/><text fill="#000000" font-family="sans-serif" font-size="12" lengthAdjust="spacing" textLength="229" x="788.5" y="1404.7383">Siswa mengisi konfirmasi password baru</text><rect fill="#F1F1F1" height="35.0938" rx="12.5" ry="12.5" style="stroke:#181818;stroke-width:0.5;" width="218" x="794" y="1452.375"/><text fill="#000000" font-family="sans-serif" font-size="12" lengthAdjust="spacing" textLength="198" x="804" y="1474.832">Siswa klik tombol Update Password</text><rect fill="none" height="92.7031" style="stroke:#000000;stroke-width:1.5;" width="186" x="810" y="1542.4688"/><path d="M862,1542.4688 L862,1553.0781 L852,1563.0781 L810,1563.0781 " fill="none" style="stroke:#000000;stroke-width:1.5;"/><text fill="#000000" font-family="sans-serif" font-size="14" lengthAdjust="spacing" textLength="42" x="813" y="1558.002">Sistem</text><rect fill="#F1F1F1" height="35.0938" rx="12.5" ry="12.5" style="stroke:#181818;stroke-width:0.5;" width="166" x="820" y="1580.0781"/><text fill="#000000" font-family="sans-serif" font-size="12" lengthAdjust="spacing" textLength="146" x="830" y="1602.5352">Memeriksa data password</text><polygon fill="#F1F1F1" points="850,1670.1719,956,1670.1719,968,1682.1719,956,1694.1719,850,1694.1719,838,1682.1719,850,1670.1719" style="stroke:#181818;stroke-width:0.5;"/><text fill="#000000" font-family="sans-serif" font-size="11" lengthAdjust="spacing" textLength="106" x="850" y="1686.6729">Data password valid?</text><text fill="#000000" font-family="sans-serif" font-size="11" lengthAdjust="spacing" textLength="14" x="824" y="1679.7549">Ya</text><text fill="#000000" font-family="sans-serif" font-size="11" lengthAdjust="spacing" textLength="25" x="968" y="1679.7549">Tidak</text><rect fill="none" height="224.8906" style="stroke:#000000;stroke-width:1.5;" width="274" x="619" y="1704.1719"/><path d="M671,1704.1719 L671,1714.7813 L661,1724.7813 L619,1724.7813 " fill="none" style="stroke:#000000;stroke-width:1.5;"/><text fill="#000000" font-family="sans-serif" font-size="14" lengthAdjust="spacing" textLength="42" x="622" y="1719.7051">Sistem</text><rect fill="#F1F1F1" height="35.0938" rx="12.5" ry="12.5" style="stroke:#181818;stroke-width:0.5;" width="169" x="671.5" y="1741.7813"/><text fill="#000000" font-family="sans-serif" font-size="12" lengthAdjust="spacing" textLength="149" x="681.5" y="1764.2383">Menyimpan password baru</text><rect fill="#F1F1F1" height="35.0938" rx="12.5" ry="12.5" style="stroke:#181818;stroke-width:0.5;" width="180" x="666" y="1811.875"/><text fill="#000000" font-family="sans-serif" font-size="12" lengthAdjust="spacing" textLength="160" x="676" y="1834.332">Menampilkan pesan berhasil</text><rect fill="#F1F1F1" height="35.0938" rx="12.5" ry="12.5" style="stroke:#181818;stroke-width:0.5;" width="254" x="629" y="1881.9688"/><text fill="#000000" font-family="sans-serif" font-size="12" lengthAdjust="spacing" textLength="234" x="639" y="1904.4258">Menampilkan kembali halaman Profil Saya</text><rect fill="none" height="162.7969" style="stroke:#000000;stroke-width:1.5;" width="274" x="913" y="1704.1719"/><path d="M965,1704.1719 L965,1714.7813 L955,1724.7813 L913,1724.7813 " fill="none" style="stroke:#000000;stroke-width:1.5;"/><text fill="#000000" font-family="sans-serif" font-size="14" lengthAdjust="spacing" textLength="42" x="916" y="1719.7051">Sistem</text><rect fill="#F1F1F1" height="35.0938" rx="12.5" ry="12.5" style="stroke:#181818;stroke-width:0.5;" width="161" x="969.5" y="1741.7813"/><text fill="#000000" font-family="sans-serif" font-size="12" lengthAdjust="spacing" textLength="141" x="979.5" y="1764.2383">Menampilkan pesan error</text><rect fill="#F1F1F1" height="35.0938" rx="12.5" ry="12.5" style="stroke:#181818;stroke-width:0.5;" width="254" x="923" y="1811.875"/><text fill="#000000" font-family="sans-serif" font-size="12" lengthAdjust="spacing" textLength="234" x="933" y="1834.332">Menampilkan kembali halaman Profil Saya</text><polygon fill="#F1F1F1" points="903,1935.0625,915,1947.0625,903,1959.0625,891,1947.0625,903,1935.0625" style="stroke:#181818;stroke-width:0.5;"/><polygon fill="#F1F1F1" points="599,1965.0625,611,1977.0625,599,1989.0625,587,1977.0625,599,1965.0625" style="stroke:#181818;stroke-width:0.5;"/><rect fill="none" height="84.7031" style="stroke:#000000;stroke-width:1.5;" width="260" x="1227" y="1065.7813"/><path d="M1273,1065.7813 L1273,1076.3906 L1263,1086.3906 L1227,1086.3906 " fill="none" style="stroke:#000000;stroke-width:1.5;"/><text fill="#000000" font-family="sans-serif" font-size="14" lengthAdjust="spacing" textLength="36" x="1230" y="1081.3145">Siswa</text><rect fill="#F1F1F1" height="35.0938" rx="12.5" ry="12.5" style="stroke:#181818;stroke-width:0.5;" width="240" x="1237" y="1103.3906"/><text fill="#000000" font-family="sans-serif" font-size="12" lengthAdjust="spacing" textLength="220" x="1247" y="1125.8477">Siswa tidak melakukan perubahan profil</text><polygon fill="#F1F1F1" points="978,1995.0625,990,2007.0625,978,2019.0625,966,2007.0625,978,1995.0625" style="stroke:#181818;stroke-width:0.5;"/><rect fill="none" height="84.7031" style="stroke:#000000;stroke-width:1.5;" width="216" x="1498.5" y="422.2031"/><path d="M1550.5,422.2031 L1550.5,432.8125 L1540.5,442.8125 L1498.5,442.8125 " fill="none" style="stroke:#000000;stroke-width:1.5;"/><text fill="#000000" font-family="sans-serif" font-size="14" lengthAdjust="spacing" textLength="42" x="1501.5" y="437.7363">Sistem</text><rect fill="#F1F1F1" height="35.0938" rx="12.5" ry="12.5" style="stroke:#181818;stroke-width:0.5;" width="196" x="1508.5" y="459.8125"/><text fill="#000000" font-family="sans-serif" font-size="12" lengthAdjust="spacing" textLength="176" x="1518.5" y="482.2695">Menampilkan pesan login gagal</text><rect fill="none" height="92.7031" style="stroke:#000000;stroke-width:1.5;" width="219" x="1497" y="541.9063"/><path d="M1543,541.9063 L1543,552.5156 L1533,562.5156 L1497,562.5156 " fill="none" style="stroke:#000000;stroke-width:1.5;"/><text fill="#000000" font-family="sans-serif" font-size="14" lengthAdjust="spacing" textLength="36" x="1500" y="557.4395">Siswa</text><rect fill="#F1F1F1" height="35.0938" rx="12.5" ry="12.5" style="stroke:#181818;stroke-width:0.5;" width="199" x="1507" y="579.5156"/><text fill="#000000" font-family="sans-serif" font-size="12" lengthAdjust="spacing" textLength="179" x="1517" y="601.9727">Siswa kembali ke halaman login</text><polygon fill="#F1F1F1" points="1302.25,2025.0625,1314.25,2037.0625,1302.25,2049.0625,1290.25,2037.0625,1302.25,2025.0625" style="stroke:#181818;stroke-width:0.5;"/><ellipse cx="1302.25" cy="2080.0625" fill="none" rx="11" ry="11" style="stroke:#222222;stroke-width:1.0;"/><ellipse cx="1302.25" cy="2080.0625" fill="#222222" rx="6" ry="6" style="stroke:#222222;stroke-width:1.0;"/><line style="stroke:#181818;stroke-width:1.0;" x1="1302.25" x2="1302.25" y1="151.3125" y2="171.3125"/><polygon fill="#181818" points="1298.25,161.3125,1302.25,171.3125,1306.25,161.3125,1302.25,165.3125" style="stroke:#181818;stroke-width:1.0;"/><line style="stroke:#181818;stroke-width:1.0;" x1="1302.25" x2="1302.25" y1="206.4063" y2="226.4063"/><polygon fill="#181818" points="1298.25,216.4063,1302.25,226.4063,1306.25,216.4063,1302.25,220.4063" style="stroke:#181818;stroke-width:1.0;"/><line style="stroke:#181818;stroke-width:1.0;" x1="1302.25" x2="1302.25" y1="68.6094" y2="116.2188"/><polygon fill="#181818" points="1298.25,106.2188,1302.25,116.2188,1306.25,106.2188,1302.25,110.2188" style="stroke:#181818;stroke-width:1.0;"/><line style="stroke:#181818;stroke-width:1.0;" x1="1302.25" x2="1302.25" y1="261.5" y2="321.1094"/><polygon fill="#181818" points="1298.25,311.1094,1302.25,321.1094,1306.25,311.1094,1302.25,315.1094" style="stroke:#181818;stroke-width:1.0;"/><line style="stroke:#181818;stroke-width:1.0;" x1="978" x2="978" y1="494.9063" y2="521.9063"/><polygon fill="#181818" points="974,511.9063,978,521.9063,982,511.9063,978,515.9063" style="stroke:#181818;stroke-width:1.0;"/><line style="stroke:#181818;stroke-width:1.0;" x1="978" x2="978" y1="684.7031" y2="704.7031"/><polygon fill="#181818" points="974,694.7031,978,704.7031,982,694.7031,978,698.7031" style="stroke:#181818;stroke-width:1.0;"/><line style="stroke:#181818;stroke-width:1.0;" x1="978" x2="978" y1="739.7969" y2="759.7969"/><polygon fill="#181818" points="974,749.7969,978,759.7969,982,749.7969,978,753.7969" style="stroke:#181818;stroke-width:1.0;"/><line style="stroke:#181818;stroke-width:1.0;" x1="978" x2="978" y1="794.8906" y2="814.8906"/><polygon fill="#181818" points="974,804.8906,978,814.8906,982,804.8906,978,808.8906" style="stroke:#181818;stroke-width:1.0;"/><line style="stroke:#181818;stroke-width:1.0;" x1="978" x2="978" y1="849.9844" y2="869.9844"/><polygon fill="#181818" points="974,859.9844,978,869.9844,982,859.9844,978,863.9844" style="stroke:#181818;stroke-width:1.0;"/><line style="stroke:#181818;stroke-width:1.0;" x1="978" x2="978" y1="557" y2="649.6094"/><polygon fill="#181818" points="974,639.6094,978,649.6094,982,639.6094,978,643.6094" style="stroke:#181818;stroke-width:1.0;"/><line style="stroke:#181818;stroke-width:1.0;" x1="978" x2="978" y1="905.0781" y2="964.6875"/><polygon fill="#181818" points="974,954.6875,978,964.6875,982,954.6875,978,958.6875" style="stroke:#181818;stroke-width:1.0;"/><line style="stroke:#181818;stroke-width:1.0;" x1="295" x2="295" y1="1321.8711" y2="1401.5547"/><polygon fill="#181818" points="291,1391.5547,295,1401.5547,299,1391.5547,295,1395.5547" style="stroke:#181818;stroke-width:1.0;"/><line style="stroke:#181818;stroke-width:1.0;" x1="295" x2="295" y1="1436.6484" y2="1529.2578"/><polygon fill="#181818" points="291,1519.2578,295,1529.2578,299,1519.2578,295,1523.2578" style="stroke:#181818;stroke-width:1.0;"/><line style="stroke:#181818;stroke-width:1.0;" x1="148" x2="148" y1="1726.0547" y2="1761.0547"/><polygon fill="#181818" points="144,1751.0547,148,1761.0547,152,1751.0547,148,1755.0547" style="stroke:#181818;stroke-width:1.0;"/><line style="stroke:#181818;stroke-width:1.0;" x1="148" x2="148" y1="1796.1484" y2="1831.1484"/><polygon fill="#181818" points="144,1821.1484,148,1831.1484,152,1821.1484,148,1825.1484" style="stroke:#181818;stroke-width:1.0;"/><line style="stroke:#181818;stroke-width:1.0;" x1="442" x2="442" y1="1726.0547" y2="1761.0547"/><polygon fill="#181818" points="438,1751.0547,442,1761.0547,446,1751.0547,442,1755.0547" style="stroke:#181818;stroke-width:1.0;"/><line style="stroke:#181818;stroke-width:1.0;" x1="243" x2="148" y1="1631.3516" y2="1631.3516"/><line style="stroke:#181818;stroke-width:1.0;" x1="148" x2="148" y1="1631.3516" y2="1690.9609"/><polygon fill="#181818" points="144,1680.9609,148,1690.9609,152,1680.9609,148,1684.9609" style="stroke:#181818;stroke-width:1.0;"/><line style="stroke:#181818;stroke-width:1.0;" x1="347" x2="442" y1="1631.3516" y2="1631.3516"/><line style="stroke:#181818;stroke-width:1.0;" x1="442" x2="442" y1="1631.3516" y2="1690.9609"/><polygon fill="#181818" points="438,1680.9609,442,1690.9609,446,1680.9609,442,1684.9609" style="stroke:#181818;stroke-width:1.0;"/><line style="stroke:#181818;stroke-width:1.0;" x1="148" x2="148" y1="1866.2422" y2="1904.2422"/><line style="stroke:#181818;stroke-width:1.0;" x1="148" x2="283" y1="1904.2422" y2="1904.2422"/><polygon fill="#181818" points="273,1900.2422,283,1904.2422,273,1908.2422,277,1904.2422" style="stroke:#181818;stroke-width:1.0;"/><line style="stroke:#181818;stroke-width:1.0;" x1="442" x2="442" y1="1796.1484" y2="1904.2422"/><line style="stroke:#181818;stroke-width:1.0;" x1="442" x2="307" y1="1904.2422" y2="1904.2422"/><polygon fill="#181818" points="317,1900.2422,307,1904.2422,317,1908.2422,313,1904.2422" style="stroke:#181818;stroke-width:1.0;"/><line style="stroke:#181818;stroke-width:1.0;" x1="295" x2="295" y1="1564.3516" y2="1619.3516"/><polygon fill="#181818" points="291,1609.3516,295,1619.3516,299,1609.3516,295,1613.3516" style="stroke:#181818;stroke-width:1.0;"/><line style="stroke:#181818;stroke-width:1.0;" x1="903" x2="903" y1="1277.1875" y2="1312.1875"/><polygon fill="#181818" points="899,1302.1875,903,1312.1875,907,1302.1875,903,1306.1875" style="stroke:#181818;stroke-width:1.0;"/><line style="stroke:#181818;stroke-width:1.0;" x1="903" x2="903" y1="1347.2813" y2="1382.2813"/><polygon fill="#181818" points="899,1372.2813,903,1382.2813,907,1372.2813,903,1376.2813" style="stroke:#181818;stroke-width:1.0;"/><line style="stroke:#181818;stroke-width:1.0;" x1="903" x2="903" y1="1417.375" y2="1452.375"/><polygon fill="#181818" points="899,1442.375,903,1452.375,907,1442.375,903,1446.375" style="stroke:#181818;stroke-width:1.0;"/><line style="stroke:#181818;stroke-width:1.0;" x1="903" x2="903" y1="1487.4688" y2="1580.0781"/><polygon fill="#181818" points="899,1570.0781,903,1580.0781,907,1570.0781,903,1574.0781" style="stroke:#181818;stroke-width:1.0;"/><line style="stroke:#181818;stroke-width:1.0;" x1="756" x2="756" y1="1776.875" y2="1811.875"/><polygon fill="#181818" points="752,1801.875,756,1811.875,760,1801.875,756,1805.875" style="stroke:#181818;stroke-width:1.0;"/><line style="stroke:#181818;stroke-width:1.0;" x1="756" x2="756" y1="1846.9688" y2="1881.9688"/><polygon fill="#181818" points="752,1871.9688,756,1881.9688,760,1871.9688,756,1875.9688" style="stroke:#181818;stroke-width:1.0;"/><line style="stroke:#181818;stroke-width:1.0;" x1="1050" x2="1050" y1="1776.875" y2="1811.875"/><polygon fill="#181818" points="1046,1801.875,1050,1811.875,1054,1801.875,1050,1805.875" style="stroke:#181818;stroke-width:1.0;"/><line style="stroke:#181818;stroke-width:1.0;" x1="838" x2="756" y1="1682.1719" y2="1682.1719"/><line style="stroke:#181818;stroke-width:1.0;" x1="756" x2="756" y1="1682.1719" y2="1741.7813"/><polygon fill="#181818" points="752,1731.7813,756,1741.7813,760,1731.7813,756,1735.7813" style="stroke:#181818;stroke-width:1.0;"/><line style="stroke:#181818;stroke-width:1.0;" x1="968" x2="1050" y1="1682.1719" y2="1682.1719"/><line style="stroke:#181818;stroke-width:1.0;" x1="1050" x2="1050" y1="1682.1719" y2="1741.7813"/><polygon fill="#181818" points="1046,1731.7813,1050,1741.7813,1054,1731.7813,1050,1735.7813" style="stroke:#181818;stroke-width:1.0;"/><line style="stroke:#181818;stroke-width:1.0;" x1="756" x2="756" y1="1917.0625" y2="1947.0625"/><line style="stroke:#181818;stroke-width:1.0;" x1="756" x2="891" y1="1947.0625" y2="1947.0625"/><polygon fill="#181818" points="881,1943.0625,891,1947.0625,881,1951.0625,885,1947.0625" style="stroke:#181818;stroke-width:1.0;"/><line style="stroke:#181818;stroke-width:1.0;" x1="1050" x2="1050" y1="1846.9688" y2="1947.0625"/><line style="stroke:#181818;stroke-width:1.0;" x1="1050" x2="915" y1="1947.0625" y2="1947.0625"/><polygon fill="#181818" points="925,1943.0625,915,1947.0625,925,1951.0625,921,1947.0625" style="stroke:#181818;stroke-width:1.0;"/><line style="stroke:#181818;stroke-width:1.0;" x1="903" x2="903" y1="1615.1719" y2="1670.1719"/><polygon fill="#181818" points="899,1660.1719,903,1670.1719,907,1660.1719,903,1664.1719" style="stroke:#181818;stroke-width:1.0;"/><line style="stroke:#181818;stroke-width:1.0;" x1="545.5" x2="295" y1="1182.4844" y2="1182.4844"/><line style="stroke:#181818;stroke-width:1.0;" x1="295" x2="295" y1="1182.4844" y2="1286.7773"/><polygon fill="#181818" points="291,1276.7773,295,1286.7773,299,1276.7773,295,1280.7773" style="stroke:#181818;stroke-width:1.0;"/><line style="stroke:#181818;stroke-width:1.0;" x1="652.5" x2="903" y1="1182.4844" y2="1182.4844"/><line style="stroke:#181818;stroke-width:1.0;" x1="903" x2="903" y1="1182.4844" y2="1242.0938"/><polygon fill="#181818" points="899,1232.0938,903,1242.0938,907,1232.0938,903,1236.0938" style="stroke:#181818;stroke-width:1.0;"/><line style="stroke:#181818;stroke-width:1.0;" x1="295" x2="295" y1="1916.2422" y2="1977.0625"/><line style="stroke:#181818;stroke-width:1.0;" x1="295" x2="587" y1="1977.0625" y2="1977.0625"/><polygon fill="#181818" points="577,1973.0625,587,1977.0625,577,1981.0625,581,1977.0625" style="stroke:#181818;stroke-width:1.0;"/><line style="stroke:#181818;stroke-width:1.0;" x1="903" x2="903" y1="1959.0625" y2="1977.0625"/><line style="stroke:#181818;stroke-width:1.0;" x1="903" x2="611" y1="1977.0625" y2="1977.0625"/><polygon fill="#181818" points="621,1973.0625,611,1977.0625,621,1981.0625,617,1977.0625" style="stroke:#181818;stroke-width:1.0;"/><line style="stroke:#181818;stroke-width:1.0;" x1="599" x2="599" y1="1138.4844" y2="1170.4844"/><polygon fill="#181818" points="595,1160.4844,599,1170.4844,603,1160.4844,599,1164.4844" style="stroke:#181818;stroke-width:1.0;"/><line style="stroke:#181818;stroke-width:1.0;" x1="896" x2="599" y1="1043.7813" y2="1043.7813"/><line style="stroke:#181818;stroke-width:1.0;" x1="599" x2="599" y1="1043.7813" y2="1103.3906"/><polygon fill="#181818" points="595,1093.3906,599,1103.3906,603,1093.3906,599,1097.3906" style="stroke:#181818;stroke-width:1.0;"/><line style="stroke:#181818;stroke-width:1.0;" x1="1060" x2="1357" y1="1043.7813" y2="1043.7813"/><line style="stroke:#181818;stroke-width:1.0;" x1="1357" x2="1357" y1="1043.7813" y2="1103.3906"/><polygon fill="#181818" points="1353,1093.3906,1357,1103.3906,1361,1093.3906,1357,1097.3906" style="stroke:#181818;stroke-width:1.0;"/><line style="stroke:#181818;stroke-width:1.0;" x1="599" x2="599" y1="1989.0625" y2="2007.0625"/><line style="stroke:#181818;stroke-width:1.0;" x1="599" x2="966" y1="2007.0625" y2="2007.0625"/><polygon fill="#181818" points="956,2003.0625,966,2007.0625,956,2011.0625,960,2007.0625" style="stroke:#181818;stroke-width:1.0;"/><line style="stroke:#181818;stroke-width:1.0;" x1="1357" x2="1357" y1="1138.4844" y2="2007.0625"/><line style="stroke:#181818;stroke-width:1.0;" x1="1357" x2="990" y1="2007.0625" y2="2007.0625"/><polygon fill="#181818" points="1000,2003.0625,990,2007.0625,1000,2011.0625,996,2007.0625" style="stroke:#181818;stroke-width:1.0;"/><line style="stroke:#181818;stroke-width:1.0;" x1="978" x2="978" y1="999.7813" y2="1031.7813"/><polygon fill="#181818" points="974,1021.7813,978,1031.7813,982,1021.7813,978,1025.7813" style="stroke:#181818;stroke-width:1.0;"/><line style="stroke:#181818;stroke-width:1.0;" x1="1606.5" x2="1606.5" y1="494.9063" y2="579.5156"/><polygon fill="#181818" points="1602.5,569.5156,1606.5,579.5156,1610.5,569.5156,1606.5,573.5156" style="stroke:#181818;stroke-width:1.0;"/><line style="stroke:#181818;stroke-width:1.0;" x1="1261.75" x2="978" y1="400.2031" y2="400.2031"/><line style="stroke:#181818;stroke-width:1.0;" x1="978" x2="978" y1="400.2031" y2="459.8125"/><polygon fill="#181818" points="974,449.8125,978,459.8125,982,449.8125,978,453.8125" style="stroke:#181818;stroke-width:1.0;"/><line style="stroke:#181818;stroke-width:1.0;" x1="1342.75" x2="1606.5" y1="400.2031" y2="400.2031"/><line style="stroke:#181818;stroke-width:1.0;" x1="1606.5" x2="1606.5" y1="400.2031" y2="459.8125"/><polygon fill="#181818" points="1602.5,449.8125,1606.5,459.8125,1610.5,449.8125,1606.5,453.8125" style="stroke:#181818;stroke-width:1.0;"/><line style="stroke:#181818;stroke-width:1.0;" x1="978" x2="978" y1="2019.0625" y2="2037.0625"/><line style="stroke:#181818;stroke-width:1.0;" x1="978" x2="1290.25" y1="2037.0625" y2="2037.0625"/><polygon fill="#181818" points="1280.25,2033.0625,1290.25,2037.0625,1280.25,2041.0625,1284.25,2037.0625" style="stroke:#181818;stroke-width:1.0;"/><line style="stroke:#181818;stroke-width:1.0;" x1="1606.5" x2="1606.5" y1="614.6094" y2="2037.0625"/><line style="stroke:#181818;stroke-width:1.0;" x1="1606.5" x2="1314.25" y1="2037.0625" y2="2037.0625"/><polygon fill="#181818" points="1324.25,2033.0625,1314.25,2037.0625,1324.25,2041.0625,1320.25,2037.0625" style="stroke:#181818;stroke-width:1.0;"/><line style="stroke:#181818;stroke-width:1.0;" x1="1302.25" x2="1302.25" y1="356.2031" y2="388.2031"/><polygon fill="#181818" points="1298.25,378.2031,1302.25,388.2031,1306.25,378.2031,1302.25,382.2031" style="stroke:#181818;stroke-width:1.0;"/><line style="stroke:#181818;stroke-width:1.0;" x1="1302.25" x2="1302.25" y1="2049.0625" y2="2069.0625"/><polygon fill="#181818" points="1298.25,2059.0625,1302.25,2069.0625,1306.25,2059.0625,1302.25,2063.0625" style="stroke:#181818;stroke-width:1.0;"/><!--SRC=[xLR9Rjim4BthAmOvEOVq0-93uS95BqaHmCsXnr55ImDI945I2Op2_rvIYxNHje8aj-fWI-BCyBqtY-Z82GQRFuvUo1rWIvWRBE4ETcHV4HwPp9bG0k79g3q9sE41ayGwD2v9jFybHqh2JMr-0tyJyDTzurooCgquGe42IvGWL4voFR50Mt7k5olBZCIIGUOVD5hxgamsCkQ2E3XLfah0GnFgECNWM7a2ySXAPeXRz24TDhk33Q5gHzh3gWu3BoWe-teBhc0ILh_nDga3d6Ctn1_G0m-WRP4gx12FAPAWml_BgXMniJd6TXdWRpbuJJI9e50duo0JwxXbIggct9ADsXYIEKVhxv3NoKTxqNwlJ0dFAHOZ4d6p7oWTmTCeYSVbeZAl5phG3Kzxujc628bhB3q5dxxoLAEDnpoJrpQEf0kvfJPUp_JOXmiWDi7cW3A7Z7JmEkqyq6a0OGcC4HIPLo5GdSifbkwIoZ6VpBnmiwLjy6lmeVQ2PXJ2tS_ixk2dBwp8w-ybaeYPgo_Wc61QoSZg9fIfYorOzEbatAUgY2n_8pLxosHMCpodqN0cxAZKf_OO2tMyb8H9pmtAUZG_zFMueIYslUsvmV9cA5sN7Hg6cfcGo71tfYXcRQbPwFIKcGBj8WVkPxT7Vtded9612SjWzOiovEzbF270Z57ciz7BZFRzguRCUAAzhwSfJ9OsafzklZ59qdgnHugckchDbToJyP-dfOx3HdhMlk3PP7v_Q2ijYTmtKqVWizhfia3_U-dZUgb_ZFDQ-95smIsS4v1N_E90RF6q6yytNNxwQaHh3f4vvYZUUgpfTFIdnSY1sCTfGLgdTF8F]--></g></svg>