<?xml version="1.0" encoding="us-ascii" standalone="no"?><svg xmlns="http://www.w3.org/2000/svg" xmlns:xlink="http://www.w3.org/1999/xlink" contentStyleType="text/css" height="393px" preserveAspectRatio="none" style="width:757px;height:393px;background:#FFFFFF;" version="1.1" viewBox="0 0 757 393" width="757px" zoomAndPan="magnify"><defs/><g><text fill="#000000" font-family="sans-serif" font-size="14" font-weight="bold" lengthAdjust="spacing" textLength="414" x="172.75" y="29.5332">Sequence Diagram - Pengunjung Mengakses Landing Page</text><rect fill="none" height="109.4063" style="stroke:#000000;stroke-width:1.5;" width="678.5" x="10" y="259.625"/><line style="stroke:#6B7280;stroke-width:0.5;stroke-dasharray:5.0,5.0;" x1="61" x2="61" y1="121.2188" y2="386.0313"/><line style="stroke:#6B7280;stroke-width:0.5;stroke-dasharray:5.0,5.0;" x1="396.5" x2="396.5" y1="121.2188" y2="386.0313"/><line style="stroke:#6B7280;stroke-width:0.5;stroke-dasharray:5.0,5.0;" x1="613.5" x2="613.5" y1="121.2188" y2="386.0313"/><line style="stroke:#6B7280;stroke-width:0.5;stroke-dasharray:5.0,5.0;" x1="721.5" x2="721.5" y1="121.2188" y2="386.0313"/><text fill="#000000" font-family="sans-serif" font-size="14" lengthAdjust="spacing" textLength="76" x="20" y="118.1426">Pengunjung</text><ellipse cx="61" cy="52.1094" fill="#FFFFFF" rx="8" ry="8" style="stroke:#111827;stroke-width:0.5;"/><path d="M61,60.1094 L61,87.1094 M48,68.1094 L74,68.1094 M61,87.1094 L48,102.1094 M61,87.1094 L74,102.1094 " fill="none" style="stroke:#111827;stroke-width:0.5;"/><text fill="#000000" font-family="sans-serif" font-size="14" lengthAdjust="spacing" textLength="101" x="343.5" y="118.1426">Halaman Sistem</text><path d="M376.5,75.6094 L376.5,99.6094 M376.5,87.6094 L393.5,87.6094 " fill="none" style="stroke:#181818;stroke-width:0.5;"/><ellipse cx="405.5" cy="87.6094" fill="#E2E2F0" rx="12" ry="12" style="stroke:#181818;stroke-width:0.5;"/><text fill="#000000" font-family="sans-serif" font-size="14" lengthAdjust="spacing" textLength="123" x="549.5" y="118.1426">Sistem BimbelOrion</text><ellipse cx="614" cy="87.6094" fill="#E2E2F0" rx="12" ry="12" style="stroke:#181818;stroke-width:0.5;"/><polygon fill="#181818" points="610,75.6094,616,70.6094,614,75.6094,616,80.6094,610,75.6094" style="stroke:#181818;stroke-width:1.0;"/><text fill="#000000" font-family="sans-serif" font-size="14" lengthAdjust="spacing" textLength="61" x="688.5" y="118.1426">Database</text><path d="M704,67.6094 C704,57.6094 722,57.6094 722,57.6094 C722,57.6094 740,57.6094 740,67.6094 L740,93.6094 C740,103.6094 722,103.6094 722,103.6094 C722,103.6094 704,103.6094 704,93.6094 L704,67.6094 " fill="#E2E2F0" style="stroke:#181818;stroke-width:1.5;"/><path d="M704,67.6094 C704,77.6094 722,77.6094 722,77.6094 C722,77.6094 740,77.6094 740,67.6094 " fill="none" style="stroke:#181818;stroke-width:1.5;"/><polygon fill="#2F4F8F" points="385,149.5703,395,153.5703,385,157.5703,389,153.5703" style="stroke:#2F4F8F;stroke-width:1.0;"/><line style="stroke:#2F4F8F;stroke-width:1.0;" x1="61" x2="391" y1="153.5703" y2="153.5703"/><text fill="#000000" font-family="sans-serif" font-size="13" font-weight="bold" lengthAdjust="spacing" textLength="7" x="68" y="148.7139">1</text><text fill="#000000" font-family="sans-serif" font-size="13" lengthAdjust="spacing" textLength="169" x="79" y="148.7139">Membuka URL utama sistem</text><polygon fill="#2F4F8F" points="602,179.9219,612,183.9219,602,187.9219,606,183.9219" style="stroke:#2F4F8F;stroke-width:1.0;"/><line style="stroke:#2F4F8F;stroke-width:1.0;" x1="397" x2="608" y1="183.9219" y2="183.9219"/><text fill="#000000" font-family="sans-serif" font-size="13" font-weight="bold" lengthAdjust="spacing" textLength="7" x="404" y="179.0654">2</text><text fill="#000000" font-family="sans-serif" font-size="13" lengthAdjust="spacing" textLength="138" x="415" y="179.0654">Meminta halaman index</text><polygon fill="#2F4F8F" points="408,210.2734,398,214.2734,408,218.2734,404,214.2734" style="stroke:#2F4F8F;stroke-width:1.0;"/><line style="stroke:#2F4F8F;stroke-width:1.0;stroke-dasharray:2.0,2.0;" x1="402" x2="613" y1="214.2734" y2="214.2734"/><text fill="#000000" font-family="sans-serif" font-size="13" font-weight="bold" lengthAdjust="spacing" textLength="7" x="414" y="209.417">3</text><text fill="#000000" font-family="sans-serif" font-size="13" lengthAdjust="spacing" textLength="155" x="425" y="209.417">Mengirim hasil ke halaman</text><polygon fill="#2F4F8F" points="72,240.625,62,244.625,72,248.625,68,244.625" style="stroke:#2F4F8F;stroke-width:1.0;"/><line style="stroke:#2F4F8F;stroke-width:1.0;stroke-dasharray:2.0,2.0;" x1="66" x2="396" y1="244.625" y2="244.625"/><text fill="#000000" font-family="sans-serif" font-size="13" font-weight="bold" lengthAdjust="spacing" textLength="7" x="78" y="239.7686">4</text><text fill="#000000" font-family="sans-serif" font-size="13" lengthAdjust="spacing" textLength="301" x="89" y="239.7686">Tampilkan informasi program, login, dan pendaftaran</text><path d="M10,259.625 L75,259.625 L75,267.9766 L65,277.9766 L10,277.9766 L10,259.625 " fill="#EEEEEE" style="stroke:#000000;stroke-width:1.5;"/><rect fill="none" height="109.4063" style="stroke:#000000;stroke-width:1.5;" width="678.5" x="10" y="259.625"/><text fill="#000000" font-family="sans-serif" font-size="13" font-weight="bold" lengthAdjust="spacing" textLength="20" x="25" y="274.1201">opt</text><text fill="#000000" font-family="sans-serif" font-size="11" font-weight="bold" lengthAdjust="spacing" textLength="293" x="90" y="273.0439">[Pengunjung memilih Login / Pendaftaran / Kebijakan]</text><polygon fill="#2F4F8F" points="385,296.3281,395,300.3281,385,304.3281,389,300.3281" style="stroke:#2F4F8F;stroke-width:1.0;"/><line style="stroke:#2F4F8F;stroke-width:1.0;" x1="61" x2="391" y1="300.3281" y2="300.3281"/><text fill="#000000" font-family="sans-serif" font-size="13" font-weight="bold" lengthAdjust="spacing" textLength="7" x="68" y="295.4717">5</text><text fill="#000000" font-family="sans-serif" font-size="13" lengthAdjust="spacing" textLength="96" x="79" y="295.4717">Klik menu publik</text><polygon fill="#2F4F8F" points="602,326.6797,612,330.6797,602,334.6797,606,330.6797" style="stroke:#2F4F8F;stroke-width:1.0;"/><line style="stroke:#2F4F8F;stroke-width:1.0;" x1="397" x2="608" y1="330.6797" y2="330.6797"/><text fill="#000000" font-family="sans-serif" font-size="13" font-weight="bold" lengthAdjust="spacing" textLength="7" x="404" y="325.8232">6</text><text fill="#000000" font-family="sans-serif" font-size="13" lengthAdjust="spacing" textLength="182" x="415" y="325.8232">Mengirim permintaan ke sistem</text><polygon fill="#2F4F8F" points="408,357.0313,398,361.0313,408,365.0313,404,361.0313" style="stroke:#2F4F8F;stroke-width:1.0;"/><line style="stroke:#2F4F8F;stroke-width:1.0;stroke-dasharray:2.0,2.0;" x1="402" x2="613" y1="361.0313" y2="361.0313"/><text fill="#000000" font-family="sans-serif" font-size="13" font-weight="bold" lengthAdjust="spacing" textLength="7" x="414" y="356.1748">7</text><text fill="#000000" font-family="sans-serif" font-size="13" lengthAdjust="spacing" textLength="155" x="425" y="356.1748">Mengirim hasil ke halaman</text><!--SRC=[bLBDRjD04BxlKupCjH4a0XfwG8eRBAGQ4L5uW74yTgPUxvhzKOCGxyxOiHj7BGTyMi_tCxFVJk2W2UxfPoIp9zWorWvRMC2EJ1tDGpGrV94ZDfuyv6XAbieEQr87BWagQqDXZmfZi2Qs1Jdb6pOTzYx-WALzx0KLQazpP6huMm5idBEFjrPR1wzMsTjidKanvufoDfHQLv8RqVVfzMhzPexYlgcTZQOS6Tc7R9EbmjYX2xpd3asui7XgC2SySrbdQTQJDljWtOL-kLokLzTFq3Fby0cSskE5xZRTllkq785_gFuefR2tXUGSVmBePw-XYbw7xXSadr5ZYmRksGTg1zvOKdjhWhCQaXC6ASlJwA-EhHbufx8gCM21dY3PZgS1dNwKcct1ukFaVYCRqHQnGVZnBOSOf0R-P3YD9EHJYu7B9Y0SHeXDIKSrphMuT3KrEsw5wbb3GvFcR2lqyqWty1tRZdKpk5RMjQA3pjb-XQz0svhD5PI2TYIHLK5MpoZRXVbojpAUvWFaFHjUzz14bRyxAlW1fK6_C2zdSQUv4HSJeOk5d8NvOWhZtJfoGnu2omN7s03-Bm-PyIy0]--></g></svg>