<?xml version="1.0" encoding="us-ascii" standalone="no"?><svg xmlns="http://www.w3.org/2000/svg" xmlns:xlink="http://www.w3.org/1999/xlink" contentStyleType="text/css" height="465px" preserveAspectRatio="none" style="width:986px;height:465px;background:#FFFFFF;" version="1.1" viewBox="0 0 986 465" width="986px" zoomAndPan="magnify"><defs/><g><text fill="#000000" font-family="sans-serif" font-size="14" font-weight="bold" lengthAdjust="spacing" textLength="345" x="321.75" y="29.5332">Sequence Diagram - Guru Mengakses Dashboard</text><rect fill="none" height="198.9453" style="stroke:#000000;stroke-width:1.5;" width="806" x="10" y="242.2734"/><line style="stroke:#6B7280;stroke-width:0.5;stroke-dasharray:5.0,5.0;" x1="39" x2="39" y1="121.2188" y2="458.2188"/><line style="stroke:#6B7280;stroke-width:0.5;stroke-dasharray:5.0,5.0;" x1="356.5" x2="356.5" y1="121.2188" y2="458.2188"/><line style="stroke:#6B7280;stroke-width:0.5;stroke-dasharray:5.0,5.0;" x1="634.5" x2="634.5" y1="121.2188" y2="458.2188"/><line style="stroke:#6B7280;stroke-width:0.5;stroke-dasharray:5.0,5.0;" x1="950.5" x2="950.5" y1="121.2188" y2="458.2188"/><text fill="#000000" font-family="sans-serif" font-size="14" lengthAdjust="spacing" textLength="32" x="20" y="118.1426">Guru</text><ellipse cx="39" cy="52.1094" fill="#FFFFFF" rx="8" ry="8" style="stroke:#111827;stroke-width:0.5;"/><path d="M39,60.1094 L39,87.1094 M26,68.1094 L52,68.1094 M39,87.1094 L26,102.1094 M39,87.1094 L52,102.1094 " fill="none" style="stroke:#111827;stroke-width:0.5;"/><text fill="#000000" font-family="sans-serif" font-size="14" lengthAdjust="spacing" textLength="101" x="303.5" y="118.1426">Halaman Sistem</text><path d="M336.5,75.6094 L336.5,99.6094 M336.5,87.6094 L353.5,87.6094 " fill="none" style="stroke:#181818;stroke-width:0.5;"/><ellipse cx="365.5" cy="87.6094" fill="#E2E2F0" rx="12" ry="12" style="stroke:#181818;stroke-width:0.5;"/><text fill="#000000" font-family="sans-serif" font-size="14" lengthAdjust="spacing" textLength="123" x="570.5" y="118.1426">Sistem BimbelOrion</text><ellipse cx="635" cy="87.6094" fill="#E2E2F0" rx="12" ry="12" style="stroke:#181818;stroke-width:0.5;"/><polygon fill="#181818" points="631,75.6094,637,70.6094,635,75.6094,637,80.6094,631,75.6094" style="stroke:#181818;stroke-width:1.0;"/><text fill="#000000" font-family="sans-serif" font-size="14" lengthAdjust="spacing" textLength="61" x="917.5" y="118.1426">Database</text><path d="M933,67.6094 C933,57.6094 951,57.6094 951,57.6094 C951,57.6094 969,57.6094 969,67.6094 L969,93.6094 C969,103.6094 951,103.6094 951,103.6094 C951,103.6094 933,103.6094 933,93.6094 L933,67.6094 " fill="#E2E2F0" style="stroke:#181818;stroke-width:1.5;"/><path d="M933,67.6094 C933,77.6094 951,77.6094 951,77.6094 C951,77.6094 969,77.6094 969,67.6094 " fill="none" style="stroke:#181818;stroke-width:1.5;"/><polygon fill="#2F4F8F" points="345,149.5703,355,153.5703,345,157.5703,349,153.5703" style="stroke:#2F4F8F;stroke-width:1.0;"/><line style="stroke:#2F4F8F;stroke-width:1.0;" x1="39" x2="351" y1="153.5703" y2="153.5703"/><text fill="#000000" font-family="sans-serif" font-size="13" font-weight="bold" lengthAdjust="spacing" textLength="7" x="46" y="148.7139">1</text><text fill="#000000" font-family="sans-serif" font-size="13" lengthAdjust="spacing" textLength="159" x="57" y="148.7139">Pilih menu Dashboard Guru</text><polygon fill="#2F4F8F" points="623,179.9219,633,183.9219,623,187.9219,627,183.9219" style="stroke:#2F4F8F;stroke-width:1.0;"/><line style="stroke:#2F4F8F;stroke-width:1.0;" x1="357" x2="629" y1="183.9219" y2="183.9219"/><text fill="#000000" font-family="sans-serif" font-size="13" font-weight="bold" lengthAdjust="spacing" textLength="7" x="364" y="179.0654">2</text><text fill="#000000" font-family="sans-serif" font-size="13" lengthAdjust="spacing" textLength="196" x="375" y="179.0654">Meminta halaman guru dashboard</text><line style="stroke:#2F4F8F;stroke-width:1.0;" x1="635" x2="677" y1="214.2734" y2="214.2734"/><line style="stroke:#2F4F8F;stroke-width:1.0;" x1="677" x2="677" y1="214.2734" y2="227.2734"/><line style="stroke:#2F4F8F;stroke-width:1.0;" x1="636" x2="677" y1="227.2734" y2="227.2734"/><polygon fill="#2F4F8F" points="646,223.2734,636,227.2734,646,231.2734,642,227.2734" style="stroke:#2F4F8F;stroke-width:1.0;"/><text fill="#000000" font-family="sans-serif" font-size="13" font-weight="bold" lengthAdjust="spacing" textLength="7" x="642" y="209.417">3</text><text fill="#000000" font-family="sans-serif" font-size="13" lengthAdjust="spacing" textLength="291" x="653" y="209.417">Memastikan pengguna sudah masuk sebagai guru</text><path d="M10,242.2734 L71,242.2734 L71,250.625 L61,260.625 L10,260.625 L10,242.2734 " fill="#EEEEEE" style="stroke:#000000;stroke-width:1.5;"/><rect fill="none" height="198.9453" style="stroke:#000000;stroke-width:1.5;" width="806" x="10" y="242.2734"/><text fill="#000000" font-family="sans-serif" font-size="13" font-weight="bold" lengthAdjust="spacing" textLength="16" x="25" y="256.7686">alt</text><text fill="#000000" font-family="sans-serif" font-size="11" font-weight="bold" lengthAdjust="spacing" textLength="209" x="86" y="255.6924">[Sesi login benar dan hak akses guru]</text><line style="stroke:#2F4F8F;stroke-width:1.0;" x1="635" x2="677" y1="282.9766" y2="282.9766"/><line style="stroke:#2F4F8F;stroke-width:1.0;" x1="677" x2="677" y1="282.9766" y2="295.9766"/><line style="stroke:#2F4F8F;stroke-width:1.0;" x1="636" x2="677" y1="295.9766" y2="295.9766"/><polygon fill="#2F4F8F" points="646,291.9766,636,295.9766,646,299.9766,642,295.9766" style="stroke:#2F4F8F;stroke-width:1.0;"/><text fill="#000000" font-family="sans-serif" font-size="13" font-weight="bold" lengthAdjust="spacing" textLength="7" x="642" y="278.1201">4</text><text fill="#000000" font-family="sans-serif" font-size="13" lengthAdjust="spacing" textLength="151" x="653" y="278.1201">Menyiapkan isi dashboard</text><polygon fill="#2F4F8F" points="368,322.3281,358,326.3281,368,330.3281,364,326.3281" style="stroke:#2F4F8F;stroke-width:1.0;"/><line style="stroke:#2F4F8F;stroke-width:1.0;stroke-dasharray:2.0,2.0;" x1="362" x2="634" y1="326.3281" y2="326.3281"/><text fill="#000000" font-family="sans-serif" font-size="13" font-weight="bold" lengthAdjust="spacing" textLength="7" x="374" y="321.4717">5</text><text fill="#000000" font-family="sans-serif" font-size="13" lengthAdjust="spacing" textLength="155" x="385" y="321.4717">Mengirim hasil ke halaman</text><polygon fill="#2F4F8F" points="50,352.6797,40,356.6797,50,360.6797,46,356.6797" style="stroke:#2F4F8F;stroke-width:1.0;"/><line style="stroke:#2F4F8F;stroke-width:1.0;stroke-dasharray:2.0,2.0;" x1="44" x2="356" y1="356.6797" y2="356.6797"/><text fill="#000000" font-family="sans-serif" font-size="13" font-weight="bold" lengthAdjust="spacing" textLength="7" x="56" y="351.8232">6</text><text fill="#000000" font-family="sans-serif" font-size="13" lengthAdjust="spacing" textLength="212" x="67" y="351.8232">Tampilkan ringkasan dashboard guru</text><line style="stroke:#000000;stroke-width:1.0;stroke-dasharray:2.0,2.0;" x1="10" x2="816" y1="365.6797" y2="365.6797"/><text fill="#000000" font-family="sans-serif" font-size="11" font-weight="bold" lengthAdjust="spacing" textLength="225" x="15" y="377.0986">[Sesi login tidak benar / hak akses salah]</text><polygon fill="#2F4F8F" points="368,398.8672,358,402.8672,368,406.8672,364,402.8672" style="stroke:#2F4F8F;stroke-width:1.0;"/><line style="stroke:#2F4F8F;stroke-width:1.0;stroke-dasharray:2.0,2.0;" x1="362" x2="634" y1="402.8672" y2="402.8672"/><text fill="#000000" font-family="sans-serif" font-size="13" font-weight="bold" lengthAdjust="spacing" textLength="7" x="374" y="398.0107">7</text><text fill="#000000" font-family="sans-serif" font-size="13" lengthAdjust="spacing" textLength="243" x="385" y="398.0107">Mengalihkan ke login atau menolak akses</text><polygon fill="#2F4F8F" points="50,429.2188,40,433.2188,50,437.2188,46,433.2188" style="stroke:#2F4F8F;stroke-width:1.0;"/><line style="stroke:#2F4F8F;stroke-width:1.0;stroke-dasharray:2.0,2.0;" x1="44" x2="356" y1="433.2188" y2="433.2188"/><text fill="#000000" font-family="sans-serif" font-size="13" font-weight="bold" lengthAdjust="spacing" textLength="7" x="56" y="428.3623">8</text><text fill="#000000" font-family="sans-serif" font-size="13" lengthAdjust="spacing" textLength="283" x="67" y="428.3623">Menampilkan pesan bahwa akses tidak diizinkan</text><!--SRC=[VLFBRjim4BppAnREEMXjf8thGm4hhjf3YWP8Vs0bqj925Ado0ISj-kzTwcKPIQgJn9cTcUMk0WMju57zYigK2Ww4bSCMhk5hT16-ArDXuvM70_gwiEYag4agE5eR2liaC0PhObie9tn3fiDKx6kKzaIcWYDghvR8vFD70EoTiwSxgws3gqr-aszpFhodexedepBhf78Z-Z6xtMpVBr4icyhPQEJ8o3_b-pnZnWEwG2LrQCA5n6om9BnGsUPPdaZxCbXtKRzUhxURsnbwKTa_36VswQBkBZjy-B8UWJUg_WeXCCd2Ajtw2j3tro-An4Nt3AjlgB550u_aWsfxndWaIck2infM0mOPyJZq3qVMzBpXM4WCMA1Ni3gCRpqwVGZH3_pwywIxWmVIL4EhJ3nFVyWrfM7seBxZJMd918HwXAga9kUb6RDT5g0Fr32tuoshea7mKI8xeeyDhqg15L8l9507tb5Fe6r51WfbqB6wORi6XWNjUG2l6PbdmYuP4IkSCvt9owxJofEZbgKzQMZKr1Bpvxwv85t43dvYsv5EsextlK7FRxF3a4dnBx0C7qXowA65Tui6F8lN_mc5F8ran8a68PvSJEEnUj9uDIBNpY4xbG8MM9zmT1tIIABVP9WXb97_0000]--></g></svg>