<?xml version="1.0" encoding="us-ascii" standalone="no"?><svg xmlns="http://www.w3.org/2000/svg" xmlns:xlink="http://www.w3.org/1999/xlink" contentStyleType="text/css" height="373px" preserveAspectRatio="none" style="width:786px;height:373px;background:#FFFFFF;" version="1.1" viewBox="0 0 786 373" width="786px" zoomAndPan="magnify"><defs/><g><text fill="#000000" font-family="sans-serif" font-size="14" font-weight="bold" lengthAdjust="spacing" textLength="358" x="215.25" y="29.5332">Sequence Diagram - Guru Melihat Jadwal Mengajar</text><line style="stroke:#6B7280;stroke-width:0.5;stroke-dasharray:5.0,5.0;" x1="24" x2="24" y1="121.2188" y2="366.6797"/><line style="stroke:#6B7280;stroke-width:0.5;stroke-dasharray:5.0,5.0;" x1="272.5" x2="272.5" y1="121.2188" y2="366.6797"/><line style="stroke:#6B7280;stroke-width:0.5;stroke-dasharray:5.0,5.0;" x1="479.5" x2="479.5" y1="121.2188" y2="366.6797"/><line style="stroke:#6B7280;stroke-width:0.5;stroke-dasharray:5.0,5.0;" x1="750.5" x2="750.5" y1="121.2188" y2="366.6797"/><text fill="#000000" font-family="sans-serif" font-size="14" lengthAdjust="spacing" textLength="32" x="5" y="118.1426">Guru</text><ellipse cx="24" cy="52.1094" fill="#FFFFFF" rx="8" ry="8" style="stroke:#111827;stroke-width:0.5;"/><path d="M24,60.1094 L24,87.1094 M11,68.1094 L37,68.1094 M24,87.1094 L11,102.1094 M24,87.1094 L37,102.1094 " fill="none" style="stroke:#111827;stroke-width:0.5;"/><text fill="#000000" font-family="sans-serif" font-size="14" lengthAdjust="spacing" textLength="101" x="219.5" y="118.1426">Halaman Sistem</text><path d="M252.5,75.6094 L252.5,99.6094 M252.5,87.6094 L269.5,87.6094 " fill="none" style="stroke:#181818;stroke-width:0.5;"/><ellipse cx="281.5" cy="87.6094" fill="#E2E2F0" rx="12" ry="12" style="stroke:#181818;stroke-width:0.5;"/><text fill="#000000" font-family="sans-serif" font-size="14" lengthAdjust="spacing" textLength="123" x="415.5" y="118.1426">Sistem BimbelOrion</text><ellipse cx="480" cy="87.6094" fill="#E2E2F0" rx="12" ry="12" style="stroke:#181818;stroke-width:0.5;"/><polygon fill="#181818" points="476,75.6094,482,70.6094,480,75.6094,482,80.6094,476,75.6094" style="stroke:#181818;stroke-width:1.0;"/><text fill="#000000" font-family="sans-serif" font-size="14" lengthAdjust="spacing" textLength="61" x="717.5" y="118.1426">Database</text><path d="M733,67.6094 C733,57.6094 751,57.6094 751,57.6094 C751,57.6094 769,57.6094 769,67.6094 L769,93.6094 C769,103.6094 751,103.6094 751,103.6094 C751,103.6094 733,103.6094 733,93.6094 L733,67.6094 " fill="#E2E2F0" style="stroke:#181818;stroke-width:1.5;"/><path d="M733,67.6094 C733,77.6094 751,77.6094 751,77.6094 C751,77.6094 769,77.6094 769,67.6094 " fill="none" style="stroke:#181818;stroke-width:1.5;"/><polygon fill="#2F4F8F" points="261,149.5703,271,153.5703,261,157.5703,265,153.5703" style="stroke:#2F4F8F;stroke-width:1.0;"/><line style="stroke:#2F4F8F;stroke-width:1.0;" x1="24" x2="267" y1="153.5703" y2="153.5703"/><text fill="#000000" font-family="sans-serif" font-size="13" font-weight="bold" lengthAdjust="spacing" textLength="7" x="31" y="148.7139">1</text><text fill="#000000" font-family="sans-serif" font-size="13" lengthAdjust="spacing" textLength="166" x="42" y="148.7139">Buka menu Jadwal Mengajar</text><polygon fill="#2F4F8F" points="468,179.9219,478,183.9219,468,187.9219,472,183.9219" style="stroke:#2F4F8F;stroke-width:1.0;"/><line style="stroke:#2F4F8F;stroke-width:1.0;" x1="273" x2="474" y1="183.9219" y2="183.9219"/><text fill="#000000" font-family="sans-serif" font-size="13" font-weight="bold" lengthAdjust="spacing" textLength="7" x="280" y="179.0654">2</text><text fill="#000000" font-family="sans-serif" font-size="13" lengthAdjust="spacing" textLength="172" x="291" y="179.0654">Meminta halaman guru jadwal</text><line style="stroke:#2F4F8F;stroke-width:1.0;" x1="480" x2="522" y1="214.2734" y2="214.2734"/><line style="stroke:#2F4F8F;stroke-width:1.0;" x1="522" x2="522" y1="214.2734" y2="227.2734"/><line style="stroke:#2F4F8F;stroke-width:1.0;" x1="481" x2="522" y1="227.2734" y2="227.2734"/><polygon fill="#2F4F8F" points="491,223.2734,481,227.2734,491,231.2734,487,227.2734" style="stroke:#2F4F8F;stroke-width:1.0;"/><text fill="#000000" font-family="sans-serif" font-size="13" font-weight="bold" lengthAdjust="spacing" textLength="7" x="487" y="209.417">3</text><text fill="#000000" font-family="sans-serif" font-size="13" lengthAdjust="spacing" textLength="185" x="498" y="209.417">Memastikan hak aksesnya guru</text><polygon fill="#2F4F8F" points="739,253.625,749,257.625,739,261.625,743,257.625" style="stroke:#2F4F8F;stroke-width:1.0;"/><line style="stroke:#2F4F8F;stroke-width:1.0;" x1="480" x2="745" y1="257.625" y2="257.625"/><text fill="#000000" font-family="sans-serif" font-size="13" font-weight="bold" lengthAdjust="spacing" textLength="7" x="487" y="252.7686">4</text><text fill="#000000" font-family="sans-serif" font-size="13" lengthAdjust="spacing" textLength="236" x="498" y="252.7686">Mengambil data jadwal berdasarkan guru</text><polygon fill="#2F4F8F" points="491,283.9766,481,287.9766,491,291.9766,487,287.9766" style="stroke:#2F4F8F;stroke-width:1.0;"/><line style="stroke:#2F4F8F;stroke-width:1.0;stroke-dasharray:2.0,2.0;" x1="485" x2="750" y1="287.9766" y2="287.9766"/><text fill="#000000" font-family="sans-serif" font-size="13" font-weight="bold" lengthAdjust="spacing" textLength="7" x="497" y="283.1201">5</text><text fill="#000000" font-family="sans-serif" font-size="13" lengthAdjust="spacing" textLength="129" x="508" y="283.1201">Mengirim daftar jadwal</text><polygon fill="#2F4F8F" points="284,314.3281,274,318.3281,284,322.3281,280,318.3281" style="stroke:#2F4F8F;stroke-width:1.0;"/><line style="stroke:#2F4F8F;stroke-width:1.0;stroke-dasharray:2.0,2.0;" x1="278" x2="479" y1="318.3281" y2="318.3281"/><text fill="#000000" font-family="sans-serif" font-size="13" font-weight="bold" lengthAdjust="spacing" textLength="7" x="290" y="313.4717">6</text><text fill="#000000" font-family="sans-serif" font-size="13" lengthAdjust="spacing" textLength="155" x="301" y="313.4717">Mengirim hasil ke halaman</text><polygon fill="#2F4F8F" points="35,344.6797,25,348.6797,35,352.6797,31,348.6797" style="stroke:#2F4F8F;stroke-width:1.0;"/><line style="stroke:#2F4F8F;stroke-width:1.0;stroke-dasharray:2.0,2.0;" x1="29" x2="272" y1="348.6797" y2="348.6797"/><text fill="#000000" font-family="sans-serif" font-size="13" font-weight="bold" lengthAdjust="spacing" textLength="7" x="41" y="343.8232">7</text><text fill="#000000" font-family="sans-serif" font-size="13" lengthAdjust="spacing" textLength="214" x="52" y="343.8232">Menampilkan hasil kepada pengguna</text><!--SRC=[TPBHZfim44NV_HKZ-XofYTfkceTAOLDQLLkrqdx11HoOnTZKDigkglvx3PWiD2fFsFVSEpEsFNibwL7-wgKk99qObKLB6_hIsvw-IyKrF7r3UO4AIrtX2LRKN4ew6-DpyopGUwFxDfTMk8PrXo70rIZDXNL5PoWdbyfSwxSWEbfhBlT66KjlTjcxR9-5pGS-omVMCZMsb3Qg7zAxtVxjKaNHLDRqken4zZ4xPcaWVi9wBhY3zgk8Qu4bS9Eopz9iW8w5DtRbtswt-ztTLRfnZb-GK_Eyyjsdf_UVjr7uZ-kF4093B2N3oIS4Drw1o0SMzeMIhr1eeUcHdPVjICGjKHZjhL6KJ1gb7Av3_R1izCXDswA4HmudAJd5lr6T5qACbxxvDESUAEqRK2jrV_C4vcu2FQKVWjQozg0wIjMGzZJwH6niJSDvRW9Oeo4qJZhzWj6rmEVc3bFfDcT5mnmncCApA-5WcrXGp0RQh8hfYYstmNhsiFzsjHpvYjPmeLOZvtbUHmxuS58ZYxPZDGqnuHrAK1T2gbxZBm00]--></g></svg>