<?xml version="1.0" encoding="us-ascii" standalone="no"?><svg xmlns="http://www.w3.org/2000/svg" xmlns:xlink="http://www.w3.org/1999/xlink" contentStyleType="text/css" height="1211px" preserveAspectRatio="none" style="width:1063px;height:1211px;background:#FFFFFF;" version="1.1" viewBox="0 0 1063 1211" width="1063px" zoomAndPan="magnify"><defs/><g><text fill="#000000" font-family="sans-serif" font-size="14" font-weight="bold" lengthAdjust="spacing" textLength="364" x="355.75" y="29.5332">Sequence Diagram - Guru Menginput Absensi Siswa</text><rect fill="none" height="185.9453" style="stroke:#000000;stroke-width:1.5;" width="1026.5" x="20" y="485.0859"/><rect fill="none" height="355.5391" style="stroke:#000000;stroke-width:1.5;" width="1036.5" x="20" y="831.7891"/><rect fill="none" height="94.8906" style="stroke:#000000;stroke-width:1.5;" width="480" x="566.5" y="994.3828"/><line style="stroke:#6B7280;stroke-width:0.5;stroke-dasharray:5.0,5.0;" x1="49" x2="49" y1="121.2188" y2="1204.3281"/><line style="stroke:#6B7280;stroke-width:0.5;stroke-dasharray:5.0,5.0;" x1="297.5" x2="297.5" y1="121.2188" y2="1204.3281"/><line style="stroke:#6B7280;stroke-width:0.5;stroke-dasharray:5.0,5.0;" x1="640.5" x2="640.5" y1="121.2188" y2="1204.3281"/><line style="stroke:#6B7280;stroke-width:0.5;stroke-dasharray:5.0,5.0;" x1="1002.5" x2="1002.5" y1="121.2188" y2="1204.3281"/><text fill="#000000" font-family="sans-serif" font-size="14" lengthAdjust="spacing" textLength="32" x="30" y="118.1426">Guru</text><ellipse cx="49" cy="52.1094" fill="#FFFFFF" rx="8" ry="8" style="stroke:#111827;stroke-width:0.5;"/><path d="M49,60.1094 L49,87.1094 M36,68.1094 L62,68.1094 M49,87.1094 L36,102.1094 M49,87.1094 L62,102.1094 " fill="none" style="stroke:#111827;stroke-width:0.5;"/><text fill="#000000" font-family="sans-serif" font-size="14" lengthAdjust="spacing" textLength="101" x="244.5" y="118.1426">Halaman Sistem</text><path d="M277.5,75.6094 L277.5,99.6094 M277.5,87.6094 L294.5,87.6094 " fill="none" style="stroke:#181818;stroke-width:0.5;"/><ellipse cx="306.5" cy="87.6094" fill="#E2E2F0" rx="12" ry="12" style="stroke:#181818;stroke-width:0.5;"/><text fill="#000000" font-family="sans-serif" font-size="14" lengthAdjust="spacing" textLength="123" x="576.5" y="118.1426">Sistem BimbelOrion</text><ellipse cx="641" cy="87.6094" fill="#E2E2F0" rx="12" ry="12" style="stroke:#181818;stroke-width:0.5;"/><polygon fill="#181818" points="637,75.6094,643,70.6094,641,75.6094,643,80.6094,637,75.6094" style="stroke:#181818;stroke-width:1.0;"/><text fill="#000000" font-family="sans-serif" font-size="14" lengthAdjust="spacing" textLength="61" x="969.5" y="118.1426">Database</text><path d="M985,67.6094 C985,57.6094 1003,57.6094 1003,57.6094 C1003,57.6094 1021,57.6094 1021,67.6094 L1021,93.6094 C1021,103.6094 1003,103.6094 1003,103.6094 C1003,103.6094 985,103.6094 985,93.6094 L985,67.6094 " fill="#E2E2F0" style="stroke:#181818;stroke-width:1.5;"/><path d="M985,67.6094 C985,77.6094 1003,77.6094 1003,77.6094 C1003,77.6094 1021,77.6094 1021,67.6094 " fill="none" style="stroke:#181818;stroke-width:1.5;"/><polygon fill="#2F4F8F" points="286,149.5703,296,153.5703,286,157.5703,290,153.5703" style="stroke:#2F4F8F;stroke-width:1.0;"/><line style="stroke:#2F4F8F;stroke-width:1.0;" x1="49" x2="292" y1="153.5703" y2="153.5703"/><text fill="#000000" font-family="sans-serif" font-size="13" font-weight="bold" lengthAdjust="spacing" textLength="7" x="56" y="148.7139">1</text><text fill="#000000" font-family="sans-serif" font-size="13" lengthAdjust="spacing" textLength="149" x="67" y="148.7139">Buka menu Input Absensi</text><polygon fill="#2F4F8F" points="629,179.9219,639,183.9219,629,187.9219,633,183.9219" style="stroke:#2F4F8F;stroke-width:1.0;"/><line style="stroke:#2F4F8F;stroke-width:1.0;" x1="298" x2="635" y1="183.9219" y2="183.9219"/><text fill="#000000" font-family="sans-serif" font-size="13" font-weight="bold" lengthAdjust="spacing" textLength="7" x="305" y="179.0654">2</text><text fill="#000000" font-family="sans-serif" font-size="13" lengthAdjust="spacing" textLength="181" x="316" y="179.0654">Meminta halaman guru absensi</text><line style="stroke:#2F4F8F;stroke-width:1.0;" x1="641" x2="683" y1="214.2734" y2="214.2734"/><line style="stroke:#2F4F8F;stroke-width:1.0;" x1="683" x2="683" y1="214.2734" y2="227.2734"/><line style="stroke:#2F4F8F;stroke-width:1.0;" x1="642" x2="683" y1="227.2734" y2="227.2734"/><polygon fill="#2F4F8F" points="652,223.2734,642,227.2734,652,231.2734,648,227.2734" style="stroke:#2F4F8F;stroke-width:1.0;"/><text fill="#000000" font-family="sans-serif" font-size="13" font-weight="bold" lengthAdjust="spacing" textLength="7" x="648" y="209.417">3</text><text fill="#000000" font-family="sans-serif" font-size="13" lengthAdjust="spacing" textLength="185" x="659" y="209.417">Memastikan hak aksesnya guru</text><polygon fill="#2F4F8F" points="991,253.625,1001,257.625,991,261.625,995,257.625" style="stroke:#2F4F8F;stroke-width:1.0;"/><line style="stroke:#2F4F8F;stroke-width:1.0;" x1="641" x2="997" y1="257.625" y2="257.625"/><text fill="#000000" font-family="sans-serif" font-size="13" font-weight="bold" lengthAdjust="spacing" textLength="7" x="648" y="252.7686">4</text><text fill="#000000" font-family="sans-serif" font-size="13" lengthAdjust="spacing" textLength="192" x="659" y="252.7686">Mengambil data jadwal milik guru</text><polygon fill="#2F4F8F" points="652,283.9766,642,287.9766,652,291.9766,648,287.9766" style="stroke:#2F4F8F;stroke-width:1.0;"/><line style="stroke:#2F4F8F;stroke-width:1.0;stroke-dasharray:2.0,2.0;" x1="646" x2="1002" y1="287.9766" y2="287.9766"/><text fill="#000000" font-family="sans-serif" font-size="13" font-weight="bold" lengthAdjust="spacing" textLength="7" x="658" y="283.1201">5</text><text fill="#000000" font-family="sans-serif" font-size="13" lengthAdjust="spacing" textLength="129" x="669" y="283.1201">Mengirim daftar jadwal</text><polygon fill="#2F4F8F" points="309,314.3281,299,318.3281,309,322.3281,305,318.3281" style="stroke:#2F4F8F;stroke-width:1.0;"/><line style="stroke:#2F4F8F;stroke-width:1.0;stroke-dasharray:2.0,2.0;" x1="303" x2="640" y1="318.3281" y2="318.3281"/><text fill="#000000" font-family="sans-serif" font-size="13" font-weight="bold" lengthAdjust="spacing" textLength="7" x="315" y="313.4717">6</text><text fill="#000000" font-family="sans-serif" font-size="13" lengthAdjust="spacing" textLength="155" x="326" y="313.4717">Mengirim hasil ke halaman</text><polygon fill="#2F4F8F" points="60,344.6797,50,348.6797,60,352.6797,56,348.6797" style="stroke:#2F4F8F;stroke-width:1.0;"/><line style="stroke:#2F4F8F;stroke-width:1.0;stroke-dasharray:2.0,2.0;" x1="54" x2="297" y1="348.6797" y2="348.6797"/><text fill="#000000" font-family="sans-serif" font-size="13" font-weight="bold" lengthAdjust="spacing" textLength="7" x="66" y="343.8232">7</text><text fill="#000000" font-family="sans-serif" font-size="13" lengthAdjust="spacing" textLength="214" x="77" y="343.8232">Menampilkan hasil kepada pengguna</text><polygon fill="#2F4F8F" points="286,375.0313,296,379.0313,286,383.0313,290,379.0313" style="stroke:#2F4F8F;stroke-width:1.0;"/><line style="stroke:#2F4F8F;stroke-width:1.0;" x1="49" x2="292" y1="379.0313" y2="379.0313"/><text fill="#000000" font-family="sans-serif" font-size="13" font-weight="bold" lengthAdjust="spacing" textLength="7" x="56" y="374.1748">8</text><text fill="#000000" font-family="sans-serif" font-size="13" lengthAdjust="spacing" textLength="65" x="67" y="374.1748">Pilih jadwal</text><polygon fill="#2F4F8F" points="629,405.3828,639,409.3828,629,413.3828,633,409.3828" style="stroke:#2F4F8F;stroke-width:1.0;"/><line style="stroke:#2F4F8F;stroke-width:1.0;" x1="298" x2="635" y1="409.3828" y2="409.3828"/><text fill="#000000" font-family="sans-serif" font-size="13" font-weight="bold" lengthAdjust="spacing" textLength="7" x="305" y="404.5264">9</text><text fill="#000000" font-family="sans-serif" font-size="13" lengthAdjust="spacing" textLength="308" x="316" y="404.5264">Mengirim data formulir guru absensi&amp;aksi=load-siswa</text><polygon fill="#2F4F8F" points="991,435.7344,1001,439.7344,991,443.7344,995,439.7344" style="stroke:#2F4F8F;stroke-width:1.0;"/><line style="stroke:#2F4F8F;stroke-width:1.0;" x1="641" x2="997" y1="439.7344" y2="439.7344"/><text fill="#000000" font-family="sans-serif" font-size="13" font-weight="bold" lengthAdjust="spacing" textLength="14" x="648" y="434.8779">10</text><text fill="#000000" font-family="sans-serif" font-size="13" lengthAdjust="spacing" textLength="192" x="666" y="434.8779">Mengambil data jadwal milik guru</text><polygon fill="#2F4F8F" points="652,466.0859,642,470.0859,652,474.0859,648,470.0859" style="stroke:#2F4F8F;stroke-width:1.0;"/><line style="stroke:#2F4F8F;stroke-width:1.0;stroke-dasharray:2.0,2.0;" x1="646" x2="1002" y1="470.0859" y2="470.0859"/><text fill="#000000" font-family="sans-serif" font-size="13" font-weight="bold" lengthAdjust="spacing" textLength="14" x="658" y="465.2295">11</text><text fill="#000000" font-family="sans-serif" font-size="13" lengthAdjust="spacing" textLength="113" x="676" y="465.2295">Mengirim hasil data</text><path d="M20,485.0859 L81,485.0859 L81,493.4375 L71,503.4375 L20,503.4375 L20,485.0859 " fill="#EEEEEE" style="stroke:#000000;stroke-width:1.5;"/><rect fill="none" height="185.9453" style="stroke:#000000;stroke-width:1.5;" width="1026.5" x="20" y="485.0859"/><text fill="#000000" font-family="sans-serif" font-size="13" font-weight="bold" lengthAdjust="spacing" textLength="16" x="35" y="499.5811">alt</text><text fill="#000000" font-family="sans-serif" font-size="11" font-weight="bold" lengthAdjust="spacing" textLength="142" x="96" y="498.5049">[Jadwal bukan milik guru]</text><polygon fill="#2F4F8F" points="309,521.7891,299,525.7891,309,529.7891,305,525.7891" style="stroke:#2F4F8F;stroke-width:1.0;"/><line style="stroke:#2F4F8F;stroke-width:1.0;stroke-dasharray:2.0,2.0;" x1="303" x2="640" y1="525.7891" y2="525.7891"/><text fill="#000000" font-family="sans-serif" font-size="13" font-weight="bold" lengthAdjust="spacing" textLength="14" x="315" y="520.9326">12</text><text fill="#000000" font-family="sans-serif" font-size="13" lengthAdjust="spacing" textLength="155" x="333" y="520.9326">Mengirim hasil ke halaman</text><line style="stroke:#000000;stroke-width:1.0;stroke-dasharray:2.0,2.0;" x1="20" x2="1046.5" y1="534.7891" y2="534.7891"/><text fill="#000000" font-family="sans-serif" font-size="11" font-weight="bold" lengthAdjust="spacing" textLength="81" x="25" y="546.208">[Jadwal benar]</text><polygon fill="#2F4F8F" points="991,567.9766,1001,571.9766,991,575.9766,995,571.9766" style="stroke:#2F4F8F;stroke-width:1.0;"/><line style="stroke:#2F4F8F;stroke-width:1.0;" x1="641" x2="997" y1="571.9766" y2="571.9766"/><text fill="#000000" font-family="sans-serif" font-size="13" font-weight="bold" lengthAdjust="spacing" textLength="14" x="648" y="567.1201">13</text><text fill="#000000" font-family="sans-serif" font-size="13" lengthAdjust="spacing" textLength="208" x="666" y="567.1201">Mengambil data siswa dalam jadwal</text><polygon fill="#2F4F8F" points="652,598.3281,642,602.3281,652,606.3281,648,602.3281" style="stroke:#2F4F8F;stroke-width:1.0;"/><line style="stroke:#2F4F8F;stroke-width:1.0;stroke-dasharray:2.0,2.0;" x1="646" x2="1002" y1="602.3281" y2="602.3281"/><text fill="#000000" font-family="sans-serif" font-size="13" font-weight="bold" lengthAdjust="spacing" textLength="14" x="658" y="597.4717">14</text><text fill="#000000" font-family="sans-serif" font-size="13" lengthAdjust="spacing" textLength="126" x="676" y="597.4717">Mengirim daftar siswa</text><polygon fill="#2F4F8F" points="309,628.6797,299,632.6797,309,636.6797,305,632.6797" style="stroke:#2F4F8F;stroke-width:1.0;"/><line style="stroke:#2F4F8F;stroke-width:1.0;stroke-dasharray:2.0,2.0;" x1="303" x2="640" y1="632.6797" y2="632.6797"/><text fill="#000000" font-family="sans-serif" font-size="13" font-weight="bold" lengthAdjust="spacing" textLength="14" x="315" y="627.8232">15</text><text fill="#000000" font-family="sans-serif" font-size="13" lengthAdjust="spacing" textLength="155" x="333" y="627.8232">Mengirim hasil ke halaman</text><polygon fill="#2F4F8F" points="60,659.0313,50,663.0313,60,667.0313,56,663.0313" style="stroke:#2F4F8F;stroke-width:1.0;"/><line style="stroke:#2F4F8F;stroke-width:1.0;stroke-dasharray:2.0,2.0;" x1="54" x2="297" y1="663.0313" y2="663.0313"/><text fill="#000000" font-family="sans-serif" font-size="13" font-weight="bold" lengthAdjust="spacing" textLength="14" x="66" y="658.1748">16</text><text fill="#000000" font-family="sans-serif" font-size="13" lengthAdjust="spacing" textLength="181" x="84" y="658.1748">Tampilkan siswa untuk absensi</text><polygon fill="#2F4F8F" points="286,721.7344,296,725.7344,286,729.7344,290,725.7344" style="stroke:#2F4F8F;stroke-width:1.0;"/><line style="stroke:#2F4F8F;stroke-width:1.0;" x1="49" x2="292" y1="725.7344" y2="725.7344"/><text fill="#000000" font-family="sans-serif" font-size="13" font-weight="bold" lengthAdjust="spacing" textLength="14" x="56" y="720.8779">17</text><text fill="#000000" font-family="sans-serif" font-size="13" lengthAdjust="spacing" textLength="167" x="74" y="720.8779">Submit status absensi siswa</text><polygon fill="#2F4F8F" points="629,752.0859,639,756.0859,629,760.0859,633,756.0859" style="stroke:#2F4F8F;stroke-width:1.0;"/><line style="stroke:#2F4F8F;stroke-width:1.0;" x1="298" x2="635" y1="756.0859" y2="756.0859"/><text fill="#000000" font-family="sans-serif" font-size="13" font-weight="bold" lengthAdjust="spacing" textLength="14" x="305" y="751.2295">18</text><text fill="#000000" font-family="sans-serif" font-size="13" lengthAdjust="spacing" textLength="273" x="323" y="751.2295">Mengirim data formulir guru absensi&amp;aksi=save</text><polygon fill="#2F4F8F" points="991,782.4375,1001,786.4375,991,790.4375,995,786.4375" style="stroke:#2F4F8F;stroke-width:1.0;"/><line style="stroke:#2F4F8F;stroke-width:1.0;" x1="641" x2="997" y1="786.4375" y2="786.4375"/><text fill="#000000" font-family="sans-serif" font-size="13" font-weight="bold" lengthAdjust="spacing" textLength="14" x="648" y="781.5811">19</text><text fill="#000000" font-family="sans-serif" font-size="13" lengthAdjust="spacing" textLength="192" x="666" y="781.5811">Mengambil data jadwal milik guru</text><polygon fill="#2F4F8F" points="652,812.7891,642,816.7891,652,820.7891,648,816.7891" style="stroke:#2F4F8F;stroke-width:1.0;"/><line style="stroke:#2F4F8F;stroke-width:1.0;stroke-dasharray:2.0,2.0;" x1="646" x2="1002" y1="816.7891" y2="816.7891"/><text fill="#000000" font-family="sans-serif" font-size="13" font-weight="bold" lengthAdjust="spacing" textLength="14" x="658" y="811.9326">20</text><text fill="#000000" font-family="sans-serif" font-size="13" lengthAdjust="spacing" textLength="113" x="676" y="811.9326">Mengirim hasil data</text><path d="M20,831.7891 L81,831.7891 L81,840.1406 L71,850.1406 L20,850.1406 L20,831.7891 " fill="#EEEEEE" style="stroke:#000000;stroke-width:1.5;"/><rect fill="none" height="355.5391" style="stroke:#000000;stroke-width:1.5;" width="1036.5" x="20" y="831.7891"/><text fill="#000000" font-family="sans-serif" font-size="13" font-weight="bold" lengthAdjust="spacing" textLength="16" x="35" y="846.2842">alt</text><text fill="#000000" font-family="sans-serif" font-size="11" font-weight="bold" lengthAdjust="spacing" textLength="83" x="96" y="845.208">[Validasi gagal]</text><polygon fill="#2F4F8F" points="309,868.4922,299,872.4922,309,876.4922,305,872.4922" style="stroke:#2F4F8F;stroke-width:1.0;"/><line style="stroke:#2F4F8F;stroke-width:1.0;stroke-dasharray:2.0,2.0;" x1="303" x2="640" y1="872.4922" y2="872.4922"/><text fill="#000000" font-family="sans-serif" font-size="13" font-weight="bold" lengthAdjust="spacing" textLength="14" x="315" y="867.6357">21</text><text fill="#000000" font-family="sans-serif" font-size="13" lengthAdjust="spacing" textLength="155" x="333" y="867.6357">Mengirim hasil ke halaman</text><polygon fill="#2F4F8F" points="60,898.8438,50,902.8438,60,906.8438,56,902.8438" style="stroke:#2F4F8F;stroke-width:1.0;"/><line style="stroke:#2F4F8F;stroke-width:1.0;stroke-dasharray:2.0,2.0;" x1="54" x2="297" y1="902.8438" y2="902.8438"/><text fill="#000000" font-family="sans-serif" font-size="13" font-weight="bold" lengthAdjust="spacing" textLength="14" x="66" y="897.9873">22</text><text fill="#000000" font-family="sans-serif" font-size="13" lengthAdjust="spacing" textLength="133" x="84" y="897.9873">Tampilkan pesan gagal</text><line style="stroke:#000000;stroke-width:1.0;stroke-dasharray:2.0,2.0;" x1="20" x2="1056.5" y1="911.8438" y2="911.8438"/><text fill="#000000" font-family="sans-serif" font-size="11" font-weight="bold" lengthAdjust="spacing" textLength="99" x="25" y="923.2627">[Validasi berhasil]</text><polygon fill="#2F4F8F" points="991,945.0313,1001,949.0313,991,953.0313,995,949.0313" style="stroke:#2F4F8F;stroke-width:1.0;"/><line style="stroke:#2F4F8F;stroke-width:1.0;" x1="641" x2="997" y1="949.0313" y2="949.0313"/><text fill="#000000" font-family="sans-serif" font-size="13" font-weight="bold" lengthAdjust="spacing" textLength="14" x="648" y="944.1748">23</text><text fill="#000000" font-family="sans-serif" font-size="13" lengthAdjust="spacing" textLength="156" x="666" y="944.1748">Mengolah data di database</text><polygon fill="#2F4F8F" points="652,975.3828,642,979.3828,652,983.3828,648,979.3828" style="stroke:#2F4F8F;stroke-width:1.0;"/><line style="stroke:#2F4F8F;stroke-width:1.0;stroke-dasharray:2.0,2.0;" x1="646" x2="1002" y1="979.3828" y2="979.3828"/><text fill="#000000" font-family="sans-serif" font-size="13" font-weight="bold" lengthAdjust="spacing" textLength="14" x="658" y="974.5264">24</text><text fill="#000000" font-family="sans-serif" font-size="13" lengthAdjust="spacing" textLength="82" x="676" y="974.5264">Hasil benarasi</text><path d="M566.5,994.3828 L627.5,994.3828 L627.5,1002.7344 L617.5,1012.7344 L566.5,1012.7344 L566.5,994.3828 " fill="#EEEEEE" style="stroke:#000000;stroke-width:1.5;"/><rect fill="none" height="94.8906" style="stroke:#000000;stroke-width:1.5;" width="480" x="566.5" y="994.3828"/><text fill="#000000" font-family="sans-serif" font-size="13" font-weight="bold" lengthAdjust="spacing" textLength="16" x="581.5" y="1008.8779">alt</text><text fill="#000000" font-family="sans-serif" font-size="11" font-weight="bold" lengthAdjust="spacing" textLength="113" x="642.5" y="1007.8018">[Absensi sudah ada]</text><polygon fill="#2F4F8F" points="991,1031.0859,1001,1035.0859,991,1039.0859,995,1035.0859" style="stroke:#2F4F8F;stroke-width:1.0;"/><line style="stroke:#2F4F8F;stroke-width:1.0;" x1="641" x2="997" y1="1035.0859" y2="1035.0859"/><text fill="#000000" font-family="sans-serif" font-size="13" font-weight="bold" lengthAdjust="spacing" textLength="14" x="648" y="1030.2295">25</text><text fill="#000000" font-family="sans-serif" font-size="13" lengthAdjust="spacing" textLength="299" x="666" y="1030.2295">Memperbarui data absensi + INSERT absensi_audit</text><line style="stroke:#000000;stroke-width:1.0;stroke-dasharray:2.0,2.0;" x1="566.5" x2="1046.5" y1="1044.0859" y2="1044.0859"/><text fill="#000000" font-family="sans-serif" font-size="11" font-weight="bold" lengthAdjust="spacing" textLength="114" x="571.5" y="1055.5049">[Absensi belum ada]</text><polygon fill="#2F4F8F" points="991,1077.2734,1001,1081.2734,991,1085.2734,995,1081.2734" style="stroke:#2F4F8F;stroke-width:1.0;"/><line style="stroke:#2F4F8F;stroke-width:1.0;" x1="641" x2="997" y1="1081.2734" y2="1081.2734"/><text fill="#000000" font-family="sans-serif" font-size="13" font-weight="bold" lengthAdjust="spacing" textLength="14" x="648" y="1076.417">26</text><text fill="#000000" font-family="sans-serif" font-size="13" lengthAdjust="spacing" textLength="320" x="666" y="1076.417">Menyimpan data baru absensi + INSERT absensi_audit</text><polygon fill="#2F4F8F" points="652,1114.625,642,1118.625,652,1122.625,648,1118.625" style="stroke:#2F4F8F;stroke-width:1.0;"/><line style="stroke:#2F4F8F;stroke-width:1.0;stroke-dasharray:2.0,2.0;" x1="646" x2="1002" y1="1118.625" y2="1118.625"/><text fill="#000000" font-family="sans-serif" font-size="13" font-weight="bold" lengthAdjust="spacing" textLength="14" x="658" y="1113.7686">27</text><text fill="#000000" font-family="sans-serif" font-size="13" lengthAdjust="spacing" textLength="75" x="676" y="1113.7686">Hasil simpan</text><polygon fill="#2F4F8F" points="309,1144.9766,299,1148.9766,309,1152.9766,305,1148.9766" style="stroke:#2F4F8F;stroke-width:1.0;"/><line style="stroke:#2F4F8F;stroke-width:1.0;stroke-dasharray:2.0,2.0;" x1="303" x2="640" y1="1148.9766" y2="1148.9766"/><text fill="#000000" font-family="sans-serif" font-size="13" font-weight="bold" lengthAdjust="spacing" textLength="14" x="315" y="1144.1201">28</text><text fill="#000000" font-family="sans-serif" font-size="13" lengthAdjust="spacing" textLength="155" x="333" y="1144.1201">Mengirim hasil ke halaman</text><polygon fill="#2F4F8F" points="60,1175.3281,50,1179.3281,60,1183.3281,56,1179.3281" style="stroke:#2F4F8F;stroke-width:1.0;"/><line style="stroke:#2F4F8F;stroke-width:1.0;stroke-dasharray:2.0,2.0;" x1="54" x2="297" y1="1179.3281" y2="1179.3281"/><text fill="#000000" font-family="sans-serif" font-size="13" font-weight="bold" lengthAdjust="spacing" textLength="14" x="66" y="1174.4717">29</text><text fill="#000000" font-family="sans-serif" font-size="13" lengthAdjust="spacing" textLength="178" x="84" y="1174.4717">Tampilkan pesan hasil absensi</text><!--SRC=[jLNRRjD047tVhnW5YHSKYLH0GoMGuhQcHGKgKl6Anl76MRmNinVI2l7lh7Uzharw5MgUd9qpvyoS6Qyjivp2alvqLAue736iD0gOmWUd7NoYicAoSHOMXQ7IC5WoiqMoOIM5jLAsK9S4dLNIYO9gOcgFnfR0RB1KMoOhM2CtT1X9Mhy9m49hjJrKN6bujfU_okUvFpnZQth69CsKBgdkec-o_Rtvos4KLtMbbPDbXyZVveiyyuXpr9QjM8FIZYXwWI5WXsMUPtaBMgoiqgFysMmstzllGpkPuUV3cReSvHrcHw-FPrtWbgm_X11iQM7IEZy1D644f6YngAzWSe8S1Sfs19QAWEYEo4f9gnM7IOn1nlmu-1VDb0ouU4nAj5YWeJ0vwfv2DFqX90nz-Zxn7a3cQWH1fOFJuHgGL8l7Hku3lok2IOkmwK9LouKTlgjh34TZMUsH6wm1QqEDlCAGDe2dsWx2Bg8e68Us3VY1vHOv2CPP7PCI5AOZ6R_1cWcVjBQekxHUODXh3zsWyIerJQrST-lXhKK1Yw9XF9OVuGsM28qdgPp4NIlFVQMRf7-ZVtsblhsrqi9nfaSsFlSkiNTSOJaruJry0fzYDsqgGMxXOqmlNDlfW0JWSHPIVmdqPDuyFM2ue_hGfd_q9CawW0SDEXhqs381TcTzqKywLkEaTNM_sLIMH3KstfV-JRbYmjyhVHXWPn6MhX3CWh5edKd0ljx_sGo3l-Z3VDtTYlji7Um5GBiPtv2pqXz2XLKOo-EzljljXfhs6kdOmmBrclvZ4_X6il_sgpXkOhibWtJtXOmRMpq91ORbn32vs6VwyXbNUZh_ZeV8RQgYeRf0xQ9WFzqNSFfvUVpr8XryHrSo6vX2Oqd4tzfEt2kIbYn8j6eFql6BUa_l9j0-sIXZslMRuIlw2m00]--></g></svg>