<?xml version="1.0" encoding="us-ascii" standalone="no"?><svg xmlns="http://www.w3.org/2000/svg" xmlns:xlink="http://www.w3.org/1999/xlink" contentStyleType="text/css" height="434px" preserveAspectRatio="none" style="width:1010px;height:434px;background:#FFFFFF;" version="1.1" viewBox="0 0 1010 434" width="1010px" zoomAndPan="magnify"><defs/><g><text fill="#000000" font-family="sans-serif" font-size="14" font-weight="bold" lengthAdjust="spacing" textLength="353" x="329.75" y="29.5332">Sequence Diagram - Guru Melihat Riwayat Absensi</text><line style="stroke:#6B7280;stroke-width:0.5;stroke-dasharray:5.0,5.0;" x1="24" x2="24" y1="121.2188" y2="427.3828"/><line style="stroke:#6B7280;stroke-width:0.5;stroke-dasharray:5.0,5.0;" x1="272.5" x2="272.5" y1="121.2188" y2="427.3828"/><line style="stroke:#6B7280;stroke-width:0.5;stroke-dasharray:5.0,5.0;" x1="693.5" x2="693.5" y1="121.2188" y2="427.3828"/><line style="stroke:#6B7280;stroke-width:0.5;stroke-dasharray:5.0,5.0;" x1="974.5" x2="974.5" y1="121.2188" y2="427.3828"/><text fill="#000000" font-family="sans-serif" font-size="14" lengthAdjust="spacing" textLength="32" x="5" y="118.1426">Guru</text><ellipse cx="24" cy="52.1094" fill="#FFFFFF" rx="8" ry="8" style="stroke:#111827;stroke-width:0.5;"/><path d="M24,60.1094 L24,87.1094 M11,68.1094 L37,68.1094 M24,87.1094 L11,102.1094 M24,87.1094 L37,102.1094 " fill="none" style="stroke:#111827;stroke-width:0.5;"/><text fill="#000000" font-family="sans-serif" font-size="14" lengthAdjust="spacing" textLength="101" x="219.5" y="118.1426">Halaman Sistem</text><path d="M252.5,75.6094 L252.5,99.6094 M252.5,87.6094 L269.5,87.6094 " fill="none" style="stroke:#181818;stroke-width:0.5;"/><ellipse cx="281.5" cy="87.6094" fill="#E2E2F0" rx="12" ry="12" style="stroke:#181818;stroke-width:0.5;"/><text fill="#000000" font-family="sans-serif" font-size="14" lengthAdjust="spacing" textLength="123" x="629.5" y="118.1426">Sistem BimbelOrion</text><ellipse cx="694" cy="87.6094" fill="#E2E2F0" rx="12" ry="12" style="stroke:#181818;stroke-width:0.5;"/><polygon fill="#181818" points="690,75.6094,696,70.6094,694,75.6094,696,80.6094,690,75.6094" style="stroke:#181818;stroke-width:1.0;"/><text fill="#000000" font-family="sans-serif" font-size="14" lengthAdjust="spacing" textLength="61" x="941.5" y="118.1426">Database</text><path d="M957,67.6094 C957,57.6094 975,57.6094 975,57.6094 C975,57.6094 993,57.6094 993,67.6094 L993,93.6094 C993,103.6094 975,103.6094 975,103.6094 C975,103.6094 957,103.6094 957,93.6094 L957,67.6094 " fill="#E2E2F0" style="stroke:#181818;stroke-width:1.5;"/><path d="M957,67.6094 C957,77.6094 975,77.6094 975,77.6094 C975,77.6094 993,77.6094 993,67.6094 " fill="none" style="stroke:#181818;stroke-width:1.5;"/><polygon fill="#2F4F8F" points="261,149.5703,271,153.5703,261,157.5703,265,153.5703" style="stroke:#2F4F8F;stroke-width:1.0;"/><line style="stroke:#2F4F8F;stroke-width:1.0;" x1="24" x2="267" y1="153.5703" y2="153.5703"/><text fill="#000000" font-family="sans-serif" font-size="13" font-weight="bold" lengthAdjust="spacing" textLength="7" x="31" y="148.7139">1</text><text fill="#000000" font-family="sans-serif" font-size="13" lengthAdjust="spacing" textLength="212" x="42" y="148.7139">Buka Riwayat Absensi / pilih tanggal</text><polygon fill="#2F4F8F" points="682,179.9219,692,183.9219,682,187.9219,686,183.9219" style="stroke:#2F4F8F;stroke-width:1.0;"/><line style="stroke:#2F4F8F;stroke-width:1.0;" x1="273" x2="688" y1="183.9219" y2="183.9219"/><text fill="#000000" font-family="sans-serif" font-size="13" font-weight="bold" lengthAdjust="spacing" textLength="7" x="280" y="179.0654">2</text><text fill="#000000" font-family="sans-serif" font-size="13" lengthAdjust="spacing" textLength="386" x="291" y="179.0654">Meminta halaman guru absensi&amp;aksi=riwayat&amp;tgl_dari&amp;tgl_sampai</text><line style="stroke:#2F4F8F;stroke-width:1.0;" x1="694" x2="736" y1="214.2734" y2="214.2734"/><line style="stroke:#2F4F8F;stroke-width:1.0;" x1="736" x2="736" y1="214.2734" y2="227.2734"/><line style="stroke:#2F4F8F;stroke-width:1.0;" x1="695" x2="736" y1="227.2734" y2="227.2734"/><polygon fill="#2F4F8F" points="705,223.2734,695,227.2734,705,231.2734,701,227.2734" style="stroke:#2F4F8F;stroke-width:1.0;"/><text fill="#000000" font-family="sans-serif" font-size="13" font-weight="bold" lengthAdjust="spacing" textLength="7" x="701" y="209.417">3</text><text fill="#000000" font-family="sans-serif" font-size="13" lengthAdjust="spacing" textLength="185" x="712" y="209.417">Memastikan hak aksesnya guru</text><polygon fill="#2F4F8F" points="963,253.625,973,257.625,963,261.625,967,257.625" style="stroke:#2F4F8F;stroke-width:1.0;"/><line style="stroke:#2F4F8F;stroke-width:1.0;" x1="694" x2="969" y1="257.625" y2="257.625"/><text fill="#000000" font-family="sans-serif" font-size="13" font-weight="bold" lengthAdjust="spacing" textLength="7" x="701" y="252.7686">4</text><text fill="#000000" font-family="sans-serif" font-size="13" lengthAdjust="spacing" textLength="246" x="712" y="252.7686">Mengambil data riwayat absensi milik guru</text><polygon fill="#2F4F8F" points="705,283.9766,695,287.9766,705,291.9766,701,287.9766" style="stroke:#2F4F8F;stroke-width:1.0;"/><line style="stroke:#2F4F8F;stroke-width:1.0;stroke-dasharray:2.0,2.0;" x1="699" x2="974" y1="287.9766" y2="287.9766"/><text fill="#000000" font-family="sans-serif" font-size="13" font-weight="bold" lengthAdjust="spacing" textLength="7" x="711" y="283.1201">5</text><text fill="#000000" font-family="sans-serif" font-size="13" lengthAdjust="spacing" textLength="138" x="722" y="283.1201">Mengirim daftar absensi</text><polygon fill="#2F4F8F" points="963,314.3281,973,318.3281,963,322.3281,967,318.3281" style="stroke:#2F4F8F;stroke-width:1.0;"/><line style="stroke:#2F4F8F;stroke-width:1.0;" x1="694" x2="969" y1="318.3281" y2="318.3281"/><text fill="#000000" font-family="sans-serif" font-size="13" font-weight="bold" lengthAdjust="spacing" textLength="7" x="701" y="313.4717">6</text><text fill="#000000" font-family="sans-serif" font-size="13" lengthAdjust="spacing" textLength="206" x="712" y="313.4717">Mengambil data rekap absensi guru</text><polygon fill="#2F4F8F" points="705,344.6797,695,348.6797,705,352.6797,701,348.6797" style="stroke:#2F4F8F;stroke-width:1.0;"/><line style="stroke:#2F4F8F;stroke-width:1.0;stroke-dasharray:2.0,2.0;" x1="699" x2="974" y1="348.6797" y2="348.6797"/><text fill="#000000" font-family="sans-serif" font-size="13" font-weight="bold" lengthAdjust="spacing" textLength="7" x="711" y="343.8232">7</text><text fill="#000000" font-family="sans-serif" font-size="13" lengthAdjust="spacing" textLength="113" x="722" y="343.8232">Mengirim hasil data</text><polygon fill="#2F4F8F" points="284,375.0313,274,379.0313,284,383.0313,280,379.0313" style="stroke:#2F4F8F;stroke-width:1.0;"/><line style="stroke:#2F4F8F;stroke-width:1.0;stroke-dasharray:2.0,2.0;" x1="278" x2="693" y1="379.0313" y2="379.0313"/><text fill="#000000" font-family="sans-serif" font-size="13" font-weight="bold" lengthAdjust="spacing" textLength="7" x="290" y="374.1748">8</text><text fill="#000000" font-family="sans-serif" font-size="13" lengthAdjust="spacing" textLength="155" x="301" y="374.1748">Mengirim hasil ke halaman</text><polygon fill="#2F4F8F" points="35,405.3828,25,409.3828,35,413.3828,31,409.3828" style="stroke:#2F4F8F;stroke-width:1.0;"/><line style="stroke:#2F4F8F;stroke-width:1.0;stroke-dasharray:2.0,2.0;" x1="29" x2="272" y1="409.3828" y2="409.3828"/><text fill="#000000" font-family="sans-serif" font-size="13" font-weight="bold" lengthAdjust="spacing" textLength="7" x="41" y="404.5264">9</text><text fill="#000000" font-family="sans-serif" font-size="13" lengthAdjust="spacing" textLength="214" x="52" y="404.5264">Menampilkan hasil kepada pengguna</text><!--SRC=[ZLBTRjCm5BxtKnm5QNSLj09M9e7Kh0GkXa3R0w0lZUiSnR63xQYh4E-EyrUIJKZBJMn_VpxdE73GaXxahrQQWwGzGpdKjA8lhMlfczHS8j0zdt2E_rtkfV4iIYua7QqDkNqKQ8CrRPrB9tp5fa5du4iKziH6qH7QopaoPVqMH3ldxEdMQklerIPxcsspU7Z7Htd7HgRM5TADwFlqUhDzCqTng9IphIb6HlOXssLfPFo02tpW1YOiB2u1Sy8pbssMPXrfTmZMBVJhzNgxkRv0pvJz5-7KFYvqj-d-tUVr2Fn7zKS8WSwMagxp2S7t8n1vnuKxK_8L6ZKCFR0FikuPuv4uM1ESrPGC6AKSnw6_ExQcvmt7ea103YyfsO-h7fqsGlH3NtsQV6yeRIiydJwzfeRZkw00enIqc2uMXKFGJNmuDPi0AaT8TSOOz5UeF7zqW-bLKFfdh8_xXKVTWCLOnT8FFd0LhKfK51saDsVqlZFwL4adC0frpfgwecbCcwv0TIoW6jIJXbQBFAFOSHtLnm0twLuK9Iiqbw0NH9Jme_PYFn_14rubfwR-wtkaTvFhkR63h8S-3VG61QY99ger-0i0]--></g></svg>