<?xml version="1.0" encoding="us-ascii" standalone="no"?><svg xmlns="http://www.w3.org/2000/svg" xmlns:xlink="http://www.w3.org/1999/xlink" contentStyleType="text/css" height="1130px" preserveAspectRatio="none" style="width:884px;height:1130px;background:#FFFFFF;" version="1.1" viewBox="0 0 884 1130" width="884px" zoomAndPan="magnify"><defs/><g><text fill="#000000" font-family="sans-serif" font-size="14" font-weight="bold" lengthAdjust="spacing" textLength="338" x="279.25" y="29.5332">Sequence Diagram - Guru Menginput Nilai Siswa</text><rect fill="none" height="552.4531" style="stroke:#000000;stroke-width:1.5;" width="857.5" x="20" y="553.7891"/><rect fill="none" height="309.1563" style="stroke:#000000;stroke-width:1.5;" width="421" x="446.5" y="686.0313"/><rect fill="none" height="230.6172" style="stroke:#000000;stroke-width:1.5;" width="401" x="456.5" y="727.2188"/><line style="stroke:#6B7280;stroke-width:0.5;stroke-dasharray:5.0,5.0;" x1="49" x2="49" y1="121.2188" y2="1123.2422"/><line style="stroke:#6B7280;stroke-width:0.5;stroke-dasharray:5.0,5.0;" x1="304.5" x2="304.5" y1="121.2188" y2="1123.2422"/><line style="stroke:#6B7280;stroke-width:0.5;stroke-dasharray:5.0,5.0;" x1="530.5" x2="530.5" y1="121.2188" y2="1123.2422"/><line style="stroke:#6B7280;stroke-width:0.5;stroke-dasharray:5.0,5.0;" x1="813.5" x2="813.5" y1="121.2188" y2="1123.2422"/><text fill="#000000" font-family="sans-serif" font-size="14" lengthAdjust="spacing" textLength="32" x="30" y="118.1426">Guru</text><ellipse cx="49" cy="52.1094" fill="#FFFFFF" rx="8" ry="8" style="stroke:#111827;stroke-width:0.5;"/><path d="M49,60.1094 L49,87.1094 M36,68.1094 L62,68.1094 M49,87.1094 L36,102.1094 M49,87.1094 L62,102.1094 " fill="none" style="stroke:#111827;stroke-width:0.5;"/><text fill="#000000" font-family="sans-serif" font-size="14" lengthAdjust="spacing" textLength="101" x="251.5" y="118.1426">Halaman Sistem</text><path d="M284.5,75.6094 L284.5,99.6094 M284.5,87.6094 L301.5,87.6094 " fill="none" style="stroke:#181818;stroke-width:0.5;"/><ellipse cx="313.5" cy="87.6094" fill="#E2E2F0" rx="12" ry="12" style="stroke:#181818;stroke-width:0.5;"/><text fill="#000000" font-family="sans-serif" font-size="14" lengthAdjust="spacing" textLength="123" x="466.5" y="118.1426">Sistem BimbelOrion</text><ellipse cx="531" cy="87.6094" fill="#E2E2F0" rx="12" ry="12" style="stroke:#181818;stroke-width:0.5;"/><polygon fill="#181818" points="527,75.6094,533,70.6094,531,75.6094,533,80.6094,527,75.6094" style="stroke:#181818;stroke-width:1.0;"/><text fill="#000000" font-family="sans-serif" font-size="14" lengthAdjust="spacing" textLength="61" x="780.5" y="118.1426">Database</text><path d="M796,67.6094 C796,57.6094 814,57.6094 814,57.6094 C814,57.6094 832,57.6094 832,67.6094 L832,93.6094 C832,103.6094 814,103.6094 814,103.6094 C814,103.6094 796,103.6094 796,93.6094 L796,67.6094 " fill="#E2E2F0" style="stroke:#181818;stroke-width:1.5;"/><path d="M796,67.6094 C796,77.6094 814,77.6094 814,77.6094 C814,77.6094 832,77.6094 832,67.6094 " fill="none" style="stroke:#181818;stroke-width:1.5;"/><polygon fill="#2F4F8F" points="293,149.5703,303,153.5703,293,157.5703,297,153.5703" style="stroke:#2F4F8F;stroke-width:1.0;"/><line style="stroke:#2F4F8F;stroke-width:1.0;" x1="49" x2="299" y1="153.5703" y2="153.5703"/><text fill="#000000" font-family="sans-serif" font-size="13" font-weight="bold" lengthAdjust="spacing" textLength="7" x="56" y="148.7139">1</text><text fill="#000000" font-family="sans-serif" font-size="13" lengthAdjust="spacing" textLength="95" x="67" y="148.7139">Buka menu Nilai</text><polygon fill="#2F4F8F" points="519,179.9219,529,183.9219,519,187.9219,523,183.9219" style="stroke:#2F4F8F;stroke-width:1.0;"/><line style="stroke:#2F4F8F;stroke-width:1.0;" x1="305" x2="525" y1="183.9219" y2="183.9219"/><text fill="#000000" font-family="sans-serif" font-size="13" font-weight="bold" lengthAdjust="spacing" textLength="7" x="312" y="179.0654">2</text><text fill="#000000" font-family="sans-serif" font-size="13" lengthAdjust="spacing" textLength="159" x="323" y="179.0654">Meminta halaman guru nilai</text><line style="stroke:#2F4F8F;stroke-width:1.0;" x1="531" x2="573" y1="214.2734" y2="214.2734"/><line style="stroke:#2F4F8F;stroke-width:1.0;" x1="573" x2="573" y1="214.2734" y2="227.2734"/><line style="stroke:#2F4F8F;stroke-width:1.0;" x1="532" x2="573" y1="227.2734" y2="227.2734"/><polygon fill="#2F4F8F" points="542,223.2734,532,227.2734,542,231.2734,538,227.2734" style="stroke:#2F4F8F;stroke-width:1.0;"/><text fill="#000000" font-family="sans-serif" font-size="13" font-weight="bold" lengthAdjust="spacing" textLength="7" x="538" y="209.417">3</text><text fill="#000000" font-family="sans-serif" font-size="13" lengthAdjust="spacing" textLength="185" x="549" y="209.417">Memastikan hak aksesnya guru</text><polygon fill="#2F4F8F" points="802,253.625,812,257.625,802,261.625,806,257.625" style="stroke:#2F4F8F;stroke-width:1.0;"/><line style="stroke:#2F4F8F;stroke-width:1.0;" x1="531" x2="808" y1="257.625" y2="257.625"/><text fill="#000000" font-family="sans-serif" font-size="13" font-weight="bold" lengthAdjust="spacing" textLength="7" x="538" y="252.7686">4</text><text fill="#000000" font-family="sans-serif" font-size="13" lengthAdjust="spacing" textLength="192" x="549" y="252.7686">Mengambil data jadwal milik guru</text><polygon fill="#2F4F8F" points="542,283.9766,532,287.9766,542,291.9766,538,287.9766" style="stroke:#2F4F8F;stroke-width:1.0;"/><line style="stroke:#2F4F8F;stroke-width:1.0;stroke-dasharray:2.0,2.0;" x1="536" x2="813" y1="287.9766" y2="287.9766"/><text fill="#000000" font-family="sans-serif" font-size="13" font-weight="bold" lengthAdjust="spacing" textLength="7" x="548" y="283.1201">5</text><text fill="#000000" font-family="sans-serif" font-size="13" lengthAdjust="spacing" textLength="129" x="559" y="283.1201">Mengirim daftar jadwal</text><polygon fill="#2F4F8F" points="802,314.3281,812,318.3281,802,322.3281,806,318.3281" style="stroke:#2F4F8F;stroke-width:1.0;"/><line style="stroke:#2F4F8F;stroke-width:1.0;" x1="531" x2="808" y1="318.3281" y2="318.3281"/><text fill="#000000" font-family="sans-serif" font-size="13" font-weight="bold" lengthAdjust="spacing" textLength="7" x="538" y="313.4717">6</text><text fill="#000000" font-family="sans-serif" font-size="13" lengthAdjust="spacing" textLength="179" x="549" y="313.4717">Mengambil data nilai milik guru</text><polygon fill="#2F4F8F" points="542,344.6797,532,348.6797,542,352.6797,538,348.6797" style="stroke:#2F4F8F;stroke-width:1.0;"/><line style="stroke:#2F4F8F;stroke-width:1.0;stroke-dasharray:2.0,2.0;" x1="536" x2="813" y1="348.6797" y2="348.6797"/><text fill="#000000" font-family="sans-serif" font-size="13" font-weight="bold" lengthAdjust="spacing" textLength="7" x="548" y="343.8232">7</text><text fill="#000000" font-family="sans-serif" font-size="13" lengthAdjust="spacing" textLength="116" x="559" y="343.8232">Mengirim daftar nilai</text><polygon fill="#2F4F8F" points="316,375.0313,306,379.0313,316,383.0313,312,379.0313" style="stroke:#2F4F8F;stroke-width:1.0;"/><line style="stroke:#2F4F8F;stroke-width:1.0;stroke-dasharray:2.0,2.0;" x1="310" x2="530" y1="379.0313" y2="379.0313"/><text fill="#000000" font-family="sans-serif" font-size="13" font-weight="bold" lengthAdjust="spacing" textLength="7" x="322" y="374.1748">8</text><text fill="#000000" font-family="sans-serif" font-size="13" lengthAdjust="spacing" textLength="155" x="333" y="374.1748">Mengirim hasil ke halaman</text><polygon fill="#2F4F8F" points="60,405.3828,50,409.3828,60,413.3828,56,409.3828" style="stroke:#2F4F8F;stroke-width:1.0;"/><line style="stroke:#2F4F8F;stroke-width:1.0;stroke-dasharray:2.0,2.0;" x1="54" x2="304" y1="409.3828" y2="409.3828"/><text fill="#000000" font-family="sans-serif" font-size="13" font-weight="bold" lengthAdjust="spacing" textLength="7" x="66" y="404.5264">9</text><text fill="#000000" font-family="sans-serif" font-size="13" lengthAdjust="spacing" textLength="214" x="77" y="404.5264">Menampilkan hasil kepada pengguna</text><polygon fill="#2F4F8F" points="293,461.0859,303,465.0859,293,469.0859,297,465.0859" style="stroke:#2F4F8F;stroke-width:1.0;"/><line style="stroke:#2F4F8F;stroke-width:1.0;" x1="49" x2="299" y1="465.0859" y2="465.0859"/><text fill="#000000" font-family="sans-serif" font-size="13" font-weight="bold" lengthAdjust="spacing" textLength="14" x="56" y="460.2295">10</text><text fill="#000000" font-family="sans-serif" font-size="13" lengthAdjust="spacing" textLength="109" x="74" y="460.2295">Mengirim form nilai</text><polygon fill="#2F4F8F" points="519,491.4375,529,495.4375,519,499.4375,523,495.4375" style="stroke:#2F4F8F;stroke-width:1.0;"/><line style="stroke:#2F4F8F;stroke-width:1.0;" x1="305" x2="525" y1="495.4375" y2="495.4375"/><text fill="#000000" font-family="sans-serif" font-size="13" font-weight="bold" lengthAdjust="spacing" textLength="14" x="312" y="490.5811">11</text><text fill="#000000" font-family="sans-serif" font-size="13" lengthAdjust="spacing" textLength="184" x="330" y="490.5811">Mengirim data formulir guru nilai</text><line style="stroke:#2F4F8F;stroke-width:1.0;" x1="531" x2="573" y1="525.7891" y2="525.7891"/><line style="stroke:#2F4F8F;stroke-width:1.0;" x1="573" x2="573" y1="525.7891" y2="538.7891"/><line style="stroke:#2F4F8F;stroke-width:1.0;" x1="532" x2="573" y1="538.7891" y2="538.7891"/><polygon fill="#2F4F8F" points="542,534.7891,532,538.7891,542,542.7891,538,538.7891" style="stroke:#2F4F8F;stroke-width:1.0;"/><text fill="#000000" font-family="sans-serif" font-size="13" font-weight="bold" lengthAdjust="spacing" textLength="14" x="538" y="520.9326">12</text><text fill="#000000" font-family="sans-serif" font-size="13" lengthAdjust="spacing" textLength="206" x="556" y="520.9326">Memeriksa kode keamanan formulir</text><path d="M20,553.7891 L81,553.7891 L81,562.1406 L71,572.1406 L20,572.1406 L20,553.7891 " fill="#EEEEEE" style="stroke:#000000;stroke-width:1.5;"/><rect fill="none" height="552.4531" style="stroke:#000000;stroke-width:1.5;" width="857.5" x="20" y="553.7891"/><text fill="#000000" font-family="sans-serif" font-size="13" font-weight="bold" lengthAdjust="spacing" textLength="16" x="35" y="568.2842">alt</text><text fill="#000000" font-family="sans-serif" font-size="11" font-weight="bold" lengthAdjust="spacing" textLength="209" x="96" y="567.208">[kode keamanan formulir tidak benar]</text><polygon fill="#2F4F8F" points="316,590.4922,306,594.4922,316,598.4922,312,594.4922" style="stroke:#2F4F8F;stroke-width:1.0;"/><line style="stroke:#2F4F8F;stroke-width:1.0;stroke-dasharray:2.0,2.0;" x1="310" x2="530" y1="594.4922" y2="594.4922"/><text fill="#000000" font-family="sans-serif" font-size="13" font-weight="bold" lengthAdjust="spacing" textLength="14" x="322" y="589.6357">13</text><text fill="#000000" font-family="sans-serif" font-size="13" lengthAdjust="spacing" textLength="119" x="340" y="589.6357">Mengirim hasil gagal</text><line style="stroke:#000000;stroke-width:1.0;stroke-dasharray:2.0,2.0;" x1="20" x2="877.5" y1="603.4922" y2="603.4922"/><text fill="#000000" font-family="sans-serif" font-size="11" font-weight="bold" lengthAdjust="spacing" textLength="179" x="25" y="614.9111">[kode keamanan formulir benar]</text><polygon fill="#2F4F8F" points="802,636.6797,812,640.6797,802,644.6797,806,640.6797" style="stroke:#2F4F8F;stroke-width:1.0;"/><line style="stroke:#2F4F8F;stroke-width:1.0;" x1="531" x2="808" y1="640.6797" y2="640.6797"/><text fill="#000000" font-family="sans-serif" font-size="13" font-weight="bold" lengthAdjust="spacing" textLength="14" x="538" y="635.8232">14</text><text fill="#000000" font-family="sans-serif" font-size="13" lengthAdjust="spacing" textLength="241" x="556" y="635.8232">Mengambil data benarasi jadwal/nilai guru</text><polygon fill="#2F4F8F" points="542,667.0313,532,671.0313,542,675.0313,538,671.0313" style="stroke:#2F4F8F;stroke-width:1.0;"/><line style="stroke:#2F4F8F;stroke-width:1.0;stroke-dasharray:2.0,2.0;" x1="536" x2="813" y1="671.0313" y2="671.0313"/><text fill="#000000" font-family="sans-serif" font-size="13" font-weight="bold" lengthAdjust="spacing" textLength="14" x="548" y="666.1748">15</text><text fill="#000000" font-family="sans-serif" font-size="13" lengthAdjust="spacing" textLength="113" x="566" y="666.1748">Mengirim hasil data</text><path d="M446.5,686.0313 L507.5,686.0313 L507.5,694.3828 L497.5,704.3828 L446.5,704.3828 L446.5,686.0313 " fill="#EEEEEE" style="stroke:#000000;stroke-width:1.5;"/><rect fill="none" height="309.1563" style="stroke:#000000;stroke-width:1.5;" width="421" x="446.5" y="686.0313"/><text fill="#000000" font-family="sans-serif" font-size="13" font-weight="bold" lengthAdjust="spacing" textLength="16" x="461.5" y="700.5264">alt</text><text fill="#000000" font-family="sans-serif" font-size="11" font-weight="bold" lengthAdjust="spacing" textLength="198" x="522.5" y="699.4502">[Bukan milik guru / data tidak benar]</text><line style="stroke:#000000;stroke-width:1.0;stroke-dasharray:2.0,2.0;" x1="446.5" x2="867.5" y1="705.3828" y2="705.3828"/><text fill="#000000" font-family="sans-serif" font-size="11" font-weight="bold" lengthAdjust="spacing" textLength="66" x="451.5" y="716.8018">[Data benar]</text><path d="M456.5,727.2188 L517.5,727.2188 L517.5,735.5703 L507.5,745.5703 L456.5,745.5703 L456.5,727.2188 " fill="#EEEEEE" style="stroke:#000000;stroke-width:1.5;"/><rect fill="none" height="230.6172" style="stroke:#000000;stroke-width:1.5;" width="401" x="456.5" y="727.2188"/><text fill="#000000" font-family="sans-serif" font-size="13" font-weight="bold" lengthAdjust="spacing" textLength="16" x="471.5" y="741.7139">alt</text><text fill="#000000" font-family="sans-serif" font-size="11" font-weight="bold" lengthAdjust="spacing" textLength="141" x="532.5" y="740.6377">[save dan nilai sudah ada]</text><polygon fill="#2F4F8F" points="802,763.9219,812,767.9219,802,771.9219,806,767.9219" style="stroke:#2F4F8F;stroke-width:1.0;"/><line style="stroke:#2F4F8F;stroke-width:1.0;" x1="531" x2="808" y1="767.9219" y2="767.9219"/><text fill="#000000" font-family="sans-serif" font-size="13" font-weight="bold" lengthAdjust="spacing" textLength="14" x="538" y="763.0654">16</text><text fill="#000000" font-family="sans-serif" font-size="13" lengthAdjust="spacing" textLength="131" x="556" y="763.0654">Memperbarui data nilai</text><line style="stroke:#000000;stroke-width:1.0;stroke-dasharray:2.0,2.0;" x1="456.5" x2="857.5" y1="776.9219" y2="776.9219"/><text fill="#000000" font-family="sans-serif" font-size="11" font-weight="bold" lengthAdjust="spacing" textLength="87" x="461.5" y="788.3408">[save nilai baru]</text><polygon fill="#2F4F8F" points="802,810.1094,812,814.1094,802,818.1094,806,814.1094" style="stroke:#2F4F8F;stroke-width:1.0;"/><line style="stroke:#2F4F8F;stroke-width:1.0;" x1="531" x2="808" y1="814.1094" y2="814.1094"/><text fill="#000000" font-family="sans-serif" font-size="13" font-weight="bold" lengthAdjust="spacing" textLength="14" x="538" y="809.2529">17</text><text fill="#000000" font-family="sans-serif" font-size="13" lengthAdjust="spacing" textLength="152" x="556" y="809.2529">Menyimpan data baru nilai</text><line style="stroke:#000000;stroke-width:1.0;stroke-dasharray:2.0,2.0;" x1="456.5" x2="857.5" y1="823.1094" y2="823.1094"/><text fill="#000000" font-family="sans-serif" font-size="11" font-weight="bold" lengthAdjust="spacing" textLength="71" x="461.5" y="834.5283">[update nilai]</text><polygon fill="#2F4F8F" points="802,856.2969,812,860.2969,802,864.2969,806,860.2969" style="stroke:#2F4F8F;stroke-width:1.0;"/><line style="stroke:#2F4F8F;stroke-width:1.0;" x1="531" x2="808" y1="860.2969" y2="860.2969"/><text fill="#000000" font-family="sans-serif" font-size="13" font-weight="bold" lengthAdjust="spacing" textLength="14" x="538" y="855.4404">18</text><text fill="#000000" font-family="sans-serif" font-size="13" lengthAdjust="spacing" textLength="131" x="556" y="855.4404">Memperbarui data nilai</text><line style="stroke:#000000;stroke-width:1.0;stroke-dasharray:2.0,2.0;" x1="456.5" x2="857.5" y1="869.2969" y2="869.2969"/><text fill="#000000" font-family="sans-serif" font-size="11" font-weight="bold" lengthAdjust="spacing" textLength="68" x="461.5" y="880.7158">[delete nilai]</text><line style="stroke:#2F4F8F;stroke-width:1.0;" x1="531" x2="573" y1="906.4844" y2="906.4844"/><line style="stroke:#2F4F8F;stroke-width:1.0;" x1="573" x2="573" y1="906.4844" y2="919.4844"/><line style="stroke:#2F4F8F;stroke-width:1.0;" x1="532" x2="573" y1="919.4844" y2="919.4844"/><polygon fill="#2F4F8F" points="542,915.4844,532,919.4844,542,923.4844,538,919.4844" style="stroke:#2F4F8F;stroke-width:1.0;"/><text fill="#000000" font-family="sans-serif" font-size="13" font-weight="bold" lengthAdjust="spacing" textLength="14" x="538" y="901.6279">19</text><text fill="#000000" font-family="sans-serif" font-size="13" lengthAdjust="spacing" textLength="94" x="556" y="901.6279">Menghapus nilai</text><polygon fill="#2F4F8F" points="802,945.8359,812,949.8359,802,953.8359,806,949.8359" style="stroke:#2F4F8F;stroke-width:1.0;"/><line style="stroke:#2F4F8F;stroke-width:1.0;" x1="531" x2="808" y1="949.8359" y2="949.8359"/><text fill="#000000" font-family="sans-serif" font-size="13" font-weight="bold" lengthAdjust="spacing" textLength="14" x="538" y="944.9795">20</text><text fill="#000000" font-family="sans-serif" font-size="13" lengthAdjust="spacing" textLength="123" x="556" y="944.9795">Menghapus data nilai</text><polygon fill="#2F4F8F" points="542,983.1875,532,987.1875,542,991.1875,538,987.1875" style="stroke:#2F4F8F;stroke-width:1.0;"/><line style="stroke:#2F4F8F;stroke-width:1.0;stroke-dasharray:2.0,2.0;" x1="536" x2="813" y1="987.1875" y2="987.1875"/><text fill="#000000" font-family="sans-serif" font-size="13" font-weight="bold" lengthAdjust="spacing" textLength="14" x="548" y="982.3311">21</text><text fill="#000000" font-family="sans-serif" font-size="13" lengthAdjust="spacing" textLength="127" x="566" y="982.3311">Mengirim hasil proses</text><line style="stroke:#2F4F8F;stroke-width:1.0;stroke-dasharray:2.0,2.0;" x1="531" x2="573" y1="1024.5391" y2="1024.5391"/><line style="stroke:#2F4F8F;stroke-width:1.0;stroke-dasharray:2.0,2.0;" x1="573" x2="573" y1="1024.5391" y2="1037.5391"/><line style="stroke:#2F4F8F;stroke-width:1.0;stroke-dasharray:2.0,2.0;" x1="532" x2="573" y1="1037.5391" y2="1037.5391"/><polygon fill="#2F4F8F" points="542,1033.5391,532,1037.5391,542,1041.5391,538,1037.5391" style="stroke:#2F4F8F;stroke-width:1.0;"/><text fill="#000000" font-family="sans-serif" font-size="13" font-weight="bold" lengthAdjust="spacing" textLength="14" x="538" y="1019.6826">22</text><text fill="#000000" font-family="sans-serif" font-size="13" lengthAdjust="spacing" textLength="205" x="556" y="1019.6826">Menyiapkan pesan untuk pengguna</text><polygon fill="#2F4F8F" points="316,1063.8906,306,1067.8906,316,1071.8906,312,1067.8906" style="stroke:#2F4F8F;stroke-width:1.0;"/><line style="stroke:#2F4F8F;stroke-width:1.0;stroke-dasharray:2.0,2.0;" x1="310" x2="530" y1="1067.8906" y2="1067.8906"/><text fill="#000000" font-family="sans-serif" font-size="13" font-weight="bold" lengthAdjust="spacing" textLength="14" x="322" y="1063.0342">23</text><text fill="#000000" font-family="sans-serif" font-size="13" lengthAdjust="spacing" textLength="165" x="340" y="1063.0342">Mengalihkan page=guru-nilai</text><polygon fill="#2F4F8F" points="60,1094.2422,50,1098.2422,60,1102.2422,56,1098.2422" style="stroke:#2F4F8F;stroke-width:1.0;"/><line style="stroke:#2F4F8F;stroke-width:1.0;stroke-dasharray:2.0,2.0;" x1="54" x2="304" y1="1098.2422" y2="1098.2422"/><text fill="#000000" font-family="sans-serif" font-size="13" font-weight="bold" lengthAdjust="spacing" textLength="14" x="66" y="1093.3857">24</text><text fill="#000000" font-family="sans-serif" font-size="13" lengthAdjust="spacing" textLength="214" x="84" y="1093.3857">Menampilkan pesan dan data terbaru</text><!--SRC=[dLJRRjD047tVhnY5vwYa0XegWLGt61xAHUeNJEADlTZUDNiXZH3_pkp5ZjqqeP27nDavS-PoZjSAst2uvpySbniEAu6bnXRcyD5f1v-vB8Nid8Klea41zyBia5MYuB1LogxL0qDdbNJjccjcQiAYJpSL5cedP0bRR0mVH_fAlnZ0ZTPgTwiQfU75PVugN-PqU2Us_4v8dYbTS9sYRxAho-NBSHGtTQcLaqL2v6_pcpmZn3VKLcn4Xz9EA8O2Oy0HopBFSW-wsLYb9_cBnM9vUJM4ZZB3XyAPUfZatMQhrnyMAN0YwpTZ33qjpFpUPu0c2C3M7ejw3xDFs62BqajWUHiGwOXjbBHQDJ2BCSW4oT5yrKB9W8l7h42BQpGSPglq5ABz7yQ2vFFtFUyrPAv6QBbqKNxMzq2Oo7bD3cc5j0XL2fMUGmPqwcOAHcD5JRWAQy3QS2Ft6996yBwZw-0_RDUY0TyyVCTYXmsqeX5rJEgXC9-K8TTgqLBIrg9EQSyf41h_P_xfkEC53iWA3TMeUR-dmoe9xlSUiDXseedRYV0E2uIEI4edaQdEnjVIKijOmGMu-5DXvqng0-18ng6BhTBj07jIp64mMeP7kqReiQO0JwhAjQWDGgteOgYvfoNYFf-IiB4dWc15GLPOq_0UUE0_iyOIIv8JWDFLSehscF2Cx05CrCaf5z46mG2UuRm9Oa-U9u3zgFwzaICRaKIXpkDPmm2heODm5XaC_kIK8vCZZIj8Q393WfoQgksuNgDsOcJdb19g1Tf8wM5_OPDxqT8jcNQ48nCCXAwZ89-S_szl1M_u6QhntgT-Fpj2mXwNb4LwUewwdLPqLR5nuiYdewIzmCvhtt53tqvQLn_UttFsnaPK8H5B_ivxPdxezlnT4KiLlKusRfc5Jly0]--></g></svg>