<?xml version="1.0" encoding="us-ascii" standalone="no"?><svg xmlns="http://www.w3.org/2000/svg" xmlns:xlink="http://www.w3.org/1999/xlink" contentStyleType="text/css" height="902px" preserveAspectRatio="none" style="width:963px;height:902px;background:#FFFFFF;" version="1.1" viewBox="0 0 963 902" width="963px" zoomAndPan="magnify"><defs/><g><text fill="#000000" font-family="sans-serif" font-size="14" font-weight="bold" lengthAdjust="spacing" textLength="335" x="320.25" y="29.5332">Sequence Diagram - Guru Mengelola Profil Saya</text><rect fill="none" height="264.4844" style="stroke:#000000;stroke-width:1.5;" width="936.5" x="20" y="614.4922"/><rect fill="none" height="94.8906" style="stroke:#000000;stroke-width:1.5;" width="486" x="460.5" y="686.0313"/><line style="stroke:#6B7280;stroke-width:0.5;stroke-dasharray:5.0,5.0;" x1="49" x2="49" y1="121.2188" y2="895.9766"/><line style="stroke:#6B7280;stroke-width:0.5;stroke-dasharray:5.0,5.0;" x1="304.5" x2="304.5" y1="121.2188" y2="895.9766"/><line style="stroke:#6B7280;stroke-width:0.5;stroke-dasharray:5.0,5.0;" x1="534.5" x2="534.5" y1="121.2188" y2="895.9766"/><line style="stroke:#6B7280;stroke-width:0.5;stroke-dasharray:5.0,5.0;" x1="902.5" x2="902.5" y1="121.2188" y2="895.9766"/><text fill="#000000" font-family="sans-serif" font-size="14" lengthAdjust="spacing" textLength="32" x="30" y="118.1426">Guru</text><ellipse cx="49" cy="52.1094" fill="#FFFFFF" rx="8" ry="8" style="stroke:#111827;stroke-width:0.5;"/><path d="M49,60.1094 L49,87.1094 M36,68.1094 L62,68.1094 M49,87.1094 L36,102.1094 M49,87.1094 L62,102.1094 " fill="none" style="stroke:#111827;stroke-width:0.5;"/><text fill="#000000" font-family="sans-serif" font-size="14" lengthAdjust="spacing" textLength="101" x="251.5" y="118.1426">Halaman Sistem</text><path d="M284.5,75.6094 L284.5,99.6094 M284.5,87.6094 L301.5,87.6094 " fill="none" style="stroke:#181818;stroke-width:0.5;"/><ellipse cx="313.5" cy="87.6094" fill="#E2E2F0" rx="12" ry="12" style="stroke:#181818;stroke-width:0.5;"/><text fill="#000000" font-family="sans-serif" font-size="14" lengthAdjust="spacing" textLength="123" x="470.5" y="118.1426">Sistem BimbelOrion</text><ellipse cx="535" cy="87.6094" fill="#E2E2F0" rx="12" ry="12" style="stroke:#181818;stroke-width:0.5;"/><polygon fill="#181818" points="531,75.6094,537,70.6094,535,75.6094,537,80.6094,531,75.6094" style="stroke:#181818;stroke-width:1.0;"/><text fill="#000000" font-family="sans-serif" font-size="14" lengthAdjust="spacing" textLength="61" x="869.5" y="118.1426">Database</text><path d="M885,67.6094 C885,57.6094 903,57.6094 903,57.6094 C903,57.6094 921,57.6094 921,67.6094 L921,93.6094 C921,103.6094 903,103.6094 903,103.6094 C903,103.6094 885,103.6094 885,93.6094 L885,67.6094 " fill="#E2E2F0" style="stroke:#181818;stroke-width:1.5;"/><path d="M885,67.6094 C885,77.6094 903,77.6094 903,77.6094 C903,77.6094 921,77.6094 921,67.6094 " fill="none" style="stroke:#181818;stroke-width:1.5;"/><polygon fill="#2F4F8F" points="293,149.5703,303,153.5703,293,157.5703,297,153.5703" style="stroke:#2F4F8F;stroke-width:1.0;"/><line style="stroke:#2F4F8F;stroke-width:1.0;" x1="49" x2="299" y1="153.5703" y2="153.5703"/><text fill="#000000" font-family="sans-serif" font-size="13" font-weight="bold" lengthAdjust="spacing" textLength="7" x="56" y="148.7139">1</text><text fill="#000000" font-family="sans-serif" font-size="13" lengthAdjust="spacing" textLength="99" x="67" y="148.7139">Buka menu Profil</text><polygon fill="#2F4F8F" points="523,179.9219,533,183.9219,523,187.9219,527,183.9219" style="stroke:#2F4F8F;stroke-width:1.0;"/><line style="stroke:#2F4F8F;stroke-width:1.0;" x1="305" x2="529" y1="183.9219" y2="183.9219"/><text fill="#000000" font-family="sans-serif" font-size="13" font-weight="bold" lengthAdjust="spacing" textLength="7" x="312" y="179.0654">2</text><text fill="#000000" font-family="sans-serif" font-size="13" lengthAdjust="spacing" textLength="163" x="323" y="179.0654">Meminta halaman guru profil</text><line style="stroke:#2F4F8F;stroke-width:1.0;" x1="535" x2="577" y1="214.2734" y2="214.2734"/><line style="stroke:#2F4F8F;stroke-width:1.0;" x1="577" x2="577" y1="214.2734" y2="227.2734"/><line style="stroke:#2F4F8F;stroke-width:1.0;" x1="536" x2="577" y1="227.2734" y2="227.2734"/><polygon fill="#2F4F8F" points="546,223.2734,536,227.2734,546,231.2734,542,227.2734" style="stroke:#2F4F8F;stroke-width:1.0;"/><text fill="#000000" font-family="sans-serif" font-size="13" font-weight="bold" lengthAdjust="spacing" textLength="7" x="542" y="209.417">3</text><text fill="#000000" font-family="sans-serif" font-size="13" lengthAdjust="spacing" textLength="185" x="553" y="209.417">Memastikan hak aksesnya guru</text><polygon fill="#2F4F8F" points="891,253.625,901,257.625,891,261.625,895,257.625" style="stroke:#2F4F8F;stroke-width:1.0;"/><line style="stroke:#2F4F8F;stroke-width:1.0;" x1="535" x2="897" y1="257.625" y2="257.625"/><text fill="#000000" font-family="sans-serif" font-size="13" font-weight="bold" lengthAdjust="spacing" textLength="7" x="542" y="252.7686">4</text><text fill="#000000" font-family="sans-serif" font-size="13" lengthAdjust="spacing" textLength="260" x="553" y="252.7686">Mengambil data users JOIN guru JOIN mapel</text><polygon fill="#2F4F8F" points="546,283.9766,536,287.9766,546,291.9766,542,287.9766" style="stroke:#2F4F8F;stroke-width:1.0;"/><line style="stroke:#2F4F8F;stroke-width:1.0;stroke-dasharray:2.0,2.0;" x1="540" x2="902" y1="287.9766" y2="287.9766"/><text fill="#000000" font-family="sans-serif" font-size="13" font-weight="bold" lengthAdjust="spacing" textLength="7" x="552" y="283.1201">5</text><text fill="#000000" font-family="sans-serif" font-size="13" lengthAdjust="spacing" textLength="113" x="563" y="283.1201">Mengirim hasil data</text><polygon fill="#2F4F8F" points="891,314.3281,901,318.3281,891,322.3281,895,318.3281" style="stroke:#2F4F8F;stroke-width:1.0;"/><line style="stroke:#2F4F8F;stroke-width:1.0;" x1="535" x2="897" y1="318.3281" y2="318.3281"/><text fill="#000000" font-family="sans-serif" font-size="13" font-weight="bold" lengthAdjust="spacing" textLength="7" x="542" y="313.4717">6</text><text fill="#000000" font-family="sans-serif" font-size="13" lengthAdjust="spacing" textLength="258" x="553" y="313.4717">Mengambil data statistik jadwal/nilai/absensi</text><polygon fill="#2F4F8F" points="546,344.6797,536,348.6797,546,352.6797,542,348.6797" style="stroke:#2F4F8F;stroke-width:1.0;"/><line style="stroke:#2F4F8F;stroke-width:1.0;stroke-dasharray:2.0,2.0;" x1="540" x2="902" y1="348.6797" y2="348.6797"/><text fill="#000000" font-family="sans-serif" font-size="13" font-weight="bold" lengthAdjust="spacing" textLength="7" x="552" y="343.8232">7</text><text fill="#000000" font-family="sans-serif" font-size="13" lengthAdjust="spacing" textLength="113" x="563" y="343.8232">Mengirim hasil data</text><polygon fill="#2F4F8F" points="891,375.0313,901,379.0313,891,383.0313,895,379.0313" style="stroke:#2F4F8F;stroke-width:1.0;"/><line style="stroke:#2F4F8F;stroke-width:1.0;" x1="535" x2="897" y1="379.0313" y2="379.0313"/><text fill="#000000" font-family="sans-serif" font-size="13" font-weight="bold" lengthAdjust="spacing" textLength="7" x="542" y="374.1748">8</text><text fill="#000000" font-family="sans-serif" font-size="13" lengthAdjust="spacing" textLength="161" x="553" y="374.1748">Mengambil data jadwal guru</text><polygon fill="#2F4F8F" points="546,405.3828,536,409.3828,546,413.3828,542,409.3828" style="stroke:#2F4F8F;stroke-width:1.0;"/><line style="stroke:#2F4F8F;stroke-width:1.0;stroke-dasharray:2.0,2.0;" x1="540" x2="902" y1="409.3828" y2="409.3828"/><text fill="#000000" font-family="sans-serif" font-size="13" font-weight="bold" lengthAdjust="spacing" textLength="7" x="552" y="404.5264">9</text><text fill="#000000" font-family="sans-serif" font-size="13" lengthAdjust="spacing" textLength="113" x="563" y="404.5264">Mengirim hasil data</text><polygon fill="#2F4F8F" points="316,435.7344,306,439.7344,316,443.7344,312,439.7344" style="stroke:#2F4F8F;stroke-width:1.0;"/><line style="stroke:#2F4F8F;stroke-width:1.0;stroke-dasharray:2.0,2.0;" x1="310" x2="534" y1="439.7344" y2="439.7344"/><text fill="#000000" font-family="sans-serif" font-size="13" font-weight="bold" lengthAdjust="spacing" textLength="14" x="322" y="434.8779">10</text><text fill="#000000" font-family="sans-serif" font-size="13" lengthAdjust="spacing" textLength="155" x="340" y="434.8779">Mengirim hasil ke halaman</text><polygon fill="#2F4F8F" points="60,466.0859,50,470.0859,60,474.0859,56,470.0859" style="stroke:#2F4F8F;stroke-width:1.0;"/><line style="stroke:#2F4F8F;stroke-width:1.0;stroke-dasharray:2.0,2.0;" x1="54" x2="304" y1="470.0859" y2="470.0859"/><text fill="#000000" font-family="sans-serif" font-size="13" font-weight="bold" lengthAdjust="spacing" textLength="14" x="66" y="465.2295">11</text><text fill="#000000" font-family="sans-serif" font-size="13" lengthAdjust="spacing" textLength="214" x="84" y="465.2295">Menampilkan hasil kepada pengguna</text><polygon fill="#2F4F8F" points="293,521.7891,303,525.7891,293,529.7891,297,525.7891" style="stroke:#2F4F8F;stroke-width:1.0;"/><line style="stroke:#2F4F8F;stroke-width:1.0;" x1="49" x2="299" y1="525.7891" y2="525.7891"/><text fill="#000000" font-family="sans-serif" font-size="13" font-weight="bold" lengthAdjust="spacing" textLength="14" x="56" y="520.9326">12</text><text fill="#000000" font-family="sans-serif" font-size="13" lengthAdjust="spacing" textLength="172" x="74" y="520.9326">Mengirim form profil/password</text><polygon fill="#2F4F8F" points="523,552.1406,533,556.1406,523,560.1406,527,556.1406" style="stroke:#2F4F8F;stroke-width:1.0;"/><line style="stroke:#2F4F8F;stroke-width:1.0;" x1="305" x2="529" y1="556.1406" y2="556.1406"/><text fill="#000000" font-family="sans-serif" font-size="13" font-weight="bold" lengthAdjust="spacing" textLength="14" x="312" y="551.2842">13</text><text fill="#000000" font-family="sans-serif" font-size="13" lengthAdjust="spacing" textLength="188" x="330" y="551.2842">Mengirim data formulir guru profil</text><line style="stroke:#2F4F8F;stroke-width:1.0;" x1="535" x2="577" y1="586.4922" y2="586.4922"/><line style="stroke:#2F4F8F;stroke-width:1.0;" x1="577" x2="577" y1="586.4922" y2="599.4922"/><line style="stroke:#2F4F8F;stroke-width:1.0;" x1="536" x2="577" y1="599.4922" y2="599.4922"/><polygon fill="#2F4F8F" points="546,595.4922,536,599.4922,546,603.4922,542,599.4922" style="stroke:#2F4F8F;stroke-width:1.0;"/><text fill="#000000" font-family="sans-serif" font-size="13" font-weight="bold" lengthAdjust="spacing" textLength="14" x="542" y="581.6357">14</text><text fill="#000000" font-family="sans-serif" font-size="13" lengthAdjust="spacing" textLength="206" x="560" y="581.6357">Memeriksa kode keamanan formulir</text><path d="M20,614.4922 L81,614.4922 L81,622.8438 L71,632.8438 L20,632.8438 L20,614.4922 " fill="#EEEEEE" style="stroke:#000000;stroke-width:1.5;"/><rect fill="none" height="264.4844" style="stroke:#000000;stroke-width:1.5;" width="936.5" x="20" y="614.4922"/><text fill="#000000" font-family="sans-serif" font-size="13" font-weight="bold" lengthAdjust="spacing" textLength="16" x="35" y="628.9873">alt</text><text fill="#000000" font-family="sans-serif" font-size="11" font-weight="bold" lengthAdjust="spacing" textLength="209" x="96" y="627.9111">[kode keamanan formulir tidak benar]</text><polygon fill="#2F4F8F" points="316,651.1953,306,655.1953,316,659.1953,312,655.1953" style="stroke:#2F4F8F;stroke-width:1.0;"/><line style="stroke:#2F4F8F;stroke-width:1.0;stroke-dasharray:2.0,2.0;" x1="310" x2="534" y1="655.1953" y2="655.1953"/><text fill="#000000" font-family="sans-serif" font-size="13" font-weight="bold" lengthAdjust="spacing" textLength="14" x="322" y="650.3389">15</text><text fill="#000000" font-family="sans-serif" font-size="13" lengthAdjust="spacing" textLength="119" x="340" y="650.3389">Mengirim hasil gagal</text><line style="stroke:#000000;stroke-width:1.0;stroke-dasharray:2.0,2.0;" x1="20" x2="956.5" y1="664.1953" y2="664.1953"/><text fill="#000000" font-family="sans-serif" font-size="11" font-weight="bold" lengthAdjust="spacing" textLength="179" x="25" y="675.6143">[kode keamanan formulir benar]</text><path d="M460.5,686.0313 L521.5,686.0313 L521.5,694.3828 L511.5,704.3828 L460.5,704.3828 L460.5,686.0313 " fill="#EEEEEE" style="stroke:#000000;stroke-width:1.5;"/><rect fill="none" height="94.8906" style="stroke:#000000;stroke-width:1.5;" width="486" x="460.5" y="686.0313"/><text fill="#000000" font-family="sans-serif" font-size="13" font-weight="bold" lengthAdjust="spacing" textLength="16" x="475.5" y="700.5264">alt</text><text fill="#000000" font-family="sans-serif" font-size="11" font-weight="bold" lengthAdjust="spacing" textLength="86" x="536.5" y="699.4502">[update-profile]</text><polygon fill="#2F4F8F" points="891,722.7344,901,726.7344,891,730.7344,895,726.7344" style="stroke:#2F4F8F;stroke-width:1.0;"/><line style="stroke:#2F4F8F;stroke-width:1.0;" x1="535" x2="897" y1="726.7344" y2="726.7344"/><text fill="#000000" font-family="sans-serif" font-size="13" font-weight="bold" lengthAdjust="spacing" textLength="14" x="542" y="721.8779">16</text><text fill="#000000" font-family="sans-serif" font-size="13" lengthAdjust="spacing" textLength="241" x="560" y="721.8779">Memperbarui data users + guru jika benar</text><line style="stroke:#000000;stroke-width:1.0;stroke-dasharray:2.0,2.0;" x1="460.5" x2="946.5" y1="735.7344" y2="735.7344"/><text fill="#000000" font-family="sans-serif" font-size="11" font-weight="bold" lengthAdjust="spacing" textLength="108" x="465.5" y="747.1533">[change-password]</text><polygon fill="#2F4F8F" points="891,768.9219,901,772.9219,891,776.9219,895,772.9219" style="stroke:#2F4F8F;stroke-width:1.0;"/><line style="stroke:#2F4F8F;stroke-width:1.0;" x1="535" x2="897" y1="772.9219" y2="772.9219"/><text fill="#000000" font-family="sans-serif" font-size="13" font-weight="bold" lengthAdjust="spacing" textLength="14" x="542" y="768.0654">17</text><text fill="#000000" font-family="sans-serif" font-size="13" lengthAdjust="spacing" textLength="326" x="560" y="768.0654">Mengambil data password lalu UPDATE users.password</text><polygon fill="#2F4F8F" points="546,806.2734,536,810.2734,546,814.2734,542,810.2734" style="stroke:#2F4F8F;stroke-width:1.0;"/><line style="stroke:#2F4F8F;stroke-width:1.0;stroke-dasharray:2.0,2.0;" x1="540" x2="902" y1="810.2734" y2="810.2734"/><text fill="#000000" font-family="sans-serif" font-size="13" font-weight="bold" lengthAdjust="spacing" textLength="14" x="552" y="805.417">18</text><text fill="#000000" font-family="sans-serif" font-size="13" lengthAdjust="spacing" textLength="127" x="570" y="805.417">Mengirim hasil proses</text><polygon fill="#2F4F8F" points="316,836.625,306,840.625,316,844.625,312,840.625" style="stroke:#2F4F8F;stroke-width:1.0;"/><line style="stroke:#2F4F8F;stroke-width:1.0;stroke-dasharray:2.0,2.0;" x1="310" x2="534" y1="840.625" y2="840.625"/><text fill="#000000" font-family="sans-serif" font-size="13" font-weight="bold" lengthAdjust="spacing" textLength="14" x="322" y="835.7686">19</text><text fill="#000000" font-family="sans-serif" font-size="13" lengthAdjust="spacing" textLength="169" x="340" y="835.7686">Mengalihkan page=guru-profil</text><polygon fill="#2F4F8F" points="60,866.9766,50,870.9766,60,874.9766,56,870.9766" style="stroke:#2F4F8F;stroke-width:1.0;"/><line style="stroke:#2F4F8F;stroke-width:1.0;stroke-dasharray:2.0,2.0;" x1="54" x2="304" y1="870.9766" y2="870.9766"/><text fill="#000000" font-family="sans-serif" font-size="13" font-weight="bold" lengthAdjust="spacing" textLength="14" x="66" y="866.1201">20</text><text fill="#000000" font-family="sans-serif" font-size="13" lengthAdjust="spacing" textLength="129" x="84" y="866.1201">Tampilkan pesan hasil</text><!--SRC=[hLJRRjD047tVhnY5HnH2Ag2X4aXnKtDHePLQFc0SJvojrxjcBqehnB-p5pkrQLCL2R_OtZddpEpCsRNS2e8h-kb8hWbM72kD3KpXazCElf6iI2Y1SAdLXWkumZjaMruIR9IoXRfbwAoIhYb8CrDpsMAWcosMQiTb1HiKXeQHFjCl1h3KMkrEbL0QNXpbR_95xXVF-OREkQHCwP9q5tsN7HyjNW-ZkAuhhPmiEqJ-Fb_ccKTSehPypLkKTYInJp04F51Pv5aUGCkrLNh4dy_dYwFZVUW1Cpu-dAdR4UyqMxqzctU10wpVZ34CiZ09VPy0cZW0LWGiwZkOV4Q13KguuiPI4n7T4bihQRKIC4anoBWVXxZGNCc8IykiH8i56eB9glkAqVw7iJZowSTUzmGoLoCq95qtVjONuK59zCHRfE7I8coxK1L4sWJlwXcZqLXUU-0MQy3Qa95t65a3U5_JINGWDeMtNYWVd25juEl5b-yfKVngi2N1UWvCH_banJLlV3RJQJmdZR5eUQWJRh3SePX9Bf3Fi30a3V-lgLA2r81_rXqEwozSJVr8xgVcuM764OjDoqMQGuAtM2AqNgHo4fbgRRe2N87RRfumWyeV6Wuj6hFp7lUcVk2PVHaRfPkEE1iG7hLGHuaD2Jmdk1uv2U1HBv7cjK6ebR-GQWgwNhaNy2GKza0GB2-z0GlVY02yrt-YfHLM64eXVwKTahqN3BbTwxT4qxG9Yil3dGnDqRIa2zIE3ut-CZNXnX-OWNBClzwYlvkdWyuUrXuPhcU0GE7Wn-LgUNsMqhqQYP5Cx-UOqc_G7-Gd-uY2RuFTMgpeGzZLT3_QWIds3htU-xCbqxkKnQh-0000]--></g></svg>