<?xml version="1.0" encoding="us-ascii" standalone="no"?><svg xmlns="http://www.w3.org/2000/svg" xmlns:xlink="http://www.w3.org/1999/xlink" contentStyleType="text/css" height="465px" preserveAspectRatio="none" style="width:996px;height:465px;background:#FFFFFF;" version="1.1" viewBox="0 0 996 465" width="996px" zoomAndPan="magnify"><defs/><g><text fill="#000000" font-family="sans-serif" font-size="14" font-weight="bold" lengthAdjust="spacing" textLength="350" x="324.25" y="29.5332">Sequence Diagram - Siswa Mengakses Dashboard</text><rect fill="none" height="198.9453" style="stroke:#000000;stroke-width:1.5;" width="808" x="10" y="242.2734"/><line style="stroke:#6B7280;stroke-width:0.5;stroke-dasharray:5.0,5.0;" x1="41" x2="41" y1="121.2188" y2="458.2188"/><line style="stroke:#6B7280;stroke-width:0.5;stroke-dasharray:5.0,5.0;" x1="358.5" x2="358.5" y1="121.2188" y2="458.2188"/><line style="stroke:#6B7280;stroke-width:0.5;stroke-dasharray:5.0,5.0;" x1="636.5" x2="636.5" y1="121.2188" y2="458.2188"/><line style="stroke:#6B7280;stroke-width:0.5;stroke-dasharray:5.0,5.0;" x1="960.5" x2="960.5" y1="121.2188" y2="458.2188"/><text fill="#000000" font-family="sans-serif" font-size="14" lengthAdjust="spacing" textLength="36" x="20" y="118.1426">Siswa</text><ellipse cx="41" cy="52.1094" fill="#FFFFFF" rx="8" ry="8" style="stroke:#111827;stroke-width:0.5;"/><path d="M41,60.1094 L41,87.1094 M28,68.1094 L54,68.1094 M41,87.1094 L28,102.1094 M41,87.1094 L54,102.1094 " fill="none" style="stroke:#111827;stroke-width:0.5;"/><text fill="#000000" font-family="sans-serif" font-size="14" lengthAdjust="spacing" textLength="101" x="305.5" y="118.1426">Halaman Sistem</text><path d="M338.5,75.6094 L338.5,99.6094 M338.5,87.6094 L355.5,87.6094 " fill="none" style="stroke:#181818;stroke-width:0.5;"/><ellipse cx="367.5" cy="87.6094" fill="#E2E2F0" rx="12" ry="12" style="stroke:#181818;stroke-width:0.5;"/><text fill="#000000" font-family="sans-serif" font-size="14" lengthAdjust="spacing" textLength="123" x="572.5" y="118.1426">Sistem BimbelOrion</text><ellipse cx="637" cy="87.6094" fill="#E2E2F0" rx="12" ry="12" style="stroke:#181818;stroke-width:0.5;"/><polygon fill="#181818" points="633,75.6094,639,70.6094,637,75.6094,639,80.6094,633,75.6094" style="stroke:#181818;stroke-width:1.0;"/><text fill="#000000" font-family="sans-serif" font-size="14" lengthAdjust="spacing" textLength="61" x="927.5" y="118.1426">Database</text><path d="M943,67.6094 C943,57.6094 961,57.6094 961,57.6094 C961,57.6094 979,57.6094 979,67.6094 L979,93.6094 C979,103.6094 961,103.6094 961,103.6094 C961,103.6094 943,103.6094 943,93.6094 L943,67.6094 " fill="#E2E2F0" style="stroke:#181818;stroke-width:1.5;"/><path d="M943,67.6094 C943,77.6094 961,77.6094 961,77.6094 C961,77.6094 979,77.6094 979,67.6094 " fill="none" style="stroke:#181818;stroke-width:1.5;"/><polygon fill="#2F4F8F" points="347,149.5703,357,153.5703,347,157.5703,351,153.5703" style="stroke:#2F4F8F;stroke-width:1.0;"/><line style="stroke:#2F4F8F;stroke-width:1.0;" x1="41" x2="353" y1="153.5703" y2="153.5703"/><text fill="#000000" font-family="sans-serif" font-size="13" font-weight="bold" lengthAdjust="spacing" textLength="7" x="48" y="148.7139">1</text><text fill="#000000" font-family="sans-serif" font-size="13" lengthAdjust="spacing" textLength="166" x="59" y="148.7139">Pilih menu Dashboard Siswa</text><polygon fill="#2F4F8F" points="625,179.9219,635,183.9219,625,187.9219,629,183.9219" style="stroke:#2F4F8F;stroke-width:1.0;"/><line style="stroke:#2F4F8F;stroke-width:1.0;" x1="359" x2="631" y1="183.9219" y2="183.9219"/><text fill="#000000" font-family="sans-serif" font-size="13" font-weight="bold" lengthAdjust="spacing" textLength="7" x="366" y="179.0654">2</text><text fill="#000000" font-family="sans-serif" font-size="13" lengthAdjust="spacing" textLength="204" x="377" y="179.0654">Meminta halaman siswa dashboard</text><line style="stroke:#2F4F8F;stroke-width:1.0;" x1="637" x2="679" y1="214.2734" y2="214.2734"/><line style="stroke:#2F4F8F;stroke-width:1.0;" x1="679" x2="679" y1="214.2734" y2="227.2734"/><line style="stroke:#2F4F8F;stroke-width:1.0;" x1="638" x2="679" y1="227.2734" y2="227.2734"/><polygon fill="#2F4F8F" points="648,223.2734,638,227.2734,648,231.2734,644,227.2734" style="stroke:#2F4F8F;stroke-width:1.0;"/><text fill="#000000" font-family="sans-serif" font-size="13" font-weight="bold" lengthAdjust="spacing" textLength="7" x="644" y="209.417">3</text><text fill="#000000" font-family="sans-serif" font-size="13" lengthAdjust="spacing" textLength="299" x="655" y="209.417">Memastikan pengguna sudah masuk sebagai siswa</text><path d="M10,242.2734 L71,242.2734 L71,250.625 L61,260.625 L10,260.625 L10,242.2734 " fill="#EEEEEE" style="stroke:#000000;stroke-width:1.5;"/><rect fill="none" height="198.9453" style="stroke:#000000;stroke-width:1.5;" width="808" x="10" y="242.2734"/><text fill="#000000" font-family="sans-serif" font-size="13" font-weight="bold" lengthAdjust="spacing" textLength="16" x="25" y="256.7686">alt</text><text fill="#000000" font-family="sans-serif" font-size="11" font-weight="bold" lengthAdjust="spacing" textLength="216" x="86" y="255.6924">[Sesi login benar dan hak akses siswa]</text><line style="stroke:#2F4F8F;stroke-width:1.0;" x1="637" x2="679" y1="282.9766" y2="282.9766"/><line style="stroke:#2F4F8F;stroke-width:1.0;" x1="679" x2="679" y1="282.9766" y2="295.9766"/><line style="stroke:#2F4F8F;stroke-width:1.0;" x1="638" x2="679" y1="295.9766" y2="295.9766"/><polygon fill="#2F4F8F" points="648,291.9766,638,295.9766,648,299.9766,644,295.9766" style="stroke:#2F4F8F;stroke-width:1.0;"/><text fill="#000000" font-family="sans-serif" font-size="13" font-weight="bold" lengthAdjust="spacing" textLength="7" x="644" y="278.1201">4</text><text fill="#000000" font-family="sans-serif" font-size="13" lengthAdjust="spacing" textLength="151" x="655" y="278.1201">Menyiapkan isi dashboard</text><polygon fill="#2F4F8F" points="370,322.3281,360,326.3281,370,330.3281,366,326.3281" style="stroke:#2F4F8F;stroke-width:1.0;"/><line style="stroke:#2F4F8F;stroke-width:1.0;stroke-dasharray:2.0,2.0;" x1="364" x2="636" y1="326.3281" y2="326.3281"/><text fill="#000000" font-family="sans-serif" font-size="13" font-weight="bold" lengthAdjust="spacing" textLength="7" x="376" y="321.4717">5</text><text fill="#000000" font-family="sans-serif" font-size="13" lengthAdjust="spacing" textLength="155" x="387" y="321.4717">Mengirim hasil ke halaman</text><polygon fill="#2F4F8F" points="52,352.6797,42,356.6797,52,360.6797,48,356.6797" style="stroke:#2F4F8F;stroke-width:1.0;"/><line style="stroke:#2F4F8F;stroke-width:1.0;stroke-dasharray:2.0,2.0;" x1="46" x2="358" y1="356.6797" y2="356.6797"/><text fill="#000000" font-family="sans-serif" font-size="13" font-weight="bold" lengthAdjust="spacing" textLength="7" x="58" y="351.8232">6</text><text fill="#000000" font-family="sans-serif" font-size="13" lengthAdjust="spacing" textLength="198" x="69" y="351.8232">Tampilkan ringkasan belajar siswa</text><line style="stroke:#000000;stroke-width:1.0;stroke-dasharray:2.0,2.0;" x1="10" x2="818" y1="365.6797" y2="365.6797"/><text fill="#000000" font-family="sans-serif" font-size="11" font-weight="bold" lengthAdjust="spacing" textLength="225" x="15" y="377.0986">[Sesi login tidak benar / hak akses salah]</text><polygon fill="#2F4F8F" points="370,398.8672,360,402.8672,370,406.8672,366,402.8672" style="stroke:#2F4F8F;stroke-width:1.0;"/><line style="stroke:#2F4F8F;stroke-width:1.0;stroke-dasharray:2.0,2.0;" x1="364" x2="636" y1="402.8672" y2="402.8672"/><text fill="#000000" font-family="sans-serif" font-size="13" font-weight="bold" lengthAdjust="spacing" textLength="7" x="376" y="398.0107">7</text><text fill="#000000" font-family="sans-serif" font-size="13" lengthAdjust="spacing" textLength="243" x="387" y="398.0107">Mengalihkan ke login atau menolak akses</text><polygon fill="#2F4F8F" points="52,429.2188,42,433.2188,52,437.2188,48,433.2188" style="stroke:#2F4F8F;stroke-width:1.0;"/><line style="stroke:#2F4F8F;stroke-width:1.0;stroke-dasharray:2.0,2.0;" x1="46" x2="358" y1="433.2188" y2="433.2188"/><text fill="#000000" font-family="sans-serif" font-size="13" font-weight="bold" lengthAdjust="spacing" textLength="7" x="58" y="428.3623">8</text><text fill="#000000" font-family="sans-serif" font-size="13" lengthAdjust="spacing" textLength="283" x="69" y="428.3623">Menampilkan pesan bahwa akses tidak diizinkan</text><!--SRC=[VLF1Rjim3BthAuZqN6m9jZNBOK3SpDYXmmfqFq1RYirQbZn9HjeD-_THbkquQBkS7Bx7znvDEb3G2XxKhrwPKi61i7BOmZKya3yXV5UcmiOh3mVqTM7HIL6JL72qDXJsIM0VhEdRGZdX6p8TncvVexGdCXKSKNkrH2QZFm9WxvmztLfj7LnjyW_vDkVY7HtL7HcLMIUL6z5FsSrc-tw9OjbKplP6ZepySxxFCsRSemjKKeScN4ZC1al22vLjdkMHj2-3THVzw_LwkxcPeHUTmu_Xp3vTzDrcXuzVroFmHjTV8GH6MLWDhtq5wDC2H17Pw9vXzGqrjcXYFQXse8mbKLeJdDL3DsEG4Iz4_t1apIJ5PI4nO85UmUemFWtez8T3YBJrwo-Jz0xkILCDhJBz-GJ6R5CYfYU77TzBIoOWr2Fa1pqvtyuOyB83VQ26oHqVMzKR1DzBP4_qVSCNKs25b9G4wi37wWcqhSX0eGmwbZTis40wr4G4UCtAF1DsqOfOufpgJ5vE7c-V7BMixKb3ewQfc3-FdkHFk8EVs7QaexZZos_GOyodyP4JfaoAluLb-a2IKwSPtYqdOF7wFw6GDn9zE54IuWNsSKLMJnglH-JcEMIdXe1OytwIROeZYNwJOOPGHlu3]--></g></svg>