<?xml version="1.0" encoding="us-ascii" standalone="no"?><svg xmlns="http://www.w3.org/2000/svg" xmlns:xlink="http://www.w3.org/1999/xlink" contentStyleType="text/css" height="373px" preserveAspectRatio="none" style="width:804px;height:373px;background:#FFFFFF;" version="1.1" viewBox="0 0 804 373" width="804px" zoomAndPan="magnify"><defs/><g><text fill="#000000" font-family="sans-serif" font-size="14" font-weight="bold" lengthAdjust="spacing" textLength="322" x="242.25" y="29.5332">Sequence Diagram - Siswa Melihat Jadwal Les</text><line style="stroke:#6B7280;stroke-width:0.5;stroke-dasharray:5.0,5.0;" x1="26" x2="26" y1="121.2188" y2="366.6797"/><line style="stroke:#6B7280;stroke-width:0.5;stroke-dasharray:5.0,5.0;" x1="274.5" x2="274.5" y1="121.2188" y2="366.6797"/><line style="stroke:#6B7280;stroke-width:0.5;stroke-dasharray:5.0,5.0;" x1="489.5" x2="489.5" y1="121.2188" y2="366.6797"/><line style="stroke:#6B7280;stroke-width:0.5;stroke-dasharray:5.0,5.0;" x1="768.5" x2="768.5" y1="121.2188" y2="366.6797"/><text fill="#000000" font-family="sans-serif" font-size="14" lengthAdjust="spacing" textLength="36" x="5" y="118.1426">Siswa</text><ellipse cx="26" cy="52.1094" fill="#FFFFFF" rx="8" ry="8" style="stroke:#111827;stroke-width:0.5;"/><path d="M26,60.1094 L26,87.1094 M13,68.1094 L39,68.1094 M26,87.1094 L13,102.1094 M26,87.1094 L39,102.1094 " fill="none" style="stroke:#111827;stroke-width:0.5;"/><text fill="#000000" font-family="sans-serif" font-size="14" lengthAdjust="spacing" textLength="101" x="221.5" y="118.1426">Halaman Sistem</text><path d="M254.5,75.6094 L254.5,99.6094 M254.5,87.6094 L271.5,87.6094 " fill="none" style="stroke:#181818;stroke-width:0.5;"/><ellipse cx="283.5" cy="87.6094" fill="#E2E2F0" rx="12" ry="12" style="stroke:#181818;stroke-width:0.5;"/><text fill="#000000" font-family="sans-serif" font-size="14" lengthAdjust="spacing" textLength="123" x="425.5" y="118.1426">Sistem BimbelOrion</text><ellipse cx="490" cy="87.6094" fill="#E2E2F0" rx="12" ry="12" style="stroke:#181818;stroke-width:0.5;"/><polygon fill="#181818" points="486,75.6094,492,70.6094,490,75.6094,492,80.6094,486,75.6094" style="stroke:#181818;stroke-width:1.0;"/><text fill="#000000" font-family="sans-serif" font-size="14" lengthAdjust="spacing" textLength="61" x="735.5" y="118.1426">Database</text><path d="M751,67.6094 C751,57.6094 769,57.6094 769,57.6094 C769,57.6094 787,57.6094 787,67.6094 L787,93.6094 C787,103.6094 769,103.6094 769,103.6094 C769,103.6094 751,103.6094 751,93.6094 L751,67.6094 " fill="#E2E2F0" style="stroke:#181818;stroke-width:1.5;"/><path d="M751,67.6094 C751,77.6094 769,77.6094 769,77.6094 C769,77.6094 787,77.6094 787,67.6094 " fill="none" style="stroke:#181818;stroke-width:1.5;"/><polygon fill="#2F4F8F" points="263,149.5703,273,153.5703,263,157.5703,267,153.5703" style="stroke:#2F4F8F;stroke-width:1.0;"/><line style="stroke:#2F4F8F;stroke-width:1.0;" x1="26" x2="269" y1="153.5703" y2="153.5703"/><text fill="#000000" font-family="sans-serif" font-size="13" font-weight="bold" lengthAdjust="spacing" textLength="7" x="33" y="148.7139">1</text><text fill="#000000" font-family="sans-serif" font-size="13" lengthAdjust="spacing" textLength="134" x="44" y="148.7139">Buka menu Jadwal Les</text><polygon fill="#2F4F8F" points="478,179.9219,488,183.9219,478,187.9219,482,183.9219" style="stroke:#2F4F8F;stroke-width:1.0;"/><line style="stroke:#2F4F8F;stroke-width:1.0;" x1="275" x2="484" y1="183.9219" y2="183.9219"/><text fill="#000000" font-family="sans-serif" font-size="13" font-weight="bold" lengthAdjust="spacing" textLength="7" x="282" y="179.0654">2</text><text fill="#000000" font-family="sans-serif" font-size="13" lengthAdjust="spacing" textLength="180" x="293" y="179.0654">Meminta halaman siswa jadwal</text><line style="stroke:#2F4F8F;stroke-width:1.0;" x1="490" x2="532" y1="214.2734" y2="214.2734"/><line style="stroke:#2F4F8F;stroke-width:1.0;" x1="532" x2="532" y1="214.2734" y2="227.2734"/><line style="stroke:#2F4F8F;stroke-width:1.0;" x1="491" x2="532" y1="227.2734" y2="227.2734"/><polygon fill="#2F4F8F" points="501,223.2734,491,227.2734,501,231.2734,497,227.2734" style="stroke:#2F4F8F;stroke-width:1.0;"/><text fill="#000000" font-family="sans-serif" font-size="13" font-weight="bold" lengthAdjust="spacing" textLength="7" x="497" y="209.417">3</text><text fill="#000000" font-family="sans-serif" font-size="13" lengthAdjust="spacing" textLength="193" x="508" y="209.417">Memastikan hak aksesnya siswa</text><polygon fill="#2F4F8F" points="757,253.625,767,257.625,757,261.625,761,257.625" style="stroke:#2F4F8F;stroke-width:1.0;"/><line style="stroke:#2F4F8F;stroke-width:1.0;" x1="490" x2="763" y1="257.625" y2="257.625"/><text fill="#000000" font-family="sans-serif" font-size="13" font-weight="bold" lengthAdjust="spacing" textLength="7" x="497" y="252.7686">4</text><text fill="#000000" font-family="sans-serif" font-size="13" lengthAdjust="spacing" textLength="244" x="508" y="252.7686">Mengambil data jadwal berdasarkan siswa</text><polygon fill="#2F4F8F" points="501,283.9766,491,287.9766,501,291.9766,497,287.9766" style="stroke:#2F4F8F;stroke-width:1.0;"/><line style="stroke:#2F4F8F;stroke-width:1.0;stroke-dasharray:2.0,2.0;" x1="495" x2="768" y1="287.9766" y2="287.9766"/><text fill="#000000" font-family="sans-serif" font-size="13" font-weight="bold" lengthAdjust="spacing" textLength="7" x="507" y="283.1201">5</text><text fill="#000000" font-family="sans-serif" font-size="13" lengthAdjust="spacing" textLength="129" x="518" y="283.1201">Mengirim daftar jadwal</text><polygon fill="#2F4F8F" points="286,314.3281,276,318.3281,286,322.3281,282,318.3281" style="stroke:#2F4F8F;stroke-width:1.0;"/><line style="stroke:#2F4F8F;stroke-width:1.0;stroke-dasharray:2.0,2.0;" x1="280" x2="489" y1="318.3281" y2="318.3281"/><text fill="#000000" font-family="sans-serif" font-size="13" font-weight="bold" lengthAdjust="spacing" textLength="7" x="292" y="313.4717">6</text><text fill="#000000" font-family="sans-serif" font-size="13" lengthAdjust="spacing" textLength="155" x="303" y="313.4717">Mengirim hasil ke halaman</text><polygon fill="#2F4F8F" points="37,344.6797,27,348.6797,37,352.6797,33,348.6797" style="stroke:#2F4F8F;stroke-width:1.0;"/><line style="stroke:#2F4F8F;stroke-width:1.0;stroke-dasharray:2.0,2.0;" x1="31" x2="274" y1="348.6797" y2="348.6797"/><text fill="#000000" font-family="sans-serif" font-size="13" font-weight="bold" lengthAdjust="spacing" textLength="7" x="43" y="343.8232">7</text><text fill="#000000" font-family="sans-serif" font-size="13" lengthAdjust="spacing" textLength="214" x="54" y="343.8232">Menampilkan hasil kepada pengguna</text><!--SRC=[TPBTRfmm48Nl_HIZxVLAtLMRR7DHQSaMHT5MhPGdE80NfXYRs4OaglhkDJ_UGADo1NE-SsR6sBDNafxaSoTrBkd4A2qQsj8JknxqNIgkuEaHHGz5P-b4nOMaYp4-Coy2dJUwQp9fXQjPjnZCha9XUjObNQ2SN2gnpsz1TBJMzFT66KiVzkcdz926ufalyinQ9iOMqixgJNAxFtnSgiZhqffE5pEHVacFQHA8dx2USswX_IhYsc09l4ivf4awGCVS6xloxtQxm_xsAhrpZa-G4_Eoyjqdfy_VThFm7zSV8GI6MDgCfxuXkEdyHJRGiA-qUO120ptKlMn6P2w9t6XlZHhTGQE4mmzHFomR7QD2MHJmoE0aRKxpswZ6Zp24c7xwzckClgEagq6DrDto2iHP0ZXbtuMBqh3se6gMt9ZqQ_I8UQur3kUv3cI5cb0xwVGh9jk2ZyCD3bsYoLZHiCUSJE7Y5N2mTMmfeeEsgtQwPCjDy5uyxBzpBHU-eXLSQ5RBkDBRrbDmZn56qxAQzfZu5WMe3Ibbf_4N]--></g></svg>