<?xml version="1.0" encoding="us-ascii" standalone="no"?><svg xmlns="http://www.w3.org/2000/svg" xmlns:xlink="http://www.w3.org/1999/xlink" contentStyleType="text/css" height="373px" preserveAspectRatio="none" style="width:963px;height:373px;background:#FFFFFF;" version="1.1" viewBox="0 0 963 373" width="963px" zoomAndPan="magnify"><defs/><g><text fill="#000000" font-family="sans-serif" font-size="14" font-weight="bold" lengthAdjust="spacing" textLength="358" x="303.75" y="29.5332">Sequence Diagram - Siswa Melihat Riwayat Absensi</text><line style="stroke:#6B7280;stroke-width:0.5;stroke-dasharray:5.0,5.0;" x1="26" x2="26" y1="121.2188" y2="366.6797"/><line style="stroke:#6B7280;stroke-width:0.5;stroke-dasharray:5.0,5.0;" x1="336.5" x2="336.5" y1="121.2188" y2="366.6797"/><line style="stroke:#6B7280;stroke-width:0.5;stroke-dasharray:5.0,5.0;" x1="683.5" x2="683.5" y1="121.2188" y2="366.6797"/><line style="stroke:#6B7280;stroke-width:0.5;stroke-dasharray:5.0,5.0;" x1="927.5" x2="927.5" y1="121.2188" y2="366.6797"/><text fill="#000000" font-family="sans-serif" font-size="14" lengthAdjust="spacing" textLength="36" x="5" y="118.1426">Siswa</text><ellipse cx="26" cy="52.1094" fill="#FFFFFF" rx="8" ry="8" style="stroke:#111827;stroke-width:0.5;"/><path d="M26,60.1094 L26,87.1094 M13,68.1094 L39,68.1094 M26,87.1094 L13,102.1094 M26,87.1094 L39,102.1094 " fill="none" style="stroke:#111827;stroke-width:0.5;"/><text fill="#000000" font-family="sans-serif" font-size="14" lengthAdjust="spacing" textLength="101" x="283.5" y="118.1426">Halaman Sistem</text><path d="M316.5,75.6094 L316.5,99.6094 M316.5,87.6094 L333.5,87.6094 " fill="none" style="stroke:#181818;stroke-width:0.5;"/><ellipse cx="345.5" cy="87.6094" fill="#E2E2F0" rx="12" ry="12" style="stroke:#181818;stroke-width:0.5;"/><text fill="#000000" font-family="sans-serif" font-size="14" lengthAdjust="spacing" textLength="123" x="619.5" y="118.1426">Sistem BimbelOrion</text><ellipse cx="684" cy="87.6094" fill="#E2E2F0" rx="12" ry="12" style="stroke:#181818;stroke-width:0.5;"/><polygon fill="#181818" points="680,75.6094,686,70.6094,684,75.6094,686,80.6094,680,75.6094" style="stroke:#181818;stroke-width:1.0;"/><text fill="#000000" font-family="sans-serif" font-size="14" lengthAdjust="spacing" textLength="61" x="894.5" y="118.1426">Database</text><path d="M910,67.6094 C910,57.6094 928,57.6094 928,57.6094 C928,57.6094 946,57.6094 946,67.6094 L946,93.6094 C946,103.6094 928,103.6094 928,103.6094 C928,103.6094 910,103.6094 910,93.6094 L910,67.6094 " fill="#E2E2F0" style="stroke:#181818;stroke-width:1.5;"/><path d="M910,67.6094 C910,77.6094 928,77.6094 928,77.6094 C928,77.6094 946,77.6094 946,67.6094 " fill="none" style="stroke:#181818;stroke-width:1.5;"/><polygon fill="#2F4F8F" points="325,149.5703,335,153.5703,325,157.5703,329,153.5703" style="stroke:#2F4F8F;stroke-width:1.0;"/><line style="stroke:#2F4F8F;stroke-width:1.0;" x1="26" x2="331" y1="153.5703" y2="153.5703"/><text fill="#000000" font-family="sans-serif" font-size="13" font-weight="bold" lengthAdjust="spacing" textLength="7" x="33" y="148.7139">1</text><text fill="#000000" font-family="sans-serif" font-size="13" lengthAdjust="spacing" textLength="276" x="44" y="148.7139">Buka menu Riwayat Absensi / pilih filter tanggal</text><polygon fill="#2F4F8F" points="672,179.9219,682,183.9219,672,187.9219,676,183.9219" style="stroke:#2F4F8F;stroke-width:1.0;"/><line style="stroke:#2F4F8F;stroke-width:1.0;" x1="337" x2="678" y1="183.9219" y2="183.9219"/><text fill="#000000" font-family="sans-serif" font-size="13" font-weight="bold" lengthAdjust="spacing" textLength="7" x="344" y="179.0654">2</text><text fill="#000000" font-family="sans-serif" font-size="13" lengthAdjust="spacing" textLength="312" x="355" y="179.0654">Meminta halaman siswa absensi&amp;tgl_dari&amp;tgl_sampai</text><line style="stroke:#2F4F8F;stroke-width:1.0;" x1="684" x2="726" y1="214.2734" y2="214.2734"/><line style="stroke:#2F4F8F;stroke-width:1.0;" x1="726" x2="726" y1="214.2734" y2="227.2734"/><line style="stroke:#2F4F8F;stroke-width:1.0;" x1="685" x2="726" y1="227.2734" y2="227.2734"/><polygon fill="#2F4F8F" points="695,223.2734,685,227.2734,695,231.2734,691,227.2734" style="stroke:#2F4F8F;stroke-width:1.0;"/><text fill="#000000" font-family="sans-serif" font-size="13" font-weight="bold" lengthAdjust="spacing" textLength="7" x="691" y="209.417">3</text><text fill="#000000" font-family="sans-serif" font-size="13" lengthAdjust="spacing" textLength="193" x="702" y="209.417">Memastikan hak aksesnya siswa</text><polygon fill="#2F4F8F" points="916,253.625,926,257.625,916,261.625,920,257.625" style="stroke:#2F4F8F;stroke-width:1.0;"/><line style="stroke:#2F4F8F;stroke-width:1.0;" x1="684" x2="922" y1="257.625" y2="257.625"/><text fill="#000000" font-family="sans-serif" font-size="13" font-weight="bold" lengthAdjust="spacing" textLength="7" x="691" y="252.7686">4</text><text fill="#000000" font-family="sans-serif" font-size="13" lengthAdjust="spacing" textLength="209" x="702" y="252.7686">Mengambil data absensi milik siswa</text><polygon fill="#2F4F8F" points="695,283.9766,685,287.9766,695,291.9766,691,287.9766" style="stroke:#2F4F8F;stroke-width:1.0;"/><line style="stroke:#2F4F8F;stroke-width:1.0;stroke-dasharray:2.0,2.0;" x1="689" x2="927" y1="287.9766" y2="287.9766"/><text fill="#000000" font-family="sans-serif" font-size="13" font-weight="bold" lengthAdjust="spacing" textLength="7" x="701" y="283.1201">5</text><text fill="#000000" font-family="sans-serif" font-size="13" lengthAdjust="spacing" textLength="138" x="712" y="283.1201">Mengirim daftar absensi</text><polygon fill="#2F4F8F" points="348,314.3281,338,318.3281,348,322.3281,344,318.3281" style="stroke:#2F4F8F;stroke-width:1.0;"/><line style="stroke:#2F4F8F;stroke-width:1.0;stroke-dasharray:2.0,2.0;" x1="342" x2="683" y1="318.3281" y2="318.3281"/><text fill="#000000" font-family="sans-serif" font-size="13" font-weight="bold" lengthAdjust="spacing" textLength="7" x="354" y="313.4717">6</text><text fill="#000000" font-family="sans-serif" font-size="13" lengthAdjust="spacing" textLength="155" x="365" y="313.4717">Mengirim hasil ke halaman</text><polygon fill="#2F4F8F" points="37,344.6797,27,348.6797,37,352.6797,33,348.6797" style="stroke:#2F4F8F;stroke-width:1.0;"/><line style="stroke:#2F4F8F;stroke-width:1.0;stroke-dasharray:2.0,2.0;" x1="31" x2="336" y1="348.6797" y2="348.6797"/><text fill="#000000" font-family="sans-serif" font-size="13" font-weight="bold" lengthAdjust="spacing" textLength="7" x="43" y="343.8232">7</text><text fill="#000000" font-family="sans-serif" font-size="13" lengthAdjust="spacing" textLength="214" x="54" y="343.8232">Menampilkan hasil kepada pengguna</text><!--SRC=[TLBBZjCm5DtxAwwAnAvYMW5JPZ5ICoLYCGZ4VC3ef76Ig_WHR4UP2l7lEA-IC2AR9FUyV6m73ahIa_pPIdEMT6AK3fgszCI-0tsLYYi4-i4TBl5zpBmqdaN5kQJ2sf3P5u4sMDFgJ3hXQpODUWTV8RSTcv8AA2-No1psIn0TdRFTWrNMqPjz-Zuzf77uo8LyP2CJwtBf9lHZShi_t2nHdElIsTRa4oFzb1xJ93A-mmK-SmCJLXRNW2NXbSiXJTAUT3m7wrRwtMvtsDzUeLVAuObmObzMkeVazE7pRWB-e_ejX41lIvjXwpS4Fnw2o7est8KsNw2WOVfva7gWJ2DnjYOugmPrn2ZXU23gcsDhPgiu5Za2CdX9czFqDQ3pJrp4UF3R-zdvZfAs1cbfsd-l0RsZXkC5eO9La8u2J5b2YNcPqMIClOiNIRC9e6g2_922qUTjADLpR3X-UEW6BAOUQm_um7MKLwW9jPVUN31wBVXpcLvXIkYC5VMzvpZIST7r99l9j5qbcP8TwoWh0jmil6OiT-VAhU1ZK2tdZd-tONJkC91ZErPZXv7V80SrqQLi3Vu0]--></g></svg>