<?xml version="1.0" encoding="us-ascii" standalone="no"?><svg xmlns="http://www.w3.org/2000/svg" xmlns:xlink="http://www.w3.org/1999/xlink" contentStyleType="text/css" height="373px" preserveAspectRatio="none" style="width:778px;height:373px;background:#FFFFFF;" version="1.1" viewBox="0 0 778 373" width="778px" zoomAndPan="magnify"><defs/><g><text fill="#000000" font-family="sans-serif" font-size="14" font-weight="bold" lengthAdjust="spacing" textLength="311" x="234.75" y="29.5332">Sequence Diagram - Siswa Melihat Nilai Saya</text><line style="stroke:#6B7280;stroke-width:0.5;stroke-dasharray:5.0,5.0;" x1="26" x2="26" y1="121.2188" y2="366.6797"/><line style="stroke:#6B7280;stroke-width:0.5;stroke-dasharray:5.0,5.0;" x1="274.5" x2="274.5" y1="121.2188" y2="366.6797"/><line style="stroke:#6B7280;stroke-width:0.5;stroke-dasharray:5.0,5.0;" x1="476.5" x2="476.5" y1="121.2188" y2="366.6797"/><line style="stroke:#6B7280;stroke-width:0.5;stroke-dasharray:5.0,5.0;" x1="742.5" x2="742.5" y1="121.2188" y2="366.6797"/><text fill="#000000" font-family="sans-serif" font-size="14" lengthAdjust="spacing" textLength="36" x="5" y="118.1426">Siswa</text><ellipse cx="26" cy="52.1094" fill="#FFFFFF" rx="8" ry="8" style="stroke:#111827;stroke-width:0.5;"/><path d="M26,60.1094 L26,87.1094 M13,68.1094 L39,68.1094 M26,87.1094 L13,102.1094 M26,87.1094 L39,102.1094 " fill="none" style="stroke:#111827;stroke-width:0.5;"/><text fill="#000000" font-family="sans-serif" font-size="14" lengthAdjust="spacing" textLength="101" x="221.5" y="118.1426">Halaman Sistem</text><path d="M254.5,75.6094 L254.5,99.6094 M254.5,87.6094 L271.5,87.6094 " fill="none" style="stroke:#181818;stroke-width:0.5;"/><ellipse cx="283.5" cy="87.6094" fill="#E2E2F0" rx="12" ry="12" style="stroke:#181818;stroke-width:0.5;"/><text fill="#000000" font-family="sans-serif" font-size="14" lengthAdjust="spacing" textLength="123" x="412.5" y="118.1426">Sistem BimbelOrion</text><ellipse cx="477" cy="87.6094" fill="#E2E2F0" rx="12" ry="12" style="stroke:#181818;stroke-width:0.5;"/><polygon fill="#181818" points="473,75.6094,479,70.6094,477,75.6094,479,80.6094,473,75.6094" style="stroke:#181818;stroke-width:1.0;"/><text fill="#000000" font-family="sans-serif" font-size="14" lengthAdjust="spacing" textLength="61" x="709.5" y="118.1426">Database</text><path d="M725,67.6094 C725,57.6094 743,57.6094 743,57.6094 C743,57.6094 761,57.6094 761,67.6094 L761,93.6094 C761,103.6094 743,103.6094 743,103.6094 C743,103.6094 725,103.6094 725,93.6094 L725,67.6094 " fill="#E2E2F0" style="stroke:#181818;stroke-width:1.5;"/><path d="M725,67.6094 C725,77.6094 743,77.6094 743,77.6094 C743,77.6094 761,77.6094 761,67.6094 " fill="none" style="stroke:#181818;stroke-width:1.5;"/><polygon fill="#2F4F8F" points="263,149.5703,273,153.5703,263,157.5703,267,153.5703" style="stroke:#2F4F8F;stroke-width:1.0;"/><line style="stroke:#2F4F8F;stroke-width:1.0;" x1="26" x2="269" y1="153.5703" y2="153.5703"/><text fill="#000000" font-family="sans-serif" font-size="13" font-weight="bold" lengthAdjust="spacing" textLength="7" x="33" y="148.7139">1</text><text fill="#000000" font-family="sans-serif" font-size="13" lengthAdjust="spacing" textLength="129" x="44" y="148.7139">Buka menu Nilai Saya</text><polygon fill="#2F4F8F" points="465,179.9219,475,183.9219,465,187.9219,469,183.9219" style="stroke:#2F4F8F;stroke-width:1.0;"/><line style="stroke:#2F4F8F;stroke-width:1.0;" x1="275" x2="471" y1="183.9219" y2="183.9219"/><text fill="#000000" font-family="sans-serif" font-size="13" font-weight="bold" lengthAdjust="spacing" textLength="7" x="282" y="179.0654">2</text><text fill="#000000" font-family="sans-serif" font-size="13" lengthAdjust="spacing" textLength="167" x="293" y="179.0654">Meminta halaman siswa nilai</text><line style="stroke:#2F4F8F;stroke-width:1.0;" x1="477" x2="519" y1="214.2734" y2="214.2734"/><line style="stroke:#2F4F8F;stroke-width:1.0;" x1="519" x2="519" y1="214.2734" y2="227.2734"/><line style="stroke:#2F4F8F;stroke-width:1.0;" x1="478" x2="519" y1="227.2734" y2="227.2734"/><polygon fill="#2F4F8F" points="488,223.2734,478,227.2734,488,231.2734,484,227.2734" style="stroke:#2F4F8F;stroke-width:1.0;"/><text fill="#000000" font-family="sans-serif" font-size="13" font-weight="bold" lengthAdjust="spacing" textLength="7" x="484" y="209.417">3</text><text fill="#000000" font-family="sans-serif" font-size="13" lengthAdjust="spacing" textLength="193" x="495" y="209.417">Memastikan hak aksesnya siswa</text><polygon fill="#2F4F8F" points="731,253.625,741,257.625,731,261.625,735,257.625" style="stroke:#2F4F8F;stroke-width:1.0;"/><line style="stroke:#2F4F8F;stroke-width:1.0;" x1="477" x2="737" y1="257.625" y2="257.625"/><text fill="#000000" font-family="sans-serif" font-size="13" font-weight="bold" lengthAdjust="spacing" textLength="7" x="484" y="252.7686">4</text><text fill="#000000" font-family="sans-serif" font-size="13" lengthAdjust="spacing" textLength="231" x="495" y="252.7686">Mengambil data nilai berdasarkan siswa</text><polygon fill="#2F4F8F" points="488,283.9766,478,287.9766,488,291.9766,484,287.9766" style="stroke:#2F4F8F;stroke-width:1.0;"/><line style="stroke:#2F4F8F;stroke-width:1.0;stroke-dasharray:2.0,2.0;" x1="482" x2="742" y1="287.9766" y2="287.9766"/><text fill="#000000" font-family="sans-serif" font-size="13" font-weight="bold" lengthAdjust="spacing" textLength="7" x="494" y="283.1201">5</text><text fill="#000000" font-family="sans-serif" font-size="13" lengthAdjust="spacing" textLength="116" x="505" y="283.1201">Mengirim daftar nilai</text><polygon fill="#2F4F8F" points="286,314.3281,276,318.3281,286,322.3281,282,318.3281" style="stroke:#2F4F8F;stroke-width:1.0;"/><line style="stroke:#2F4F8F;stroke-width:1.0;stroke-dasharray:2.0,2.0;" x1="280" x2="476" y1="318.3281" y2="318.3281"/><text fill="#000000" font-family="sans-serif" font-size="13" font-weight="bold" lengthAdjust="spacing" textLength="7" x="292" y="313.4717">6</text><text fill="#000000" font-family="sans-serif" font-size="13" lengthAdjust="spacing" textLength="155" x="303" y="313.4717">Mengirim hasil ke halaman</text><polygon fill="#2F4F8F" points="37,344.6797,27,348.6797,37,352.6797,33,348.6797" style="stroke:#2F4F8F;stroke-width:1.0;"/><line style="stroke:#2F4F8F;stroke-width:1.0;stroke-dasharray:2.0,2.0;" x1="31" x2="274" y1="348.6797" y2="348.6797"/><text fill="#000000" font-family="sans-serif" font-size="13" font-weight="bold" lengthAdjust="spacing" textLength="7" x="43" y="343.8232">7</text><text fill="#000000" font-family="sans-serif" font-size="13" lengthAdjust="spacing" textLength="214" x="54" y="343.8232">Menampilkan hasil kepada pengguna</text><!--SRC=[TP9RZzCm48NV_Ij6vRaIhO0j-u3KR8buM2vIVy59uYQZ-19iHzqAyTznBYu9A_AKpFdEcHd7WOEIT9O_UsbAIIT6xQ1fIsVsLz1NgRX1e6-im7J63QBXIjB5sb3O5u4-MDFhGZhXMpOT1hDlKDahcvekK5ukbTJdbo0wEcUlJrPPHs_s-RlyaCVYCr_aCnkPMLT9DwiVieVzuUrIHTdMplQccedyOtxCiqZyW0jSSWSJLX7t1alWLSeXp_81EfR1kfL_jziTzWztwPLpVAASsPULxoaxlV-ycuN_k7uB8J34qcOyzGt1J-SlYe66kz7c2nGqp50FKe_8N1AbDS5PDRgZHXd77wA-ExOcHSMog11Gm4lQdEQtKKqVSOZfdsy_fUH7oleMfANfbpSWZHB1AVentXFD9e2QMV9ZaXayOfvgJSC7RYFOe2MqNdfpm-HQy6cqmM5gw88L3LjCmHHlNGKFrwQ68Xbek-fcQdQie_KIuFwPQhdjdMpWOwjMfdt-hZpbNZ72q1shQOk9xr21kfXIzmP_0000]--></g></svg>