<?xml version="1.0" encoding="us-ascii" standalone="no"?><svg xmlns="http://www.w3.org/2000/svg" xmlns:xlink="http://www.w3.org/1999/xlink" contentStyleType="text/css" height="902px" preserveAspectRatio="none" style="width:973px;height:902px;background:#FFFFFF;" version="1.1" viewBox="0 0 973 902" width="973px" zoomAndPan="magnify"><defs/><g><text fill="#000000" font-family="sans-serif" font-size="14" font-weight="bold" lengthAdjust="spacing" textLength="340" x="322.75" y="29.5332">Sequence Diagram - Siswa Mengelola Profil Saya</text><rect fill="none" height="264.4844" style="stroke:#000000;stroke-width:1.5;" width="946.5" x="20" y="614.4922"/><rect fill="none" height="94.8906" style="stroke:#000000;stroke-width:1.5;" width="486" x="470.5" y="686.0313"/><line style="stroke:#6B7280;stroke-width:0.5;stroke-dasharray:5.0,5.0;" x1="51" x2="51" y1="121.2188" y2="895.9766"/><line style="stroke:#6B7280;stroke-width:0.5;stroke-dasharray:5.0,5.0;" x1="306.5" x2="306.5" y1="121.2188" y2="895.9766"/><line style="stroke:#6B7280;stroke-width:0.5;stroke-dasharray:5.0,5.0;" x1="544.5" x2="544.5" y1="121.2188" y2="895.9766"/><line style="stroke:#6B7280;stroke-width:0.5;stroke-dasharray:5.0,5.0;" x1="912.5" x2="912.5" y1="121.2188" y2="895.9766"/><text fill="#000000" font-family="sans-serif" font-size="14" lengthAdjust="spacing" textLength="36" x="30" y="118.1426">Siswa</text><ellipse cx="51" cy="52.1094" fill="#FFFFFF" rx="8" ry="8" style="stroke:#111827;stroke-width:0.5;"/><path d="M51,60.1094 L51,87.1094 M38,68.1094 L64,68.1094 M51,87.1094 L38,102.1094 M51,87.1094 L64,102.1094 " fill="none" style="stroke:#111827;stroke-width:0.5;"/><text fill="#000000" font-family="sans-serif" font-size="14" lengthAdjust="spacing" textLength="101" x="253.5" y="118.1426">Halaman Sistem</text><path d="M286.5,75.6094 L286.5,99.6094 M286.5,87.6094 L303.5,87.6094 " fill="none" style="stroke:#181818;stroke-width:0.5;"/><ellipse cx="315.5" cy="87.6094" fill="#E2E2F0" rx="12" ry="12" style="stroke:#181818;stroke-width:0.5;"/><text fill="#000000" font-family="sans-serif" font-size="14" lengthAdjust="spacing" textLength="123" x="480.5" y="118.1426">Sistem BimbelOrion</text><ellipse cx="545" cy="87.6094" fill="#E2E2F0" rx="12" ry="12" style="stroke:#181818;stroke-width:0.5;"/><polygon fill="#181818" points="541,75.6094,547,70.6094,545,75.6094,547,80.6094,541,75.6094" style="stroke:#181818;stroke-width:1.0;"/><text fill="#000000" font-family="sans-serif" font-size="14" lengthAdjust="spacing" textLength="61" x="879.5" y="118.1426">Database</text><path d="M895,67.6094 C895,57.6094 913,57.6094 913,57.6094 C913,57.6094 931,57.6094 931,67.6094 L931,93.6094 C931,103.6094 913,103.6094 913,103.6094 C913,103.6094 895,103.6094 895,93.6094 L895,67.6094 " fill="#E2E2F0" style="stroke:#181818;stroke-width:1.5;"/><path d="M895,67.6094 C895,77.6094 913,77.6094 913,77.6094 C913,77.6094 931,77.6094 931,67.6094 " fill="none" style="stroke:#181818;stroke-width:1.5;"/><polygon fill="#2F4F8F" points="295,149.5703,305,153.5703,295,157.5703,299,153.5703" style="stroke:#2F4F8F;stroke-width:1.0;"/><line style="stroke:#2F4F8F;stroke-width:1.0;" x1="51" x2="301" y1="153.5703" y2="153.5703"/><text fill="#000000" font-family="sans-serif" font-size="13" font-weight="bold" lengthAdjust="spacing" textLength="7" x="58" y="148.7139">1</text><text fill="#000000" font-family="sans-serif" font-size="13" lengthAdjust="spacing" textLength="99" x="69" y="148.7139">Buka menu Profil</text><polygon fill="#2F4F8F" points="533,179.9219,543,183.9219,533,187.9219,537,183.9219" style="stroke:#2F4F8F;stroke-width:1.0;"/><line style="stroke:#2F4F8F;stroke-width:1.0;" x1="307" x2="539" y1="183.9219" y2="183.9219"/><text fill="#000000" font-family="sans-serif" font-size="13" font-weight="bold" lengthAdjust="spacing" textLength="7" x="314" y="179.0654">2</text><text fill="#000000" font-family="sans-serif" font-size="13" lengthAdjust="spacing" textLength="171" x="325" y="179.0654">Meminta halaman siswa profil</text><line style="stroke:#2F4F8F;stroke-width:1.0;" x1="545" x2="587" y1="214.2734" y2="214.2734"/><line style="stroke:#2F4F8F;stroke-width:1.0;" x1="587" x2="587" y1="214.2734" y2="227.2734"/><line style="stroke:#2F4F8F;stroke-width:1.0;" x1="546" x2="587" y1="227.2734" y2="227.2734"/><polygon fill="#2F4F8F" points="556,223.2734,546,227.2734,556,231.2734,552,227.2734" style="stroke:#2F4F8F;stroke-width:1.0;"/><text fill="#000000" font-family="sans-serif" font-size="13" font-weight="bold" lengthAdjust="spacing" textLength="7" x="552" y="209.417">3</text><text fill="#000000" font-family="sans-serif" font-size="13" lengthAdjust="spacing" textLength="193" x="563" y="209.417">Memastikan hak aksesnya siswa</text><polygon fill="#2F4F8F" points="901,253.625,911,257.625,901,261.625,905,257.625" style="stroke:#2F4F8F;stroke-width:1.0;"/><line style="stroke:#2F4F8F;stroke-width:1.0;" x1="545" x2="907" y1="257.625" y2="257.625"/><text fill="#000000" font-family="sans-serif" font-size="13" font-weight="bold" lengthAdjust="spacing" textLength="7" x="552" y="252.7686">4</text><text fill="#000000" font-family="sans-serif" font-size="13" lengthAdjust="spacing" textLength="197" x="563" y="252.7686">Mengambil data users JOIN siswa</text><polygon fill="#2F4F8F" points="556,283.9766,546,287.9766,556,291.9766,552,287.9766" style="stroke:#2F4F8F;stroke-width:1.0;"/><line style="stroke:#2F4F8F;stroke-width:1.0;stroke-dasharray:2.0,2.0;" x1="550" x2="912" y1="287.9766" y2="287.9766"/><text fill="#000000" font-family="sans-serif" font-size="13" font-weight="bold" lengthAdjust="spacing" textLength="7" x="562" y="283.1201">5</text><text fill="#000000" font-family="sans-serif" font-size="13" lengthAdjust="spacing" textLength="113" x="573" y="283.1201">Mengirim hasil data</text><polygon fill="#2F4F8F" points="901,314.3281,911,318.3281,901,322.3281,905,318.3281" style="stroke:#2F4F8F;stroke-width:1.0;"/><line style="stroke:#2F4F8F;stroke-width:1.0;" x1="545" x2="907" y1="318.3281" y2="318.3281"/><text fill="#000000" font-family="sans-serif" font-size="13" font-weight="bold" lengthAdjust="spacing" textLength="7" x="552" y="313.4717">6</text><text fill="#000000" font-family="sans-serif" font-size="13" lengthAdjust="spacing" textLength="258" x="563" y="313.4717">Mengambil data statistik jadwal/nilai/absensi</text><polygon fill="#2F4F8F" points="556,344.6797,546,348.6797,556,352.6797,552,348.6797" style="stroke:#2F4F8F;stroke-width:1.0;"/><line style="stroke:#2F4F8F;stroke-width:1.0;stroke-dasharray:2.0,2.0;" x1="550" x2="912" y1="348.6797" y2="348.6797"/><text fill="#000000" font-family="sans-serif" font-size="13" font-weight="bold" lengthAdjust="spacing" textLength="7" x="562" y="343.8232">7</text><text fill="#000000" font-family="sans-serif" font-size="13" lengthAdjust="spacing" textLength="113" x="573" y="343.8232">Mengirim hasil data</text><polygon fill="#2F4F8F" points="901,375.0313,911,379.0313,901,383.0313,905,379.0313" style="stroke:#2F4F8F;stroke-width:1.0;"/><line style="stroke:#2F4F8F;stroke-width:1.0;" x1="545" x2="907" y1="379.0313" y2="379.0313"/><text fill="#000000" font-family="sans-serif" font-size="13" font-weight="bold" lengthAdjust="spacing" textLength="7" x="552" y="374.1748">8</text><text fill="#000000" font-family="sans-serif" font-size="13" lengthAdjust="spacing" textLength="242" x="563" y="374.1748">Mengambil data siswa_mapel JOIN mapel</text><polygon fill="#2F4F8F" points="556,405.3828,546,409.3828,556,413.3828,552,409.3828" style="stroke:#2F4F8F;stroke-width:1.0;"/><line style="stroke:#2F4F8F;stroke-width:1.0;stroke-dasharray:2.0,2.0;" x1="550" x2="912" y1="409.3828" y2="409.3828"/><text fill="#000000" font-family="sans-serif" font-size="13" font-weight="bold" lengthAdjust="spacing" textLength="7" x="562" y="404.5264">9</text><text fill="#000000" font-family="sans-serif" font-size="13" lengthAdjust="spacing" textLength="113" x="573" y="404.5264">Mengirim hasil data</text><polygon fill="#2F4F8F" points="318,435.7344,308,439.7344,318,443.7344,314,439.7344" style="stroke:#2F4F8F;stroke-width:1.0;"/><line style="stroke:#2F4F8F;stroke-width:1.0;stroke-dasharray:2.0,2.0;" x1="312" x2="544" y1="439.7344" y2="439.7344"/><text fill="#000000" font-family="sans-serif" font-size="13" font-weight="bold" lengthAdjust="spacing" textLength="14" x="324" y="434.8779">10</text><text fill="#000000" font-family="sans-serif" font-size="13" lengthAdjust="spacing" textLength="155" x="342" y="434.8779">Mengirim hasil ke halaman</text><polygon fill="#2F4F8F" points="62,466.0859,52,470.0859,62,474.0859,58,470.0859" style="stroke:#2F4F8F;stroke-width:1.0;"/><line style="stroke:#2F4F8F;stroke-width:1.0;stroke-dasharray:2.0,2.0;" x1="56" x2="306" y1="470.0859" y2="470.0859"/><text fill="#000000" font-family="sans-serif" font-size="13" font-weight="bold" lengthAdjust="spacing" textLength="14" x="68" y="465.2295">11</text><text fill="#000000" font-family="sans-serif" font-size="13" lengthAdjust="spacing" textLength="214" x="86" y="465.2295">Menampilkan hasil kepada pengguna</text><polygon fill="#2F4F8F" points="295,521.7891,305,525.7891,295,529.7891,299,525.7891" style="stroke:#2F4F8F;stroke-width:1.0;"/><line style="stroke:#2F4F8F;stroke-width:1.0;" x1="51" x2="301" y1="525.7891" y2="525.7891"/><text fill="#000000" font-family="sans-serif" font-size="13" font-weight="bold" lengthAdjust="spacing" textLength="14" x="58" y="520.9326">12</text><text fill="#000000" font-family="sans-serif" font-size="13" lengthAdjust="spacing" textLength="172" x="76" y="520.9326">Mengirim form profil/password</text><polygon fill="#2F4F8F" points="533,552.1406,543,556.1406,533,560.1406,537,556.1406" style="stroke:#2F4F8F;stroke-width:1.0;"/><line style="stroke:#2F4F8F;stroke-width:1.0;" x1="307" x2="539" y1="556.1406" y2="556.1406"/><text fill="#000000" font-family="sans-serif" font-size="13" font-weight="bold" lengthAdjust="spacing" textLength="14" x="314" y="551.2842">13</text><text fill="#000000" font-family="sans-serif" font-size="13" lengthAdjust="spacing" textLength="196" x="332" y="551.2842">Mengirim data formulir siswa profil</text><line style="stroke:#2F4F8F;stroke-width:1.0;" x1="545" x2="587" y1="586.4922" y2="586.4922"/><line style="stroke:#2F4F8F;stroke-width:1.0;" x1="587" x2="587" y1="586.4922" y2="599.4922"/><line style="stroke:#2F4F8F;stroke-width:1.0;" x1="546" x2="587" y1="599.4922" y2="599.4922"/><polygon fill="#2F4F8F" points="556,595.4922,546,599.4922,556,603.4922,552,599.4922" style="stroke:#2F4F8F;stroke-width:1.0;"/><text fill="#000000" font-family="sans-serif" font-size="13" font-weight="bold" lengthAdjust="spacing" textLength="14" x="552" y="581.6357">14</text><text fill="#000000" font-family="sans-serif" font-size="13" lengthAdjust="spacing" textLength="206" x="570" y="581.6357">Memeriksa kode keamanan formulir</text><path d="M20,614.4922 L81,614.4922 L81,622.8438 L71,632.8438 L20,632.8438 L20,614.4922 " fill="#EEEEEE" style="stroke:#000000;stroke-width:1.5;"/><rect fill="none" height="264.4844" style="stroke:#000000;stroke-width:1.5;" width="946.5" x="20" y="614.4922"/><text fill="#000000" font-family="sans-serif" font-size="13" font-weight="bold" lengthAdjust="spacing" textLength="16" x="35" y="628.9873">alt</text><text fill="#000000" font-family="sans-serif" font-size="11" font-weight="bold" lengthAdjust="spacing" textLength="209" x="96" y="627.9111">[kode keamanan formulir tidak benar]</text><polygon fill="#2F4F8F" points="318,651.1953,308,655.1953,318,659.1953,314,655.1953" style="stroke:#2F4F8F;stroke-width:1.0;"/><line style="stroke:#2F4F8F;stroke-width:1.0;stroke-dasharray:2.0,2.0;" x1="312" x2="544" y1="655.1953" y2="655.1953"/><text fill="#000000" font-family="sans-serif" font-size="13" font-weight="bold" lengthAdjust="spacing" textLength="14" x="324" y="650.3389">15</text><text fill="#000000" font-family="sans-serif" font-size="13" lengthAdjust="spacing" textLength="119" x="342" y="650.3389">Mengirim hasil gagal</text><line style="stroke:#000000;stroke-width:1.0;stroke-dasharray:2.0,2.0;" x1="20" x2="966.5" y1="664.1953" y2="664.1953"/><text fill="#000000" font-family="sans-serif" font-size="11" font-weight="bold" lengthAdjust="spacing" textLength="179" x="25" y="675.6143">[kode keamanan formulir benar]</text><path d="M470.5,686.0313 L531.5,686.0313 L531.5,694.3828 L521.5,704.3828 L470.5,704.3828 L470.5,686.0313 " fill="#EEEEEE" style="stroke:#000000;stroke-width:1.5;"/><rect fill="none" height="94.8906" style="stroke:#000000;stroke-width:1.5;" width="486" x="470.5" y="686.0313"/><text fill="#000000" font-family="sans-serif" font-size="13" font-weight="bold" lengthAdjust="spacing" textLength="16" x="485.5" y="700.5264">alt</text><text fill="#000000" font-family="sans-serif" font-size="11" font-weight="bold" lengthAdjust="spacing" textLength="86" x="546.5" y="699.4502">[update-profile]</text><polygon fill="#2F4F8F" points="901,722.7344,911,726.7344,901,730.7344,905,726.7344" style="stroke:#2F4F8F;stroke-width:1.0;"/><line style="stroke:#2F4F8F;stroke-width:1.0;" x1="545" x2="907" y1="726.7344" y2="726.7344"/><text fill="#000000" font-family="sans-serif" font-size="13" font-weight="bold" lengthAdjust="spacing" textLength="14" x="552" y="721.8779">16</text><text fill="#000000" font-family="sans-serif" font-size="13" lengthAdjust="spacing" textLength="249" x="570" y="721.8779">Memperbarui data users + siswa jika benar</text><line style="stroke:#000000;stroke-width:1.0;stroke-dasharray:2.0,2.0;" x1="470.5" x2="956.5" y1="735.7344" y2="735.7344"/><text fill="#000000" font-family="sans-serif" font-size="11" font-weight="bold" lengthAdjust="spacing" textLength="108" x="475.5" y="747.1533">[change-password]</text><polygon fill="#2F4F8F" points="901,768.9219,911,772.9219,901,776.9219,905,772.9219" style="stroke:#2F4F8F;stroke-width:1.0;"/><line style="stroke:#2F4F8F;stroke-width:1.0;" x1="545" x2="907" y1="772.9219" y2="772.9219"/><text fill="#000000" font-family="sans-serif" font-size="13" font-weight="bold" lengthAdjust="spacing" textLength="14" x="552" y="768.0654">17</text><text fill="#000000" font-family="sans-serif" font-size="13" lengthAdjust="spacing" textLength="326" x="570" y="768.0654">Mengambil data password lalu UPDATE users.password</text><polygon fill="#2F4F8F" points="556,806.2734,546,810.2734,556,814.2734,552,810.2734" style="stroke:#2F4F8F;stroke-width:1.0;"/><line style="stroke:#2F4F8F;stroke-width:1.0;stroke-dasharray:2.0,2.0;" x1="550" x2="912" y1="810.2734" y2="810.2734"/><text fill="#000000" font-family="sans-serif" font-size="13" font-weight="bold" lengthAdjust="spacing" textLength="14" x="562" y="805.417">18</text><text fill="#000000" font-family="sans-serif" font-size="13" lengthAdjust="spacing" textLength="127" x="580" y="805.417">Mengirim hasil proses</text><polygon fill="#2F4F8F" points="318,836.625,308,840.625,318,844.625,314,840.625" style="stroke:#2F4F8F;stroke-width:1.0;"/><line style="stroke:#2F4F8F;stroke-width:1.0;stroke-dasharray:2.0,2.0;" x1="312" x2="544" y1="840.625" y2="840.625"/><text fill="#000000" font-family="sans-serif" font-size="13" font-weight="bold" lengthAdjust="spacing" textLength="14" x="324" y="835.7686">19</text><text fill="#000000" font-family="sans-serif" font-size="13" lengthAdjust="spacing" textLength="177" x="342" y="835.7686">Mengalihkan page=siswa-profil</text><polygon fill="#2F4F8F" points="62,866.9766,52,870.9766,62,874.9766,58,870.9766" style="stroke:#2F4F8F;stroke-width:1.0;"/><line style="stroke:#2F4F8F;stroke-width:1.0;stroke-dasharray:2.0,2.0;" x1="56" x2="306" y1="870.9766" y2="870.9766"/><text fill="#000000" font-family="sans-serif" font-size="13" font-weight="bold" lengthAdjust="spacing" textLength="14" x="68" y="866.1201">20</text><text fill="#000000" font-family="sans-serif" font-size="13" lengthAdjust="spacing" textLength="129" x="86" y="866.1201">Tampilkan pesan hasil</text><!--SRC=[hLHTRzCm57tFhxWgZwYKJi3A992QTH6WmIfjFAERvZQvYsC7sr4t8VuxTkAq2Lkd8T6N9hxddFjrOijM45pJpuRaXc35c6kiO0hNR7O8Nqdc99H0M6krPG7NU8zHmHd1LYcRghi86wjaKwMa8rEohD7pJO6Psh7COOl2q33If_eL0IorLhjp9PI65oV9csIHkCDBtj8bIugLpaY7wBluz6JnUXZ5JPbhrSWi89BtoJA97MADslA6QvHs9B5FC0GyK5aaSU91ourLUiIVp-UBazDzw06p_RbmhEv6lFDuzVPY7W97MB-ZA48l2vDsy1D0qwqWIZqQzJrCFg702gK_jrIra70KRPIqMecMxM8Girk8kDAiP2_bZgCCBQPe22QhyDH6-nTNHBVswSTU-GpYfaIeI3R10b5VXWDricVE9XLBYr24a6bLwWuVIXh3qLWk7RB04h0qPEGzThG1lg_hhFKXLgape6y16aFQm9Uhpzy2fqV2T9H6vgovSabCO3v7t5YqxCk3MynsA6QI1V8CKqFIyFzDvOl_KM5DekkcVVpt5CDz_OKhgT_AON6TwWvRC5OrYsuL7Rx6pEtEgUIDn4ZLDjm5JOf5s2dC87TV3qEDnkoSsPsx7pfdNybMwIemPmF6eqOAb7OydjS8rcC_0JpgAD9S6eHIkRkf92_if7i5Hq9XZmJ1SkPicBfPUE11_ucnvfYZBuNSxNPCzY3eSpUrwuccNHFK7Wyx6Ngagacdg1iUklrbcCAj-su6qcq1cmBTFJqTpFQu-CY0FGC4YWQ-hrVBcuiktwkH6Cdk_pdET1swx_d9GQBWmbkknfm-j6rDzyiT-EBWqvkzIsiolLUZjgu_]--></g></svg>