<?xml version="1.0" encoding="us-ascii" standalone="no"?><svg xmlns="http://www.w3.org/2000/svg" xmlns:xlink="http://www.w3.org/1999/xlink" contentStyleType="text/css" height="1309px" preserveAspectRatio="none" style="width:837px;height:1309px;background:#FFFFFF;" version="1.1" viewBox="0 0 837 1309" width="837px" zoomAndPan="magnify"><defs/><g><text fill="#000000" font-family="sans-serif" font-size="14" font-weight="bold" lengthAdjust="spacing" textLength="333" x="250.5" y="34.5332">Activity Diagram - Admin Mengakses Dashboard</text><ellipse cx="506.625" cy="58.6094" fill="#222222" rx="10" ry="10" style="stroke:#222222;stroke-width:1.0;"/><rect fill="none" height="194.8906" style="stroke:#000000;stroke-width:1.5;" width="270" x="371.625" y="78.6094"/><path d="M420.625,78.6094 L420.625,89.2188 L410.625,99.2188 L371.625,99.2188 " fill="none" style="stroke:#000000;stroke-width:1.5;"/><text fill="#000000" font-family="sans-serif" font-size="14" lengthAdjust="spacing" textLength="39" x="374.625" y="94.1426">Admin</text><rect fill="#F8FBFF" height="35.0938" rx="12.5" ry="12.5" style="stroke:#2F4F8F;stroke-width:0.5;" width="196" x="408.625" y="116.2188"/><text fill="#1F2937" font-family="sans-serif" font-size="12" lengthAdjust="spacing" textLength="176" x="418.625" y="138.6758">Admin membuka halaman login</text><rect fill="#F8FBFF" height="35.0938" rx="12.5" ry="12.5" style="stroke:#2F4F8F;stroke-width:0.5;" width="250" x="381.625" y="171.3125"/><text fill="#1F2937" font-family="sans-serif" font-size="12" lengthAdjust="spacing" textLength="230" x="391.625" y="193.7695">Admin memasukkan email dan password</text><rect fill="#F8FBFF" height="35.0938" rx="12.5" ry="12.5" style="stroke:#2F4F8F;stroke-width:0.5;" width="151" x="431.125" y="226.4063"/><text fill="#1F2937" font-family="sans-serif" font-size="12" lengthAdjust="spacing" textLength="131" x="441.125" y="248.8633">Admin klik tombol Login</text><rect fill="none" height="84.7031" style="stroke:#000000;stroke-width:1.5;" width="196" x="408.625" y="283.5"/><path d="M460.625,283.5 L460.625,294.1094 L450.625,304.1094 L408.625,304.1094 " fill="none" style="stroke:#000000;stroke-width:1.5;"/><text fill="#000000" font-family="sans-serif" font-size="14" lengthAdjust="spacing" textLength="42" x="411.625" y="299.0332">Sistem</text><rect fill="#F8FBFF" height="35.0938" rx="12.5" ry="12.5" style="stroke:#2F4F8F;stroke-width:0.5;" width="176" x="418.625" y="321.1094"/><text fill="#1F2937" font-family="sans-serif" font-size="12" lengthAdjust="spacing" textLength="156" x="428.625" y="343.5664">Memeriksa data login admin</text><polygon fill="#F8FBFF" points="478.125,388.2031,535.125,388.2031,547.125,400.2031,535.125,412.2031,478.125,412.2031,466.125,400.2031,478.125,388.2031" style="stroke:#2F4F8F;stroke-width:0.5;"/><text fill="#1F2937" font-family="sans-serif" font-size="11" lengthAdjust="spacing" textLength="57" x="478.125" y="404.7041">Login valid?</text><text fill="#000000" font-family="sans-serif" font-size="11" lengthAdjust="spacing" textLength="14" x="452.125" y="397.7861">Ya</text><text fill="#000000" font-family="sans-serif" font-size="11" lengthAdjust="spacing" textLength="25" x="547.125" y="397.7861">Tidak</text><rect fill="none" height="84.7031" style="stroke:#000000;stroke-width:1.5;" width="195" x="199.75" y="422.2031"/><path d="M248.75,422.2031 L248.75,432.8125 L238.75,442.8125 L199.75,442.8125 " fill="none" style="stroke:#000000;stroke-width:1.5;"/><text fill="#000000" font-family="sans-serif" font-size="14" lengthAdjust="spacing" textLength="39" x="202.75" y="437.7363">Admin</text><rect fill="#F8FBFF" height="35.0938" rx="12.5" ry="12.5" style="stroke:#2F4F8F;stroke-width:0.5;" width="175" x="209.75" y="459.8125"/><text fill="#1F2937" font-family="sans-serif" font-size="12" lengthAdjust="spacing" textLength="155" x="219.75" y="482.2695">Admin masuk ke dashboard</text><rect fill="none" height="256.9844" style="stroke:#000000;stroke-width:1.5;" width="273" x="160.75" y="516.9063"/><path d="M212.75,516.9063 L212.75,527.5156 L202.75,537.5156 L160.75,537.5156 " fill="none" style="stroke:#000000;stroke-width:1.5;"/><text fill="#000000" font-family="sans-serif" font-size="14" lengthAdjust="spacing" textLength="42" x="163.75" y="532.4395">Sistem</text><rect fill="#F8FBFF" height="35.0938" rx="12.5" ry="12.5" style="stroke:#2F4F8F;stroke-width:0.5;" width="253" x="170.75" y="554.5156"/><text fill="#1F2937" font-family="sans-serif" font-size="12" lengthAdjust="spacing" textLength="233" x="180.75" y="576.9727">Menampilkan ringkasan dashboard admin</text><rect fill="#F8FBFF" height="35.0938" rx="12.5" ry="12.5" style="stroke:#2F4F8F;stroke-width:0.5;" width="159" x="217.75" y="616.6094"/><text fill="#1F2937" font-family="sans-serif" font-size="12" lengthAdjust="spacing" textLength="139" x="227.75" y="639.0664">Menampilkan total jadwal</text><rect fill="#F8FBFF" height="35.0938" rx="12.5" ry="12.5" style="stroke:#2F4F8F;stroke-width:0.5;" width="217" x="188.75" y="671.7031"/><text fill="#1F2937" font-family="sans-serif" font-size="12" lengthAdjust="spacing" textLength="197" x="198.75" y="694.1602">Menampilkan total pendaftaran baru</text><rect fill="#F8FBFF" height="35.0938" rx="12.5" ry="12.5" style="stroke:#2F4F8F;stroke-width:0.5;" width="239" x="177.75" y="726.7969"/><text fill="#1F2937" font-family="sans-serif" font-size="12" lengthAdjust="spacing" textLength="219" x="187.75" y="749.2539">Menampilkan daftar pendaftaran terbaru</text><rect fill="none" height="84.7031" style="stroke:#000000;stroke-width:1.5;" width="237" x="178.75" y="783.8906"/><path d="M227.75,783.8906 L227.75,794.5 L217.75,804.5 L178.75,804.5 " fill="none" style="stroke:#000000;stroke-width:1.5;"/><text fill="#000000" font-family="sans-serif" font-size="14" lengthAdjust="spacing" textLength="39" x="181.75" y="799.4238">Admin</text><rect fill="#F8FBFF" height="35.0938" rx="12.5" ry="12.5" style="stroke:#2F4F8F;stroke-width:0.5;" width="217" x="188.75" y="821.5"/><text fill="#1F2937" font-family="sans-serif" font-size="12" lengthAdjust="spacing" textLength="197" x="198.75" y="843.957">Admin melihat informasi dashboard</text><polygon fill="#F8FBFF" points="203.75,888.5938,390.75,888.5938,402.75,900.5938,390.75,912.5938,203.75,912.5938,191.75,900.5938,203.75,888.5938" style="stroke:#2F4F8F;stroke-width:0.5;"/><text fill="#1F2937" font-family="sans-serif" font-size="11" lengthAdjust="spacing" textLength="187" x="203.75" y="905.0947">Admin ingin melihat detail pendaftaran?</text><text fill="#000000" font-family="sans-serif" font-size="11" lengthAdjust="spacing" textLength="14" x="177.75" y="898.1768">Ya</text><text fill="#000000" font-family="sans-serif" font-size="11" lengthAdjust="spacing" textLength="25" x="402.75" y="898.1768">Tidak</text><rect fill="none" height="84.7031" style="stroke:#000000;stroke-width:1.5;" width="280" x="11" y="922.5938"/><path d="M60,922.5938 L60,933.2031 L50,943.2031 L11,943.2031 " fill="none" style="stroke:#000000;stroke-width:1.5;"/><text fill="#000000" font-family="sans-serif" font-size="14" lengthAdjust="spacing" textLength="39" x="14" y="938.127">Admin</text><rect fill="#F8FBFF" height="35.0938" rx="12.5" ry="12.5" style="stroke:#2F4F8F;stroke-width:0.5;" width="260" x="21" y="960.2031"/><text fill="#1F2937" font-family="sans-serif" font-size="12" lengthAdjust="spacing" textLength="240" x="31" y="982.6602">Admin memilih salah satu data pendaftaran</text><rect fill="none" height="84.7031" style="stroke:#000000;stroke-width:1.5;" width="216" x="43" y="1017.2969"/><path d="M95,1017.2969 L95,1027.9063 L85,1037.9063 L43,1037.9063 " fill="none" style="stroke:#000000;stroke-width:1.5;"/><text fill="#000000" font-family="sans-serif" font-size="14" lengthAdjust="spacing" textLength="42" x="46" y="1032.8301">Sistem</text><rect fill="#F8FBFF" height="35.0938" rx="12.5" ry="12.5" style="stroke:#2F4F8F;stroke-width:0.5;" width="196" x="53" y="1054.9063"/><text fill="#1F2937" font-family="sans-serif" font-size="12" lengthAdjust="spacing" textLength="176" x="63" y="1077.3633">Menampilkan detail pendaftaran</text><rect fill="none" height="84.7031" style="stroke:#000000;stroke-width:1.5;" width="229" x="36.5" y="1112"/><path d="M85.5,1112 L85.5,1122.6094 L75.5,1132.6094 L36.5,1132.6094 " fill="none" style="stroke:#000000;stroke-width:1.5;"/><text fill="#000000" font-family="sans-serif" font-size="14" lengthAdjust="spacing" textLength="39" x="39.5" y="1127.5332">Admin</text><rect fill="#F8FBFF" height="35.0938" rx="12.5" ry="12.5" style="stroke:#2F4F8F;stroke-width:0.5;" width="209" x="46.5" y="1149.6094"/><text fill="#1F2937" font-family="sans-serif" font-size="12" lengthAdjust="spacing" textLength="189" x="56.5" y="1172.0664">Admin menutup detail pendaftaran</text><rect fill="none" height="84.7031" style="stroke:#000000;stroke-width:1.5;" width="265" x="311" y="922.5938"/><path d="M360,922.5938 L360,933.2031 L350,943.2031 L311,943.2031 " fill="none" style="stroke:#000000;stroke-width:1.5;"/><text fill="#000000" font-family="sans-serif" font-size="14" lengthAdjust="spacing" textLength="39" x="314" y="938.127">Admin</text><rect fill="#F8FBFF" height="35.0938" rx="12.5" ry="12.5" style="stroke:#2F4F8F;stroke-width:0.5;" width="245" x="321" y="960.2031"/><text fill="#1F2937" font-family="sans-serif" font-size="12" lengthAdjust="spacing" textLength="225" x="331" y="982.6602">Admin tidak membuka detail pendaftaran</text><polygon fill="#F8FBFF" points="297.25,1202.7031,309.25,1214.7031,297.25,1226.7031,285.25,1214.7031,297.25,1202.7031" style="stroke:#2F4F8F;stroke-width:0.5;"/><rect fill="none" height="84.7031" style="stroke:#000000;stroke-width:1.5;" width="216" x="608" y="422.2031"/><path d="M660,422.2031 L660,432.8125 L650,442.8125 L608,442.8125 " fill="none" style="stroke:#000000;stroke-width:1.5;"/><text fill="#000000" font-family="sans-serif" font-size="14" lengthAdjust="spacing" textLength="42" x="611" y="437.7363">Sistem</text><rect fill="#F8FBFF" height="35.0938" rx="12.5" ry="12.5" style="stroke:#2F4F8F;stroke-width:0.5;" width="196" x="618" y="459.8125"/><text fill="#1F2937" font-family="sans-serif" font-size="12" lengthAdjust="spacing" textLength="176" x="628" y="482.2695">Menampilkan pesan login gagal</text><rect fill="none" height="84.7031" style="stroke:#000000;stroke-width:1.5;" width="220" x="606" y="516.9063"/><path d="M655,516.9063 L655,527.5156 L645,537.5156 L606,537.5156 " fill="none" style="stroke:#000000;stroke-width:1.5;"/><text fill="#000000" font-family="sans-serif" font-size="14" lengthAdjust="spacing" textLength="39" x="609" y="532.4395">Admin</text><rect fill="#F8FBFF" height="35.0938" rx="12.5" ry="12.5" style="stroke:#2F4F8F;stroke-width:0.5;" width="200" x="616" y="554.5156"/><text fill="#1F2937" font-family="sans-serif" font-size="12" lengthAdjust="spacing" textLength="180" x="626" y="576.9727">Admin kembali ke halaman login</text><polygon fill="#F8FBFF" points="506.625,1232.7031,518.625,1244.7031,506.625,1256.7031,494.625,1244.7031,506.625,1232.7031" style="stroke:#2F4F8F;stroke-width:0.5;"/><ellipse cx="506.625" cy="1287.7031" fill="none" rx="11" ry="11" style="stroke:#222222;stroke-width:1.0;"/><ellipse cx="506.625" cy="1287.7031" fill="#222222" rx="6" ry="6" style="stroke:#222222;stroke-width:1.0;"/><line style="stroke:#181818;stroke-width:1.0;" x1="506.625" x2="506.625" y1="151.3125" y2="171.3125"/><polygon fill="#181818" points="502.625,161.3125,506.625,171.3125,510.625,161.3125,506.625,165.3125" style="stroke:#181818;stroke-width:1.0;"/><line style="stroke:#181818;stroke-width:1.0;" x1="506.625" x2="506.625" y1="206.4063" y2="226.4063"/><polygon fill="#181818" points="502.625,216.4063,506.625,226.4063,510.625,216.4063,506.625,220.4063" style="stroke:#181818;stroke-width:1.0;"/><line style="stroke:#181818;stroke-width:1.0;" x1="506.625" x2="506.625" y1="68.6094" y2="116.2188"/><polygon fill="#181818" points="502.625,106.2188,506.625,116.2188,510.625,106.2188,506.625,110.2188" style="stroke:#181818;stroke-width:1.0;"/><line style="stroke:#181818;stroke-width:1.0;" x1="506.625" x2="506.625" y1="261.5" y2="321.1094"/><polygon fill="#181818" points="502.625,311.1094,506.625,321.1094,510.625,311.1094,506.625,315.1094" style="stroke:#181818;stroke-width:1.0;"/><line style="stroke:#181818;stroke-width:1.0;" x1="297.25" x2="297.25" y1="589.6094" y2="616.6094"/><polygon fill="#181818" points="293.25,606.6094,297.25,616.6094,301.25,606.6094,297.25,610.6094" style="stroke:#181818;stroke-width:1.0;"/><line style="stroke:#181818;stroke-width:1.0;" x1="297.25" x2="297.25" y1="651.7031" y2="671.7031"/><polygon fill="#181818" points="293.25,661.7031,297.25,671.7031,301.25,661.7031,297.25,665.7031" style="stroke:#181818;stroke-width:1.0;"/><line style="stroke:#181818;stroke-width:1.0;" x1="297.25" x2="297.25" y1="706.7969" y2="726.7969"/><polygon fill="#181818" points="293.25,716.7969,297.25,726.7969,301.25,716.7969,297.25,720.7969" style="stroke:#181818;stroke-width:1.0;"/><line style="stroke:#181818;stroke-width:1.0;" x1="297.25" x2="297.25" y1="494.9063" y2="554.5156"/><polygon fill="#181818" points="293.25,544.5156,297.25,554.5156,301.25,544.5156,297.25,548.5156" style="stroke:#181818;stroke-width:1.0;"/><line style="stroke:#181818;stroke-width:1.0;" x1="297.25" x2="297.25" y1="761.8906" y2="821.5"/><polygon fill="#181818" points="293.25,811.5,297.25,821.5,301.25,811.5,297.25,815.5" style="stroke:#181818;stroke-width:1.0;"/><line style="stroke:#181818;stroke-width:1.0;" x1="151" x2="151" y1="995.2969" y2="1054.9063"/><polygon fill="#181818" points="147,1044.9063,151,1054.9063,155,1044.9063,151,1048.9063" style="stroke:#181818;stroke-width:1.0;"/><line style="stroke:#181818;stroke-width:1.0;" x1="151" x2="151" y1="1090" y2="1149.6094"/><polygon fill="#181818" points="147,1139.6094,151,1149.6094,155,1139.6094,151,1143.6094" style="stroke:#181818;stroke-width:1.0;"/><line style="stroke:#181818;stroke-width:1.0;" x1="191.75" x2="151" y1="900.5938" y2="900.5938"/><line style="stroke:#181818;stroke-width:1.0;" x1="151" x2="151" y1="900.5938" y2="960.2031"/><polygon fill="#181818" points="147,950.2031,151,960.2031,155,950.2031,151,954.2031" style="stroke:#181818;stroke-width:1.0;"/><line style="stroke:#181818;stroke-width:1.0;" x1="402.75" x2="443.5" y1="900.5938" y2="900.5938"/><line style="stroke:#181818;stroke-width:1.0;" x1="443.5" x2="443.5" y1="900.5938" y2="960.2031"/><polygon fill="#181818" points="439.5,950.2031,443.5,960.2031,447.5,950.2031,443.5,954.2031" style="stroke:#181818;stroke-width:1.0;"/><line style="stroke:#181818;stroke-width:1.0;" x1="151" x2="151" y1="1184.7031" y2="1214.7031"/><line style="stroke:#181818;stroke-width:1.0;" x1="151" x2="285.25" y1="1214.7031" y2="1214.7031"/><polygon fill="#181818" points="275.25,1210.7031,285.25,1214.7031,275.25,1218.7031,279.25,1214.7031" style="stroke:#181818;stroke-width:1.0;"/><line style="stroke:#181818;stroke-width:1.0;" x1="443.5" x2="443.5" y1="995.2969" y2="1214.7031"/><line style="stroke:#181818;stroke-width:1.0;" x1="443.5" x2="309.25" y1="1214.7031" y2="1214.7031"/><polygon fill="#181818" points="319.25,1210.7031,309.25,1214.7031,319.25,1218.7031,315.25,1214.7031" style="stroke:#181818;stroke-width:1.0;"/><line style="stroke:#181818;stroke-width:1.0;" x1="297.25" x2="297.25" y1="856.5938" y2="888.5938"/><polygon fill="#181818" points="293.25,878.5938,297.25,888.5938,301.25,878.5938,297.25,882.5938" style="stroke:#181818;stroke-width:1.0;"/><line style="stroke:#181818;stroke-width:1.0;" x1="716" x2="716" y1="494.9063" y2="554.5156"/><polygon fill="#181818" points="712,544.5156,716,554.5156,720,544.5156,716,548.5156" style="stroke:#181818;stroke-width:1.0;"/><line style="stroke:#181818;stroke-width:1.0;" x1="466.125" x2="297.25" y1="400.2031" y2="400.2031"/><line style="stroke:#181818;stroke-width:1.0;" x1="297.25" x2="297.25" y1="400.2031" y2="459.8125"/><polygon fill="#181818" points="293.25,449.8125,297.25,459.8125,301.25,449.8125,297.25,453.8125" style="stroke:#181818;stroke-width:1.0;"/><line style="stroke:#181818;stroke-width:1.0;" x1="547.125" x2="716" y1="400.2031" y2="400.2031"/><line style="stroke:#181818;stroke-width:1.0;" x1="716" x2="716" y1="400.2031" y2="459.8125"/><polygon fill="#181818" points="712,449.8125,716,459.8125,720,449.8125,716,453.8125" style="stroke:#181818;stroke-width:1.0;"/><line style="stroke:#181818;stroke-width:1.0;" x1="297.25" x2="297.25" y1="1226.7031" y2="1244.7031"/><line style="stroke:#181818;stroke-width:1.0;" x1="297.25" x2="494.625" y1="1244.7031" y2="1244.7031"/><polygon fill="#181818" points="484.625,1240.7031,494.625,1244.7031,484.625,1248.7031,488.625,1244.7031" style="stroke:#181818;stroke-width:1.0;"/><line style="stroke:#181818;stroke-width:1.0;" x1="716" x2="716" y1="589.6094" y2="1244.7031"/><line style="stroke:#181818;stroke-width:1.0;" x1="716" x2="518.625" y1="1244.7031" y2="1244.7031"/><polygon fill="#181818" points="528.625,1240.7031,518.625,1244.7031,528.625,1248.7031,524.625,1244.7031" style="stroke:#181818;stroke-width:1.0;"/><line style="stroke:#181818;stroke-width:1.0;" x1="506.625" x2="506.625" y1="356.2031" y2="388.2031"/><polygon fill="#181818" points="502.625,378.2031,506.625,388.2031,510.625,378.2031,506.625,382.2031" style="stroke:#181818;stroke-width:1.0;"/><line style="stroke:#181818;stroke-width:1.0;" x1="506.625" x2="506.625" y1="1256.7031" y2="1276.7031"/><polygon fill="#181818" points="502.625,1266.7031,506.625,1276.7031,510.625,1266.7031,506.625,1270.7031" style="stroke:#181818;stroke-width:1.0;"/><!--SRC=[bPGzRzmm38Pt_GeYNIv3Xtm0_HgAf86dP6gNZhn8vsCaIuP49mWA__TI_hYSuxkhknW2zVBb8ueo4pi3DuzCpyIlS4TOHgpW8zpeYZmy65-YJIR17QRjEc3KIYLBliOimp7lZmAunKTRnj1u_IEu4E53yRcuBOgy4w8sSOXU5jUo8T4YU1vY5yNbbwjFgXLlniXAYJqJK_1mre6STHK0llPObQdMZKNOeiCAFRXGal_sJe6fiLOsPKKEjAngJEb5M2PAwyW2XseT7DptFkq4u2SbDjMEuC5K9f9DA9QCVMd0RDKbqWPMdGqyeoFz_HnuQpoiVkEvKft3iRFjqsTsi4PA35tlaTkPmnHk0FHOrUJosIFvqcAIrSvfP3sevy3eu0dr2xgJajfuZHkvB8ciCJP7nBrcecOJtnBQvIqnZhR8G7uJelI7ZlGczx_FaAFlvMd3UGpsIAPNCvOxXJATBn9ZI3A1-SjDFmvx_cyjQG_QpwzkthuPzBzCJpFxXfjwYQjnoS3g5scq_zyRpccxDxgacjUqKMfUTFcWroQD_m4eiHodT_byMS6L1viVtO6_YlWCa8b3_HS0]--></g></svg>