<?xml version="1.0" encoding="us-ascii" standalone="no"?><svg xmlns="http://www.w3.org/2000/svg" xmlns:xlink="http://www.w3.org/1999/xlink" contentStyleType="text/css" height="1819px" preserveAspectRatio="none" style="width:1147px;height:1819px;background:#FFFFFF;" version="1.1" viewBox="0 0 1147 1819" width="1147px" zoomAndPan="magnify"><defs/><g><text fill="#000000" font-family="sans-serif" font-size="14" font-weight="bold" lengthAdjust="spacing" textLength="263" x="440.5" y="34.5332">Activity Diagram - Admin Kelola Mapel</text><ellipse cx="775.625" cy="58.6094" fill="#222222" rx="10" ry="10" style="stroke:#222222;stroke-width:1.0;"/><rect fill="none" height="194.8906" style="stroke:#000000;stroke-width:1.5;" width="270" x="640.625" y="78.6094"/><path d="M689.625,78.6094 L689.625,89.2188 L679.625,99.2188 L640.625,99.2188 " fill="none" style="stroke:#000000;stroke-width:1.5;"/><text fill="#000000" font-family="sans-serif" font-size="14" lengthAdjust="spacing" textLength="39" x="643.625" y="94.1426">Admin</text><rect fill="#F8FBFF" height="35.0938" rx="12.5" ry="12.5" style="stroke:#2F4F8F;stroke-width:0.5;" width="196" x="677.625" y="116.2188"/><text fill="#1F2937" font-family="sans-serif" font-size="12" lengthAdjust="spacing" textLength="176" x="687.625" y="138.6758">Admin membuka halaman login</text><rect fill="#F8FBFF" height="35.0938" rx="12.5" ry="12.5" style="stroke:#2F4F8F;stroke-width:0.5;" width="250" x="650.625" y="171.3125"/><text fill="#1F2937" font-family="sans-serif" font-size="12" lengthAdjust="spacing" textLength="230" x="660.625" y="193.7695">Admin memasukkan email dan password</text><rect fill="#F8FBFF" height="35.0938" rx="12.5" ry="12.5" style="stroke:#2F4F8F;stroke-width:0.5;" width="151" x="700.125" y="226.4063"/><text fill="#1F2937" font-family="sans-serif" font-size="12" lengthAdjust="spacing" textLength="131" x="710.125" y="248.8633">Admin klik tombol Login</text><rect fill="none" height="84.7031" style="stroke:#000000;stroke-width:1.5;" width="196" x="677.625" y="283.5"/><path d="M729.625,283.5 L729.625,294.1094 L719.625,304.1094 L677.625,304.1094 " fill="none" style="stroke:#000000;stroke-width:1.5;"/><text fill="#000000" font-family="sans-serif" font-size="14" lengthAdjust="spacing" textLength="42" x="680.625" y="299.0332">Sistem</text><rect fill="#F8FBFF" height="35.0938" rx="12.5" ry="12.5" style="stroke:#2F4F8F;stroke-width:0.5;" width="176" x="687.625" y="321.1094"/><text fill="#1F2937" font-family="sans-serif" font-size="12" lengthAdjust="spacing" textLength="156" x="697.625" y="343.5664">Memeriksa data login admin</text><polygon fill="#F8FBFF" points="747.125,388.2031,804.125,388.2031,816.125,400.2031,804.125,412.2031,747.125,412.2031,735.125,400.2031,747.125,388.2031" style="stroke:#2F4F8F;stroke-width:0.5;"/><text fill="#1F2937" font-family="sans-serif" font-size="11" lengthAdjust="spacing" textLength="57" x="747.125" y="404.7041">Login valid?</text><text fill="#000000" font-family="sans-serif" font-size="11" lengthAdjust="spacing" textLength="14" x="721.125" y="397.7861">Ya</text><text fill="#000000" font-family="sans-serif" font-size="11" lengthAdjust="spacing" textLength="25" x="816.125" y="397.7861">Tidak</text><rect fill="none" height="154.7969" style="stroke:#000000;stroke-width:1.5;" width="232" x="409.25" y="422.2031"/><path d="M458.25,422.2031 L458.25,432.8125 L448.25,442.8125 L409.25,442.8125 " fill="none" style="stroke:#000000;stroke-width:1.5;"/><text fill="#000000" font-family="sans-serif" font-size="14" lengthAdjust="spacing" textLength="39" x="412.25" y="437.7363">Admin</text><rect fill="#F8FBFF" height="35.0938" rx="12.5" ry="12.5" style="stroke:#2F4F8F;stroke-width:0.5;" width="175" x="437.75" y="459.8125"/><text fill="#1F2937" font-family="sans-serif" font-size="12" lengthAdjust="spacing" textLength="155" x="447.75" y="482.2695">Admin masuk ke dashboard</text><rect fill="#F8FBFF" height="35.0938" rx="12.5" ry="12.5" style="stroke:#2F4F8F;stroke-width:0.5;" width="212" x="419.25" y="521.9063"/><text fill="#1F2937" font-family="sans-serif" font-size="12" lengthAdjust="spacing" textLength="192" x="429.25" y="544.3633">Admin memilih menu Kelola Mapel</text><rect fill="none" height="139.7969" style="stroke:#000000;stroke-width:1.5;" width="225" x="412.75" y="612"/><path d="M464.75,612 L464.75,622.6094 L454.75,632.6094 L412.75,632.6094 " fill="none" style="stroke:#000000;stroke-width:1.5;"/><text fill="#000000" font-family="sans-serif" font-size="14" lengthAdjust="spacing" textLength="42" x="415.75" y="627.5332">Sistem</text><rect fill="#F8FBFF" height="35.0938" rx="12.5" ry="12.5" style="stroke:#2F4F8F;stroke-width:0.5;" width="159" x="445.75" y="649.6094"/><text fill="#1F2937" font-family="sans-serif" font-size="12" lengthAdjust="spacing" textLength="139" x="455.75" y="672.0664">Menampilkan data mapel</text><rect fill="#F8FBFF" height="35.0938" rx="12.5" ry="12.5" style="stroke:#2F4F8F;stroke-width:0.5;" width="205" x="422.75" y="704.7031"/><text fill="#1F2937" font-family="sans-serif" font-size="12" lengthAdjust="spacing" textLength="185" x="432.75" y="727.1602">Menampilkan form tambah mapel</text><rect fill="none" height="84.7031" style="stroke:#000000;stroke-width:1.5;" width="184" x="433.25" y="761.7969"/><path d="M482.25,761.7969 L482.25,772.4063 L472.25,782.4063 L433.25,782.4063 " fill="none" style="stroke:#000000;stroke-width:1.5;"/><text fill="#000000" font-family="sans-serif" font-size="14" lengthAdjust="spacing" textLength="39" x="436.25" y="777.3301">Admin</text><rect fill="#F8FBFF" height="35.0938" rx="12.5" ry="12.5" style="stroke:#2F4F8F;stroke-width:0.5;" width="164" x="443.25" y="799.4063"/><text fill="#1F2937" font-family="sans-serif" font-size="12" lengthAdjust="spacing" textLength="144" x="453.25" y="821.8633">Admin melihat data mapel</text><polygon fill="#F8FBFF" points="453.75,866.5,596.75,866.5,608.75,878.5,596.75,890.5,453.75,890.5,441.75,878.5,453.75,866.5" style="stroke:#2F4F8F;stroke-width:0.5;"/><text fill="#1F2937" font-family="sans-serif" font-size="11" lengthAdjust="spacing" textLength="143" x="453.75" y="883.001">Admin ingin mengelola mapel?</text><text fill="#000000" font-family="sans-serif" font-size="11" lengthAdjust="spacing" textLength="14" x="427.75" y="876.083">Ya</text><text fill="#000000" font-family="sans-serif" font-size="11" lengthAdjust="spacing" textLength="25" x="608.75" y="876.083">Tidak</text><rect fill="none" height="84.7031" style="stroke:#000000;stroke-width:1.5;" width="187" x="205.5" y="900.5"/><path d="M254.5,900.5 L254.5,911.1094 L244.5,921.1094 L205.5,921.1094 " fill="none" style="stroke:#000000;stroke-width:1.5;"/><text fill="#000000" font-family="sans-serif" font-size="14" lengthAdjust="spacing" textLength="39" x="208.5" y="916.0332">Admin</text><rect fill="#F8FBFF" height="35.0938" rx="12.5" ry="12.5" style="stroke:#2F4F8F;stroke-width:0.5;" width="167" x="215.5" y="938.1094"/><text fill="#1F2937" font-family="sans-serif" font-size="12" lengthAdjust="spacing" textLength="147" x="225.5" y="960.5664">Admin memilih aksi mapel</text><polygon fill="#F8FBFF" points="257.5,1005.2031,340.5,1005.2031,352.5,1017.2031,340.5,1029.2031,257.5,1029.2031,245.5,1017.2031,257.5,1005.2031" style="stroke:#2F4F8F;stroke-width:0.5;"/><text fill="#1F2937" font-family="sans-serif" font-size="11" lengthAdjust="spacing" textLength="83" x="257.5" y="1021.7041">Aksi yang dipilih?</text><text fill="#000000" font-family="sans-serif" font-size="11" lengthAdjust="spacing" textLength="64" x="181.5" y="1014.7861">Tambah / Edit</text><text fill="#000000" font-family="sans-serif" font-size="11" lengthAdjust="spacing" textLength="59" x="352.5" y="1014.7861">Ubah Status</text><rect fill="none" height="256.9844" style="stroke:#000000;stroke-width:1.5;" width="232" x="52" y="1039.2031"/><path d="M101,1039.2031 L101,1049.8125 L91,1059.8125 L52,1059.8125 " fill="none" style="stroke:#000000;stroke-width:1.5;"/><text fill="#000000" font-family="sans-serif" font-size="14" lengthAdjust="spacing" textLength="39" x="55" y="1054.7363">Admin</text><rect fill="#F8FBFF" height="35.0938" rx="12.5" ry="12.5" style="stroke:#2F4F8F;stroke-width:0.5;" width="176" x="80" y="1076.8125"/><text fill="#1F2937" font-family="sans-serif" font-size="12" lengthAdjust="spacing" textLength="156" x="90" y="1099.2695">Admin mengisi nama mapel</text><rect fill="#F8FBFF" height="35.0938" rx="12.5" ry="12.5" style="stroke:#2F4F8F;stroke-width:0.5;" width="157" x="89.5" y="1131.9063"/><text fill="#1F2937" font-family="sans-serif" font-size="12" lengthAdjust="spacing" textLength="137" x="99.5" y="1154.3633">Admin mengisi deskripsi</text><rect fill="#F8FBFF" height="35.0938" rx="12.5" ry="12.5" style="stroke:#2F4F8F;stroke-width:0.5;" width="178" x="79" y="1187"/><text fill="#1F2937" font-family="sans-serif" font-size="12" lengthAdjust="spacing" textLength="158" x="89" y="1209.457">Admin memilih status mapel</text><rect fill="#F8FBFF" height="35.0938" rx="12.5" ry="12.5" style="stroke:#2F4F8F;stroke-width:0.5;" width="212" x="62" y="1249.0938"/><text fill="#1F2937" font-family="sans-serif" font-size="12" lengthAdjust="spacing" textLength="192" x="72" y="1271.5508">Admin klik tombol Simpan / Proses</text><rect fill="none" height="194.8906" style="stroke:#000000;stroke-width:1.5;" width="252" x="304" y="1039.2031"/><path d="M353,1039.2031 L353,1049.8125 L343,1059.8125 L304,1059.8125 " fill="none" style="stroke:#000000;stroke-width:1.5;"/><text fill="#000000" font-family="sans-serif" font-size="14" lengthAdjust="spacing" textLength="39" x="307" y="1054.7363">Admin</text><rect fill="#F8FBFF" height="35.0938" rx="12.5" ry="12.5" style="stroke:#2F4F8F;stroke-width:0.5;" width="141" x="359.5" y="1076.8125"/><text fill="#1F2937" font-family="sans-serif" font-size="12" lengthAdjust="spacing" textLength="121" x="369.5" y="1099.2695">Admin memilih mapel</text><rect fill="#F8FBFF" height="35.0938" rx="12.5" ry="12.5" style="stroke:#2F4F8F;stroke-width:0.5;" width="232" x="314" y="1131.9063"/><text fill="#1F2937" font-family="sans-serif" font-size="12" lengthAdjust="spacing" textLength="212" x="324" y="1154.3633">Admin mengubah status aktif / nonaktif</text><rect fill="#F8FBFF" height="35.0938" rx="12.5" ry="12.5" style="stroke:#2F4F8F;stroke-width:0.5;" width="212" x="324" y="1187"/><text fill="#1F2937" font-family="sans-serif" font-size="12" lengthAdjust="spacing" textLength="192" x="334" y="1209.457">Admin klik tombol Simpan / Proses</text><polygon fill="#F8FBFF" points="299,1302.1875,311,1314.1875,299,1326.1875,287,1314.1875,299,1302.1875" style="stroke:#2F4F8F;stroke-width:0.5;"/><rect fill="none" height="84.7031" style="stroke:#000000;stroke-width:1.5;" width="166" x="216" y="1336.1875"/><path d="M268,1336.1875 L268,1346.7969 L258,1356.7969 L216,1356.7969 " fill="none" style="stroke:#000000;stroke-width:1.5;"/><text fill="#000000" font-family="sans-serif" font-size="14" lengthAdjust="spacing" textLength="42" x="219" y="1351.7207">Sistem</text><rect fill="#F8FBFF" height="35.0938" rx="12.5" ry="12.5" style="stroke:#2F4F8F;stroke-width:0.5;" width="146" x="226" y="1373.7969"/><text fill="#1F2937" font-family="sans-serif" font-size="12" lengthAdjust="spacing" textLength="126" x="236" y="1396.2539">Memeriksa data mapel</text><polygon fill="#F8FBFF" points="257,1440.8906,341,1440.8906,353,1452.8906,341,1464.8906,257,1464.8906,245,1452.8906,257,1440.8906" style="stroke:#2F4F8F;stroke-width:0.5;"/><text fill="#1F2937" font-family="sans-serif" font-size="11" lengthAdjust="spacing" textLength="84" x="257" y="1457.3916">Data mapel valid?</text><text fill="#000000" font-family="sans-serif" font-size="11" lengthAdjust="spacing" textLength="14" x="231" y="1450.4736">Ya</text><text fill="#000000" font-family="sans-serif" font-size="11" lengthAdjust="spacing" textLength="25" x="353" y="1450.4736">Tidak</text><rect fill="none" height="201.8906" style="stroke:#000000;stroke-width:1.5;" width="278" x="11" y="1474.8906"/><path d="M63,1474.8906 L63,1485.5 L53,1495.5 L11,1495.5 " fill="none" style="stroke:#000000;stroke-width:1.5;"/><text fill="#000000" font-family="sans-serif" font-size="14" lengthAdjust="spacing" textLength="42" x="14" y="1490.4238">Sistem</text><rect fill="#F8FBFF" height="35.0938" rx="12.5" ry="12.5" style="stroke:#2F4F8F;stroke-width:0.5;" width="211" x="44.5" y="1512.5"/><text fill="#1F2937" font-family="sans-serif" font-size="12" lengthAdjust="spacing" textLength="191" x="54.5" y="1534.957">Menyimpan perubahan data mapel</text><rect fill="#F8FBFF" height="35.0938" rx="12.5" ry="12.5" style="stroke:#2F4F8F;stroke-width:0.5;" width="180" x="60" y="1567.5938"/><text fill="#1F2937" font-family="sans-serif" font-size="12" lengthAdjust="spacing" textLength="160" x="70" y="1590.0508">Menampilkan pesan berhasil</text><rect fill="#F8FBFF" height="35.0938" rx="12.5" ry="12.5" style="stroke:#2F4F8F;stroke-width:0.5;" width="258" x="21" y="1629.6875"/><text fill="#1F2937" font-family="sans-serif" font-size="12" lengthAdjust="spacing" textLength="238" x="31" y="1652.1445">Menampilkan kembali data mapel dan form</text><rect fill="none" height="139.7969" style="stroke:#000000;stroke-width:1.5;" width="278" x="309" y="1474.8906"/><path d="M361,1474.8906 L361,1485.5 L351,1495.5 L309,1495.5 " fill="none" style="stroke:#000000;stroke-width:1.5;"/><text fill="#000000" font-family="sans-serif" font-size="14" lengthAdjust="spacing" textLength="42" x="312" y="1490.4238">Sistem</text><rect fill="#F8FBFF" height="35.0938" rx="12.5" ry="12.5" style="stroke:#2F4F8F;stroke-width:0.5;" width="161" x="367.5" y="1512.5"/><text fill="#1F2937" font-family="sans-serif" font-size="12" lengthAdjust="spacing" textLength="141" x="377.5" y="1534.957">Menampilkan pesan error</text><rect fill="#F8FBFF" height="35.0938" rx="12.5" ry="12.5" style="stroke:#2F4F8F;stroke-width:0.5;" width="258" x="319" y="1567.5938"/><text fill="#1F2937" font-family="sans-serif" font-size="12" lengthAdjust="spacing" textLength="238" x="329" y="1590.0508">Menampilkan kembali data mapel dan form</text><polygon fill="#F8FBFF" points="299,1682.7813,311,1694.7813,299,1706.7813,287,1694.7813,299,1682.7813" style="stroke:#2F4F8F;stroke-width:0.5;"/><rect fill="none" height="84.7031" style="stroke:#000000;stroke-width:1.5;" width="269" x="617" y="900.5"/><path d="M666,900.5 L666,911.1094 L656,921.1094 L617,921.1094 " fill="none" style="stroke:#000000;stroke-width:1.5;"/><text fill="#000000" font-family="sans-serif" font-size="14" lengthAdjust="spacing" textLength="39" x="620" y="916.0332">Admin</text><rect fill="#F8FBFF" height="35.0938" rx="12.5" ry="12.5" style="stroke:#2F4F8F;stroke-width:0.5;" width="249" x="627" y="938.1094"/><text fill="#1F2937" font-family="sans-serif" font-size="12" lengthAdjust="spacing" textLength="229" x="637" y="960.5664">Admin tidak melakukan perubahan mapel</text><polygon fill="#F8FBFF" points="525.25,1712.7813,537.25,1724.7813,525.25,1736.7813,513.25,1724.7813,525.25,1712.7813" style="stroke:#2F4F8F;stroke-width:0.5;"/><rect fill="none" height="84.7031" style="stroke:#000000;stroke-width:1.5;" width="216" x="918" y="422.2031"/><path d="M970,422.2031 L970,432.8125 L960,442.8125 L918,442.8125 " fill="none" style="stroke:#000000;stroke-width:1.5;"/><text fill="#000000" font-family="sans-serif" font-size="14" lengthAdjust="spacing" textLength="42" x="921" y="437.7363">Sistem</text><rect fill="#F8FBFF" height="35.0938" rx="12.5" ry="12.5" style="stroke:#2F4F8F;stroke-width:0.5;" width="196" x="928" y="459.8125"/><text fill="#1F2937" font-family="sans-serif" font-size="12" lengthAdjust="spacing" textLength="176" x="938" y="482.2695">Menampilkan pesan login gagal</text><rect fill="none" height="92.7031" style="stroke:#000000;stroke-width:1.5;" width="220" x="916" y="541.9063"/><path d="M965,541.9063 L965,552.5156 L955,562.5156 L916,562.5156 " fill="none" style="stroke:#000000;stroke-width:1.5;"/><text fill="#000000" font-family="sans-serif" font-size="14" lengthAdjust="spacing" textLength="39" x="919" y="557.4395">Admin</text><rect fill="#F8FBFF" height="35.0938" rx="12.5" ry="12.5" style="stroke:#2F4F8F;stroke-width:0.5;" width="200" x="926" y="579.5156"/><text fill="#1F2937" font-family="sans-serif" font-size="12" lengthAdjust="spacing" textLength="180" x="936" y="601.9727">Admin kembali ke halaman login</text><polygon fill="#F8FBFF" points="775.625,1742.7813,787.625,1754.7813,775.625,1766.7813,763.625,1754.7813,775.625,1742.7813" style="stroke:#2F4F8F;stroke-width:0.5;"/><ellipse cx="775.625" cy="1797.7813" fill="none" rx="11" ry="11" style="stroke:#222222;stroke-width:1.0;"/><ellipse cx="775.625" cy="1797.7813" fill="#222222" rx="6" ry="6" style="stroke:#222222;stroke-width:1.0;"/><line style="stroke:#181818;stroke-width:1.0;" x1="775.625" x2="775.625" y1="151.3125" y2="171.3125"/><polygon fill="#181818" points="771.625,161.3125,775.625,171.3125,779.625,161.3125,775.625,165.3125" style="stroke:#181818;stroke-width:1.0;"/><line style="stroke:#181818;stroke-width:1.0;" x1="775.625" x2="775.625" y1="206.4063" y2="226.4063"/><polygon fill="#181818" points="771.625,216.4063,775.625,226.4063,779.625,216.4063,775.625,220.4063" style="stroke:#181818;stroke-width:1.0;"/><line style="stroke:#181818;stroke-width:1.0;" x1="775.625" x2="775.625" y1="68.6094" y2="116.2188"/><polygon fill="#181818" points="771.625,106.2188,775.625,116.2188,779.625,106.2188,775.625,110.2188" style="stroke:#181818;stroke-width:1.0;"/><line style="stroke:#181818;stroke-width:1.0;" x1="775.625" x2="775.625" y1="261.5" y2="321.1094"/><polygon fill="#181818" points="771.625,311.1094,775.625,321.1094,779.625,311.1094,775.625,315.1094" style="stroke:#181818;stroke-width:1.0;"/><line style="stroke:#181818;stroke-width:1.0;" x1="525.25" x2="525.25" y1="494.9063" y2="521.9063"/><polygon fill="#181818" points="521.25,511.9063,525.25,521.9063,529.25,511.9063,525.25,515.9063" style="stroke:#181818;stroke-width:1.0;"/><line style="stroke:#181818;stroke-width:1.0;" x1="525.25" x2="525.25" y1="684.7031" y2="704.7031"/><polygon fill="#181818" points="521.25,694.7031,525.25,704.7031,529.25,694.7031,525.25,698.7031" style="stroke:#181818;stroke-width:1.0;"/><line style="stroke:#181818;stroke-width:1.0;" x1="525.25" x2="525.25" y1="557" y2="649.6094"/><polygon fill="#181818" points="521.25,639.6094,525.25,649.6094,529.25,639.6094,525.25,643.6094" style="stroke:#181818;stroke-width:1.0;"/><line style="stroke:#181818;stroke-width:1.0;" x1="525.25" x2="525.25" y1="739.7969" y2="799.4063"/><polygon fill="#181818" points="521.25,789.4063,525.25,799.4063,529.25,789.4063,525.25,793.4063" style="stroke:#181818;stroke-width:1.0;"/><line style="stroke:#181818;stroke-width:1.0;" x1="168" x2="168" y1="1111.9063" y2="1131.9063"/><polygon fill="#181818" points="164,1121.9063,168,1131.9063,172,1121.9063,168,1125.9063" style="stroke:#181818;stroke-width:1.0;"/><line style="stroke:#181818;stroke-width:1.0;" x1="168" x2="168" y1="1167" y2="1187"/><polygon fill="#181818" points="164,1177,168,1187,172,1177,168,1181" style="stroke:#181818;stroke-width:1.0;"/><line style="stroke:#181818;stroke-width:1.0;" x1="168" x2="168" y1="1222.0938" y2="1249.0938"/><polygon fill="#181818" points="164,1239.0938,168,1249.0938,172,1239.0938,168,1243.0938" style="stroke:#181818;stroke-width:1.0;"/><line style="stroke:#181818;stroke-width:1.0;" x1="430" x2="430" y1="1111.9063" y2="1131.9063"/><polygon fill="#181818" points="426,1121.9063,430,1131.9063,434,1121.9063,430,1125.9063" style="stroke:#181818;stroke-width:1.0;"/><line style="stroke:#181818;stroke-width:1.0;" x1="430" x2="430" y1="1167" y2="1187"/><polygon fill="#181818" points="426,1177,430,1187,434,1177,430,1181" style="stroke:#181818;stroke-width:1.0;"/><line style="stroke:#181818;stroke-width:1.0;" x1="245.5" x2="168" y1="1017.2031" y2="1017.2031"/><line style="stroke:#181818;stroke-width:1.0;" x1="168" x2="168" y1="1017.2031" y2="1076.8125"/><polygon fill="#181818" points="164,1066.8125,168,1076.8125,172,1066.8125,168,1070.8125" style="stroke:#181818;stroke-width:1.0;"/><line style="stroke:#181818;stroke-width:1.0;" x1="352.5" x2="430" y1="1017.2031" y2="1017.2031"/><line style="stroke:#181818;stroke-width:1.0;" x1="430" x2="430" y1="1017.2031" y2="1076.8125"/><polygon fill="#181818" points="426,1066.8125,430,1076.8125,434,1066.8125,430,1070.8125" style="stroke:#181818;stroke-width:1.0;"/><line style="stroke:#181818;stroke-width:1.0;" x1="168" x2="168" y1="1284.1875" y2="1314.1875"/><line style="stroke:#181818;stroke-width:1.0;" x1="168" x2="287" y1="1314.1875" y2="1314.1875"/><polygon fill="#181818" points="277,1310.1875,287,1314.1875,277,1318.1875,281,1314.1875" style="stroke:#181818;stroke-width:1.0;"/><line style="stroke:#181818;stroke-width:1.0;" x1="430" x2="430" y1="1222.0938" y2="1314.1875"/><line style="stroke:#181818;stroke-width:1.0;" x1="430" x2="311" y1="1314.1875" y2="1314.1875"/><polygon fill="#181818" points="321,1310.1875,311,1314.1875,321,1318.1875,317,1314.1875" style="stroke:#181818;stroke-width:1.0;"/><line style="stroke:#181818;stroke-width:1.0;" x1="299" x2="299" y1="973.2031" y2="1005.2031"/><polygon fill="#181818" points="295,995.2031,299,1005.2031,303,995.2031,299,999.2031" style="stroke:#181818;stroke-width:1.0;"/><line style="stroke:#181818;stroke-width:1.0;" x1="299" x2="299" y1="1326.1875" y2="1373.7969"/><polygon fill="#181818" points="295,1363.7969,299,1373.7969,303,1363.7969,299,1367.7969" style="stroke:#181818;stroke-width:1.0;"/><line style="stroke:#181818;stroke-width:1.0;" x1="150" x2="150" y1="1547.5938" y2="1567.5938"/><polygon fill="#181818" points="146,1557.5938,150,1567.5938,154,1557.5938,150,1561.5938" style="stroke:#181818;stroke-width:1.0;"/><line style="stroke:#181818;stroke-width:1.0;" x1="150" x2="150" y1="1602.6875" y2="1629.6875"/><polygon fill="#181818" points="146,1619.6875,150,1629.6875,154,1619.6875,150,1623.6875" style="stroke:#181818;stroke-width:1.0;"/><line style="stroke:#181818;stroke-width:1.0;" x1="448" x2="448" y1="1547.5938" y2="1567.5938"/><polygon fill="#181818" points="444,1557.5938,448,1567.5938,452,1557.5938,448,1561.5938" style="stroke:#181818;stroke-width:1.0;"/><line style="stroke:#181818;stroke-width:1.0;" x1="245" x2="150" y1="1452.8906" y2="1452.8906"/><line style="stroke:#181818;stroke-width:1.0;" x1="150" x2="150" y1="1452.8906" y2="1512.5"/><polygon fill="#181818" points="146,1502.5,150,1512.5,154,1502.5,150,1506.5" style="stroke:#181818;stroke-width:1.0;"/><line style="stroke:#181818;stroke-width:1.0;" x1="353" x2="448" y1="1452.8906" y2="1452.8906"/><line style="stroke:#181818;stroke-width:1.0;" x1="448" x2="448" y1="1452.8906" y2="1512.5"/><polygon fill="#181818" points="444,1502.5,448,1512.5,452,1502.5,448,1506.5" style="stroke:#181818;stroke-width:1.0;"/><line style="stroke:#181818;stroke-width:1.0;" x1="150" x2="150" y1="1664.7813" y2="1694.7813"/><line style="stroke:#181818;stroke-width:1.0;" x1="150" x2="287" y1="1694.7813" y2="1694.7813"/><polygon fill="#181818" points="277,1690.7813,287,1694.7813,277,1698.7813,281,1694.7813" style="stroke:#181818;stroke-width:1.0;"/><line style="stroke:#181818;stroke-width:1.0;" x1="448" x2="448" y1="1602.6875" y2="1694.7813"/><line style="stroke:#181818;stroke-width:1.0;" x1="448" x2="311" y1="1694.7813" y2="1694.7813"/><polygon fill="#181818" points="321,1690.7813,311,1694.7813,321,1698.7813,317,1694.7813" style="stroke:#181818;stroke-width:1.0;"/><line style="stroke:#181818;stroke-width:1.0;" x1="299" x2="299" y1="1408.8906" y2="1440.8906"/><polygon fill="#181818" points="295,1430.8906,299,1440.8906,303,1430.8906,299,1434.8906" style="stroke:#181818;stroke-width:1.0;"/><line style="stroke:#181818;stroke-width:1.0;" x1="441.75" x2="299" y1="878.5" y2="878.5"/><line style="stroke:#181818;stroke-width:1.0;" x1="299" x2="299" y1="878.5" y2="938.1094"/><polygon fill="#181818" points="295,928.1094,299,938.1094,303,928.1094,299,932.1094" style="stroke:#181818;stroke-width:1.0;"/><line style="stroke:#181818;stroke-width:1.0;" x1="608.75" x2="751.5" y1="878.5" y2="878.5"/><line style="stroke:#181818;stroke-width:1.0;" x1="751.5" x2="751.5" y1="878.5" y2="938.1094"/><polygon fill="#181818" points="747.5,928.1094,751.5,938.1094,755.5,928.1094,751.5,932.1094" style="stroke:#181818;stroke-width:1.0;"/><line style="stroke:#181818;stroke-width:1.0;" x1="299" x2="299" y1="1706.7813" y2="1724.7813"/><line style="stroke:#181818;stroke-width:1.0;" x1="299" x2="513.25" y1="1724.7813" y2="1724.7813"/><polygon fill="#181818" points="503.25,1720.7813,513.25,1724.7813,503.25,1728.7813,507.25,1724.7813" style="stroke:#181818;stroke-width:1.0;"/><line style="stroke:#181818;stroke-width:1.0;" x1="751.5" x2="751.5" y1="973.2031" y2="1724.7813"/><line style="stroke:#181818;stroke-width:1.0;" x1="751.5" x2="537.25" y1="1724.7813" y2="1724.7813"/><polygon fill="#181818" points="547.25,1720.7813,537.25,1724.7813,547.25,1728.7813,543.25,1724.7813" style="stroke:#181818;stroke-width:1.0;"/><line style="stroke:#181818;stroke-width:1.0;" x1="525.25" x2="525.25" y1="834.5" y2="866.5"/><polygon fill="#181818" points="521.25,856.5,525.25,866.5,529.25,856.5,525.25,860.5" style="stroke:#181818;stroke-width:1.0;"/><line style="stroke:#181818;stroke-width:1.0;" x1="1026" x2="1026" y1="494.9063" y2="579.5156"/><polygon fill="#181818" points="1022,569.5156,1026,579.5156,1030,569.5156,1026,573.5156" style="stroke:#181818;stroke-width:1.0;"/><line style="stroke:#181818;stroke-width:1.0;" x1="735.125" x2="525.25" y1="400.2031" y2="400.2031"/><line style="stroke:#181818;stroke-width:1.0;" x1="525.25" x2="525.25" y1="400.2031" y2="459.8125"/><polygon fill="#181818" points="521.25,449.8125,525.25,459.8125,529.25,449.8125,525.25,453.8125" style="stroke:#181818;stroke-width:1.0;"/><line style="stroke:#181818;stroke-width:1.0;" x1="816.125" x2="1026" y1="400.2031" y2="400.2031"/><line style="stroke:#181818;stroke-width:1.0;" x1="1026" x2="1026" y1="400.2031" y2="459.8125"/><polygon fill="#181818" points="1022,449.8125,1026,459.8125,1030,449.8125,1026,453.8125" style="stroke:#181818;stroke-width:1.0;"/><line style="stroke:#181818;stroke-width:1.0;" x1="525.25" x2="525.25" y1="1736.7813" y2="1754.7813"/><line style="stroke:#181818;stroke-width:1.0;" x1="525.25" x2="763.625" y1="1754.7813" y2="1754.7813"/><polygon fill="#181818" points="753.625,1750.7813,763.625,1754.7813,753.625,1758.7813,757.625,1754.7813" style="stroke:#181818;stroke-width:1.0;"/><line style="stroke:#181818;stroke-width:1.0;" x1="1026" x2="1026" y1="614.6094" y2="1754.7813"/><line style="stroke:#181818;stroke-width:1.0;" x1="1026" x2="787.625" y1="1754.7813" y2="1754.7813"/><polygon fill="#181818" points="797.625,1750.7813,787.625,1754.7813,797.625,1758.7813,793.625,1754.7813" style="stroke:#181818;stroke-width:1.0;"/><line style="stroke:#181818;stroke-width:1.0;" x1="775.625" x2="775.625" y1="356.2031" y2="388.2031"/><polygon fill="#181818" points="771.625,378.2031,775.625,388.2031,779.625,378.2031,775.625,382.2031" style="stroke:#181818;stroke-width:1.0;"/><line style="stroke:#181818;stroke-width:1.0;" x1="775.625" x2="775.625" y1="1766.7813" y2="1786.7813"/><polygon fill="#181818" points="771.625,1776.7813,775.625,1786.7813,779.625,1776.7813,775.625,1780.7813" style="stroke:#181818;stroke-width:1.0;"/><!--SRC=[jLN9Rjim4BthAmRfnJaKHjC2tGv5qbINDa01fuSSnn4j3xW999N2AFpl7LAoBLdoaYuNMo27RoCv31IKWEl7G4yKLd1BM3hKy1Ak2qq6lWfb5S8TLa9bcPTaAeppk5dmAmEumKTPEbkRuhDLri6B_5r-a-Tnnhf2k7RqAd_34poQMnFQiLVvrVlNRxCrOmTq8SiOFb0WQ-0YARX8300V6ZrQw7aj4PQeKAC1PKio7_SgqDTIyYH_aOA2lohq_YThwLLAHHA2rNEhu5k3i-u9c94FGcyLt0aj74cF31cmeGQCK6aXBM2IOE095HMVBY4iXO790rvcMK8uvAshFce7APZ2B-SMDvBx1adHalzDtTkVfd8zuEhRQAqOr1Mfc58oetS0WuA5THe2wZakktNhyqq9rejXmDGYnE2QGZ9bAZTbOolLzeFSG1-Z7GaBfQTza-iTMf8GIrPeIYYeYeksnFUDzobyAIXqD9oZewU5xJ479pi8_41f8RnqL7awKjaOvEiJQdy2jdlYPwGhtjmfV7VM2zzVqub6A2zWyYC6C4iSVnD0Ut9FUgyZNMi9PU3jcOAn9dt-MtUceCNegHhUch4cSFn8tMvBHdh2WH37UJUNSjNugeIB4HsulQEtk1AUV-V2BT7JgMB9RPO5Tz1J6usTO3_A_ZcvfmBb7thRaogSi-u_wDpjU4_oSpjBYCjYQqDPozwMZ9-9bdV8UNwdRd9ftfqIItns8zx4nU_Bo0FAEAr87spr6m00]--></g></svg>