<?xml version="1.0" encoding="us-ascii" standalone="no"?><svg xmlns="http://www.w3.org/2000/svg" xmlns:xlink="http://www.w3.org/1999/xlink" contentStyleType="text/css" height="2057px" preserveAspectRatio="none" style="width:1982px;height:2057px;background:#FFFFFF;" version="1.1" viewBox="0 0 1982 2057" width="1982px" zoomAndPan="magnify"><defs/><g><text fill="#000000" font-family="sans-serif" font-size="14" font-weight="bold" lengthAdjust="spacing" textLength="253" x="863" y="34.5332">Activity Diagram - Admin Kelola User</text><ellipse cx="1522.5" cy="58.6094" fill="#222222" rx="10" ry="10" style="stroke:#222222;stroke-width:1.0;"/><rect fill="none" height="194.8906" style="stroke:#000000;stroke-width:1.5;" width="270" x="1387.5" y="78.6094"/><path d="M1436.5,78.6094 L1436.5,89.2188 L1426.5,99.2188 L1387.5,99.2188 " fill="none" style="stroke:#000000;stroke-width:1.5;"/><text fill="#000000" font-family="sans-serif" font-size="14" lengthAdjust="spacing" textLength="39" x="1390.5" y="94.1426">Admin</text><rect fill="#F8FBFF" height="35.0938" rx="12.5" ry="12.5" style="stroke:#2F4F8F;stroke-width:0.5;" width="196" x="1424.5" y="116.2188"/><text fill="#1F2937" font-family="sans-serif" font-size="12" lengthAdjust="spacing" textLength="176" x="1434.5" y="138.6758">Admin membuka halaman login</text><rect fill="#F8FBFF" height="35.0938" rx="12.5" ry="12.5" style="stroke:#2F4F8F;stroke-width:0.5;" width="250" x="1397.5" y="171.3125"/><text fill="#1F2937" font-family="sans-serif" font-size="12" lengthAdjust="spacing" textLength="230" x="1407.5" y="193.7695">Admin memasukkan email dan password</text><rect fill="#F8FBFF" height="35.0938" rx="12.5" ry="12.5" style="stroke:#2F4F8F;stroke-width:0.5;" width="151" x="1447" y="226.4063"/><text fill="#1F2937" font-family="sans-serif" font-size="12" lengthAdjust="spacing" textLength="131" x="1457" y="248.8633">Admin klik tombol Login</text><rect fill="none" height="84.7031" style="stroke:#000000;stroke-width:1.5;" width="196" x="1424.5" y="283.5"/><path d="M1476.5,283.5 L1476.5,294.1094 L1466.5,304.1094 L1424.5,304.1094 " fill="none" style="stroke:#000000;stroke-width:1.5;"/><text fill="#000000" font-family="sans-serif" font-size="14" lengthAdjust="spacing" textLength="42" x="1427.5" y="299.0332">Sistem</text><rect fill="#F8FBFF" height="35.0938" rx="12.5" ry="12.5" style="stroke:#2F4F8F;stroke-width:0.5;" width="176" x="1434.5" y="321.1094"/><text fill="#1F2937" font-family="sans-serif" font-size="12" lengthAdjust="spacing" textLength="156" x="1444.5" y="343.5664">Memeriksa data login admin</text><polygon fill="#F8FBFF" points="1494,388.2031,1551,388.2031,1563,400.2031,1551,412.2031,1494,412.2031,1482,400.2031,1494,388.2031" style="stroke:#2F4F8F;stroke-width:0.5;"/><text fill="#1F2937" font-family="sans-serif" font-size="11" lengthAdjust="spacing" textLength="57" x="1494" y="404.7041">Login valid?</text><text fill="#000000" font-family="sans-serif" font-size="11" lengthAdjust="spacing" textLength="14" x="1468" y="397.7861">Ya</text><text fill="#000000" font-family="sans-serif" font-size="11" lengthAdjust="spacing" textLength="25" x="1563" y="397.7861">Tidak</text><rect fill="none" height="154.7969" style="stroke:#000000;stroke-width:1.5;" width="226" x="1051" y="422.2031"/><path d="M1100,422.2031 L1100,432.8125 L1090,442.8125 L1051,442.8125 " fill="none" style="stroke:#000000;stroke-width:1.5;"/><text fill="#000000" font-family="sans-serif" font-size="14" lengthAdjust="spacing" textLength="39" x="1054" y="437.7363">Admin</text><rect fill="#F8FBFF" height="35.0938" rx="12.5" ry="12.5" style="stroke:#2F4F8F;stroke-width:0.5;" width="175" x="1076.5" y="459.8125"/><text fill="#1F2937" font-family="sans-serif" font-size="12" lengthAdjust="spacing" textLength="155" x="1086.5" y="482.2695">Admin masuk ke dashboard</text><rect fill="#F8FBFF" height="35.0938" rx="12.5" ry="12.5" style="stroke:#2F4F8F;stroke-width:0.5;" width="206" x="1061" y="521.9063"/><text fill="#1F2937" font-family="sans-serif" font-size="12" lengthAdjust="spacing" textLength="186" x="1071" y="544.3633">Admin memilih menu Kelola User</text><rect fill="none" height="139.7969" style="stroke:#000000;stroke-width:1.5;" width="215" x="1056.5" y="612"/><path d="M1108.5,612 L1108.5,622.6094 L1098.5,632.6094 L1056.5,632.6094 " fill="none" style="stroke:#000000;stroke-width:1.5;"/><text fill="#000000" font-family="sans-serif" font-size="14" lengthAdjust="spacing" textLength="42" x="1059.5" y="627.5332">Sistem</text><rect fill="#F8FBFF" height="35.0938" rx="12.5" ry="12.5" style="stroke:#2F4F8F;stroke-width:0.5;" width="149" x="1089.5" y="649.6094"/><text fill="#1F2937" font-family="sans-serif" font-size="12" lengthAdjust="spacing" textLength="129" x="1099.5" y="672.0664">Menampilkan data user</text><rect fill="#F8FBFF" height="35.0938" rx="12.5" ry="12.5" style="stroke:#2F4F8F;stroke-width:0.5;" width="195" x="1066.5" y="704.7031"/><text fill="#1F2937" font-family="sans-serif" font-size="12" lengthAdjust="spacing" textLength="175" x="1076.5" y="727.1602">Menampilkan form tambah user</text><rect fill="none" height="84.7031" style="stroke:#000000;stroke-width:1.5;" width="174" x="1077" y="761.7969"/><path d="M1126,761.7969 L1126,772.4063 L1116,782.4063 L1077,782.4063 " fill="none" style="stroke:#000000;stroke-width:1.5;"/><text fill="#000000" font-family="sans-serif" font-size="14" lengthAdjust="spacing" textLength="39" x="1080" y="777.3301">Admin</text><rect fill="#F8FBFF" height="35.0938" rx="12.5" ry="12.5" style="stroke:#2F4F8F;stroke-width:0.5;" width="154" x="1087" y="799.4063"/><text fill="#1F2937" font-family="sans-serif" font-size="12" lengthAdjust="spacing" textLength="134" x="1097" y="821.8633">Admin melihat data user</text><polygon fill="#F8FBFF" points="1095.5,866.5,1232.5,866.5,1244.5,878.5,1232.5,890.5,1095.5,890.5,1083.5,878.5,1095.5,866.5" style="stroke:#2F4F8F;stroke-width:0.5;"/><text fill="#1F2937" font-family="sans-serif" font-size="11" lengthAdjust="spacing" textLength="137" x="1095.5" y="883.001">Admin ingin mengelola user?</text><text fill="#000000" font-family="sans-serif" font-size="11" lengthAdjust="spacing" textLength="14" x="1069.5" y="876.083">Ya</text><text fill="#000000" font-family="sans-serif" font-size="11" lengthAdjust="spacing" textLength="25" x="1244.5" y="876.083">Tidak</text><rect fill="none" height="84.7031" style="stroke:#000000;stroke-width:1.5;" width="177" x="628" y="900.5"/><path d="M677,900.5 L677,911.1094 L667,921.1094 L628,921.1094 " fill="none" style="stroke:#000000;stroke-width:1.5;"/><text fill="#000000" font-family="sans-serif" font-size="14" lengthAdjust="spacing" textLength="39" x="631" y="916.0332">Admin</text><rect fill="#F8FBFF" height="35.0938" rx="12.5" ry="12.5" style="stroke:#2F4F8F;stroke-width:0.5;" width="157" x="638" y="938.1094"/><text fill="#1F2937" font-family="sans-serif" font-size="12" lengthAdjust="spacing" textLength="137" x="648" y="960.5664">Admin memilih aksi user</text><polygon fill="#F8FBFF" points="247.5,1005.2031,330.5,1005.2031,342.5,1017.2031,330.5,1029.2031,247.5,1029.2031,235.5,1017.2031,247.5,1005.2031" style="stroke:#2F4F8F;stroke-width:0.5;"/><text fill="#000000" font-family="sans-serif" font-size="11" lengthAdjust="spacing" textLength="64" x="293" y="1040.6221">Tambah / Edit</text><text fill="#1F2937" font-family="sans-serif" font-size="11" lengthAdjust="spacing" textLength="83" x="247.5" y="1021.7041">Aksi yang dipilih?</text><rect fill="none" height="433.1719" style="stroke:#000000;stroke-width:1.5;" width="264" x="157" y="1063.0391"/><path d="M206,1063.0391 L206,1073.6484 L196,1083.6484 L157,1083.6484 " fill="none" style="stroke:#000000;stroke-width:1.5;"/><text fill="#000000" font-family="sans-serif" font-size="14" lengthAdjust="spacing" textLength="39" x="160" y="1078.5723">Admin</text><rect fill="#F8FBFF" height="35.0938" rx="12.5" ry="12.5" style="stroke:#2F4F8F;stroke-width:0.5;" width="137" x="220.5" y="1100.6484"/><text fill="#1F2937" font-family="sans-serif" font-size="12" lengthAdjust="spacing" textLength="117" x="230.5" y="1123.1055">Admin mengisi email</text><rect fill="#F8FBFF" height="35.0938" rx="12.5" ry="12.5" style="stroke:#2F4F8F;stroke-width:0.5;" width="244" x="167" y="1169.5781"/><text fill="#1F2937" font-family="sans-serif" font-size="12" lengthAdjust="spacing" textLength="224" x="177" y="1192.0352">Admin mengisi password jika diperlukan</text><rect fill="#F8FBFF" height="35.0938" rx="12.5" ry="12.5" style="stroke:#2F4F8F;stroke-width:0.5;" width="155" x="211.5" y="1230.8359"/><text fill="#1F2937" font-family="sans-serif" font-size="12" lengthAdjust="spacing" textLength="135" x="221.5" y="1253.293">Admin memilih role user</text><rect fill="#F8FBFF" height="35.0938" rx="12.5" ry="12.5" style="stroke:#2F4F8F;stroke-width:0.5;" width="221" x="178.5" y="1300.9297"/><text fill="#1F2937" font-family="sans-serif" font-size="12" lengthAdjust="spacing" textLength="201" x="188.5" y="1323.3867">Admin mengisi nama jika diperlukan</text><rect fill="#F8FBFF" height="35.0938" rx="12.5" ry="12.5" style="stroke:#2F4F8F;stroke-width:0.5;" width="218" x="180" y="1371.0234"/><text fill="#1F2937" font-family="sans-serif" font-size="12" lengthAdjust="spacing" textLength="198" x="190" y="1393.4805">Admin mengisi kelas jika role siswa</text><rect fill="#F8FBFF" height="35.0938" rx="12.5" ry="12.5" style="stroke:#2F4F8F;stroke-width:0.5;" width="212" x="183" y="1441.1172"/><text fill="#1F2937" font-family="sans-serif" font-size="12" lengthAdjust="spacing" textLength="192" x="193" y="1463.5742">Admin klik tombol Simpan / Proses</text><rect fill="none" height="92.7031" style="stroke:#000000;stroke-width:1.5;" width="156" x="211" y="1531.2109"/><path d="M263,1531.2109 L263,1541.8203 L253,1551.8203 L211,1551.8203 " fill="none" style="stroke:#000000;stroke-width:1.5;"/><text fill="#000000" font-family="sans-serif" font-size="14" lengthAdjust="spacing" textLength="42" x="214" y="1546.7441">Sistem</text><rect fill="#F8FBFF" height="35.0938" rx="12.5" ry="12.5" style="stroke:#2F4F8F;stroke-width:0.5;" width="136" x="221" y="1568.8203"/><text fill="#1F2937" font-family="sans-serif" font-size="12" lengthAdjust="spacing" textLength="116" x="231" y="1591.2773">Memeriksa data user</text><polygon fill="#F8FBFF" points="250,1658.9141,328,1658.9141,340,1670.9141,328,1682.9141,250,1682.9141,238,1670.9141,250,1658.9141" style="stroke:#2F4F8F;stroke-width:0.5;"/><text fill="#1F2937" font-family="sans-serif" font-size="11" lengthAdjust="spacing" textLength="78" x="250" y="1675.415">Data user valid?</text><text fill="#000000" font-family="sans-serif" font-size="11" lengthAdjust="spacing" textLength="14" x="224" y="1668.4971">Ya</text><text fill="#000000" font-family="sans-serif" font-size="11" lengthAdjust="spacing" textLength="25" x="340" y="1668.4971">Tidak</text><rect fill="none" height="201.8906" style="stroke:#000000;stroke-width:1.5;" width="268" x="11" y="1692.9141"/><path d="M63,1692.9141 L63,1703.5234 L53,1713.5234 L11,1713.5234 " fill="none" style="stroke:#000000;stroke-width:1.5;"/><text fill="#000000" font-family="sans-serif" font-size="14" lengthAdjust="spacing" textLength="42" x="14" y="1708.4473">Sistem</text><rect fill="#F8FBFF" height="35.0938" rx="12.5" ry="12.5" style="stroke:#2F4F8F;stroke-width:0.5;" width="201" x="44.5" y="1730.5234"/><text fill="#1F2937" font-family="sans-serif" font-size="12" lengthAdjust="spacing" textLength="181" x="54.5" y="1752.9805">Menyimpan perubahan data user</text><rect fill="#F8FBFF" height="35.0938" rx="12.5" ry="12.5" style="stroke:#2F4F8F;stroke-width:0.5;" width="180" x="55" y="1785.6172"/><text fill="#1F2937" font-family="sans-serif" font-size="12" lengthAdjust="spacing" textLength="160" x="65" y="1808.0742">Menampilkan pesan berhasil</text><rect fill="#F8FBFF" height="35.0938" rx="12.5" ry="12.5" style="stroke:#2F4F8F;stroke-width:0.5;" width="248" x="21" y="1847.7109"/><text fill="#1F2937" font-family="sans-serif" font-size="12" lengthAdjust="spacing" textLength="228" x="31" y="1870.168">Menampilkan kembali data user dan form</text><rect fill="none" height="139.7969" style="stroke:#000000;stroke-width:1.5;" width="268" x="299" y="1692.9141"/><path d="M351,1692.9141 L351,1703.5234 L341,1713.5234 L299,1713.5234 " fill="none" style="stroke:#000000;stroke-width:1.5;"/><text fill="#000000" font-family="sans-serif" font-size="14" lengthAdjust="spacing" textLength="42" x="302" y="1708.4473">Sistem</text><rect fill="#F8FBFF" height="35.0938" rx="12.5" ry="12.5" style="stroke:#2F4F8F;stroke-width:0.5;" width="161" x="352.5" y="1730.5234"/><text fill="#1F2937" font-family="sans-serif" font-size="12" lengthAdjust="spacing" textLength="141" x="362.5" y="1752.9805">Menampilkan pesan error</text><rect fill="#F8FBFF" height="35.0938" rx="12.5" ry="12.5" style="stroke:#2F4F8F;stroke-width:0.5;" width="248" x="309" y="1785.6172"/><text fill="#1F2937" font-family="sans-serif" font-size="12" lengthAdjust="spacing" textLength="228" x="319" y="1808.0742">Menampilkan kembali data user dan form</text><polygon fill="#F8FBFF" points="289,1900.8047,301,1912.8047,289,1924.8047,277,1912.8047,289,1900.8047" style="stroke:#2F4F8F;stroke-width:0.5;"/><polygon fill="#F8FBFF" points="826.5,1005.2031,883.5,1005.2031,895.5,1017.2031,883.5,1029.2031,826.5,1029.2031,814.5,1017.2031,826.5,1005.2031" style="stroke:#2F4F8F;stroke-width:0.5;"/><text fill="#1F2937" font-family="sans-serif" font-size="11" lengthAdjust="spacing" textLength="57" x="826.5" y="1021.7041">Hapus User</text><text fill="#000000" font-family="sans-serif" font-size="11" lengthAdjust="spacing" textLength="82" x="895.5" y="1014.7861">Buka Kunci Akun</text><rect fill="none" height="161.6328" style="stroke:#000000;stroke-width:1.5;" width="258" x="726" y="1049.2031"/><path d="M775,1049.2031 L775,1059.8125 L765,1069.8125 L726,1069.8125 " fill="none" style="stroke:#000000;stroke-width:1.5;"/><text fill="#000000" font-family="sans-serif" font-size="14" lengthAdjust="spacing" textLength="39" x="729" y="1064.7363">Admin</text><rect fill="#F8FBFF" height="35.0938" rx="12.5" ry="12.5" style="stroke:#2F4F8F;stroke-width:0.5;" width="238" x="736" y="1086.8125"/><text fill="#1F2937" font-family="sans-serif" font-size="12" lengthAdjust="spacing" textLength="218" x="746" y="1109.2695">Admin memilih user yang akan dihapus</text><rect fill="#F8FBFF" height="35.0938" rx="12.5" ry="12.5" style="stroke:#2F4F8F;stroke-width:0.5;" width="218" x="746" y="1155.7422"/><text fill="#1F2937" font-family="sans-serif" font-size="12" lengthAdjust="spacing" textLength="198" x="756" y="1178.1992">Admin melakukan konfirmasi hapus</text><rect fill="none" height="92.7031" style="stroke:#000000;stroke-width:1.5;" width="233" x="738.5" y="1237"/><path d="M790.5,1237 L790.5,1247.6094 L780.5,1257.6094 L738.5,1257.6094 " fill="none" style="stroke:#000000;stroke-width:1.5;"/><text fill="#000000" font-family="sans-serif" font-size="14" lengthAdjust="spacing" textLength="42" x="741.5" y="1252.5332">Sistem</text><rect fill="#F8FBFF" height="35.0938" rx="12.5" ry="12.5" style="stroke:#2F4F8F;stroke-width:0.5;" width="213" x="748.5" y="1274.6094"/><text fill="#1F2937" font-family="sans-serif" font-size="12" lengthAdjust="spacing" textLength="193" x="758.5" y="1297.0664">Memeriksa data user dan relasinya</text><polygon fill="#F8FBFF" points="805,1364.7031,905,1364.7031,917,1376.7031,905,1388.7031,805,1388.7031,793,1376.7031,805,1364.7031" style="stroke:#2F4F8F;stroke-width:0.5;"/><text fill="#1F2937" font-family="sans-serif" font-size="11" lengthAdjust="spacing" textLength="100" x="805" y="1381.2041">User dapat dihapus?</text><text fill="#000000" font-family="sans-serif" font-size="11" lengthAdjust="spacing" textLength="14" x="779" y="1374.2861">Ya</text><text fill="#000000" font-family="sans-serif" font-size="11" lengthAdjust="spacing" textLength="25" x="917" y="1374.2861">Tidak</text><rect fill="none" height="232.8906" style="stroke:#000000;stroke-width:1.5;" width="268" x="577" y="1398.7031"/><path d="M629,1398.7031 L629,1409.3125 L619,1419.3125 L577,1419.3125 " fill="none" style="stroke:#000000;stroke-width:1.5;"/><text fill="#000000" font-family="sans-serif" font-size="14" lengthAdjust="spacing" textLength="42" x="580" y="1414.2363">Sistem</text><rect fill="#F8FBFF" height="35.0938" rx="12.5" ry="12.5" style="stroke:#2F4F8F;stroke-width:0.5;" width="140" x="641" y="1436.3125"/><text fill="#1F2937" font-family="sans-serif" font-size="12" lengthAdjust="spacing" textLength="120" x="651" y="1458.7695">Menghapus data user</text><rect fill="#F8FBFF" height="35.0938" rx="12.5" ry="12.5" style="stroke:#2F4F8F;stroke-width:0.5;" width="180" x="621" y="1506.4063"/><text fill="#1F2937" font-family="sans-serif" font-size="12" lengthAdjust="spacing" textLength="160" x="631" y="1528.8633">Menampilkan pesan berhasil</text><rect fill="#F8FBFF" height="35.0938" rx="12.5" ry="12.5" style="stroke:#2F4F8F;stroke-width:0.5;" width="248" x="587" y="1576.5"/><text fill="#1F2937" font-family="sans-serif" font-size="12" lengthAdjust="spacing" textLength="228" x="597" y="1598.957">Menampilkan kembali data user dan form</text><rect fill="none" height="162.7969" style="stroke:#000000;stroke-width:1.5;" width="268" x="865" y="1398.7031"/><path d="M917,1398.7031 L917,1409.3125 L907,1419.3125 L865,1419.3125 " fill="none" style="stroke:#000000;stroke-width:1.5;"/><text fill="#000000" font-family="sans-serif" font-size="14" lengthAdjust="spacing" textLength="42" x="868" y="1414.2363">Sistem</text><rect fill="#F8FBFF" height="35.0938" rx="12.5" ry="12.5" style="stroke:#2F4F8F;stroke-width:0.5;" width="161" x="918.5" y="1436.3125"/><text fill="#1F2937" font-family="sans-serif" font-size="12" lengthAdjust="spacing" textLength="141" x="928.5" y="1458.7695">Menampilkan pesan error</text><rect fill="#F8FBFF" height="35.0938" rx="12.5" ry="12.5" style="stroke:#2F4F8F;stroke-width:0.5;" width="248" x="875" y="1506.4063"/><text fill="#1F2937" font-family="sans-serif" font-size="12" lengthAdjust="spacing" textLength="228" x="885" y="1528.8633">Menampilkan kembali data user dan form</text><polygon fill="#F8FBFF" points="855,1637.5938,867,1649.5938,855,1661.5938,843,1649.5938,855,1637.5938" style="stroke:#2F4F8F;stroke-width:0.5;"/><rect fill="none" height="162.7969" style="stroke:#000000;stroke-width:1.5;" width="226" x="1199.5" y="1285.1602"/><path d="M1248.5,1285.1602 L1248.5,1295.7695 L1238.5,1305.7695 L1199.5,1305.7695 " fill="none" style="stroke:#000000;stroke-width:1.5;"/><text fill="#000000" font-family="sans-serif" font-size="14" lengthAdjust="spacing" textLength="39" x="1202.5" y="1300.6934">Admin</text><rect fill="#F8FBFF" height="35.0938" rx="12.5" ry="12.5" style="stroke:#2F4F8F;stroke-width:0.5;" width="206" x="1209.5" y="1322.7695"/><text fill="#1F2937" font-family="sans-serif" font-size="12" lengthAdjust="spacing" textLength="186" x="1219.5" y="1345.2266">Admin memilih user yang terkunci</text><rect fill="#F8FBFF" height="35.0938" rx="12.5" ry="12.5" style="stroke:#2F4F8F;stroke-width:0.5;" width="179" x="1223" y="1392.8633"/><text fill="#1F2937" font-family="sans-serif" font-size="12" lengthAdjust="spacing" textLength="159" x="1233" y="1415.3203">Admin klik tombol buka kunci</text><rect fill="none" height="232.8906" style="stroke:#000000;stroke-width:1.5;" width="299" x="1163" y="1482.957"/><path d="M1215,1482.957 L1215,1493.5664 L1205,1503.5664 L1163,1503.5664 " fill="none" style="stroke:#000000;stroke-width:1.5;"/><text fill="#000000" font-family="sans-serif" font-size="14" lengthAdjust="spacing" textLength="42" x="1166" y="1498.4902">Sistem</text><rect fill="#F8FBFF" height="35.0938" rx="12.5" ry="12.5" style="stroke:#2F4F8F;stroke-width:0.5;" width="279" x="1173" y="1520.5664"/><text fill="#1F2937" font-family="sans-serif" font-size="12" lengthAdjust="spacing" textLength="259" x="1183" y="1543.0234">Mereset status kunci akun dan percobaan login</text><rect fill="#F8FBFF" height="35.0938" rx="12.5" ry="12.5" style="stroke:#2F4F8F;stroke-width:0.5;" width="180" x="1222.5" y="1590.6602"/><text fill="#1F2937" font-family="sans-serif" font-size="12" lengthAdjust="spacing" textLength="160" x="1232.5" y="1613.1172">Menampilkan pesan berhasil</text><rect fill="#F8FBFF" height="35.0938" rx="12.5" ry="12.5" style="stroke:#2F4F8F;stroke-width:0.5;" width="248" x="1188.5" y="1660.7539"/><text fill="#1F2937" font-family="sans-serif" font-size="12" lengthAdjust="spacing" textLength="228" x="1198.5" y="1683.2109">Menampilkan kembali data user dan form</text><rect fill="none" height="84.7031" style="stroke:#000000;stroke-width:1.5;" width="259" x="1482" y="900.5"/><path d="M1531,900.5 L1531,911.1094 L1521,921.1094 L1482,921.1094 " fill="none" style="stroke:#000000;stroke-width:1.5;"/><text fill="#000000" font-family="sans-serif" font-size="14" lengthAdjust="spacing" textLength="39" x="1485" y="916.0332">Admin</text><rect fill="#F8FBFF" height="35.0938" rx="12.5" ry="12.5" style="stroke:#2F4F8F;stroke-width:0.5;" width="239" x="1492" y="938.1094"/><text fill="#1F2937" font-family="sans-serif" font-size="12" lengthAdjust="spacing" textLength="219" x="1502" y="960.5664">Admin tidak melakukan perubahan user</text><polygon fill="#F8FBFF" points="1164,1950.8047,1176,1962.8047,1164,1974.8047,1152,1962.8047,1164,1950.8047" style="stroke:#2F4F8F;stroke-width:0.5;"/><rect fill="none" height="84.7031" style="stroke:#000000;stroke-width:1.5;" width="216" x="1753" y="422.2031"/><path d="M1805,422.2031 L1805,432.8125 L1795,442.8125 L1753,442.8125 " fill="none" style="stroke:#000000;stroke-width:1.5;"/><text fill="#000000" font-family="sans-serif" font-size="14" lengthAdjust="spacing" textLength="42" x="1756" y="437.7363">Sistem</text><rect fill="#F8FBFF" height="35.0938" rx="12.5" ry="12.5" style="stroke:#2F4F8F;stroke-width:0.5;" width="196" x="1763" y="459.8125"/><text fill="#1F2937" font-family="sans-serif" font-size="12" lengthAdjust="spacing" textLength="176" x="1773" y="482.2695">Menampilkan pesan login gagal</text><rect fill="none" height="92.7031" style="stroke:#000000;stroke-width:1.5;" width="220" x="1751" y="541.9063"/><path d="M1800,541.9063 L1800,552.5156 L1790,562.5156 L1751,562.5156 " fill="none" style="stroke:#000000;stroke-width:1.5;"/><text fill="#000000" font-family="sans-serif" font-size="14" lengthAdjust="spacing" textLength="39" x="1754" y="557.4395">Admin</text><rect fill="#F8FBFF" height="35.0938" rx="12.5" ry="12.5" style="stroke:#2F4F8F;stroke-width:0.5;" width="200" x="1761" y="579.5156"/><text fill="#1F2937" font-family="sans-serif" font-size="12" lengthAdjust="spacing" textLength="180" x="1771" y="601.9727">Admin kembali ke halaman login</text><polygon fill="#F8FBFF" points="1522.5,1980.8047,1534.5,1992.8047,1522.5,2004.8047,1510.5,1992.8047,1522.5,1980.8047" style="stroke:#2F4F8F;stroke-width:0.5;"/><ellipse cx="1522.5" cy="2035.8047" fill="none" rx="11" ry="11" style="stroke:#222222;stroke-width:1.0;"/><ellipse cx="1522.5" cy="2035.8047" fill="#222222" rx="6" ry="6" style="stroke:#222222;stroke-width:1.0;"/><line style="stroke:#181818;stroke-width:1.0;" x1="1522.5" x2="1522.5" y1="151.3125" y2="171.3125"/><polygon fill="#181818" points="1518.5,161.3125,1522.5,171.3125,1526.5,161.3125,1522.5,165.3125" style="stroke:#181818;stroke-width:1.0;"/><line style="stroke:#181818;stroke-width:1.0;" x1="1522.5" x2="1522.5" y1="206.4063" y2="226.4063"/><polygon fill="#181818" points="1518.5,216.4063,1522.5,226.4063,1526.5,216.4063,1522.5,220.4063" style="stroke:#181818;stroke-width:1.0;"/><line style="stroke:#181818;stroke-width:1.0;" x1="1522.5" x2="1522.5" y1="68.6094" y2="116.2188"/><polygon fill="#181818" points="1518.5,106.2188,1522.5,116.2188,1526.5,106.2188,1522.5,110.2188" style="stroke:#181818;stroke-width:1.0;"/><line style="stroke:#181818;stroke-width:1.0;" x1="1522.5" x2="1522.5" y1="261.5" y2="321.1094"/><polygon fill="#181818" points="1518.5,311.1094,1522.5,321.1094,1526.5,311.1094,1522.5,315.1094" style="stroke:#181818;stroke-width:1.0;"/><line style="stroke:#181818;stroke-width:1.0;" x1="1164" x2="1164" y1="494.9063" y2="521.9063"/><polygon fill="#181818" points="1160,511.9063,1164,521.9063,1168,511.9063,1164,515.9063" style="stroke:#181818;stroke-width:1.0;"/><line style="stroke:#181818;stroke-width:1.0;" x1="1164" x2="1164" y1="684.7031" y2="704.7031"/><polygon fill="#181818" points="1160,694.7031,1164,704.7031,1168,694.7031,1164,698.7031" style="stroke:#181818;stroke-width:1.0;"/><line style="stroke:#181818;stroke-width:1.0;" x1="1164" x2="1164" y1="557" y2="649.6094"/><polygon fill="#181818" points="1160,639.6094,1164,649.6094,1168,639.6094,1164,643.6094" style="stroke:#181818;stroke-width:1.0;"/><line style="stroke:#181818;stroke-width:1.0;" x1="1164" x2="1164" y1="739.7969" y2="799.4063"/><polygon fill="#181818" points="1160,789.4063,1164,799.4063,1168,789.4063,1164,793.4063" style="stroke:#181818;stroke-width:1.0;"/><line style="stroke:#181818;stroke-width:1.0;" x1="289" x2="289" y1="1135.7422" y2="1169.5781"/><polygon fill="#181818" points="285,1159.5781,289,1169.5781,293,1159.5781,289,1163.5781" style="stroke:#181818;stroke-width:1.0;"/><line style="stroke:#181818;stroke-width:1.0;" x1="289" x2="289" y1="1204.6719" y2="1230.8359"/><polygon fill="#181818" points="285,1220.8359,289,1230.8359,293,1220.8359,289,1224.8359" style="stroke:#181818;stroke-width:1.0;"/><line style="stroke:#181818;stroke-width:1.0;" x1="289" x2="289" y1="1265.9297" y2="1300.9297"/><polygon fill="#181818" points="285,1290.9297,289,1300.9297,293,1290.9297,289,1294.9297" style="stroke:#181818;stroke-width:1.0;"/><line style="stroke:#181818;stroke-width:1.0;" x1="289" x2="289" y1="1336.0234" y2="1371.0234"/><polygon fill="#181818" points="285,1361.0234,289,1371.0234,293,1361.0234,289,1365.0234" style="stroke:#181818;stroke-width:1.0;"/><line style="stroke:#181818;stroke-width:1.0;" x1="289" x2="289" y1="1406.1172" y2="1441.1172"/><polygon fill="#181818" points="285,1431.1172,289,1441.1172,293,1431.1172,289,1435.1172" style="stroke:#181818;stroke-width:1.0;"/><line style="stroke:#181818;stroke-width:1.0;" x1="289" x2="289" y1="1476.2109" y2="1568.8203"/><polygon fill="#181818" points="285,1558.8203,289,1568.8203,293,1558.8203,289,1562.8203" style="stroke:#181818;stroke-width:1.0;"/><line style="stroke:#181818;stroke-width:1.0;" x1="145" x2="145" y1="1765.6172" y2="1785.6172"/><polygon fill="#181818" points="141,1775.6172,145,1785.6172,149,1775.6172,145,1779.6172" style="stroke:#181818;stroke-width:1.0;"/><line style="stroke:#181818;stroke-width:1.0;" x1="145" x2="145" y1="1820.7109" y2="1847.7109"/><polygon fill="#181818" points="141,1837.7109,145,1847.7109,149,1837.7109,145,1841.7109" style="stroke:#181818;stroke-width:1.0;"/><line style="stroke:#181818;stroke-width:1.0;" x1="433" x2="433" y1="1765.6172" y2="1785.6172"/><polygon fill="#181818" points="429,1775.6172,433,1785.6172,437,1775.6172,433,1779.6172" style="stroke:#181818;stroke-width:1.0;"/><line style="stroke:#181818;stroke-width:1.0;" x1="238" x2="145" y1="1670.9141" y2="1670.9141"/><line style="stroke:#181818;stroke-width:1.0;" x1="145" x2="145" y1="1670.9141" y2="1730.5234"/><polygon fill="#181818" points="141,1720.5234,145,1730.5234,149,1720.5234,145,1724.5234" style="stroke:#181818;stroke-width:1.0;"/><line style="stroke:#181818;stroke-width:1.0;" x1="340" x2="433" y1="1670.9141" y2="1670.9141"/><line style="stroke:#181818;stroke-width:1.0;" x1="433" x2="433" y1="1670.9141" y2="1730.5234"/><polygon fill="#181818" points="429,1720.5234,433,1730.5234,437,1720.5234,433,1724.5234" style="stroke:#181818;stroke-width:1.0;"/><line style="stroke:#181818;stroke-width:1.0;" x1="145" x2="145" y1="1882.8047" y2="1912.8047"/><line style="stroke:#181818;stroke-width:1.0;" x1="145" x2="277" y1="1912.8047" y2="1912.8047"/><polygon fill="#181818" points="267,1908.8047,277,1912.8047,267,1916.8047,271,1912.8047" style="stroke:#181818;stroke-width:1.0;"/><line style="stroke:#181818;stroke-width:1.0;" x1="433" x2="433" y1="1820.7109" y2="1912.8047"/><line style="stroke:#181818;stroke-width:1.0;" x1="433" x2="301" y1="1912.8047" y2="1912.8047"/><polygon fill="#181818" points="311,1908.8047,301,1912.8047,311,1916.8047,307,1912.8047" style="stroke:#181818;stroke-width:1.0;"/><line style="stroke:#181818;stroke-width:1.0;" x1="289" x2="289" y1="1603.9141" y2="1658.9141"/><polygon fill="#181818" points="285,1648.9141,289,1658.9141,293,1648.9141,289,1652.9141" style="stroke:#181818;stroke-width:1.0;"/><line style="stroke:#181818;stroke-width:1.0;" x1="855" x2="855" y1="1121.9063" y2="1155.7422"/><polygon fill="#181818" points="851,1145.7422,855,1155.7422,859,1145.7422,855,1149.7422" style="stroke:#181818;stroke-width:1.0;"/><line style="stroke:#181818;stroke-width:1.0;" x1="855" x2="855" y1="1190.8359" y2="1274.6094"/><polygon fill="#181818" points="851,1264.6094,855,1274.6094,859,1264.6094,855,1268.6094" style="stroke:#181818;stroke-width:1.0;"/><line style="stroke:#181818;stroke-width:1.0;" x1="711" x2="711" y1="1471.4063" y2="1506.4063"/><polygon fill="#181818" points="707,1496.4063,711,1506.4063,715,1496.4063,711,1500.4063" style="stroke:#181818;stroke-width:1.0;"/><line style="stroke:#181818;stroke-width:1.0;" x1="711" x2="711" y1="1541.5" y2="1576.5"/><polygon fill="#181818" points="707,1566.5,711,1576.5,715,1566.5,711,1570.5" style="stroke:#181818;stroke-width:1.0;"/><line style="stroke:#181818;stroke-width:1.0;" x1="999" x2="999" y1="1471.4063" y2="1506.4063"/><polygon fill="#181818" points="995,1496.4063,999,1506.4063,1003,1496.4063,999,1500.4063" style="stroke:#181818;stroke-width:1.0;"/><line style="stroke:#181818;stroke-width:1.0;" x1="793" x2="711" y1="1376.7031" y2="1376.7031"/><line style="stroke:#181818;stroke-width:1.0;" x1="711" x2="711" y1="1376.7031" y2="1436.3125"/><polygon fill="#181818" points="707,1426.3125,711,1436.3125,715,1426.3125,711,1430.3125" style="stroke:#181818;stroke-width:1.0;"/><line style="stroke:#181818;stroke-width:1.0;" x1="917" x2="999" y1="1376.7031" y2="1376.7031"/><line style="stroke:#181818;stroke-width:1.0;" x1="999" x2="999" y1="1376.7031" y2="1436.3125"/><polygon fill="#181818" points="995,1426.3125,999,1436.3125,1003,1426.3125,999,1430.3125" style="stroke:#181818;stroke-width:1.0;"/><line style="stroke:#181818;stroke-width:1.0;" x1="711" x2="711" y1="1611.5938" y2="1649.5938"/><line style="stroke:#181818;stroke-width:1.0;" x1="711" x2="843" y1="1649.5938" y2="1649.5938"/><polygon fill="#181818" points="833,1645.5938,843,1649.5938,833,1653.5938,837,1649.5938" style="stroke:#181818;stroke-width:1.0;"/><line style="stroke:#181818;stroke-width:1.0;" x1="999" x2="999" y1="1541.5" y2="1649.5938"/><line style="stroke:#181818;stroke-width:1.0;" x1="999" x2="867" y1="1649.5938" y2="1649.5938"/><polygon fill="#181818" points="877,1645.5938,867,1649.5938,877,1653.5938,873,1649.5938" style="stroke:#181818;stroke-width:1.0;"/><line style="stroke:#181818;stroke-width:1.0;" x1="855" x2="855" y1="1309.7031" y2="1364.7031"/><polygon fill="#181818" points="851,1354.7031,855,1364.7031,859,1354.7031,855,1358.7031" style="stroke:#181818;stroke-width:1.0;"/><line style="stroke:#181818;stroke-width:1.0;" x1="1312.5" x2="1312.5" y1="1357.8633" y2="1392.8633"/><polygon fill="#181818" points="1308.5,1382.8633,1312.5,1392.8633,1316.5,1382.8633,1312.5,1386.8633" style="stroke:#181818;stroke-width:1.0;"/><line style="stroke:#181818;stroke-width:1.0;" x1="1312.5" x2="1312.5" y1="1555.6602" y2="1590.6602"/><polygon fill="#181818" points="1308.5,1580.6602,1312.5,1590.6602,1316.5,1580.6602,1312.5,1584.6602" style="stroke:#181818;stroke-width:1.0;"/><line style="stroke:#181818;stroke-width:1.0;" x1="1312.5" x2="1312.5" y1="1625.7539" y2="1660.7539"/><polygon fill="#181818" points="1308.5,1650.7539,1312.5,1660.7539,1316.5,1650.7539,1312.5,1654.7539" style="stroke:#181818;stroke-width:1.0;"/><line style="stroke:#181818;stroke-width:1.0;" x1="1312.5" x2="1312.5" y1="1427.957" y2="1520.5664"/><polygon fill="#181818" points="1308.5,1510.5664,1312.5,1520.5664,1316.5,1510.5664,1312.5,1514.5664" style="stroke:#181818;stroke-width:1.0;"/><line style="stroke:#181818;stroke-width:1.0;" x1="289" x2="289" y1="1029.2031" y2="1100.6484"/><polygon fill="#181818" points="285,1090.6484,289,1100.6484,293,1090.6484,289,1094.6484" style="stroke:#181818;stroke-width:1.0;"/><line style="stroke:#181818;stroke-width:1.0;" x1="289" x2="289" y1="1924.8047" y2="1944.8047"/><polygon fill="#181818" points="285,1934.8047,289,1944.8047,293,1934.8047,289,1938.8047" style="stroke:#181818;stroke-width:1.0;"/><line style="stroke:#181818;stroke-width:1.0;" x1="855" x2="855" y1="1029.2031" y2="1086.8125"/><polygon fill="#181818" points="851,1076.8125,855,1086.8125,859,1076.8125,855,1080.8125" style="stroke:#181818;stroke-width:1.0;"/><line style="stroke:#181818;stroke-width:1.0;" x1="855" x2="855" y1="1661.5938" y2="1944.8047"/><polygon fill="#181818" points="851,1934.8047,855,1944.8047,859,1934.8047,855,1938.8047" style="stroke:#181818;stroke-width:1.0;"/><line style="stroke:#181818;stroke-width:1.0;" x1="342.5" x2="814.5" y1="1017.2031" y2="1017.2031"/><polygon fill="#181818" points="804.5,1013.2031,814.5,1017.2031,804.5,1021.2031,808.5,1017.2031" style="stroke:#181818;stroke-width:1.0;"/><line style="stroke:#181818;stroke-width:1.0;" x1="716.5" x2="716.5" y1="973.2031" y2="990.2031"/><line style="stroke:#181818;stroke-width:1.0;" x1="716.5" x2="289" y1="990.2031" y2="990.2031"/><line style="stroke:#181818;stroke-width:1.0;" x1="289" x2="289" y1="990.2031" y2="1005.2031"/><polygon fill="#181818" points="285,995.2031,289,1005.2031,293,995.2031,289,999.2031" style="stroke:#181818;stroke-width:1.0;"/><line style="stroke:#181818;stroke-width:1.0;" x1="895.5" x2="1312.5" y1="1017.2031" y2="1017.2031"/><line style="stroke:#181818;stroke-width:1.0;" x1="1312.5" x2="1312.5" y1="1017.2031" y2="1322.7695"/><polygon fill="#181818" points="1308.5,1312.7695,1312.5,1322.7695,1316.5,1312.7695,1312.5,1316.7695" style="stroke:#181818;stroke-width:1.0;"/><line style="stroke:#181818;stroke-width:1.0;" x1="1312.5" x2="1312.5" y1="1695.8477" y2="1944.8047"/><polygon fill="#181818" points="1308.5,1934.8047,1312.5,1944.8047,1316.5,1934.8047,1312.5,1938.8047" style="stroke:#181818;stroke-width:1.0;"/><line style="stroke:#181818;stroke-width:1.0;" x1="289" x2="1312.5" y1="1944.8047" y2="1944.8047"/><line style="stroke:#181818;stroke-width:1.0;" x1="1083.5" x2="716.5" y1="878.5" y2="878.5"/><line style="stroke:#181818;stroke-width:1.0;" x1="716.5" x2="716.5" y1="878.5" y2="938.1094"/><polygon fill="#181818" points="712.5,928.1094,716.5,938.1094,720.5,928.1094,716.5,932.1094" style="stroke:#181818;stroke-width:1.0;"/><line style="stroke:#181818;stroke-width:1.0;" x1="1244.5" x2="1611.5" y1="878.5" y2="878.5"/><line style="stroke:#181818;stroke-width:1.0;" x1="1611.5" x2="1611.5" y1="878.5" y2="938.1094"/><polygon fill="#181818" points="1607.5,928.1094,1611.5,938.1094,1615.5,928.1094,1611.5,932.1094" style="stroke:#181818;stroke-width:1.0;"/><line style="stroke:#181818;stroke-width:1.0;" x1="716.5" x2="716.5" y1="1944.8047" y2="1962.8047"/><line style="stroke:#181818;stroke-width:1.0;" x1="716.5" x2="1152" y1="1962.8047" y2="1962.8047"/><polygon fill="#181818" points="1142,1958.8047,1152,1962.8047,1142,1966.8047,1146,1962.8047" style="stroke:#181818;stroke-width:1.0;"/><line style="stroke:#181818;stroke-width:1.0;" x1="1611.5" x2="1611.5" y1="973.2031" y2="1962.8047"/><line style="stroke:#181818;stroke-width:1.0;" x1="1611.5" x2="1176" y1="1962.8047" y2="1962.8047"/><polygon fill="#181818" points="1186,1958.8047,1176,1962.8047,1186,1966.8047,1182,1962.8047" style="stroke:#181818;stroke-width:1.0;"/><line style="stroke:#181818;stroke-width:1.0;" x1="1164" x2="1164" y1="834.5" y2="866.5"/><polygon fill="#181818" points="1160,856.5,1164,866.5,1168,856.5,1164,860.5" style="stroke:#181818;stroke-width:1.0;"/><line style="stroke:#181818;stroke-width:1.0;" x1="1861" x2="1861" y1="494.9063" y2="579.5156"/><polygon fill="#181818" points="1857,569.5156,1861,579.5156,1865,569.5156,1861,573.5156" style="stroke:#181818;stroke-width:1.0;"/><line style="stroke:#181818;stroke-width:1.0;" x1="1482" x2="1164" y1="400.2031" y2="400.2031"/><line style="stroke:#181818;stroke-width:1.0;" x1="1164" x2="1164" y1="400.2031" y2="459.8125"/><polygon fill="#181818" points="1160,449.8125,1164,459.8125,1168,449.8125,1164,453.8125" style="stroke:#181818;stroke-width:1.0;"/><line style="stroke:#181818;stroke-width:1.0;" x1="1563" x2="1861" y1="400.2031" y2="400.2031"/><line style="stroke:#181818;stroke-width:1.0;" x1="1861" x2="1861" y1="400.2031" y2="459.8125"/><polygon fill="#181818" points="1857,449.8125,1861,459.8125,1865,449.8125,1861,453.8125" style="stroke:#181818;stroke-width:1.0;"/><line style="stroke:#181818;stroke-width:1.0;" x1="1164" x2="1164" y1="1974.8047" y2="1992.8047"/><line style="stroke:#181818;stroke-width:1.0;" x1="1164" x2="1510.5" y1="1992.8047" y2="1992.8047"/><polygon fill="#181818" points="1500.5,1988.8047,1510.5,1992.8047,1500.5,1996.8047,1504.5,1992.8047" style="stroke:#181818;stroke-width:1.0;"/><line style="stroke:#181818;stroke-width:1.0;" x1="1861" x2="1861" y1="614.6094" y2="1992.8047"/><line style="stroke:#181818;stroke-width:1.0;" x1="1861" x2="1534.5" y1="1992.8047" y2="1992.8047"/><polygon fill="#181818" points="1544.5,1988.8047,1534.5,1992.8047,1544.5,1996.8047,1540.5,1992.8047" style="stroke:#181818;stroke-width:1.0;"/><line style="stroke:#181818;stroke-width:1.0;" x1="1522.5" x2="1522.5" y1="356.2031" y2="388.2031"/><polygon fill="#181818" points="1518.5,378.2031,1522.5,388.2031,1526.5,378.2031,1522.5,382.2031" style="stroke:#181818;stroke-width:1.0;"/><line style="stroke:#181818;stroke-width:1.0;" x1="1522.5" x2="1522.5" y1="2004.8047" y2="2024.8047"/><polygon fill="#181818" points="1518.5,2014.8047,1522.5,2024.8047,1526.5,2014.8047,1522.5,2018.8047" style="stroke:#181818;stroke-width:1.0;"/><!--SRC=[xLPBRzim3BxxLn3TfJqCnRe1U_GmjEkC0Ts00LqFEpAnud2I9KEIMmH3_lieAKxis6dJntRQ9GaaFhwF-iZGarS2pgQURiWlu8Amj5Z1IpWhAj9mAPHH2DTEs2npadIDuHfR-zyPm3bEPMbDeujFHXaBB_9t-NcUXnjZ2s5NfoVv6xxWqznelpfxbP-yV_qsMt9iZzPd6OVtvCbeE8W03c86W0y9JYMgIICHvgYmGWtAbAHFjopGDLBo9VyY1GN_gj6vMyRIivIA97XJJOo2hodEiWVWYfmNrHh1Dr49Iz8XX_IOKWE6KD6HPd0Omy0DAYe-7e6V2ms7F_4eosA4NToww0Dsa89JkFd4O0kvJv0KpVbRDztdIORBGQe-YnKJZLLDAXGfScdM_eFxcR4LUAmcEE-OBVTd91Wi-kqygm2XQCcET1cjTPae1TD-3Tl0ToKTgHDAHri4bvjW4K2mMA0keQ0w-App_aYyZ-5pGRu3OHyOFIXCZdD4GPxUPzMA5NuHAvqX2QjOy_eEnyJK6kxaFjCTAVXvyG7XavCK2btoYfaSkLlSwTNjhYkgQfRICNotnWdNzrdkBEjGkHs5zdfnI7ehQdZcYzPof46t4-o5eksLHQB7XMnOBUCzjUspxgzQEFwS23j7DoQEWOFa4SZuDqdYX0jjEdHUzaw4Se8rJGNA9pBUGY-iDVRlGjS5pJPF6fY49_s2TUFYz7jASwRkYNZY5C0u5tbgSV0xkaAXR28hesTaUN8JZBWybxnZgMneGT8Bl5Virycb3fCtCNa-lPSntd-L_mkLm-5vs7Sk6pqbE9EDVawXUs5b2BpN48zxruZv8mLkXHCUUElpBAKOblkkqMbT4tPg9jZVxnwjhKSzJeTLvrLwsdheGkA3MsTkRFulHhUJLTfXolrtkrIPjAYMMA9wwFBMLeiNqf6Dc-EiG3flwZy0]--></g></svg>