<?xml version="1.0" encoding="us-ascii" standalone="no"?><svg xmlns="http://www.w3.org/2000/svg" xmlns:xlink="http://www.w3.org/1999/xlink" contentStyleType="text/css" height="1706px" preserveAspectRatio="none" style="width:1144px;height:1706px;background:#FFFFFF;" version="1.1" viewBox="0 0 1144 1706" width="1144px" zoomAndPan="magnify"><defs/><g><text fill="#000000" font-family="sans-serif" font-size="14" font-weight="bold" lengthAdjust="spacing" textLength="320" x="410.5" y="34.5332">Activity Diagram - Admin Mengelola Data Guru</text><ellipse cx="768.75" cy="58.6094" fill="#222222" rx="10" ry="10" style="stroke:#222222;stroke-width:1.0;"/><rect fill="none" height="194.8906" style="stroke:#000000;stroke-width:1.5;" width="270" x="633.75" y="78.6094"/><path d="M682.75,78.6094 L682.75,89.2188 L672.75,99.2188 L633.75,99.2188 " fill="none" style="stroke:#000000;stroke-width:1.5;"/><text fill="#000000" font-family="sans-serif" font-size="14" lengthAdjust="spacing" textLength="39" x="636.75" y="94.1426">Admin</text><rect fill="#F8FBFF" height="35.0938" rx="12.5" ry="12.5" style="stroke:#2F4F8F;stroke-width:0.5;" width="196" x="670.75" y="116.2188"/><text fill="#1F2937" font-family="sans-serif" font-size="12" lengthAdjust="spacing" textLength="176" x="680.75" y="138.6758">Admin membuka halaman login</text><rect fill="#F8FBFF" height="35.0938" rx="12.5" ry="12.5" style="stroke:#2F4F8F;stroke-width:0.5;" width="250" x="643.75" y="171.3125"/><text fill="#1F2937" font-family="sans-serif" font-size="12" lengthAdjust="spacing" textLength="230" x="653.75" y="193.7695">Admin memasukkan email dan password</text><rect fill="#F8FBFF" height="35.0938" rx="12.5" ry="12.5" style="stroke:#2F4F8F;stroke-width:0.5;" width="151" x="693.25" y="226.4063"/><text fill="#1F2937" font-family="sans-serif" font-size="12" lengthAdjust="spacing" textLength="131" x="703.25" y="248.8633">Admin klik tombol Login</text><rect fill="none" height="84.7031" style="stroke:#000000;stroke-width:1.5;" width="196" x="670.75" y="283.5"/><path d="M722.75,283.5 L722.75,294.1094 L712.75,304.1094 L670.75,304.1094 " fill="none" style="stroke:#000000;stroke-width:1.5;"/><text fill="#000000" font-family="sans-serif" font-size="14" lengthAdjust="spacing" textLength="42" x="673.75" y="299.0332">Sistem</text><rect fill="#F8FBFF" height="35.0938" rx="12.5" ry="12.5" style="stroke:#2F4F8F;stroke-width:0.5;" width="176" x="680.75" y="321.1094"/><text fill="#1F2937" font-family="sans-serif" font-size="12" lengthAdjust="spacing" textLength="156" x="690.75" y="343.5664">Memeriksa data login admin</text><polygon fill="#F8FBFF" points="740.25,388.2031,797.25,388.2031,809.25,400.2031,797.25,412.2031,740.25,412.2031,728.25,400.2031,740.25,388.2031" style="stroke:#2F4F8F;stroke-width:0.5;"/><text fill="#1F2937" font-family="sans-serif" font-size="11" lengthAdjust="spacing" textLength="57" x="740.25" y="404.7041">Login valid?</text><text fill="#000000" font-family="sans-serif" font-size="11" lengthAdjust="spacing" textLength="14" x="714.25" y="397.7861">Ya</text><text fill="#000000" font-family="sans-serif" font-size="11" lengthAdjust="spacing" textLength="25" x="809.25" y="397.7861">Tidak</text><rect fill="none" height="154.7969" style="stroke:#000000;stroke-width:1.5;" width="217" x="406" y="422.2031"/><path d="M455,422.2031 L455,432.8125 L445,442.8125 L406,442.8125 " fill="none" style="stroke:#000000;stroke-width:1.5;"/><text fill="#000000" font-family="sans-serif" font-size="14" lengthAdjust="spacing" textLength="39" x="409" y="437.7363">Admin</text><rect fill="#F8FBFF" height="35.0938" rx="12.5" ry="12.5" style="stroke:#2F4F8F;stroke-width:0.5;" width="175" x="427" y="459.8125"/><text fill="#1F2937" font-family="sans-serif" font-size="12" lengthAdjust="spacing" textLength="155" x="437" y="482.2695">Admin masuk ke dashboard</text><rect fill="#F8FBFF" height="35.0938" rx="12.5" ry="12.5" style="stroke:#2F4F8F;stroke-width:0.5;" width="197" x="416" y="521.9063"/><text fill="#1F2937" font-family="sans-serif" font-size="12" lengthAdjust="spacing" textLength="177" x="426" y="544.3633">Admin memilih menu Data Guru</text><rect fill="none" height="194.8906" style="stroke:#000000;stroke-width:1.5;" width="227" x="401" y="612"/><path d="M453,612 L453,622.6094 L443,632.6094 L401,632.6094 " fill="none" style="stroke:#000000;stroke-width:1.5;"/><text fill="#000000" font-family="sans-serif" font-size="14" lengthAdjust="spacing" textLength="42" x="404" y="627.5332">Sistem</text><rect fill="#F8FBFF" height="35.0938" rx="12.5" ry="12.5" style="stroke:#2F4F8F;stroke-width:0.5;" width="149" x="440" y="649.6094"/><text fill="#1F2937" font-family="sans-serif" font-size="12" lengthAdjust="spacing" textLength="129" x="450" y="672.0664">Menampilkan data guru</text><rect fill="#F8FBFF" height="35.0938" rx="12.5" ry="12.5" style="stroke:#2F4F8F;stroke-width:0.5;" width="207" x="411" y="704.7031"/><text fill="#1F2937" font-family="sans-serif" font-size="12" lengthAdjust="spacing" textLength="187" x="421" y="727.1602">Menampilkan ringkasan data guru</text><rect fill="#F8FBFF" height="35.0938" rx="12.5" ry="12.5" style="stroke:#2F4F8F;stroke-width:0.5;" width="200" x="414.5" y="759.7969"/><text fill="#1F2937" font-family="sans-serif" font-size="12" lengthAdjust="spacing" textLength="180" x="424.5" y="782.2539">Menampilkan form edit data guru</text><rect fill="none" height="84.7031" style="stroke:#000000;stroke-width:1.5;" width="174" x="427.5" y="816.8906"/><path d="M476.5,816.8906 L476.5,827.5 L466.5,837.5 L427.5,837.5 " fill="none" style="stroke:#000000;stroke-width:1.5;"/><text fill="#000000" font-family="sans-serif" font-size="14" lengthAdjust="spacing" textLength="39" x="430.5" y="832.4238">Admin</text><rect fill="#F8FBFF" height="35.0938" rx="12.5" ry="12.5" style="stroke:#2F4F8F;stroke-width:0.5;" width="154" x="437.5" y="854.5"/><text fill="#1F2937" font-family="sans-serif" font-size="12" lengthAdjust="spacing" textLength="134" x="447.5" y="876.957">Admin melihat data guru</text><polygon fill="#F8FBFF" points="433,921.5938,596,921.5938,608,933.5938,596,945.5938,433,945.5938,421,933.5938,433,921.5938" style="stroke:#2F4F8F;stroke-width:0.5;"/><text fill="#1F2937" font-family="sans-serif" font-size="11" lengthAdjust="spacing" textLength="163" x="433" y="938.0947">Admin ingin mengubah data guru?</text><text fill="#000000" font-family="sans-serif" font-size="11" lengthAdjust="spacing" textLength="14" x="407" y="931.1768">Ya</text><text fill="#000000" font-family="sans-serif" font-size="11" lengthAdjust="spacing" textLength="25" x="608" y="931.1768">Tidak</text><rect fill="none" height="256.9844" style="stroke:#000000;stroke-width:1.5;" width="247" x="165.5" y="955.5938"/><path d="M214.5,955.5938 L214.5,966.2031 L204.5,976.2031 L165.5,976.2031 " fill="none" style="stroke:#000000;stroke-width:1.5;"/><text fill="#000000" font-family="sans-serif" font-size="14" lengthAdjust="spacing" textLength="39" x="168.5" y="971.127">Admin</text><rect fill="#F8FBFF" height="35.0938" rx="12.5" ry="12.5" style="stroke:#2F4F8F;stroke-width:0.5;" width="223" x="177.5" y="993.2031"/><text fill="#1F2937" font-family="sans-serif" font-size="12" lengthAdjust="spacing" textLength="203" x="187.5" y="1015.6602">Admin memilih guru yang akan diedit</text><rect fill="#F8FBFF" height="35.0938" rx="12.5" ry="12.5" style="stroke:#2F4F8F;stroke-width:0.5;" width="181" x="198.5" y="1055.2969"/><text fill="#1F2937" font-family="sans-serif" font-size="12" lengthAdjust="spacing" textLength="161" x="208.5" y="1077.7539">Admin mengubah nama guru</text><rect fill="#F8FBFF" height="35.0938" rx="12.5" ry="12.5" style="stroke:#2F4F8F;stroke-width:0.5;" width="207" x="185.5" y="1110.3906"/><text fill="#1F2937" font-family="sans-serif" font-size="12" lengthAdjust="spacing" textLength="187" x="195.5" y="1132.8477">Admin memilih mapel utama guru</text><rect fill="#F8FBFF" height="35.0938" rx="12.5" ry="12.5" style="stroke:#2F4F8F;stroke-width:0.5;" width="227" x="175.5" y="1165.4844"/><text fill="#1F2937" font-family="sans-serif" font-size="12" lengthAdjust="spacing" textLength="207" x="185.5" y="1187.9414">Admin klik tombol Simpan Perubahan</text><rect fill="none" height="84.7031" style="stroke:#000000;stroke-width:1.5;" width="156" x="211" y="1222.5781"/><path d="M263,1222.5781 L263,1233.1875 L253,1243.1875 L211,1243.1875 " fill="none" style="stroke:#000000;stroke-width:1.5;"/><text fill="#000000" font-family="sans-serif" font-size="14" lengthAdjust="spacing" textLength="42" x="214" y="1238.1113">Sistem</text><rect fill="#F8FBFF" height="35.0938" rx="12.5" ry="12.5" style="stroke:#2F4F8F;stroke-width:0.5;" width="136" x="221" y="1260.1875"/><text fill="#1F2937" font-family="sans-serif" font-size="12" lengthAdjust="spacing" textLength="116" x="231" y="1282.6445">Memeriksa data guru</text><polygon fill="#F8FBFF" points="250,1327.2813,328,1327.2813,340,1339.2813,328,1351.2813,250,1351.2813,238,1339.2813,250,1327.2813" style="stroke:#2F4F8F;stroke-width:0.5;"/><text fill="#1F2937" font-family="sans-serif" font-size="11" lengthAdjust="spacing" textLength="78" x="250" y="1343.7822">Data guru valid?</text><text fill="#000000" font-family="sans-serif" font-size="11" lengthAdjust="spacing" textLength="14" x="224" y="1336.8643">Ya</text><text fill="#000000" font-family="sans-serif" font-size="11" lengthAdjust="spacing" textLength="25" x="340" y="1336.8643">Tidak</text><rect fill="none" height="201.8906" style="stroke:#000000;stroke-width:1.5;" width="268" x="11" y="1361.2813"/><path d="M63,1361.2813 L63,1371.8906 L53,1381.8906 L11,1381.8906 " fill="none" style="stroke:#000000;stroke-width:1.5;"/><text fill="#000000" font-family="sans-serif" font-size="14" lengthAdjust="spacing" textLength="42" x="14" y="1376.8145">Sistem</text><rect fill="#F8FBFF" height="35.0938" rx="12.5" ry="12.5" style="stroke:#2F4F8F;stroke-width:0.5;" width="201" x="44.5" y="1398.8906"/><text fill="#1F2937" font-family="sans-serif" font-size="12" lengthAdjust="spacing" textLength="181" x="54.5" y="1421.3477">Menyimpan perubahan data guru</text><rect fill="#F8FBFF" height="35.0938" rx="12.5" ry="12.5" style="stroke:#2F4F8F;stroke-width:0.5;" width="180" x="55" y="1453.9844"/><text fill="#1F2937" font-family="sans-serif" font-size="12" lengthAdjust="spacing" textLength="160" x="65" y="1476.4414">Menampilkan pesan berhasil</text><rect fill="#F8FBFF" height="35.0938" rx="12.5" ry="12.5" style="stroke:#2F4F8F;stroke-width:0.5;" width="248" x="21" y="1516.0781"/><text fill="#1F2937" font-family="sans-serif" font-size="12" lengthAdjust="spacing" textLength="228" x="31" y="1538.5352">Menampilkan kembali data guru dan form</text><rect fill="none" height="139.7969" style="stroke:#000000;stroke-width:1.5;" width="268" x="299" y="1361.2813"/><path d="M351,1361.2813 L351,1371.8906 L341,1381.8906 L299,1381.8906 " fill="none" style="stroke:#000000;stroke-width:1.5;"/><text fill="#000000" font-family="sans-serif" font-size="14" lengthAdjust="spacing" textLength="42" x="302" y="1376.8145">Sistem</text><rect fill="#F8FBFF" height="35.0938" rx="12.5" ry="12.5" style="stroke:#2F4F8F;stroke-width:0.5;" width="161" x="352.5" y="1398.8906"/><text fill="#1F2937" font-family="sans-serif" font-size="12" lengthAdjust="spacing" textLength="141" x="362.5" y="1421.3477">Menampilkan pesan error</text><rect fill="#F8FBFF" height="35.0938" rx="12.5" ry="12.5" style="stroke:#2F4F8F;stroke-width:0.5;" width="248" x="309" y="1453.9844"/><text fill="#1F2937" font-family="sans-serif" font-size="12" lengthAdjust="spacing" textLength="228" x="319" y="1476.4414">Menampilkan kembali data guru dan form</text><polygon fill="#F8FBFF" points="289,1569.1719,301,1581.1719,289,1593.1719,277,1581.1719,289,1569.1719" style="stroke:#2F4F8F;stroke-width:0.5;"/><rect fill="none" height="84.7031" style="stroke:#000000;stroke-width:1.5;" width="286" x="597" y="955.5938"/><path d="M646,955.5938 L646,966.2031 L636,976.2031 L597,976.2031 " fill="none" style="stroke:#000000;stroke-width:1.5;"/><text fill="#000000" font-family="sans-serif" font-size="14" lengthAdjust="spacing" textLength="39" x="600" y="971.127">Admin</text><rect fill="#F8FBFF" height="35.0938" rx="12.5" ry="12.5" style="stroke:#2F4F8F;stroke-width:0.5;" width="266" x="607" y="993.2031"/><text fill="#1F2937" font-family="sans-serif" font-size="12" lengthAdjust="spacing" textLength="246" x="617" y="1015.6602">Admin tidak melakukan perubahan data guru</text><polygon fill="#F8FBFF" points="514.5,1599.1719,526.5,1611.1719,514.5,1623.1719,502.5,1611.1719,514.5,1599.1719" style="stroke:#2F4F8F;stroke-width:0.5;"/><rect fill="none" height="84.7031" style="stroke:#000000;stroke-width:1.5;" width="216" x="915" y="422.2031"/><path d="M967,422.2031 L967,432.8125 L957,442.8125 L915,442.8125 " fill="none" style="stroke:#000000;stroke-width:1.5;"/><text fill="#000000" font-family="sans-serif" font-size="14" lengthAdjust="spacing" textLength="42" x="918" y="437.7363">Sistem</text><rect fill="#F8FBFF" height="35.0938" rx="12.5" ry="12.5" style="stroke:#2F4F8F;stroke-width:0.5;" width="196" x="925" y="459.8125"/><text fill="#1F2937" font-family="sans-serif" font-size="12" lengthAdjust="spacing" textLength="176" x="935" y="482.2695">Menampilkan pesan login gagal</text><rect fill="none" height="92.7031" style="stroke:#000000;stroke-width:1.5;" width="220" x="913" y="541.9063"/><path d="M962,541.9063 L962,552.5156 L952,562.5156 L913,562.5156 " fill="none" style="stroke:#000000;stroke-width:1.5;"/><text fill="#000000" font-family="sans-serif" font-size="14" lengthAdjust="spacing" textLength="39" x="916" y="557.4395">Admin</text><rect fill="#F8FBFF" height="35.0938" rx="12.5" ry="12.5" style="stroke:#2F4F8F;stroke-width:0.5;" width="200" x="923" y="579.5156"/><text fill="#1F2937" font-family="sans-serif" font-size="12" lengthAdjust="spacing" textLength="180" x="933" y="601.9727">Admin kembali ke halaman login</text><polygon fill="#F8FBFF" points="768.75,1629.1719,780.75,1641.1719,768.75,1653.1719,756.75,1641.1719,768.75,1629.1719" style="stroke:#2F4F8F;stroke-width:0.5;"/><ellipse cx="768.75" cy="1684.1719" fill="none" rx="11" ry="11" style="stroke:#222222;stroke-width:1.0;"/><ellipse cx="768.75" cy="1684.1719" fill="#222222" rx="6" ry="6" style="stroke:#222222;stroke-width:1.0;"/><line style="stroke:#181818;stroke-width:1.0;" x1="768.75" x2="768.75" y1="151.3125" y2="171.3125"/><polygon fill="#181818" points="764.75,161.3125,768.75,171.3125,772.75,161.3125,768.75,165.3125" style="stroke:#181818;stroke-width:1.0;"/><line style="stroke:#181818;stroke-width:1.0;" x1="768.75" x2="768.75" y1="206.4063" y2="226.4063"/><polygon fill="#181818" points="764.75,216.4063,768.75,226.4063,772.75,216.4063,768.75,220.4063" style="stroke:#181818;stroke-width:1.0;"/><line style="stroke:#181818;stroke-width:1.0;" x1="768.75" x2="768.75" y1="68.6094" y2="116.2188"/><polygon fill="#181818" points="764.75,106.2188,768.75,116.2188,772.75,106.2188,768.75,110.2188" style="stroke:#181818;stroke-width:1.0;"/><line style="stroke:#181818;stroke-width:1.0;" x1="768.75" x2="768.75" y1="261.5" y2="321.1094"/><polygon fill="#181818" points="764.75,311.1094,768.75,321.1094,772.75,311.1094,768.75,315.1094" style="stroke:#181818;stroke-width:1.0;"/><line style="stroke:#181818;stroke-width:1.0;" x1="514.5" x2="514.5" y1="494.9063" y2="521.9063"/><polygon fill="#181818" points="510.5,511.9063,514.5,521.9063,518.5,511.9063,514.5,515.9063" style="stroke:#181818;stroke-width:1.0;"/><line style="stroke:#181818;stroke-width:1.0;" x1="514.5" x2="514.5" y1="684.7031" y2="704.7031"/><polygon fill="#181818" points="510.5,694.7031,514.5,704.7031,518.5,694.7031,514.5,698.7031" style="stroke:#181818;stroke-width:1.0;"/><line style="stroke:#181818;stroke-width:1.0;" x1="514.5" x2="514.5" y1="739.7969" y2="759.7969"/><polygon fill="#181818" points="510.5,749.7969,514.5,759.7969,518.5,749.7969,514.5,753.7969" style="stroke:#181818;stroke-width:1.0;"/><line style="stroke:#181818;stroke-width:1.0;" x1="514.5" x2="514.5" y1="557" y2="649.6094"/><polygon fill="#181818" points="510.5,639.6094,514.5,649.6094,518.5,639.6094,514.5,643.6094" style="stroke:#181818;stroke-width:1.0;"/><line style="stroke:#181818;stroke-width:1.0;" x1="514.5" x2="514.5" y1="794.8906" y2="854.5"/><polygon fill="#181818" points="510.5,844.5,514.5,854.5,518.5,844.5,514.5,848.5" style="stroke:#181818;stroke-width:1.0;"/><line style="stroke:#181818;stroke-width:1.0;" x1="289" x2="289" y1="1028.2969" y2="1055.2969"/><polygon fill="#181818" points="285,1045.2969,289,1055.2969,293,1045.2969,289,1049.2969" style="stroke:#181818;stroke-width:1.0;"/><line style="stroke:#181818;stroke-width:1.0;" x1="289" x2="289" y1="1090.3906" y2="1110.3906"/><polygon fill="#181818" points="285,1100.3906,289,1110.3906,293,1100.3906,289,1104.3906" style="stroke:#181818;stroke-width:1.0;"/><line style="stroke:#181818;stroke-width:1.0;" x1="289" x2="289" y1="1145.4844" y2="1165.4844"/><polygon fill="#181818" points="285,1155.4844,289,1165.4844,293,1155.4844,289,1159.4844" style="stroke:#181818;stroke-width:1.0;"/><line style="stroke:#181818;stroke-width:1.0;" x1="289" x2="289" y1="1200.5781" y2="1260.1875"/><polygon fill="#181818" points="285,1250.1875,289,1260.1875,293,1250.1875,289,1254.1875" style="stroke:#181818;stroke-width:1.0;"/><line style="stroke:#181818;stroke-width:1.0;" x1="145" x2="145" y1="1433.9844" y2="1453.9844"/><polygon fill="#181818" points="141,1443.9844,145,1453.9844,149,1443.9844,145,1447.9844" style="stroke:#181818;stroke-width:1.0;"/><line style="stroke:#181818;stroke-width:1.0;" x1="145" x2="145" y1="1489.0781" y2="1516.0781"/><polygon fill="#181818" points="141,1506.0781,145,1516.0781,149,1506.0781,145,1510.0781" style="stroke:#181818;stroke-width:1.0;"/><line style="stroke:#181818;stroke-width:1.0;" x1="433" x2="433" y1="1433.9844" y2="1453.9844"/><polygon fill="#181818" points="429,1443.9844,433,1453.9844,437,1443.9844,433,1447.9844" style="stroke:#181818;stroke-width:1.0;"/><line style="stroke:#181818;stroke-width:1.0;" x1="238" x2="145" y1="1339.2813" y2="1339.2813"/><line style="stroke:#181818;stroke-width:1.0;" x1="145" x2="145" y1="1339.2813" y2="1398.8906"/><polygon fill="#181818" points="141,1388.8906,145,1398.8906,149,1388.8906,145,1392.8906" style="stroke:#181818;stroke-width:1.0;"/><line style="stroke:#181818;stroke-width:1.0;" x1="340" x2="433" y1="1339.2813" y2="1339.2813"/><line style="stroke:#181818;stroke-width:1.0;" x1="433" x2="433" y1="1339.2813" y2="1398.8906"/><polygon fill="#181818" points="429,1388.8906,433,1398.8906,437,1388.8906,433,1392.8906" style="stroke:#181818;stroke-width:1.0;"/><line style="stroke:#181818;stroke-width:1.0;" x1="145" x2="145" y1="1551.1719" y2="1581.1719"/><line style="stroke:#181818;stroke-width:1.0;" x1="145" x2="277" y1="1581.1719" y2="1581.1719"/><polygon fill="#181818" points="267,1577.1719,277,1581.1719,267,1585.1719,271,1581.1719" style="stroke:#181818;stroke-width:1.0;"/><line style="stroke:#181818;stroke-width:1.0;" x1="433" x2="433" y1="1489.0781" y2="1581.1719"/><line style="stroke:#181818;stroke-width:1.0;" x1="433" x2="301" y1="1581.1719" y2="1581.1719"/><polygon fill="#181818" points="311,1577.1719,301,1581.1719,311,1585.1719,307,1581.1719" style="stroke:#181818;stroke-width:1.0;"/><line style="stroke:#181818;stroke-width:1.0;" x1="289" x2="289" y1="1295.2813" y2="1327.2813"/><polygon fill="#181818" points="285,1317.2813,289,1327.2813,293,1317.2813,289,1321.2813" style="stroke:#181818;stroke-width:1.0;"/><line style="stroke:#181818;stroke-width:1.0;" x1="421" x2="289" y1="933.5938" y2="933.5938"/><line style="stroke:#181818;stroke-width:1.0;" x1="289" x2="289" y1="933.5938" y2="993.2031"/><polygon fill="#181818" points="285,983.2031,289,993.2031,293,983.2031,289,987.2031" style="stroke:#181818;stroke-width:1.0;"/><line style="stroke:#181818;stroke-width:1.0;" x1="608" x2="740" y1="933.5938" y2="933.5938"/><line style="stroke:#181818;stroke-width:1.0;" x1="740" x2="740" y1="933.5938" y2="993.2031"/><polygon fill="#181818" points="736,983.2031,740,993.2031,744,983.2031,740,987.2031" style="stroke:#181818;stroke-width:1.0;"/><line style="stroke:#181818;stroke-width:1.0;" x1="289" x2="289" y1="1593.1719" y2="1611.1719"/><line style="stroke:#181818;stroke-width:1.0;" x1="289" x2="502.5" y1="1611.1719" y2="1611.1719"/><polygon fill="#181818" points="492.5,1607.1719,502.5,1611.1719,492.5,1615.1719,496.5,1611.1719" style="stroke:#181818;stroke-width:1.0;"/><line style="stroke:#181818;stroke-width:1.0;" x1="740" x2="740" y1="1028.2969" y2="1611.1719"/><line style="stroke:#181818;stroke-width:1.0;" x1="740" x2="526.5" y1="1611.1719" y2="1611.1719"/><polygon fill="#181818" points="536.5,1607.1719,526.5,1611.1719,536.5,1615.1719,532.5,1611.1719" style="stroke:#181818;stroke-width:1.0;"/><line style="stroke:#181818;stroke-width:1.0;" x1="514.5" x2="514.5" y1="889.5938" y2="921.5938"/><polygon fill="#181818" points="510.5,911.5938,514.5,921.5938,518.5,911.5938,514.5,915.5938" style="stroke:#181818;stroke-width:1.0;"/><line style="stroke:#181818;stroke-width:1.0;" x1="1023" x2="1023" y1="494.9063" y2="579.5156"/><polygon fill="#181818" points="1019,569.5156,1023,579.5156,1027,569.5156,1023,573.5156" style="stroke:#181818;stroke-width:1.0;"/><line style="stroke:#181818;stroke-width:1.0;" x1="728.25" x2="514.5" y1="400.2031" y2="400.2031"/><line style="stroke:#181818;stroke-width:1.0;" x1="514.5" x2="514.5" y1="400.2031" y2="459.8125"/><polygon fill="#181818" points="510.5,449.8125,514.5,459.8125,518.5,449.8125,514.5,453.8125" style="stroke:#181818;stroke-width:1.0;"/><line style="stroke:#181818;stroke-width:1.0;" x1="809.25" x2="1023" y1="400.2031" y2="400.2031"/><line style="stroke:#181818;stroke-width:1.0;" x1="1023" x2="1023" y1="400.2031" y2="459.8125"/><polygon fill="#181818" points="1019,449.8125,1023,459.8125,1027,449.8125,1023,453.8125" style="stroke:#181818;stroke-width:1.0;"/><line style="stroke:#181818;stroke-width:1.0;" x1="514.5" x2="514.5" y1="1623.1719" y2="1641.1719"/><line style="stroke:#181818;stroke-width:1.0;" x1="514.5" x2="756.75" y1="1641.1719" y2="1641.1719"/><polygon fill="#181818" points="746.75,1637.1719,756.75,1641.1719,746.75,1645.1719,750.75,1641.1719" style="stroke:#181818;stroke-width:1.0;"/><line style="stroke:#181818;stroke-width:1.0;" x1="1023" x2="1023" y1="614.6094" y2="1641.1719"/><line style="stroke:#181818;stroke-width:1.0;" x1="1023" x2="780.75" y1="1641.1719" y2="1641.1719"/><polygon fill="#181818" points="790.75,1637.1719,780.75,1641.1719,790.75,1645.1719,786.75,1641.1719" style="stroke:#181818;stroke-width:1.0;"/><line style="stroke:#181818;stroke-width:1.0;" x1="768.75" x2="768.75" y1="356.2031" y2="388.2031"/><polygon fill="#181818" points="764.75,378.2031,768.75,388.2031,772.75,378.2031,768.75,382.2031" style="stroke:#181818;stroke-width:1.0;"/><line style="stroke:#181818;stroke-width:1.0;" x1="768.75" x2="768.75" y1="1653.1719" y2="1673.1719"/><polygon fill="#181818" points="764.75,1663.1719,768.75,1673.1719,772.75,1663.1719,768.75,1667.1719" style="stroke:#181818;stroke-width:1.0;"/><!--SRC=[hLJBRjim4BphAnRfnJdqqBH07pa4IGtrqW05qakFwuYc5dm999N2AFJlNLAIRTbAx1GzMHPdPsU6guqKjO3RnqXF53Um99GU3Ro5sygGXNjXfT1E8omn8dnhVLiKGP5jCC5mhFjJ0DpXevBUjRRwwhJpyARyLDwLPJfnlX9-U7jLVk03Vbiw6uTtxyghp-y_5XrpH_InA9W-KYHduI8BkSWT0BxqiemmgrOXrAZHe0Nj9Ddh0mI6LYa-v2VIKF5JWo7yPYqJfDAa83gpSXg-zppTHC03XIZCLi6zCCAJ2iYK74bk3PYeSY6jOP5fu0arLJUN46jXOV4BBuiYCppdRLzzqWvAS8jGhnoEagS6ILFDlxRTNKuFwuuQJJqCFYoQXdIAA3kHs_gZSqzMAWnd8DVE6n0LnKDaTxvvmRxmEOAKRuzZJHbjPRl2UWUVHZwIlzHu9jP411kq4Z07HCdJzNp58813E8ncxhwm4HhQ-29uVoOVo3Iiu8VmgGlQNK4tw-xugkV6TjfwZodbknmHCpEyJtgowpWUczv3CtgOqp0xJer8GxSIliP0-WHOyLPWlJlo_D6dYPmMTjj_GWS1YvzKeVf7PmTAXVVE_t-Pjg9rVqKJnQyTxfZAqlU5gbMdxcEOYQ7tST_pjqiVJRye9KhKhzq8OsAy46SsFlCC8aDqpLy0]--></g></svg>