<?xml version="1.0" encoding="us-ascii" standalone="no"?><svg xmlns="http://www.w3.org/2000/svg" xmlns:xlink="http://www.w3.org/1999/xlink" contentStyleType="text/css" height="1816px" preserveAspectRatio="none" style="width:1163px;height:1816px;background:#FFFFFF;" version="1.1" viewBox="0 0 1163 1816" width="1163px" zoomAndPan="magnify"><defs/><g><text fill="#000000" font-family="sans-serif" font-size="14" font-weight="bold" lengthAdjust="spacing" textLength="325" x="417.875" y="34.5332">Activity Diagram - Admin Mengelola Data Siswa</text><ellipse cx="787.75" cy="58.6094" fill="#222222" rx="10" ry="10" style="stroke:#222222;stroke-width:1.0;"/><rect fill="none" height="194.8906" style="stroke:#000000;stroke-width:1.5;" width="270" x="652.75" y="78.6094"/><path d="M701.75,78.6094 L701.75,89.2188 L691.75,99.2188 L652.75,99.2188 " fill="none" style="stroke:#000000;stroke-width:1.5;"/><text fill="#000000" font-family="sans-serif" font-size="14" lengthAdjust="spacing" textLength="39" x="655.75" y="94.1426">Admin</text><rect fill="#F8FBFF" height="35.0938" rx="12.5" ry="12.5" style="stroke:#2F4F8F;stroke-width:0.5;" width="196" x="689.75" y="116.2188"/><text fill="#1F2937" font-family="sans-serif" font-size="12" lengthAdjust="spacing" textLength="176" x="699.75" y="138.6758">Admin membuka halaman login</text><rect fill="#F8FBFF" height="35.0938" rx="12.5" ry="12.5" style="stroke:#2F4F8F;stroke-width:0.5;" width="250" x="662.75" y="171.3125"/><text fill="#1F2937" font-family="sans-serif" font-size="12" lengthAdjust="spacing" textLength="230" x="672.75" y="193.7695">Admin memasukkan email dan password</text><rect fill="#F8FBFF" height="35.0938" rx="12.5" ry="12.5" style="stroke:#2F4F8F;stroke-width:0.5;" width="151" x="712.25" y="226.4063"/><text fill="#1F2937" font-family="sans-serif" font-size="12" lengthAdjust="spacing" textLength="131" x="722.25" y="248.8633">Admin klik tombol Login</text><rect fill="none" height="84.7031" style="stroke:#000000;stroke-width:1.5;" width="196" x="689.75" y="283.5"/><path d="M741.75,283.5 L741.75,294.1094 L731.75,304.1094 L689.75,304.1094 " fill="none" style="stroke:#000000;stroke-width:1.5;"/><text fill="#000000" font-family="sans-serif" font-size="14" lengthAdjust="spacing" textLength="42" x="692.75" y="299.0332">Sistem</text><rect fill="#F8FBFF" height="35.0938" rx="12.5" ry="12.5" style="stroke:#2F4F8F;stroke-width:0.5;" width="176" x="699.75" y="321.1094"/><text fill="#1F2937" font-family="sans-serif" font-size="12" lengthAdjust="spacing" textLength="156" x="709.75" y="343.5664">Memeriksa data login admin</text><polygon fill="#F8FBFF" points="759.25,388.2031,816.25,388.2031,828.25,400.2031,816.25,412.2031,759.25,412.2031,747.25,400.2031,759.25,388.2031" style="stroke:#2F4F8F;stroke-width:0.5;"/><text fill="#1F2937" font-family="sans-serif" font-size="11" lengthAdjust="spacing" textLength="57" x="759.25" y="404.7041">Login valid?</text><text fill="#000000" font-family="sans-serif" font-size="11" lengthAdjust="spacing" textLength="14" x="733.25" y="397.7861">Ya</text><text fill="#000000" font-family="sans-serif" font-size="11" lengthAdjust="spacing" textLength="25" x="828.25" y="397.7861">Tidak</text><rect fill="none" height="154.7969" style="stroke:#000000;stroke-width:1.5;" width="224" x="416.5" y="422.2031"/><path d="M465.5,422.2031 L465.5,432.8125 L455.5,442.8125 L416.5,442.8125 " fill="none" style="stroke:#000000;stroke-width:1.5;"/><text fill="#000000" font-family="sans-serif" font-size="14" lengthAdjust="spacing" textLength="39" x="419.5" y="437.7363">Admin</text><rect fill="#F8FBFF" height="35.0938" rx="12.5" ry="12.5" style="stroke:#2F4F8F;stroke-width:0.5;" width="175" x="441" y="459.8125"/><text fill="#1F2937" font-family="sans-serif" font-size="12" lengthAdjust="spacing" textLength="155" x="451" y="482.2695">Admin masuk ke dashboard</text><rect fill="#F8FBFF" height="35.0938" rx="12.5" ry="12.5" style="stroke:#2F4F8F;stroke-width:0.5;" width="204" x="426.5" y="521.9063"/><text fill="#1F2937" font-family="sans-serif" font-size="12" lengthAdjust="spacing" textLength="184" x="436.5" y="544.3633">Admin memilih menu Data Siswa</text><rect fill="none" height="194.8906" style="stroke:#000000;stroke-width:1.5;" width="235" x="411" y="612"/><path d="M463,612 L463,622.6094 L453,632.6094 L411,632.6094 " fill="none" style="stroke:#000000;stroke-width:1.5;"/><text fill="#000000" font-family="sans-serif" font-size="14" lengthAdjust="spacing" textLength="42" x="414" y="627.5332">Sistem</text><rect fill="#F8FBFF" height="35.0938" rx="12.5" ry="12.5" style="stroke:#2F4F8F;stroke-width:0.5;" width="157" x="450" y="649.6094"/><text fill="#1F2937" font-family="sans-serif" font-size="12" lengthAdjust="spacing" textLength="137" x="460" y="672.0664">Menampilkan data siswa</text><rect fill="#F8FBFF" height="35.0938" rx="12.5" ry="12.5" style="stroke:#2F4F8F;stroke-width:0.5;" width="215" x="421" y="704.7031"/><text fill="#1F2937" font-family="sans-serif" font-size="12" lengthAdjust="spacing" textLength="195" x="431" y="727.1602">Menampilkan ringkasan data siswa</text><rect fill="#F8FBFF" height="35.0938" rx="12.5" ry="12.5" style="stroke:#2F4F8F;stroke-width:0.5;" width="208" x="424.5" y="759.7969"/><text fill="#1F2937" font-family="sans-serif" font-size="12" lengthAdjust="spacing" textLength="188" x="434.5" y="782.2539">Menampilkan form edit data siswa</text><rect fill="none" height="84.7031" style="stroke:#000000;stroke-width:1.5;" width="182" x="437.5" y="816.8906"/><path d="M486.5,816.8906 L486.5,827.5 L476.5,837.5 L437.5,837.5 " fill="none" style="stroke:#000000;stroke-width:1.5;"/><text fill="#000000" font-family="sans-serif" font-size="14" lengthAdjust="spacing" textLength="39" x="440.5" y="832.4238">Admin</text><rect fill="#F8FBFF" height="35.0938" rx="12.5" ry="12.5" style="stroke:#2F4F8F;stroke-width:0.5;" width="162" x="447.5" y="854.5"/><text fill="#1F2937" font-family="sans-serif" font-size="12" lengthAdjust="spacing" textLength="142" x="457.5" y="876.957">Admin melihat data siswa</text><polygon fill="#F8FBFF" points="443,921.5938,614,921.5938,626,933.5938,614,945.5938,443,945.5938,431,933.5938,443,921.5938" style="stroke:#2F4F8F;stroke-width:0.5;"/><text fill="#1F2937" font-family="sans-serif" font-size="11" lengthAdjust="spacing" textLength="171" x="443" y="938.0947">Admin ingin mengubah data siswa?</text><text fill="#000000" font-family="sans-serif" font-size="11" lengthAdjust="spacing" textLength="14" x="417" y="931.1768">Ya</text><text fill="#000000" font-family="sans-serif" font-size="11" lengthAdjust="spacing" textLength="25" x="626" y="931.1768">Tidak</text><rect fill="none" height="367.1719" style="stroke:#000000;stroke-width:1.5;" width="261" x="166.5" y="955.5938"/><path d="M215.5,955.5938 L215.5,966.2031 L205.5,976.2031 L166.5,976.2031 " fill="none" style="stroke:#000000;stroke-width:1.5;"/><text fill="#000000" font-family="sans-serif" font-size="14" lengthAdjust="spacing" textLength="39" x="169.5" y="971.127">Admin</text><rect fill="#F8FBFF" height="35.0938" rx="12.5" ry="12.5" style="stroke:#2F4F8F;stroke-width:0.5;" width="231" x="181.5" y="993.2031"/><text fill="#1F2937" font-family="sans-serif" font-size="12" lengthAdjust="spacing" textLength="211" x="191.5" y="1015.6602">Admin memilih siswa yang akan diedit</text><rect fill="#F8FBFF" height="35.0938" rx="12.5" ry="12.5" style="stroke:#2F4F8F;stroke-width:0.5;" width="189" x="202.5" y="1055.2969"/><text fill="#1F2937" font-family="sans-serif" font-size="12" lengthAdjust="spacing" textLength="169" x="212.5" y="1077.7539">Admin mengubah nama siswa</text><rect fill="#F8FBFF" height="35.0938" rx="12.5" ry="12.5" style="stroke:#2F4F8F;stroke-width:0.5;" width="187" x="203.5" y="1110.3906"/><text fill="#1F2937" font-family="sans-serif" font-size="12" lengthAdjust="spacing" textLength="167" x="213.5" y="1132.8477">Admin mengubah kelas siswa</text><rect fill="#F8FBFF" height="35.0938" rx="12.5" ry="12.5" style="stroke:#2F4F8F;stroke-width:0.5;" width="163" x="215.5" y="1165.4844"/><text fill="#1F2937" font-family="sans-serif" font-size="12" lengthAdjust="spacing" textLength="143" x="225.5" y="1187.9414">Admin memilih wali murid</text><rect fill="#F8FBFF" height="35.0938" rx="12.5" ry="12.5" style="stroke:#2F4F8F;stroke-width:0.5;" width="241" x="176.5" y="1220.5781"/><text fill="#1F2937" font-family="sans-serif" font-size="12" lengthAdjust="spacing" textLength="221" x="186.5" y="1243.0352">Admin memilih mapel yang diikuti siswa</text><rect fill="#F8FBFF" height="35.0938" rx="12.5" ry="12.5" style="stroke:#2F4F8F;stroke-width:0.5;" width="227" x="183.5" y="1275.6719"/><text fill="#1F2937" font-family="sans-serif" font-size="12" lengthAdjust="spacing" textLength="207" x="193.5" y="1298.1289">Admin klik tombol Simpan Perubahan</text><rect fill="none" height="84.7031" style="stroke:#000000;stroke-width:1.5;" width="164" x="215" y="1332.7656"/><path d="M267,1332.7656 L267,1343.375 L257,1353.375 L215,1353.375 " fill="none" style="stroke:#000000;stroke-width:1.5;"/><text fill="#000000" font-family="sans-serif" font-size="14" lengthAdjust="spacing" textLength="42" x="218" y="1348.2988">Sistem</text><rect fill="#F8FBFF" height="35.0938" rx="12.5" ry="12.5" style="stroke:#2F4F8F;stroke-width:0.5;" width="144" x="225" y="1370.375"/><text fill="#1F2937" font-family="sans-serif" font-size="12" lengthAdjust="spacing" textLength="124" x="235" y="1392.832">Memeriksa data siswa</text><polygon fill="#F8FBFF" points="254,1437.4688,340,1437.4688,352,1449.4688,340,1461.4688,254,1461.4688,242,1449.4688,254,1437.4688" style="stroke:#2F4F8F;stroke-width:0.5;"/><text fill="#1F2937" font-family="sans-serif" font-size="11" lengthAdjust="spacing" textLength="86" x="254" y="1453.9697">Data siswa valid?</text><text fill="#000000" font-family="sans-serif" font-size="11" lengthAdjust="spacing" textLength="14" x="228" y="1447.0518">Ya</text><text fill="#000000" font-family="sans-serif" font-size="11" lengthAdjust="spacing" textLength="25" x="352" y="1447.0518">Tidak</text><rect fill="none" height="201.8906" style="stroke:#000000;stroke-width:1.5;" width="276" x="11" y="1471.4688"/><path d="M63,1471.4688 L63,1482.0781 L53,1492.0781 L11,1492.0781 " fill="none" style="stroke:#000000;stroke-width:1.5;"/><text fill="#000000" font-family="sans-serif" font-size="14" lengthAdjust="spacing" textLength="42" x="14" y="1487.002">Sistem</text><rect fill="#F8FBFF" height="35.0938" rx="12.5" ry="12.5" style="stroke:#2F4F8F;stroke-width:0.5;" width="209" x="44.5" y="1509.0781"/><text fill="#1F2937" font-family="sans-serif" font-size="12" lengthAdjust="spacing" textLength="189" x="54.5" y="1531.5352">Menyimpan perubahan data siswa</text><rect fill="#F8FBFF" height="35.0938" rx="12.5" ry="12.5" style="stroke:#2F4F8F;stroke-width:0.5;" width="180" x="59" y="1564.1719"/><text fill="#1F2937" font-family="sans-serif" font-size="12" lengthAdjust="spacing" textLength="160" x="69" y="1586.6289">Menampilkan pesan berhasil</text><rect fill="#F8FBFF" height="35.0938" rx="12.5" ry="12.5" style="stroke:#2F4F8F;stroke-width:0.5;" width="256" x="21" y="1626.2656"/><text fill="#1F2937" font-family="sans-serif" font-size="12" lengthAdjust="spacing" textLength="236" x="31" y="1648.7227">Menampilkan kembali data siswa dan form</text><rect fill="none" height="139.7969" style="stroke:#000000;stroke-width:1.5;" width="276" x="307" y="1471.4688"/><path d="M359,1471.4688 L359,1482.0781 L349,1492.0781 L307,1492.0781 " fill="none" style="stroke:#000000;stroke-width:1.5;"/><text fill="#000000" font-family="sans-serif" font-size="14" lengthAdjust="spacing" textLength="42" x="310" y="1487.002">Sistem</text><rect fill="#F8FBFF" height="35.0938" rx="12.5" ry="12.5" style="stroke:#2F4F8F;stroke-width:0.5;" width="161" x="364.5" y="1509.0781"/><text fill="#1F2937" font-family="sans-serif" font-size="12" lengthAdjust="spacing" textLength="141" x="374.5" y="1531.5352">Menampilkan pesan error</text><rect fill="#F8FBFF" height="35.0938" rx="12.5" ry="12.5" style="stroke:#2F4F8F;stroke-width:0.5;" width="256" x="317" y="1564.1719"/><text fill="#1F2937" font-family="sans-serif" font-size="12" lengthAdjust="spacing" textLength="236" x="327" y="1586.6289">Menampilkan kembali data siswa dan form</text><polygon fill="#F8FBFF" points="297,1679.3594,309,1691.3594,297,1703.3594,285,1691.3594,297,1679.3594" style="stroke:#2F4F8F;stroke-width:0.5;"/><rect fill="none" height="84.7031" style="stroke:#000000;stroke-width:1.5;" width="294" x="613" y="955.5938"/><path d="M662,955.5938 L662,966.2031 L652,976.2031 L613,976.2031 " fill="none" style="stroke:#000000;stroke-width:1.5;"/><text fill="#000000" font-family="sans-serif" font-size="14" lengthAdjust="spacing" textLength="39" x="616" y="971.127">Admin</text><rect fill="#F8FBFF" height="35.0938" rx="12.5" ry="12.5" style="stroke:#2F4F8F;stroke-width:0.5;" width="274" x="623" y="993.2031"/><text fill="#1F2937" font-family="sans-serif" font-size="12" lengthAdjust="spacing" textLength="254" x="633" y="1015.6602">Admin tidak melakukan perubahan data siswa</text><polygon fill="#F8FBFF" points="528.5,1709.3594,540.5,1721.3594,528.5,1733.3594,516.5,1721.3594,528.5,1709.3594" style="stroke:#2F4F8F;stroke-width:0.5;"/><rect fill="none" height="84.7031" style="stroke:#000000;stroke-width:1.5;" width="216" x="934.75" y="422.2031"/><path d="M986.75,422.2031 L986.75,432.8125 L976.75,442.8125 L934.75,442.8125 " fill="none" style="stroke:#000000;stroke-width:1.5;"/><text fill="#000000" font-family="sans-serif" font-size="14" lengthAdjust="spacing" textLength="42" x="937.75" y="437.7363">Sistem</text><rect fill="#F8FBFF" height="35.0938" rx="12.5" ry="12.5" style="stroke:#2F4F8F;stroke-width:0.5;" width="196" x="944.75" y="459.8125"/><text fill="#1F2937" font-family="sans-serif" font-size="12" lengthAdjust="spacing" textLength="176" x="954.75" y="482.2695">Menampilkan pesan login gagal</text><rect fill="none" height="92.7031" style="stroke:#000000;stroke-width:1.5;" width="220" x="932.75" y="541.9063"/><path d="M981.75,541.9063 L981.75,552.5156 L971.75,562.5156 L932.75,562.5156 " fill="none" style="stroke:#000000;stroke-width:1.5;"/><text fill="#000000" font-family="sans-serif" font-size="14" lengthAdjust="spacing" textLength="39" x="935.75" y="557.4395">Admin</text><rect fill="#F8FBFF" height="35.0938" rx="12.5" ry="12.5" style="stroke:#2F4F8F;stroke-width:0.5;" width="200" x="942.75" y="579.5156"/><text fill="#1F2937" font-family="sans-serif" font-size="12" lengthAdjust="spacing" textLength="180" x="952.75" y="601.9727">Admin kembali ke halaman login</text><polygon fill="#F8FBFF" points="787.75,1739.3594,799.75,1751.3594,787.75,1763.3594,775.75,1751.3594,787.75,1739.3594" style="stroke:#2F4F8F;stroke-width:0.5;"/><ellipse cx="787.75" cy="1794.3594" fill="none" rx="11" ry="11" style="stroke:#222222;stroke-width:1.0;"/><ellipse cx="787.75" cy="1794.3594" fill="#222222" rx="6" ry="6" style="stroke:#222222;stroke-width:1.0;"/><line style="stroke:#181818;stroke-width:1.0;" x1="787.75" x2="787.75" y1="151.3125" y2="171.3125"/><polygon fill="#181818" points="783.75,161.3125,787.75,171.3125,791.75,161.3125,787.75,165.3125" style="stroke:#181818;stroke-width:1.0;"/><line style="stroke:#181818;stroke-width:1.0;" x1="787.75" x2="787.75" y1="206.4063" y2="226.4063"/><polygon fill="#181818" points="783.75,216.4063,787.75,226.4063,791.75,216.4063,787.75,220.4063" style="stroke:#181818;stroke-width:1.0;"/><line style="stroke:#181818;stroke-width:1.0;" x1="787.75" x2="787.75" y1="68.6094" y2="116.2188"/><polygon fill="#181818" points="783.75,106.2188,787.75,116.2188,791.75,106.2188,787.75,110.2188" style="stroke:#181818;stroke-width:1.0;"/><line style="stroke:#181818;stroke-width:1.0;" x1="787.75" x2="787.75" y1="261.5" y2="321.1094"/><polygon fill="#181818" points="783.75,311.1094,787.75,321.1094,791.75,311.1094,787.75,315.1094" style="stroke:#181818;stroke-width:1.0;"/><line style="stroke:#181818;stroke-width:1.0;" x1="528.5" x2="528.5" y1="494.9063" y2="521.9063"/><polygon fill="#181818" points="524.5,511.9063,528.5,521.9063,532.5,511.9063,528.5,515.9063" style="stroke:#181818;stroke-width:1.0;"/><line style="stroke:#181818;stroke-width:1.0;" x1="528.5" x2="528.5" y1="684.7031" y2="704.7031"/><polygon fill="#181818" points="524.5,694.7031,528.5,704.7031,532.5,694.7031,528.5,698.7031" style="stroke:#181818;stroke-width:1.0;"/><line style="stroke:#181818;stroke-width:1.0;" x1="528.5" x2="528.5" y1="739.7969" y2="759.7969"/><polygon fill="#181818" points="524.5,749.7969,528.5,759.7969,532.5,749.7969,528.5,753.7969" style="stroke:#181818;stroke-width:1.0;"/><line style="stroke:#181818;stroke-width:1.0;" x1="528.5" x2="528.5" y1="557" y2="649.6094"/><polygon fill="#181818" points="524.5,639.6094,528.5,649.6094,532.5,639.6094,528.5,643.6094" style="stroke:#181818;stroke-width:1.0;"/><line style="stroke:#181818;stroke-width:1.0;" x1="528.5" x2="528.5" y1="794.8906" y2="854.5"/><polygon fill="#181818" points="524.5,844.5,528.5,854.5,532.5,844.5,528.5,848.5" style="stroke:#181818;stroke-width:1.0;"/><line style="stroke:#181818;stroke-width:1.0;" x1="297" x2="297" y1="1028.2969" y2="1055.2969"/><polygon fill="#181818" points="293,1045.2969,297,1055.2969,301,1045.2969,297,1049.2969" style="stroke:#181818;stroke-width:1.0;"/><line style="stroke:#181818;stroke-width:1.0;" x1="297" x2="297" y1="1090.3906" y2="1110.3906"/><polygon fill="#181818" points="293,1100.3906,297,1110.3906,301,1100.3906,297,1104.3906" style="stroke:#181818;stroke-width:1.0;"/><line style="stroke:#181818;stroke-width:1.0;" x1="297" x2="297" y1="1145.4844" y2="1165.4844"/><polygon fill="#181818" points="293,1155.4844,297,1165.4844,301,1155.4844,297,1159.4844" style="stroke:#181818;stroke-width:1.0;"/><line style="stroke:#181818;stroke-width:1.0;" x1="297" x2="297" y1="1200.5781" y2="1220.5781"/><polygon fill="#181818" points="293,1210.5781,297,1220.5781,301,1210.5781,297,1214.5781" style="stroke:#181818;stroke-width:1.0;"/><line style="stroke:#181818;stroke-width:1.0;" x1="297" x2="297" y1="1255.6719" y2="1275.6719"/><polygon fill="#181818" points="293,1265.6719,297,1275.6719,301,1265.6719,297,1269.6719" style="stroke:#181818;stroke-width:1.0;"/><line style="stroke:#181818;stroke-width:1.0;" x1="297" x2="297" y1="1310.7656" y2="1370.375"/><polygon fill="#181818" points="293,1360.375,297,1370.375,301,1360.375,297,1364.375" style="stroke:#181818;stroke-width:1.0;"/><line style="stroke:#181818;stroke-width:1.0;" x1="149" x2="149" y1="1544.1719" y2="1564.1719"/><polygon fill="#181818" points="145,1554.1719,149,1564.1719,153,1554.1719,149,1558.1719" style="stroke:#181818;stroke-width:1.0;"/><line style="stroke:#181818;stroke-width:1.0;" x1="149" x2="149" y1="1599.2656" y2="1626.2656"/><polygon fill="#181818" points="145,1616.2656,149,1626.2656,153,1616.2656,149,1620.2656" style="stroke:#181818;stroke-width:1.0;"/><line style="stroke:#181818;stroke-width:1.0;" x1="445" x2="445" y1="1544.1719" y2="1564.1719"/><polygon fill="#181818" points="441,1554.1719,445,1564.1719,449,1554.1719,445,1558.1719" style="stroke:#181818;stroke-width:1.0;"/><line style="stroke:#181818;stroke-width:1.0;" x1="242" x2="149" y1="1449.4688" y2="1449.4688"/><line style="stroke:#181818;stroke-width:1.0;" x1="149" x2="149" y1="1449.4688" y2="1509.0781"/><polygon fill="#181818" points="145,1499.0781,149,1509.0781,153,1499.0781,149,1503.0781" style="stroke:#181818;stroke-width:1.0;"/><line style="stroke:#181818;stroke-width:1.0;" x1="352" x2="445" y1="1449.4688" y2="1449.4688"/><line style="stroke:#181818;stroke-width:1.0;" x1="445" x2="445" y1="1449.4688" y2="1509.0781"/><polygon fill="#181818" points="441,1499.0781,445,1509.0781,449,1499.0781,445,1503.0781" style="stroke:#181818;stroke-width:1.0;"/><line style="stroke:#181818;stroke-width:1.0;" x1="149" x2="149" y1="1661.3594" y2="1691.3594"/><line style="stroke:#181818;stroke-width:1.0;" x1="149" x2="285" y1="1691.3594" y2="1691.3594"/><polygon fill="#181818" points="275,1687.3594,285,1691.3594,275,1695.3594,279,1691.3594" style="stroke:#181818;stroke-width:1.0;"/><line style="stroke:#181818;stroke-width:1.0;" x1="445" x2="445" y1="1599.2656" y2="1691.3594"/><line style="stroke:#181818;stroke-width:1.0;" x1="445" x2="309" y1="1691.3594" y2="1691.3594"/><polygon fill="#181818" points="319,1687.3594,309,1691.3594,319,1695.3594,315,1691.3594" style="stroke:#181818;stroke-width:1.0;"/><line style="stroke:#181818;stroke-width:1.0;" x1="297" x2="297" y1="1405.4688" y2="1437.4688"/><polygon fill="#181818" points="293,1427.4688,297,1437.4688,301,1427.4688,297,1431.4688" style="stroke:#181818;stroke-width:1.0;"/><line style="stroke:#181818;stroke-width:1.0;" x1="431" x2="297" y1="933.5938" y2="933.5938"/><line style="stroke:#181818;stroke-width:1.0;" x1="297" x2="297" y1="933.5938" y2="993.2031"/><polygon fill="#181818" points="293,983.2031,297,993.2031,301,983.2031,297,987.2031" style="stroke:#181818;stroke-width:1.0;"/><line style="stroke:#181818;stroke-width:1.0;" x1="626" x2="760" y1="933.5938" y2="933.5938"/><line style="stroke:#181818;stroke-width:1.0;" x1="760" x2="760" y1="933.5938" y2="993.2031"/><polygon fill="#181818" points="756,983.2031,760,993.2031,764,983.2031,760,987.2031" style="stroke:#181818;stroke-width:1.0;"/><line style="stroke:#181818;stroke-width:1.0;" x1="297" x2="297" y1="1703.3594" y2="1721.3594"/><line style="stroke:#181818;stroke-width:1.0;" x1="297" x2="516.5" y1="1721.3594" y2="1721.3594"/><polygon fill="#181818" points="506.5,1717.3594,516.5,1721.3594,506.5,1725.3594,510.5,1721.3594" style="stroke:#181818;stroke-width:1.0;"/><line style="stroke:#181818;stroke-width:1.0;" x1="760" x2="760" y1="1028.2969" y2="1721.3594"/><line style="stroke:#181818;stroke-width:1.0;" x1="760" x2="540.5" y1="1721.3594" y2="1721.3594"/><polygon fill="#181818" points="550.5,1717.3594,540.5,1721.3594,550.5,1725.3594,546.5,1721.3594" style="stroke:#181818;stroke-width:1.0;"/><line style="stroke:#181818;stroke-width:1.0;" x1="528.5" x2="528.5" y1="889.5938" y2="921.5938"/><polygon fill="#181818" points="524.5,911.5938,528.5,921.5938,532.5,911.5938,528.5,915.5938" style="stroke:#181818;stroke-width:1.0;"/><line style="stroke:#181818;stroke-width:1.0;" x1="1042.75" x2="1042.75" y1="494.9063" y2="579.5156"/><polygon fill="#181818" points="1038.75,569.5156,1042.75,579.5156,1046.75,569.5156,1042.75,573.5156" style="stroke:#181818;stroke-width:1.0;"/><line style="stroke:#181818;stroke-width:1.0;" x1="747.25" x2="528.5" y1="400.2031" y2="400.2031"/><line style="stroke:#181818;stroke-width:1.0;" x1="528.5" x2="528.5" y1="400.2031" y2="459.8125"/><polygon fill="#181818" points="524.5,449.8125,528.5,459.8125,532.5,449.8125,528.5,453.8125" style="stroke:#181818;stroke-width:1.0;"/><line style="stroke:#181818;stroke-width:1.0;" x1="828.25" x2="1042.75" y1="400.2031" y2="400.2031"/><line style="stroke:#181818;stroke-width:1.0;" x1="1042.75" x2="1042.75" y1="400.2031" y2="459.8125"/><polygon fill="#181818" points="1038.75,449.8125,1042.75,459.8125,1046.75,449.8125,1042.75,453.8125" style="stroke:#181818;stroke-width:1.0;"/><line style="stroke:#181818;stroke-width:1.0;" x1="528.5" x2="528.5" y1="1733.3594" y2="1751.3594"/><line style="stroke:#181818;stroke-width:1.0;" x1="528.5" x2="775.75" y1="1751.3594" y2="1751.3594"/><polygon fill="#181818" points="765.75,1747.3594,775.75,1751.3594,765.75,1755.3594,769.75,1751.3594" style="stroke:#181818;stroke-width:1.0;"/><line style="stroke:#181818;stroke-width:1.0;" x1="1042.75" x2="1042.75" y1="614.6094" y2="1751.3594"/><line style="stroke:#181818;stroke-width:1.0;" x1="1042.75" x2="799.75" y1="1751.3594" y2="1751.3594"/><polygon fill="#181818" points="809.75,1747.3594,799.75,1751.3594,809.75,1755.3594,805.75,1751.3594" style="stroke:#181818;stroke-width:1.0;"/><line style="stroke:#181818;stroke-width:1.0;" x1="787.75" x2="787.75" y1="356.2031" y2="388.2031"/><polygon fill="#181818" points="783.75,378.2031,787.75,388.2031,791.75,378.2031,787.75,382.2031" style="stroke:#181818;stroke-width:1.0;"/><line style="stroke:#181818;stroke-width:1.0;" x1="787.75" x2="787.75" y1="1763.3594" y2="1783.3594"/><polygon fill="#181818" points="783.75,1773.3594,787.75,1783.3594,791.75,1773.3594,787.75,1777.3594" style="stroke:#181818;stroke-width:1.0;"/><!--SRC=[jLNBRjim4BphAnRfnJdqqBH07pa4IGsT6g10Ukbn5T7IWY-1f68OXVwzV4YsP2csKw0dozHmTcQuN3boWi7ziwCNSZjO4rO69Ro7-rAIWaUcAYQqG5YZGtWYkyKiivnKWm67myO_6S03FlFAw5QLtxNG1jxbN_A7F0zlj2cPwLTlya_-XL_DjNBzseVyvkl7prddkHqQbsMUtf4ZhU0gAhcA5G2-9LsIoQBb23KAbAX0w8hKxH42RSkvV-cVI43fdngqTkkrJ91S40UdPQ45_4WytKI0T-sOt2juP98PuXOzfSyabWOCL74ZRM0LQU051PLtr-1gfc3r6w-pB3AyvcsiFcW7pdm9MnSQ1ybJWoIezh-g7PrEmdMpIbCJlH65iY4HCefMx85W1Z2aAexs4kX66mci93U3TfS7mBmtV9KXX9o0NbQ4gweji1xXfy4FzATABuGRcM27gWACCL7mTRkyfPVWWvZbiuJZJA0z2KmQjhwDGBQ6ofCmYGqJIMf9n5j79xZ7FVz4il7MVZ8JPA4wREWMSvjtqjArEAezeWfdjzv35cx9cFPitQ7xTib5CxXOLB7OhWqBNLqmKwCbSGRC_U09vt5WZuCbjFnqPxV_nuHbiFf59V9_z7OabHcZpN_GgKhQf6EQI7xhtN5XMxZ0o5j-zaZwnkYBpmjVFi9IE6aSLrYXUElC6JBpOtVXk-9vUf7MwUOl]--></g></svg>