<?xml version="1.0" encoding="us-ascii" standalone="no"?><svg xmlns="http://www.w3.org/2000/svg" xmlns:xlink="http://www.w3.org/1999/xlink" contentStyleType="text/css" height="2077px" preserveAspectRatio="none" style="width:2832px;height:2077px;background:#FFFFFF;" version="1.1" viewBox="0 0 2832 2077" width="2832px" zoomAndPan="magnify"><defs/><g><text fill="#000000" font-family="sans-serif" font-size="14" font-weight="bold" lengthAdjust="spacing" textLength="359" x="1235" y="34.5332">Activity Diagram - Admin Mengelola Data Wali Murid</text><ellipse cx="2246.5" cy="58.6094" fill="#222222" rx="10" ry="10" style="stroke:#222222;stroke-width:1.0;"/><rect fill="none" height="194.8906" style="stroke:#000000;stroke-width:1.5;" width="270" x="2111.5" y="78.6094"/><path d="M2160.5,78.6094 L2160.5,89.2188 L2150.5,99.2188 L2111.5,99.2188 " fill="none" style="stroke:#000000;stroke-width:1.5;"/><text fill="#000000" font-family="sans-serif" font-size="14" lengthAdjust="spacing" textLength="39" x="2114.5" y="94.1426">Admin</text><rect fill="#F8FBFF" height="35.0938" rx="12.5" ry="12.5" style="stroke:#2F4F8F;stroke-width:0.5;" width="196" x="2148.5" y="116.2188"/><text fill="#1F2937" font-family="sans-serif" font-size="12" lengthAdjust="spacing" textLength="176" x="2158.5" y="138.6758">Admin membuka halaman login</text><rect fill="#F8FBFF" height="35.0938" rx="12.5" ry="12.5" style="stroke:#2F4F8F;stroke-width:0.5;" width="250" x="2121.5" y="171.3125"/><text fill="#1F2937" font-family="sans-serif" font-size="12" lengthAdjust="spacing" textLength="230" x="2131.5" y="193.7695">Admin memasukkan email dan password</text><rect fill="#F8FBFF" height="35.0938" rx="12.5" ry="12.5" style="stroke:#2F4F8F;stroke-width:0.5;" width="151" x="2171" y="226.4063"/><text fill="#1F2937" font-family="sans-serif" font-size="12" lengthAdjust="spacing" textLength="131" x="2181" y="248.8633">Admin klik tombol Login</text><rect fill="none" height="84.7031" style="stroke:#000000;stroke-width:1.5;" width="196" x="2148.5" y="283.5"/><path d="M2200.5,283.5 L2200.5,294.1094 L2190.5,304.1094 L2148.5,304.1094 " fill="none" style="stroke:#000000;stroke-width:1.5;"/><text fill="#000000" font-family="sans-serif" font-size="14" lengthAdjust="spacing" textLength="42" x="2151.5" y="299.0332">Sistem</text><rect fill="#F8FBFF" height="35.0938" rx="12.5" ry="12.5" style="stroke:#2F4F8F;stroke-width:0.5;" width="176" x="2158.5" y="321.1094"/><text fill="#1F2937" font-family="sans-serif" font-size="12" lengthAdjust="spacing" textLength="156" x="2168.5" y="343.5664">Memeriksa data login admin</text><polygon fill="#F8FBFF" points="2218,388.2031,2275,388.2031,2287,400.2031,2275,412.2031,2218,412.2031,2206,400.2031,2218,388.2031" style="stroke:#2F4F8F;stroke-width:0.5;"/><text fill="#1F2937" font-family="sans-serif" font-size="11" lengthAdjust="spacing" textLength="57" x="2218" y="404.7041">Login valid?</text><text fill="#000000" font-family="sans-serif" font-size="11" lengthAdjust="spacing" textLength="14" x="2192" y="397.7861">Ya</text><text fill="#000000" font-family="sans-serif" font-size="11" lengthAdjust="spacing" textLength="25" x="2287" y="397.7861">Tidak</text><rect fill="none" height="154.7969" style="stroke:#000000;stroke-width:1.5;" width="247" x="1638.5" y="422.2031"/><path d="M1687.5,422.2031 L1687.5,432.8125 L1677.5,442.8125 L1638.5,442.8125 " fill="none" style="stroke:#000000;stroke-width:1.5;"/><text fill="#000000" font-family="sans-serif" font-size="14" lengthAdjust="spacing" textLength="39" x="1641.5" y="437.7363">Admin</text><rect fill="#F8FBFF" height="35.0938" rx="12.5" ry="12.5" style="stroke:#2F4F8F;stroke-width:0.5;" width="175" x="1674.5" y="459.8125"/><text fill="#1F2937" font-family="sans-serif" font-size="12" lengthAdjust="spacing" textLength="155" x="1684.5" y="482.2695">Admin masuk ke dashboard</text><rect fill="#F8FBFF" height="35.0938" rx="12.5" ry="12.5" style="stroke:#2F4F8F;stroke-width:0.5;" width="227" x="1648.5" y="521.9063"/><text fill="#1F2937" font-family="sans-serif" font-size="12" lengthAdjust="spacing" textLength="207" x="1658.5" y="544.3633">Admin memilih menu Data Wali Murid</text><rect fill="none" height="139.7969" style="stroke:#000000;stroke-width:1.5;" width="247" x="1638.5" y="612"/><path d="M1690.5,612 L1690.5,622.6094 L1680.5,632.6094 L1638.5,632.6094 " fill="none" style="stroke:#000000;stroke-width:1.5;"/><text fill="#000000" font-family="sans-serif" font-size="14" lengthAdjust="spacing" textLength="42" x="1641.5" y="627.5332">Sistem</text><rect fill="#F8FBFF" height="35.0938" rx="12.5" ry="12.5" style="stroke:#2F4F8F;stroke-width:0.5;" width="181" x="1671.5" y="649.6094"/><text fill="#1F2937" font-family="sans-serif" font-size="12" lengthAdjust="spacing" textLength="161" x="1681.5" y="672.0664">Menampilkan data wali murid</text><rect fill="#F8FBFF" height="35.0938" rx="12.5" ry="12.5" style="stroke:#2F4F8F;stroke-width:0.5;" width="227" x="1648.5" y="704.7031"/><text fill="#1F2937" font-family="sans-serif" font-size="12" lengthAdjust="spacing" textLength="207" x="1658.5" y="727.1602">Menampilkan form tambah wali murid</text><rect fill="none" height="84.7031" style="stroke:#000000;stroke-width:1.5;" width="206" x="1659" y="761.7969"/><path d="M1708,761.7969 L1708,772.4063 L1698,782.4063 L1659,782.4063 " fill="none" style="stroke:#000000;stroke-width:1.5;"/><text fill="#000000" font-family="sans-serif" font-size="14" lengthAdjust="spacing" textLength="39" x="1662" y="777.3301">Admin</text><rect fill="#F8FBFF" height="35.0938" rx="12.5" ry="12.5" style="stroke:#2F4F8F;stroke-width:0.5;" width="186" x="1669" y="799.4063"/><text fill="#1F2937" font-family="sans-serif" font-size="12" lengthAdjust="spacing" textLength="166" x="1679" y="821.8633">Admin melihat data wali murid</text><polygon fill="#F8FBFF" points="1668,866.5,1856,866.5,1868,878.5,1856,890.5,1668,890.5,1656,878.5,1668,866.5" style="stroke:#2F4F8F;stroke-width:0.5;"/><text fill="#1F2937" font-family="sans-serif" font-size="11" lengthAdjust="spacing" textLength="188" x="1668" y="883.001">Admin ingin mengelola data wali murid?</text><text fill="#000000" font-family="sans-serif" font-size="11" lengthAdjust="spacing" textLength="14" x="1642" y="876.083">Ya</text><text fill="#000000" font-family="sans-serif" font-size="11" lengthAdjust="spacing" textLength="25" x="1868" y="876.083">Tidak</text><rect fill="none" height="84.7031" style="stroke:#000000;stroke-width:1.5;" width="209" x="1027.5" y="900.5"/><path d="M1076.5,900.5 L1076.5,911.1094 L1066.5,921.1094 L1027.5,921.1094 " fill="none" style="stroke:#000000;stroke-width:1.5;"/><text fill="#000000" font-family="sans-serif" font-size="14" lengthAdjust="spacing" textLength="39" x="1030.5" y="916.0332">Admin</text><rect fill="#F8FBFF" height="35.0938" rx="12.5" ry="12.5" style="stroke:#2F4F8F;stroke-width:0.5;" width="189" x="1037.5" y="938.1094"/><text fill="#1F2937" font-family="sans-serif" font-size="12" lengthAdjust="spacing" textLength="169" x="1047.5" y="960.5664">Admin memilih aksi wali murid</text><polygon fill="#F8FBFF" points="279.5,1005.2031,362.5,1005.2031,374.5,1017.2031,362.5,1029.2031,279.5,1029.2031,267.5,1017.2031,279.5,1005.2031" style="stroke:#2F4F8F;stroke-width:0.5;"/><text fill="#000000" font-family="sans-serif" font-size="11" lengthAdjust="spacing" textLength="87" x="325" y="1040.6221">Tambah / Edit Wali</text><text fill="#1F2937" font-family="sans-serif" font-size="11" lengthAdjust="spacing" textLength="83" x="279.5" y="1021.7041">Aksi yang dipilih?</text><rect fill="none" height="442.0078" style="stroke:#000000;stroke-width:1.5;" width="232" x="205" y="1063.0391"/><path d="M254,1063.0391 L254,1073.6484 L244,1083.6484 L205,1083.6484 " fill="none" style="stroke:#000000;stroke-width:1.5;"/><text fill="#000000" font-family="sans-serif" font-size="14" lengthAdjust="spacing" textLength="39" x="208" y="1078.5723">Admin</text><rect fill="#F8FBFF" height="35.0938" rx="12.5" ry="12.5" style="stroke:#2F4F8F;stroke-width:0.5;" width="198" x="222" y="1100.6484"/><text fill="#1F2937" font-family="sans-serif" font-size="12" lengthAdjust="spacing" textLength="178" x="232" y="1123.1055">Admin mengisi nama wali murid</text><rect fill="#F8FBFF" height="35.0938" rx="12.5" ry="12.5" style="stroke:#2F4F8F;stroke-width:0.5;" width="186" x="228" y="1169.5781"/><text fill="#1F2937" font-family="sans-serif" font-size="12" lengthAdjust="spacing" textLength="166" x="238" y="1192.0352">Admin mengisi nomor telepon</text><rect fill="#F8FBFF" height="35.0938" rx="12.5" ry="12.5" style="stroke:#2F4F8F;stroke-width:0.5;" width="162" x="240" y="1239.6719"/><text fill="#1F2937" font-family="sans-serif" font-size="12" lengthAdjust="spacing" textLength="142" x="250" y="1262.1289">Admin mengisi hubungan</text><rect fill="#F8FBFF" height="35.0938" rx="12.5" ry="12.5" style="stroke:#2F4F8F;stroke-width:0.5;" width="161" x="240.5" y="1309.7656"/><text fill="#1F2937" font-family="sans-serif" font-size="12" lengthAdjust="spacing" textLength="141" x="250.5" y="1332.2227">Admin mengisi pekerjaan</text><rect fill="#F8FBFF" height="35.0938" rx="12.5" ry="12.5" style="stroke:#2F4F8F;stroke-width:0.5;" width="144" x="249" y="1379.8594"/><text fill="#1F2937" font-family="sans-serif" font-size="12" lengthAdjust="spacing" textLength="124" x="259" y="1402.3164">Admin mengisi alamat</text><rect fill="#F8FBFF" height="35.0938" rx="12.5" ry="12.5" style="stroke:#2F4F8F;stroke-width:0.5;" width="212" x="215" y="1449.9531"/><text fill="#1F2937" font-family="sans-serif" font-size="12" lengthAdjust="spacing" textLength="192" x="225" y="1472.4102">Admin klik tombol Simpan / Proses</text><rect fill="none" height="92.7031" style="stroke:#000000;stroke-width:1.5;" width="188" x="227" y="1540.0469"/><path d="M279,1540.0469 L279,1550.6563 L269,1560.6563 L227,1560.6563 " fill="none" style="stroke:#000000;stroke-width:1.5;"/><text fill="#000000" font-family="sans-serif" font-size="14" lengthAdjust="spacing" textLength="42" x="230" y="1555.5801">Sistem</text><rect fill="#F8FBFF" height="35.0938" rx="12.5" ry="12.5" style="stroke:#2F4F8F;stroke-width:0.5;" width="168" x="237" y="1577.6563"/><text fill="#1F2937" font-family="sans-serif" font-size="12" lengthAdjust="spacing" textLength="148" x="247" y="1600.1133">Memeriksa data wali murid</text><polygon fill="#F8FBFF" points="268.5,1667.75,373.5,1667.75,385.5,1679.75,373.5,1691.75,268.5,1691.75,256.5,1679.75,268.5,1667.75" style="stroke:#2F4F8F;stroke-width:0.5;"/><text fill="#1F2937" font-family="sans-serif" font-size="11" lengthAdjust="spacing" textLength="105" x="268.5" y="1684.251">Data wali murid valid?</text><text fill="#000000" font-family="sans-serif" font-size="11" lengthAdjust="spacing" textLength="14" x="242.5" y="1677.333">Ya</text><text fill="#000000" font-family="sans-serif" font-size="11" lengthAdjust="spacing" textLength="25" x="385.5" y="1677.333">Tidak</text><rect fill="none" height="212.8086" style="stroke:#000000;stroke-width:1.5;" width="300" x="11" y="1701.75"/><path d="M63,1701.75 L63,1712.3594 L53,1722.3594 L11,1722.3594 " fill="none" style="stroke:#000000;stroke-width:1.5;"/><text fill="#000000" font-family="sans-serif" font-size="14" lengthAdjust="spacing" textLength="42" x="14" y="1717.2832">Sistem</text><rect fill="#F8FBFF" height="35.0938" rx="12.5" ry="12.5" style="stroke:#2F4F8F;stroke-width:0.5;" width="233" x="44.5" y="1739.3594"/><text fill="#1F2937" font-family="sans-serif" font-size="12" lengthAdjust="spacing" textLength="213" x="54.5" y="1761.8164">Menyimpan perubahan data wali murid</text><rect fill="#F8FBFF" height="35.0938" rx="12.5" ry="12.5" style="stroke:#2F4F8F;stroke-width:0.5;" width="180" x="71" y="1805.3711"/><text fill="#1F2937" font-family="sans-serif" font-size="12" lengthAdjust="spacing" textLength="160" x="81" y="1827.8281">Menampilkan pesan berhasil</text><rect fill="#F8FBFF" height="35.0938" rx="12.5" ry="12.5" style="stroke:#2F4F8F;stroke-width:0.5;" width="280" x="21" y="1867.4648"/><text fill="#1F2937" font-family="sans-serif" font-size="12" lengthAdjust="spacing" textLength="260" x="31" y="1889.9219">Menampilkan kembali data wali murid dan form</text><rect fill="none" height="150.7148" style="stroke:#000000;stroke-width:1.5;" width="300" x="331" y="1701.75"/><path d="M383,1701.75 L383,1712.3594 L373,1722.3594 L331,1722.3594 " fill="none" style="stroke:#000000;stroke-width:1.5;"/><text fill="#000000" font-family="sans-serif" font-size="14" lengthAdjust="spacing" textLength="42" x="334" y="1717.2832">Sistem</text><rect fill="#F8FBFF" height="35.0938" rx="12.5" ry="12.5" style="stroke:#2F4F8F;stroke-width:0.5;" width="161" x="400.5" y="1739.3594"/><text fill="#1F2937" font-family="sans-serif" font-size="12" lengthAdjust="spacing" textLength="141" x="410.5" y="1761.8164">Menampilkan pesan error</text><rect fill="#F8FBFF" height="35.0938" rx="12.5" ry="12.5" style="stroke:#2F4F8F;stroke-width:0.5;" width="280" x="341" y="1805.3711"/><text fill="#1F2937" font-family="sans-serif" font-size="12" lengthAdjust="spacing" textLength="260" x="351" y="1827.8281">Menampilkan kembali data wali murid dan form</text><polygon fill="#F8FBFF" points="321,1920.5586,333,1932.5586,321,1944.5586,309,1932.5586,321,1920.5586" style="stroke:#2F4F8F;stroke-width:0.5;"/><polygon fill="#F8FBFF" points="914.5,1005.2031,987.5,1005.2031,999.5,1017.2031,987.5,1029.2031,914.5,1029.2031,902.5,1017.2031,914.5,1005.2031" style="stroke:#2F4F8F;stroke-width:0.5;"/><text fill="#1F2937" font-family="sans-serif" font-size="11" lengthAdjust="spacing" textLength="73" x="914.5" y="1021.7041">Buat Akun Wali</text><rect fill="none" height="231.7266" style="stroke:#000000;stroke-width:1.5;" width="295" x="803.5" y="1049.2031"/><path d="M852.5,1049.2031 L852.5,1059.8125 L842.5,1069.8125 L803.5,1069.8125 " fill="none" style="stroke:#000000;stroke-width:1.5;"/><text fill="#000000" font-family="sans-serif" font-size="14" lengthAdjust="spacing" textLength="39" x="806.5" y="1064.7363">Admin</text><rect fill="#F8FBFF" height="35.0938" rx="12.5" ry="12.5" style="stroke:#2F4F8F;stroke-width:0.5;" width="275" x="813.5" y="1086.8125"/><text fill="#1F2937" font-family="sans-serif" font-size="12" lengthAdjust="spacing" textLength="255" x="823.5" y="1109.2695">Admin memilih wali yang belum memiliki akun</text><rect fill="#F8FBFF" height="35.0938" rx="12.5" ry="12.5" style="stroke:#2F4F8F;stroke-width:0.5;" width="274" x="814" y="1155.7422"/><text fill="#1F2937" font-family="sans-serif" font-size="12" lengthAdjust="spacing" textLength="254" x="824" y="1178.1992">Admin mengisi email dan password akun wali</text><rect fill="#F8FBFF" height="35.0938" rx="12.5" ry="12.5" style="stroke:#2F4F8F;stroke-width:0.5;" width="175" x="863.5" y="1225.8359"/><text fill="#1F2937" font-family="sans-serif" font-size="12" lengthAdjust="spacing" textLength="155" x="873.5" y="1248.293">Admin klik tombol Buat Akun</text><rect fill="none" height="92.7031" style="stroke:#000000;stroke-width:1.5;" width="183" x="859.5" y="1315.9297"/><path d="M911.5,1315.9297 L911.5,1326.5391 L901.5,1336.5391 L859.5,1336.5391 " fill="none" style="stroke:#000000;stroke-width:1.5;"/><text fill="#000000" font-family="sans-serif" font-size="14" lengthAdjust="spacing" textLength="42" x="862.5" y="1331.4629">Sistem</text><rect fill="#F8FBFF" height="35.0938" rx="12.5" ry="12.5" style="stroke:#2F4F8F;stroke-width:0.5;" width="163" x="869.5" y="1353.5391"/><text fill="#1F2937" font-family="sans-serif" font-size="12" lengthAdjust="spacing" textLength="143" x="879.5" y="1375.9961">Memeriksa data akun wali</text><polygon fill="#F8FBFF" points="911.5,1443.6328,990.5,1443.6328,1002.5,1455.6328,990.5,1467.6328,911.5,1467.6328,899.5,1455.6328,911.5,1443.6328" style="stroke:#2F4F8F;stroke-width:0.5;"/><text fill="#1F2937" font-family="sans-serif" font-size="11" lengthAdjust="spacing" textLength="79" x="911.5" y="1460.1338">Data akun valid?</text><text fill="#000000" font-family="sans-serif" font-size="11" lengthAdjust="spacing" textLength="14" x="885.5" y="1453.2158">Ya</text><text fill="#000000" font-family="sans-serif" font-size="11" lengthAdjust="spacing" textLength="25" x="1002.5" y="1453.2158">Tidak</text><rect fill="none" height="232.8906" style="stroke:#000000;stroke-width:1.5;" width="300" x="641" y="1477.6328"/><path d="M693,1477.6328 L693,1488.2422 L683,1498.2422 L641,1498.2422 " fill="none" style="stroke:#000000;stroke-width:1.5;"/><text fill="#000000" font-family="sans-serif" font-size="14" lengthAdjust="spacing" textLength="42" x="644" y="1493.166">Sistem</text><rect fill="#F8FBFF" height="35.0938" rx="12.5" ry="12.5" style="stroke:#2F4F8F;stroke-width:0.5;" width="191" x="695.5" y="1515.2422"/><text fill="#1F2937" font-family="sans-serif" font-size="12" lengthAdjust="spacing" textLength="171" x="705.5" y="1537.6992">Membuat akun login wali murid</text><rect fill="#F8FBFF" height="35.0938" rx="12.5" ry="12.5" style="stroke:#2F4F8F;stroke-width:0.5;" width="180" x="701" y="1585.3359"/><text fill="#1F2937" font-family="sans-serif" font-size="12" lengthAdjust="spacing" textLength="160" x="711" y="1607.793">Menampilkan pesan berhasil</text><rect fill="#F8FBFF" height="35.0938" rx="12.5" ry="12.5" style="stroke:#2F4F8F;stroke-width:0.5;" width="280" x="651" y="1655.4297"/><text fill="#1F2937" font-family="sans-serif" font-size="12" lengthAdjust="spacing" textLength="260" x="661" y="1677.8867">Menampilkan kembali data wali murid dan form</text><rect fill="none" height="162.7969" style="stroke:#000000;stroke-width:1.5;" width="300" x="961" y="1477.6328"/><path d="M1013,1477.6328 L1013,1488.2422 L1003,1498.2422 L961,1498.2422 " fill="none" style="stroke:#000000;stroke-width:1.5;"/><text fill="#000000" font-family="sans-serif" font-size="14" lengthAdjust="spacing" textLength="42" x="964" y="1493.166">Sistem</text><rect fill="#F8FBFF" height="35.0938" rx="12.5" ry="12.5" style="stroke:#2F4F8F;stroke-width:0.5;" width="161" x="1030.5" y="1515.2422"/><text fill="#1F2937" font-family="sans-serif" font-size="12" lengthAdjust="spacing" textLength="141" x="1040.5" y="1537.6992">Menampilkan pesan error</text><rect fill="#F8FBFF" height="35.0938" rx="12.5" ry="12.5" style="stroke:#2F4F8F;stroke-width:0.5;" width="280" x="971" y="1585.3359"/><text fill="#1F2937" font-family="sans-serif" font-size="12" lengthAdjust="spacing" textLength="260" x="981" y="1607.793">Menampilkan kembali data wali murid dan form</text><polygon fill="#F8FBFF" points="951,1716.5234,963,1728.5234,951,1740.5234,939,1728.5234,951,1716.5234" style="stroke:#2F4F8F;stroke-width:0.5;"/><polygon fill="#F8FBFF" points="1413.5,1005.2031,1470.5,1005.2031,1482.5,1017.2031,1470.5,1029.2031,1413.5,1029.2031,1401.5,1017.2031,1413.5,1005.2031" style="stroke:#2F4F8F;stroke-width:0.5;"/><text fill="#1F2937" font-family="sans-serif" font-size="11" lengthAdjust="spacing" textLength="57" x="1413.5" y="1021.7041">Lihat Siswa</text><text fill="#000000" font-family="sans-serif" font-size="11" lengthAdjust="spacing" textLength="54" x="1482.5" y="1014.7861">Hapus Wali</text><rect fill="none" height="161.6328" style="stroke:#000000;stroke-width:1.5;" width="199" x="1342.5" y="1049.2031"/><path d="M1391.5,1049.2031 L1391.5,1059.8125 L1381.5,1069.8125 L1342.5,1069.8125 " fill="none" style="stroke:#000000;stroke-width:1.5;"/><text fill="#000000" font-family="sans-serif" font-size="14" lengthAdjust="spacing" textLength="39" x="1345.5" y="1064.7363">Admin</text><rect fill="#F8FBFF" height="35.0938" rx="12.5" ry="12.5" style="stroke:#2F4F8F;stroke-width:0.5;" width="163" x="1360.5" y="1086.8125"/><text fill="#1F2937" font-family="sans-serif" font-size="12" lengthAdjust="spacing" textLength="143" x="1370.5" y="1109.2695">Admin memilih wali murid</text><rect fill="#F8FBFF" height="35.0938" rx="12.5" ry="12.5" style="stroke:#2F4F8F;stroke-width:0.5;" width="179" x="1352.5" y="1155.7422"/><text fill="#1F2937" font-family="sans-serif" font-size="12" lengthAdjust="spacing" textLength="159" x="1362.5" y="1178.1992">Admin klik tombol lihat siswa</text><rect fill="none" height="92.7031" style="stroke:#000000;stroke-width:1.5;" width="342" x="1271" y="1245.8359"/><path d="M1323,1245.8359 L1323,1256.4453 L1313,1266.4453 L1271,1266.4453 " fill="none" style="stroke:#000000;stroke-width:1.5;"/><text fill="#000000" font-family="sans-serif" font-size="14" lengthAdjust="spacing" textLength="42" x="1274" y="1261.3691">Sistem</text><rect fill="#F8FBFF" height="35.0938" rx="12.5" ry="12.5" style="stroke:#2F4F8F;stroke-width:0.5;" width="322" x="1281" y="1283.4453"/><text fill="#1F2937" font-family="sans-serif" font-size="12" lengthAdjust="spacing" textLength="302" x="1291" y="1305.9023">Menampilkan daftar siswa yang terhubung dengan wali</text><rect fill="none" height="162.7969" style="stroke:#000000;stroke-width:1.5;" width="290" x="1788" y="1198.1445"/><path d="M1837,1198.1445 L1837,1208.7539 L1827,1218.7539 L1788,1218.7539 " fill="none" style="stroke:#000000;stroke-width:1.5;"/><text fill="#000000" font-family="sans-serif" font-size="14" lengthAdjust="spacing" textLength="39" x="1791" y="1213.6777">Admin</text><rect fill="#F8FBFF" height="35.0938" rx="12.5" ry="12.5" style="stroke:#2F4F8F;stroke-width:0.5;" width="270" x="1798" y="1235.7539"/><text fill="#1F2937" font-family="sans-serif" font-size="12" lengthAdjust="spacing" textLength="250" x="1808" y="1258.2109">Admin memilih wali murid yang akan dihapus</text><rect fill="#F8FBFF" height="35.0938" rx="12.5" ry="12.5" style="stroke:#2F4F8F;stroke-width:0.5;" width="218" x="1824" y="1305.8477"/><text fill="#1F2937" font-family="sans-serif" font-size="12" lengthAdjust="spacing" textLength="198" x="1834" y="1328.3047">Admin melakukan konfirmasi hapus</text><rect fill="none" height="92.7031" style="stroke:#000000;stroke-width:1.5;" width="247" x="1809.5" y="1395.9414"/><path d="M1861.5,1395.9414 L1861.5,1406.5508 L1851.5,1416.5508 L1809.5,1416.5508 " fill="none" style="stroke:#000000;stroke-width:1.5;"/><text fill="#000000" font-family="sans-serif" font-size="14" lengthAdjust="spacing" textLength="42" x="1812.5" y="1411.4746">Sistem</text><rect fill="#F8FBFF" height="35.0938" rx="12.5" ry="12.5" style="stroke:#2F4F8F;stroke-width:0.5;" width="227" x="1819.5" y="1433.5508"/><text fill="#1F2937" font-family="sans-serif" font-size="12" lengthAdjust="spacing" textLength="207" x="1829.5" y="1456.0078">Memeriksa data wali dan relasi siswa</text><polygon fill="#F8FBFF" points="1870,1523.6445,1996,1523.6445,2008,1535.6445,1996,1547.6445,1870,1547.6445,1858,1535.6445,1870,1523.6445" style="stroke:#2F4F8F;stroke-width:0.5;"/><text fill="#1F2937" font-family="sans-serif" font-size="11" lengthAdjust="spacing" textLength="126" x="1870" y="1540.1455">Wali murid dapat dihapus?</text><text fill="#000000" font-family="sans-serif" font-size="11" lengthAdjust="spacing" textLength="14" x="1844" y="1533.2275">Ya</text><text fill="#000000" font-family="sans-serif" font-size="11" lengthAdjust="spacing" textLength="25" x="2008" y="1533.2275">Tidak</text><rect fill="none" height="228.8086" style="stroke:#000000;stroke-width:1.5;" width="300" x="1623" y="1557.6445"/><path d="M1675,1557.6445 L1675,1568.2539 L1665,1578.2539 L1623,1578.2539 " fill="none" style="stroke:#000000;stroke-width:1.5;"/><text fill="#000000" font-family="sans-serif" font-size="14" lengthAdjust="spacing" textLength="42" x="1626" y="1573.1777">Sistem</text><rect fill="#F8FBFF" height="35.0938" rx="12.5" ry="12.5" style="stroke:#2F4F8F;stroke-width:0.5;" width="172" x="1687" y="1595.2539"/><text fill="#1F2937" font-family="sans-serif" font-size="12" lengthAdjust="spacing" textLength="152" x="1697" y="1617.7109">Menghapus data wali murid</text><rect fill="#F8FBFF" height="35.0938" rx="12.5" ry="12.5" style="stroke:#2F4F8F;stroke-width:0.5;" width="180" x="1683" y="1665.3477"/><text fill="#1F2937" font-family="sans-serif" font-size="12" lengthAdjust="spacing" textLength="160" x="1693" y="1687.8047">Menampilkan pesan berhasil</text><rect fill="#F8FBFF" height="35.0938" rx="12.5" ry="12.5" style="stroke:#2F4F8F;stroke-width:0.5;" width="280" x="1633" y="1735.4414"/><text fill="#1F2937" font-family="sans-serif" font-size="12" lengthAdjust="spacing" textLength="260" x="1643" y="1757.8984">Menampilkan kembali data wali murid dan form</text><rect fill="none" height="162.7969" style="stroke:#000000;stroke-width:1.5;" width="300" x="1943" y="1557.6445"/><path d="M1995,1557.6445 L1995,1568.2539 L1985,1578.2539 L1943,1578.2539 " fill="none" style="stroke:#000000;stroke-width:1.5;"/><text fill="#000000" font-family="sans-serif" font-size="14" lengthAdjust="spacing" textLength="42" x="1946" y="1573.1777">Sistem</text><rect fill="#F8FBFF" height="35.0938" rx="12.5" ry="12.5" style="stroke:#2F4F8F;stroke-width:0.5;" width="161" x="2012.5" y="1595.2539"/><text fill="#1F2937" font-family="sans-serif" font-size="12" lengthAdjust="spacing" textLength="141" x="2022.5" y="1617.7109">Menampilkan pesan error</text><rect fill="#F8FBFF" height="35.0938" rx="12.5" ry="12.5" style="stroke:#2F4F8F;stroke-width:0.5;" width="280" x="1953" y="1665.3477"/><text fill="#1F2937" font-family="sans-serif" font-size="12" lengthAdjust="spacing" textLength="260" x="1963" y="1687.8047">Menampilkan kembali data wali murid dan form</text><polygon fill="#F8FBFF" points="1933,1792.4531,1945,1804.4531,1933,1816.4531,1921,1804.4531,1933,1792.4531" style="stroke:#2F4F8F;stroke-width:0.5;"/><rect fill="none" height="84.7031" style="stroke:#000000;stroke-width:1.5;" width="318" x="2273" y="900.5"/><path d="M2322,900.5 L2322,911.1094 L2312,921.1094 L2273,921.1094 " fill="none" style="stroke:#000000;stroke-width:1.5;"/><text fill="#000000" font-family="sans-serif" font-size="14" lengthAdjust="spacing" textLength="39" x="2276" y="916.0332">Admin</text><rect fill="#F8FBFF" height="35.0938" rx="12.5" ry="12.5" style="stroke:#2F4F8F;stroke-width:0.5;" width="298" x="2283" y="938.1094"/><text fill="#1F2937" font-family="sans-serif" font-size="12" lengthAdjust="spacing" textLength="278" x="2293" y="960.5664">Admin tidak melakukan perubahan data wali murid</text><polygon fill="#F8FBFF" points="1762,1970.5586,1774,1982.5586,1762,1994.5586,1750,1982.5586,1762,1970.5586" style="stroke:#2F4F8F;stroke-width:0.5;"/><rect fill="none" height="84.7031" style="stroke:#000000;stroke-width:1.5;" width="216" x="2603" y="422.2031"/><path d="M2655,422.2031 L2655,432.8125 L2645,442.8125 L2603,442.8125 " fill="none" style="stroke:#000000;stroke-width:1.5;"/><text fill="#000000" font-family="sans-serif" font-size="14" lengthAdjust="spacing" textLength="42" x="2606" y="437.7363">Sistem</text><rect fill="#F8FBFF" height="35.0938" rx="12.5" ry="12.5" style="stroke:#2F4F8F;stroke-width:0.5;" width="196" x="2613" y="459.8125"/><text fill="#1F2937" font-family="sans-serif" font-size="12" lengthAdjust="spacing" textLength="176" x="2623" y="482.2695">Menampilkan pesan login gagal</text><rect fill="none" height="92.7031" style="stroke:#000000;stroke-width:1.5;" width="220" x="2601" y="541.9063"/><path d="M2650,541.9063 L2650,552.5156 L2640,562.5156 L2601,562.5156 " fill="none" style="stroke:#000000;stroke-width:1.5;"/><text fill="#000000" font-family="sans-serif" font-size="14" lengthAdjust="spacing" textLength="39" x="2604" y="557.4395">Admin</text><rect fill="#F8FBFF" height="35.0938" rx="12.5" ry="12.5" style="stroke:#2F4F8F;stroke-width:0.5;" width="200" x="2611" y="579.5156"/><text fill="#1F2937" font-family="sans-serif" font-size="12" lengthAdjust="spacing" textLength="180" x="2621" y="601.9727">Admin kembali ke halaman login</text><polygon fill="#F8FBFF" points="2246.5,2000.5586,2258.5,2012.5586,2246.5,2024.5586,2234.5,2012.5586,2246.5,2000.5586" style="stroke:#2F4F8F;stroke-width:0.5;"/><ellipse cx="2246.5" cy="2055.5586" fill="none" rx="11" ry="11" style="stroke:#222222;stroke-width:1.0;"/><ellipse cx="2246.5" cy="2055.5586" fill="#222222" rx="6" ry="6" style="stroke:#222222;stroke-width:1.0;"/><line style="stroke:#181818;stroke-width:1.0;" x1="2246.5" x2="2246.5" y1="151.3125" y2="171.3125"/><polygon fill="#181818" points="2242.5,161.3125,2246.5,171.3125,2250.5,161.3125,2246.5,165.3125" style="stroke:#181818;stroke-width:1.0;"/><line style="stroke:#181818;stroke-width:1.0;" x1="2246.5" x2="2246.5" y1="206.4063" y2="226.4063"/><polygon fill="#181818" points="2242.5,216.4063,2246.5,226.4063,2250.5,216.4063,2246.5,220.4063" style="stroke:#181818;stroke-width:1.0;"/><line style="stroke:#181818;stroke-width:1.0;" x1="2246.5" x2="2246.5" y1="68.6094" y2="116.2188"/><polygon fill="#181818" points="2242.5,106.2188,2246.5,116.2188,2250.5,106.2188,2246.5,110.2188" style="stroke:#181818;stroke-width:1.0;"/><line style="stroke:#181818;stroke-width:1.0;" x1="2246.5" x2="2246.5" y1="261.5" y2="321.1094"/><polygon fill="#181818" points="2242.5,311.1094,2246.5,321.1094,2250.5,311.1094,2246.5,315.1094" style="stroke:#181818;stroke-width:1.0;"/><line style="stroke:#181818;stroke-width:1.0;" x1="1762" x2="1762" y1="494.9063" y2="521.9063"/><polygon fill="#181818" points="1758,511.9063,1762,521.9063,1766,511.9063,1762,515.9063" style="stroke:#181818;stroke-width:1.0;"/><line style="stroke:#181818;stroke-width:1.0;" x1="1762" x2="1762" y1="684.7031" y2="704.7031"/><polygon fill="#181818" points="1758,694.7031,1762,704.7031,1766,694.7031,1762,698.7031" style="stroke:#181818;stroke-width:1.0;"/><line style="stroke:#181818;stroke-width:1.0;" x1="1762" x2="1762" y1="557" y2="649.6094"/><polygon fill="#181818" points="1758,639.6094,1762,649.6094,1766,639.6094,1762,643.6094" style="stroke:#181818;stroke-width:1.0;"/><line style="stroke:#181818;stroke-width:1.0;" x1="1762" x2="1762" y1="739.7969" y2="799.4063"/><polygon fill="#181818" points="1758,789.4063,1762,799.4063,1766,789.4063,1762,793.4063" style="stroke:#181818;stroke-width:1.0;"/><line style="stroke:#181818;stroke-width:1.0;" x1="321" x2="321" y1="1135.7422" y2="1169.5781"/><polygon fill="#181818" points="317,1159.5781,321,1169.5781,325,1159.5781,321,1163.5781" style="stroke:#181818;stroke-width:1.0;"/><line style="stroke:#181818;stroke-width:1.0;" x1="321" x2="321" y1="1204.6719" y2="1239.6719"/><polygon fill="#181818" points="317,1229.6719,321,1239.6719,325,1229.6719,321,1233.6719" style="stroke:#181818;stroke-width:1.0;"/><line style="stroke:#181818;stroke-width:1.0;" x1="321" x2="321" y1="1274.7656" y2="1309.7656"/><polygon fill="#181818" points="317,1299.7656,321,1309.7656,325,1299.7656,321,1303.7656" style="stroke:#181818;stroke-width:1.0;"/><line style="stroke:#181818;stroke-width:1.0;" x1="321" x2="321" y1="1344.8594" y2="1379.8594"/><polygon fill="#181818" points="317,1369.8594,321,1379.8594,325,1369.8594,321,1373.8594" style="stroke:#181818;stroke-width:1.0;"/><line style="stroke:#181818;stroke-width:1.0;" x1="321" x2="321" y1="1414.9531" y2="1449.9531"/><polygon fill="#181818" points="317,1439.9531,321,1449.9531,325,1439.9531,321,1443.9531" style="stroke:#181818;stroke-width:1.0;"/><line style="stroke:#181818;stroke-width:1.0;" x1="321" x2="321" y1="1485.0469" y2="1577.6563"/><polygon fill="#181818" points="317,1567.6563,321,1577.6563,325,1567.6563,321,1571.6563" style="stroke:#181818;stroke-width:1.0;"/><line style="stroke:#181818;stroke-width:1.0;" x1="161" x2="161" y1="1774.4531" y2="1805.3711"/><polygon fill="#181818" points="157,1795.3711,161,1805.3711,165,1795.3711,161,1799.3711" style="stroke:#181818;stroke-width:1.0;"/><line style="stroke:#181818;stroke-width:1.0;" x1="161" x2="161" y1="1840.4648" y2="1867.4648"/><polygon fill="#181818" points="157,1857.4648,161,1867.4648,165,1857.4648,161,1861.4648" style="stroke:#181818;stroke-width:1.0;"/><line style="stroke:#181818;stroke-width:1.0;" x1="481" x2="481" y1="1774.4531" y2="1805.3711"/><polygon fill="#181818" points="477,1795.3711,481,1805.3711,485,1795.3711,481,1799.3711" style="stroke:#181818;stroke-width:1.0;"/><line style="stroke:#181818;stroke-width:1.0;" x1="256.5" x2="161" y1="1679.75" y2="1679.75"/><line style="stroke:#181818;stroke-width:1.0;" x1="161" x2="161" y1="1679.75" y2="1739.3594"/><polygon fill="#181818" points="157,1729.3594,161,1739.3594,165,1729.3594,161,1733.3594" style="stroke:#181818;stroke-width:1.0;"/><line style="stroke:#181818;stroke-width:1.0;" x1="385.5" x2="481" y1="1679.75" y2="1679.75"/><line style="stroke:#181818;stroke-width:1.0;" x1="481" x2="481" y1="1679.75" y2="1739.3594"/><polygon fill="#181818" points="477,1729.3594,481,1739.3594,485,1729.3594,481,1733.3594" style="stroke:#181818;stroke-width:1.0;"/><line style="stroke:#181818;stroke-width:1.0;" x1="161" x2="161" y1="1902.5586" y2="1932.5586"/><line style="stroke:#181818;stroke-width:1.0;" x1="161" x2="309" y1="1932.5586" y2="1932.5586"/><polygon fill="#181818" points="299,1928.5586,309,1932.5586,299,1936.5586,303,1932.5586" style="stroke:#181818;stroke-width:1.0;"/><line style="stroke:#181818;stroke-width:1.0;" x1="481" x2="481" y1="1840.4648" y2="1932.5586"/><line style="stroke:#181818;stroke-width:1.0;" x1="481" x2="333" y1="1932.5586" y2="1932.5586"/><polygon fill="#181818" points="343,1928.5586,333,1932.5586,343,1936.5586,339,1932.5586" style="stroke:#181818;stroke-width:1.0;"/><line style="stroke:#181818;stroke-width:1.0;" x1="321" x2="321" y1="1612.75" y2="1667.75"/><polygon fill="#181818" points="317,1657.75,321,1667.75,325,1657.75,321,1661.75" style="stroke:#181818;stroke-width:1.0;"/><line style="stroke:#181818;stroke-width:1.0;" x1="951" x2="951" y1="1121.9063" y2="1155.7422"/><polygon fill="#181818" points="947,1145.7422,951,1155.7422,955,1145.7422,951,1149.7422" style="stroke:#181818;stroke-width:1.0;"/><line style="stroke:#181818;stroke-width:1.0;" x1="951" x2="951" y1="1190.8359" y2="1225.8359"/><polygon fill="#181818" points="947,1215.8359,951,1225.8359,955,1215.8359,951,1219.8359" style="stroke:#181818;stroke-width:1.0;"/><line style="stroke:#181818;stroke-width:1.0;" x1="951" x2="951" y1="1260.9297" y2="1353.5391"/><polygon fill="#181818" points="947,1343.5391,951,1353.5391,955,1343.5391,951,1347.5391" style="stroke:#181818;stroke-width:1.0;"/><line style="stroke:#181818;stroke-width:1.0;" x1="791" x2="791" y1="1550.3359" y2="1585.3359"/><polygon fill="#181818" points="787,1575.3359,791,1585.3359,795,1575.3359,791,1579.3359" style="stroke:#181818;stroke-width:1.0;"/><line style="stroke:#181818;stroke-width:1.0;" x1="791" x2="791" y1="1620.4297" y2="1655.4297"/><polygon fill="#181818" points="787,1645.4297,791,1655.4297,795,1645.4297,791,1649.4297" style="stroke:#181818;stroke-width:1.0;"/><line style="stroke:#181818;stroke-width:1.0;" x1="1111" x2="1111" y1="1550.3359" y2="1585.3359"/><polygon fill="#181818" points="1107,1575.3359,1111,1585.3359,1115,1575.3359,1111,1579.3359" style="stroke:#181818;stroke-width:1.0;"/><line style="stroke:#181818;stroke-width:1.0;" x1="899.5" x2="791" y1="1455.6328" y2="1455.6328"/><line style="stroke:#181818;stroke-width:1.0;" x1="791" x2="791" y1="1455.6328" y2="1515.2422"/><polygon fill="#181818" points="787,1505.2422,791,1515.2422,795,1505.2422,791,1509.2422" style="stroke:#181818;stroke-width:1.0;"/><line style="stroke:#181818;stroke-width:1.0;" x1="1002.5" x2="1111" y1="1455.6328" y2="1455.6328"/><line style="stroke:#181818;stroke-width:1.0;" x1="1111" x2="1111" y1="1455.6328" y2="1515.2422"/><polygon fill="#181818" points="1107,1505.2422,1111,1515.2422,1115,1505.2422,1111,1509.2422" style="stroke:#181818;stroke-width:1.0;"/><line style="stroke:#181818;stroke-width:1.0;" x1="791" x2="791" y1="1690.5234" y2="1728.5234"/><line style="stroke:#181818;stroke-width:1.0;" x1="791" x2="939" y1="1728.5234" y2="1728.5234"/><polygon fill="#181818" points="929,1724.5234,939,1728.5234,929,1732.5234,933,1728.5234" style="stroke:#181818;stroke-width:1.0;"/><line style="stroke:#181818;stroke-width:1.0;" x1="1111" x2="1111" y1="1620.4297" y2="1728.5234"/><line style="stroke:#181818;stroke-width:1.0;" x1="1111" x2="963" y1="1728.5234" y2="1728.5234"/><polygon fill="#181818" points="973,1724.5234,963,1728.5234,973,1732.5234,969,1728.5234" style="stroke:#181818;stroke-width:1.0;"/><line style="stroke:#181818;stroke-width:1.0;" x1="951" x2="951" y1="1388.6328" y2="1443.6328"/><polygon fill="#181818" points="947,1433.6328,951,1443.6328,955,1433.6328,951,1437.6328" style="stroke:#181818;stroke-width:1.0;"/><line style="stroke:#181818;stroke-width:1.0;" x1="1442" x2="1442" y1="1121.9063" y2="1155.7422"/><polygon fill="#181818" points="1438,1145.7422,1442,1155.7422,1446,1145.7422,1442,1149.7422" style="stroke:#181818;stroke-width:1.0;"/><line style="stroke:#181818;stroke-width:1.0;" x1="1442" x2="1442" y1="1190.8359" y2="1283.4453"/><polygon fill="#181818" points="1438,1273.4453,1442,1283.4453,1446,1273.4453,1442,1277.4453" style="stroke:#181818;stroke-width:1.0;"/><line style="stroke:#181818;stroke-width:1.0;" x1="1933" x2="1933" y1="1270.8477" y2="1305.8477"/><polygon fill="#181818" points="1929,1295.8477,1933,1305.8477,1937,1295.8477,1933,1299.8477" style="stroke:#181818;stroke-width:1.0;"/><line style="stroke:#181818;stroke-width:1.0;" x1="1933" x2="1933" y1="1340.9414" y2="1433.5508"/><polygon fill="#181818" points="1929,1423.5508,1933,1433.5508,1937,1423.5508,1933,1427.5508" style="stroke:#181818;stroke-width:1.0;"/><line style="stroke:#181818;stroke-width:1.0;" x1="1773" x2="1773" y1="1630.3477" y2="1665.3477"/><polygon fill="#181818" points="1769,1655.3477,1773,1665.3477,1777,1655.3477,1773,1659.3477" style="stroke:#181818;stroke-width:1.0;"/><line style="stroke:#181818;stroke-width:1.0;" x1="1773" x2="1773" y1="1700.4414" y2="1735.4414"/><polygon fill="#181818" points="1769,1725.4414,1773,1735.4414,1777,1725.4414,1773,1729.4414" style="stroke:#181818;stroke-width:1.0;"/><line style="stroke:#181818;stroke-width:1.0;" x1="2093" x2="2093" y1="1630.3477" y2="1665.3477"/><polygon fill="#181818" points="2089,1655.3477,2093,1665.3477,2097,1655.3477,2093,1659.3477" style="stroke:#181818;stroke-width:1.0;"/><line style="stroke:#181818;stroke-width:1.0;" x1="1858" x2="1773" y1="1535.6445" y2="1535.6445"/><line style="stroke:#181818;stroke-width:1.0;" x1="1773" x2="1773" y1="1535.6445" y2="1595.2539"/><polygon fill="#181818" points="1769,1585.2539,1773,1595.2539,1777,1585.2539,1773,1589.2539" style="stroke:#181818;stroke-width:1.0;"/><line style="stroke:#181818;stroke-width:1.0;" x1="2008" x2="2093" y1="1535.6445" y2="1535.6445"/><line style="stroke:#181818;stroke-width:1.0;" x1="2093" x2="2093" y1="1535.6445" y2="1595.2539"/><polygon fill="#181818" points="2089,1585.2539,2093,1595.2539,2097,1585.2539,2093,1589.2539" style="stroke:#181818;stroke-width:1.0;"/><line style="stroke:#181818;stroke-width:1.0;" x1="1773" x2="1773" y1="1770.5352" y2="1804.4531"/><line style="stroke:#181818;stroke-width:1.0;" x1="1773" x2="1921" y1="1804.4531" y2="1804.4531"/><polygon fill="#181818" points="1911,1800.4531,1921,1804.4531,1911,1808.4531,1915,1804.4531" style="stroke:#181818;stroke-width:1.0;"/><line style="stroke:#181818;stroke-width:1.0;" x1="2093" x2="2093" y1="1700.4414" y2="1804.4531"/><line style="stroke:#181818;stroke-width:1.0;" x1="2093" x2="1945" y1="1804.4531" y2="1804.4531"/><polygon fill="#181818" points="1955,1800.4531,1945,1804.4531,1955,1808.4531,1951,1804.4531" style="stroke:#181818;stroke-width:1.0;"/><line style="stroke:#181818;stroke-width:1.0;" x1="1933" x2="1933" y1="1468.6445" y2="1523.6445"/><polygon fill="#181818" points="1929,1513.6445,1933,1523.6445,1937,1513.6445,1933,1517.6445" style="stroke:#181818;stroke-width:1.0;"/><line style="stroke:#181818;stroke-width:1.0;" x1="321" x2="321" y1="1029.2031" y2="1100.6484"/><polygon fill="#181818" points="317,1090.6484,321,1100.6484,325,1090.6484,321,1094.6484" style="stroke:#181818;stroke-width:1.0;"/><line style="stroke:#181818;stroke-width:1.0;" x1="321" x2="321" y1="1944.5586" y2="1964.5586"/><polygon fill="#181818" points="317,1954.5586,321,1964.5586,325,1954.5586,321,1958.5586" style="stroke:#181818;stroke-width:1.0;"/><line style="stroke:#181818;stroke-width:1.0;" x1="951" x2="951" y1="1029.2031" y2="1086.8125"/><polygon fill="#181818" points="947,1076.8125,951,1086.8125,955,1076.8125,951,1080.8125" style="stroke:#181818;stroke-width:1.0;"/><line style="stroke:#181818;stroke-width:1.0;" x1="951" x2="951" y1="1740.5234" y2="1964.5586"/><polygon fill="#181818" points="947,1954.5586,951,1964.5586,955,1954.5586,951,1958.5586" style="stroke:#181818;stroke-width:1.0;"/><line style="stroke:#181818;stroke-width:1.0;" x1="1442" x2="1442" y1="1029.2031" y2="1086.8125"/><polygon fill="#181818" points="1438,1076.8125,1442,1086.8125,1446,1076.8125,1442,1080.8125" style="stroke:#181818;stroke-width:1.0;"/><line style="stroke:#181818;stroke-width:1.0;" x1="1442" x2="1442" y1="1318.5391" y2="1964.5586"/><polygon fill="#181818" points="1438,1954.5586,1442,1964.5586,1446,1954.5586,1442,1958.5586" style="stroke:#181818;stroke-width:1.0;"/><line style="stroke:#181818;stroke-width:1.0;" x1="374.5" x2="902.5" y1="1017.2031" y2="1017.2031"/><polygon fill="#181818" points="892.5,1013.2031,902.5,1017.2031,892.5,1021.2031,896.5,1017.2031" style="stroke:#181818;stroke-width:1.0;"/><line style="stroke:#181818;stroke-width:1.0;" x1="999.5" x2="1401.5" y1="1017.2031" y2="1017.2031"/><polygon fill="#181818" points="1391.5,1013.2031,1401.5,1017.2031,1391.5,1021.2031,1395.5,1017.2031" style="stroke:#181818;stroke-width:1.0;"/><line style="stroke:#181818;stroke-width:1.0;" x1="1132" x2="1132" y1="973.2031" y2="990.2031"/><line style="stroke:#181818;stroke-width:1.0;" x1="1132" x2="321" y1="990.2031" y2="990.2031"/><line style="stroke:#181818;stroke-width:1.0;" x1="321" x2="321" y1="990.2031" y2="1005.2031"/><polygon fill="#181818" points="317,995.2031,321,1005.2031,325,995.2031,321,999.2031" style="stroke:#181818;stroke-width:1.0;"/><line style="stroke:#181818;stroke-width:1.0;" x1="1482.5" x2="1933" y1="1017.2031" y2="1017.2031"/><line style="stroke:#181818;stroke-width:1.0;" x1="1933" x2="1933" y1="1017.2031" y2="1235.7539"/><polygon fill="#181818" points="1929,1225.7539,1933,1235.7539,1937,1225.7539,1933,1229.7539" style="stroke:#181818;stroke-width:1.0;"/><line style="stroke:#181818;stroke-width:1.0;" x1="1933" x2="1933" y1="1816.4531" y2="1964.5586"/><polygon fill="#181818" points="1929,1954.5586,1933,1964.5586,1937,1954.5586,1933,1958.5586" style="stroke:#181818;stroke-width:1.0;"/><line style="stroke:#181818;stroke-width:1.0;" x1="321" x2="1933" y1="1964.5586" y2="1964.5586"/><line style="stroke:#181818;stroke-width:1.0;" x1="1656" x2="1132" y1="878.5" y2="878.5"/><line style="stroke:#181818;stroke-width:1.0;" x1="1132" x2="1132" y1="878.5" y2="938.1094"/><polygon fill="#181818" points="1128,928.1094,1132,938.1094,1136,928.1094,1132,932.1094" style="stroke:#181818;stroke-width:1.0;"/><line style="stroke:#181818;stroke-width:1.0;" x1="1868" x2="2432" y1="878.5" y2="878.5"/><line style="stroke:#181818;stroke-width:1.0;" x1="2432" x2="2432" y1="878.5" y2="938.1094"/><polygon fill="#181818" points="2428,928.1094,2432,938.1094,2436,928.1094,2432,932.1094" style="stroke:#181818;stroke-width:1.0;"/><line style="stroke:#181818;stroke-width:1.0;" x1="1132" x2="1132" y1="1964.5586" y2="1982.5586"/><line style="stroke:#181818;stroke-width:1.0;" x1="1132" x2="1750" y1="1982.5586" y2="1982.5586"/><polygon fill="#181818" points="1740,1978.5586,1750,1982.5586,1740,1986.5586,1744,1982.5586" style="stroke:#181818;stroke-width:1.0;"/><line style="stroke:#181818;stroke-width:1.0;" x1="2432" x2="2432" y1="973.2031" y2="1982.5586"/><line style="stroke:#181818;stroke-width:1.0;" x1="2432" x2="1774" y1="1982.5586" y2="1982.5586"/><polygon fill="#181818" points="1784,1978.5586,1774,1982.5586,1784,1986.5586,1780,1982.5586" style="stroke:#181818;stroke-width:1.0;"/><line style="stroke:#181818;stroke-width:1.0;" x1="1762" x2="1762" y1="834.5" y2="866.5"/><polygon fill="#181818" points="1758,856.5,1762,866.5,1766,856.5,1762,860.5" style="stroke:#181818;stroke-width:1.0;"/><line style="stroke:#181818;stroke-width:1.0;" x1="2711" x2="2711" y1="494.9063" y2="579.5156"/><polygon fill="#181818" points="2707,569.5156,2711,579.5156,2715,569.5156,2711,573.5156" style="stroke:#181818;stroke-width:1.0;"/><line style="stroke:#181818;stroke-width:1.0;" x1="2206" x2="1762" y1="400.2031" y2="400.2031"/><line style="stroke:#181818;stroke-width:1.0;" x1="1762" x2="1762" y1="400.2031" y2="459.8125"/><polygon fill="#181818" points="1758,449.8125,1762,459.8125,1766,449.8125,1762,453.8125" style="stroke:#181818;stroke-width:1.0;"/><line style="stroke:#181818;stroke-width:1.0;" x1="2287" x2="2711" y1="400.2031" y2="400.2031"/><line style="stroke:#181818;stroke-width:1.0;" x1="2711" x2="2711" y1="400.2031" y2="459.8125"/><polygon fill="#181818" points="2707,449.8125,2711,459.8125,2715,449.8125,2711,453.8125" style="stroke:#181818;stroke-width:1.0;"/><line style="stroke:#181818;stroke-width:1.0;" x1="1762" x2="1762" y1="1994.5586" y2="2012.5586"/><line style="stroke:#181818;stroke-width:1.0;" x1="1762" x2="2234.5" y1="2012.5586" y2="2012.5586"/><polygon fill="#181818" points="2224.5,2008.5586,2234.5,2012.5586,2224.5,2016.5586,2228.5,2012.5586" style="stroke:#181818;stroke-width:1.0;"/><line style="stroke:#181818;stroke-width:1.0;" x1="2711" x2="2711" y1="614.6094" y2="2012.5586"/><line style="stroke:#181818;stroke-width:1.0;" x1="2711" x2="2258.5" y1="2012.5586" y2="2012.5586"/><polygon fill="#181818" points="2268.5,2008.5586,2258.5,2012.5586,2268.5,2016.5586,2264.5,2012.5586" style="stroke:#181818;stroke-width:1.0;"/><line style="stroke:#181818;stroke-width:1.0;" x1="2246.5" x2="2246.5" y1="356.2031" y2="388.2031"/><polygon fill="#181818" points="2242.5,378.2031,2246.5,388.2031,2250.5,378.2031,2246.5,382.2031" style="stroke:#181818;stroke-width:1.0;"/><line style="stroke:#181818;stroke-width:1.0;" x1="2246.5" x2="2246.5" y1="2024.5586" y2="2044.5586"/><polygon fill="#181818" points="2242.5,2034.5586,2246.5,2044.5586,2250.5,2034.5586,2246.5,2038.5586" style="stroke:#181818;stroke-width:1.0;"/><!--SRC=[xLV9Rjim4BthAmRf9JaKGTC2tGv5qbJe8G4Af43HupYYPPQRG589WaB_tY4fsrgyA8ZHN7BnGitoPdapbETUCZY_zVoE-mUuv5XQLF0QpWl5DLmpNJ9f9C8bUeHVA3bSrvONMUO4rnK6OLng_yq0Bl1MbDRKklXgfB7mAl-GN-HvU69imMnxUfQ_emTqcXljsxCt-Td7j- -pXcnxj3xBoBpddXiDHn7EKVG0y2c1KqpDQe6mG8aADKXJSlrv886k5e8UqYykeQ1V5JftJrXwaa9o0TwecP5mbUmqFG0tt7ccLWYkcMAM2uTaaX8JNGC6Kr6Hp-4uce4xIbdnvGJyWcau_eqdMHOjR8kjYpvW1y78XLlC32uXzmFaaY_eMzV34YNXPkIk7qaRZKPLSHaI5UEv3rRKsif8Qcwi0ezgXekHS3CzGaRWqM_ssPe9gKpIN9THPzcI0wr-afUUTg7Oa4WKZc-ClbcRZ8Y2t0Fg4WfU1SsLzvyfAQVmhU0-bgE3PWgY7YeAcHnHtZVNP9kyKKGepoIhZDuhlQXdjIvnls351BD_S89aPAJVAjPbsmrN5JNKAVomnZ7NrscsfcxSnPq-xN5pMzu6jaDLB_lo6yWxT3O9qP8z3odKYjcQMcGNruQQAzvLpD7dZDa5EYudA0WQai71m5MSX874OnDDxuH9nwYfUO7YYT4FOc3M6li_0j05dwzB7U89fRweQUwSYre_cQ9fS4HaSI3CcAnLUow82kHZBr_6sodgHQkJMBGAv_3ysG9a6tsY-669GskUeek6qw9zeSnpKEOgxcf2VOy7uilkRTRjxtHFSC7tGJgyUz-PqsqpcKu4zjGgSIL2mS9UtDtygThViQhT8KT9gbZ4Wn4c9O1Sx9WaaWWIgs_qd5kwFD9c7wiSRAE6PhBabDpiBqjedr_THgp2hI-5TBZzMaPxBrlr6KR4-cyljCTUmtrGw_JoXAjIssajWh7twMy-AODfmvHOedpiwymogVJAjk6TbEoq89qtrJy0]--></g></svg>