<?xml version="1.0" encoding="us-ascii" standalone="no"?><svg xmlns="http://www.w3.org/2000/svg" xmlns:xlink="http://www.w3.org/1999/xlink" contentStyleType="text/css" height="1945px" preserveAspectRatio="none" style="width:1774px;height:1945px;background:#FFFFFF;" version="1.1" viewBox="0 0 1774 1945" width="1774px" zoomAndPan="magnify"><defs/><g><text fill="#000000" font-family="sans-serif" font-size="14" font-weight="bold" lengthAdjust="spacing" textLength="267" x="752" y="34.5332">Activity Diagram - Admin Atur Pengajar</text><ellipse cx="1331.25" cy="58.6094" fill="#222222" rx="10" ry="10" style="stroke:#222222;stroke-width:1.0;"/><rect fill="none" height="194.8906" style="stroke:#000000;stroke-width:1.5;" width="270" x="1196.25" y="78.6094"/><path d="M1245.25,78.6094 L1245.25,89.2188 L1235.25,99.2188 L1196.25,99.2188 " fill="none" style="stroke:#000000;stroke-width:1.5;"/><text fill="#000000" font-family="sans-serif" font-size="14" lengthAdjust="spacing" textLength="39" x="1199.25" y="94.1426">Admin</text><rect fill="#F8FBFF" height="35.0938" rx="12.5" ry="12.5" style="stroke:#2F4F8F;stroke-width:0.5;" width="196" x="1233.25" y="116.2188"/><text fill="#1F2937" font-family="sans-serif" font-size="12" lengthAdjust="spacing" textLength="176" x="1243.25" y="138.6758">Admin membuka halaman login</text><rect fill="#F8FBFF" height="35.0938" rx="12.5" ry="12.5" style="stroke:#2F4F8F;stroke-width:0.5;" width="250" x="1206.25" y="171.3125"/><text fill="#1F2937" font-family="sans-serif" font-size="12" lengthAdjust="spacing" textLength="230" x="1216.25" y="193.7695">Admin memasukkan email dan password</text><rect fill="#F8FBFF" height="35.0938" rx="12.5" ry="12.5" style="stroke:#2F4F8F;stroke-width:0.5;" width="151" x="1255.75" y="226.4063"/><text fill="#1F2937" font-family="sans-serif" font-size="12" lengthAdjust="spacing" textLength="131" x="1265.75" y="248.8633">Admin klik tombol Login</text><rect fill="none" height="84.7031" style="stroke:#000000;stroke-width:1.5;" width="196" x="1233.25" y="283.5"/><path d="M1285.25,283.5 L1285.25,294.1094 L1275.25,304.1094 L1233.25,304.1094 " fill="none" style="stroke:#000000;stroke-width:1.5;"/><text fill="#000000" font-family="sans-serif" font-size="14" lengthAdjust="spacing" textLength="42" x="1236.25" y="299.0332">Sistem</text><rect fill="#F8FBFF" height="35.0938" rx="12.5" ry="12.5" style="stroke:#2F4F8F;stroke-width:0.5;" width="176" x="1243.25" y="321.1094"/><text fill="#1F2937" font-family="sans-serif" font-size="12" lengthAdjust="spacing" textLength="156" x="1253.25" y="343.5664">Memeriksa data login admin</text><polygon fill="#F8FBFF" points="1302.75,388.2031,1359.75,388.2031,1371.75,400.2031,1359.75,412.2031,1302.75,412.2031,1290.75,400.2031,1302.75,388.2031" style="stroke:#2F4F8F;stroke-width:0.5;"/><text fill="#1F2937" font-family="sans-serif" font-size="11" lengthAdjust="spacing" textLength="57" x="1302.75" y="404.7041">Login valid?</text><text fill="#000000" font-family="sans-serif" font-size="11" lengthAdjust="spacing" textLength="14" x="1276.75" y="397.7861">Ya</text><text fill="#000000" font-family="sans-serif" font-size="11" lengthAdjust="spacing" textLength="25" x="1371.75" y="397.7861">Tidak</text><rect fill="none" height="154.7969" style="stroke:#000000;stroke-width:1.5;" width="235" x="872" y="422.2031"/><path d="M921,422.2031 L921,432.8125 L911,442.8125 L872,442.8125 " fill="none" style="stroke:#000000;stroke-width:1.5;"/><text fill="#000000" font-family="sans-serif" font-size="14" lengthAdjust="spacing" textLength="39" x="875" y="437.7363">Admin</text><rect fill="#F8FBFF" height="35.0938" rx="12.5" ry="12.5" style="stroke:#2F4F8F;stroke-width:0.5;" width="175" x="902" y="459.8125"/><text fill="#1F2937" font-family="sans-serif" font-size="12" lengthAdjust="spacing" textLength="155" x="912" y="482.2695">Admin masuk ke dashboard</text><rect fill="#F8FBFF" height="35.0938" rx="12.5" ry="12.5" style="stroke:#2F4F8F;stroke-width:0.5;" width="215" x="882" y="521.9063"/><text fill="#1F2937" font-family="sans-serif" font-size="12" lengthAdjust="spacing" textLength="195" x="892" y="544.3633">Admin memilih menu Atur Pengajar</text><rect fill="none" height="139.7969" style="stroke:#000000;stroke-width:1.5;" width="262" x="858.5" y="612"/><path d="M910.5,612 L910.5,622.6094 L900.5,632.6094 L858.5,632.6094 " fill="none" style="stroke:#000000;stroke-width:1.5;"/><text fill="#000000" font-family="sans-serif" font-size="14" lengthAdjust="spacing" textLength="42" x="861.5" y="627.5332">Sistem</text><rect fill="#F8FBFF" height="35.0938" rx="12.5" ry="12.5" style="stroke:#2F4F8F;stroke-width:0.5;" width="196" x="891.5" y="649.6094"/><text fill="#1F2937" font-family="sans-serif" font-size="12" lengthAdjust="spacing" textLength="176" x="901.5" y="672.0664">Menampilkan data relasi belajar</text><rect fill="#F8FBFF" height="35.0938" rx="12.5" ry="12.5" style="stroke:#2F4F8F;stroke-width:0.5;" width="242" x="868.5" y="704.7031"/><text fill="#1F2937" font-family="sans-serif" font-size="12" lengthAdjust="spacing" textLength="222" x="878.5" y="727.1602">Menampilkan form tambah relasi belajar</text><rect fill="none" height="84.7031" style="stroke:#000000;stroke-width:1.5;" width="221" x="879" y="761.7969"/><path d="M928,761.7969 L928,772.4063 L918,782.4063 L879,782.4063 " fill="none" style="stroke:#000000;stroke-width:1.5;"/><text fill="#000000" font-family="sans-serif" font-size="14" lengthAdjust="spacing" textLength="39" x="882" y="777.3301">Admin</text><rect fill="#F8FBFF" height="35.0938" rx="12.5" ry="12.5" style="stroke:#2F4F8F;stroke-width:0.5;" width="201" x="889" y="799.4063"/><text fill="#1F2937" font-family="sans-serif" font-size="12" lengthAdjust="spacing" textLength="181" x="899" y="821.8633">Admin melihat data relasi belajar</text><polygon fill="#F8FBFF" points="901.5,866.5,1077.5,866.5,1089.5,878.5,1077.5,890.5,901.5,890.5,889.5,878.5,901.5,866.5" style="stroke:#2F4F8F;stroke-width:0.5;"/><text fill="#1F2937" font-family="sans-serif" font-size="11" lengthAdjust="spacing" textLength="176" x="901.5" y="883.001">Admin ingin mengelola relasi belajar?</text><text fill="#000000" font-family="sans-serif" font-size="11" lengthAdjust="spacing" textLength="14" x="875.5" y="876.083">Ya</text><text fill="#000000" font-family="sans-serif" font-size="11" lengthAdjust="spacing" textLength="25" x="1089.5" y="876.083">Tidak</text><rect fill="none" height="84.7031" style="stroke:#000000;stroke-width:1.5;" width="224" x="487" y="900.5"/><path d="M536,900.5 L536,911.1094 L526,921.1094 L487,921.1094 " fill="none" style="stroke:#000000;stroke-width:1.5;"/><text fill="#000000" font-family="sans-serif" font-size="14" lengthAdjust="spacing" textLength="39" x="490" y="916.0332">Admin</text><rect fill="#F8FBFF" height="35.0938" rx="12.5" ry="12.5" style="stroke:#2F4F8F;stroke-width:0.5;" width="204" x="497" y="938.1094"/><text fill="#1F2937" font-family="sans-serif" font-size="12" lengthAdjust="spacing" textLength="184" x="507" y="960.5664">Admin memilih aksi relasi belajar</text><polygon fill="#F8FBFF" points="557.5,1005.2031,640.5,1005.2031,652.5,1017.2031,640.5,1029.2031,557.5,1029.2031,545.5,1017.2031,557.5,1005.2031" style="stroke:#2F4F8F;stroke-width:0.5;"/><text fill="#1F2937" font-family="sans-serif" font-size="11" lengthAdjust="spacing" textLength="83" x="557.5" y="1021.7041">Aksi yang dipilih?</text><text fill="#000000" font-family="sans-serif" font-size="11" lengthAdjust="spacing" textLength="96" x="449.5" y="1014.7861">Tambah / Edit Relasi</text><text fill="#000000" font-family="sans-serif" font-size="11" lengthAdjust="spacing" textLength="63" x="652.5" y="1014.7861">Hapus Relasi</text><rect fill="none" height="342.5938" style="stroke:#000000;stroke-width:1.5;" width="266" x="162" y="1039.2031"/><path d="M211,1039.2031 L211,1049.8125 L201,1059.8125 L162,1059.8125 " fill="none" style="stroke:#000000;stroke-width:1.5;"/><text fill="#000000" font-family="sans-serif" font-size="14" lengthAdjust="spacing" textLength="39" x="165" y="1054.7363">Admin</text><rect fill="#F8FBFF" height="35.0938" rx="12.5" ry="12.5" style="stroke:#2F4F8F;stroke-width:0.5;" width="139" x="225.5" y="1076.8125"/><text fill="#1F2937" font-family="sans-serif" font-size="12" lengthAdjust="spacing" textLength="119" x="235.5" y="1099.2695">Admin memilih siswa</text><rect fill="#F8FBFF" height="35.0938" rx="12.5" ry="12.5" style="stroke:#2F4F8F;stroke-width:0.5;" width="241" x="174.5" y="1131.9063"/><text fill="#1F2937" font-family="sans-serif" font-size="12" lengthAdjust="spacing" textLength="221" x="184.5" y="1154.3633">Admin memilih mapel yang diikuti siswa</text><rect fill="#F8FBFF" height="35.0938" rx="12.5" ry="12.5" style="stroke:#2F4F8F;stroke-width:0.5;" width="246" x="172" y="1194"/><text fill="#1F2937" font-family="sans-serif" font-size="12" lengthAdjust="spacing" textLength="226" x="182" y="1216.457">Admin memilih guru sesuai mapel siswa</text><rect fill="#F8FBFF" height="35.0938" rx="12.5" ry="12.5" style="stroke:#2F4F8F;stroke-width:0.5;" width="174" x="208" y="1264.0938"/><text fill="#1F2937" font-family="sans-serif" font-size="12" lengthAdjust="spacing" textLength="154" x="218" y="1286.5508">Admin memilih status relasi</text><rect fill="#F8FBFF" height="35.0938" rx="12.5" ry="12.5" style="stroke:#2F4F8F;stroke-width:0.5;" width="212" x="189" y="1326.7031"/><text fill="#1F2937" font-family="sans-serif" font-size="12" lengthAdjust="spacing" textLength="192" x="199" y="1349.1602">Admin klik tombol Simpan / Proses</text><rect fill="none" height="92.7031" style="stroke:#000000;stroke-width:1.5;" width="203" x="193.5" y="1416.7969"/><path d="M245.5,1416.7969 L245.5,1427.4063 L235.5,1437.4063 L193.5,1437.4063 " fill="none" style="stroke:#000000;stroke-width:1.5;"/><text fill="#000000" font-family="sans-serif" font-size="14" lengthAdjust="spacing" textLength="42" x="196.5" y="1432.3301">Sistem</text><rect fill="#F8FBFF" height="35.0938" rx="12.5" ry="12.5" style="stroke:#2F4F8F;stroke-width:0.5;" width="183" x="203.5" y="1454.4063"/><text fill="#1F2937" font-family="sans-serif" font-size="12" lengthAdjust="spacing" textLength="163" x="213.5" y="1476.8633">Memeriksa data relasi belajar</text><polygon fill="#F8FBFF" points="254,1536.5,336,1536.5,348,1548.5,336,1560.5,254,1560.5,242,1548.5,254,1536.5" style="stroke:#2F4F8F;stroke-width:0.5;"/><text fill="#1F2937" font-family="sans-serif" font-size="11" lengthAdjust="spacing" textLength="82" x="254" y="1553.001">Data relasi valid?</text><text fill="#000000" font-family="sans-serif" font-size="11" lengthAdjust="spacing" textLength="14" x="228" y="1546.083">Ya</text><text fill="#000000" font-family="sans-serif" font-size="11" lengthAdjust="spacing" textLength="25" x="348" y="1546.083">Tidak</text><rect fill="none" height="201.8906" style="stroke:#000000;stroke-width:1.5;" width="274" x="11" y="1570.5"/><path d="M63,1570.5 L63,1581.1094 L53,1591.1094 L11,1591.1094 " fill="none" style="stroke:#000000;stroke-width:1.5;"/><text fill="#000000" font-family="sans-serif" font-size="14" lengthAdjust="spacing" textLength="42" x="14" y="1586.0332">Sistem</text><rect fill="#F8FBFF" height="35.0938" rx="12.5" ry="12.5" style="stroke:#2F4F8F;stroke-width:0.5;" width="221" x="37.5" y="1608.1094"/><text fill="#1F2937" font-family="sans-serif" font-size="12" lengthAdjust="spacing" textLength="201" x="47.5" y="1630.5664">Menyimpan perubahan relasi belajar</text><rect fill="#F8FBFF" height="35.0938" rx="12.5" ry="12.5" style="stroke:#2F4F8F;stroke-width:0.5;" width="180" x="58" y="1663.2031"/><text fill="#1F2937" font-family="sans-serif" font-size="12" lengthAdjust="spacing" textLength="160" x="68" y="1685.6602">Menampilkan pesan berhasil</text><rect fill="#F8FBFF" height="35.0938" rx="12.5" ry="12.5" style="stroke:#2F4F8F;stroke-width:0.5;" width="254" x="21" y="1725.2969"/><text fill="#1F2937" font-family="sans-serif" font-size="12" lengthAdjust="spacing" textLength="234" x="31" y="1747.7539">Menampilkan kembali data relasi dan form</text><rect fill="none" height="139.7969" style="stroke:#000000;stroke-width:1.5;" width="274" x="305" y="1570.5"/><path d="M357,1570.5 L357,1581.1094 L347,1591.1094 L305,1591.1094 " fill="none" style="stroke:#000000;stroke-width:1.5;"/><text fill="#000000" font-family="sans-serif" font-size="14" lengthAdjust="spacing" textLength="42" x="308" y="1586.0332">Sistem</text><rect fill="#F8FBFF" height="35.0938" rx="12.5" ry="12.5" style="stroke:#2F4F8F;stroke-width:0.5;" width="161" x="361.5" y="1608.1094"/><text fill="#1F2937" font-family="sans-serif" font-size="12" lengthAdjust="spacing" textLength="141" x="371.5" y="1630.5664">Menampilkan pesan error</text><rect fill="#F8FBFF" height="35.0938" rx="12.5" ry="12.5" style="stroke:#2F4F8F;stroke-width:0.5;" width="254" x="315" y="1663.2031"/><text fill="#1F2937" font-family="sans-serif" font-size="12" lengthAdjust="spacing" textLength="234" x="325" y="1685.6602">Menampilkan kembali data relasi dan form</text><polygon fill="#F8FBFF" points="295,1778.3906,307,1790.3906,295,1802.3906,283,1790.3906,295,1778.3906" style="stroke:#2F4F8F;stroke-width:0.5;"/><rect fill="none" height="139.7969" style="stroke:#000000;stroke-width:1.5;" width="238" x="784" y="1039.2031"/><path d="M833,1039.2031 L833,1049.8125 L823,1059.8125 L784,1059.8125 " fill="none" style="stroke:#000000;stroke-width:1.5;"/><text fill="#000000" font-family="sans-serif" font-size="14" lengthAdjust="spacing" textLength="39" x="787" y="1054.7363">Admin</text><rect fill="#F8FBFF" height="35.0938" rx="12.5" ry="12.5" style="stroke:#2F4F8F;stroke-width:0.5;" width="178" x="814" y="1076.8125"/><text fill="#1F2937" font-family="sans-serif" font-size="12" lengthAdjust="spacing" textLength="158" x="824" y="1099.2695">Admin memilih relasi belajar</text><rect fill="#F8FBFF" height="35.0938" rx="12.5" ry="12.5" style="stroke:#2F4F8F;stroke-width:0.5;" width="218" x="794" y="1131.9063"/><text fill="#1F2937" font-family="sans-serif" font-size="12" lengthAdjust="spacing" textLength="198" x="804" y="1154.3633">Admin melakukan konfirmasi hapus</text><rect fill="none" height="92.7031" style="stroke:#000000;stroke-width:1.5;" width="203" x="801.5" y="1214"/><path d="M853.5,1214 L853.5,1224.6094 L843.5,1234.6094 L801.5,1234.6094 " fill="none" style="stroke:#000000;stroke-width:1.5;"/><text fill="#000000" font-family="sans-serif" font-size="14" lengthAdjust="spacing" textLength="42" x="804.5" y="1229.5332">Sistem</text><rect fill="#F8FBFF" height="35.0938" rx="12.5" ry="12.5" style="stroke:#2F4F8F;stroke-width:0.5;" width="183" x="811.5" y="1251.6094"/><text fill="#1F2937" font-family="sans-serif" font-size="12" lengthAdjust="spacing" textLength="163" x="821.5" y="1274.0664">Memeriksa data relasi belajar</text><polygon fill="#F8FBFF" points="850,1334.2188,956,1334.2188,968,1346.2188,956,1358.2188,850,1358.2188,838,1346.2188,850,1334.2188" style="stroke:#2F4F8F;stroke-width:0.5;"/><text fill="#1F2937" font-family="sans-serif" font-size="11" lengthAdjust="spacing" textLength="106" x="850" y="1350.7197">Relasi dapat dihapus?</text><text fill="#000000" font-family="sans-serif" font-size="11" lengthAdjust="spacing" textLength="14" x="824" y="1343.8018">Ya</text><text fill="#000000" font-family="sans-serif" font-size="11" lengthAdjust="spacing" textLength="25" x="968" y="1343.8018">Tidak</text><rect fill="none" height="224.8906" style="stroke:#000000;stroke-width:1.5;" width="274" x="619" y="1368.2188"/><path d="M671,1368.2188 L671,1378.8281 L661,1388.8281 L619,1388.8281 " fill="none" style="stroke:#000000;stroke-width:1.5;"/><text fill="#000000" font-family="sans-serif" font-size="14" lengthAdjust="spacing" textLength="42" x="622" y="1383.752">Sistem</text><rect fill="#F8FBFF" height="35.0938" rx="12.5" ry="12.5" style="stroke:#2F4F8F;stroke-width:0.5;" width="160" x="676" y="1405.8281"/><text fill="#1F2937" font-family="sans-serif" font-size="12" lengthAdjust="spacing" textLength="140" x="686" y="1428.2852">Menghapus relasi belajar</text><rect fill="#F8FBFF" height="35.0938" rx="12.5" ry="12.5" style="stroke:#2F4F8F;stroke-width:0.5;" width="180" x="666" y="1475.9219"/><text fill="#1F2937" font-family="sans-serif" font-size="12" lengthAdjust="spacing" textLength="160" x="676" y="1498.3789">Menampilkan pesan berhasil</text><rect fill="#F8FBFF" height="35.0938" rx="12.5" ry="12.5" style="stroke:#2F4F8F;stroke-width:0.5;" width="254" x="629" y="1538.0156"/><text fill="#1F2937" font-family="sans-serif" font-size="12" lengthAdjust="spacing" textLength="234" x="639" y="1560.4727">Menampilkan kembali data relasi dan form</text><rect fill="none" height="154.7969" style="stroke:#000000;stroke-width:1.5;" width="274" x="913" y="1368.2188"/><path d="M965,1368.2188 L965,1378.8281 L955,1388.8281 L913,1388.8281 " fill="none" style="stroke:#000000;stroke-width:1.5;"/><text fill="#000000" font-family="sans-serif" font-size="14" lengthAdjust="spacing" textLength="42" x="916" y="1383.752">Sistem</text><rect fill="#F8FBFF" height="35.0938" rx="12.5" ry="12.5" style="stroke:#2F4F8F;stroke-width:0.5;" width="161" x="969.5" y="1405.8281"/><text fill="#1F2937" font-family="sans-serif" font-size="12" lengthAdjust="spacing" textLength="141" x="979.5" y="1428.2852">Menampilkan pesan error</text><rect fill="#F8FBFF" height="35.0938" rx="12.5" ry="12.5" style="stroke:#2F4F8F;stroke-width:0.5;" width="254" x="923" y="1475.9219"/><text fill="#1F2937" font-family="sans-serif" font-size="12" lengthAdjust="spacing" textLength="234" x="933" y="1498.3789">Menampilkan kembali data relasi dan form</text><polygon fill="#F8FBFF" points="903,1599.1094,915,1611.1094,903,1623.1094,891,1611.1094,903,1599.1094" style="stroke:#2F4F8F;stroke-width:0.5;"/><polygon fill="#F8FBFF" points="599,1808.3906,611,1820.3906,599,1832.3906,587,1820.3906,599,1808.3906" style="stroke:#2F4F8F;stroke-width:0.5;"/><rect fill="none" height="84.7031" style="stroke:#000000;stroke-width:1.5;" width="306" x="1227" y="900.5"/><path d="M1276,900.5 L1276,911.1094 L1266,921.1094 L1227,921.1094 " fill="none" style="stroke:#000000;stroke-width:1.5;"/><text fill="#000000" font-family="sans-serif" font-size="14" lengthAdjust="spacing" textLength="39" x="1230" y="916.0332">Admin</text><rect fill="#F8FBFF" height="35.0938" rx="12.5" ry="12.5" style="stroke:#2F4F8F;stroke-width:0.5;" width="286" x="1237" y="938.1094"/><text fill="#1F2937" font-family="sans-serif" font-size="12" lengthAdjust="spacing" textLength="266" x="1247" y="960.5664">Admin tidak melakukan perubahan relasi belajar</text><polygon fill="#F8FBFF" points="989.5,1838.3906,1001.5,1850.3906,989.5,1862.3906,977.5,1850.3906,989.5,1838.3906" style="stroke:#2F4F8F;stroke-width:0.5;"/><rect fill="none" height="84.7031" style="stroke:#000000;stroke-width:1.5;" width="216" x="1545" y="422.2031"/><path d="M1597,422.2031 L1597,432.8125 L1587,442.8125 L1545,442.8125 " fill="none" style="stroke:#000000;stroke-width:1.5;"/><text fill="#000000" font-family="sans-serif" font-size="14" lengthAdjust="spacing" textLength="42" x="1548" y="437.7363">Sistem</text><rect fill="#F8FBFF" height="35.0938" rx="12.5" ry="12.5" style="stroke:#2F4F8F;stroke-width:0.5;" width="196" x="1555" y="459.8125"/><text fill="#1F2937" font-family="sans-serif" font-size="12" lengthAdjust="spacing" textLength="176" x="1565" y="482.2695">Menampilkan pesan login gagal</text><rect fill="none" height="92.7031" style="stroke:#000000;stroke-width:1.5;" width="220" x="1543" y="541.9063"/><path d="M1592,541.9063 L1592,552.5156 L1582,562.5156 L1543,562.5156 " fill="none" style="stroke:#000000;stroke-width:1.5;"/><text fill="#000000" font-family="sans-serif" font-size="14" lengthAdjust="spacing" textLength="39" x="1546" y="557.4395">Admin</text><rect fill="#F8FBFF" height="35.0938" rx="12.5" ry="12.5" style="stroke:#2F4F8F;stroke-width:0.5;" width="200" x="1553" y="579.5156"/><text fill="#1F2937" font-family="sans-serif" font-size="12" lengthAdjust="spacing" textLength="180" x="1563" y="601.9727">Admin kembali ke halaman login</text><polygon fill="#F8FBFF" points="1331.25,1868.3906,1343.25,1880.3906,1331.25,1892.3906,1319.25,1880.3906,1331.25,1868.3906" style="stroke:#2F4F8F;stroke-width:0.5;"/><ellipse cx="1331.25" cy="1923.3906" fill="none" rx="11" ry="11" style="stroke:#222222;stroke-width:1.0;"/><ellipse cx="1331.25" cy="1923.3906" fill="#222222" rx="6" ry="6" style="stroke:#222222;stroke-width:1.0;"/><line style="stroke:#181818;stroke-width:1.0;" x1="1331.25" x2="1331.25" y1="151.3125" y2="171.3125"/><polygon fill="#181818" points="1327.25,161.3125,1331.25,171.3125,1335.25,161.3125,1331.25,165.3125" style="stroke:#181818;stroke-width:1.0;"/><line style="stroke:#181818;stroke-width:1.0;" x1="1331.25" x2="1331.25" y1="206.4063" y2="226.4063"/><polygon fill="#181818" points="1327.25,216.4063,1331.25,226.4063,1335.25,216.4063,1331.25,220.4063" style="stroke:#181818;stroke-width:1.0;"/><line style="stroke:#181818;stroke-width:1.0;" x1="1331.25" x2="1331.25" y1="68.6094" y2="116.2188"/><polygon fill="#181818" points="1327.25,106.2188,1331.25,116.2188,1335.25,106.2188,1331.25,110.2188" style="stroke:#181818;stroke-width:1.0;"/><line style="stroke:#181818;stroke-width:1.0;" x1="1331.25" x2="1331.25" y1="261.5" y2="321.1094"/><polygon fill="#181818" points="1327.25,311.1094,1331.25,321.1094,1335.25,311.1094,1331.25,315.1094" style="stroke:#181818;stroke-width:1.0;"/><line style="stroke:#181818;stroke-width:1.0;" x1="989.5" x2="989.5" y1="494.9063" y2="521.9063"/><polygon fill="#181818" points="985.5,511.9063,989.5,521.9063,993.5,511.9063,989.5,515.9063" style="stroke:#181818;stroke-width:1.0;"/><line style="stroke:#181818;stroke-width:1.0;" x1="989.5" x2="989.5" y1="684.7031" y2="704.7031"/><polygon fill="#181818" points="985.5,694.7031,989.5,704.7031,993.5,694.7031,989.5,698.7031" style="stroke:#181818;stroke-width:1.0;"/><line style="stroke:#181818;stroke-width:1.0;" x1="989.5" x2="989.5" y1="557" y2="649.6094"/><polygon fill="#181818" points="985.5,639.6094,989.5,649.6094,993.5,639.6094,989.5,643.6094" style="stroke:#181818;stroke-width:1.0;"/><line style="stroke:#181818;stroke-width:1.0;" x1="989.5" x2="989.5" y1="739.7969" y2="799.4063"/><polygon fill="#181818" points="985.5,789.4063,989.5,799.4063,993.5,789.4063,989.5,793.4063" style="stroke:#181818;stroke-width:1.0;"/><line style="stroke:#181818;stroke-width:1.0;" x1="295" x2="295" y1="1111.9063" y2="1131.9063"/><polygon fill="#181818" points="291,1121.9063,295,1131.9063,299,1121.9063,295,1125.9063" style="stroke:#181818;stroke-width:1.0;"/><line style="stroke:#181818;stroke-width:1.0;" x1="295" x2="295" y1="1167" y2="1194"/><polygon fill="#181818" points="291,1184,295,1194,299,1184,295,1188" style="stroke:#181818;stroke-width:1.0;"/><line style="stroke:#181818;stroke-width:1.0;" x1="295" x2="295" y1="1229.0938" y2="1264.0938"/><polygon fill="#181818" points="291,1254.0938,295,1264.0938,299,1254.0938,295,1258.0938" style="stroke:#181818;stroke-width:1.0;"/><line style="stroke:#181818;stroke-width:1.0;" x1="295" x2="295" y1="1299.1875" y2="1326.7031"/><polygon fill="#181818" points="291,1316.7031,295,1326.7031,299,1316.7031,295,1320.7031" style="stroke:#181818;stroke-width:1.0;"/><line style="stroke:#181818;stroke-width:1.0;" x1="295" x2="295" y1="1361.7969" y2="1454.4063"/><polygon fill="#181818" points="291,1444.4063,295,1454.4063,299,1444.4063,295,1448.4063" style="stroke:#181818;stroke-width:1.0;"/><line style="stroke:#181818;stroke-width:1.0;" x1="148" x2="148" y1="1643.2031" y2="1663.2031"/><polygon fill="#181818" points="144,1653.2031,148,1663.2031,152,1653.2031,148,1657.2031" style="stroke:#181818;stroke-width:1.0;"/><line style="stroke:#181818;stroke-width:1.0;" x1="148" x2="148" y1="1698.2969" y2="1725.2969"/><polygon fill="#181818" points="144,1715.2969,148,1725.2969,152,1715.2969,148,1719.2969" style="stroke:#181818;stroke-width:1.0;"/><line style="stroke:#181818;stroke-width:1.0;" x1="442" x2="442" y1="1643.2031" y2="1663.2031"/><polygon fill="#181818" points="438,1653.2031,442,1663.2031,446,1653.2031,442,1657.2031" style="stroke:#181818;stroke-width:1.0;"/><line style="stroke:#181818;stroke-width:1.0;" x1="242" x2="148" y1="1548.5" y2="1548.5"/><line style="stroke:#181818;stroke-width:1.0;" x1="148" x2="148" y1="1548.5" y2="1608.1094"/><polygon fill="#181818" points="144,1598.1094,148,1608.1094,152,1598.1094,148,1602.1094" style="stroke:#181818;stroke-width:1.0;"/><line style="stroke:#181818;stroke-width:1.0;" x1="348" x2="442" y1="1548.5" y2="1548.5"/><line style="stroke:#181818;stroke-width:1.0;" x1="442" x2="442" y1="1548.5" y2="1608.1094"/><polygon fill="#181818" points="438,1598.1094,442,1608.1094,446,1598.1094,442,1602.1094" style="stroke:#181818;stroke-width:1.0;"/><line style="stroke:#181818;stroke-width:1.0;" x1="148" x2="148" y1="1760.3906" y2="1790.3906"/><line style="stroke:#181818;stroke-width:1.0;" x1="148" x2="283" y1="1790.3906" y2="1790.3906"/><polygon fill="#181818" points="273,1786.3906,283,1790.3906,273,1794.3906,277,1790.3906" style="stroke:#181818;stroke-width:1.0;"/><line style="stroke:#181818;stroke-width:1.0;" x1="442" x2="442" y1="1698.2969" y2="1790.3906"/><line style="stroke:#181818;stroke-width:1.0;" x1="442" x2="307" y1="1790.3906" y2="1790.3906"/><polygon fill="#181818" points="317,1786.3906,307,1790.3906,317,1794.3906,313,1790.3906" style="stroke:#181818;stroke-width:1.0;"/><line style="stroke:#181818;stroke-width:1.0;" x1="295" x2="295" y1="1489.5" y2="1536.5"/><polygon fill="#181818" points="291,1526.5,295,1536.5,299,1526.5,295,1530.5" style="stroke:#181818;stroke-width:1.0;"/><line style="stroke:#181818;stroke-width:1.0;" x1="903" x2="903" y1="1111.9063" y2="1131.9063"/><polygon fill="#181818" points="899,1121.9063,903,1131.9063,907,1121.9063,903,1125.9063" style="stroke:#181818;stroke-width:1.0;"/><line style="stroke:#181818;stroke-width:1.0;" x1="903" x2="903" y1="1167" y2="1251.6094"/><polygon fill="#181818" points="899,1241.6094,903,1251.6094,907,1241.6094,903,1245.6094" style="stroke:#181818;stroke-width:1.0;"/><line style="stroke:#181818;stroke-width:1.0;" x1="756" x2="756" y1="1440.9219" y2="1475.9219"/><polygon fill="#181818" points="752,1465.9219,756,1475.9219,760,1465.9219,756,1469.9219" style="stroke:#181818;stroke-width:1.0;"/><line style="stroke:#181818;stroke-width:1.0;" x1="756" x2="756" y1="1511.0156" y2="1538.0156"/><polygon fill="#181818" points="752,1528.0156,756,1538.0156,760,1528.0156,756,1532.0156" style="stroke:#181818;stroke-width:1.0;"/><line style="stroke:#181818;stroke-width:1.0;" x1="1050" x2="1050" y1="1440.9219" y2="1475.9219"/><polygon fill="#181818" points="1046,1465.9219,1050,1475.9219,1054,1465.9219,1050,1469.9219" style="stroke:#181818;stroke-width:1.0;"/><line style="stroke:#181818;stroke-width:1.0;" x1="838" x2="756" y1="1346.2188" y2="1346.2188"/><line style="stroke:#181818;stroke-width:1.0;" x1="756" x2="756" y1="1346.2188" y2="1405.8281"/><polygon fill="#181818" points="752,1395.8281,756,1405.8281,760,1395.8281,756,1399.8281" style="stroke:#181818;stroke-width:1.0;"/><line style="stroke:#181818;stroke-width:1.0;" x1="968" x2="1050" y1="1346.2188" y2="1346.2188"/><line style="stroke:#181818;stroke-width:1.0;" x1="1050" x2="1050" y1="1346.2188" y2="1405.8281"/><polygon fill="#181818" points="1046,1395.8281,1050,1405.8281,1054,1395.8281,1050,1399.8281" style="stroke:#181818;stroke-width:1.0;"/><line style="stroke:#181818;stroke-width:1.0;" x1="756" x2="756" y1="1573.1094" y2="1611.1094"/><line style="stroke:#181818;stroke-width:1.0;" x1="756" x2="891" y1="1611.1094" y2="1611.1094"/><polygon fill="#181818" points="881,1607.1094,891,1611.1094,881,1615.1094,885,1611.1094" style="stroke:#181818;stroke-width:1.0;"/><line style="stroke:#181818;stroke-width:1.0;" x1="1050" x2="1050" y1="1511.0156" y2="1611.1094"/><line style="stroke:#181818;stroke-width:1.0;" x1="1050" x2="915" y1="1611.1094" y2="1611.1094"/><polygon fill="#181818" points="925,1607.1094,915,1611.1094,925,1615.1094,921,1611.1094" style="stroke:#181818;stroke-width:1.0;"/><line style="stroke:#181818;stroke-width:1.0;" x1="903" x2="903" y1="1286.7031" y2="1334.2188"/><polygon fill="#181818" points="899,1324.2188,903,1334.2188,907,1324.2188,903,1328.2188" style="stroke:#181818;stroke-width:1.0;"/><line style="stroke:#181818;stroke-width:1.0;" x1="545.5" x2="295" y1="1017.2031" y2="1017.2031"/><line style="stroke:#181818;stroke-width:1.0;" x1="295" x2="295" y1="1017.2031" y2="1076.8125"/><polygon fill="#181818" points="291,1066.8125,295,1076.8125,299,1066.8125,295,1070.8125" style="stroke:#181818;stroke-width:1.0;"/><line style="stroke:#181818;stroke-width:1.0;" x1="652.5" x2="903" y1="1017.2031" y2="1017.2031"/><line style="stroke:#181818;stroke-width:1.0;" x1="903" x2="903" y1="1017.2031" y2="1076.8125"/><polygon fill="#181818" points="899,1066.8125,903,1076.8125,907,1066.8125,903,1070.8125" style="stroke:#181818;stroke-width:1.0;"/><line style="stroke:#181818;stroke-width:1.0;" x1="295" x2="295" y1="1802.3906" y2="1820.3906"/><line style="stroke:#181818;stroke-width:1.0;" x1="295" x2="587" y1="1820.3906" y2="1820.3906"/><polygon fill="#181818" points="577,1816.3906,587,1820.3906,577,1824.3906,581,1820.3906" style="stroke:#181818;stroke-width:1.0;"/><line style="stroke:#181818;stroke-width:1.0;" x1="903" x2="903" y1="1623.1094" y2="1820.3906"/><line style="stroke:#181818;stroke-width:1.0;" x1="903" x2="611" y1="1820.3906" y2="1820.3906"/><polygon fill="#181818" points="621,1816.3906,611,1820.3906,621,1824.3906,617,1820.3906" style="stroke:#181818;stroke-width:1.0;"/><line style="stroke:#181818;stroke-width:1.0;" x1="599" x2="599" y1="973.2031" y2="1005.2031"/><polygon fill="#181818" points="595,995.2031,599,1005.2031,603,995.2031,599,999.2031" style="stroke:#181818;stroke-width:1.0;"/><line style="stroke:#181818;stroke-width:1.0;" x1="889.5" x2="599" y1="878.5" y2="878.5"/><line style="stroke:#181818;stroke-width:1.0;" x1="599" x2="599" y1="878.5" y2="938.1094"/><polygon fill="#181818" points="595,928.1094,599,938.1094,603,928.1094,599,932.1094" style="stroke:#181818;stroke-width:1.0;"/><line style="stroke:#181818;stroke-width:1.0;" x1="1089.5" x2="1380" y1="878.5" y2="878.5"/><line style="stroke:#181818;stroke-width:1.0;" x1="1380" x2="1380" y1="878.5" y2="938.1094"/><polygon fill="#181818" points="1376,928.1094,1380,938.1094,1384,928.1094,1380,932.1094" style="stroke:#181818;stroke-width:1.0;"/><line style="stroke:#181818;stroke-width:1.0;" x1="599" x2="599" y1="1832.3906" y2="1850.3906"/><line style="stroke:#181818;stroke-width:1.0;" x1="599" x2="977.5" y1="1850.3906" y2="1850.3906"/><polygon fill="#181818" points="967.5,1846.3906,977.5,1850.3906,967.5,1854.3906,971.5,1850.3906" style="stroke:#181818;stroke-width:1.0;"/><line style="stroke:#181818;stroke-width:1.0;" x1="1380" x2="1380" y1="973.2031" y2="1850.3906"/><line style="stroke:#181818;stroke-width:1.0;" x1="1380" x2="1001.5" y1="1850.3906" y2="1850.3906"/><polygon fill="#181818" points="1011.5,1846.3906,1001.5,1850.3906,1011.5,1854.3906,1007.5,1850.3906" style="stroke:#181818;stroke-width:1.0;"/><line style="stroke:#181818;stroke-width:1.0;" x1="989.5" x2="989.5" y1="834.5" y2="866.5"/><polygon fill="#181818" points="985.5,856.5,989.5,866.5,993.5,856.5,989.5,860.5" style="stroke:#181818;stroke-width:1.0;"/><line style="stroke:#181818;stroke-width:1.0;" x1="1653" x2="1653" y1="494.9063" y2="579.5156"/><polygon fill="#181818" points="1649,569.5156,1653,579.5156,1657,569.5156,1653,573.5156" style="stroke:#181818;stroke-width:1.0;"/><line style="stroke:#181818;stroke-width:1.0;" x1="1290.75" x2="989.5" y1="400.2031" y2="400.2031"/><line style="stroke:#181818;stroke-width:1.0;" x1="989.5" x2="989.5" y1="400.2031" y2="459.8125"/><polygon fill="#181818" points="985.5,449.8125,989.5,459.8125,993.5,449.8125,989.5,453.8125" style="stroke:#181818;stroke-width:1.0;"/><line style="stroke:#181818;stroke-width:1.0;" x1="1371.75" x2="1653" y1="400.2031" y2="400.2031"/><line style="stroke:#181818;stroke-width:1.0;" x1="1653" x2="1653" y1="400.2031" y2="459.8125"/><polygon fill="#181818" points="1649,449.8125,1653,459.8125,1657,449.8125,1653,453.8125" style="stroke:#181818;stroke-width:1.0;"/><line style="stroke:#181818;stroke-width:1.0;" x1="989.5" x2="989.5" y1="1862.3906" y2="1880.3906"/><line style="stroke:#181818;stroke-width:1.0;" x1="989.5" x2="1319.25" y1="1880.3906" y2="1880.3906"/><polygon fill="#181818" points="1309.25,1876.3906,1319.25,1880.3906,1309.25,1884.3906,1313.25,1880.3906" style="stroke:#181818;stroke-width:1.0;"/><line style="stroke:#181818;stroke-width:1.0;" x1="1653" x2="1653" y1="614.6094" y2="1880.3906"/><line style="stroke:#181818;stroke-width:1.0;" x1="1653" x2="1343.25" y1="1880.3906" y2="1880.3906"/><polygon fill="#181818" points="1353.25,1876.3906,1343.25,1880.3906,1353.25,1884.3906,1349.25,1880.3906" style="stroke:#181818;stroke-width:1.0;"/><line style="stroke:#181818;stroke-width:1.0;" x1="1331.25" x2="1331.25" y1="356.2031" y2="388.2031"/><polygon fill="#181818" points="1327.25,378.2031,1331.25,388.2031,1335.25,378.2031,1331.25,382.2031" style="stroke:#181818;stroke-width:1.0;"/><line style="stroke:#181818;stroke-width:1.0;" x1="1331.25" x2="1331.25" y1="1892.3906" y2="1912.3906"/><polygon fill="#181818" points="1327.25,1902.3906,1331.25,1912.3906,1335.25,1902.3906,1331.25,1906.3906" style="stroke:#181818;stroke-width:1.0;"/><!--SRC=[xLPDRzD04BtxLupAfJsWYeB4HmyefLWSGAfQBZrEweqzx9UrksuL8VztPlsHn77IkAB0XKlYhEUzUMzsPhE1WX8mkmjqJs49buIvGmqlOPPfCZ0BbOChONByWIv9l2HJOWp07l4p0RZ0EvaxMvdiarNMmOlqNNgHfl6DTPbmtUfP-ePVy6fgJUZMNgLdxr-_JMhc3kX2aZ1ze43Mm54ZuQZ90F2X5QI5dbSIeK256WqecvCvtuf0Nqd9B_c956JyLABt3wnb42aLIGXMpws2horFFH1mGpu8lLBmJMZXI7faoe1jQi18rG1f0SSD3ToZekpZ2OH263Y-nPCaQHZsUTjK7xM359p25tEBlUIXGL9KyBUfXXlKXjQZP4CVdHU3kYGLozIuSKAX9vZpruff5BcmJaD0FSTY9w2UxbEm1GpxStTKiQWjWapUu4mkb5NRe66r-sIF2TbHKPHCkAyGzPgs4HLZbsXooAYCw9M2xsrzJk5pHW6k6xeDJLDqxT3coJ_W-Q4eZQLGlIoILQ29mBno5NZXAwIEP1gEfpPKlYlQtkZDIRiXNN8hdSALivnmYAdtrcdSmniTEfZBVHkuWpzkvEK6PZousyacAUhdPjbQBOMhk2FuwJ5fEmUk59u_vy8LZ5CJ09BFHpOng4JMJUuONWzMXFA2svSobBzfV4k_SCwwFotUPBHOxsxhvGkMt9pFDOA7TczzjA6i6Z_MBCZf22gYad_UwzTzJSjuz58ZwldQFM_u_ZVvtslozS-1hQV-_uK8s-ZRmmTMrrkTW77owPUFjdZjNIh77DLJRn9zFVdEjEDIo3oTI1zi-Gi0]--></g></svg>