<?xml version="1.0" encoding="us-ascii" standalone="no"?><svg xmlns="http://www.w3.org/2000/svg" xmlns:xlink="http://www.w3.org/1999/xlink" contentStyleType="text/css" height="2074px" preserveAspectRatio="none" style="width:2082px;height:2074px;background:#FFFFFF;" version="1.1" viewBox="0 0 2082 2074" width="2082px" zoomAndPan="magnify"><defs/><g><text fill="#000000" font-family="sans-serif" font-size="14" font-weight="bold" lengthAdjust="spacing" textLength="292" x="893.9375" y="34.5332">Activity Diagram - Admin Mengatur Jadwal</text><ellipse cx="1656.25" cy="58.6094" fill="#222222" rx="10" ry="10" style="stroke:#222222;stroke-width:1.0;"/><rect fill="none" height="194.8906" style="stroke:#000000;stroke-width:1.5;" width="270" x="1521.25" y="78.6094"/><path d="M1570.25,78.6094 L1570.25,89.2188 L1560.25,99.2188 L1521.25,99.2188 " fill="none" style="stroke:#000000;stroke-width:1.5;"/><text fill="#000000" font-family="sans-serif" font-size="14" lengthAdjust="spacing" textLength="39" x="1524.25" y="94.1426">Admin</text><rect fill="#F8FBFF" height="35.0938" rx="12.5" ry="12.5" style="stroke:#2F4F8F;stroke-width:0.5;" width="196" x="1558.25" y="116.2188"/><text fill="#1F2937" font-family="sans-serif" font-size="12" lengthAdjust="spacing" textLength="176" x="1568.25" y="138.6758">Admin membuka halaman login</text><rect fill="#F8FBFF" height="35.0938" rx="12.5" ry="12.5" style="stroke:#2F4F8F;stroke-width:0.5;" width="250" x="1531.25" y="171.3125"/><text fill="#1F2937" font-family="sans-serif" font-size="12" lengthAdjust="spacing" textLength="230" x="1541.25" y="193.7695">Admin memasukkan email dan password</text><rect fill="#F8FBFF" height="35.0938" rx="12.5" ry="12.5" style="stroke:#2F4F8F;stroke-width:0.5;" width="151" x="1580.75" y="226.4063"/><text fill="#1F2937" font-family="sans-serif" font-size="12" lengthAdjust="spacing" textLength="131" x="1590.75" y="248.8633">Admin klik tombol Login</text><rect fill="none" height="84.7031" style="stroke:#000000;stroke-width:1.5;" width="196" x="1558.25" y="283.5"/><path d="M1610.25,283.5 L1610.25,294.1094 L1600.25,304.1094 L1558.25,304.1094 " fill="none" style="stroke:#000000;stroke-width:1.5;"/><text fill="#000000" font-family="sans-serif" font-size="14" lengthAdjust="spacing" textLength="42" x="1561.25" y="299.0332">Sistem</text><rect fill="#F8FBFF" height="35.0938" rx="12.5" ry="12.5" style="stroke:#2F4F8F;stroke-width:0.5;" width="176" x="1568.25" y="321.1094"/><text fill="#1F2937" font-family="sans-serif" font-size="12" lengthAdjust="spacing" textLength="156" x="1578.25" y="343.5664">Memeriksa data login admin</text><polygon fill="#F8FBFF" points="1627.75,388.2031,1684.75,388.2031,1696.75,400.2031,1684.75,412.2031,1627.75,412.2031,1615.75,400.2031,1627.75,388.2031" style="stroke:#2F4F8F;stroke-width:0.5;"/><text fill="#1F2937" font-family="sans-serif" font-size="11" lengthAdjust="spacing" textLength="57" x="1627.75" y="404.7041">Login valid?</text><text fill="#000000" font-family="sans-serif" font-size="11" lengthAdjust="spacing" textLength="14" x="1601.75" y="397.7861">Ya</text><text fill="#000000" font-family="sans-serif" font-size="11" lengthAdjust="spacing" textLength="25" x="1696.75" y="397.7861">Tidak</text><rect fill="none" height="154.7969" style="stroke:#000000;stroke-width:1.5;" width="200" x="1244" y="422.2031"/><path d="M1293,422.2031 L1293,432.8125 L1283,442.8125 L1244,442.8125 " fill="none" style="stroke:#000000;stroke-width:1.5;"/><text fill="#000000" font-family="sans-serif" font-size="14" lengthAdjust="spacing" textLength="39" x="1247" y="437.7363">Admin</text><rect fill="#F8FBFF" height="35.0938" rx="12.5" ry="12.5" style="stroke:#2F4F8F;stroke-width:0.5;" width="175" x="1256.5" y="459.8125"/><text fill="#1F2937" font-family="sans-serif" font-size="12" lengthAdjust="spacing" textLength="155" x="1266.5" y="482.2695">Admin masuk ke dashboard</text><rect fill="#F8FBFF" height="35.0938" rx="12.5" ry="12.5" style="stroke:#2F4F8F;stroke-width:0.5;" width="180" x="1254" y="521.9063"/><text fill="#1F2937" font-family="sans-serif" font-size="12" lengthAdjust="spacing" textLength="160" x="1264" y="544.3633">Admin memilih menu Jadwal</text><rect fill="none" height="194.8906" style="stroke:#000000;stroke-width:1.5;" width="254" x="1217" y="612"/><path d="M1269,612 L1269,622.6094 L1259,632.6094 L1217,632.6094 " fill="none" style="stroke:#000000;stroke-width:1.5;"/><text fill="#000000" font-family="sans-serif" font-size="14" lengthAdjust="spacing" textLength="42" x="1220" y="627.5332">Sistem</text><rect fill="#F8FBFF" height="35.0938" rx="12.5" ry="12.5" style="stroke:#2F4F8F;stroke-width:0.5;" width="160" x="1264" y="649.6094"/><text fill="#1F2937" font-family="sans-serif" font-size="12" lengthAdjust="spacing" textLength="140" x="1274" y="672.0664">Menampilkan data jadwal</text><rect fill="#F8FBFF" height="35.0938" rx="12.5" ry="12.5" style="stroke:#2F4F8F;stroke-width:0.5;" width="206" x="1241" y="704.7031"/><text fill="#1F2937" font-family="sans-serif" font-size="12" lengthAdjust="spacing" textLength="186" x="1251" y="727.1602">Menampilkan form tambah jadwal</text><rect fill="#F8FBFF" height="35.0938" rx="12.5" ry="12.5" style="stroke:#2F4F8F;stroke-width:0.5;" width="234" x="1227" y="759.7969"/><text fill="#1F2937" font-family="sans-serif" font-size="12" lengthAdjust="spacing" textLength="214" x="1237" y="782.2539">Menampilkan pilihan relasi belajar aktif</text><polygon fill="#F8FBFF" points="1276.5,826.8906,1411.5,826.8906,1423.5,838.8906,1411.5,850.8906,1276.5,850.8906,1264.5,838.8906,1276.5,826.8906" style="stroke:#2F4F8F;stroke-width:0.5;"/><text fill="#1F2937" font-family="sans-serif" font-size="11" lengthAdjust="spacing" textLength="135" x="1276.5" y="843.3916">Relasi belajar aktif tersedia?</text><text fill="#000000" font-family="sans-serif" font-size="11" lengthAdjust="spacing" textLength="14" x="1250.5" y="836.4736">Ya</text><text fill="#000000" font-family="sans-serif" font-size="11" lengthAdjust="spacing" textLength="25" x="1423.5" y="836.4736">Tidak</text><rect fill="none" height="84.7031" style="stroke:#000000;stroke-width:1.5;" width="185" x="903" y="860.8906"/><path d="M952,860.8906 L952,871.5 L942,881.5 L903,881.5 " fill="none" style="stroke:#000000;stroke-width:1.5;"/><text fill="#000000" font-family="sans-serif" font-size="14" lengthAdjust="spacing" textLength="39" x="906" y="876.4238">Admin</text><rect fill="#F8FBFF" height="35.0938" rx="12.5" ry="12.5" style="stroke:#2F4F8F;stroke-width:0.5;" width="165" x="913" y="898.5"/><text fill="#1F2937" font-family="sans-serif" font-size="12" lengthAdjust="spacing" textLength="145" x="923" y="920.957">Admin melihat data jadwal</text><polygon fill="#F8FBFF" points="922,965.5938,1069,965.5938,1081,977.5938,1069,989.5938,922,989.5938,910,977.5938,922,965.5938" style="stroke:#2F4F8F;stroke-width:0.5;"/><text fill="#1F2937" font-family="sans-serif" font-size="11" lengthAdjust="spacing" textLength="147" x="922" y="982.0947">Admin ingin mengelola jadwal?</text><text fill="#000000" font-family="sans-serif" font-size="11" lengthAdjust="spacing" textLength="14" x="896" y="975.1768">Ya</text><text fill="#000000" font-family="sans-serif" font-size="11" lengthAdjust="spacing" textLength="25" x="1081" y="975.1768">Tidak</text><rect fill="none" height="84.7031" style="stroke:#000000;stroke-width:1.5;" width="188" x="515" y="999.5938"/><path d="M564,999.5938 L564,1010.2031 L554,1020.2031 L515,1020.2031 " fill="none" style="stroke:#000000;stroke-width:1.5;"/><text fill="#000000" font-family="sans-serif" font-size="14" lengthAdjust="spacing" textLength="39" x="518" y="1015.127">Admin</text><rect fill="#F8FBFF" height="35.0938" rx="12.5" ry="12.5" style="stroke:#2F4F8F;stroke-width:0.5;" width="168" x="525" y="1037.2031"/><text fill="#1F2937" font-family="sans-serif" font-size="12" lengthAdjust="spacing" textLength="148" x="535" y="1059.6602">Admin memilih aksi jadwal</text><polygon fill="#F8FBFF" points="567.5,1104.2969,650.5,1104.2969,662.5,1116.2969,650.5,1128.2969,567.5,1128.2969,555.5,1116.2969,567.5,1104.2969" style="stroke:#2F4F8F;stroke-width:0.5;"/><text fill="#1F2937" font-family="sans-serif" font-size="11" lengthAdjust="spacing" textLength="83" x="567.5" y="1120.7979">Aksi yang dipilih?</text><text fill="#000000" font-family="sans-serif" font-size="11" lengthAdjust="spacing" textLength="102" x="453.5" y="1113.8799">Tambah / Edit Jadwal</text><text fill="#000000" font-family="sans-serif" font-size="11" lengthAdjust="spacing" textLength="69" x="662.5" y="1113.8799">Hapus Jadwal</text><rect fill="none" height="342.5938" style="stroke:#000000;stroke-width:1.5;" width="232" x="184" y="1138.2969"/><path d="M233,1138.2969 L233,1148.9063 L223,1158.9063 L184,1158.9063 " fill="none" style="stroke:#000000;stroke-width:1.5;"/><text fill="#000000" font-family="sans-serif" font-size="14" lengthAdjust="spacing" textLength="39" x="187" y="1153.8301">Admin</text><rect fill="#F8FBFF" height="35.0938" rx="12.5" ry="12.5" style="stroke:#2F4F8F;stroke-width:0.5;" width="178" x="211" y="1175.9063"/><text fill="#1F2937" font-family="sans-serif" font-size="12" lengthAdjust="spacing" textLength="158" x="221" y="1198.3633">Admin memilih relasi belajar</text><rect fill="#F8FBFF" height="35.0938" rx="12.5" ry="12.5" style="stroke:#2F4F8F;stroke-width:0.5;" width="127" x="236.5" y="1231"/><text fill="#1F2937" font-family="sans-serif" font-size="12" lengthAdjust="spacing" textLength="107" x="246.5" y="1253.457">Admin memilih hari</text><rect fill="#F8FBFF" height="35.0938" rx="12.5" ry="12.5" style="stroke:#2F4F8F;stroke-width:0.5;" width="161" x="219.5" y="1293.0938"/><text fill="#1F2937" font-family="sans-serif" font-size="12" lengthAdjust="spacing" textLength="141" x="229.5" y="1315.5508">Admin mengisi jam mulai</text><rect fill="#F8FBFF" height="35.0938" rx="12.5" ry="12.5" style="stroke:#2F4F8F;stroke-width:0.5;" width="171" x="214.5" y="1363.1875"/><text fill="#1F2937" font-family="sans-serif" font-size="12" lengthAdjust="spacing" textLength="151" x="224.5" y="1385.6445">Admin mengisi jam selesai</text><rect fill="#F8FBFF" height="35.0938" rx="12.5" ry="12.5" style="stroke:#2F4F8F;stroke-width:0.5;" width="212" x="194" y="1425.7969"/><text fill="#1F2937" font-family="sans-serif" font-size="12" lengthAdjust="spacing" textLength="192" x="204" y="1448.2539">Admin klik tombol Simpan / Proses</text><rect fill="none" height="92.7031" style="stroke:#000000;stroke-width:1.5;" width="167" x="216.5" y="1515.8906"/><path d="M268.5,1515.8906 L268.5,1526.5 L258.5,1536.5 L216.5,1536.5 " fill="none" style="stroke:#000000;stroke-width:1.5;"/><text fill="#000000" font-family="sans-serif" font-size="14" lengthAdjust="spacing" textLength="42" x="219.5" y="1531.4238">Sistem</text><rect fill="#F8FBFF" height="35.0938" rx="12.5" ry="12.5" style="stroke:#2F4F8F;stroke-width:0.5;" width="147" x="226.5" y="1553.5"/><text fill="#1F2937" font-family="sans-serif" font-size="12" lengthAdjust="spacing" textLength="127" x="236.5" y="1575.957">Memeriksa data jadwal</text><polygon fill="#F8FBFF" points="256,1635.5938,344,1635.5938,356,1647.5938,344,1659.5938,256,1659.5938,244,1647.5938,256,1635.5938" style="stroke:#2F4F8F;stroke-width:0.5;"/><text fill="#1F2937" font-family="sans-serif" font-size="11" lengthAdjust="spacing" textLength="88" x="256" y="1652.0947">Data jadwal valid?</text><text fill="#000000" font-family="sans-serif" font-size="11" lengthAdjust="spacing" textLength="14" x="230" y="1645.1768">Ya</text><text fill="#000000" font-family="sans-serif" font-size="11" lengthAdjust="spacing" textLength="25" x="356" y="1645.1768">Tidak</text><rect fill="none" height="201.8906" style="stroke:#000000;stroke-width:1.5;" width="279" x="11" y="1669.5938"/><path d="M63,1669.5938 L63,1680.2031 L53,1690.2031 L11,1690.2031 " fill="none" style="stroke:#000000;stroke-width:1.5;"/><text fill="#000000" font-family="sans-serif" font-size="14" lengthAdjust="spacing" textLength="42" x="14" y="1685.127">Sistem</text><rect fill="#F8FBFF" height="35.0938" rx="12.5" ry="12.5" style="stroke:#2F4F8F;stroke-width:0.5;" width="185" x="58" y="1707.2031"/><text fill="#1F2937" font-family="sans-serif" font-size="12" lengthAdjust="spacing" textLength="165" x="68" y="1729.6602">Menyimpan perubahan jadwal</text><rect fill="#F8FBFF" height="35.0938" rx="12.5" ry="12.5" style="stroke:#2F4F8F;stroke-width:0.5;" width="180" x="60.5" y="1762.2969"/><text fill="#1F2937" font-family="sans-serif" font-size="12" lengthAdjust="spacing" textLength="160" x="70.5" y="1784.7539">Menampilkan pesan berhasil</text><rect fill="#F8FBFF" height="35.0938" rx="12.5" ry="12.5" style="stroke:#2F4F8F;stroke-width:0.5;" width="259" x="21" y="1824.3906"/><text fill="#1F2937" font-family="sans-serif" font-size="12" lengthAdjust="spacing" textLength="239" x="31" y="1846.8477">Menampilkan kembali data jadwal dan form</text><rect fill="none" height="139.7969" style="stroke:#000000;stroke-width:1.5;" width="279" x="310" y="1669.5938"/><path d="M362,1669.5938 L362,1680.2031 L352,1690.2031 L310,1690.2031 " fill="none" style="stroke:#000000;stroke-width:1.5;"/><text fill="#000000" font-family="sans-serif" font-size="14" lengthAdjust="spacing" textLength="42" x="313" y="1685.127">Sistem</text><rect fill="#F8FBFF" height="35.0938" rx="12.5" ry="12.5" style="stroke:#2F4F8F;stroke-width:0.5;" width="161" x="369" y="1707.2031"/><text fill="#1F2937" font-family="sans-serif" font-size="12" lengthAdjust="spacing" textLength="141" x="379" y="1729.6602">Menampilkan pesan error</text><rect fill="#F8FBFF" height="35.0938" rx="12.5" ry="12.5" style="stroke:#2F4F8F;stroke-width:0.5;" width="259" x="320" y="1762.2969"/><text fill="#1F2937" font-family="sans-serif" font-size="12" lengthAdjust="spacing" textLength="239" x="330" y="1784.7539">Menampilkan kembali data jadwal dan form</text><polygon fill="#F8FBFF" points="300,1877.4844,312,1889.4844,300,1901.4844,288,1889.4844,300,1877.4844" style="stroke:#2F4F8F;stroke-width:0.5;"/><rect fill="none" height="139.7969" style="stroke:#000000;stroke-width:1.5;" width="269" x="783.5" y="1138.2969"/><path d="M832.5,1138.2969 L832.5,1148.9063 L822.5,1158.9063 L783.5,1158.9063 " fill="none" style="stroke:#000000;stroke-width:1.5;"/><text fill="#000000" font-family="sans-serif" font-size="14" lengthAdjust="spacing" textLength="39" x="786.5" y="1153.8301">Admin</text><rect fill="#F8FBFF" height="35.0938" rx="12.5" ry="12.5" style="stroke:#2F4F8F;stroke-width:0.5;" width="249" x="793.5" y="1175.9063"/><text fill="#1F2937" font-family="sans-serif" font-size="12" lengthAdjust="spacing" textLength="229" x="803.5" y="1198.3633">Admin memilih jadwal yang akan dihapus</text><rect fill="#F8FBFF" height="35.0938" rx="12.5" ry="12.5" style="stroke:#2F4F8F;stroke-width:0.5;" width="218" x="809" y="1231"/><text fill="#1F2937" font-family="sans-serif" font-size="12" lengthAdjust="spacing" textLength="198" x="819" y="1253.457">Admin melakukan konfirmasi hapus</text><rect fill="none" height="92.7031" style="stroke:#000000;stroke-width:1.5;" width="167" x="834.5" y="1313.0938"/><path d="M886.5,1313.0938 L886.5,1323.7031 L876.5,1333.7031 L834.5,1333.7031 " fill="none" style="stroke:#000000;stroke-width:1.5;"/><text fill="#000000" font-family="sans-serif" font-size="14" lengthAdjust="spacing" textLength="42" x="837.5" y="1328.627">Sistem</text><rect fill="#F8FBFF" height="35.0938" rx="12.5" ry="12.5" style="stroke:#2F4F8F;stroke-width:0.5;" width="147" x="844.5" y="1350.7031"/><text fill="#1F2937" font-family="sans-serif" font-size="12" lengthAdjust="spacing" textLength="127" x="854.5" y="1373.1602">Memeriksa data jadwal</text><polygon fill="#F8FBFF" points="862,1433.3125,974,1433.3125,986,1445.3125,974,1457.3125,862,1457.3125,850,1445.3125,862,1433.3125" style="stroke:#2F4F8F;stroke-width:0.5;"/><text fill="#1F2937" font-family="sans-serif" font-size="11" lengthAdjust="spacing" textLength="112" x="862" y="1449.8135">Jadwal dapat dihapus?</text><text fill="#000000" font-family="sans-serif" font-size="11" lengthAdjust="spacing" textLength="14" x="836" y="1442.8955">Ya</text><text fill="#000000" font-family="sans-serif" font-size="11" lengthAdjust="spacing" textLength="25" x="986" y="1442.8955">Tidak</text><rect fill="none" height="224.8906" style="stroke:#000000;stroke-width:1.5;" width="279" x="629" y="1467.3125"/><path d="M681,1467.3125 L681,1477.9219 L671,1487.9219 L629,1487.9219 " fill="none" style="stroke:#000000;stroke-width:1.5;"/><text fill="#000000" font-family="sans-serif" font-size="14" lengthAdjust="spacing" textLength="42" x="632" y="1482.8457">Sistem</text><rect fill="#F8FBFF" height="35.0938" rx="12.5" ry="12.5" style="stroke:#2F4F8F;stroke-width:0.5;" width="151" x="693" y="1504.9219"/><text fill="#1F2937" font-family="sans-serif" font-size="12" lengthAdjust="spacing" textLength="131" x="703" y="1527.3789">Menghapus data jadwal</text><rect fill="#F8FBFF" height="35.0938" rx="12.5" ry="12.5" style="stroke:#2F4F8F;stroke-width:0.5;" width="180" x="678.5" y="1575.0156"/><text fill="#1F2937" font-family="sans-serif" font-size="12" lengthAdjust="spacing" textLength="160" x="688.5" y="1597.4727">Menampilkan pesan berhasil</text><rect fill="#F8FBFF" height="35.0938" rx="12.5" ry="12.5" style="stroke:#2F4F8F;stroke-width:0.5;" width="259" x="639" y="1637.1094"/><text fill="#1F2937" font-family="sans-serif" font-size="12" lengthAdjust="spacing" textLength="239" x="649" y="1659.5664">Menampilkan kembali data jadwal dan form</text><rect fill="none" height="154.7969" style="stroke:#000000;stroke-width:1.5;" width="279" x="928" y="1467.3125"/><path d="M980,1467.3125 L980,1477.9219 L970,1487.9219 L928,1487.9219 " fill="none" style="stroke:#000000;stroke-width:1.5;"/><text fill="#000000" font-family="sans-serif" font-size="14" lengthAdjust="spacing" textLength="42" x="931" y="1482.8457">Sistem</text><rect fill="#F8FBFF" height="35.0938" rx="12.5" ry="12.5" style="stroke:#2F4F8F;stroke-width:0.5;" width="161" x="987" y="1504.9219"/><text fill="#1F2937" font-family="sans-serif" font-size="12" lengthAdjust="spacing" textLength="141" x="997" y="1527.3789">Menampilkan pesan error</text><rect fill="#F8FBFF" height="35.0938" rx="12.5" ry="12.5" style="stroke:#2F4F8F;stroke-width:0.5;" width="259" x="938" y="1575.0156"/><text fill="#1F2937" font-family="sans-serif" font-size="12" lengthAdjust="spacing" textLength="239" x="948" y="1597.4727">Menampilkan kembali data jadwal dan form</text><polygon fill="#F8FBFF" points="918,1698.2031,930,1710.2031,918,1722.2031,906,1710.2031,918,1698.2031" style="stroke:#2F4F8F;stroke-width:0.5;"/><polygon fill="#F8FBFF" points="609,1907.4844,621,1919.4844,609,1931.4844,597,1919.4844,609,1907.4844" style="stroke:#2F4F8F;stroke-width:0.5;"/><rect fill="none" height="84.7031" style="stroke:#000000;stroke-width:1.5;" width="270" x="1241.25" y="999.5938"/><path d="M1290.25,999.5938 L1290.25,1010.2031 L1280.25,1020.2031 L1241.25,1020.2031 " fill="none" style="stroke:#000000;stroke-width:1.5;"/><text fill="#000000" font-family="sans-serif" font-size="14" lengthAdjust="spacing" textLength="39" x="1244.25" y="1015.127">Admin</text><rect fill="#F8FBFF" height="35.0938" rx="12.5" ry="12.5" style="stroke:#2F4F8F;stroke-width:0.5;" width="250" x="1251.25" y="1037.2031"/><text fill="#1F2937" font-family="sans-serif" font-size="12" lengthAdjust="spacing" textLength="230" x="1261.25" y="1059.6602">Admin tidak melakukan perubahan jadwal</text><polygon fill="#F8FBFF" points="995.5,1937.4844,1007.5,1949.4844,995.5,1961.4844,983.5,1949.4844,995.5,1937.4844" style="stroke:#2F4F8F;stroke-width:0.5;"/><rect fill="none" height="84.7031" style="stroke:#000000;stroke-width:1.5;" width="314" x="1527.875" y="860.8906"/><path d="M1579.875,860.8906 L1579.875,871.5 L1569.875,881.5 L1527.875,881.5 " fill="none" style="stroke:#000000;stroke-width:1.5;"/><text fill="#000000" font-family="sans-serif" font-size="14" lengthAdjust="spacing" textLength="42" x="1530.875" y="876.4238">Sistem</text><rect fill="#F8FBFF" height="35.0938" rx="12.5" ry="12.5" style="stroke:#2F4F8F;stroke-width:0.5;" width="294" x="1537.875" y="898.5"/><text fill="#1F2937" font-family="sans-serif" font-size="12" lengthAdjust="spacing" textLength="274" x="1547.875" y="920.957">Menampilkan pesan belum ada relasi belajar aktif</text><rect fill="none" height="92.7031" style="stroke:#000000;stroke-width:1.5;" width="244" x="1562.875" y="965.5938"/><path d="M1611.875,965.5938 L1611.875,976.2031 L1601.875,986.2031 L1562.875,986.2031 " fill="none" style="stroke:#000000;stroke-width:1.5;"/><text fill="#000000" font-family="sans-serif" font-size="14" lengthAdjust="spacing" textLength="39" x="1565.875" y="981.127">Admin</text><rect fill="#F8FBFF" height="35.0938" rx="12.5" ry="12.5" style="stroke:#2F4F8F;stroke-width:0.5;" width="224" x="1572.875" y="1003.2031"/><text fill="#1F2937" font-family="sans-serif" font-size="12" lengthAdjust="spacing" textLength="204" x="1582.875" y="1025.6602">Admin tidak dapat menambah jadwal</text><polygon fill="#F8FBFF" points="1344,1967.4844,1356,1979.4844,1344,1991.4844,1332,1979.4844,1344,1967.4844" style="stroke:#2F4F8F;stroke-width:0.5;"/><rect fill="none" height="84.7031" style="stroke:#000000;stroke-width:1.5;" width="216" x="1853.875" y="422.2031"/><path d="M1905.875,422.2031 L1905.875,432.8125 L1895.875,442.8125 L1853.875,442.8125 " fill="none" style="stroke:#000000;stroke-width:1.5;"/><text fill="#000000" font-family="sans-serif" font-size="14" lengthAdjust="spacing" textLength="42" x="1856.875" y="437.7363">Sistem</text><rect fill="#F8FBFF" height="35.0938" rx="12.5" ry="12.5" style="stroke:#2F4F8F;stroke-width:0.5;" width="196" x="1863.875" y="459.8125"/><text fill="#1F2937" font-family="sans-serif" font-size="12" lengthAdjust="spacing" textLength="176" x="1873.875" y="482.2695">Menampilkan pesan login gagal</text><rect fill="none" height="92.7031" style="stroke:#000000;stroke-width:1.5;" width="220" x="1851.875" y="541.9063"/><path d="M1900.875,541.9063 L1900.875,552.5156 L1890.875,562.5156 L1851.875,562.5156 " fill="none" style="stroke:#000000;stroke-width:1.5;"/><text fill="#000000" font-family="sans-serif" font-size="14" lengthAdjust="spacing" textLength="39" x="1854.875" y="557.4395">Admin</text><rect fill="#F8FBFF" height="35.0938" rx="12.5" ry="12.5" style="stroke:#2F4F8F;stroke-width:0.5;" width="200" x="1861.875" y="579.5156"/><text fill="#1F2937" font-family="sans-serif" font-size="12" lengthAdjust="spacing" textLength="180" x="1871.875" y="601.9727">Admin kembali ke halaman login</text><polygon fill="#F8FBFF" points="1656.25,1997.4844,1668.25,2009.4844,1656.25,2021.4844,1644.25,2009.4844,1656.25,1997.4844" style="stroke:#2F4F8F;stroke-width:0.5;"/><ellipse cx="1656.25" cy="2052.4844" fill="none" rx="11" ry="11" style="stroke:#222222;stroke-width:1.0;"/><ellipse cx="1656.25" cy="2052.4844" fill="#222222" rx="6" ry="6" style="stroke:#222222;stroke-width:1.0;"/><line style="stroke:#181818;stroke-width:1.0;" x1="1656.25" x2="1656.25" y1="151.3125" y2="171.3125"/><polygon fill="#181818" points="1652.25,161.3125,1656.25,171.3125,1660.25,161.3125,1656.25,165.3125" style="stroke:#181818;stroke-width:1.0;"/><line style="stroke:#181818;stroke-width:1.0;" x1="1656.25" x2="1656.25" y1="206.4063" y2="226.4063"/><polygon fill="#181818" points="1652.25,216.4063,1656.25,226.4063,1660.25,216.4063,1656.25,220.4063" style="stroke:#181818;stroke-width:1.0;"/><line style="stroke:#181818;stroke-width:1.0;" x1="1656.25" x2="1656.25" y1="68.6094" y2="116.2188"/><polygon fill="#181818" points="1652.25,106.2188,1656.25,116.2188,1660.25,106.2188,1656.25,110.2188" style="stroke:#181818;stroke-width:1.0;"/><line style="stroke:#181818;stroke-width:1.0;" x1="1656.25" x2="1656.25" y1="261.5" y2="321.1094"/><polygon fill="#181818" points="1652.25,311.1094,1656.25,321.1094,1660.25,311.1094,1656.25,315.1094" style="stroke:#181818;stroke-width:1.0;"/><line style="stroke:#181818;stroke-width:1.0;" x1="1344" x2="1344" y1="494.9063" y2="521.9063"/><polygon fill="#181818" points="1340,511.9063,1344,521.9063,1348,511.9063,1344,515.9063" style="stroke:#181818;stroke-width:1.0;"/><line style="stroke:#181818;stroke-width:1.0;" x1="1344" x2="1344" y1="684.7031" y2="704.7031"/><polygon fill="#181818" points="1340,694.7031,1344,704.7031,1348,694.7031,1344,698.7031" style="stroke:#181818;stroke-width:1.0;"/><line style="stroke:#181818;stroke-width:1.0;" x1="1344" x2="1344" y1="739.7969" y2="759.7969"/><polygon fill="#181818" points="1340,749.7969,1344,759.7969,1348,749.7969,1344,753.7969" style="stroke:#181818;stroke-width:1.0;"/><line style="stroke:#181818;stroke-width:1.0;" x1="1344" x2="1344" y1="557" y2="649.6094"/><polygon fill="#181818" points="1340,639.6094,1344,649.6094,1348,639.6094,1344,643.6094" style="stroke:#181818;stroke-width:1.0;"/><line style="stroke:#181818;stroke-width:1.0;" x1="300" x2="300" y1="1211" y2="1231"/><polygon fill="#181818" points="296,1221,300,1231,304,1221,300,1225" style="stroke:#181818;stroke-width:1.0;"/><line style="stroke:#181818;stroke-width:1.0;" x1="300" x2="300" y1="1266.0938" y2="1293.0938"/><polygon fill="#181818" points="296,1283.0938,300,1293.0938,304,1283.0938,300,1287.0938" style="stroke:#181818;stroke-width:1.0;"/><line style="stroke:#181818;stroke-width:1.0;" x1="300" x2="300" y1="1328.1875" y2="1363.1875"/><polygon fill="#181818" points="296,1353.1875,300,1363.1875,304,1353.1875,300,1357.1875" style="stroke:#181818;stroke-width:1.0;"/><line style="stroke:#181818;stroke-width:1.0;" x1="300" x2="300" y1="1398.2813" y2="1425.7969"/><polygon fill="#181818" points="296,1415.7969,300,1425.7969,304,1415.7969,300,1419.7969" style="stroke:#181818;stroke-width:1.0;"/><line style="stroke:#181818;stroke-width:1.0;" x1="300" x2="300" y1="1460.8906" y2="1553.5"/><polygon fill="#181818" points="296,1543.5,300,1553.5,304,1543.5,300,1547.5" style="stroke:#181818;stroke-width:1.0;"/><line style="stroke:#181818;stroke-width:1.0;" x1="150.5" x2="150.5" y1="1742.2969" y2="1762.2969"/><polygon fill="#181818" points="146.5,1752.2969,150.5,1762.2969,154.5,1752.2969,150.5,1756.2969" style="stroke:#181818;stroke-width:1.0;"/><line style="stroke:#181818;stroke-width:1.0;" x1="150.5" x2="150.5" y1="1797.3906" y2="1824.3906"/><polygon fill="#181818" points="146.5,1814.3906,150.5,1824.3906,154.5,1814.3906,150.5,1818.3906" style="stroke:#181818;stroke-width:1.0;"/><line style="stroke:#181818;stroke-width:1.0;" x1="449.5" x2="449.5" y1="1742.2969" y2="1762.2969"/><polygon fill="#181818" points="445.5,1752.2969,449.5,1762.2969,453.5,1752.2969,449.5,1756.2969" style="stroke:#181818;stroke-width:1.0;"/><line style="stroke:#181818;stroke-width:1.0;" x1="244" x2="150.5" y1="1647.5938" y2="1647.5938"/><line style="stroke:#181818;stroke-width:1.0;" x1="150.5" x2="150.5" y1="1647.5938" y2="1707.2031"/><polygon fill="#181818" points="146.5,1697.2031,150.5,1707.2031,154.5,1697.2031,150.5,1701.2031" style="stroke:#181818;stroke-width:1.0;"/><line style="stroke:#181818;stroke-width:1.0;" x1="356" x2="449.5" y1="1647.5938" y2="1647.5938"/><line style="stroke:#181818;stroke-width:1.0;" x1="449.5" x2="449.5" y1="1647.5938" y2="1707.2031"/><polygon fill="#181818" points="445.5,1697.2031,449.5,1707.2031,453.5,1697.2031,449.5,1701.2031" style="stroke:#181818;stroke-width:1.0;"/><line style="stroke:#181818;stroke-width:1.0;" x1="150.5" x2="150.5" y1="1859.4844" y2="1889.4844"/><line style="stroke:#181818;stroke-width:1.0;" x1="150.5" x2="288" y1="1889.4844" y2="1889.4844"/><polygon fill="#181818" points="278,1885.4844,288,1889.4844,278,1893.4844,282,1889.4844" style="stroke:#181818;stroke-width:1.0;"/><line style="stroke:#181818;stroke-width:1.0;" x1="449.5" x2="449.5" y1="1797.3906" y2="1889.4844"/><line style="stroke:#181818;stroke-width:1.0;" x1="449.5" x2="312" y1="1889.4844" y2="1889.4844"/><polygon fill="#181818" points="322,1885.4844,312,1889.4844,322,1893.4844,318,1889.4844" style="stroke:#181818;stroke-width:1.0;"/><line style="stroke:#181818;stroke-width:1.0;" x1="300" x2="300" y1="1588.5938" y2="1635.5938"/><polygon fill="#181818" points="296,1625.5938,300,1635.5938,304,1625.5938,300,1629.5938" style="stroke:#181818;stroke-width:1.0;"/><line style="stroke:#181818;stroke-width:1.0;" x1="918" x2="918" y1="1211" y2="1231"/><polygon fill="#181818" points="914,1221,918,1231,922,1221,918,1225" style="stroke:#181818;stroke-width:1.0;"/><line style="stroke:#181818;stroke-width:1.0;" x1="918" x2="918" y1="1266.0938" y2="1350.7031"/><polygon fill="#181818" points="914,1340.7031,918,1350.7031,922,1340.7031,918,1344.7031" style="stroke:#181818;stroke-width:1.0;"/><line style="stroke:#181818;stroke-width:1.0;" x1="768.5" x2="768.5" y1="1540.0156" y2="1575.0156"/><polygon fill="#181818" points="764.5,1565.0156,768.5,1575.0156,772.5,1565.0156,768.5,1569.0156" style="stroke:#181818;stroke-width:1.0;"/><line style="stroke:#181818;stroke-width:1.0;" x1="768.5" x2="768.5" y1="1610.1094" y2="1637.1094"/><polygon fill="#181818" points="764.5,1627.1094,768.5,1637.1094,772.5,1627.1094,768.5,1631.1094" style="stroke:#181818;stroke-width:1.0;"/><line style="stroke:#181818;stroke-width:1.0;" x1="1067.5" x2="1067.5" y1="1540.0156" y2="1575.0156"/><polygon fill="#181818" points="1063.5,1565.0156,1067.5,1575.0156,1071.5,1565.0156,1067.5,1569.0156" style="stroke:#181818;stroke-width:1.0;"/><line style="stroke:#181818;stroke-width:1.0;" x1="850" x2="768.5" y1="1445.3125" y2="1445.3125"/><line style="stroke:#181818;stroke-width:1.0;" x1="768.5" x2="768.5" y1="1445.3125" y2="1504.9219"/><polygon fill="#181818" points="764.5,1494.9219,768.5,1504.9219,772.5,1494.9219,768.5,1498.9219" style="stroke:#181818;stroke-width:1.0;"/><line style="stroke:#181818;stroke-width:1.0;" x1="986" x2="1067.5" y1="1445.3125" y2="1445.3125"/><line style="stroke:#181818;stroke-width:1.0;" x1="1067.5" x2="1067.5" y1="1445.3125" y2="1504.9219"/><polygon fill="#181818" points="1063.5,1494.9219,1067.5,1504.9219,1071.5,1494.9219,1067.5,1498.9219" style="stroke:#181818;stroke-width:1.0;"/><line style="stroke:#181818;stroke-width:1.0;" x1="768.5" x2="768.5" y1="1672.2031" y2="1710.2031"/><line style="stroke:#181818;stroke-width:1.0;" x1="768.5" x2="906" y1="1710.2031" y2="1710.2031"/><polygon fill="#181818" points="896,1706.2031,906,1710.2031,896,1714.2031,900,1710.2031" style="stroke:#181818;stroke-width:1.0;"/><line style="stroke:#181818;stroke-width:1.0;" x1="1067.5" x2="1067.5" y1="1610.1094" y2="1710.2031"/><line style="stroke:#181818;stroke-width:1.0;" x1="1067.5" x2="930" y1="1710.2031" y2="1710.2031"/><polygon fill="#181818" points="940,1706.2031,930,1710.2031,940,1714.2031,936,1710.2031" style="stroke:#181818;stroke-width:1.0;"/><line style="stroke:#181818;stroke-width:1.0;" x1="918" x2="918" y1="1385.7969" y2="1433.3125"/><polygon fill="#181818" points="914,1423.3125,918,1433.3125,922,1423.3125,918,1427.3125" style="stroke:#181818;stroke-width:1.0;"/><line style="stroke:#181818;stroke-width:1.0;" x1="555.5" x2="300" y1="1116.2969" y2="1116.2969"/><line style="stroke:#181818;stroke-width:1.0;" x1="300" x2="300" y1="1116.2969" y2="1175.9063"/><polygon fill="#181818" points="296,1165.9063,300,1175.9063,304,1165.9063,300,1169.9063" style="stroke:#181818;stroke-width:1.0;"/><line style="stroke:#181818;stroke-width:1.0;" x1="662.5" x2="918" y1="1116.2969" y2="1116.2969"/><line style="stroke:#181818;stroke-width:1.0;" x1="918" x2="918" y1="1116.2969" y2="1175.9063"/><polygon fill="#181818" points="914,1165.9063,918,1175.9063,922,1165.9063,918,1169.9063" style="stroke:#181818;stroke-width:1.0;"/><line style="stroke:#181818;stroke-width:1.0;" x1="300" x2="300" y1="1901.4844" y2="1919.4844"/><line style="stroke:#181818;stroke-width:1.0;" x1="300" x2="597" y1="1919.4844" y2="1919.4844"/><polygon fill="#181818" points="587,1915.4844,597,1919.4844,587,1923.4844,591,1919.4844" style="stroke:#181818;stroke-width:1.0;"/><line style="stroke:#181818;stroke-width:1.0;" x1="918" x2="918" y1="1722.2031" y2="1919.4844"/><line style="stroke:#181818;stroke-width:1.0;" x1="918" x2="621" y1="1919.4844" y2="1919.4844"/><polygon fill="#181818" points="631,1915.4844,621,1919.4844,631,1923.4844,627,1919.4844" style="stroke:#181818;stroke-width:1.0;"/><line style="stroke:#181818;stroke-width:1.0;" x1="609" x2="609" y1="1072.2969" y2="1104.2969"/><polygon fill="#181818" points="605,1094.2969,609,1104.2969,613,1094.2969,609,1098.2969" style="stroke:#181818;stroke-width:1.0;"/><line style="stroke:#181818;stroke-width:1.0;" x1="910" x2="609" y1="977.5938" y2="977.5938"/><line style="stroke:#181818;stroke-width:1.0;" x1="609" x2="609" y1="977.5938" y2="1037.2031"/><polygon fill="#181818" points="605,1027.2031,609,1037.2031,613,1027.2031,609,1031.2031" style="stroke:#181818;stroke-width:1.0;"/><line style="stroke:#181818;stroke-width:1.0;" x1="1081" x2="1376.25" y1="977.5938" y2="977.5938"/><line style="stroke:#181818;stroke-width:1.0;" x1="1376.25" x2="1376.25" y1="977.5938" y2="1037.2031"/><polygon fill="#181818" points="1372.25,1027.2031,1376.25,1037.2031,1380.25,1027.2031,1376.25,1031.2031" style="stroke:#181818;stroke-width:1.0;"/><line style="stroke:#181818;stroke-width:1.0;" x1="609" x2="609" y1="1931.4844" y2="1949.4844"/><line style="stroke:#181818;stroke-width:1.0;" x1="609" x2="983.5" y1="1949.4844" y2="1949.4844"/><polygon fill="#181818" points="973.5,1945.4844,983.5,1949.4844,973.5,1953.4844,977.5,1949.4844" style="stroke:#181818;stroke-width:1.0;"/><line style="stroke:#181818;stroke-width:1.0;" x1="1376.25" x2="1376.25" y1="1072.2969" y2="1949.4844"/><line style="stroke:#181818;stroke-width:1.0;" x1="1376.25" x2="1007.5" y1="1949.4844" y2="1949.4844"/><polygon fill="#181818" points="1017.5,1945.4844,1007.5,1949.4844,1017.5,1953.4844,1013.5,1949.4844" style="stroke:#181818;stroke-width:1.0;"/><line style="stroke:#181818;stroke-width:1.0;" x1="995.5" x2="995.5" y1="933.5938" y2="965.5938"/><polygon fill="#181818" points="991.5,955.5938,995.5,965.5938,999.5,955.5938,995.5,959.5938" style="stroke:#181818;stroke-width:1.0;"/><line style="stroke:#181818;stroke-width:1.0;" x1="1684.875" x2="1684.875" y1="933.5938" y2="1003.2031"/><polygon fill="#181818" points="1680.875,993.2031,1684.875,1003.2031,1688.875,993.2031,1684.875,997.2031" style="stroke:#181818;stroke-width:1.0;"/><line style="stroke:#181818;stroke-width:1.0;" x1="1264.5" x2="995.5" y1="838.8906" y2="838.8906"/><line style="stroke:#181818;stroke-width:1.0;" x1="995.5" x2="995.5" y1="838.8906" y2="898.5"/><polygon fill="#181818" points="991.5,888.5,995.5,898.5,999.5,888.5,995.5,892.5" style="stroke:#181818;stroke-width:1.0;"/><line style="stroke:#181818;stroke-width:1.0;" x1="1423.5" x2="1684.875" y1="838.8906" y2="838.8906"/><line style="stroke:#181818;stroke-width:1.0;" x1="1684.875" x2="1684.875" y1="838.8906" y2="898.5"/><polygon fill="#181818" points="1680.875,888.5,1684.875,898.5,1688.875,888.5,1684.875,892.5" style="stroke:#181818;stroke-width:1.0;"/><line style="stroke:#181818;stroke-width:1.0;" x1="995.5" x2="995.5" y1="1961.4844" y2="1979.4844"/><line style="stroke:#181818;stroke-width:1.0;" x1="995.5" x2="1332" y1="1979.4844" y2="1979.4844"/><polygon fill="#181818" points="1322,1975.4844,1332,1979.4844,1322,1983.4844,1326,1979.4844" style="stroke:#181818;stroke-width:1.0;"/><line style="stroke:#181818;stroke-width:1.0;" x1="1684.875" x2="1684.875" y1="1038.2969" y2="1979.4844"/><line style="stroke:#181818;stroke-width:1.0;" x1="1684.875" x2="1356" y1="1979.4844" y2="1979.4844"/><polygon fill="#181818" points="1366,1975.4844,1356,1979.4844,1366,1983.4844,1362,1979.4844" style="stroke:#181818;stroke-width:1.0;"/><line style="stroke:#181818;stroke-width:1.0;" x1="1344" x2="1344" y1="794.8906" y2="826.8906"/><polygon fill="#181818" points="1340,816.8906,1344,826.8906,1348,816.8906,1344,820.8906" style="stroke:#181818;stroke-width:1.0;"/><line style="stroke:#181818;stroke-width:1.0;" x1="1961.875" x2="1961.875" y1="494.9063" y2="579.5156"/><polygon fill="#181818" points="1957.875,569.5156,1961.875,579.5156,1965.875,569.5156,1961.875,573.5156" style="stroke:#181818;stroke-width:1.0;"/><line style="stroke:#181818;stroke-width:1.0;" x1="1615.75" x2="1344" y1="400.2031" y2="400.2031"/><line style="stroke:#181818;stroke-width:1.0;" x1="1344" x2="1344" y1="400.2031" y2="459.8125"/><polygon fill="#181818" points="1340,449.8125,1344,459.8125,1348,449.8125,1344,453.8125" style="stroke:#181818;stroke-width:1.0;"/><line style="stroke:#181818;stroke-width:1.0;" x1="1696.75" x2="1961.875" y1="400.2031" y2="400.2031"/><line style="stroke:#181818;stroke-width:1.0;" x1="1961.875" x2="1961.875" y1="400.2031" y2="459.8125"/><polygon fill="#181818" points="1957.875,449.8125,1961.875,459.8125,1965.875,449.8125,1961.875,453.8125" style="stroke:#181818;stroke-width:1.0;"/><line style="stroke:#181818;stroke-width:1.0;" x1="1344" x2="1344" y1="1991.4844" y2="2009.4844"/><line style="stroke:#181818;stroke-width:1.0;" x1="1344" x2="1644.25" y1="2009.4844" y2="2009.4844"/><polygon fill="#181818" points="1634.25,2005.4844,1644.25,2009.4844,1634.25,2013.4844,1638.25,2009.4844" style="stroke:#181818;stroke-width:1.0;"/><line style="stroke:#181818;stroke-width:1.0;" x1="1961.875" x2="1961.875" y1="614.6094" y2="2009.4844"/><line style="stroke:#181818;stroke-width:1.0;" x1="1961.875" x2="1668.25" y1="2009.4844" y2="2009.4844"/><polygon fill="#181818" points="1678.25,2005.4844,1668.25,2009.4844,1678.25,2013.4844,1674.25,2009.4844" style="stroke:#181818;stroke-width:1.0;"/><line style="stroke:#181818;stroke-width:1.0;" x1="1656.25" x2="1656.25" y1="356.2031" y2="388.2031"/><polygon fill="#181818" points="1652.25,378.2031,1656.25,388.2031,1660.25,378.2031,1656.25,382.2031" style="stroke:#181818;stroke-width:1.0;"/><line style="stroke:#181818;stroke-width:1.0;" x1="1656.25" x2="1656.25" y1="2021.4844" y2="2041.4844"/><polygon fill="#181818" points="1652.25,2031.4844,1656.25,2041.4844,1660.25,2031.4844,1656.25,2035.4844" style="stroke:#181818;stroke-width:1.0;"/><!--SRC=[xLPBRzGm4BxdLupAfJsWYeB4emVKKY9KKGa15uwpZJUP-XNPJgiAxNzdx2HjiflTZL1LBfnYsVFuldbb0WKbuEmwq2s5UxWWB1rgU0bdXIO3LyAK61e7brZSeSeoBydK64Mmr_cT0PpZjIoTRKpnoIhhu4N-BZ_Fy_XYNI5STtkIl-47lisj2TtTg_pa_UktsOfj1tGXozXye43Mm442SP0y07ne8McX5ur4g52XHWFAbcHEroJGDrBo8vz8GS6d6hs_OomZIQb8Gh1wOHLyRUsiHW1-a0z2Fo2u4beuaXxPPC3MDM0qbHHf2OV93DoYekBZ4OHA63ZyXKTPbYniupP47x635Ep2LmkBFUGnGL9KyTSqNMPQcTM6bp61ZeH1NPEAyKaqRWOMDYIMrca8g1TOxHQi8oJ-Eg7G4opuSuCEK0PQZj35A7sV488Wd1S5uJXklRDTeHl59i88qynMZ-OYYbQ3J9dqJ2cKLRtID8WvG2OIXPB9heDP0_G0AihUeocXe1JJ1oG_somSm-U2GfVtDMnpyKrW7EVjT8vAXOxs279i4tKDkb4uNzeB9VmU-M7t_Y1TS_4TmpTdlV2RUgkTWTfiav6_jRwVokGM7p6Z5uyw4uDXok5iP7qNthVqQ-4QBX4-ROCutReSQiEPTnLNm5mboNEOoGmZaWPj71ZJ9bORjq9vmNLD1Sed2iGQ9-6STSz9o1Iq75T1o_4Brer_yfxjKAPfWMcUy-nZHtlQJA5i4cDhbkHqRFijQl-mQoxx3DHnchUydhvnocHtDy3_FVFiFJE-6b7-stznYEg3ujyzAmT5EG0p3MHlm2SBHpMyGnUuOrzQmp5p0MfvjcsZez-fpQqpsr7Rf3L_Wspfj9jmYUNsJNJRljkN46-y4oizs-b0-c3hFm00]--></g></svg>