<?xml version="1.0" encoding="us-ascii" standalone="no"?><svg xmlns="http://www.w3.org/2000/svg" xmlns:xlink="http://www.w3.org/1999/xlink" contentStyleType="text/css" height="2324px" preserveAspectRatio="none" style="width:1161px;height:2324px;background:#FFFFFF;" version="1.1" viewBox="0 0 1161 2324" width="1161px" zoomAndPan="magnify"><defs/><g><text fill="#000000" font-family="sans-serif" font-size="14" font-weight="bold" lengthAdjust="spacing" textLength="306" x="426.1563" y="34.5332">Activity Diagram - Admin Mengelola Absensi</text><ellipse cx="785.3125" cy="58.6094" fill="#222222" rx="10" ry="10" style="stroke:#222222;stroke-width:1.0;"/><rect fill="none" height="194.8906" style="stroke:#000000;stroke-width:1.5;" width="270" x="650.3125" y="78.6094"/><path d="M699.3125,78.6094 L699.3125,89.2188 L689.3125,99.2188 L650.3125,99.2188 " fill="none" style="stroke:#000000;stroke-width:1.5;"/><text fill="#000000" font-family="sans-serif" font-size="14" lengthAdjust="spacing" textLength="39" x="653.3125" y="94.1426">Admin</text><rect fill="#F8FBFF" height="35.0938" rx="12.5" ry="12.5" style="stroke:#2F4F8F;stroke-width:0.5;" width="196" x="687.3125" y="116.2188"/><text fill="#1F2937" font-family="sans-serif" font-size="12" lengthAdjust="spacing" textLength="176" x="697.3125" y="138.6758">Admin membuka halaman login</text><rect fill="#F8FBFF" height="35.0938" rx="12.5" ry="12.5" style="stroke:#2F4F8F;stroke-width:0.5;" width="250" x="660.3125" y="171.3125"/><text fill="#1F2937" font-family="sans-serif" font-size="12" lengthAdjust="spacing" textLength="230" x="670.3125" y="193.7695">Admin memasukkan email dan password</text><rect fill="#F8FBFF" height="35.0938" rx="12.5" ry="12.5" style="stroke:#2F4F8F;stroke-width:0.5;" width="151" x="709.8125" y="226.4063"/><text fill="#1F2937" font-family="sans-serif" font-size="12" lengthAdjust="spacing" textLength="131" x="719.8125" y="248.8633">Admin klik tombol Login</text><rect fill="none" height="84.7031" style="stroke:#000000;stroke-width:1.5;" width="196" x="687.3125" y="283.5"/><path d="M739.3125,283.5 L739.3125,294.1094 L729.3125,304.1094 L687.3125,304.1094 " fill="none" style="stroke:#000000;stroke-width:1.5;"/><text fill="#000000" font-family="sans-serif" font-size="14" lengthAdjust="spacing" textLength="42" x="690.3125" y="299.0332">Sistem</text><rect fill="#F8FBFF" height="35.0938" rx="12.5" ry="12.5" style="stroke:#2F4F8F;stroke-width:0.5;" width="176" x="697.3125" y="321.1094"/><text fill="#1F2937" font-family="sans-serif" font-size="12" lengthAdjust="spacing" textLength="156" x="707.3125" y="343.5664">Memeriksa data login admin</text><polygon fill="#F8FBFF" points="756.8125,388.2031,813.8125,388.2031,825.8125,400.2031,813.8125,412.2031,756.8125,412.2031,744.8125,400.2031,756.8125,388.2031" style="stroke:#2F4F8F;stroke-width:0.5;"/><text fill="#1F2937" font-family="sans-serif" font-size="11" lengthAdjust="spacing" textLength="57" x="756.8125" y="404.7041">Login valid?</text><text fill="#000000" font-family="sans-serif" font-size="11" lengthAdjust="spacing" textLength="14" x="730.8125" y="397.7861">Ya</text><text fill="#000000" font-family="sans-serif" font-size="11" lengthAdjust="spacing" textLength="25" x="825.8125" y="397.7861">Tidak</text><rect fill="none" height="154.7969" style="stroke:#000000;stroke-width:1.5;" width="206" x="426.625" y="422.2031"/><path d="M475.625,422.2031 L475.625,432.8125 L465.625,442.8125 L426.625,442.8125 " fill="none" style="stroke:#000000;stroke-width:1.5;"/><text fill="#000000" font-family="sans-serif" font-size="14" lengthAdjust="spacing" textLength="39" x="429.625" y="437.7363">Admin</text><rect fill="#F8FBFF" height="35.0938" rx="12.5" ry="12.5" style="stroke:#2F4F8F;stroke-width:0.5;" width="175" x="442.125" y="459.8125"/><text fill="#1F2937" font-family="sans-serif" font-size="12" lengthAdjust="spacing" textLength="155" x="452.125" y="482.2695">Admin masuk ke dashboard</text><rect fill="#F8FBFF" height="35.0938" rx="12.5" ry="12.5" style="stroke:#2F4F8F;stroke-width:0.5;" width="186" x="436.625" y="521.9063"/><text fill="#1F2937" font-family="sans-serif" font-size="12" lengthAdjust="spacing" textLength="166" x="446.625" y="544.3633">Admin memilih menu Absensi</text><rect fill="none" height="139.7969" style="stroke:#000000;stroke-width:1.5;" width="223" x="418.125" y="612"/><path d="M470.125,612 L470.125,622.6094 L460.125,632.6094 L418.125,632.6094 " fill="none" style="stroke:#000000;stroke-width:1.5;"/><text fill="#000000" font-family="sans-serif" font-size="14" lengthAdjust="spacing" textLength="42" x="421.125" y="627.5332">Sistem</text><rect fill="#F8FBFF" height="35.0938" rx="12.5" ry="12.5" style="stroke:#2F4F8F;stroke-width:0.5;" width="168" x="445.625" y="649.6094"/><text fill="#1F2937" font-family="sans-serif" font-size="12" lengthAdjust="spacing" textLength="148" x="455.625" y="672.0664">Menampilkan filter absensi</text><rect fill="#F8FBFF" height="35.0938" rx="12.5" ry="12.5" style="stroke:#2F4F8F;stroke-width:0.5;" width="203" x="428.125" y="704.7031"/><text fill="#1F2937" font-family="sans-serif" font-size="12" lengthAdjust="spacing" textLength="183" x="438.125" y="727.1602">Menampilkan rekap data absensi</text><rect fill="none" height="84.7031" style="stroke:#000000;stroke-width:1.5;" width="194" x="432.625" y="761.7969"/><path d="M481.625,761.7969 L481.625,772.4063 L471.625,782.4063 L432.625,782.4063 " fill="none" style="stroke:#000000;stroke-width:1.5;"/><text fill="#000000" font-family="sans-serif" font-size="14" lengthAdjust="spacing" textLength="39" x="435.625" y="777.3301">Admin</text><rect fill="#F8FBFF" height="35.0938" rx="12.5" ry="12.5" style="stroke:#2F4F8F;stroke-width:0.5;" width="174" x="442.625" y="799.4063"/><text fill="#1F2937" font-family="sans-serif" font-size="12" lengthAdjust="spacing" textLength="154" x="452.625" y="821.8633">Admin melihat data absensi</text><polygon fill="#F8FBFF" points="443.625,866.5,615.625,866.5,627.625,878.5,615.625,890.5,443.625,890.5,431.625,878.5,443.625,866.5" style="stroke:#2F4F8F;stroke-width:0.5;"/><text fill="#1F2937" font-family="sans-serif" font-size="11" lengthAdjust="spacing" textLength="172" x="443.625" y="883.001">Admin ingin memfilter data absensi?</text><text fill="#000000" font-family="sans-serif" font-size="11" lengthAdjust="spacing" textLength="14" x="417.625" y="876.083">Ya</text><text fill="#000000" font-family="sans-serif" font-size="11" lengthAdjust="spacing" textLength="25" x="627.625" y="876.083">Tidak</text><rect fill="none" height="312.0781" style="stroke:#000000;stroke-width:1.5;" width="212" x="277.125" y="900.5"/><path d="M326.125,900.5 L326.125,911.1094 L316.125,921.1094 L277.125,921.1094 " fill="none" style="stroke:#000000;stroke-width:1.5;"/><text fill="#000000" font-family="sans-serif" font-size="14" lengthAdjust="spacing" textLength="39" x="280.125" y="916.0332">Admin</text><rect fill="#F8FBFF" height="35.0938" rx="12.5" ry="12.5" style="stroke:#2F4F8F;stroke-width:0.5;" width="131" x="317.625" y="938.1094"/><text fill="#1F2937" font-family="sans-serif" font-size="12" lengthAdjust="spacing" textLength="111" x="327.625" y="960.5664">Admin memilih guru</text><rect fill="#F8FBFF" height="35.0938" rx="12.5" ry="12.5" style="stroke:#2F4F8F;stroke-width:0.5;" width="139" x="313.625" y="1000.2031"/><text fill="#1F2937" font-family="sans-serif" font-size="12" lengthAdjust="spacing" textLength="119" x="323.625" y="1022.6602">Admin memilih siswa</text><rect fill="#F8FBFF" height="35.0938" rx="12.5" ry="12.5" style="stroke:#2F4F8F;stroke-width:0.5;" width="188" x="289.125" y="1055.2969"/><text fill="#1F2937" font-family="sans-serif" font-size="12" lengthAdjust="spacing" textLength="168" x="299.125" y="1077.7539">Admin memilih status absensi</text><rect fill="#F8FBFF" height="35.0938" rx="12.5" ry="12.5" style="stroke:#2F4F8F;stroke-width:0.5;" width="192" x="287.125" y="1110.3906"/><text fill="#1F2937" font-family="sans-serif" font-size="12" lengthAdjust="spacing" textLength="172" x="297.125" y="1132.8477">Admin memilih rentang tanggal</text><rect fill="#F8FBFF" height="35.0938" rx="12.5" ry="12.5" style="stroke:#2F4F8F;stroke-width:0.5;" width="147" x="309.625" y="1165.4844"/><text fill="#1F2937" font-family="sans-serif" font-size="12" lengthAdjust="spacing" textLength="127" x="319.625" y="1187.9414">Admin klik tombol Filter</text><rect fill="none" height="84.7031" style="stroke:#000000;stroke-width:1.5;" width="256" x="255.125" y="1222.5781"/><path d="M307.125,1222.5781 L307.125,1233.1875 L297.125,1243.1875 L255.125,1243.1875 " fill="none" style="stroke:#000000;stroke-width:1.5;"/><text fill="#000000" font-family="sans-serif" font-size="14" lengthAdjust="spacing" textLength="42" x="258.125" y="1238.1113">Sistem</text><rect fill="#F8FBFF" height="35.0938" rx="12.5" ry="12.5" style="stroke:#2F4F8F;stroke-width:0.5;" width="236" x="265.125" y="1260.1875"/><text fill="#1F2937" font-family="sans-serif" font-size="12" lengthAdjust="spacing" textLength="216" x="275.125" y="1282.6445">Menampilkan data absensi sesuai filter</text><rect fill="none" height="84.7031" style="stroke:#000000;stroke-width:1.5;" width="290" x="531.125" y="900.5"/><path d="M580.125,900.5 L580.125,911.1094 L570.125,921.1094 L531.125,921.1094 " fill="none" style="stroke:#000000;stroke-width:1.5;"/><text fill="#000000" font-family="sans-serif" font-size="14" lengthAdjust="spacing" textLength="39" x="534.125" y="916.0332">Admin</text><rect fill="#F8FBFF" height="35.0938" rx="12.5" ry="12.5" style="stroke:#2F4F8F;stroke-width:0.5;" width="270" x="541.125" y="938.1094"/><text fill="#1F2937" font-family="sans-serif" font-size="12" lengthAdjust="spacing" textLength="250" x="551.125" y="960.5664">Admin tetap melihat data absensi yang tampil</text><polygon fill="#F8FBFF" points="529.625,1313.2813,541.625,1325.2813,529.625,1337.2813,517.625,1325.2813,529.625,1313.2813" style="stroke:#2F4F8F;stroke-width:0.5;"/><polygon fill="#F8FBFF" points="449.625,1357.2813,609.625,1357.2813,621.625,1369.2813,609.625,1381.2813,449.625,1381.2813,437.625,1369.2813,449.625,1357.2813" style="stroke:#2F4F8F;stroke-width:0.5;"/><text fill="#1F2937" font-family="sans-serif" font-size="11" lengthAdjust="spacing" textLength="160" x="449.625" y="1373.7822">Admin ingin mengoreksi absensi?</text><text fill="#000000" font-family="sans-serif" font-size="11" lengthAdjust="spacing" textLength="14" x="423.625" y="1366.8643">Ya</text><text fill="#000000" font-family="sans-serif" font-size="11" lengthAdjust="spacing" textLength="25" x="621.625" y="1366.8643">Tidak</text><rect fill="none" height="84.7031" style="stroke:#000000;stroke-width:1.5;" width="310" x="132.75" y="1391.2813"/><path d="M181.75,1391.2813 L181.75,1401.8906 L171.75,1411.8906 L132.75,1411.8906 " fill="none" style="stroke:#000000;stroke-width:1.5;"/><text fill="#000000" font-family="sans-serif" font-size="14" lengthAdjust="spacing" textLength="39" x="135.75" y="1406.8145">Admin</text><rect fill="#F8FBFF" height="35.0938" rx="12.5" ry="12.5" style="stroke:#2F4F8F;stroke-width:0.5;" width="290" x="142.75" y="1428.8906"/><text fill="#1F2937" font-family="sans-serif" font-size="12" lengthAdjust="spacing" textLength="270" x="152.75" y="1451.3477">Admin memilih data absensi yang akan dikoreksi</text><rect fill="none" height="84.7031" style="stroke:#000000;stroke-width:1.5;" width="290" x="142.75" y="1485.9844"/><path d="M194.75,1485.9844 L194.75,1496.5938 L184.75,1506.5938 L142.75,1506.5938 " fill="none" style="stroke:#000000;stroke-width:1.5;"/><text fill="#000000" font-family="sans-serif" font-size="14" lengthAdjust="spacing" textLength="42" x="145.75" y="1501.5176">Sistem</text><rect fill="#F8FBFF" height="35.0938" rx="12.5" ry="12.5" style="stroke:#2F4F8F;stroke-width:0.5;" width="270" x="152.75" y="1523.5938"/><text fill="#1F2937" font-family="sans-serif" font-size="12" lengthAdjust="spacing" textLength="250" x="162.75" y="1546.0508">Menampilkan detail absensi dan form koreksi</text><rect fill="none" height="249.9844" style="stroke:#000000;stroke-width:1.5;" width="247" x="164.25" y="1580.6875"/><path d="M213.25,1580.6875 L213.25,1591.2969 L203.25,1601.2969 L164.25,1601.2969 " fill="none" style="stroke:#000000;stroke-width:1.5;"/><text fill="#000000" font-family="sans-serif" font-size="14" lengthAdjust="spacing" textLength="39" x="167.25" y="1596.2207">Admin</text><rect fill="#F8FBFF" height="35.0938" rx="12.5" ry="12.5" style="stroke:#2F4F8F;stroke-width:0.5;" width="216" x="179.75" y="1618.2969"/><text fill="#1F2937" font-family="sans-serif" font-size="12" lengthAdjust="spacing" textLength="196" x="189.75" y="1640.7539">Admin memilih status absensi baru</text><rect fill="#F8FBFF" height="35.0938" rx="12.5" ry="12.5" style="stroke:#2F4F8F;stroke-width:0.5;" width="227" x="174.25" y="1673.3906"/><text fill="#1F2937" font-family="sans-serif" font-size="12" lengthAdjust="spacing" textLength="207" x="184.25" y="1695.8477">Admin mengisi alasan jika diperlukan</text><rect fill="#F8FBFF" height="35.0938" rx="12.5" ry="12.5" style="stroke:#2F4F8F;stroke-width:0.5;" width="187" x="194.25" y="1728.4844"/><text fill="#1F2937" font-family="sans-serif" font-size="12" lengthAdjust="spacing" textLength="167" x="204.25" y="1750.9414">Admin mengisi alasan koreksi</text><rect fill="#F8FBFF" height="35.0938" rx="12.5" ry="12.5" style="stroke:#2F4F8F;stroke-width:0.5;" width="208" x="183.75" y="1783.5781"/><text fill="#1F2937" font-family="sans-serif" font-size="12" lengthAdjust="spacing" textLength="188" x="193.75" y="1806.0352">Admin klik tombol Simpan Koreksi</text><rect fill="none" height="84.7031" style="stroke:#000000;stroke-width:1.5;" width="219" x="178.25" y="1840.6719"/><path d="M230.25,1840.6719 L230.25,1851.2813 L220.25,1861.2813 L178.25,1861.2813 " fill="none" style="stroke:#000000;stroke-width:1.5;"/><text fill="#000000" font-family="sans-serif" font-size="14" lengthAdjust="spacing" textLength="42" x="181.25" y="1856.2051">Sistem</text><rect fill="#F8FBFF" height="35.0938" rx="12.5" ry="12.5" style="stroke:#2F4F8F;stroke-width:0.5;" width="199" x="188.25" y="1878.2813"/><text fill="#1F2937" font-family="sans-serif" font-size="12" lengthAdjust="spacing" textLength="179" x="198.25" y="1900.7383">Memeriksa data koreksi absensi</text><polygon fill="#F8FBFF" points="242.75,1945.375,332.75,1945.375,344.75,1957.375,332.75,1969.375,242.75,1969.375,230.75,1957.375,242.75,1945.375" style="stroke:#2F4F8F;stroke-width:0.5;"/><text fill="#1F2937" font-family="sans-serif" font-size="11" lengthAdjust="spacing" textLength="90" x="242.75" y="1961.876">Data koreksi valid?</text><text fill="#000000" font-family="sans-serif" font-size="11" lengthAdjust="spacing" textLength="14" x="216.75" y="1954.958">Ya</text><text fill="#000000" font-family="sans-serif" font-size="11" lengthAdjust="spacing" textLength="25" x="344.75" y="1954.958">Tidak</text><rect fill="none" height="201.8906" style="stroke:#000000;stroke-width:1.5;" width="243" x="11" y="1979.375"/><path d="M63,1979.375 L63,1989.9844 L53,1999.9844 L11,1999.9844 " fill="none" style="stroke:#000000;stroke-width:1.5;"/><text fill="#000000" font-family="sans-serif" font-size="14" lengthAdjust="spacing" textLength="42" x="14" y="1994.9082">Sistem</text><rect fill="#F8FBFF" height="35.0938" rx="12.5" ry="12.5" style="stroke:#2F4F8F;stroke-width:0.5;" width="174" x="45.5" y="2016.9844"/><text fill="#1F2937" font-family="sans-serif" font-size="12" lengthAdjust="spacing" textLength="154" x="55.5" y="2039.4414">Menyimpan koreksi absensi</text><rect fill="#F8FBFF" height="35.0938" rx="12.5" ry="12.5" style="stroke:#2F4F8F;stroke-width:0.5;" width="180" x="42.5" y="2072.0781"/><text fill="#1F2937" font-family="sans-serif" font-size="12" lengthAdjust="spacing" textLength="160" x="52.5" y="2094.5352">Menampilkan pesan berhasil</text><rect fill="#F8FBFF" height="35.0938" rx="12.5" ry="12.5" style="stroke:#2F4F8F;stroke-width:0.5;" width="223" x="21" y="2134.1719"/><text fill="#1F2937" font-family="sans-serif" font-size="12" lengthAdjust="spacing" textLength="203" x="31" y="2156.6289">Menampilkan kembali rekap absensi</text><rect fill="none" height="139.7969" style="stroke:#000000;stroke-width:1.5;" width="338" x="274" y="1979.375"/><path d="M326,1979.375 L326,1989.9844 L316,1999.9844 L274,1999.9844 " fill="none" style="stroke:#000000;stroke-width:1.5;"/><text fill="#000000" font-family="sans-serif" font-size="14" lengthAdjust="spacing" textLength="42" x="277" y="1994.9082">Sistem</text><rect fill="#F8FBFF" height="35.0938" rx="12.5" ry="12.5" style="stroke:#2F4F8F;stroke-width:0.5;" width="161" x="362.5" y="2016.9844"/><text fill="#1F2937" font-family="sans-serif" font-size="12" lengthAdjust="spacing" textLength="141" x="372.5" y="2039.4414">Menampilkan pesan error</text><rect fill="#F8FBFF" height="35.0938" rx="12.5" ry="12.5" style="stroke:#2F4F8F;stroke-width:0.5;" width="318" x="284" y="2072.0781"/><text fill="#1F2937" font-family="sans-serif" font-size="12" lengthAdjust="spacing" textLength="298" x="294" y="2094.5352">Menampilkan kembali rekap absensi dan form koreksi</text><polygon fill="#F8FBFF" points="287.75,2187.2656,299.75,2199.2656,287.75,2211.2656,275.75,2199.2656,287.75,2187.2656" style="stroke:#2F4F8F;stroke-width:0.5;"/><rect fill="none" height="84.7031" style="stroke:#000000;stroke-width:1.5;" width="259" x="642" y="1391.2813"/><path d="M691,1391.2813 L691,1401.8906 L681,1411.8906 L642,1411.8906 " fill="none" style="stroke:#000000;stroke-width:1.5;"/><text fill="#000000" font-family="sans-serif" font-size="14" lengthAdjust="spacing" textLength="39" x="645" y="1406.8145">Admin</text><rect fill="#F8FBFF" height="35.0938" rx="12.5" ry="12.5" style="stroke:#2F4F8F;stroke-width:0.5;" width="239" x="652" y="1428.8906"/><text fill="#1F2937" font-family="sans-serif" font-size="12" lengthAdjust="spacing" textLength="219" x="662" y="1451.3477">Admin tidak melakukan koreksi absensi</text><polygon fill="#F8FBFF" points="529.625,2217.2656,541.625,2229.2656,529.625,2241.2656,517.625,2229.2656,529.625,2217.2656" style="stroke:#2F4F8F;stroke-width:0.5;"/><rect fill="none" height="84.7031" style="stroke:#000000;stroke-width:1.5;" width="216" x="932.3125" y="422.2031"/><path d="M984.3125,422.2031 L984.3125,432.8125 L974.3125,442.8125 L932.3125,442.8125 " fill="none" style="stroke:#000000;stroke-width:1.5;"/><text fill="#000000" font-family="sans-serif" font-size="14" lengthAdjust="spacing" textLength="42" x="935.3125" y="437.7363">Sistem</text><rect fill="#F8FBFF" height="35.0938" rx="12.5" ry="12.5" style="stroke:#2F4F8F;stroke-width:0.5;" width="196" x="942.3125" y="459.8125"/><text fill="#1F2937" font-family="sans-serif" font-size="12" lengthAdjust="spacing" textLength="176" x="952.3125" y="482.2695">Menampilkan pesan login gagal</text><rect fill="none" height="92.7031" style="stroke:#000000;stroke-width:1.5;" width="220" x="930.3125" y="541.9063"/><path d="M979.3125,541.9063 L979.3125,552.5156 L969.3125,562.5156 L930.3125,562.5156 " fill="none" style="stroke:#000000;stroke-width:1.5;"/><text fill="#000000" font-family="sans-serif" font-size="14" lengthAdjust="spacing" textLength="39" x="933.3125" y="557.4395">Admin</text><rect fill="#F8FBFF" height="35.0938" rx="12.5" ry="12.5" style="stroke:#2F4F8F;stroke-width:0.5;" width="200" x="940.3125" y="579.5156"/><text fill="#1F2937" font-family="sans-serif" font-size="12" lengthAdjust="spacing" textLength="180" x="950.3125" y="601.9727">Admin kembali ke halaman login</text><polygon fill="#F8FBFF" points="785.3125,2247.2656,797.3125,2259.2656,785.3125,2271.2656,773.3125,2259.2656,785.3125,2247.2656" style="stroke:#2F4F8F;stroke-width:0.5;"/><ellipse cx="785.3125" cy="2302.2656" fill="none" rx="11" ry="11" style="stroke:#222222;stroke-width:1.0;"/><ellipse cx="785.3125" cy="2302.2656" fill="#222222" rx="6" ry="6" style="stroke:#222222;stroke-width:1.0;"/><line style="stroke:#181818;stroke-width:1.0;" x1="785.3125" x2="785.3125" y1="151.3125" y2="171.3125"/><polygon fill="#181818" points="781.3125,161.3125,785.3125,171.3125,789.3125,161.3125,785.3125,165.3125" style="stroke:#181818;stroke-width:1.0;"/><line style="stroke:#181818;stroke-width:1.0;" x1="785.3125" x2="785.3125" y1="206.4063" y2="226.4063"/><polygon fill="#181818" points="781.3125,216.4063,785.3125,226.4063,789.3125,216.4063,785.3125,220.4063" style="stroke:#181818;stroke-width:1.0;"/><line style="stroke:#181818;stroke-width:1.0;" x1="785.3125" x2="785.3125" y1="68.6094" y2="116.2188"/><polygon fill="#181818" points="781.3125,106.2188,785.3125,116.2188,789.3125,106.2188,785.3125,110.2188" style="stroke:#181818;stroke-width:1.0;"/><line style="stroke:#181818;stroke-width:1.0;" x1="785.3125" x2="785.3125" y1="261.5" y2="321.1094"/><polygon fill="#181818" points="781.3125,311.1094,785.3125,321.1094,789.3125,311.1094,785.3125,315.1094" style="stroke:#181818;stroke-width:1.0;"/><line style="stroke:#181818;stroke-width:1.0;" x1="529.625" x2="529.625" y1="494.9063" y2="521.9063"/><polygon fill="#181818" points="525.625,511.9063,529.625,521.9063,533.625,511.9063,529.625,515.9063" style="stroke:#181818;stroke-width:1.0;"/><line style="stroke:#181818;stroke-width:1.0;" x1="529.625" x2="529.625" y1="684.7031" y2="704.7031"/><polygon fill="#181818" points="525.625,694.7031,529.625,704.7031,533.625,694.7031,529.625,698.7031" style="stroke:#181818;stroke-width:1.0;"/><line style="stroke:#181818;stroke-width:1.0;" x1="529.625" x2="529.625" y1="557" y2="649.6094"/><polygon fill="#181818" points="525.625,639.6094,529.625,649.6094,533.625,639.6094,529.625,643.6094" style="stroke:#181818;stroke-width:1.0;"/><line style="stroke:#181818;stroke-width:1.0;" x1="529.625" x2="529.625" y1="739.7969" y2="799.4063"/><polygon fill="#181818" points="525.625,789.4063,529.625,799.4063,533.625,789.4063,529.625,793.4063" style="stroke:#181818;stroke-width:1.0;"/><line style="stroke:#181818;stroke-width:1.0;" x1="383.125" x2="383.125" y1="973.2031" y2="1000.2031"/><polygon fill="#181818" points="379.125,990.2031,383.125,1000.2031,387.125,990.2031,383.125,994.2031" style="stroke:#181818;stroke-width:1.0;"/><line style="stroke:#181818;stroke-width:1.0;" x1="383.125" x2="383.125" y1="1035.2969" y2="1055.2969"/><polygon fill="#181818" points="379.125,1045.2969,383.125,1055.2969,387.125,1045.2969,383.125,1049.2969" style="stroke:#181818;stroke-width:1.0;"/><line style="stroke:#181818;stroke-width:1.0;" x1="383.125" x2="383.125" y1="1090.3906" y2="1110.3906"/><polygon fill="#181818" points="379.125,1100.3906,383.125,1110.3906,387.125,1100.3906,383.125,1104.3906" style="stroke:#181818;stroke-width:1.0;"/><line style="stroke:#181818;stroke-width:1.0;" x1="383.125" x2="383.125" y1="1145.4844" y2="1165.4844"/><polygon fill="#181818" points="379.125,1155.4844,383.125,1165.4844,387.125,1155.4844,383.125,1159.4844" style="stroke:#181818;stroke-width:1.0;"/><line style="stroke:#181818;stroke-width:1.0;" x1="383.125" x2="383.125" y1="1200.5781" y2="1260.1875"/><polygon fill="#181818" points="379.125,1250.1875,383.125,1260.1875,387.125,1250.1875,383.125,1254.1875" style="stroke:#181818;stroke-width:1.0;"/><line style="stroke:#181818;stroke-width:1.0;" x1="431.625" x2="383.125" y1="878.5" y2="878.5"/><line style="stroke:#181818;stroke-width:1.0;" x1="383.125" x2="383.125" y1="878.5" y2="938.1094"/><polygon fill="#181818" points="379.125,928.1094,383.125,938.1094,387.125,928.1094,383.125,932.1094" style="stroke:#181818;stroke-width:1.0;"/><line style="stroke:#181818;stroke-width:1.0;" x1="627.625" x2="676.125" y1="878.5" y2="878.5"/><line style="stroke:#181818;stroke-width:1.0;" x1="676.125" x2="676.125" y1="878.5" y2="938.1094"/><polygon fill="#181818" points="672.125,928.1094,676.125,938.1094,680.125,928.1094,676.125,932.1094" style="stroke:#181818;stroke-width:1.0;"/><line style="stroke:#181818;stroke-width:1.0;" x1="383.125" x2="383.125" y1="1295.2813" y2="1325.2813"/><line style="stroke:#181818;stroke-width:1.0;" x1="383.125" x2="517.625" y1="1325.2813" y2="1325.2813"/><polygon fill="#181818" points="507.625,1321.2813,517.625,1325.2813,507.625,1329.2813,511.625,1325.2813" style="stroke:#181818;stroke-width:1.0;"/><line style="stroke:#181818;stroke-width:1.0;" x1="676.125" x2="676.125" y1="973.2031" y2="1325.2813"/><line style="stroke:#181818;stroke-width:1.0;" x1="676.125" x2="541.625" y1="1325.2813" y2="1325.2813"/><polygon fill="#181818" points="551.625,1321.2813,541.625,1325.2813,551.625,1329.2813,547.625,1325.2813" style="stroke:#181818;stroke-width:1.0;"/><line style="stroke:#181818;stroke-width:1.0;" x1="529.625" x2="529.625" y1="834.5" y2="866.5"/><polygon fill="#181818" points="525.625,856.5,529.625,866.5,533.625,856.5,529.625,860.5" style="stroke:#181818;stroke-width:1.0;"/><line style="stroke:#181818;stroke-width:1.0;" x1="287.75" x2="287.75" y1="1463.9844" y2="1523.5938"/><polygon fill="#181818" points="283.75,1513.5938,287.75,1523.5938,291.75,1513.5938,287.75,1517.5938" style="stroke:#181818;stroke-width:1.0;"/><line style="stroke:#181818;stroke-width:1.0;" x1="287.75" x2="287.75" y1="1653.3906" y2="1673.3906"/><polygon fill="#181818" points="283.75,1663.3906,287.75,1673.3906,291.75,1663.3906,287.75,1667.3906" style="stroke:#181818;stroke-width:1.0;"/><line style="stroke:#181818;stroke-width:1.0;" x1="287.75" x2="287.75" y1="1708.4844" y2="1728.4844"/><polygon fill="#181818" points="283.75,1718.4844,287.75,1728.4844,291.75,1718.4844,287.75,1722.4844" style="stroke:#181818;stroke-width:1.0;"/><line style="stroke:#181818;stroke-width:1.0;" x1="287.75" x2="287.75" y1="1763.5781" y2="1783.5781"/><polygon fill="#181818" points="283.75,1773.5781,287.75,1783.5781,291.75,1773.5781,287.75,1777.5781" style="stroke:#181818;stroke-width:1.0;"/><line style="stroke:#181818;stroke-width:1.0;" x1="287.75" x2="287.75" y1="1558.6875" y2="1618.2969"/><polygon fill="#181818" points="283.75,1608.2969,287.75,1618.2969,291.75,1608.2969,287.75,1612.2969" style="stroke:#181818;stroke-width:1.0;"/><line style="stroke:#181818;stroke-width:1.0;" x1="287.75" x2="287.75" y1="1818.6719" y2="1878.2813"/><polygon fill="#181818" points="283.75,1868.2813,287.75,1878.2813,291.75,1868.2813,287.75,1872.2813" style="stroke:#181818;stroke-width:1.0;"/><line style="stroke:#181818;stroke-width:1.0;" x1="132.5" x2="132.5" y1="2052.0781" y2="2072.0781"/><polygon fill="#181818" points="128.5,2062.0781,132.5,2072.0781,136.5,2062.0781,132.5,2066.0781" style="stroke:#181818;stroke-width:1.0;"/><line style="stroke:#181818;stroke-width:1.0;" x1="132.5" x2="132.5" y1="2107.1719" y2="2134.1719"/><polygon fill="#181818" points="128.5,2124.1719,132.5,2134.1719,136.5,2124.1719,132.5,2128.1719" style="stroke:#181818;stroke-width:1.0;"/><line style="stroke:#181818;stroke-width:1.0;" x1="443" x2="443" y1="2052.0781" y2="2072.0781"/><polygon fill="#181818" points="439,2062.0781,443,2072.0781,447,2062.0781,443,2066.0781" style="stroke:#181818;stroke-width:1.0;"/><line style="stroke:#181818;stroke-width:1.0;" x1="230.75" x2="132.5" y1="1957.375" y2="1957.375"/><line style="stroke:#181818;stroke-width:1.0;" x1="132.5" x2="132.5" y1="1957.375" y2="2016.9844"/><polygon fill="#181818" points="128.5,2006.9844,132.5,2016.9844,136.5,2006.9844,132.5,2010.9844" style="stroke:#181818;stroke-width:1.0;"/><line style="stroke:#181818;stroke-width:1.0;" x1="344.75" x2="443" y1="1957.375" y2="1957.375"/><line style="stroke:#181818;stroke-width:1.0;" x1="443" x2="443" y1="1957.375" y2="2016.9844"/><polygon fill="#181818" points="439,2006.9844,443,2016.9844,447,2006.9844,443,2010.9844" style="stroke:#181818;stroke-width:1.0;"/><line style="stroke:#181818;stroke-width:1.0;" x1="132.5" x2="132.5" y1="2169.2656" y2="2199.2656"/><line style="stroke:#181818;stroke-width:1.0;" x1="132.5" x2="275.75" y1="2199.2656" y2="2199.2656"/><polygon fill="#181818" points="265.75,2195.2656,275.75,2199.2656,265.75,2203.2656,269.75,2199.2656" style="stroke:#181818;stroke-width:1.0;"/><line style="stroke:#181818;stroke-width:1.0;" x1="443" x2="443" y1="2107.1719" y2="2199.2656"/><line style="stroke:#181818;stroke-width:1.0;" x1="443" x2="299.75" y1="2199.2656" y2="2199.2656"/><polygon fill="#181818" points="309.75,2195.2656,299.75,2199.2656,309.75,2203.2656,305.75,2199.2656" style="stroke:#181818;stroke-width:1.0;"/><line style="stroke:#181818;stroke-width:1.0;" x1="287.75" x2="287.75" y1="1913.375" y2="1945.375"/><polygon fill="#181818" points="283.75,1935.375,287.75,1945.375,291.75,1935.375,287.75,1939.375" style="stroke:#181818;stroke-width:1.0;"/><line style="stroke:#181818;stroke-width:1.0;" x1="437.625" x2="287.75" y1="1369.2813" y2="1369.2813"/><line style="stroke:#181818;stroke-width:1.0;" x1="287.75" x2="287.75" y1="1369.2813" y2="1428.8906"/><polygon fill="#181818" points="283.75,1418.8906,287.75,1428.8906,291.75,1418.8906,287.75,1422.8906" style="stroke:#181818;stroke-width:1.0;"/><line style="stroke:#181818;stroke-width:1.0;" x1="621.625" x2="771.5" y1="1369.2813" y2="1369.2813"/><line style="stroke:#181818;stroke-width:1.0;" x1="771.5" x2="771.5" y1="1369.2813" y2="1428.8906"/><polygon fill="#181818" points="767.5,1418.8906,771.5,1428.8906,775.5,1418.8906,771.5,1422.8906" style="stroke:#181818;stroke-width:1.0;"/><line style="stroke:#181818;stroke-width:1.0;" x1="287.75" x2="287.75" y1="2211.2656" y2="2229.2656"/><line style="stroke:#181818;stroke-width:1.0;" x1="287.75" x2="517.625" y1="2229.2656" y2="2229.2656"/><polygon fill="#181818" points="507.625,2225.2656,517.625,2229.2656,507.625,2233.2656,511.625,2229.2656" style="stroke:#181818;stroke-width:1.0;"/><line style="stroke:#181818;stroke-width:1.0;" x1="771.5" x2="771.5" y1="1463.9844" y2="2229.2656"/><line style="stroke:#181818;stroke-width:1.0;" x1="771.5" x2="541.625" y1="2229.2656" y2="2229.2656"/><polygon fill="#181818" points="551.625,2225.2656,541.625,2229.2656,551.625,2233.2656,547.625,2229.2656" style="stroke:#181818;stroke-width:1.0;"/><line style="stroke:#181818;stroke-width:1.0;" x1="529.625" x2="529.625" y1="1337.2813" y2="1357.2813"/><polygon fill="#181818" points="525.625,1347.2813,529.625,1357.2813,533.625,1347.2813,529.625,1351.2813" style="stroke:#181818;stroke-width:1.0;"/><line style="stroke:#181818;stroke-width:1.0;" x1="1040.3125" x2="1040.3125" y1="494.9063" y2="579.5156"/><polygon fill="#181818" points="1036.3125,569.5156,1040.3125,579.5156,1044.3125,569.5156,1040.3125,573.5156" style="stroke:#181818;stroke-width:1.0;"/><line style="stroke:#181818;stroke-width:1.0;" x1="744.8125" x2="529.625" y1="400.2031" y2="400.2031"/><line style="stroke:#181818;stroke-width:1.0;" x1="529.625" x2="529.625" y1="400.2031" y2="459.8125"/><polygon fill="#181818" points="525.625,449.8125,529.625,459.8125,533.625,449.8125,529.625,453.8125" style="stroke:#181818;stroke-width:1.0;"/><line style="stroke:#181818;stroke-width:1.0;" x1="825.8125" x2="1040.3125" y1="400.2031" y2="400.2031"/><line style="stroke:#181818;stroke-width:1.0;" x1="1040.3125" x2="1040.3125" y1="400.2031" y2="459.8125"/><polygon fill="#181818" points="1036.3125,449.8125,1040.3125,459.8125,1044.3125,449.8125,1040.3125,453.8125" style="stroke:#181818;stroke-width:1.0;"/><line style="stroke:#181818;stroke-width:1.0;" x1="529.625" x2="529.625" y1="2241.2656" y2="2259.2656"/><line style="stroke:#181818;stroke-width:1.0;" x1="529.625" x2="773.3125" y1="2259.2656" y2="2259.2656"/><polygon fill="#181818" points="763.3125,2255.2656,773.3125,2259.2656,763.3125,2263.2656,767.3125,2259.2656" style="stroke:#181818;stroke-width:1.0;"/><line style="stroke:#181818;stroke-width:1.0;" x1="1040.3125" x2="1040.3125" y1="614.6094" y2="2259.2656"/><line style="stroke:#181818;stroke-width:1.0;" x1="1040.3125" x2="797.3125" y1="2259.2656" y2="2259.2656"/><polygon fill="#181818" points="807.3125,2255.2656,797.3125,2259.2656,807.3125,2263.2656,803.3125,2259.2656" style="stroke:#181818;stroke-width:1.0;"/><line style="stroke:#181818;stroke-width:1.0;" x1="785.3125" x2="785.3125" y1="356.2031" y2="388.2031"/><polygon fill="#181818" points="781.3125,378.2031,785.3125,388.2031,789.3125,378.2031,785.3125,382.2031" style="stroke:#181818;stroke-width:1.0;"/><line style="stroke:#181818;stroke-width:1.0;" x1="785.3125" x2="785.3125" y1="2271.2656" y2="2291.2656"/><polygon fill="#181818" points="781.3125,2281.2656,785.3125,2291.2656,789.3125,2281.2656,785.3125,2285.2656" style="stroke:#181818;stroke-width:1.0;"/><!--SRC=[hLOzRzim4DtrAmxfuWmTcXReHuR0QQ2bpPGk7KyHBLz9aG999J0A__SUHScHh8-uIHPR9X_llNjtEjgJLmBMzvuUoE_WXh2mMC9xMESbQRWLkX3AA8HrveHsb2HEagumWB0xzJS1kCPxMLXJw_oxKSR2k_HBUfscOSVONDXszIBzn1kycXhjsxKFwSNNZv-JFSVsQ7sIS7XFdeo6iqR6MSC0y2sAAaMPrH9XYmfBrA1CGVho286kbf8t-OaKvFnKeNEFh6M0b8eaU5DcHi7F66S_4717peloeE1MbCAITCWXFKPgm12gEKWRM3LXu04LvLVduBT2m-etdYT94s4kjxxwe1saO0gtpGnsaeS9ag8jV-kwAqq4xKSqmmpQB3IM5QbWq8QK5nQm7sG4ia9Y5LF6PRRPf0JhHJyV8rWNeQIBc68hhNzaw6Z7iSG_uLfHs_fo2U38FU8omgEltTYr2QWLsgCk87mKg2Qn_JPCcwoVOFl9FCTL7HMjxniuuMgajjgZu48v0QjVbAFyVrkzyDmSKmM6NKmyA1fpwfmsSxNNXU6UumXlMVUnD6ny8Xd9ti9pzeBdJKSIvix6s19EP3WbYs7hGOQppSnU1WSLEfRnXtXavbG9gtXuwbEEZ4JFTEmTbHN3VxpInS5abSFwJmODRNFJ1u-7Rf_YMGrTDNSndra9avMlHB0i4tQBZjGpOCbN66jjv-eamVxmQ_1olYYX8v72McDVed2XduyaFxtRhnijuLWOBIXhkLIIuKmPSvv-7qQBuiLUu65WdtxJTSxn1Jxn3uNZj2ATDzK_]--></g></svg>