<?xml version="1.0" encoding="us-ascii" standalone="no"?><svg xmlns="http://www.w3.org/2000/svg" xmlns:xlink="http://www.w3.org/1999/xlink" contentStyleType="text/css" height="2123px" preserveAspectRatio="none" style="width:1230px;height:2123px;background:#FFFFFF;" version="1.1" viewBox="0 0 1230 2123" width="1230px" zoomAndPan="magnify"><defs/><g><text fill="#000000" font-family="sans-serif" font-size="14" font-weight="bold" lengthAdjust="spacing" textLength="280" x="473.5" y="34.5332">Activity Diagram - Admin Mengelola Nilai</text><ellipse cx="843.75" cy="58.6094" fill="#222222" rx="10" ry="10" style="stroke:#222222;stroke-width:1.0;"/><rect fill="none" height="194.8906" style="stroke:#000000;stroke-width:1.5;" width="270" x="708.75" y="78.6094"/><path d="M757.75,78.6094 L757.75,89.2188 L747.75,99.2188 L708.75,99.2188 " fill="none" style="stroke:#000000;stroke-width:1.5;"/><text fill="#000000" font-family="sans-serif" font-size="14" lengthAdjust="spacing" textLength="39" x="711.75" y="94.1426">Admin</text><rect fill="#F8FBFF" height="35.0938" rx="12.5" ry="12.5" style="stroke:#2F4F8F;stroke-width:0.5;" width="196" x="745.75" y="116.2188"/><text fill="#1F2937" font-family="sans-serif" font-size="12" lengthAdjust="spacing" textLength="176" x="755.75" y="138.6758">Admin membuka halaman login</text><rect fill="#F8FBFF" height="35.0938" rx="12.5" ry="12.5" style="stroke:#2F4F8F;stroke-width:0.5;" width="250" x="718.75" y="171.3125"/><text fill="#1F2937" font-family="sans-serif" font-size="12" lengthAdjust="spacing" textLength="230" x="728.75" y="193.7695">Admin memasukkan email dan password</text><rect fill="#F8FBFF" height="35.0938" rx="12.5" ry="12.5" style="stroke:#2F4F8F;stroke-width:0.5;" width="151" x="768.25" y="226.4063"/><text fill="#1F2937" font-family="sans-serif" font-size="12" lengthAdjust="spacing" textLength="131" x="778.25" y="248.8633">Admin klik tombol Login</text><rect fill="none" height="84.7031" style="stroke:#000000;stroke-width:1.5;" width="196" x="745.75" y="283.5"/><path d="M797.75,283.5 L797.75,294.1094 L787.75,304.1094 L745.75,304.1094 " fill="none" style="stroke:#000000;stroke-width:1.5;"/><text fill="#000000" font-family="sans-serif" font-size="14" lengthAdjust="spacing" textLength="42" x="748.75" y="299.0332">Sistem</text><rect fill="#F8FBFF" height="35.0938" rx="12.5" ry="12.5" style="stroke:#2F4F8F;stroke-width:0.5;" width="176" x="755.75" y="321.1094"/><text fill="#1F2937" font-family="sans-serif" font-size="12" lengthAdjust="spacing" textLength="156" x="765.75" y="343.5664">Memeriksa data login admin</text><polygon fill="#F8FBFF" points="815.25,388.2031,872.25,388.2031,884.25,400.2031,872.25,412.2031,815.25,412.2031,803.25,400.2031,815.25,388.2031" style="stroke:#2F4F8F;stroke-width:0.5;"/><text fill="#1F2937" font-family="sans-serif" font-size="11" lengthAdjust="spacing" textLength="57" x="815.25" y="404.7041">Login valid?</text><text fill="#000000" font-family="sans-serif" font-size="11" lengthAdjust="spacing" textLength="14" x="789.25" y="397.7861">Ya</text><text fill="#000000" font-family="sans-serif" font-size="11" lengthAdjust="spacing" textLength="25" x="884.25" y="397.7861">Tidak</text><rect fill="none" height="154.7969" style="stroke:#000000;stroke-width:1.5;" width="195" x="461" y="422.2031"/><path d="M510,422.2031 L510,432.8125 L500,442.8125 L461,442.8125 " fill="none" style="stroke:#000000;stroke-width:1.5;"/><text fill="#000000" font-family="sans-serif" font-size="14" lengthAdjust="spacing" textLength="39" x="464" y="437.7363">Admin</text><rect fill="#F8FBFF" height="35.0938" rx="12.5" ry="12.5" style="stroke:#2F4F8F;stroke-width:0.5;" width="175" x="471" y="459.8125"/><text fill="#1F2937" font-family="sans-serif" font-size="12" lengthAdjust="spacing" textLength="155" x="481" y="482.2695">Admin masuk ke dashboard</text><rect fill="#F8FBFF" height="35.0938" rx="12.5" ry="12.5" style="stroke:#2F4F8F;stroke-width:0.5;" width="166" x="475.5" y="521.9063"/><text fill="#1F2937" font-family="sans-serif" font-size="12" lengthAdjust="spacing" textLength="146" x="485.5" y="544.3633">Admin memilih menu Nilai</text><rect fill="none" height="139.7969" style="stroke:#000000;stroke-width:1.5;" width="167" x="475" y="612"/><path d="M527,612 L527,622.6094 L517,632.6094 L475,632.6094 " fill="none" style="stroke:#000000;stroke-width:1.5;"/><text fill="#000000" font-family="sans-serif" font-size="14" lengthAdjust="spacing" textLength="42" x="478" y="627.5332">Sistem</text><rect fill="#F8FBFF" height="35.0938" rx="12.5" ry="12.5" style="stroke:#2F4F8F;stroke-width:0.5;" width="146" x="485.5" y="649.6094"/><text fill="#1F2937" font-family="sans-serif" font-size="12" lengthAdjust="spacing" textLength="126" x="495.5" y="672.0664">Menampilkan filter nilai</text><rect fill="#F8FBFF" height="35.0938" rx="12.5" ry="12.5" style="stroke:#2F4F8F;stroke-width:0.5;" width="147" x="485" y="704.7031"/><text fill="#1F2937" font-family="sans-serif" font-size="12" lengthAdjust="spacing" textLength="127" x="495" y="727.1602">Menampilkan data nilai</text><rect fill="none" height="84.7031" style="stroke:#000000;stroke-width:1.5;" width="172" x="472.5" y="761.7969"/><path d="M521.5,761.7969 L521.5,772.4063 L511.5,782.4063 L472.5,782.4063 " fill="none" style="stroke:#000000;stroke-width:1.5;"/><text fill="#000000" font-family="sans-serif" font-size="14" lengthAdjust="spacing" textLength="39" x="475.5" y="777.3301">Admin</text><rect fill="#F8FBFF" height="35.0938" rx="12.5" ry="12.5" style="stroke:#2F4F8F;stroke-width:0.5;" width="152" x="482.5" y="799.4063"/><text fill="#1F2937" font-family="sans-serif" font-size="12" lengthAdjust="spacing" textLength="132" x="492.5" y="821.8633">Admin melihat data nilai</text><polygon fill="#F8FBFF" points="482.5,866.5,634.5,866.5,646.5,878.5,634.5,890.5,482.5,890.5,470.5,878.5,482.5,866.5" style="stroke:#2F4F8F;stroke-width:0.5;"/><text fill="#1F2937" font-family="sans-serif" font-size="11" lengthAdjust="spacing" textLength="152" x="482.5" y="883.001">Admin ingin memfilter data nilai?</text><text fill="#000000" font-family="sans-serif" font-size="11" lengthAdjust="spacing" textLength="14" x="456.5" y="876.083">Ya</text><text fill="#000000" font-family="sans-serif" font-size="11" lengthAdjust="spacing" textLength="25" x="646.5" y="876.083">Tidak</text><rect fill="none" height="201.8906" style="stroke:#000000;stroke-width:1.5;" width="174" x="336" y="900.5"/><path d="M385,900.5 L385,911.1094 L375,921.1094 L336,921.1094 " fill="none" style="stroke:#000000;stroke-width:1.5;"/><text fill="#000000" font-family="sans-serif" font-size="14" lengthAdjust="spacing" textLength="39" x="339" y="916.0332">Admin</text><rect fill="#F8FBFF" height="35.0938" rx="12.5" ry="12.5" style="stroke:#2F4F8F;stroke-width:0.5;" width="131" x="357.5" y="938.1094"/><text fill="#1F2937" font-family="sans-serif" font-size="12" lengthAdjust="spacing" textLength="111" x="367.5" y="960.5664">Admin memilih guru</text><rect fill="#F8FBFF" height="35.0938" rx="12.5" ry="12.5" style="stroke:#2F4F8F;stroke-width:0.5;" width="139" x="353.5" y="1000.2031"/><text fill="#1F2937" font-family="sans-serif" font-size="12" lengthAdjust="spacing" textLength="119" x="363.5" y="1022.6602">Admin memilih siswa</text><rect fill="#F8FBFF" height="35.0938" rx="12.5" ry="12.5" style="stroke:#2F4F8F;stroke-width:0.5;" width="154" x="346" y="1055.2969"/><text fill="#1F2937" font-family="sans-serif" font-size="12" lengthAdjust="spacing" textLength="134" x="356" y="1077.7539">Admin menerapkan filter</text><rect fill="none" height="84.7031" style="stroke:#000000;stroke-width:1.5;" width="234" x="306" y="1112.3906"/><path d="M358,1112.3906 L358,1123 L348,1133 L306,1133 " fill="none" style="stroke:#000000;stroke-width:1.5;"/><text fill="#000000" font-family="sans-serif" font-size="14" lengthAdjust="spacing" textLength="42" x="309" y="1127.9238">Sistem</text><rect fill="#F8FBFF" height="35.0938" rx="12.5" ry="12.5" style="stroke:#2F4F8F;stroke-width:0.5;" width="214" x="316" y="1150"/><text fill="#1F2937" font-family="sans-serif" font-size="12" lengthAdjust="spacing" textLength="194" x="326" y="1172.457">Menampilkan data nilai sesuai filter</text><rect fill="none" height="84.7031" style="stroke:#000000;stroke-width:1.5;" width="268" x="560" y="900.5"/><path d="M609,900.5 L609,911.1094 L599,921.1094 L560,921.1094 " fill="none" style="stroke:#000000;stroke-width:1.5;"/><text fill="#000000" font-family="sans-serif" font-size="14" lengthAdjust="spacing" textLength="39" x="563" y="916.0332">Admin</text><rect fill="#F8FBFF" height="35.0938" rx="12.5" ry="12.5" style="stroke:#2F4F8F;stroke-width:0.5;" width="248" x="570" y="938.1094"/><text fill="#1F2937" font-family="sans-serif" font-size="12" lengthAdjust="spacing" textLength="228" x="580" y="960.5664">Admin tetap melihat data nilai yang tampil</text><polygon fill="#F8FBFF" points="558.5,1203.0938,570.5,1215.0938,558.5,1227.0938,546.5,1215.0938,558.5,1203.0938" style="stroke:#2F4F8F;stroke-width:0.5;"/><polygon fill="#F8FBFF" points="480,1247.0938,637,1247.0938,649,1259.0938,637,1271.0938,480,1271.0938,468,1259.0938,480,1247.0938" style="stroke:#2F4F8F;stroke-width:0.5;"/><text fill="#1F2937" font-family="sans-serif" font-size="11" lengthAdjust="spacing" textLength="157" x="480" y="1263.5947">Admin ingin mengelola data nilai?</text><text fill="#000000" font-family="sans-serif" font-size="11" lengthAdjust="spacing" textLength="14" x="454" y="1256.6768">Ya</text><text fill="#000000" font-family="sans-serif" font-size="11" lengthAdjust="spacing" textLength="25" x="649" y="1256.6768">Tidak</text><rect fill="none" height="84.7031" style="stroke:#000000;stroke-width:1.5;" width="175" x="182.5" y="1281.0938"/><path d="M231.5,1281.0938 L231.5,1291.7031 L221.5,1301.7031 L182.5,1301.7031 " fill="none" style="stroke:#000000;stroke-width:1.5;"/><text fill="#000000" font-family="sans-serif" font-size="14" lengthAdjust="spacing" textLength="39" x="185.5" y="1296.627">Admin</text><rect fill="#F8FBFF" height="35.0938" rx="12.5" ry="12.5" style="stroke:#2F4F8F;stroke-width:0.5;" width="155" x="192.5" y="1318.7031"/><text fill="#1F2937" font-family="sans-serif" font-size="12" lengthAdjust="spacing" textLength="135" x="202.5" y="1341.1602">Admin memilih aksi nilai</text><polygon fill="#F8FBFF" points="228.5,1385.7969,311.5,1385.7969,323.5,1397.7969,311.5,1409.7969,228.5,1409.7969,216.5,1397.7969,228.5,1385.7969" style="stroke:#2F4F8F;stroke-width:0.5;"/><text fill="#1F2937" font-family="sans-serif" font-size="11" lengthAdjust="spacing" textLength="83" x="228.5" y="1402.2979">Aksi yang dipilih?</text><text fill="#000000" font-family="sans-serif" font-size="11" lengthAdjust="spacing" textLength="52" x="164.5" y="1395.3799">Lihat Detail</text><text fill="#000000" font-family="sans-serif" font-size="11" lengthAdjust="spacing" textLength="53" x="323.5" y="1395.3799">Hapus Nilai</text><rect fill="none" height="84.7031" style="stroke:#000000;stroke-width:1.5;" width="176" x="11" y="1419.7969"/><path d="M60,1419.7969 L60,1430.4063 L50,1440.4063 L11,1440.4063 " fill="none" style="stroke:#000000;stroke-width:1.5;"/><text fill="#000000" font-family="sans-serif" font-size="14" lengthAdjust="spacing" textLength="39" x="14" y="1435.3301">Admin</text><rect fill="#F8FBFF" height="35.0938" rx="12.5" ry="12.5" style="stroke:#2F4F8F;stroke-width:0.5;" width="156" x="21" y="1457.4063"/><text fill="#1F2937" font-family="sans-serif" font-size="12" lengthAdjust="spacing" textLength="136" x="31" y="1479.8633">Admin memilih data nilai</text><rect fill="none" height="92.7031" style="stroke:#000000;stroke-width:1.5;" width="173" x="12.5" y="1539.5"/><path d="M64.5,1539.5 L64.5,1550.1094 L54.5,1560.1094 L12.5,1560.1094 " fill="none" style="stroke:#000000;stroke-width:1.5;"/><text fill="#000000" font-family="sans-serif" font-size="14" lengthAdjust="spacing" textLength="42" x="15.5" y="1555.0332">Sistem</text><rect fill="#F8FBFF" height="35.0938" rx="12.5" ry="12.5" style="stroke:#2F4F8F;stroke-width:0.5;" width="153" x="22.5" y="1577.1094"/><text fill="#1F2937" font-family="sans-serif" font-size="12" lengthAdjust="spacing" textLength="133" x="32.5" y="1599.5664">Menampilkan detail nilai</text><rect fill="none" height="154.7969" style="stroke:#000000;stroke-width:1.5;" width="256" x="313" y="1419.7969"/><path d="M362,1419.7969 L362,1430.4063 L352,1440.4063 L313,1440.4063 " fill="none" style="stroke:#000000;stroke-width:1.5;"/><text fill="#000000" font-family="sans-serif" font-size="14" lengthAdjust="spacing" textLength="39" x="316" y="1435.3301">Admin</text><rect fill="#F8FBFF" height="35.0938" rx="12.5" ry="12.5" style="stroke:#2F4F8F;stroke-width:0.5;" width="236" x="323" y="1457.4063"/><text fill="#1F2937" font-family="sans-serif" font-size="12" lengthAdjust="spacing" textLength="216" x="333" y="1479.8633">Admin memilih nilai yang akan dihapus</text><rect fill="#F8FBFF" height="35.0938" rx="12.5" ry="12.5" style="stroke:#2F4F8F;stroke-width:0.5;" width="218" x="332" y="1519.5"/><text fill="#1F2937" font-family="sans-serif" font-size="12" lengthAdjust="spacing" textLength="198" x="342" y="1541.957">Admin melakukan konfirmasi hapus</text><rect fill="none" height="84.7031" style="stroke:#000000;stroke-width:1.5;" width="154" x="364" y="1609.5938"/><path d="M416,1609.5938 L416,1620.2031 L406,1630.2031 L364,1630.2031 " fill="none" style="stroke:#000000;stroke-width:1.5;"/><text fill="#000000" font-family="sans-serif" font-size="14" lengthAdjust="spacing" textLength="42" x="367" y="1625.127">Sistem</text><rect fill="#F8FBFF" height="35.0938" rx="12.5" ry="12.5" style="stroke:#2F4F8F;stroke-width:0.5;" width="134" x="374" y="1647.2031"/><text fill="#1F2937" font-family="sans-serif" font-size="12" lengthAdjust="spacing" textLength="114" x="384" y="1669.6602">Memeriksa data nilai</text><polygon fill="#F8FBFF" points="404,1714.2969,478,1714.2969,490,1726.2969,478,1738.2969,404,1738.2969,392,1726.2969,404,1714.2969" style="stroke:#2F4F8F;stroke-width:0.5;"/><text fill="#1F2937" font-family="sans-serif" font-size="11" lengthAdjust="spacing" textLength="74" x="404" y="1730.7979">Data nilai valid?</text><text fill="#000000" font-family="sans-serif" font-size="11" lengthAdjust="spacing" textLength="14" x="378" y="1723.8799">Ya</text><text fill="#000000" font-family="sans-serif" font-size="11" lengthAdjust="spacing" textLength="25" x="490" y="1723.8799">Tidak</text><rect fill="none" height="201.8906" style="stroke:#000000;stroke-width:1.5;" width="214" x="217" y="1748.2969"/><path d="M269,1748.2969 L269,1758.9063 L259,1768.9063 L217,1768.9063 " fill="none" style="stroke:#000000;stroke-width:1.5;"/><text fill="#000000" font-family="sans-serif" font-size="14" lengthAdjust="spacing" textLength="42" x="220" y="1763.8301">Sistem</text><rect fill="#F8FBFF" height="35.0938" rx="12.5" ry="12.5" style="stroke:#2F4F8F;stroke-width:0.5;" width="138" x="255" y="1785.9063"/><text fill="#1F2937" font-family="sans-serif" font-size="12" lengthAdjust="spacing" textLength="118" x="265" y="1808.3633">Menghapus data nilai</text><rect fill="#F8FBFF" height="35.0938" rx="12.5" ry="12.5" style="stroke:#2F4F8F;stroke-width:0.5;" width="180" x="234" y="1841"/><text fill="#1F2937" font-family="sans-serif" font-size="12" lengthAdjust="spacing" textLength="160" x="244" y="1863.457">Menampilkan pesan berhasil</text><rect fill="#F8FBFF" height="35.0938" rx="12.5" ry="12.5" style="stroke:#2F4F8F;stroke-width:0.5;" width="194" x="227" y="1903.0938"/><text fill="#1F2937" font-family="sans-serif" font-size="12" lengthAdjust="spacing" textLength="174" x="237" y="1925.5508">Menampilkan kembali data nilai</text><rect fill="none" height="139.7969" style="stroke:#000000;stroke-width:1.5;" width="214" x="451" y="1748.2969"/><path d="M503,1748.2969 L503,1758.9063 L493,1768.9063 L451,1768.9063 " fill="none" style="stroke:#000000;stroke-width:1.5;"/><text fill="#000000" font-family="sans-serif" font-size="14" lengthAdjust="spacing" textLength="42" x="454" y="1763.8301">Sistem</text><rect fill="#F8FBFF" height="35.0938" rx="12.5" ry="12.5" style="stroke:#2F4F8F;stroke-width:0.5;" width="161" x="477.5" y="1785.9063"/><text fill="#1F2937" font-family="sans-serif" font-size="12" lengthAdjust="spacing" textLength="141" x="487.5" y="1808.3633">Menampilkan pesan error</text><rect fill="#F8FBFF" height="35.0938" rx="12.5" ry="12.5" style="stroke:#2F4F8F;stroke-width:0.5;" width="194" x="461" y="1841"/><text fill="#1F2937" font-family="sans-serif" font-size="12" lengthAdjust="spacing" textLength="174" x="471" y="1863.457">Menampilkan kembali data nilai</text><polygon fill="#F8FBFF" points="441,1956.1875,453,1968.1875,441,1980.1875,429,1968.1875,441,1956.1875" style="stroke:#2F4F8F;stroke-width:0.5;"/><polygon fill="#F8FBFF" points="270,1986.1875,282,1998.1875,270,2010.1875,258,1998.1875,270,1986.1875" style="stroke:#2F4F8F;stroke-width:0.5;"/><rect fill="none" height="84.7031" style="stroke:#000000;stroke-width:1.5;" width="284" x="705" y="1281.0938"/><path d="M754,1281.0938 L754,1291.7031 L744,1301.7031 L705,1301.7031 " fill="none" style="stroke:#000000;stroke-width:1.5;"/><text fill="#000000" font-family="sans-serif" font-size="14" lengthAdjust="spacing" textLength="39" x="708" y="1296.627">Admin</text><rect fill="#F8FBFF" height="35.0938" rx="12.5" ry="12.5" style="stroke:#2F4F8F;stroke-width:0.5;" width="264" x="715" y="1318.7031"/><text fill="#1F2937" font-family="sans-serif" font-size="12" lengthAdjust="spacing" textLength="244" x="725" y="1341.1602">Admin tidak melakukan perubahan data nilai</text><polygon fill="#F8FBFF" points="558.5,2016.1875,570.5,2028.1875,558.5,2040.1875,546.5,2028.1875,558.5,2016.1875" style="stroke:#2F4F8F;stroke-width:0.5;"/><rect fill="none" height="84.7031" style="stroke:#000000;stroke-width:1.5;" width="216" x="1001" y="422.2031"/><path d="M1053,422.2031 L1053,432.8125 L1043,442.8125 L1001,442.8125 " fill="none" style="stroke:#000000;stroke-width:1.5;"/><text fill="#000000" font-family="sans-serif" font-size="14" lengthAdjust="spacing" textLength="42" x="1004" y="437.7363">Sistem</text><rect fill="#F8FBFF" height="35.0938" rx="12.5" ry="12.5" style="stroke:#2F4F8F;stroke-width:0.5;" width="196" x="1011" y="459.8125"/><text fill="#1F2937" font-family="sans-serif" font-size="12" lengthAdjust="spacing" textLength="176" x="1021" y="482.2695">Menampilkan pesan login gagal</text><rect fill="none" height="92.7031" style="stroke:#000000;stroke-width:1.5;" width="220" x="999" y="541.9063"/><path d="M1048,541.9063 L1048,552.5156 L1038,562.5156 L999,562.5156 " fill="none" style="stroke:#000000;stroke-width:1.5;"/><text fill="#000000" font-family="sans-serif" font-size="14" lengthAdjust="spacing" textLength="39" x="1002" y="557.4395">Admin</text><rect fill="#F8FBFF" height="35.0938" rx="12.5" ry="12.5" style="stroke:#2F4F8F;stroke-width:0.5;" width="200" x="1009" y="579.5156"/><text fill="#1F2937" font-family="sans-serif" font-size="12" lengthAdjust="spacing" textLength="180" x="1019" y="601.9727">Admin kembali ke halaman login</text><polygon fill="#F8FBFF" points="843.75,2046.1875,855.75,2058.1875,843.75,2070.1875,831.75,2058.1875,843.75,2046.1875" style="stroke:#2F4F8F;stroke-width:0.5;"/><ellipse cx="843.75" cy="2101.1875" fill="none" rx="11" ry="11" style="stroke:#222222;stroke-width:1.0;"/><ellipse cx="843.75" cy="2101.1875" fill="#222222" rx="6" ry="6" style="stroke:#222222;stroke-width:1.0;"/><line style="stroke:#181818;stroke-width:1.0;" x1="843.75" x2="843.75" y1="151.3125" y2="171.3125"/><polygon fill="#181818" points="839.75,161.3125,843.75,171.3125,847.75,161.3125,843.75,165.3125" style="stroke:#181818;stroke-width:1.0;"/><line style="stroke:#181818;stroke-width:1.0;" x1="843.75" x2="843.75" y1="206.4063" y2="226.4063"/><polygon fill="#181818" points="839.75,216.4063,843.75,226.4063,847.75,216.4063,843.75,220.4063" style="stroke:#181818;stroke-width:1.0;"/><line style="stroke:#181818;stroke-width:1.0;" x1="843.75" x2="843.75" y1="68.6094" y2="116.2188"/><polygon fill="#181818" points="839.75,106.2188,843.75,116.2188,847.75,106.2188,843.75,110.2188" style="stroke:#181818;stroke-width:1.0;"/><line style="stroke:#181818;stroke-width:1.0;" x1="843.75" x2="843.75" y1="261.5" y2="321.1094"/><polygon fill="#181818" points="839.75,311.1094,843.75,321.1094,847.75,311.1094,843.75,315.1094" style="stroke:#181818;stroke-width:1.0;"/><line style="stroke:#181818;stroke-width:1.0;" x1="558.5" x2="558.5" y1="494.9063" y2="521.9063"/><polygon fill="#181818" points="554.5,511.9063,558.5,521.9063,562.5,511.9063,558.5,515.9063" style="stroke:#181818;stroke-width:1.0;"/><line style="stroke:#181818;stroke-width:1.0;" x1="558.5" x2="558.5" y1="684.7031" y2="704.7031"/><polygon fill="#181818" points="554.5,694.7031,558.5,704.7031,562.5,694.7031,558.5,698.7031" style="stroke:#181818;stroke-width:1.0;"/><line style="stroke:#181818;stroke-width:1.0;" x1="558.5" x2="558.5" y1="557" y2="649.6094"/><polygon fill="#181818" points="554.5,639.6094,558.5,649.6094,562.5,639.6094,558.5,643.6094" style="stroke:#181818;stroke-width:1.0;"/><line style="stroke:#181818;stroke-width:1.0;" x1="558.5" x2="558.5" y1="739.7969" y2="799.4063"/><polygon fill="#181818" points="554.5,789.4063,558.5,799.4063,562.5,789.4063,558.5,793.4063" style="stroke:#181818;stroke-width:1.0;"/><line style="stroke:#181818;stroke-width:1.0;" x1="423" x2="423" y1="973.2031" y2="1000.2031"/><polygon fill="#181818" points="419,990.2031,423,1000.2031,427,990.2031,423,994.2031" style="stroke:#181818;stroke-width:1.0;"/><line style="stroke:#181818;stroke-width:1.0;" x1="423" x2="423" y1="1035.2969" y2="1055.2969"/><polygon fill="#181818" points="419,1045.2969,423,1055.2969,427,1045.2969,423,1049.2969" style="stroke:#181818;stroke-width:1.0;"/><line style="stroke:#181818;stroke-width:1.0;" x1="423" x2="423" y1="1090.3906" y2="1150"/><polygon fill="#181818" points="419,1140,423,1150,427,1140,423,1144" style="stroke:#181818;stroke-width:1.0;"/><line style="stroke:#181818;stroke-width:1.0;" x1="470.5" x2="423" y1="878.5" y2="878.5"/><line style="stroke:#181818;stroke-width:1.0;" x1="423" x2="423" y1="878.5" y2="938.1094"/><polygon fill="#181818" points="419,928.1094,423,938.1094,427,928.1094,423,932.1094" style="stroke:#181818;stroke-width:1.0;"/><line style="stroke:#181818;stroke-width:1.0;" x1="646.5" x2="694" y1="878.5" y2="878.5"/><line style="stroke:#181818;stroke-width:1.0;" x1="694" x2="694" y1="878.5" y2="938.1094"/><polygon fill="#181818" points="690,928.1094,694,938.1094,698,928.1094,694,932.1094" style="stroke:#181818;stroke-width:1.0;"/><line style="stroke:#181818;stroke-width:1.0;" x1="423" x2="423" y1="1185.0938" y2="1215.0938"/><line style="stroke:#181818;stroke-width:1.0;" x1="423" x2="546.5" y1="1215.0938" y2="1215.0938"/><polygon fill="#181818" points="536.5,1211.0938,546.5,1215.0938,536.5,1219.0938,540.5,1215.0938" style="stroke:#181818;stroke-width:1.0;"/><line style="stroke:#181818;stroke-width:1.0;" x1="694" x2="694" y1="973.2031" y2="1215.0938"/><line style="stroke:#181818;stroke-width:1.0;" x1="694" x2="570.5" y1="1215.0938" y2="1215.0938"/><polygon fill="#181818" points="580.5,1211.0938,570.5,1215.0938,580.5,1219.0938,576.5,1215.0938" style="stroke:#181818;stroke-width:1.0;"/><line style="stroke:#181818;stroke-width:1.0;" x1="558.5" x2="558.5" y1="834.5" y2="866.5"/><polygon fill="#181818" points="554.5,856.5,558.5,866.5,562.5,856.5,558.5,860.5" style="stroke:#181818;stroke-width:1.0;"/><line style="stroke:#181818;stroke-width:1.0;" x1="99" x2="99" y1="1492.5" y2="1577.1094"/><polygon fill="#181818" points="95,1567.1094,99,1577.1094,103,1567.1094,99,1571.1094" style="stroke:#181818;stroke-width:1.0;"/><line style="stroke:#181818;stroke-width:1.0;" x1="441" x2="441" y1="1492.5" y2="1519.5"/><polygon fill="#181818" points="437,1509.5,441,1519.5,445,1509.5,441,1513.5" style="stroke:#181818;stroke-width:1.0;"/><line style="stroke:#181818;stroke-width:1.0;" x1="441" x2="441" y1="1554.5938" y2="1647.2031"/><polygon fill="#181818" points="437,1637.2031,441,1647.2031,445,1637.2031,441,1641.2031" style="stroke:#181818;stroke-width:1.0;"/><line style="stroke:#181818;stroke-width:1.0;" x1="324" x2="324" y1="1821" y2="1841"/><polygon fill="#181818" points="320,1831,324,1841,328,1831,324,1835" style="stroke:#181818;stroke-width:1.0;"/><line style="stroke:#181818;stroke-width:1.0;" x1="324" x2="324" y1="1876.0938" y2="1903.0938"/><polygon fill="#181818" points="320,1893.0938,324,1903.0938,328,1893.0938,324,1897.0938" style="stroke:#181818;stroke-width:1.0;"/><line style="stroke:#181818;stroke-width:1.0;" x1="558" x2="558" y1="1821" y2="1841"/><polygon fill="#181818" points="554,1831,558,1841,562,1831,558,1835" style="stroke:#181818;stroke-width:1.0;"/><line style="stroke:#181818;stroke-width:1.0;" x1="392" x2="324" y1="1726.2969" y2="1726.2969"/><line style="stroke:#181818;stroke-width:1.0;" x1="324" x2="324" y1="1726.2969" y2="1785.9063"/><polygon fill="#181818" points="320,1775.9063,324,1785.9063,328,1775.9063,324,1779.9063" style="stroke:#181818;stroke-width:1.0;"/><line style="stroke:#181818;stroke-width:1.0;" x1="490" x2="558" y1="1726.2969" y2="1726.2969"/><line style="stroke:#181818;stroke-width:1.0;" x1="558" x2="558" y1="1726.2969" y2="1785.9063"/><polygon fill="#181818" points="554,1775.9063,558,1785.9063,562,1775.9063,558,1779.9063" style="stroke:#181818;stroke-width:1.0;"/><line style="stroke:#181818;stroke-width:1.0;" x1="324" x2="324" y1="1938.1875" y2="1968.1875"/><line style="stroke:#181818;stroke-width:1.0;" x1="324" x2="429" y1="1968.1875" y2="1968.1875"/><polygon fill="#181818" points="419,1964.1875,429,1968.1875,419,1972.1875,423,1968.1875" style="stroke:#181818;stroke-width:1.0;"/><line style="stroke:#181818;stroke-width:1.0;" x1="558" x2="558" y1="1876.0938" y2="1968.1875"/><line style="stroke:#181818;stroke-width:1.0;" x1="558" x2="453" y1="1968.1875" y2="1968.1875"/><polygon fill="#181818" points="463,1964.1875,453,1968.1875,463,1972.1875,459,1968.1875" style="stroke:#181818;stroke-width:1.0;"/><line style="stroke:#181818;stroke-width:1.0;" x1="441" x2="441" y1="1682.2969" y2="1714.2969"/><polygon fill="#181818" points="437,1704.2969,441,1714.2969,445,1704.2969,441,1708.2969" style="stroke:#181818;stroke-width:1.0;"/><line style="stroke:#181818;stroke-width:1.0;" x1="216.5" x2="99" y1="1397.7969" y2="1397.7969"/><line style="stroke:#181818;stroke-width:1.0;" x1="99" x2="99" y1="1397.7969" y2="1457.4063"/><polygon fill="#181818" points="95,1447.4063,99,1457.4063,103,1447.4063,99,1451.4063" style="stroke:#181818;stroke-width:1.0;"/><line style="stroke:#181818;stroke-width:1.0;" x1="323.5" x2="441" y1="1397.7969" y2="1397.7969"/><line style="stroke:#181818;stroke-width:1.0;" x1="441" x2="441" y1="1397.7969" y2="1457.4063"/><polygon fill="#181818" points="437,1447.4063,441,1457.4063,445,1447.4063,441,1451.4063" style="stroke:#181818;stroke-width:1.0;"/><line style="stroke:#181818;stroke-width:1.0;" x1="99" x2="99" y1="1612.2031" y2="1998.1875"/><line style="stroke:#181818;stroke-width:1.0;" x1="99" x2="258" y1="1998.1875" y2="1998.1875"/><polygon fill="#181818" points="248,1994.1875,258,1998.1875,248,2002.1875,252,1998.1875" style="stroke:#181818;stroke-width:1.0;"/><line style="stroke:#181818;stroke-width:1.0;" x1="441" x2="441" y1="1980.1875" y2="1998.1875"/><line style="stroke:#181818;stroke-width:1.0;" x1="441" x2="282" y1="1998.1875" y2="1998.1875"/><polygon fill="#181818" points="292,1994.1875,282,1998.1875,292,2002.1875,288,1998.1875" style="stroke:#181818;stroke-width:1.0;"/><line style="stroke:#181818;stroke-width:1.0;" x1="270" x2="270" y1="1353.7969" y2="1385.7969"/><polygon fill="#181818" points="266,1375.7969,270,1385.7969,274,1375.7969,270,1379.7969" style="stroke:#181818;stroke-width:1.0;"/><line style="stroke:#181818;stroke-width:1.0;" x1="468" x2="270" y1="1259.0938" y2="1259.0938"/><line style="stroke:#181818;stroke-width:1.0;" x1="270" x2="270" y1="1259.0938" y2="1318.7031"/><polygon fill="#181818" points="266,1308.7031,270,1318.7031,274,1308.7031,270,1312.7031" style="stroke:#181818;stroke-width:1.0;"/><line style="stroke:#181818;stroke-width:1.0;" x1="649" x2="847" y1="1259.0938" y2="1259.0938"/><line style="stroke:#181818;stroke-width:1.0;" x1="847" x2="847" y1="1259.0938" y2="1318.7031"/><polygon fill="#181818" points="843,1308.7031,847,1318.7031,851,1308.7031,847,1312.7031" style="stroke:#181818;stroke-width:1.0;"/><line style="stroke:#181818;stroke-width:1.0;" x1="270" x2="270" y1="2010.1875" y2="2028.1875"/><line style="stroke:#181818;stroke-width:1.0;" x1="270" x2="546.5" y1="2028.1875" y2="2028.1875"/><polygon fill="#181818" points="536.5,2024.1875,546.5,2028.1875,536.5,2032.1875,540.5,2028.1875" style="stroke:#181818;stroke-width:1.0;"/><line style="stroke:#181818;stroke-width:1.0;" x1="847" x2="847" y1="1353.7969" y2="2028.1875"/><line style="stroke:#181818;stroke-width:1.0;" x1="847" x2="570.5" y1="2028.1875" y2="2028.1875"/><polygon fill="#181818" points="580.5,2024.1875,570.5,2028.1875,580.5,2032.1875,576.5,2028.1875" style="stroke:#181818;stroke-width:1.0;"/><line style="stroke:#181818;stroke-width:1.0;" x1="558.5" x2="558.5" y1="1227.0938" y2="1247.0938"/><polygon fill="#181818" points="554.5,1237.0938,558.5,1247.0938,562.5,1237.0938,558.5,1241.0938" style="stroke:#181818;stroke-width:1.0;"/><line style="stroke:#181818;stroke-width:1.0;" x1="1109" x2="1109" y1="494.9063" y2="579.5156"/><polygon fill="#181818" points="1105,569.5156,1109,579.5156,1113,569.5156,1109,573.5156" style="stroke:#181818;stroke-width:1.0;"/><line style="stroke:#181818;stroke-width:1.0;" x1="803.25" x2="558.5" y1="400.2031" y2="400.2031"/><line style="stroke:#181818;stroke-width:1.0;" x1="558.5" x2="558.5" y1="400.2031" y2="459.8125"/><polygon fill="#181818" points="554.5,449.8125,558.5,459.8125,562.5,449.8125,558.5,453.8125" style="stroke:#181818;stroke-width:1.0;"/><line style="stroke:#181818;stroke-width:1.0;" x1="884.25" x2="1109" y1="400.2031" y2="400.2031"/><line style="stroke:#181818;stroke-width:1.0;" x1="1109" x2="1109" y1="400.2031" y2="459.8125"/><polygon fill="#181818" points="1105,449.8125,1109,459.8125,1113,449.8125,1109,453.8125" style="stroke:#181818;stroke-width:1.0;"/><line style="stroke:#181818;stroke-width:1.0;" x1="558.5" x2="558.5" y1="2040.1875" y2="2058.1875"/><line style="stroke:#181818;stroke-width:1.0;" x1="558.5" x2="831.75" y1="2058.1875" y2="2058.1875"/><polygon fill="#181818" points="821.75,2054.1875,831.75,2058.1875,821.75,2062.1875,825.75,2058.1875" style="stroke:#181818;stroke-width:1.0;"/><line style="stroke:#181818;stroke-width:1.0;" x1="1109" x2="1109" y1="614.6094" y2="2058.1875"/><line style="stroke:#181818;stroke-width:1.0;" x1="1109" x2="855.75" y1="2058.1875" y2="2058.1875"/><polygon fill="#181818" points="865.75,2054.1875,855.75,2058.1875,865.75,2062.1875,861.75,2058.1875" style="stroke:#181818;stroke-width:1.0;"/><line style="stroke:#181818;stroke-width:1.0;" x1="843.75" x2="843.75" y1="356.2031" y2="388.2031"/><polygon fill="#181818" points="839.75,378.2031,843.75,388.2031,847.75,378.2031,843.75,382.2031" style="stroke:#181818;stroke-width:1.0;"/><line style="stroke:#181818;stroke-width:1.0;" x1="843.75" x2="843.75" y1="2070.1875" y2="2090.1875"/><polygon fill="#181818" points="839.75,2080.1875,843.75,2090.1875,847.75,2080.1875,843.75,2084.1875" style="stroke:#181818;stroke-width:1.0;"/><!--SRC=[jPPDRzim38Rl_XL4TqaFEwmRi8ySYdQ1iKExotRPaQaLcv0i6PBSeXZotqTBSHr_fUdINc979by-96NAdhmIS7NdwPxy8wm8Suibl8Uhh2GDjqBdGXc5y9CKKf8uIRh2nWHRdxy9m3NUoToQMcVVZJ8MtgLVqkiqRPuOcmcxMxr8F_43NasDzhkr3-d5ru-VaorhUxG-ILZUaoUZuIn0d8K80DyYKYdATIqH2bHOeWPbSjBBWGMwMaf-o7Ua8EEx2frxO9QUfLGamPjoRHJSH9rj3-0NEI_A9u9RKGfBqY5BUeoX0Hkfu4WRM0GPk4T5sUKv-49eMFp1yoG92dEvxTCtx205Xt35sc2Bt4-G51LyrNLiJ3JPZeBq-NSvQ2mhKarvDgIyiA0xYP59I5GVYZ6RY616z7CAJR6Y8Uay9hN3wHpw5Mpr3yMUg59UstfvoC2HUy0P2oqiLbsfEglj9C-utWSA2awucYypqa8v0OlVbA5yUV9UUAmcMW2Fg7FmWMOSKMUqcUjEEmXUkJie7Gqtu5vj0qTZ4hWpgXgdfy0t8RiLvqfg3-4OZ0cKuKQTm3cgtUEM1y1df6ExVs1Lk_XEdvxGNiSnS72vM7uvxwTGresbD7f3baSHmOJBVnQaDpkVhtFJ-bMtSSSZTHZYA8wsENd8QvPbie-LSFox5hRWmgWZ72IVLOnzCCgsjz9xwKzAS40jh3NsRP2xgJ7uUze4QzpsjcGbRBt6Ok986a-mSU3ZpyHOhdYqvvYZUkcvrrQGZ_29RnJMsK4wRwf_]--></g></svg>