<?xml version="1.0" encoding="us-ascii" standalone="no"?><svg xmlns="http://www.w3.org/2000/svg" xmlns:xlink="http://www.w3.org/1999/xlink" contentStyleType="text/css" height="1936px" preserveAspectRatio="none" style="width:1555px;height:1936px;background:#FFFFFF;" version="1.1" viewBox="0 0 1555 1936" width="1555px" zoomAndPan="magnify"><defs/><g><text fill="#000000" font-family="sans-serif" font-size="14" font-weight="bold" lengthAdjust="spacing" textLength="287" x="632.5" y="34.5332">Activity Diagram - Admin Mengelola Profil</text><ellipse cx="1147.75" cy="58.6094" fill="#222222" rx="10" ry="10" style="stroke:#222222;stroke-width:1.0;"/><rect fill="none" height="194.8906" style="stroke:#000000;stroke-width:1.5;" width="270" x="1012.75" y="78.6094"/><path d="M1061.75,78.6094 L1061.75,89.2188 L1051.75,99.2188 L1012.75,99.2188 " fill="none" style="stroke:#000000;stroke-width:1.5;"/><text fill="#000000" font-family="sans-serif" font-size="14" lengthAdjust="spacing" textLength="39" x="1015.75" y="94.1426">Admin</text><rect fill="#F8FBFF" height="35.0938" rx="12.5" ry="12.5" style="stroke:#2F4F8F;stroke-width:0.5;" width="196" x="1049.75" y="116.2188"/><text fill="#1F2937" font-family="sans-serif" font-size="12" lengthAdjust="spacing" textLength="176" x="1059.75" y="138.6758">Admin membuka halaman login</text><rect fill="#F8FBFF" height="35.0938" rx="12.5" ry="12.5" style="stroke:#2F4F8F;stroke-width:0.5;" width="250" x="1022.75" y="171.3125"/><text fill="#1F2937" font-family="sans-serif" font-size="12" lengthAdjust="spacing" textLength="230" x="1032.75" y="193.7695">Admin memasukkan email dan password</text><rect fill="#F8FBFF" height="35.0938" rx="12.5" ry="12.5" style="stroke:#2F4F8F;stroke-width:0.5;" width="151" x="1072.25" y="226.4063"/><text fill="#1F2937" font-family="sans-serif" font-size="12" lengthAdjust="spacing" textLength="131" x="1082.25" y="248.8633">Admin klik tombol Login</text><rect fill="none" height="84.7031" style="stroke:#000000;stroke-width:1.5;" width="196" x="1049.75" y="283.5"/><path d="M1101.75,283.5 L1101.75,294.1094 L1091.75,304.1094 L1049.75,304.1094 " fill="none" style="stroke:#000000;stroke-width:1.5;"/><text fill="#000000" font-family="sans-serif" font-size="14" lengthAdjust="spacing" textLength="42" x="1052.75" y="299.0332">Sistem</text><rect fill="#F8FBFF" height="35.0938" rx="12.5" ry="12.5" style="stroke:#2F4F8F;stroke-width:0.5;" width="176" x="1059.75" y="321.1094"/><text fill="#1F2937" font-family="sans-serif" font-size="12" lengthAdjust="spacing" textLength="156" x="1069.75" y="343.5664">Memeriksa data login admin</text><polygon fill="#F8FBFF" points="1119.25,388.2031,1176.25,388.2031,1188.25,400.2031,1176.25,412.2031,1119.25,412.2031,1107.25,400.2031,1119.25,388.2031" style="stroke:#2F4F8F;stroke-width:0.5;"/><text fill="#1F2937" font-family="sans-serif" font-size="11" lengthAdjust="spacing" textLength="57" x="1119.25" y="404.7041">Login valid?</text><text fill="#000000" font-family="sans-serif" font-size="11" lengthAdjust="spacing" textLength="14" x="1093.25" y="397.7861">Ya</text><text fill="#000000" font-family="sans-serif" font-size="11" lengthAdjust="spacing" textLength="25" x="1188.25" y="397.7861">Tidak</text><rect fill="none" height="154.7969" style="stroke:#000000;stroke-width:1.5;" width="195" x="744" y="422.2031"/><path d="M793,422.2031 L793,432.8125 L783,442.8125 L744,442.8125 " fill="none" style="stroke:#000000;stroke-width:1.5;"/><text fill="#000000" font-family="sans-serif" font-size="14" lengthAdjust="spacing" textLength="39" x="747" y="437.7363">Admin</text><rect fill="#F8FBFF" height="35.0938" rx="12.5" ry="12.5" style="stroke:#2F4F8F;stroke-width:0.5;" width="175" x="754" y="459.8125"/><text fill="#1F2937" font-family="sans-serif" font-size="12" lengthAdjust="spacing" textLength="155" x="764" y="482.2695">Admin masuk ke dashboard</text><rect fill="#F8FBFF" height="35.0938" rx="12.5" ry="12.5" style="stroke:#2F4F8F;stroke-width:0.5;" width="169" x="757" y="521.9063"/><text fill="#1F2937" font-family="sans-serif" font-size="12" lengthAdjust="spacing" textLength="149" x="767" y="544.3633">Admin memilih menu Profil</text><rect fill="none" height="194.8906" style="stroke:#000000;stroke-width:1.5;" width="231" x="726" y="612"/><path d="M778,612 L778,622.6094 L768,632.6094 L726,632.6094 " fill="none" style="stroke:#000000;stroke-width:1.5;"/><text fill="#000000" font-family="sans-serif" font-size="14" lengthAdjust="spacing" textLength="42" x="729" y="627.5332">Sistem</text><rect fill="#F8FBFF" height="35.0938" rx="12.5" ry="12.5" style="stroke:#2F4F8F;stroke-width:0.5;" width="189" x="747" y="649.6094"/><text fill="#1F2937" font-family="sans-serif" font-size="12" lengthAdjust="spacing" textLength="169" x="757" y="672.0664">Menampilkan data profil admin</text><rect fill="#F8FBFF" height="35.0938" rx="12.5" ry="12.5" style="stroke:#2F4F8F;stroke-width:0.5;" width="193" x="745" y="704.7031"/><text fill="#1F2937" font-family="sans-serif" font-size="12" lengthAdjust="spacing" textLength="173" x="755" y="727.1602">Menampilkan form update profil</text><rect fill="#F8FBFF" height="35.0938" rx="12.5" ry="12.5" style="stroke:#2F4F8F;stroke-width:0.5;" width="211" x="736" y="759.7969"/><text fill="#1F2937" font-family="sans-serif" font-size="12" lengthAdjust="spacing" textLength="191" x="746" y="782.2539">Menampilkan form ubah password</text><rect fill="none" height="84.7031" style="stroke:#000000;stroke-width:1.5;" width="176" x="753.5" y="816.8906"/><path d="M802.5,816.8906 L802.5,827.5 L792.5,837.5 L753.5,837.5 " fill="none" style="stroke:#000000;stroke-width:1.5;"/><text fill="#000000" font-family="sans-serif" font-size="14" lengthAdjust="spacing" textLength="39" x="756.5" y="832.4238">Admin</text><rect fill="#F8FBFF" height="35.0938" rx="12.5" ry="12.5" style="stroke:#2F4F8F;stroke-width:0.5;" width="156" x="763.5" y="854.5"/><text fill="#1F2937" font-family="sans-serif" font-size="12" lengthAdjust="spacing" textLength="136" x="773.5" y="876.957">Admin melihat data profil</text><polygon fill="#F8FBFF" points="772,921.5938,911,921.5938,923,933.5938,911,945.5938,772,945.5938,760,933.5938,772,921.5938" style="stroke:#2F4F8F;stroke-width:0.5;"/><text fill="#1F2937" font-family="sans-serif" font-size="11" lengthAdjust="spacing" textLength="139" x="772" y="938.0947">Admin ingin mengelola profil?</text><text fill="#000000" font-family="sans-serif" font-size="11" lengthAdjust="spacing" textLength="14" x="746" y="931.1768">Ya</text><text fill="#000000" font-family="sans-serif" font-size="11" lengthAdjust="spacing" textLength="25" x="923" y="931.1768">Tidak</text><rect fill="none" height="84.7031" style="stroke:#000000;stroke-width:1.5;" width="179" x="410" y="955.5938"/><path d="M459,955.5938 L459,966.2031 L449,976.2031 L410,976.2031 " fill="none" style="stroke:#000000;stroke-width:1.5;"/><text fill="#000000" font-family="sans-serif" font-size="14" lengthAdjust="spacing" textLength="39" x="413" y="971.127">Admin</text><rect fill="#F8FBFF" height="35.0938" rx="12.5" ry="12.5" style="stroke:#2F4F8F;stroke-width:0.5;" width="159" x="420" y="993.2031"/><text fill="#1F2937" font-family="sans-serif" font-size="12" lengthAdjust="spacing" textLength="139" x="430" y="1015.6602">Admin memilih aksi profil</text><polygon fill="#F8FBFF" points="458,1060.2969,541,1060.2969,553,1072.2969,541,1084.2969,458,1084.2969,446,1072.2969,458,1060.2969" style="stroke:#2F4F8F;stroke-width:0.5;"/><text fill="#1F2937" font-family="sans-serif" font-size="11" lengthAdjust="spacing" textLength="83" x="458" y="1076.7979">Aksi yang dipilih?</text><text fill="#000000" font-family="sans-serif" font-size="11" lengthAdjust="spacing" textLength="61" x="385" y="1069.8799">Update Profil</text><text fill="#000000" font-family="sans-serif" font-size="11" lengthAdjust="spacing" textLength="78" x="553" y="1069.8799">Ubah Password</text><rect fill="none" height="139.7969" style="stroke:#000000;stroke-width:1.5;" width="214" x="132" y="1094.2969"/><path d="M181,1094.2969 L181,1104.9063 L171,1114.9063 L132,1114.9063 " fill="none" style="stroke:#000000;stroke-width:1.5;"/><text fill="#000000" font-family="sans-serif" font-size="14" lengthAdjust="spacing" textLength="39" x="135" y="1109.8301">Admin</text><rect fill="#F8FBFF" height="35.0938" rx="12.5" ry="12.5" style="stroke:#2F4F8F;stroke-width:0.5;" width="175" x="151.5" y="1131.9063"/><text fill="#1F2937" font-family="sans-serif" font-size="12" lengthAdjust="spacing" textLength="155" x="161.5" y="1154.3633">Admin mengubah data profil</text><rect fill="#F8FBFF" height="35.0938" rx="12.5" ry="12.5" style="stroke:#2F4F8F;stroke-width:0.5;" width="194" x="142" y="1187"/><text fill="#1F2937" font-family="sans-serif" font-size="12" lengthAdjust="spacing" textLength="174" x="152" y="1209.457">Admin klik tombol Simpan Profil</text><rect fill="none" height="92.7031" style="stroke:#000000;stroke-width:1.5;" width="158" x="160" y="1269.0938"/><path d="M212,1269.0938 L212,1279.7031 L202,1289.7031 L160,1289.7031 " fill="none" style="stroke:#000000;stroke-width:1.5;"/><text fill="#000000" font-family="sans-serif" font-size="14" lengthAdjust="spacing" textLength="42" x="163" y="1284.627">Sistem</text><rect fill="#F8FBFF" height="35.0938" rx="12.5" ry="12.5" style="stroke:#2F4F8F;stroke-width:0.5;" width="138" x="170" y="1306.7031"/><text fill="#1F2937" font-family="sans-serif" font-size="12" lengthAdjust="spacing" textLength="118" x="180" y="1329.1602">Memeriksa data profil</text><polygon fill="#F8FBFF" points="199,1393.7969,279,1393.7969,291,1405.7969,279,1417.7969,199,1417.7969,187,1405.7969,199,1393.7969" style="stroke:#2F4F8F;stroke-width:0.5;"/><text fill="#1F2937" font-family="sans-serif" font-size="11" lengthAdjust="spacing" textLength="80" x="199" y="1410.2979">Data profil valid?</text><text fill="#000000" font-family="sans-serif" font-size="11" lengthAdjust="spacing" textLength="14" x="173" y="1403.3799">Ya</text><text fill="#000000" font-family="sans-serif" font-size="11" lengthAdjust="spacing" textLength="25" x="291" y="1403.3799">Tidak</text><rect fill="none" height="211.4063" style="stroke:#000000;stroke-width:1.5;" width="218" x="11" y="1427.7969"/><path d="M63,1427.7969 L63,1438.4063 L53,1448.4063 L11,1448.4063 " fill="none" style="stroke:#000000;stroke-width:1.5;"/><text fill="#000000" font-family="sans-serif" font-size="14" lengthAdjust="spacing" textLength="42" x="14" y="1443.3301">Sistem</text><rect fill="#F8FBFF" height="35.0938" rx="12.5" ry="12.5" style="stroke:#2F4F8F;stroke-width:0.5;" width="176" x="32" y="1465.4063"/><text fill="#1F2937" font-family="sans-serif" font-size="12" lengthAdjust="spacing" textLength="156" x="42" y="1487.8633">Menyimpan perubahan profil</text><rect fill="#F8FBFF" height="35.0938" rx="12.5" ry="12.5" style="stroke:#2F4F8F;stroke-width:0.5;" width="180" x="30" y="1522.0156"/><text fill="#1F2937" font-family="sans-serif" font-size="12" lengthAdjust="spacing" textLength="160" x="40" y="1544.4727">Menampilkan pesan berhasil</text><rect fill="#F8FBFF" height="35.0938" rx="12.5" ry="12.5" style="stroke:#2F4F8F;stroke-width:0.5;" width="198" x="21" y="1592.1094"/><text fill="#1F2937" font-family="sans-serif" font-size="12" lengthAdjust="spacing" textLength="178" x="31" y="1614.5664">Menampilkan kembali data profil</text><rect fill="none" height="149.3125" style="stroke:#000000;stroke-width:1.5;" width="218" x="249" y="1427.7969"/><path d="M301,1427.7969 L301,1438.4063 L291,1448.4063 L249,1448.4063 " fill="none" style="stroke:#000000;stroke-width:1.5;"/><text fill="#000000" font-family="sans-serif" font-size="14" lengthAdjust="spacing" textLength="42" x="252" y="1443.3301">Sistem</text><rect fill="#F8FBFF" height="35.0938" rx="12.5" ry="12.5" style="stroke:#2F4F8F;stroke-width:0.5;" width="161" x="277.5" y="1465.4063"/><text fill="#1F2937" font-family="sans-serif" font-size="12" lengthAdjust="spacing" textLength="141" x="287.5" y="1487.8633">Menampilkan pesan error</text><rect fill="#F8FBFF" height="35.0938" rx="12.5" ry="12.5" style="stroke:#2F4F8F;stroke-width:0.5;" width="198" x="259" y="1522.0156"/><text fill="#1F2937" font-family="sans-serif" font-size="12" lengthAdjust="spacing" textLength="178" x="269" y="1544.4727">Menampilkan kembali data profil</text><polygon fill="#F8FBFF" points="239,1645.2031,251,1657.2031,239,1669.2031,227,1657.2031,239,1645.2031" style="stroke:#2F4F8F;stroke-width:0.5;"/><rect fill="none" height="279.5" style="stroke:#000000;stroke-width:1.5;" width="270" x="625" y="1094.2969"/><path d="M674,1094.2969 L674,1104.9063 L664,1114.9063 L625,1114.9063 " fill="none" style="stroke:#000000;stroke-width:1.5;"/><text fill="#000000" font-family="sans-serif" font-size="14" lengthAdjust="spacing" textLength="39" x="628" y="1109.8301">Admin</text><rect fill="#F8FBFF" height="35.0938" rx="12.5" ry="12.5" style="stroke:#2F4F8F;stroke-width:0.5;" width="192" x="664" y="1131.9063"/><text fill="#1F2937" font-family="sans-serif" font-size="12" lengthAdjust="spacing" textLength="172" x="674" y="1154.3633">Admin mengisi password lama</text><rect fill="#F8FBFF" height="35.0938" rx="12.5" ry="12.5" style="stroke:#2F4F8F;stroke-width:0.5;" width="189" x="665.5" y="1187"/><text fill="#1F2937" font-family="sans-serif" font-size="12" lengthAdjust="spacing" textLength="169" x="675.5" y="1209.457">Admin mengisi password baru</text><rect fill="#F8FBFF" height="35.0938" rx="12.5" ry="12.5" style="stroke:#2F4F8F;stroke-width:0.5;" width="250" x="635" y="1249.0938"/><text fill="#1F2937" font-family="sans-serif" font-size="12" lengthAdjust="spacing" textLength="230" x="645" y="1271.5508">Admin mengisi konfirmasi password baru</text><rect fill="#F8FBFF" height="35.0938" rx="12.5" ry="12.5" style="stroke:#2F4F8F;stroke-width:0.5;" width="219" x="650.5" y="1319.1875"/><text fill="#1F2937" font-family="sans-serif" font-size="12" lengthAdjust="spacing" textLength="199" x="660.5" y="1341.6445">Admin klik tombol Update Password</text><rect fill="none" height="92.7031" style="stroke:#000000;stroke-width:1.5;" width="186" x="667" y="1406.2813"/><path d="M719,1406.2813 L719,1416.8906 L709,1426.8906 L667,1426.8906 " fill="none" style="stroke:#000000;stroke-width:1.5;"/><text fill="#000000" font-family="sans-serif" font-size="14" lengthAdjust="spacing" textLength="42" x="670" y="1421.8145">Sistem</text><rect fill="#F8FBFF" height="35.0938" rx="12.5" ry="12.5" style="stroke:#2F4F8F;stroke-width:0.5;" width="166" x="677" y="1443.8906"/><text fill="#1F2937" font-family="sans-serif" font-size="12" lengthAdjust="spacing" textLength="146" x="687" y="1466.3477">Memeriksa data password</text><polygon fill="#F8FBFF" points="707,1520.5,813,1520.5,825,1532.5,813,1544.5,707,1544.5,695,1532.5,707,1520.5" style="stroke:#2F4F8F;stroke-width:0.5;"/><text fill="#1F2937" font-family="sans-serif" font-size="11" lengthAdjust="spacing" textLength="106" x="707" y="1537.001">Data password valid?</text><text fill="#000000" font-family="sans-serif" font-size="11" lengthAdjust="spacing" textLength="14" x="681" y="1530.083">Ya</text><text fill="#000000" font-family="sans-serif" font-size="11" lengthAdjust="spacing" textLength="25" x="825" y="1530.083">Tidak</text><rect fill="none" height="208.8906" style="stroke:#000000;stroke-width:1.5;" width="243" x="507" y="1554.5"/><path d="M559,1554.5 L559,1565.1094 L549,1575.1094 L507,1575.1094 " fill="none" style="stroke:#000000;stroke-width:1.5;"/><text fill="#000000" font-family="sans-serif" font-size="14" lengthAdjust="spacing" textLength="42" x="510" y="1570.0332">Sistem</text><rect fill="#F8FBFF" height="35.0938" rx="12.5" ry="12.5" style="stroke:#2F4F8F;stroke-width:0.5;" width="169" x="544" y="1592.1094"/><text fill="#1F2937" font-family="sans-serif" font-size="12" lengthAdjust="spacing" textLength="149" x="554" y="1614.5664">Menyimpan password baru</text><rect fill="#F8FBFF" height="35.0938" rx="12.5" ry="12.5" style="stroke:#2F4F8F;stroke-width:0.5;" width="180" x="538.5" y="1654.2031"/><text fill="#1F2937" font-family="sans-serif" font-size="12" lengthAdjust="spacing" textLength="160" x="548.5" y="1676.6602">Menampilkan pesan berhasil</text><rect fill="#F8FBFF" height="35.0938" rx="12.5" ry="12.5" style="stroke:#2F4F8F;stroke-width:0.5;" width="223" x="517" y="1716.2969"/><text fill="#1F2937" font-family="sans-serif" font-size="12" lengthAdjust="spacing" textLength="203" x="527" y="1738.7539">Menampilkan kembali halaman profil</text><rect fill="none" height="146.7969" style="stroke:#000000;stroke-width:1.5;" width="243" x="770" y="1554.5"/><path d="M822,1554.5 L822,1565.1094 L812,1575.1094 L770,1575.1094 " fill="none" style="stroke:#000000;stroke-width:1.5;"/><text fill="#000000" font-family="sans-serif" font-size="14" lengthAdjust="spacing" textLength="42" x="773" y="1570.0332">Sistem</text><rect fill="#F8FBFF" height="35.0938" rx="12.5" ry="12.5" style="stroke:#2F4F8F;stroke-width:0.5;" width="161" x="811" y="1592.1094"/><text fill="#1F2937" font-family="sans-serif" font-size="12" lengthAdjust="spacing" textLength="141" x="821" y="1614.5664">Menampilkan pesan error</text><rect fill="#F8FBFF" height="35.0938" rx="12.5" ry="12.5" style="stroke:#2F4F8F;stroke-width:0.5;" width="223" x="780" y="1654.2031"/><text fill="#1F2937" font-family="sans-serif" font-size="12" lengthAdjust="spacing" textLength="203" x="790" y="1676.6602">Menampilkan kembali halaman profil</text><polygon fill="#F8FBFF" points="760,1769.3906,772,1781.3906,760,1793.3906,748,1781.3906,760,1769.3906" style="stroke:#2F4F8F;stroke-width:0.5;"/><polygon fill="#F8FBFF" points="499.5,1799.3906,511.5,1811.3906,499.5,1823.3906,487.5,1811.3906,499.5,1799.3906" style="stroke:#2F4F8F;stroke-width:0.5;"/><rect fill="none" height="84.7031" style="stroke:#000000;stroke-width:1.5;" width="261" x="1053" y="955.5938"/><path d="M1102,955.5938 L1102,966.2031 L1092,976.2031 L1053,976.2031 " fill="none" style="stroke:#000000;stroke-width:1.5;"/><text fill="#000000" font-family="sans-serif" font-size="14" lengthAdjust="spacing" textLength="39" x="1056" y="971.127">Admin</text><rect fill="#F8FBFF" height="35.0938" rx="12.5" ry="12.5" style="stroke:#2F4F8F;stroke-width:0.5;" width="241" x="1063" y="993.2031"/><text fill="#1F2937" font-family="sans-serif" font-size="12" lengthAdjust="spacing" textLength="221" x="1073" y="1015.6602">Admin tidak melakukan perubahan profil</text><polygon fill="#F8FBFF" points="841.5,1829.3906,853.5,1841.3906,841.5,1853.3906,829.5,1841.3906,841.5,1829.3906" style="stroke:#2F4F8F;stroke-width:0.5;"/><rect fill="none" height="84.7031" style="stroke:#000000;stroke-width:1.5;" width="216" x="1326" y="422.2031"/><path d="M1378,422.2031 L1378,432.8125 L1368,442.8125 L1326,442.8125 " fill="none" style="stroke:#000000;stroke-width:1.5;"/><text fill="#000000" font-family="sans-serif" font-size="14" lengthAdjust="spacing" textLength="42" x="1329" y="437.7363">Sistem</text><rect fill="#F8FBFF" height="35.0938" rx="12.5" ry="12.5" style="stroke:#2F4F8F;stroke-width:0.5;" width="196" x="1336" y="459.8125"/><text fill="#1F2937" font-family="sans-serif" font-size="12" lengthAdjust="spacing" textLength="176" x="1346" y="482.2695">Menampilkan pesan login gagal</text><rect fill="none" height="92.7031" style="stroke:#000000;stroke-width:1.5;" width="220" x="1324" y="541.9063"/><path d="M1373,541.9063 L1373,552.5156 L1363,562.5156 L1324,562.5156 " fill="none" style="stroke:#000000;stroke-width:1.5;"/><text fill="#000000" font-family="sans-serif" font-size="14" lengthAdjust="spacing" textLength="39" x="1327" y="557.4395">Admin</text><rect fill="#F8FBFF" height="35.0938" rx="12.5" ry="12.5" style="stroke:#2F4F8F;stroke-width:0.5;" width="200" x="1334" y="579.5156"/><text fill="#1F2937" font-family="sans-serif" font-size="12" lengthAdjust="spacing" textLength="180" x="1344" y="601.9727">Admin kembali ke halaman login</text><polygon fill="#F8FBFF" points="1147.75,1859.3906,1159.75,1871.3906,1147.75,1883.3906,1135.75,1871.3906,1147.75,1859.3906" style="stroke:#2F4F8F;stroke-width:0.5;"/><ellipse cx="1147.75" cy="1914.3906" fill="none" rx="11" ry="11" style="stroke:#222222;stroke-width:1.0;"/><ellipse cx="1147.75" cy="1914.3906" fill="#222222" rx="6" ry="6" style="stroke:#222222;stroke-width:1.0;"/><line style="stroke:#181818;stroke-width:1.0;" x1="1147.75" x2="1147.75" y1="151.3125" y2="171.3125"/><polygon fill="#181818" points="1143.75,161.3125,1147.75,171.3125,1151.75,161.3125,1147.75,165.3125" style="stroke:#181818;stroke-width:1.0;"/><line style="stroke:#181818;stroke-width:1.0;" x1="1147.75" x2="1147.75" y1="206.4063" y2="226.4063"/><polygon fill="#181818" points="1143.75,216.4063,1147.75,226.4063,1151.75,216.4063,1147.75,220.4063" style="stroke:#181818;stroke-width:1.0;"/><line style="stroke:#181818;stroke-width:1.0;" x1="1147.75" x2="1147.75" y1="68.6094" y2="116.2188"/><polygon fill="#181818" points="1143.75,106.2188,1147.75,116.2188,1151.75,106.2188,1147.75,110.2188" style="stroke:#181818;stroke-width:1.0;"/><line style="stroke:#181818;stroke-width:1.0;" x1="1147.75" x2="1147.75" y1="261.5" y2="321.1094"/><polygon fill="#181818" points="1143.75,311.1094,1147.75,321.1094,1151.75,311.1094,1147.75,315.1094" style="stroke:#181818;stroke-width:1.0;"/><line style="stroke:#181818;stroke-width:1.0;" x1="841.5" x2="841.5" y1="494.9063" y2="521.9063"/><polygon fill="#181818" points="837.5,511.9063,841.5,521.9063,845.5,511.9063,841.5,515.9063" style="stroke:#181818;stroke-width:1.0;"/><line style="stroke:#181818;stroke-width:1.0;" x1="841.5" x2="841.5" y1="684.7031" y2="704.7031"/><polygon fill="#181818" points="837.5,694.7031,841.5,704.7031,845.5,694.7031,841.5,698.7031" style="stroke:#181818;stroke-width:1.0;"/><line style="stroke:#181818;stroke-width:1.0;" x1="841.5" x2="841.5" y1="739.7969" y2="759.7969"/><polygon fill="#181818" points="837.5,749.7969,841.5,759.7969,845.5,749.7969,841.5,753.7969" style="stroke:#181818;stroke-width:1.0;"/><line style="stroke:#181818;stroke-width:1.0;" x1="841.5" x2="841.5" y1="557" y2="649.6094"/><polygon fill="#181818" points="837.5,639.6094,841.5,649.6094,845.5,639.6094,841.5,643.6094" style="stroke:#181818;stroke-width:1.0;"/><line style="stroke:#181818;stroke-width:1.0;" x1="841.5" x2="841.5" y1="794.8906" y2="854.5"/><polygon fill="#181818" points="837.5,844.5,841.5,854.5,845.5,844.5,841.5,848.5" style="stroke:#181818;stroke-width:1.0;"/><line style="stroke:#181818;stroke-width:1.0;" x1="239" x2="239" y1="1167" y2="1187"/><polygon fill="#181818" points="235,1177,239,1187,243,1177,239,1181" style="stroke:#181818;stroke-width:1.0;"/><line style="stroke:#181818;stroke-width:1.0;" x1="239" x2="239" y1="1222.0938" y2="1306.7031"/><polygon fill="#181818" points="235,1296.7031,239,1306.7031,243,1296.7031,239,1300.7031" style="stroke:#181818;stroke-width:1.0;"/><line style="stroke:#181818;stroke-width:1.0;" x1="120" x2="120" y1="1500.5" y2="1522.0156"/><polygon fill="#181818" points="116,1512.0156,120,1522.0156,124,1512.0156,120,1516.0156" style="stroke:#181818;stroke-width:1.0;"/><line style="stroke:#181818;stroke-width:1.0;" x1="120" x2="120" y1="1557.1094" y2="1592.1094"/><polygon fill="#181818" points="116,1582.1094,120,1592.1094,124,1582.1094,120,1586.1094" style="stroke:#181818;stroke-width:1.0;"/><line style="stroke:#181818;stroke-width:1.0;" x1="358" x2="358" y1="1500.5" y2="1522.0156"/><polygon fill="#181818" points="354,1512.0156,358,1522.0156,362,1512.0156,358,1516.0156" style="stroke:#181818;stroke-width:1.0;"/><line style="stroke:#181818;stroke-width:1.0;" x1="187" x2="120" y1="1405.7969" y2="1405.7969"/><line style="stroke:#181818;stroke-width:1.0;" x1="120" x2="120" y1="1405.7969" y2="1465.4063"/><polygon fill="#181818" points="116,1455.4063,120,1465.4063,124,1455.4063,120,1459.4063" style="stroke:#181818;stroke-width:1.0;"/><line style="stroke:#181818;stroke-width:1.0;" x1="291" x2="358" y1="1405.7969" y2="1405.7969"/><line style="stroke:#181818;stroke-width:1.0;" x1="358" x2="358" y1="1405.7969" y2="1465.4063"/><polygon fill="#181818" points="354,1455.4063,358,1465.4063,362,1455.4063,358,1459.4063" style="stroke:#181818;stroke-width:1.0;"/><line style="stroke:#181818;stroke-width:1.0;" x1="120" x2="120" y1="1627.2031" y2="1657.2031"/><line style="stroke:#181818;stroke-width:1.0;" x1="120" x2="227" y1="1657.2031" y2="1657.2031"/><polygon fill="#181818" points="217,1653.2031,227,1657.2031,217,1661.2031,221,1657.2031" style="stroke:#181818;stroke-width:1.0;"/><line style="stroke:#181818;stroke-width:1.0;" x1="358" x2="358" y1="1557.1094" y2="1657.2031"/><line style="stroke:#181818;stroke-width:1.0;" x1="358" x2="251" y1="1657.2031" y2="1657.2031"/><polygon fill="#181818" points="261,1653.2031,251,1657.2031,261,1661.2031,257,1657.2031" style="stroke:#181818;stroke-width:1.0;"/><line style="stroke:#181818;stroke-width:1.0;" x1="239" x2="239" y1="1341.7969" y2="1393.7969"/><polygon fill="#181818" points="235,1383.7969,239,1393.7969,243,1383.7969,239,1387.7969" style="stroke:#181818;stroke-width:1.0;"/><line style="stroke:#181818;stroke-width:1.0;" x1="760" x2="760" y1="1167" y2="1187"/><polygon fill="#181818" points="756,1177,760,1187,764,1177,760,1181" style="stroke:#181818;stroke-width:1.0;"/><line style="stroke:#181818;stroke-width:1.0;" x1="760" x2="760" y1="1222.0938" y2="1249.0938"/><polygon fill="#181818" points="756,1239.0938,760,1249.0938,764,1239.0938,760,1243.0938" style="stroke:#181818;stroke-width:1.0;"/><line style="stroke:#181818;stroke-width:1.0;" x1="760" x2="760" y1="1284.1875" y2="1319.1875"/><polygon fill="#181818" points="756,1309.1875,760,1319.1875,764,1309.1875,760,1313.1875" style="stroke:#181818;stroke-width:1.0;"/><line style="stroke:#181818;stroke-width:1.0;" x1="760" x2="760" y1="1354.2813" y2="1443.8906"/><polygon fill="#181818" points="756,1433.8906,760,1443.8906,764,1433.8906,760,1437.8906" style="stroke:#181818;stroke-width:1.0;"/><line style="stroke:#181818;stroke-width:1.0;" x1="628.5" x2="628.5" y1="1627.2031" y2="1654.2031"/><polygon fill="#181818" points="624.5,1644.2031,628.5,1654.2031,632.5,1644.2031,628.5,1648.2031" style="stroke:#181818;stroke-width:1.0;"/><line style="stroke:#181818;stroke-width:1.0;" x1="628.5" x2="628.5" y1="1689.2969" y2="1716.2969"/><polygon fill="#181818" points="624.5,1706.2969,628.5,1716.2969,632.5,1706.2969,628.5,1710.2969" style="stroke:#181818;stroke-width:1.0;"/><line style="stroke:#181818;stroke-width:1.0;" x1="891.5" x2="891.5" y1="1627.2031" y2="1654.2031"/><polygon fill="#181818" points="887.5,1644.2031,891.5,1654.2031,895.5,1644.2031,891.5,1648.2031" style="stroke:#181818;stroke-width:1.0;"/><line style="stroke:#181818;stroke-width:1.0;" x1="695" x2="628.5" y1="1532.5" y2="1532.5"/><line style="stroke:#181818;stroke-width:1.0;" x1="628.5" x2="628.5" y1="1532.5" y2="1592.1094"/><polygon fill="#181818" points="624.5,1582.1094,628.5,1592.1094,632.5,1582.1094,628.5,1586.1094" style="stroke:#181818;stroke-width:1.0;"/><line style="stroke:#181818;stroke-width:1.0;" x1="825" x2="891.5" y1="1532.5" y2="1532.5"/><line style="stroke:#181818;stroke-width:1.0;" x1="891.5" x2="891.5" y1="1532.5" y2="1592.1094"/><polygon fill="#181818" points="887.5,1582.1094,891.5,1592.1094,895.5,1582.1094,891.5,1586.1094" style="stroke:#181818;stroke-width:1.0;"/><line style="stroke:#181818;stroke-width:1.0;" x1="628.5" x2="628.5" y1="1751.3906" y2="1781.3906"/><line style="stroke:#181818;stroke-width:1.0;" x1="628.5" x2="748" y1="1781.3906" y2="1781.3906"/><polygon fill="#181818" points="738,1777.3906,748,1781.3906,738,1785.3906,742,1781.3906" style="stroke:#181818;stroke-width:1.0;"/><line style="stroke:#181818;stroke-width:1.0;" x1="891.5" x2="891.5" y1="1689.2969" y2="1781.3906"/><line style="stroke:#181818;stroke-width:1.0;" x1="891.5" x2="772" y1="1781.3906" y2="1781.3906"/><polygon fill="#181818" points="782,1777.3906,772,1781.3906,782,1785.3906,778,1781.3906" style="stroke:#181818;stroke-width:1.0;"/><line style="stroke:#181818;stroke-width:1.0;" x1="760" x2="760" y1="1478.9844" y2="1520.5"/><polygon fill="#181818" points="756,1510.5,760,1520.5,764,1510.5,760,1514.5" style="stroke:#181818;stroke-width:1.0;"/><line style="stroke:#181818;stroke-width:1.0;" x1="446" x2="239" y1="1072.2969" y2="1072.2969"/><line style="stroke:#181818;stroke-width:1.0;" x1="239" x2="239" y1="1072.2969" y2="1131.9063"/><polygon fill="#181818" points="235,1121.9063,239,1131.9063,243,1121.9063,239,1125.9063" style="stroke:#181818;stroke-width:1.0;"/><line style="stroke:#181818;stroke-width:1.0;" x1="553" x2="760" y1="1072.2969" y2="1072.2969"/><line style="stroke:#181818;stroke-width:1.0;" x1="760" x2="760" y1="1072.2969" y2="1131.9063"/><polygon fill="#181818" points="756,1121.9063,760,1131.9063,764,1121.9063,760,1125.9063" style="stroke:#181818;stroke-width:1.0;"/><line style="stroke:#181818;stroke-width:1.0;" x1="239" x2="239" y1="1669.2031" y2="1811.3906"/><line style="stroke:#181818;stroke-width:1.0;" x1="239" x2="487.5" y1="1811.3906" y2="1811.3906"/><polygon fill="#181818" points="477.5,1807.3906,487.5,1811.3906,477.5,1815.3906,481.5,1811.3906" style="stroke:#181818;stroke-width:1.0;"/><line style="stroke:#181818;stroke-width:1.0;" x1="760" x2="760" y1="1793.3906" y2="1811.3906"/><line style="stroke:#181818;stroke-width:1.0;" x1="760" x2="511.5" y1="1811.3906" y2="1811.3906"/><polygon fill="#181818" points="521.5,1807.3906,511.5,1811.3906,521.5,1815.3906,517.5,1811.3906" style="stroke:#181818;stroke-width:1.0;"/><line style="stroke:#181818;stroke-width:1.0;" x1="499.5" x2="499.5" y1="1028.2969" y2="1060.2969"/><polygon fill="#181818" points="495.5,1050.2969,499.5,1060.2969,503.5,1050.2969,499.5,1054.2969" style="stroke:#181818;stroke-width:1.0;"/><line style="stroke:#181818;stroke-width:1.0;" x1="760" x2="499.5" y1="933.5938" y2="933.5938"/><line style="stroke:#181818;stroke-width:1.0;" x1="499.5" x2="499.5" y1="933.5938" y2="993.2031"/><polygon fill="#181818" points="495.5,983.2031,499.5,993.2031,503.5,983.2031,499.5,987.2031" style="stroke:#181818;stroke-width:1.0;"/><line style="stroke:#181818;stroke-width:1.0;" x1="923" x2="1183.5" y1="933.5938" y2="933.5938"/><line style="stroke:#181818;stroke-width:1.0;" x1="1183.5" x2="1183.5" y1="933.5938" y2="993.2031"/><polygon fill="#181818" points="1179.5,983.2031,1183.5,993.2031,1187.5,983.2031,1183.5,987.2031" style="stroke:#181818;stroke-width:1.0;"/><line style="stroke:#181818;stroke-width:1.0;" x1="499.5" x2="499.5" y1="1823.3906" y2="1841.3906"/><line style="stroke:#181818;stroke-width:1.0;" x1="499.5" x2="829.5" y1="1841.3906" y2="1841.3906"/><polygon fill="#181818" points="819.5,1837.3906,829.5,1841.3906,819.5,1845.3906,823.5,1841.3906" style="stroke:#181818;stroke-width:1.0;"/><line style="stroke:#181818;stroke-width:1.0;" x1="1183.5" x2="1183.5" y1="1028.2969" y2="1841.3906"/><line style="stroke:#181818;stroke-width:1.0;" x1="1183.5" x2="853.5" y1="1841.3906" y2="1841.3906"/><polygon fill="#181818" points="863.5,1837.3906,853.5,1841.3906,863.5,1845.3906,859.5,1841.3906" style="stroke:#181818;stroke-width:1.0;"/><line style="stroke:#181818;stroke-width:1.0;" x1="841.5" x2="841.5" y1="889.5938" y2="921.5938"/><polygon fill="#181818" points="837.5,911.5938,841.5,921.5938,845.5,911.5938,841.5,915.5938" style="stroke:#181818;stroke-width:1.0;"/><line style="stroke:#181818;stroke-width:1.0;" x1="1434" x2="1434" y1="494.9063" y2="579.5156"/><polygon fill="#181818" points="1430,569.5156,1434,579.5156,1438,569.5156,1434,573.5156" style="stroke:#181818;stroke-width:1.0;"/><line style="stroke:#181818;stroke-width:1.0;" x1="1107.25" x2="841.5" y1="400.2031" y2="400.2031"/><line style="stroke:#181818;stroke-width:1.0;" x1="841.5" x2="841.5" y1="400.2031" y2="459.8125"/><polygon fill="#181818" points="837.5,449.8125,841.5,459.8125,845.5,449.8125,841.5,453.8125" style="stroke:#181818;stroke-width:1.0;"/><line style="stroke:#181818;stroke-width:1.0;" x1="1188.25" x2="1434" y1="400.2031" y2="400.2031"/><line style="stroke:#181818;stroke-width:1.0;" x1="1434" x2="1434" y1="400.2031" y2="459.8125"/><polygon fill="#181818" points="1430,449.8125,1434,459.8125,1438,449.8125,1434,453.8125" style="stroke:#181818;stroke-width:1.0;"/><line style="stroke:#181818;stroke-width:1.0;" x1="841.5" x2="841.5" y1="1853.3906" y2="1871.3906"/><line style="stroke:#181818;stroke-width:1.0;" x1="841.5" x2="1135.75" y1="1871.3906" y2="1871.3906"/><polygon fill="#181818" points="1125.75,1867.3906,1135.75,1871.3906,1125.75,1875.3906,1129.75,1871.3906" style="stroke:#181818;stroke-width:1.0;"/><line style="stroke:#181818;stroke-width:1.0;" x1="1434" x2="1434" y1="614.6094" y2="1871.3906"/><line style="stroke:#181818;stroke-width:1.0;" x1="1434" x2="1159.75" y1="1871.3906" y2="1871.3906"/><polygon fill="#181818" points="1169.75,1867.3906,1159.75,1871.3906,1169.75,1875.3906,1165.75,1871.3906" style="stroke:#181818;stroke-width:1.0;"/><line style="stroke:#181818;stroke-width:1.0;" x1="1147.75" x2="1147.75" y1="356.2031" y2="388.2031"/><polygon fill="#181818" points="1143.75,378.2031,1147.75,388.2031,1151.75,378.2031,1147.75,382.2031" style="stroke:#181818;stroke-width:1.0;"/><line style="stroke:#181818;stroke-width:1.0;" x1="1147.75" x2="1147.75" y1="1883.3906" y2="1903.3906"/><polygon fill="#181818" points="1143.75,1893.3906,1147.75,1903.3906,1151.75,1893.3906,1147.75,1897.3906" style="stroke:#181818;stroke-width:1.0;"/><!--SRC=[rLOzRzim4DtrAmxfuWmTcXReHuOYQQ2f0Goa6JgU8bewa289aafX5Fhl9KKfbYpPaP5aw69BrEExzuvt91qvmU3gmT4ZkItS41O6AtWFLtb54cwPB9XG0c5jr8P4abXEKcF0O3_fRm9mZG-yCAgM-Gybb85twPVqEat35sLoPhhHY_IJ_-17KoLTD_OXlVZwyNFIU6w7nYM9ftVaI4auQrMSjH40laLD5QkocYEKAB122K8L92_t46Xhplr7_qG2Sl-aqTe_Nii8oGLnSAhAb82VaQSP2RWZwrZrfE2MLSmGj-Wf7SRGW86gdKWRMBKqy8Y2yk_du4ecOVKRpvEaPJZaRQW-Q0VEV0XRPWfxoME39AZq_xBkLYPYcacKiO7EXCHAamZvQMtebg7tCOlRA5D1hJsSTV2Zm0pBlOGto_qpRmtTKDg88YGv8aaMBRwlqGWUPxqdFnPu9hF8BKsCDZkwLaJ0R54Ma9CEivuYtyT4nPKPY5WYP2H65cqg9wcO0GzB-OugxTTYFJEZEQXcMYc31HwLlNwUD-JdPb1RqtxO3x98ILzkssXGCnFo4vuE96TIdvfP_vinKw9TD87xxSQBFxu6pMY42SjWzOjov2_qkIUR6QFC6scMEMrsQnWjt8VYMtTz_B8wfj1F7HE4ZVjoCJf3Kp-BvafkoFYzS-d4OR_q_JhQiLwrOvOmxtgcD_16NNCyFw_NClq9_PzrpOcoznfdzpeoTEf1vCAqS1OYh_dHhQwheYxmDEZooq1CLxpK55YWEFNexZFeBoypjpFFqucqJkb_]--></g></svg>